;TYPE=PLATED
;Layer: PTH_Through
;EasyEDA Pro v3.2.148, 2026-07-06 23:39:11
;Gerber Generator version 0.3
M48
METRIC,LZ,0000.00000
;Hole size 1 = 0.30500 METRIC
T01C0.30500
;Hole size 2 = 1.10002 METRIC
T02C1.10002
;Hole size 3 = 2.80000 METRIC
T03C2.80000
%
G05
G90
T01
X19.04458Y29.72342
X14.7828Y30.1244
X20.2184Y11.3284
X18.4404Y30.5816
X19.6596Y29.21
X32.2072Y16.7892
X30.0228Y27.2288
X14.0716Y25.2476
X29.6164Y48.768
X30.60106Y48.768
X17.46604Y47.51757
X18.6944Y47.4472
X9.5504Y31.65246
X9.4996Y40.6908
X18.3388Y31.6992
X23.7744Y48.3108
X22.098Y22.6568
X8.38199Y39.23539
X9.0426Y39.23539
X8.37082Y37.7952
X9.06071Y37.7952
X5.6896Y27.95118
X6.54877Y27.95118
X5.68942Y27.17909
X6.55012Y27.17909
X11.3792Y34.4932
X11.3792Y40.7924
X17.315Y26.93393
X17.315Y26.06044
X17.4752Y38.62432
X17.47641Y37.80516
X28.3972Y38.7604
X28.3972Y37.82761
X28.3972Y36.71371
X29.56596Y36.71371
X29.56596Y37.79485
X29.5148Y38.7604
X30.66893Y38.7604
X30.66893Y37.78393
X30.66893Y36.64819
X21.336Y32.85896
X21.336Y40.894
X12.7508Y40.8432
X12.5476Y33.3248
X22.61464Y29.40456
X22.606Y40.2844
X12.0396Y40.2844
X12.0904Y29.718
X12.192Y34.4932
X26.8732Y35.9156
X26.8224Y41.5544
X14.3042Y41.656
X14.32032Y34.71252
X23.9268Y26.7208
X24.71192Y26.7208
X23.9268Y25.8572
X24.72413Y25.8572
X13.6144Y43.3324
X21.2852Y43.3832
X22.9108Y48.3108
X13.2588Y24.9936
X13.1572Y29.7688
X5.5372Y24.2824
X10.7952Y29.6164
X34.2902Y60.9598
X15.1892Y17.2212
X21.9456Y48.3108
X20.7772Y22.8092
X13.9702Y58.4198
X14.1732Y31.1404
X14.1224Y49.371
X13.9444Y34.0108
X26.6702Y58.4198
X29.2102Y58.4198
X31.7502Y58.4198
X34.2902Y58.4198
X6.3502Y55.8798
X8.8902Y55.8798
X11.4302Y55.8798
X20.9296Y48.3108
X20.1168Y22.2504
X19.0502Y55.8798
X26.6702Y55.8798
X36.8302Y55.8798
X39.3702Y55.8798
X3.8102Y53.3398
X23.9776Y15.9512
X24.69648Y15.9512
X19.304Y31.496
X13.9702Y53.3398
X16.5102Y53.3398
X19.812Y48.3108
X35.56Y15.1384
X29.1084Y17.1704
X34.2902Y53.3398
X23.9776Y45.0596
X24.67241Y45.0596
X44.4502Y53.3398
X3.8102Y50.7998
X16.5102Y50.7998
X26.6702Y50.7998
X36.8302Y50.7998
X44.4502Y50.7998
X1.2702Y48.2598
X3.8102Y48.2598
X16.5102Y48.2598
X34.2392Y50.292
X33.274Y42.8244
X44.4502Y48.2598
X46.9902Y48.2598
X14.0716Y33.10153
X14.1732Y54.4068
X1.2702Y45.7198
X3.8102Y45.7198
X6.3502Y45.7198
X41.9102Y45.7198
X44.4502Y45.7198
X46.9902Y45.7198
X1.2702Y43.1798
X3.8102Y43.1798
X6.3502Y43.1798
X8.8902Y43.1798
X12.84416Y42.62944
X44.4502Y43.1798
X46.9902Y43.1798
X29.6672Y55.6768
X9.906Y29.6164
X30.63245Y55.6768
X17.018Y10.3632
X17.66326Y10.3632
X17.018Y9.6012
X17.66326Y9.6012
X46.9902Y40.6398
X14.12637Y32.25403
X1.2702Y38.0998
X3.8102Y38.0998
X34.2902Y38.0998
X20.50378Y2.91767
X16.49188Y42.1132
X36.8302Y38.0998
X46.9902Y38.0998
X1.2702Y35.5598
X8.8902Y35.5598
X32.3596Y42.1132
X30.3276Y3.1496
X30.226Y4.826
X34.8488Y55.4228
X22.9108Y4.6736
X23.876Y4.6736
X41.5544Y27.6352
X36.8302Y35.5598
X39.3702Y35.5598
X22.8092Y13.1064
X12.3952Y13.8176
X46.9902Y35.5598
X23.8252Y14.0716
X15.24Y14.0716
X14.478Y26.0096
X15.6972Y9.7028
X46.9902Y33.0198
X43.5356Y30.0736
X43.5356Y31.3436
X1.2702Y27.9398
X46.9902Y27.9398
X1.2702Y25.3998
X3.8102Y25.3998
X41.9102Y25.3998
X46.9902Y25.3998
X1.2702Y22.8598
X3.8102Y22.8598
X6.3502Y22.8598
X39.3702Y22.8598
X41.9102Y22.8598
X1.2702Y20.3198
X3.8102Y20.3198
X21.5902Y20.3198
X26.6702Y20.3198
X1.2702Y17.7798
X3.8102Y17.7798
X8.8902Y17.7798
X44.4502Y17.7798
X1.2702Y15.2398
X44.4502Y15.2398
X46.9902Y15.2398
X3.8102Y12.6998
X8.8902Y12.6998
X11.4302Y12.6998
X13.9702Y12.6998
X21.5902Y12.6998
X29.2102Y12.6998
X31.7502Y12.6998
X44.4502Y12.6998
X46.9902Y12.6998
X11.4302Y10.1598
X19.0502Y10.1598
X21.5902Y10.1598
X26.6702Y10.1598
X36.8302Y10.1598
X39.3702Y10.1598
X44.4502Y10.1598
X11.4302Y7.6198
X15.38672Y37.846
X13.9702Y7.6198
X16.5102Y7.6198
X29.2102Y7.6198
X15.38672Y39.624
X31.7502Y7.6198
X34.2902Y7.6198
X36.8302Y7.6198
X16.5102Y5.0798
X31.7502Y5.0798
X16.5102Y2.5398
X45.1612Y38.7604
X31.7502Y2.5398
X39.76757Y17.15363
X28.448Y24.5872
X43.942Y40.751
X26.60256Y31.54456
X39.1668Y17.8816
X15.8496Y44.0436
X15.92521Y36.322
X17.315Y28.4226
X28.89628Y33.92473
T02
X41.513Y36.75101
X39.513Y36.75101
X41.513Y38.751
X39.513Y38.751
X41.513Y40.751
X39.513Y40.751
X41.513Y42.75099
X39.513Y42.75099
T03
X11.5Y20.5
X11.5Y45.5
X36.5Y45.5
X36.5Y20.5
M30