G04 Layer: BottomPasteMaskLayer*
G04 EasyEDA Pro v3.2.148, 2026-07-06 23:39:11*
G04 Gerber Generator version 0.3*
G04 Scale: 100 percent, Rotated: No, Reflected: No*
G04 Dimensions in millimeters*
G04 Leading zeros omitted, absolute positions, 4 integers and 5 decimals*
G04 Generated by one-click*
G04 Object Configs: Pad,Via,Track,Text,Image,Dimension,BoardOutline,BoardCutout,CopperFilled,SolidRegion,FPCStiffener,Line,PlaneZone,ComponentProperty,ComponentSilkscreen,TearDrop*
G04 Layer Configs: 1,2,3,4,5,6,7,8,9,10,11,13,14,56*
G04 Copper Areas: 0*
%FSLAX45Y45*%
%MOMM*%
%AMPolygonMacro1*4,1,6,0.3175,-0.254,-0.1905,-0.254,-0.1905,0.0,-0.3175,0.0,-0.3175,0.254,0.3175,0.254,0.3175,-0.254,0*%
%ADD10R,0.8X0.9*%
%ADD11R,0.9X0.8*%
%ADD12R,1.575X0.67201*%
%ADD13R,0.508X0.508*%
%ADD14PolygonMacro1*%
%ADD15O,1.8681X0.63*%
%ADD16O,1.865X0.63*%
%ADD17R,2.4X3.29999*%
G75*


G04 PolygonModel Start*
G36*
G01X3301761Y3151198D02*
G01X3329181Y3180573D01*
G01X3379508Y3180573D01*
G01X3385909Y3174172D01*
G01X3385909Y3100573D01*
G01X3379508Y3094172D01*
G01X3329181Y3094172D01*
G01X3301761Y3123547D01*
G01X3301761Y3151198D01*
G37*
G36*
G01X3250197Y3152323D02*
G01X3250197Y3124672D01*
G01X3222777Y3095297D01*
G01X3172450Y3095297D01*
G01X3166049Y3101698D01*
G01X3166049Y3175297D01*
G01X3172450Y3181698D01*
G01X3222777Y3181698D01*
G01X3250197Y3152323D01*
G37*
G36*
G01X3931798Y3512099D02*
G01X4011798Y3512099D01*
G01X4016799Y3507097D01*
G01X4016799Y3484301D01*
G01X3979799Y3484301D01*
G01X3979799Y3451301D01*
G01X4016799Y3451301D01*
G01X4016799Y3427098D01*
G01X4011798Y3422099D01*
G01X3931798Y3422099D01*
G01X3926799Y3427098D01*
G01X3926799Y3507097D01*
G01X3931798Y3512099D01*
G37*
G36*
G01X4170802Y3422101D02*
G01X4090802Y3422101D01*
G01X4085801Y3427103D01*
G01X4085801Y3449899D01*
G01X4122801Y3449899D01*
G01X4122801Y3482899D01*
G01X4085801Y3482899D01*
G01X4085801Y3507102D01*
G01X4090802Y3512101D01*
G01X4170802Y3512101D01*
G01X4175801Y3507102D01*
G01X4175801Y3427103D01*
G01X4170802Y3422101D01*
G37*
G36*
G01X3416178Y2767879D02*
G01X3496178Y2767879D01*
G01X3501179Y2762877D01*
G01X3501179Y2740081D01*
G01X3464179Y2740081D01*
G01X3464179Y2707081D01*
G01X3501179Y2707081D01*
G01X3501179Y2682878D01*
G01X3496178Y2677879D01*
G01X3416178Y2677879D01*
G01X3411179Y2682878D01*
G01X3411179Y2762877D01*
G01X3416178Y2767879D01*
G37*
G36*
G01X3655182Y2677881D02*
G01X3575182Y2677881D01*
G01X3570181Y2682883D01*
G01X3570181Y2705679D01*
G01X3607181Y2705679D01*
G01X3607181Y2738679D01*
G01X3570181Y2738679D01*
G01X3570181Y2762882D01*
G01X3575182Y2767881D01*
G01X3655182Y2767881D01*
G01X3660181Y2762882D01*
G01X3660181Y2682883D01*
G01X3655182Y2677881D01*
G37*

G04 Pad Start*
G54D10*
G01X3791102Y3467100D03*
G01X3651098Y3467100D03*
G54D11*
G01X3378200Y2863698D03*
G01X3378200Y3003702D03*
G01X3200400Y2863698D03*
G01X3200400Y3003702D03*
G54D10*
G01X3244698Y3276600D03*
G01X3384702Y3276600D03*
G01X3270098Y3886200D03*
G01X3410102Y3886200D03*
G54D12*
G01X3421587Y3730719D03*
G01X3421587Y3430720D03*
G36*
G01X3057643Y3485736D02*
G01X3053190Y3485843D01*
G01X3048748Y3486155D01*
G01X3044323Y3486676D01*
G01X3039929Y3487402D01*
G01X3035573Y3488337D01*
G01X3031268Y3489472D01*
G01X3027018Y3490808D01*
G01X3022837Y3492343D01*
G01X3018733Y3494072D01*
G01X3014712Y3495990D01*
G01X3010788Y3498096D01*
G01X3006965Y3500384D01*
G01X3003254Y3502848D01*
G01X2999663Y3505482D01*
G01X2996201Y3508281D01*
G01X2992871Y3511243D01*
G01X2989685Y3514354D01*
G01X2986648Y3517613D01*
G01X2983767Y3521009D01*
G01X2981049Y3524537D01*
G01X2978499Y3528190D01*
G01X2976124Y3531956D01*
G01X2973927Y3535832D01*
G01X2971913Y3539805D01*
G01X2970089Y3543869D01*
G01X2968456Y3548012D01*
G01X2967021Y3552228D01*
G01X2965784Y3556508D01*
G01X2964750Y3560841D01*
G01X2963920Y3565215D01*
G01X2963295Y3569627D01*
G01X2962878Y3574062D01*
G01X2962670Y3578509D01*
G01X2962670Y3582965D01*
G01X2962878Y3587412D01*
G01X2963295Y3591847D01*
G01X2963920Y3596259D01*
G01X2964750Y3600633D01*
G01X2965784Y3604966D01*
G01X2967021Y3609246D01*
G01X2968456Y3613462D01*
G01X2970089Y3617605D01*
G01X2971913Y3621669D01*
G01X2973927Y3625642D01*
G01X2976124Y3629518D01*
G01X2978499Y3633285D01*
G01X2981049Y3636937D01*
G01X2983767Y3640465D01*
G01X2986648Y3643861D01*
G01X2989685Y3647120D01*
G01X2992871Y3650231D01*
G01X2996201Y3653193D01*
G01X2999663Y3655992D01*
G01X3003254Y3658626D01*
G01X3006965Y3661090D01*
G01X3010788Y3663379D01*
G01X3014712Y3665484D01*
G01X3018733Y3667402D01*
G01X3022837Y3669132D01*
G01X3027018Y3670666D01*
G01X3031268Y3672002D01*
G01X3035573Y3673137D01*
G01X3039929Y3674072D01*
G01X3044323Y3674798D01*
G01X3048748Y3675319D01*
G01X3053190Y3675631D01*
G01X3057643Y3675738D01*
G01X3243063Y3675738D01*
G01X3247516Y3675631D01*
G01X3251958Y3675319D01*
G01X3256383Y3674798D01*
G01X3260777Y3674072D01*
G01X3265133Y3673137D01*
G01X3269438Y3672002D01*
G01X3273688Y3670666D01*
G01X3277869Y3669132D01*
G01X3281973Y3667402D01*
G01X3285994Y3665484D01*
G01X3289918Y3663379D01*
G01X3293741Y3661090D01*
G01X3297452Y3658626D01*
G01X3301044Y3655992D01*
G01X3304506Y3653193D01*
G01X3307836Y3650231D01*
G01X3311021Y3647120D01*
G01X3314059Y3643861D01*
G01X3316939Y3640465D01*
G01X3319657Y3636937D01*
G01X3322207Y3633285D01*
G01X3324582Y3629518D01*
G01X3326779Y3625642D01*
G01X3328793Y3621669D01*
G01X3330617Y3613734D01*
G01X3500350Y3613734D01*
G01X3500350Y3547735D01*
G01X3330617Y3547735D01*
G01X3328793Y3539805D01*
G01X3326779Y3535832D01*
G01X3324582Y3531956D01*
G01X3322207Y3528190D01*
G01X3319657Y3524537D01*
G01X3316939Y3521009D01*
G01X3314059Y3517613D01*
G01X3311021Y3514354D01*
G01X3307836Y3511243D01*
G01X3304506Y3508281D01*
G01X3301044Y3505482D01*
G01X3297452Y3502848D01*
G01X3293741Y3500384D01*
G01X3289918Y3498096D01*
G01X3285994Y3495990D01*
G01X3281973Y3494072D01*
G01X3277869Y3492343D01*
G01X3273688Y3490808D01*
G01X3269438Y3489472D01*
G01X3265133Y3488337D01*
G01X3260777Y3487402D01*
G01X3256383Y3486676D01*
G01X3251958Y3486155D01*
G01X3247516Y3485843D01*
G01X3243063Y3485736D01*
G01X3057643Y3485736D01*
G37*
G54D13*
G01X2297443Y384797D03*
G01X2217433Y384797D03*
G01X2217433Y304787D03*
G01X2377453Y384797D03*
G01X2457437Y384797D03*
G01X2537447Y304787D03*
G01X2537447Y384797D03*
G01X2537447Y224803D03*
G01X2457437Y224803D03*
G54D14*
G01X2217443Y224798D03*
G54D13*
G01X2297443Y224803D03*
G01X2377453Y224803D03*
G54D16*
G01X3616474Y2883710D03*
G01X3616474Y3010710D03*
G01X3616474Y3137710D03*
G01X3616474Y3264710D03*
G01X4152972Y2883710D03*
G01X4152972Y3010710D03*
G01X4152972Y3137710D03*
G01X4152972Y3264710D03*
G54D17*
G01X3884723Y3074210D03*
G04 Pad End*

M02*

