G04 Layer: BottomLayer*
G04 EasyEDA Pro v3.2.148, 2026-07-06 23:39:11*
G04 Gerber Generator version 0.3*
G04 Scale: 100 percent, Rotated: No, Reflected: No*
G04 Dimensions in millimeters*
G04 Leading zeros omitted, absolute positions, 4 integers and 5 decimals*
G04 Generated by one-click*
G04 Object Configs: Pad,Via,Track,Text,Image,Dimension,BoardOutline,BoardCutout,CopperFilled,SolidRegion,FPCStiffener,Line,PlaneZone,ComponentProperty,ComponentSilkscreen,TearDrop*
G04 Layer Configs: 1,2,3,4,5,6,7,8,9,10,11,13,14,56*
G04 Copper Areas: 4*
%FSLAX45Y45*%
%MOMM*%
%AMPolygonMacro1*4,1,6,0.3175,-0.254,-0.1905,-0.254,-0.1905,0.0,-0.3175,0.0,-0.3175,0.254,0.3175,0.254,0.3175,-0.254,0*%
%ADD10C,0.2032*%
%ADD11C,5.0*%
%ADD12R,0.8X0.9*%
%ADD13R,0.9X0.8*%
%ADD14C,1.7*%
%ADD15R,1.7X1.7*%
%ADD16R,0.8X0.86401*%
%ADD17R,1.575X0.67201*%
%ADD18R,0.8194X0.86401*%
%ADD19R,0.80648X0.86401*%
%ADD20R,0.508X0.508*%
%ADD21PolygonMacro1*%
%ADD22O,1.865X0.63*%
%ADD23R,2.4X3.29999*%
%ADD24C,0.61*%
%ADD25C,0.1524*%
%ADD26C,0.254*%
%ADD27C,0.508*%
%ADD28C,1.016*%
G75*


G04 Copper Start*
G36*
G01X35814Y1315375D02*
G01X35814Y3029880D01*
G01X533146Y3029880D01*
G01X533146Y2886616D01*
G01X510619Y2886616D01*
G01X499552Y2884863D01*
G01X489568Y2879776D01*
G01X481645Y2871853D01*
G01X476558Y2861869D01*
G01X474805Y2850802D01*
G01X474805Y2687320D01*
G01X476558Y2676253D01*
G01X481645Y2666269D01*
G01X489568Y2658346D01*
G01X499552Y2653259D01*
G01X510619Y2651506D01*
G01X701040Y2651506D01*
G01X712883Y2653521D01*
G01X723394Y2659339D01*
G01X558441Y2494386D01*
G01X542403Y2493581D01*
G01X527029Y2488945D01*
G01X513220Y2480750D01*
G01X501786Y2469476D01*
G01X493397Y2455783D01*
G01X488545Y2440476D01*
G01X487514Y2424451D01*
G01X490366Y2408649D01*
G01X496933Y2393995D01*
G01X506829Y2381349D01*
G01X519475Y2371453D01*
G01X534129Y2364886D01*
G01X549931Y2362034D01*
G01X565956Y2363065D01*
G01X581263Y2367917D01*
G01X594956Y2376306D01*
G01X606230Y2387740D01*
G01X614425Y2401549D01*
G01X619061Y2416923D01*
G01X619866Y2432961D01*
G01X1082289Y2895384D01*
G01X1097585Y2897834D01*
G01X1111895Y2903766D01*
G01X1124439Y2912856D01*
G01X1134531Y2924608D01*
G01X1141621Y2938381D01*
G01X1145323Y2953424D01*
G01X1151105Y2939534D01*
G01X1159870Y2927305D01*
G01X1171165Y2917366D01*
G01X1184410Y2910229D01*
G01X1198923Y2906262D01*
G01X1213957Y2905668D01*
G01X1228738Y2908479D01*
G01X1242505Y2914549D01*
G01X1254549Y2923566D01*
G01X1264250Y2935066D01*
G01X1272286Y2926770D01*
G01X1272286Y2538414D01*
G01X1264944Y2525519D01*
G01X1260652Y2511314D01*
G01X1259627Y2496510D01*
G01X1261920Y2481850D01*
G01X1267415Y2468065D01*
G01X1275837Y2455848D01*
G01X1286766Y2445810D01*
G01X1299652Y2438453D01*
G01X1313853Y2434146D01*
G01X1328655Y2433104D01*
G01X1343319Y2435380D01*
G01X1357109Y2440859D01*
G01X1369335Y2449268D01*
G01X1379386Y2460185D01*
G01X1379386Y2220504D01*
G01X1357739Y2246301D01*
G01X1333208Y2269373D01*
G01X1306133Y2289399D01*
G01X1276891Y2306102D01*
G01X1245887Y2319249D01*
G01X1213552Y2328659D01*
G01X1180335Y2334200D01*
G01X1146697Y2335795D01*
G01X1113104Y2333423D01*
G01X1080024Y2327115D01*
G01X1047915Y2316961D01*
G01X1017223Y2303101D01*
G01X988375Y2285726D01*
G01X961770Y2265080D01*
G01X937779Y2241447D01*
G01X916734Y2215156D01*
G01X898927Y2186573D01*
G01X884606Y2156094D01*
G01X873970Y2124141D01*
G01X867165Y2091160D01*
G01X864287Y2057607D01*
G01X865376Y2023948D01*
G01X870416Y1990651D01*
G01X879337Y1958178D01*
G01X892016Y1926980D01*
G01X908277Y1897489D01*
G01X927893Y1870116D01*
G01X950593Y1845241D01*
G01X976061Y1823207D01*
G01X1003944Y1804323D01*
G01X1033855Y1788849D01*
G01X1065378Y1777000D01*
G01X1098076Y1768942D01*
G01X1131494Y1764786D01*
G01X1165170Y1764589D01*
G01X1198635Y1768354D01*
G01X1196728Y1761134D01*
G01X1196086Y1753694D01*
G01X1196086Y1431870D01*
G01X1185315Y1419961D01*
G01X1177721Y1405812D01*
G01X1173752Y1390252D01*
G01X1173639Y1374195D01*
G01X1177389Y1358581D01*
G01X1184782Y1344326D01*
G01X1195385Y1332266D01*
G01X1208575Y1323109D01*
G01X1223580Y1317390D01*
G01X1239520Y1315446D01*
G01X1255460Y1317390D01*
G01X1270465Y1323109D01*
G01X1283655Y1332266D01*
G01X1294258Y1344326D01*
G01X1301651Y1358581D01*
G01X1305401Y1374195D01*
G01X1305288Y1390252D01*
G01X1301319Y1405812D01*
G01X1293725Y1419961D01*
G01X1282954Y1431870D01*
G01X1282954Y1735703D01*
G01X1419606Y1872355D01*
G01X1419606Y1468120D01*
G01X1421086Y1456878D01*
G01X1425425Y1446403D01*
G01X1432328Y1437408D01*
G01X1457854Y1411881D01*
G01X1458261Y1398444D01*
G01X1461370Y1385365D01*
G01X1467052Y1373182D01*
G01X1475074Y1362396D01*
G01X1485107Y1353449D01*
G01X1496739Y1346709D01*
G01X1509490Y1342453D01*
G01X1522838Y1340856D01*
G01X1536233Y1341984D01*
G01X1549126Y1345790D01*
G01X1549126Y1033315D01*
G01X1534886Y1026708D01*
G01X1522598Y1016939D01*
G01X1512951Y1004555D01*
G01X1506485Y990251D01*
G01X1503562Y974827D01*
G01X1504347Y959149D01*
G01X1508795Y944094D01*
G01X1516657Y930507D01*
G01X1527493Y919148D01*
G01X1540695Y910655D01*
G01X1555524Y905503D01*
G01X1571148Y903981D01*
G01X1586692Y906175D01*
G01X1601285Y911960D01*
G01X1614109Y921014D01*
G01X1624446Y932829D01*
G01X1631716Y946742D01*
G01X1635512Y961974D01*
G01X1636425Y948999D01*
G01X1639854Y936451D01*
G01X1645666Y924814D01*
G01X1647386Y913701D01*
G01X1652456Y903664D01*
G01X1660379Y895685D01*
G01X1670380Y890544D01*
G01X1681480Y888746D01*
G01X1788160Y888746D01*
G01X1799227Y890499D01*
G01X1809211Y895586D01*
G01X1817134Y903509D01*
G01X1822221Y913493D01*
G01X1823974Y924560D01*
G01X1823974Y927345D01*
G01X1829475Y939879D01*
G01X1832286Y953276D01*
G01X1832286Y966964D01*
G01X1829475Y980361D01*
G01X1823974Y992895D01*
G01X1823974Y1003545D01*
G01X1829475Y1016079D01*
G01X1832286Y1029476D01*
G01X1832286Y1043164D01*
G01X1829475Y1056561D01*
G01X1823974Y1069095D01*
G01X1823974Y1269281D01*
G01X1955694Y1137561D01*
G01X1956499Y1121523D01*
G01X1961135Y1106149D01*
G01X1969330Y1092340D01*
G01X1980604Y1080906D01*
G01X1994297Y1072517D01*
G01X2009604Y1067665D01*
G01X2025629Y1066634D01*
G01X2041431Y1069486D01*
G01X2056085Y1076053D01*
G01X2068731Y1085949D01*
G01X2078627Y1098595D01*
G01X2085194Y1113249D01*
G01X2088046Y1129051D01*
G01X2087015Y1145076D01*
G01X2082163Y1160383D01*
G01X2073774Y1174076D01*
G01X2062340Y1185350D01*
G01X2048531Y1193545D01*
G01X2033157Y1198181D01*
G01X2017119Y1198986D01*
G01X1887474Y1328631D01*
G01X1887474Y1657901D01*
G01X2113048Y1432328D01*
G01X2122043Y1425425D01*
G01X2132518Y1421086D01*
G01X2143760Y1419606D01*
G01X2317384Y1419606D01*
G01X2316258Y1404523D01*
G01X2318579Y1389578D01*
G01X2324226Y1375547D01*
G01X2332906Y1363160D01*
G01X2344166Y1353063D01*
G01X2344166Y1330577D01*
G01X2337525Y1345186D01*
G01X2327569Y1357772D01*
G01X2314881Y1367598D01*
G01X2300205Y1374088D01*
G01X2284399Y1376863D01*
G01X2268390Y1375760D01*
G01X2253114Y1370843D01*
G01X2239467Y1362401D01*
G01X2228247Y1350928D01*
G01X2220111Y1337095D01*
G01X2215537Y1321713D01*
G01X2214791Y1305683D01*
G01X2217918Y1289943D01*
G01X2224735Y1275416D01*
G01X2234841Y1262950D01*
G01X2247646Y1253278D01*
G01X2247646Y517470D01*
G01X2237099Y505878D01*
G01X2229568Y492135D01*
G01X2225471Y477007D01*
G01X2225040Y461341D01*
G01X2228296Y446011D01*
G01X2143408Y446011D01*
G01X2131466Y444835D01*
G01X2119982Y441352D01*
G01X2109399Y435695D01*
G01X2100123Y428082D01*
G01X2025126Y353085D01*
G01X2011488Y345480D01*
G01X2000005Y334897D01*
G01X1991316Y321922D01*
G01X1985902Y307274D01*
G01X1984064Y291767D01*
G01X1985902Y276260D01*
G01X1991316Y261613D01*
G01X2000005Y248638D01*
G01X2011488Y238054D01*
G01X2025126Y230449D01*
G01X2074058Y181518D01*
G01X2083334Y173905D01*
G01X2093917Y168248D01*
G01X2105400Y164765D01*
G01X2117342Y163589D01*
G01X2197790Y163589D01*
G01X2198393Y163584D01*
G01X2249193Y163584D01*
G01X2260260Y165336D01*
G01X2270244Y170423D01*
G01X2278167Y178347D01*
G01X2283254Y188330D01*
G01X2285007Y199398D01*
G01X2285007Y250198D01*
G01X2283254Y261265D01*
G01X2278167Y271249D01*
G01X2270244Y279172D01*
G01X2260260Y284259D01*
G01X2249193Y286012D01*
G01X2218221Y286012D01*
G01X2217433Y286017D01*
G01X2142698Y286017D01*
G01X2136948Y291767D01*
G01X2168764Y323583D01*
G01X2242833Y323583D01*
G01X2250299Y324370D01*
G01X2257438Y326697D01*
G01X2264576Y324370D01*
G01X2272043Y323583D01*
G01X2322843Y323583D01*
G01X2330309Y324370D01*
G01X2337448Y326697D01*
G01X2344586Y324370D01*
G01X2352053Y323583D01*
G01X2402853Y323583D01*
G01X2410312Y324369D01*
G01X2417445Y326691D01*
G01X2424578Y324369D01*
G01X2432037Y323583D01*
G01X2482837Y323583D01*
G01X2490304Y324370D01*
G01X2497442Y326697D01*
G01X2504581Y324370D01*
G01X2512047Y323583D01*
G01X2562847Y323583D01*
G01X2572081Y324794D01*
G01X2580691Y328345D01*
G01X2588094Y333995D01*
G01X2593789Y341363D01*
G01X2924797Y341363D01*
G01X2936039Y342843D01*
G01X2946514Y347182D01*
G01X2955510Y354085D01*
G01X3017879Y416454D01*
G01X3032835Y417080D01*
G01X3047269Y421045D01*
G01X3060446Y428146D01*
G01X3060446Y404071D01*
G01X3037481Y381106D01*
G01X3021312Y380278D01*
G01X3005825Y375558D01*
G01X2991944Y367225D01*
G01X2980495Y355776D01*
G01X2972162Y341895D01*
G01X2967442Y326408D01*
G01X2966614Y310239D01*
G01X2892849Y236474D01*
G01X2598661Y236474D01*
G01X2598661Y250203D01*
G01X2596908Y261270D01*
G01X2591821Y271254D01*
G01X2583898Y279177D01*
G01X2573914Y284264D01*
G01X2562847Y286017D01*
G01X2512047Y286017D01*
G01X2500980Y284264D01*
G01X2490996Y279177D01*
G01X2483073Y271254D01*
G01X2477986Y261270D01*
G01X2476233Y250203D01*
G01X2476233Y199403D01*
G01X2477986Y188336D01*
G01X2483073Y178352D01*
G01X2490996Y170429D01*
G01X2500980Y165342D01*
G01X2512047Y163589D01*
G01X2537236Y163589D01*
G01X2538498Y162328D01*
G01X2547493Y155425D01*
G01X2557968Y151086D01*
G01X2569210Y149606D01*
G01X2910840Y149606D01*
G01X2922082Y151086D01*
G01X2932557Y155425D01*
G01X2941552Y162328D01*
G01X3028039Y248814D01*
G01X3044208Y249642D01*
G01X3059695Y254362D01*
G01X3073576Y262695D01*
G01X3085025Y274144D01*
G01X3093358Y288025D01*
G01X3098078Y303512D01*
G01X3098906Y319681D01*
G01X3134592Y355368D01*
G01X3141495Y364363D01*
G01X3145834Y374838D01*
G01X3147314Y386080D01*
G01X3147314Y873760D01*
G01X3145834Y885002D01*
G01X3141495Y895477D01*
G01X3134592Y904472D01*
G01X2527970Y1511095D01*
G01X2537109Y1516464D01*
G01X2544277Y1524272D01*
G01X2548845Y1533837D01*
G01X2550414Y1544320D01*
G01X2550414Y1720829D01*
G01X2844634Y1720829D01*
G01X2845665Y1704804D01*
G01X2850517Y1689497D01*
G01X2858906Y1675804D01*
G01X2870340Y1664530D01*
G01X2884149Y1656335D01*
G01X2899523Y1651699D01*
G01X2915561Y1650894D01*
G01X3083328Y1483128D01*
G01X3092323Y1476225D01*
G01X3102798Y1471886D01*
G01X3114040Y1470406D01*
G01X3505890Y1470406D01*
G01X3517799Y1459635D01*
G01X3531948Y1452041D01*
G01X3547508Y1448072D01*
G01X3563565Y1447959D01*
G01X3579179Y1451709D01*
G01X3593434Y1459102D01*
G01X3605494Y1469705D01*
G01X3614651Y1482895D01*
G01X3620370Y1497900D01*
G01X3622314Y1513840D01*
G01X3620370Y1529780D01*
G01X3614651Y1544785D01*
G01X3605494Y1557975D01*
G01X3593434Y1568578D01*
G01X3579179Y1575971D01*
G01X3563565Y1579721D01*
G01X3547508Y1579608D01*
G01X3531948Y1575639D01*
G01X3517799Y1568045D01*
G01X3505890Y1557274D01*
G01X3132031Y1557274D01*
G01X3132031Y1557274D01*
G01X2976986Y1712319D01*
G01X2976181Y1728357D01*
G01X2971545Y1743731D01*
G01X2963350Y1757540D01*
G01X2952076Y1768974D01*
G01X2938383Y1777363D01*
G01X2923076Y1782215D01*
G01X2907051Y1783246D01*
G01X2891249Y1780394D01*
G01X2876595Y1773827D01*
G01X2863949Y1763931D01*
G01X2854053Y1751285D01*
G01X2847486Y1736631D01*
G01X2844634Y1720829D01*
G01X2550414Y1720829D01*
G01X2550414Y2917088D01*
G01X3200400Y2917088D01*
G01X3213489Y2918083D01*
G01X3226278Y2921045D01*
G01X3238472Y2925905D01*
G01X3502276Y2925905D01*
G01X3494189Y2913150D01*
G01X3489149Y2898914D01*
G01X3487410Y2883912D01*
G01X3489059Y2868900D01*
G01X3494014Y2854634D01*
G01X3502024Y2841831D01*
G01X3512687Y2831136D01*
G01X3525465Y2823088D01*
G01X3539717Y2818091D01*
G01X3554724Y2816396D01*
G01X3570122Y2816396D01*
G01X3570122Y2801890D01*
G01X3558356Y2799703D01*
G01X3547968Y2793761D01*
G01X3540117Y2784729D01*
G01X3535680Y2773614D01*
G01X3532373Y2782736D01*
G01X3526738Y2790636D01*
G01X3519189Y2796733D01*
G01X3510281Y2800580D01*
G01X3500667Y2801894D01*
G01X3420020Y2801894D01*
G01X3408997Y2800156D01*
G01X3399045Y2795109D01*
G01X3391128Y2787245D01*
G01X3386017Y2777325D01*
G01X3384207Y2766314D01*
G01X3052390Y2766314D01*
G01X3040922Y2776772D01*
G01X3027338Y2784278D01*
G01X3012381Y2788420D01*
G01X2996871Y2788973D01*
G01X2981657Y2785906D01*
G01X2967572Y2779386D01*
G01X2955389Y2769771D01*
G01X2945774Y2757588D01*
G01X2939254Y2743503D01*
G01X2936187Y2728289D01*
G01X2936740Y2712779D01*
G01X2940882Y2697822D01*
G01X2948388Y2684238D01*
G01X2958846Y2672770D01*
G01X2958846Y1897360D01*
G01X2960326Y1886119D01*
G01X2964665Y1875643D01*
G01X2971568Y1866648D01*
G01X3154574Y1683641D01*
G01X3155379Y1667603D01*
G01X3160015Y1652229D01*
G01X3168210Y1638420D01*
G01X3179484Y1626986D01*
G01X3193177Y1618597D01*
G01X3208484Y1613745D01*
G01X3224509Y1612714D01*
G01X3240311Y1615566D01*
G01X3254965Y1622133D01*
G01X3267611Y1632029D01*
G01X3277507Y1644675D01*
G01X3284074Y1659329D01*
G01X3286926Y1675131D01*
G01X3285895Y1691156D01*
G01X3281043Y1706464D01*
G01X3272654Y1720156D01*
G01X3261220Y1731430D01*
G01X3247411Y1739626D01*
G01X3232037Y1744261D01*
G01X3215999Y1745066D01*
G01X3045714Y1915351D01*
G01X3045714Y2050000D01*
G01X3364186Y2050000D01*
G01X3366119Y2016819D01*
G01X3371890Y1984087D01*
G01X3381423Y1952246D01*
G01X3394587Y1921727D01*
G01X3411206Y1892943D01*
G01X3431054Y1866282D01*
G01X3453863Y1842106D01*
G01X3479324Y1820742D01*
G01X3507093Y1802478D01*
G01X3536795Y1787561D01*
G01X3568028Y1776193D01*
G01X3600369Y1768528D01*
G01X3633381Y1764670D01*
G01X3666619Y1764670D01*
G01X3699631Y1768528D01*
G01X3731972Y1776193D01*
G01X3763205Y1787561D01*
G01X3792907Y1802478D01*
G01X3820676Y1820742D01*
G01X3846138Y1842106D01*
G01X3868946Y1866282D01*
G01X3888794Y1892943D01*
G01X3905413Y1921727D01*
G01X3918577Y1952246D01*
G01X3928110Y1984087D01*
G01X3933882Y2016819D01*
G01X3935814Y2050000D01*
G01X3933882Y2083181D01*
G01X3928110Y2115913D01*
G01X3918577Y2147754D01*
G01X3905413Y2178273D01*
G01X3888794Y2207057D01*
G01X3868946Y2233718D01*
G01X3846138Y2257894D01*
G01X3820676Y2279258D01*
G01X3792907Y2297522D01*
G01X3763205Y2312439D01*
G01X3731972Y2323807D01*
G01X3699631Y2331472D01*
G01X3666619Y2335330D01*
G01X3633381Y2335330D01*
G01X3600369Y2331472D01*
G01X3568028Y2323807D01*
G01X3536795Y2312439D01*
G01X3507093Y2297522D01*
G01X3479324Y2279258D01*
G01X3453863Y2257894D01*
G01X3431054Y2233718D01*
G01X3411206Y2207057D01*
G01X3394587Y2178273D01*
G01X3381423Y2147754D01*
G01X3371890Y2115913D01*
G01X3366119Y2083181D01*
G01X3364186Y2050000D01*
G01X3364186Y2050000D01*
G01X3045714Y2050000D01*
G01X3045714Y2672770D01*
G01X3052390Y2679446D01*
G01X3384207Y2679446D01*
G01X3386017Y2668435D01*
G01X3391128Y2658515D01*
G01X3399045Y2650651D01*
G01X3408997Y2645604D01*
G01X3420020Y2643866D01*
G01X3500667Y2643866D01*
G01X3510281Y2645180D01*
G01X3519189Y2649027D01*
G01X3526738Y2655124D01*
G01X3532373Y2663024D01*
G01X3535680Y2672146D01*
G01X3538987Y2663024D01*
G01X3544622Y2655124D01*
G01X3552171Y2649027D01*
G01X3561079Y2645180D01*
G01X3570693Y2643866D01*
G01X3651340Y2643866D01*
G01X3662407Y2645619D01*
G01X3672391Y2650706D01*
G01X3680314Y2658629D01*
G01X3685401Y2668613D01*
G01X3687154Y2679680D01*
G01X3687154Y2766080D01*
G01X3685775Y2775922D01*
G01X3681745Y2785007D01*
G01X3675373Y2792634D01*
G01X3667150Y2798216D01*
G01X3667150Y2816396D01*
G01X3678224Y2816396D01*
G01X3693861Y2818238D01*
G01X3708642Y2823661D01*
G01X3721759Y2832370D01*
G01X3732495Y2843888D01*
G01X3740261Y2857585D01*
G01X3744633Y2872711D01*
G01X3745371Y2888438D01*
G01X3742436Y2903907D01*
G01X3735988Y2918271D01*
G01X3726379Y2930744D01*
G01X3733768Y2936438D01*
G01X3739437Y2943848D01*
G01X3742999Y2952469D01*
G01X3744214Y2961719D01*
G01X3744214Y2997428D01*
G01X3745537Y3010710D01*
G01X3744214Y3023992D01*
G01X3744214Y3048000D01*
G01X3742264Y3059655D01*
G01X3736628Y3070042D01*
G01X3727918Y3078028D01*
G01X3717083Y3082746D01*
G01X3729130Y3093668D01*
G01X3738206Y3107161D01*
G01X3743782Y3122437D01*
G01X3745531Y3138604D01*
G01X3743353Y3154719D01*
G01X3737374Y3169841D01*
G01X3727943Y3183088D01*
G01X3736640Y3191074D01*
G01X3742268Y3201454D01*
G01X3744214Y3213100D01*
G01X3744214Y3251428D01*
G01X3745537Y3264710D01*
G01X3744214Y3277992D01*
G01X3744214Y3314700D01*
G01X3742461Y3325767D01*
G01X3737374Y3335751D01*
G01X3729451Y3343674D01*
G01X3719467Y3348761D01*
G01X3708400Y3350514D01*
G01X3541014Y3350514D01*
G01X3541014Y3467100D01*
G01X3539261Y3478167D01*
G01X3534174Y3488151D01*
G01X3526251Y3496074D01*
G01X3516267Y3501161D01*
G01X3505200Y3502914D01*
G01X3350514Y3502914D01*
G01X3350514Y3506172D01*
G01X3351572Y3507687D01*
G01X3352502Y3509089D01*
G01X3354288Y3511921D01*
G01X3500350Y3511921D01*
G01X3511417Y3513674D01*
G01X3521401Y3518761D01*
G01X3529324Y3526684D01*
G01X3534411Y3536668D01*
G01X3536164Y3547735D01*
G01X3536164Y3613734D01*
G01X3534411Y3624801D01*
G01X3529324Y3634785D01*
G01X3521401Y3642708D01*
G01X3511417Y3647795D01*
G01X3500350Y3649548D01*
G01X3354291Y3649548D01*
G01X3352502Y3652385D01*
G01X3351572Y3653787D01*
G01X3350514Y3655302D01*
G01X3350514Y3937000D01*
G01X3348761Y3948067D01*
G01X3343674Y3958051D01*
G01X3335751Y3965974D01*
G01X3325767Y3971061D01*
G01X3314700Y3972814D01*
G01X3160014Y3972814D01*
G01X3160014Y5064506D01*
G01X3192526Y5064506D01*
G01X3192526Y4261430D01*
G01X3182223Y4250177D01*
G01X3174764Y4236866D01*
G01X3170545Y4222203D01*
G01X3169789Y4206964D01*
G01X3172536Y4191956D01*
G01X3178641Y4177973D01*
G01X3187780Y4165755D01*
G01X3199469Y4155949D01*
G01X3213091Y4149074D01*
G01X3227923Y4145495D01*
G01X3243180Y4145400D01*
G01X3258055Y4148795D01*
G01X3271761Y4155500D01*
G01X3283571Y4165160D01*
G01X3292861Y4177264D01*
G01X3299139Y4191170D01*
G01X3302072Y4206144D01*
G01X3301505Y4221391D01*
G01X3316478Y4217031D01*
G01X3332056Y4216290D01*
G01X3347376Y4219206D01*
G01X3361591Y4225620D01*
G01X3373916Y4235176D01*
G01X3383667Y4247347D01*
G01X3390307Y4261458D01*
G01X3393468Y4276729D01*
G01X3392974Y4292317D01*
G01X3388854Y4307358D01*
G01X3381336Y4321021D01*
G01X3370834Y4332550D01*
G01X3370834Y4488714D01*
G01X3379546Y4457564D01*
G01X3391723Y4427598D01*
G01X3407207Y4399199D01*
G01X3425800Y4372732D01*
G01X3447265Y4348535D01*
G01X3471327Y4326918D01*
G01X3497677Y4308158D01*
G01X3525978Y4292496D01*
G01X3555867Y4280132D01*
G01X3586962Y4271224D01*
G01X3618864Y4265887D01*
G01X3651165Y4264188D01*
G01X3683452Y4266150D01*
G01X3715309Y4271748D01*
G01X3746331Y4280909D01*
G01X3776118Y4293516D01*
G01X3804290Y4309409D01*
G01X3830486Y4328382D01*
G01X3830486Y4190100D01*
G01X3831896Y4180152D01*
G01X3836013Y4170987D01*
G01X3842513Y4163326D01*
G01X3850886Y4157772D01*
G01X3860472Y4154763D01*
G01X3848335Y4138299D01*
G01X3839149Y4120024D01*
G01X3833178Y4100461D01*
G01X3830593Y4080171D01*
G01X3831467Y4059736D01*
G01X3835776Y4039741D01*
G01X3843397Y4020760D01*
G01X3854110Y4003336D01*
G01X3867609Y3987969D01*
G01X3883506Y3975100D01*
G01X3867041Y3961681D01*
G01X3853179Y3945586D01*
G01X3842351Y3927313D01*
G01X3834891Y3907425D01*
G01X3831029Y3886538D01*
G01X3830885Y3865298D01*
G01X3834463Y3844360D01*
G01X3841652Y3824373D01*
G01X3852231Y3805954D01*
G01X3865872Y3789672D01*
G01X3882154Y3776031D01*
G01X3900573Y3765452D01*
G01X3920560Y3758263D01*
G01X3941498Y3754685D01*
G01X3962738Y3754829D01*
G01X3983625Y3758691D01*
G01X4003513Y3766151D01*
G01X4021786Y3776979D01*
G01X4037881Y3790841D01*
G01X4051300Y3807306D01*
G01X4060849Y3795009D01*
G01X4049929Y3793107D01*
G01X4040114Y3787957D01*
G01X4032343Y3780053D01*
G01X4027361Y3770151D01*
G01X4025646Y3759200D01*
G01X4025646Y3544870D01*
G01X4016287Y3546114D01*
G01X3935640Y3546114D01*
G01X3926400Y3544902D01*
G01X3917786Y3541347D01*
G01X3910381Y3535690D01*
G01X3904686Y3528314D01*
G01X3863036Y3528314D01*
G01X3857427Y3536383D01*
G01X3849837Y3542623D01*
G01X3840836Y3546566D01*
G01X3831102Y3547914D01*
G01X3751102Y3547914D01*
G01X3740035Y3546161D01*
G01X3730052Y3541074D01*
G01X3722128Y3533151D01*
G01X3717041Y3523167D01*
G01X3715288Y3512100D01*
G01X3715288Y3422100D01*
G01X3717041Y3411033D01*
G01X3722128Y3401049D01*
G01X3730052Y3393126D01*
G01X3740035Y3388039D01*
G01X3751102Y3386286D01*
G01X3831102Y3386286D01*
G01X3840836Y3387634D01*
G01X3849837Y3391577D01*
G01X3857427Y3397817D01*
G01X3863036Y3405886D01*
G01X3904686Y3405886D01*
G01X3910381Y3398510D01*
G01X3917786Y3392853D01*
G01X3926400Y3389298D01*
G01X3935640Y3388086D01*
G01X4016287Y3388086D01*
G01X4025646Y3389330D01*
G01X4025646Y3279905D01*
G01X4023909Y3264710D01*
G01X4025646Y3249516D01*
G01X4025646Y3225800D01*
G01X4027438Y3214614D01*
G01X4032633Y3204547D01*
G01X4040714Y3196607D01*
G01X4050869Y3191588D01*
G01X4039217Y3180448D01*
G01X4030547Y3166858D01*
G01X4025356Y3151596D01*
G01X4023944Y3135538D01*
G01X4026389Y3119604D01*
G01X4032554Y3104709D01*
G01X4042082Y3091706D01*
G01X4054429Y3081342D01*
G01X4068886Y3074210D01*
G01X4055333Y3067659D01*
G01X4043575Y3058259D01*
G01X4034200Y3046481D01*
G01X4027676Y3032914D01*
G01X4024331Y3018237D01*
G01X4024331Y3003183D01*
G01X4027676Y2988506D01*
G01X4034200Y2974939D01*
G01X4043575Y2963162D01*
G01X4055333Y2953762D01*
G01X4068886Y2947210D01*
G01X4054793Y2940315D01*
G01X4042679Y2930344D01*
G01X4033202Y2917840D01*
G01X4026878Y2903481D01*
G01X4024049Y2888049D01*
G01X4024869Y2872381D01*
G01X4029294Y2857328D01*
G01X4037084Y2843708D01*
G01X4047814Y2832262D01*
G01X4060903Y2823611D01*
G01X4075640Y2818225D01*
G01X4091222Y2816396D01*
G01X4104458Y2816396D01*
G01X4104458Y2805928D01*
G01X4096076Y2793074D01*
G01X4090872Y2778637D01*
G01X4089126Y2763390D01*
G01X4090932Y2748151D01*
G01X4096192Y2733734D01*
G01X4104625Y2720913D01*
G01X4115779Y2710373D01*
G01X4129057Y2702680D01*
G01X4143748Y2698245D01*
G01X4159066Y2697305D01*
G01X4174189Y2699912D01*
G01X4188308Y2705924D01*
G01X4200667Y2715022D01*
G01X4210604Y2726716D01*
G01X4217586Y2740382D01*
G01X4221241Y2755286D01*
G01X4221372Y2770632D01*
G01X4217971Y2785596D01*
G01X4211223Y2799379D01*
G01X4201486Y2811241D01*
G01X4201486Y2816396D01*
G01X4214722Y2816396D01*
G01X4230305Y2818225D01*
G01X4245041Y2823611D01*
G01X4258130Y2832262D01*
G01X4268861Y2843708D01*
G01X4276651Y2857328D01*
G01X4281076Y2872381D01*
G01X4281896Y2888049D01*
G01X4279067Y2903481D01*
G01X4272742Y2917840D01*
G01X4263266Y2930344D01*
G01X4251152Y2940315D01*
G01X4237058Y2947210D01*
G01X4247860Y2952118D01*
G01X4257632Y2958846D01*
G01X4308350Y2958846D01*
G01X4321617Y2949246D01*
G01X4336833Y2943190D01*
G01X4353068Y2941048D01*
G01X4369334Y2942949D01*
G01X4384637Y2948779D01*
G01X4382102Y2940535D01*
G01X4381246Y2931954D01*
G01X4381246Y2314151D01*
G01X3921401Y1854306D01*
G01X3906647Y1853711D01*
G01X3892390Y1849865D01*
G01X3879338Y1842961D01*
G01X3868137Y1833339D01*
G01X3859343Y1821477D01*
G01X3853392Y1807963D01*
G01X3850579Y1793467D01*
G01X3851043Y1778708D01*
G01X3854762Y1764418D01*
G01X3861550Y1751305D01*
G01X3871073Y1740019D01*
G01X3882856Y1731120D01*
G01X3896317Y1725050D01*
G01X3910787Y1722108D01*
G01X3911045Y1706446D01*
G01X3914970Y1691281D01*
G01X3922342Y1677460D01*
G01X3932751Y1665754D01*
G01X3945615Y1656816D01*
G01X3960217Y1651145D01*
G01X3975741Y1649057D01*
G01X3991322Y1650668D01*
G01X4006091Y1655890D01*
G01X4019223Y1664429D01*
G01X4029985Y1675811D01*
G01X4037777Y1689400D01*
G01X4042165Y1704437D01*
G01X4042903Y1720084D01*
G01X4562072Y2239254D01*
G01X4568975Y2248249D01*
G01X4573314Y2258725D01*
G01X4574794Y2269966D01*
G01X4574794Y3845138D01*
G01X4580438Y3859891D01*
G01X4582432Y3875559D01*
G01X4580665Y3891255D01*
G01X4575236Y3906088D01*
G01X4566453Y3919216D01*
G01X4554815Y3929894D01*
G01X4540981Y3937517D01*
G01X4525737Y3941653D01*
G01X4509948Y3942066D01*
G01X4494508Y3938734D01*
G01X4480295Y3931844D01*
G01X4468114Y3921789D01*
G01X4468114Y4044620D01*
G01X4466109Y4057665D01*
G01X4460278Y4069506D01*
G01X4459813Y4084718D01*
G01X4455892Y4099424D01*
G01X4448722Y4112848D01*
G01X4438679Y4124285D01*
G01X4426294Y4133130D01*
G01X4412219Y4138919D01*
G01X4397194Y4141346D01*
G01X4382012Y4140284D01*
G01X4367472Y4135789D01*
G01X4354339Y4128097D01*
G01X4343306Y4117613D01*
G01X4334954Y4104890D01*
G01X4329722Y4090598D01*
G01X4327887Y4075490D01*
G01X4329545Y4060361D01*
G01X4334608Y4046008D01*
G01X4342810Y4033188D01*
G01X4353718Y4022576D01*
G01X4366760Y4014729D01*
G01X4381246Y4010063D01*
G01X4381246Y3194618D01*
G01X4366378Y3199423D01*
G01X4350799Y3200617D01*
G01X4335373Y3198131D01*
G01X4320956Y3192106D01*
G01X4308350Y3182874D01*
G01X4264636Y3182874D01*
G01X4257020Y3190075D01*
G01X4267468Y3192416D01*
G01X4276756Y3197741D01*
G01X4284056Y3205574D01*
G01X4288714Y3215214D01*
G01X4290314Y3225800D01*
G01X4290314Y3759200D01*
G01X4288561Y3770267D01*
G01X4283474Y3780251D01*
G01X4275551Y3788174D01*
G01X4265567Y3793261D01*
G01X4254500Y3795014D01*
G01X4241755Y3795014D01*
G01X4253999Y3811469D01*
G01X4263282Y3829758D01*
G01X4269338Y3849353D01*
G01X4271992Y3869691D01*
G01X4271168Y3890184D01*
G01X4266890Y3910243D01*
G01X4259279Y3929289D01*
G01X4248557Y3946773D01*
G01X4235032Y3962191D01*
G01X4219094Y3975100D01*
G01X4235559Y3988519D01*
G01X4249421Y4004614D01*
G01X4260249Y4022887D01*
G01X4267709Y4042775D01*
G01X4271571Y4063662D01*
G01X4271715Y4084902D01*
G01X4268137Y4105840D01*
G01X4260948Y4125827D01*
G01X4250369Y4144246D01*
G01X4236728Y4160528D01*
G01X4220446Y4174169D01*
G01X4202027Y4184748D01*
G01X4182040Y4191937D01*
G01X4161102Y4195515D01*
G01X4139862Y4195371D01*
G01X4118975Y4191509D01*
G01X4099087Y4184049D01*
G01X4080814Y4173221D01*
G01X4064719Y4159359D01*
G01X4051300Y4142894D01*
G01X4042128Y4154763D01*
G01X4051714Y4157772D01*
G01X4060087Y4163326D01*
G01X4066588Y4170987D01*
G01X4070705Y4180152D01*
G01X4072114Y4190100D01*
G01X4072114Y4360099D01*
G01X4070361Y4371166D01*
G01X4065274Y4381150D01*
G01X4057351Y4389073D01*
G01X4047367Y4394160D01*
G01X4036300Y4395913D01*
G01X3890722Y4395913D01*
G01X3907000Y4424937D01*
G01X3919794Y4455657D01*
G01X3928932Y4487655D01*
G01X3934287Y4520499D01*
G01X3935790Y4553742D01*
G01X3933418Y4586935D01*
G01X3927204Y4619627D01*
G01X3917232Y4651375D01*
G01X3903637Y4681749D01*
G01X3886605Y4710337D01*
G01X3866365Y4736751D01*
G01X3843192Y4760634D01*
G01X3817400Y4781661D01*
G01X3789339Y4799548D01*
G01X3759389Y4814053D01*
G01X3727956Y4824977D01*
G01X3695466Y4832175D01*
G01X3662360Y4835547D01*
G01X3629086Y4835048D01*
G01X3596096Y4830685D01*
G01X3563837Y4822517D01*
G01X3532746Y4810655D01*
G01X3503244Y4795260D01*
G01X3475731Y4776539D01*
G01X3450581Y4754748D01*
G01X3428134Y4730181D01*
G01X3408695Y4703172D01*
G01X3392527Y4674086D01*
G01X3379850Y4643319D01*
G01X3370834Y4611286D01*
G01X3370834Y4914689D01*
G01X3419199Y4963054D01*
G01X3435170Y4963847D01*
G01X3450488Y4968440D01*
G01X3464260Y4976567D01*
G01X3475686Y4987754D01*
G01X3484103Y5001351D01*
G01X3489020Y5016567D01*
G01X3490151Y5032518D01*
G01X3487431Y5048276D01*
G01X3481018Y5062925D01*
G01X3471285Y5075612D01*
G01X3458798Y5085601D01*
G01X3444282Y5092310D01*
G01X3428583Y5095350D01*
G01X3412612Y5094543D01*
G01X3397299Y5089936D01*
G01X3383534Y5081798D01*
G01X3383534Y5379509D01*
G01X3480159Y5476134D01*
G01X3496197Y5476939D01*
G01X3511571Y5481575D01*
G01X3525380Y5489770D01*
G01X3536814Y5501044D01*
G01X3545203Y5514737D01*
G01X3550055Y5530044D01*
G01X3551086Y5546069D01*
G01X3548234Y5561871D01*
G01X3541667Y5576525D01*
G01X3531771Y5589171D01*
G01X3519125Y5599067D01*
G01X3504471Y5605634D01*
G01X3488669Y5608486D01*
G01X3472644Y5607455D01*
G01X3457337Y5602603D01*
G01X3443644Y5594214D01*
G01X3432370Y5582780D01*
G01X3424175Y5568971D01*
G01X3419539Y5553597D01*
G01X3418734Y5537559D01*
G01X3383534Y5502359D01*
G01X3383534Y5504094D01*
G01X3382139Y5509301D01*
G01X3378327Y5513112D01*
G01X3373120Y5514508D01*
G01X3160014Y5514508D01*
G01X3160014Y5648960D01*
G01X3158261Y5660027D01*
G01X3153174Y5670011D01*
G01X3145251Y5677934D01*
G01X3135267Y5683021D01*
G01X3124200Y5684774D01*
G01X2895600Y5684774D01*
G01X2884533Y5683021D01*
G01X2874549Y5677934D01*
G01X2866626Y5670011D01*
G01X2861539Y5660027D01*
G01X2859786Y5648960D01*
G01X2859786Y5514508D01*
G01X2728077Y5514508D01*
G01X2722870Y5513112D01*
G01X2719058Y5509301D01*
G01X2717663Y5504094D01*
G01X2717663Y5074920D01*
G01X2719058Y5069713D01*
G01X2722870Y5065901D01*
G01X2728077Y5064506D01*
G01X2859786Y5064506D01*
G01X2859786Y3962654D01*
G01X2768600Y3962654D01*
G01X2757533Y3960901D01*
G01X2747549Y3955814D01*
G01X2739626Y3947891D01*
G01X2734539Y3937907D01*
G01X2732786Y3926840D01*
G01X2732786Y3639834D01*
G01X2730754Y3641670D01*
G01X2730754Y4110230D01*
G01X2740184Y4123190D01*
G01X2746229Y4138035D01*
G01X2748536Y4153896D01*
G01X2746970Y4169847D01*
G01X2741623Y4184957D01*
G01X2732806Y4198342D01*
G01X2721036Y4209221D01*
G01X2706999Y4216959D01*
G01X2691516Y4221102D01*
G01X2675491Y4221410D01*
G01X2659860Y4217863D01*
G01X2645537Y4210671D01*
G01X2633357Y4200251D01*
G01X2624034Y4187214D01*
G01X2618110Y4172321D01*
G01X2615933Y4156441D01*
G01X2617630Y4140503D01*
G01X2623101Y4125438D01*
G01X2632027Y4112125D01*
G01X2643886Y4101343D01*
G01X2643886Y3641670D01*
G01X2633978Y3630958D01*
G01X2626653Y3618338D01*
G01X2622265Y3604422D01*
G01X2621027Y3589883D01*
G01X2622999Y3575425D01*
G01X2628085Y3561748D01*
G01X2636039Y3549515D01*
G01X2646476Y3539317D01*
G01X2658891Y3531649D01*
G01X2672682Y3526882D01*
G01X2687181Y3525246D01*
G01X2701688Y3526821D01*
G01X2715499Y3531531D01*
G01X2727945Y3539147D01*
G01X2738425Y3549301D01*
G01X2746430Y3561500D01*
G01X2751573Y3575156D01*
G01X2753605Y3589605D01*
G01X2760924Y3587147D01*
G01X2768600Y3586315D01*
G01X2877065Y3586315D01*
G01X2885979Y3582462D01*
G01X2895600Y3581146D01*
G01X2926856Y3581146D01*
G01X2926856Y3578509D01*
G01X2926895Y3576834D01*
G01X2927103Y3572387D01*
G01X2927221Y3570713D01*
G01X2927638Y3566278D01*
G01X2927835Y3564605D01*
G01X2928460Y3560193D01*
G01X2928734Y3558534D01*
G01X2929565Y3554160D01*
G01X2929914Y3552530D01*
G01X2930948Y3548197D01*
G01X2931378Y3546564D01*
G01X2932615Y3542284D01*
G01X2933117Y3540688D01*
G01X2934552Y3536472D01*
G01X2935138Y3534876D01*
G01X2936771Y3530734D01*
G01X2937414Y3529206D01*
G01X2939238Y3525142D01*
G01X2939970Y3523609D01*
G01X2941066Y3521448D01*
G01X2941066Y3492500D01*
G01X2942819Y3481433D01*
G01X2947906Y3471449D01*
G01X2955829Y3463526D01*
G01X2965813Y3458439D01*
G01X2976880Y3456686D01*
G01X3016277Y3456643D01*
G01X3020526Y3455307D01*
G01X3022135Y3454842D01*
G01X3026441Y3453707D01*
G01X3028059Y3453320D01*
G01X3032415Y3452385D01*
G01X3034088Y3452068D01*
G01X3038482Y3451341D01*
G01X3040138Y3451107D01*
G01X3044562Y3450587D01*
G01X3046236Y3450429D01*
G01X3050678Y3450117D01*
G01X3052333Y3450039D01*
G01X3056785Y3449932D01*
G01X3057643Y3449922D01*
G01X3243063Y3449922D01*
G01X3243921Y3449932D01*
G01X3248374Y3450039D01*
G01X3250028Y3450117D01*
G01X3254471Y3450429D01*
G01X3256144Y3450587D01*
G01X3260569Y3451107D01*
G01X3262224Y3451341D01*
G01X3266618Y3452068D01*
G01X3268291Y3452385D01*
G01X3272647Y3453320D01*
G01X3274266Y3453707D01*
G01X3278571Y3454842D01*
G01X3280180Y3455307D01*
G01X3284565Y3456686D01*
G01X3304286Y3456686D01*
G01X3304286Y3215840D01*
G01X3295660Y3214206D01*
G01X3287691Y3210522D01*
G01X3280576Y3215448D01*
G01X3272488Y3218523D01*
G01X3263897Y3219569D01*
G01X3152063Y3219569D01*
G01X3140996Y3217816D01*
G01X3131012Y3212729D01*
G01X3123089Y3204806D01*
G01X3118002Y3194822D01*
G01X3116249Y3183755D01*
G01X3116249Y3090316D01*
G01X2550414Y3090316D01*
G01X2550414Y4561840D01*
G01X2548661Y4572907D01*
G01X2543574Y4582891D01*
G01X2535651Y4590814D01*
G01X2525667Y4595901D01*
G01X2514600Y4597654D01*
G01X2346960Y4597654D01*
G01X2335893Y4595901D01*
G01X2325909Y4590814D01*
G01X2317986Y4582891D01*
G01X2312899Y4572907D01*
G01X2311146Y4561840D01*
G01X2311146Y4071366D01*
G01X2299251Y4082326D01*
G01X2285056Y4090080D01*
G01X2269407Y4094167D01*
G01X2253234Y4094344D01*
G01X2253234Y4645449D01*
G01X2372719Y4764934D01*
G01X2388912Y4765766D01*
G01X2404419Y4770502D01*
G01X2418313Y4778860D01*
G01X2429764Y4790340D01*
G01X2438086Y4804255D01*
G01X2442783Y4819774D01*
G01X2443574Y4835970D01*
G01X2440410Y4851872D01*
G01X2433482Y4866532D01*
G01X2423204Y4879072D01*
G01X2410189Y4888743D01*
G01X2395217Y4894967D01*
G01X2379182Y4897371D01*
G01X2363043Y4895812D01*
G01X2347764Y4890384D01*
G01X2334260Y4881409D01*
G01X2322369Y4889549D01*
G01X2309000Y4894927D01*
G01X2294785Y4897291D01*
G01X2280395Y4896528D01*
G01X2266509Y4892674D01*
G01X2253784Y4885912D01*
G01X2242820Y4876561D01*
G01X2230564Y4886769D01*
G01X2216226Y4893755D01*
G01X2200634Y4897115D01*
G01X2184691Y4896656D01*
G01X2169319Y4892403D01*
G01X2155407Y4884602D01*
G01X2143760Y4873705D01*
G01X2132473Y4884337D01*
G01X2119025Y4892057D01*
G01X2104153Y4896443D01*
G01X2088668Y4897255D01*
G01X2073419Y4894449D01*
G01X2059237Y4888179D01*
G01X2046899Y4878787D01*
G01X2037080Y4866787D01*
G01X2027924Y4878137D01*
G01X2016509Y4887212D01*
G01X2003386Y4893573D01*
G01X1989190Y4896911D01*
G01X1974608Y4897066D01*
G01X1960345Y4894029D01*
G01X1947090Y4887949D01*
G01X1935484Y4879118D01*
G01X1926090Y4867964D01*
G01X1919361Y4855027D01*
G01X1915622Y4840931D01*
G01X1915054Y4826359D01*
G01X1899688Y4810992D01*
G01X1895256Y4805803D01*
G01X1879770Y4810225D01*
G01X1863675Y4810783D01*
G01X1847920Y4807445D01*
G01X1833434Y4800408D01*
G01X1830208Y4809664D01*
G01X1824594Y4817699D01*
G01X1817012Y4823910D01*
G01X1808030Y4827834D01*
G01X1798320Y4829175D01*
G01X1694889Y4829175D01*
G01X1683822Y4827422D01*
G01X1673838Y4822335D01*
G01X1665915Y4814412D01*
G01X1660828Y4804428D01*
G01X1659075Y4793361D01*
G01X1659075Y4276893D01*
G01X1643581Y4277397D01*
G01X1628394Y4274289D01*
G01X1628394Y4354250D01*
G01X1639273Y4366312D01*
G01X1646893Y4380657D01*
G01X1650798Y4396425D01*
G01X1650752Y4412668D01*
G01X1646758Y4428413D01*
G01X1639056Y4442715D01*
G01X1628109Y4454716D01*
G01X1614573Y4463695D01*
G01X1599260Y4469114D01*
G01X1583089Y4470648D01*
G01X1567030Y4468204D01*
G01X1552047Y4461930D01*
G01X1539039Y4452201D01*
G01X1528786Y4439602D01*
G01X1528786Y5372648D01*
G01X1527306Y5383890D01*
G01X1522967Y5394365D01*
G01X1516064Y5403361D01*
G01X1483466Y5435959D01*
G01X1482661Y5451997D01*
G01X1478025Y5467371D01*
G01X1469830Y5481180D01*
G01X1458556Y5492614D01*
G01X1444863Y5501003D01*
G01X1429556Y5505855D01*
G01X1413531Y5506886D01*
G01X1397729Y5504034D01*
G01X1383075Y5497467D01*
G01X1370429Y5487571D01*
G01X1360533Y5474925D01*
G01X1353966Y5460271D01*
G01X1351114Y5444469D01*
G01X1352145Y5428444D01*
G01X1356997Y5413137D01*
G01X1365386Y5399444D01*
G01X1376820Y5388170D01*
G01X1390629Y5379975D01*
G01X1406003Y5375339D01*
G01X1422041Y5374534D01*
G01X1441918Y5354657D01*
G01X1441918Y4996403D01*
G01X1428228Y5001458D01*
G01X1413763Y5003397D01*
G01X1399225Y5002125D01*
G01X1385317Y4997703D01*
G01X1372713Y4990346D01*
G01X1362023Y4980411D01*
G01X1353765Y4968378D01*
G01X1348340Y4954830D01*
G01X1346009Y4940423D01*
G01X1346886Y4925856D01*
G01X1350928Y4911833D01*
G01X1357940Y4899034D01*
G01X1367582Y4888078D01*
G01X1379386Y4879497D01*
G01X1379386Y4720504D01*
G01X1358416Y4745582D01*
G01X1334720Y4768101D01*
G01X1308608Y4787767D01*
G01X1280421Y4804323D01*
G01X1250527Y4817552D01*
G01X1219319Y4827281D01*
G01X1187204Y4833382D01*
G01X1154602Y4835777D01*
G01X1121940Y4834433D01*
G01X1089645Y4829369D01*
G01X1058139Y4820650D01*
G01X1027835Y4808390D01*
G01X999130Y4792750D01*
G01X972397Y4773935D01*
G01X947989Y4752191D01*
G01X926222Y4727801D01*
G01X907384Y4701086D01*
G01X891718Y4672394D01*
G01X879432Y4642101D01*
G01X870685Y4610603D01*
G01X865592Y4578313D01*
G01X864219Y4545652D01*
G01X866585Y4513048D01*
G01X872658Y4480927D01*
G01X882359Y4449710D01*
G01X895562Y4419805D01*
G01X912092Y4391603D01*
G01X931735Y4365473D01*
G01X954233Y4341757D01*
G01X979292Y4320765D01*
G01X1006585Y4302772D01*
G01X1035753Y4288013D01*
G01X1066416Y4276681D01*
G01X1098172Y4268924D01*
G01X1053887Y4224640D01*
G01X1046985Y4215645D01*
G01X1042646Y4205169D01*
G01X1041166Y4193928D01*
G01X1041166Y3073631D01*
G01X995321Y3027786D01*
G01X979839Y3027075D01*
G01X964944Y3022790D01*
G01X951451Y3015165D01*
G01X940096Y3004616D01*
G01X931500Y2991720D01*
G01X926133Y2977181D01*
G01X924286Y2961792D01*
G01X926062Y2946396D01*
G01X931363Y2931832D01*
G01X939900Y2918896D01*
G01X951206Y2908295D01*
G01X964663Y2900608D01*
G01X729021Y2664966D01*
G01X734839Y2675477D01*
G01X736854Y2687320D01*
G01X736854Y2850802D01*
G01X735417Y2860846D01*
G01X731220Y2870084D01*
G01X724602Y2877774D01*
G01X716092Y2883299D01*
G01X706374Y2886216D01*
G01X706374Y3526321D01*
G01X894310Y3714257D01*
G01X902931Y3713280D01*
G01X911606Y3713437D01*
G01X911606Y3215357D01*
G01X900835Y3203447D01*
G01X893241Y3189298D01*
G01X889272Y3173739D01*
G01X889159Y3157681D01*
G01X892909Y3142067D01*
G01X900302Y3127813D01*
G01X910905Y3115753D01*
G01X924095Y3106595D01*
G01X939100Y3100877D01*
G01X955040Y3098932D01*
G01X970980Y3100877D01*
G01X985985Y3106595D01*
G01X999175Y3115753D01*
G01X1009778Y3127813D01*
G01X1017171Y3142067D01*
G01X1020921Y3157681D01*
G01X1020808Y3173739D01*
G01X1016839Y3189298D01*
G01X1009245Y3203447D01*
G01X998474Y3215357D01*
G01X998474Y3738485D01*
G01X1001724Y3747713D01*
G01X1002826Y3757434D01*
G01X1002826Y3943814D01*
G01X1001724Y3953536D01*
G01X998474Y3962764D01*
G01X998474Y4023870D01*
G01X1007904Y4036830D01*
G01X1013949Y4051675D01*
G01X1016256Y4067536D01*
G01X1014690Y4083487D01*
G01X1009343Y4098597D01*
G01X1000526Y4111982D01*
G01X988756Y4122861D01*
G01X974719Y4130599D01*
G01X959236Y4134742D01*
G01X943211Y4135050D01*
G01X927580Y4131503D01*
G01X913257Y4124311D01*
G01X901077Y4113891D01*
G01X891754Y4100854D01*
G01X885830Y4085961D01*
G01X883653Y4070081D01*
G01X885350Y4054143D01*
G01X890821Y4039078D01*
G01X899747Y4025765D01*
G01X911606Y4014983D01*
G01X911606Y3989445D01*
G01X897653Y3989523D01*
G01X883993Y3986680D01*
G01X871230Y3981042D01*
G01X857063Y3987114D01*
G01X841878Y3989751D01*
G01X826493Y3988812D01*
G01X811741Y3984347D01*
G01X798419Y3976597D01*
G01X787245Y3965981D01*
G01X778824Y3953072D01*
G01X773610Y3938567D01*
G01X771885Y3923251D01*
G01X773743Y3907951D01*
G01X779083Y3893492D01*
G01X787616Y3880657D01*
G01X798881Y3870138D01*
G01X812271Y3862504D01*
G01X798981Y3857303D01*
G01X786725Y3849991D01*
G01X775837Y3840765D01*
G01X558515Y3623443D01*
G01X547743Y3610318D01*
G01X539739Y3595343D01*
G01X534810Y3579095D01*
G01X533146Y3562198D01*
G01X533146Y3477174D01*
G01X35814Y3477174D01*
G01X35814Y5084625D01*
G01X615431Y5635261D01*
G01X677390Y5642344D01*
G01X738788Y5653268D01*
G01X799387Y5667992D01*
G01X858953Y5686457D01*
G01X917254Y5708593D01*
G01X974065Y5734314D01*
G01X1029166Y5763520D01*
G01X1082342Y5796098D01*
G01X1133389Y5831921D01*
G01X1182107Y5870851D01*
G01X1228309Y5912737D01*
G01X1271815Y5957417D01*
G01X1312457Y6004717D01*
G01X1350077Y6054454D01*
G01X1384529Y6106436D01*
G01X1415680Y6160460D01*
G01X1443409Y6216319D01*
G01X1467609Y6273794D01*
G01X1488186Y6332664D01*
G01X1488186Y6332664D01*
G01X1488186Y6004560D01*
G01X1489581Y5999353D01*
G01X1493393Y5995541D01*
G01X1498600Y5994146D01*
G01X3347720Y5994146D01*
G01X3352927Y5995541D01*
G01X3356739Y5999353D01*
G01X3358134Y6004560D01*
G01X3358134Y6348269D01*
G01X3377976Y6288289D01*
G01X3401564Y6229680D01*
G01X3428804Y6172677D01*
G01X3459587Y6117507D01*
G01X3493791Y6064390D01*
G01X3531279Y6013537D01*
G01X3571901Y5965152D01*
G01X3615496Y5919426D01*
G01X3661890Y5876544D01*
G01X3710898Y5836674D01*
G01X3762324Y5799977D01*
G01X3815964Y5766599D01*
G01X3871603Y5736672D01*
G01X3929021Y5710317D01*
G01X3987987Y5687638D01*
G01X4048266Y5668725D01*
G01X4109620Y5653655D01*
G01X4171802Y5642486D01*
G01X4234565Y5635265D01*
G01X4814186Y5084625D01*
G01X4814186Y1315375D01*
G01X4240243Y770130D01*
G01X4187155Y782641D01*
G01X4133285Y791178D01*
G01X4078930Y795693D01*
G01X4024390Y796163D01*
G01X3969965Y792584D01*
G01X3915956Y784976D01*
G01X3862660Y773381D01*
G01X3810372Y757863D01*
G01X3759380Y738507D01*
G01X3709964Y715421D01*
G01X3662398Y688731D01*
G01X3616944Y658585D01*
G01X3573852Y625149D01*
G01X3533361Y588607D01*
G01X3495692Y549162D01*
G01X3461055Y507029D01*
G01X3429640Y462443D01*
G01X3401620Y415648D01*
G01X3377150Y366903D01*
G01X3356365Y316476D01*
G01X3339380Y264646D01*
G01X3326287Y211698D01*
G01X3317160Y157925D01*
G01X3207914Y129420D01*
G01X3097760Y104648D01*
G01X2986828Y83639D01*
G01X2875245Y66416D01*
G01X2763141Y52999D01*
G01X2650645Y43405D01*
G01X2537888Y37644D01*
G01X2425000Y35723D01*
G01X2312112Y37644D01*
G01X2199355Y43405D01*
G01X2086859Y52999D01*
G01X1974755Y66416D01*
G01X1863172Y83639D01*
G01X1752239Y104648D01*
G01X1642086Y129420D01*
G01X1532840Y157925D01*
G01X1532840Y157925D01*
G01X1523713Y211698D01*
G01X1510620Y264646D01*
G01X1493635Y316476D01*
G01X1472850Y366903D01*
G01X1448380Y415648D01*
G01X1420360Y462443D01*
G01X1388945Y507029D01*
G01X1354308Y549162D01*
G01X1316639Y588607D01*
G01X1276148Y625149D01*
G01X1233056Y658585D01*
G01X1187602Y688731D01*
G01X1140036Y715421D01*
G01X1090620Y738507D01*
G01X1039628Y757863D01*
G01X987340Y773381D01*
G01X934044Y784976D01*
G01X880035Y792584D01*
G01X825610Y796163D01*
G01X771070Y795693D01*
G01X716715Y791178D01*
G01X662845Y782641D01*
G01X609757Y770130D01*
G01X35814Y1315375D01*
G37*
G36*
G01X1645666Y995426D02*
G01X1639360Y982454D01*
G01X1636008Y968426D01*
G01X1634801Y983009D01*
G01X1635994Y993120D01*
G01X1635994Y1028125D01*
G01X1639341Y1014039D01*
G01X1645666Y1001014D01*
G01X1645666Y995426D01*
G37*
G36*
G01X2004314Y2159136D02*
G01X2018724Y2159101D01*
G01X2032802Y2162180D01*
G01X2045882Y2168227D01*
G01X2057347Y2176956D01*
G01X2066656Y2187956D01*
G01X2073369Y2200708D01*
G01X2077168Y2214608D01*
G01X2093177Y2216433D01*
G01X2108274Y2222064D01*
G01X2121567Y2231170D01*
G01X2132271Y2243213D01*
G01X2139754Y2257483D01*
G01X2143576Y2273136D01*
G01X2143509Y2289248D01*
G01X2139559Y2304869D01*
G01X2131957Y2319076D01*
G01X2121154Y2331030D01*
G01X2121154Y3220761D01*
G01X2135722Y3219616D01*
G01X2150186Y3221690D01*
G01X2163846Y3226882D01*
G01X2163846Y2313490D01*
G01X2153705Y2301048D01*
G01X2146851Y2286535D01*
G01X2143684Y2270800D01*
G01X2144390Y2254765D01*
G01X2148929Y2239369D01*
G01X2157033Y2225515D01*
G01X2168229Y2214014D01*
G01X2181860Y2205539D01*
G01X2197128Y2200588D01*
G01X2213138Y2199450D01*
G01X2228953Y2202192D01*
G01X2243646Y2208653D01*
G01X2256355Y2218456D01*
G01X2266338Y2231024D01*
G01X2273008Y2245623D01*
G01X2275976Y2261397D01*
G01X2275066Y2277422D01*
G01X2270333Y2292759D01*
G01X2262054Y2306510D01*
G01X2250714Y2317868D01*
G01X2250714Y2875019D01*
G01X2264057Y2874193D01*
G01X2277294Y2876060D01*
G01X2289888Y2880543D01*
G01X2301327Y2887462D01*
G01X2311146Y2896534D01*
G01X2311146Y1547114D01*
G01X2192231Y1547114D01*
G01X2004314Y1735031D01*
G01X2004314Y2159136D01*
G37*
G36*
G01X2443552Y1381223D02*
G01X2979166Y845609D01*
G01X2979166Y532710D01*
G01X2968809Y521383D01*
G01X2961334Y507977D01*
G01X2957141Y493212D01*
G01X2956454Y477879D01*
G01X2906806Y428231D01*
G01X2593789Y428231D01*
G01X2588094Y435599D01*
G01X2580691Y441250D01*
G01X2572081Y444800D01*
G01X2562847Y446011D01*
G01X2512047Y446011D01*
G01X2504581Y445224D01*
G01X2497442Y442898D01*
G01X2490304Y445224D01*
G01X2482837Y446011D01*
G01X2450384Y446011D01*
G01X2453640Y461341D01*
G01X2453209Y477007D01*
G01X2449112Y492135D01*
G01X2441581Y505878D01*
G01X2431034Y517470D01*
G01X2431034Y1361950D01*
G01X2438134Y1371040D01*
G01X2443552Y1381223D01*
G37*
G54D10*
G01X35814Y1315375D02*
G01X35814Y3029880D01*
G01X533146Y3029880D01*
G01X533146Y2886616D01*
G01X510619Y2886616D01*
G03X474805Y2850802I0J-35814D01*
G01X474805Y2687320D01*
G03X510619Y2651506I35814J0D01*
G01X701040Y2651506D01*
G03X723394Y2659339I0J35814D01*
G01X558441Y2494386D01*
G03X506829Y2381349I-4721J-66146D01*
G03X619866Y2432961I46891J46891D01*
G01X1082289Y2895384D01*
G03X1124439Y2912856I-2769J66256D01*
G03X1145323Y2953424I-44919J48784D01*
G03X1198923Y2906262I63717J18376D01*
G03X1264250Y2935066I10117J65538D01*
G03X1272286Y2926770I51470J41814D01*
G01X1272286Y2538414D01*
G03X1286766Y2445810I53594J-39054D01*
G03X1379386Y2460185I39114J53550D01*
G01X1379386Y2220504D01*
G03X884606Y2156094I-229386J-170504D01*
G03X1198635Y1768354I265394J-106094D01*
G03X1196086Y1753694I40885J-14660D01*
G01X1196086Y1431870D01*
G03X1239520Y1315446I43434J-50110D01*
G03X1282954Y1431870I0J66314D01*
G01X1282954Y1735703D01*
G01X1419606Y1872355D01*
G01X1419606Y1468120D01*
G03X1432328Y1437408I43434J0D01*
G01X1457854Y1411881D01*
G03X1485107Y1353449I66146J-4721D01*
G03X1549126Y1345790I38893J53711D01*
G01X1549126Y1033315D01*
G03X1527493Y919148I20594J-63035D01*
G03X1635512Y961974I42227J51132D01*
G03X1645666Y924814I66288J-1854D01*
G03X1681480Y888746I35941J-127D01*
G01X1788160Y888746D01*
G03X1823974Y924560I0J35814D01*
G01X1823974Y927345D01*
G03X1823974Y992895I-57648J32775D01*
G01X1823974Y1003545D01*
G03X1823974Y1069095I-57648J32775D01*
G01X1823974Y1269281D01*
G01X1955694Y1137561D01*
G03X2068731Y1085949I66146J-4721D01*
G03X2017119Y1198986I-46891J46891D01*
G01X1887474Y1328631D01*
G01X1887474Y1657901D01*
G01X2113048Y1432328D01*
G03X2143760Y1419606I30712J30712D01*
G01X2317384Y1419606D01*
G03X2344166Y1353063I65136J-12446D01*
G01X2344166Y1330577D01*
G03X2239467Y1362401I-63246J-19937D01*
G03X2247646Y1253278I41453J-51761D01*
G01X2247646Y517470D01*
G03X2228296Y446011I43434J-50110D01*
G01X2143408Y446011D01*
G03X2100123Y428082I0J-61214D01*
G01X2025126Y353085D01*
G03X1984064Y291767I25252J-61318D01*
G03X2025126Y230449I66314J0D01*
G01X2074058Y181518D01*
G03X2117342Y163589I43285J43285D01*
G01X2197790Y163589D01*
G01X2198393Y163584D01*
G01X2249193Y163584D01*
G03X2285007Y199398I0J35814D01*
G01X2285007Y250198D01*
G03X2249193Y286012I-35814J0D01*
G01X2218221Y286012D01*
G01X2217433Y286017D01*
G01X2142698Y286017D01*
G01X2136948Y291767D01*
G01X2168764Y323583D01*
G01X2242833Y323583D01*
G03X2257438Y326697I0J35814D01*
G03X2272043Y323583I14605J32701D01*
G01X2322843Y323583D01*
G03X2337448Y326697I0J35814D01*
G03X2352053Y323583I14605J32701D01*
G01X2402853Y323583D01*
G03X2417445Y326691I0J35814D01*
G03X2432037Y323583I14592J32706D01*
G01X2482837Y323583D01*
G03X2497442Y326697I0J35814D01*
G03X2512047Y323583I14605J32701D01*
G01X2562847Y323583D01*
G03X2593789Y341363I0J35814D01*
G01X2924797Y341363D01*
G03X2955510Y354085I0J43434D01*
G01X3017879Y416454D01*
G03X3060446Y428146I4721J66146D01*
G01X3060446Y404071D01*
G01X3037481Y381106D01*
G03X2966614Y310239I-4721J-66146D01*
G01X2892849Y236474D01*
G01X2598661Y236474D01*
G01X2598661Y250203D01*
G03X2562847Y286017I-35814J0D01*
G01X2512047Y286017D01*
G03X2476233Y250203I0J-35814D01*
G01X2476233Y199403D01*
G03X2512047Y163589I35814J0D01*
G01X2537236Y163589D01*
G01X2538498Y162328D01*
G03X2569210Y149606I30712J30712D01*
G01X2910840Y149606D01*
G03X2941552Y162328I0J43434D01*
G01X3028039Y248814D01*
G03X3098906Y319681I4721J66146D01*
G01X3134592Y355368D01*
G03X3147314Y386080I-30712J30712D01*
G01X3147314Y873760D01*
G03X3134592Y904472I-43434J0D01*
G01X2527970Y1511095D01*
G03X2550414Y1544320I-13370J33225D01*
G01X2550414Y2917088D01*
G01X3200400Y2917088D01*
G03X3238472Y2925905I0J86614D01*
G01X3502276Y2925905D01*
G03X3554724Y2816396I52448J-42194D01*
G01X3570122Y2816396D01*
G01X3570122Y2801890D01*
G03X3535680Y2773614I570J-35809D01*
G03X3500667Y2801894I-35013J-7534D01*
G01X3420020Y2801894D01*
G03X3384207Y2766314I0J-35814D01*
G01X3052390Y2766314D01*
G03X2955389Y2769771I-50110J-43434D01*
G03X2958846Y2672770I46891J-46891D01*
G01X2958846Y1897360D01*
G03X2971568Y1866648I43434J0D01*
G01X3154574Y1683641D01*
G03X3267611Y1632029I66146J-4721D01*
G03X3215999Y1745066I-46891J46891D01*
G01X3045714Y1915351D01*
G01X3045714Y2672770D01*
G03X3052390Y2679446I-43434J50110D01*
G01X3384207Y2679446D01*
G03X3420020Y2643866I35813J234D01*
G01X3500667Y2643866D01*
G03X3535680Y2672146I0J35814D01*
G03X3570693Y2643866I35013J7534D01*
G01X3651340Y2643866D01*
G03X3687154Y2679680I0J35814D01*
G01X3687154Y2766080D01*
G03X3667150Y2798216I-35814J0D01*
G01X3667150Y2816396D01*
G01X3678224Y2816396D01*
G03X3726379Y2930744I0J67314D01*
G03X3744214Y2961719I-17979J30974D01*
G01X3744214Y2997428D01*
G03X3744214Y3023992I-65990J13282D01*
G01X3744214Y3048000D01*
G03X3717083Y3082746I-35814J0D01*
G03X3727943Y3183088I-38859J54965D01*
G03X3744214Y3213100I-19543J30012D01*
G01X3744214Y3251428D01*
G03X3744214Y3277992I-65990J13282D01*
G01X3744214Y3314700D01*
G03X3708400Y3350514I-35814J0D01*
G01X3541014Y3350514D01*
G01X3541014Y3467100D01*
G03X3505200Y3502914I-35814J0D01*
G01X3350514Y3502914D01*
G01X3350514Y3506172D01*
G01X3351572Y3507687D01*
G01X3352502Y3509089D01*
G01X3354288Y3511921D01*
G01X3500350Y3511921D01*
G03X3536164Y3547735I0J35814D01*
G01X3536164Y3613734D01*
G03X3500350Y3649548I-35814J0D01*
G01X3354291Y3649548D01*
G01X3352502Y3652385D01*
G01X3351572Y3653787D01*
G01X3350514Y3655302D01*
G01X3350514Y3937000D01*
G03X3314700Y3972814I-35814J0D01*
G01X3160014Y3972814D01*
G01X3160014Y5064506D01*
G01X3192526Y5064506D01*
G01X3192526Y4261430D01*
G03X3213091Y4149074I43434J-50110D01*
G03X3301505Y4221391I22869J62246D01*
G03X3383667Y4247347I25895J61049D01*
G03X3370834Y4332550I-56267J35093D01*
G01X3370834Y4488714D01*
G03X3830486Y4328382I279166J61286D01*
G01X3830486Y4190100D01*
G03X3860472Y4154763I35814J0D01*
G03X3831467Y4059736I90828J-79663D01*
G03X3883506Y3975100I119833J15364D01*
G03X3865872Y3789672I67794J-100000D01*
G03X4051300Y3807306I85428J85428D01*
G03X4060849Y3795009I100000J67794D01*
G03X4025646Y3759200I611J-35809D01*
G01X4025646Y3544870D01*
G03X4016287Y3546114I-9359J-34570D01*
G01X3935640Y3546114D01*
G03X3904686Y3528314I0J-35814D01*
G01X3863036Y3528314D01*
G03X3831102Y3547914I-31933J-16214D01*
G01X3751102Y3547914D01*
G03X3715288Y3512100I0J-35814D01*
G01X3715288Y3422100D01*
G03X3751102Y3386286I35814J0D01*
G01X3831102Y3386286D01*
G03X3863036Y3405886I0J35814D01*
G01X3904686Y3405886D01*
G03X3935640Y3388086I30954J18014D01*
G01X4016287Y3388086D01*
G03X4025646Y3389330I0J35814D01*
G01X4025646Y3279905D01*
G03X4025646Y3249516I65576J-15195D01*
G01X4025646Y3225800D01*
G03X4050869Y3191588I35814J0D01*
G03X4068886Y3074210I40353J-53877D01*
G03X4068886Y2947210I22336J-63500D01*
G03X4091222Y2816396I22336J-63500D01*
G01X4104458Y2816396D01*
G01X4104458Y2805928D01*
G03X4159066Y2697305I50982J-42408D01*
G03X4201486Y2811241I-3626J66215D01*
G01X4201486Y2816396D01*
G01X4214722Y2816396D01*
G03X4237058Y2947210I0J67314D01*
G03X4257632Y2958846I-22336J63500D01*
G01X4308350Y2958846D01*
G03X4384637Y2948779I45210J48514D01*
G03X4381246Y2931954I40043J-16825D01*
G01X4381246Y2314151D01*
G01X3921401Y1854306D01*
G03X3850579Y1793467I-4721J-66146D01*
G03X3910787Y1722108I66101J-5307D01*
G03X3975741Y1649057I65970J-6745D01*
G03X4042903Y1720084I1016J66306D01*
G01X4562072Y2239254D01*
G03X4574794Y2269966I-30712J30712D01*
G01X4574794Y3845138D01*
G03X4554815Y3929894I-58674J30902D01*
G03X4468114Y3921789I-38695J-53854D01*
G01X4468114Y4044620D01*
G03X4460278Y4069506I-43434J0D01*
G03X4354339Y4128097I-66078J5594D01*
G03X4381246Y4010063I39861J-52997D01*
G01X4381246Y3194618D01*
G03X4308350Y3182874I-27686J-60258D01*
G01X4264636Y3182874D01*
G03X4257020Y3190075I-49914J-45164D01*
G03X4290314Y3225800I-2520J35725D01*
G01X4290314Y3759200D01*
G03X4254500Y3795014I-35814J0D01*
G01X4241755Y3795014D01*
G03X4271168Y3890184I-90455J80086D01*
G03X4219094Y3975100I-119869J-15084D01*
G03X4236728Y4160528I-67794J100000D01*
G03X4051300Y4142894I-85428J-85428D01*
G03X4042128Y4154763I-100000J-67794D01*
G03X4072114Y4190100I-5828J35337D01*
G01X4072114Y4360099D01*
G03X4036300Y4395913I-35814J0D01*
G01X3890722Y4395913D01*
G03X3759389Y4814053I-240722J154087D01*
G03X3370834Y4611286I-109388J-264053D01*
G01X3370834Y4914689D01*
G01X3419199Y4963054D01*
G03X3487431Y5048276I4721J66146D01*
G03X3383534Y5081798I-63511J-19076D01*
G01X3383534Y5379509D01*
G01X3480159Y5476134D01*
G03X3531771Y5589171I4721J66146D01*
G03X3418734Y5537559I-46891J-46891D01*
G01X3383534Y5502359D01*
G01X3383534Y5504094D01*
G03X3373120Y5514508I-10414J0D01*
G01X3160014Y5514508D01*
G01X3160014Y5648960D01*
G03X3124200Y5684774I-35814J0D01*
G01X2895600Y5684774D01*
G03X2859786Y5648960I0J-35814D01*
G01X2859786Y5514508D01*
G01X2728077Y5514508D01*
G03X2717663Y5504094I0J-10414D01*
G01X2717663Y5074920D01*
G03X2728077Y5064506I10414J0D01*
G01X2859786Y5064506D01*
G01X2859786Y3962654D01*
G01X2768600Y3962654D01*
G03X2732786Y3926840I0J-35814D01*
G01X2732786Y3639834D01*
G03X2730754Y3641670I-45466J-48274D01*
G01X2730754Y4110230D01*
G03X2675491Y4221410I-48514J45210D01*
G03X2643886Y4101343I6749J-65970D01*
G01X2643886Y3641670D01*
G03X2658891Y3531649I43434J-50110D01*
G03X2753605Y3589605I28429J59911D01*
G03X2768600Y3586315I14995J32524D01*
G01X2877065Y3586315D01*
G03X2895600Y3581146I18535J30645D01*
G01X2926856Y3581146D01*
G01X2926856Y3578509D01*
G01X2926895Y3576834D01*
G01X2927103Y3572387D01*
G01X2927221Y3570713D01*
G01X2927638Y3566278D01*
G01X2927835Y3564605D01*
G01X2928460Y3560193D01*
G01X2928734Y3558534D01*
G01X2929565Y3554160D01*
G01X2929914Y3552530D01*
G01X2930948Y3548197D01*
G01X2931378Y3546564D01*
G01X2932615Y3542284D01*
G01X2933117Y3540688D01*
G01X2934552Y3536472D01*
G01X2935138Y3534876D01*
G01X2936771Y3530734D01*
G01X2937414Y3529206D01*
G01X2939238Y3525142D01*
G01X2939970Y3523609D01*
G01X2941066Y3521448D01*
G01X2941066Y3492500D01*
G03X2976880Y3456686I35814J0D01*
G01X3016277Y3456643D01*
G01X3020526Y3455307D01*
G01X3022135Y3454842D01*
G01X3026441Y3453707D01*
G01X3028059Y3453320D01*
G01X3032415Y3452385D01*
G01X3034088Y3452068D01*
G01X3038482Y3451341D01*
G01X3040138Y3451107D01*
G01X3044562Y3450587D01*
G01X3046236Y3450429D01*
G01X3050678Y3450117D01*
G01X3052333Y3450039D01*
G01X3056785Y3449932D01*
G01X3057643Y3449922D01*
G01X3243063Y3449922D01*
G01X3243921Y3449932D01*
G01X3248374Y3450039D01*
G01X3250028Y3450117D01*
G01X3254471Y3450429D01*
G01X3256144Y3450587D01*
G01X3260569Y3451107D01*
G01X3262224Y3451341D01*
G01X3266618Y3452068D01*
G01X3268291Y3452385D01*
G01X3272647Y3453320D01*
G01X3274266Y3453707D01*
G01X3278571Y3454842D01*
G01X3280180Y3455307D01*
G01X3284565Y3456686D01*
G01X3304286Y3456686D01*
G01X3304286Y3215840D01*
G03X3287691Y3210522I2304J-35740D01*
G03X3263897Y3219569I-23794J-26768D01*
G01X3152063Y3219569D01*
G03X3116249Y3183755I0J-35814D01*
G01X3116249Y3090316D01*
G01X2550414Y3090316D01*
G01X2550414Y4561840D01*
G03X2514600Y4597654I-35814J0D01*
G01X2346960Y4597654D01*
G03X2311146Y4561840I0J-35814D01*
G01X2311146Y4071366D01*
G03X2253234Y4094344I-50546J-42926D01*
G01X2253234Y4645449D01*
G01X2372719Y4764934D01*
G03X2440410Y4851872I4721J66146D01*
G03X2334260Y4881409I-62970J-20792D01*
G03X2242820Y4876561I-43180J-50329D01*
G03X2143760Y4873705I-48260J-45481D01*
G03X2088668Y4897255I-50800J-42625D01*
G03X2037080Y4866787I4292J-66175D01*
G03X1960345Y4894029I-55880J-35707D01*
G03X1915054Y4826359I20855J-62949D01*
G01X1899688Y4810992D01*
G03X1895256Y4805803I30712J-30712D01*
G03X1833434Y4800408I-25816J-61083D01*
G03X1798320Y4829175I-35114J-7046D01*
G01X1694889Y4829175D01*
G03X1659075Y4793361I0J-35814D01*
G01X1659075Y4276893D01*
G03X1628394Y4274289I-9886J-65573D01*
G01X1628394Y4354250D01*
G03X1628109Y4454716I-43434J50110D01*
G03X1528786Y4439602I-43149J-50356D01*
G01X1528786Y5372648D01*
G03X1516064Y5403361I-43434J0D01*
G01X1483466Y5435959D01*
G03X1370429Y5487571I-66146J4721D01*
G03X1422041Y5374534I46891J-46891D01*
G01X1441918Y5354657D01*
G01X1441918Y4996403D01*
G03X1353765Y4968378I-29678J-59302D01*
G03X1379386Y4879497I58475J-31277D01*
G01X1379386Y4720504D01*
G03X907384Y4701086I-229386J-170504D01*
G03X1098172Y4268924I242616J-151086D01*
G01X1053887Y4224640D01*
G03X1041166Y4193928I30712J-30712D01*
G01X1041166Y3073631D01*
G01X995321Y3027786D01*
G03X926133Y2977181I-4721J-66146D01*
G03X964663Y2900608I64467J-15541D01*
G01X729021Y2664966D01*
G03X736854Y2687320I-27981J22354D01*
G01X736854Y2850802D01*
G03X706374Y2886216I-35814J0D01*
G01X706374Y3526321D01*
G01X894310Y3714257D01*
G03X911606Y3713437I11761J65263D01*
G01X911606Y3215357D01*
G03X955040Y3098932I43434J-50110D01*
G03X998474Y3215357I0J66314D01*
G01X998474Y3738485D01*
G03X1002826Y3757434I-39082J18949D01*
G01X1002826Y3943814D01*
G03X998474Y3962764I-43434J0D01*
G01X998474Y4023870D01*
G03X943211Y4135050I-48514J45210D01*
G03X911606Y4014983I6749J-65970D01*
G01X911606Y3989445D01*
G03X871230Y3981042I-7346J-65906D01*
G03X778824Y3953072I-33031J-57502D01*
G03X812271Y3862504I59375J-29532D01*
G03X775837Y3840765I24812J-82984D01*
G01X558515Y3623443D01*
G03X533146Y3562198I61245J-61245D01*
G01X533146Y3477174D01*
G01X35814Y3477174D01*
G01X35814Y5084625D01*
G01X615431Y5635261D01*
G03X1488186Y6332664I-82744J998348D01*
G01X1488186Y6004560D01*
G03X1498600Y5994146I10414J0D01*
G01X3347720Y5994146D01*
G03X3358134Y6004560I0J10414D01*
G01X3358134Y6348269D01*
G03X4234565Y5635265I959364J284099D01*
G01X4814186Y5084625D01*
G01X4814186Y1315375D01*
G01X4240243Y770130D01*
G03X3317160Y157925I-194903J-708140D01*
G02X1532840Y157925I-892160J3195597D01*
G03X609757Y770130I-728180J-95936D01*
G01X35814Y1315375D01*
G01X3132031Y1557274D02*
G01X2976986Y1712319D01*
G03X2863949Y1763931I-66146J4721D01*
G03X2915561Y1650894I46891J-46891D01*
G01X3083328Y1483128D01*
G03X3114040Y1470406I30712J30712D01*
G01X3505890Y1470406D01*
G03X3622314Y1513840I50110J43434D01*
G03X3505890Y1557274I-66314J0D01*
G01X3132031Y1557274D01*
G01X3364186Y2050000D02*
G03X3935814Y2050000I285814J0D01*
G03X3364186Y2050000I-285814J0D01*
G01X1645666Y995426D02*
G03X1636008Y968426I56134J-35306D01*
G03X1634801Y983009I-66288J1854D01*
G03X1635994Y993120I-42241J10111D01*
G01X1635994Y1028125D01*
G03X1645666Y1001014I65806J8195D01*
G01X1645666Y995426D01*
G01X2004314Y2159136D02*
G03X2077168Y2214608I7366J65904D01*
G03X2139754Y2257483I552J66312D01*
G03X2121154Y2331030I-62034J23437D01*
G01X2121154Y3220761D01*
G03X2163846Y3226882I12446J65136D01*
G01X2163846Y2313490D01*
G03X2213138Y2199450I45954J-47810D01*
G03X2250714Y2317868I-3338J66230D01*
G01X2250714Y2875019D01*
G03X2311146Y2896534I10750J65437D01*
G01X2311146Y1547114D01*
G01X2192231Y1547114D01*
G01X2004314Y1735031D01*
G01X2004314Y2159136D01*
G01X2443552Y1381223D02*
G01X2979166Y845609D01*
G01X2979166Y532710D01*
G03X2956454Y477879I43434J-50110D01*
G01X2906806Y428231D01*
G01X2593789Y428231D01*
G03X2562847Y446011I-30942J-18034D01*
G01X2512047Y446011D01*
G03X2497442Y442898I0J-35814D01*
G03X2482837Y446011I-14605J-32701D01*
G01X2450384Y446011D01*
G03X2431034Y517470I-62784J21349D01*
G01X2431034Y1361950D01*
G03X2443552Y1381223I-48514J45210D01*
G04 Copper End*

G04 Rect Start*
G36*
G01X4061460Y3225800D02*
G01X4061460Y3759200D01*
G01X4254500Y3759200D01*
G01X4254500Y3225800D01*
G01X4061460Y3225800D01*
G37*
G36*
G01X3340100Y3213100D02*
G01X3340100Y3314700D01*
G01X3708400Y3314700D01*
G01X3708400Y3213100D01*
G01X3340100Y3213100D01*
G37*
G36*
G01X3340100Y3213100D02*
G01X3340100Y3467100D01*
G01X3505200Y3467100D01*
G01X3505200Y3213100D01*
G01X3340100Y3213100D01*
G37*
G36*
G01X2976880Y3492500D02*
G01X2976880Y3937000D01*
G01X3314700Y3937000D01*
G01X3314700Y3492500D01*
G01X2976880Y3492500D01*
G37*
G36*
G01X3152063Y2961719D02*
G01X3152063Y3048000D01*
G01X3708400Y3048000D01*
G01X3708400Y2961719D01*
G01X3152063Y2961719D01*
G37*
G36*
G01X3152063Y2961719D02*
G01X3152063Y3183755D01*
G01X3263897Y3183755D01*
G01X3263897Y2961719D01*
G01X3152063Y2961719D01*
G37*
G36*
G01X2895600Y3616960D02*
G01X2895600Y5648960D01*
G01X3124200Y5648960D01*
G01X3124200Y3616960D01*
G01X2895600Y3616960D01*
G37*
G36*
G01X1694889Y3724305D02*
G01X1694889Y4793361D01*
G01X1798320Y4793361D01*
G01X1798320Y3724305D01*
G01X1694889Y3724305D01*
G37*
G36*
G01X510619Y2687320D02*
G01X510619Y2850802D01*
G01X701040Y2850802D01*
G01X701040Y2687320D01*
G01X510619Y2687320D01*
G37*
G36*
G01X2346960Y1544320D02*
G01X2346960Y4561840D01*
G01X2514600Y4561840D01*
G01X2514600Y1544320D01*
G01X2346960Y1544320D01*
G37*
G36*
G01X1681480Y924560D02*
G01X1681480Y2743200D01*
G01X1788160Y2743200D01*
G01X1788160Y924560D01*
G01X1681480Y924560D01*
G37*
G36*
G01X2768600Y3622129D02*
G01X2768600Y3926840D01*
G01X3314700Y3926840D01*
G01X3314700Y3622129D01*
G01X2768600Y3622129D01*
G37*
G04 Rect End*

G04 Pad Start*
G54D11*
G01X1150000Y2050000D03*
G01X1150000Y4550000D03*
G01X3650000Y4550000D03*
G01X3650000Y2050000D03*
G54D12*
G01X3791102Y3467100D03*
G01X3651098Y3467100D03*
G54D13*
G01X3378200Y2863698D03*
G01X3378200Y3003702D03*
G01X3200400Y2863698D03*
G01X3200400Y3003702D03*
G54D12*
G01X3244698Y3276600D03*
G01X3384702Y3276600D03*
G01X3270098Y3886200D03*
G01X3410102Y3886200D03*
G54D14*
G01X4151300Y3675101D03*
G01X3951300Y3675101D03*
G01X4151300Y3875100D03*
G01X3951300Y3875100D03*
G01X4151300Y4075100D03*
G01X3951300Y4075100D03*
G01X4151300Y4275099D03*
G54D15*
G01X3951300Y4275099D03*
G54D16*
G01X3346590Y3136900D03*
G01X3206610Y3136900D03*
G54D17*
G01X3421587Y3730719D03*
G01X3421587Y3430720D03*
G36*
G01X3057643Y3485736D02*
G01X3053190Y3485843D01*
G01X3048748Y3486155D01*
G01X3044323Y3486676D01*
G01X3039929Y3487402D01*
G01X3035573Y3488337D01*
G01X3031268Y3489472D01*
G01X3027018Y3490808D01*
G01X3022837Y3492343D01*
G01X3018733Y3494072D01*
G01X3014712Y3495990D01*
G01X3010788Y3498096D01*
G01X3006965Y3500384D01*
G01X3003254Y3502848D01*
G01X2999663Y3505482D01*
G01X2996201Y3508281D01*
G01X2992871Y3511243D01*
G01X2989685Y3514354D01*
G01X2986648Y3517613D01*
G01X2983767Y3521009D01*
G01X2981049Y3524537D01*
G01X2978499Y3528190D01*
G01X2976124Y3531956D01*
G01X2973927Y3535832D01*
G01X2971913Y3539805D01*
G01X2970089Y3543869D01*
G01X2968456Y3548012D01*
G01X2967021Y3552228D01*
G01X2965784Y3556508D01*
G01X2964750Y3560841D01*
G01X2963920Y3565215D01*
G01X2963295Y3569627D01*
G01X2962878Y3574062D01*
G01X2962670Y3578509D01*
G01X2962670Y3582965D01*
G01X2962878Y3587412D01*
G01X2963295Y3591847D01*
G01X2963920Y3596259D01*
G01X2964750Y3600633D01*
G01X2965784Y3604966D01*
G01X2967021Y3609246D01*
G01X2968456Y3613462D01*
G01X2970089Y3617605D01*
G01X2971913Y3621669D01*
G01X2973927Y3625642D01*
G01X2976124Y3629518D01*
G01X2978499Y3633285D01*
G01X2981049Y3636937D01*
G01X2983767Y3640465D01*
G01X2986648Y3643861D01*
G01X2989685Y3647120D01*
G01X2992871Y3650231D01*
G01X2996201Y3653193D01*
G01X2999663Y3655992D01*
G01X3003254Y3658626D01*
G01X3006965Y3661090D01*
G01X3010788Y3663379D01*
G01X3014712Y3665484D01*
G01X3018733Y3667402D01*
G01X3022837Y3669132D01*
G01X3027018Y3670666D01*
G01X3031268Y3672002D01*
G01X3035573Y3673137D01*
G01X3039929Y3674072D01*
G01X3044323Y3674798D01*
G01X3048748Y3675319D01*
G01X3053190Y3675631D01*
G01X3057643Y3675738D01*
G01X3243063Y3675738D01*
G01X3247516Y3675631D01*
G01X3251958Y3675319D01*
G01X3256383Y3674798D01*
G01X3260777Y3674072D01*
G01X3265133Y3673137D01*
G01X3269438Y3672002D01*
G01X3273688Y3670666D01*
G01X3277869Y3669132D01*
G01X3281973Y3667402D01*
G01X3285994Y3665484D01*
G01X3289918Y3663379D01*
G01X3293741Y3661090D01*
G01X3297452Y3658626D01*
G01X3301044Y3655992D01*
G01X3304506Y3653193D01*
G01X3307836Y3650231D01*
G01X3311021Y3647120D01*
G01X3314059Y3643861D01*
G01X3316939Y3640465D01*
G01X3319657Y3636937D01*
G01X3322207Y3633285D01*
G01X3324582Y3629518D01*
G01X3326779Y3625642D01*
G01X3328793Y3621669D01*
G01X3330617Y3613734D01*
G01X3500350Y3613734D01*
G01X3500350Y3547735D01*
G01X3330617Y3547735D01*
G01X3328793Y3539805D01*
G01X3326779Y3535832D01*
G01X3324582Y3531956D01*
G01X3322207Y3528190D01*
G01X3319657Y3524537D01*
G01X3316939Y3521009D01*
G01X3314059Y3517613D01*
G01X3311021Y3514354D01*
G01X3307836Y3511243D01*
G01X3304506Y3508281D01*
G01X3301044Y3505482D01*
G01X3297452Y3502848D01*
G01X3293741Y3500384D01*
G01X3289918Y3498096D01*
G01X3285994Y3495990D01*
G01X3281973Y3494072D01*
G01X3277869Y3492343D01*
G01X3273688Y3490808D01*
G01X3269438Y3489472D01*
G01X3265133Y3488337D01*
G01X3260777Y3487402D01*
G01X3256383Y3486676D01*
G01X3251958Y3486155D01*
G01X3247516Y3485843D01*
G01X3243063Y3485736D01*
G01X3057643Y3485736D01*
G37*
G54D19*
G01X3975964Y3467100D03*
G01X4126636Y3467100D03*
G01X3460344Y2722880D03*
G01X3611016Y2722880D03*
G54D20*
G01X2297443Y384797D03*
G01X2217433Y384797D03*
G01X2217433Y304787D03*
G01X2377453Y384797D03*
G01X2457437Y384797D03*
G01X2537447Y304787D03*
G01X2537447Y384797D03*
G01X2537447Y224803D03*
G01X2457437Y224803D03*
G54D21*
G01X2217443Y224798D03*
G54D20*
G01X2297443Y224803D03*
G01X2377453Y224803D03*
G54D22*
G01X3616474Y2883710D03*
G01X3616474Y3010710D03*
G01X3616474Y3137710D03*
G01X3616474Y3264710D03*
G01X4152972Y2883710D03*
G01X4152972Y3010710D03*
G01X4152972Y3137710D03*
G01X4152972Y3264710D03*
G54D23*
G01X3884723Y3074210D03*
G04 Pad End*

G04 Via Start*
G54D24*
G01X1904458Y2972342D03*
G01X1478280Y3012440D03*
G01X2021840Y1132840D03*
G01X1844040Y3058160D03*
G01X1965960Y2921000D03*
G01X3220720Y1678920D03*
G01X3002280Y2722880D03*
G01X1407160Y2524760D03*
G01X2961640Y4876800D03*
G01X3060106Y4876800D03*
G01X1746604Y4751757D03*
G01X1869440Y4744720D03*
G01X955040Y3165246D03*
G01X949960Y4069080D03*
G01X1833880Y3169920D03*
G01X2377440Y4831080D03*
G01X2209800Y2265680D03*
G01X838199Y3923539D03*
G01X904260Y3923539D03*
G01X837082Y3779520D03*
G01X906071Y3779520D03*
G01X568960Y2795118D03*
G01X654877Y2795118D03*
G01X568942Y2717909D03*
G01X655012Y2717909D03*
G01X1137920Y3449320D03*
G01X1137920Y4079240D03*
G01X1731500Y2693393D03*
G01X1731500Y2606044D03*
G01X1747520Y3862432D03*
G01X1747641Y3780516D03*
G01X2839720Y3876040D03*
G01X2839720Y3782761D03*
G01X2839720Y3671371D03*
G01X2956596Y3671371D03*
G01X2956596Y3779485D03*
G01X2951480Y3876040D03*
G01X3066893Y3876040D03*
G01X3066893Y3778393D03*
G01X3066893Y3664819D03*
G01X2133600Y3285896D03*
G01X2133600Y4089400D03*
G01X1275080Y4084320D03*
G01X1254760Y3332480D03*
G01X2261464Y2940456D03*
G01X2260600Y4028440D03*
G01X1203960Y4028440D03*
G01X1209040Y2971800D03*
G01X1219200Y3449320D03*
G01X2687320Y3591560D03*
G01X2682240Y4155440D03*
G01X1430420Y4165600D03*
G01X1432032Y3471252D03*
G01X2392680Y2672080D03*
G01X2471192Y2672080D03*
G01X2392680Y2585720D03*
G01X2472413Y2585720D03*
G01X1361440Y4333240D03*
G01X2128520Y4338320D03*
G01X2291080Y4831080D03*
G01X1325880Y2499360D03*
G01X1315720Y2976880D03*
G01X553720Y2428240D03*
G01X1079520Y2961640D03*
G01X3429020Y6095980D03*
G01X1518920Y1722120D03*
G01X2194560Y4831080D03*
G01X2077720Y2280920D03*
G01X1397020Y5841980D03*
G01X1417320Y3114040D03*
G01X1412240Y4937100D03*
G01X1394440Y3401080D03*
G01X2667020Y5841980D03*
G01X2921020Y5841980D03*
G01X3175020Y5841980D03*
G01X3429020Y5841980D03*
G01X635020Y5587980D03*
G01X889020Y5587980D03*
G01X1143020Y5587980D03*
G01X2092960Y4831080D03*
G01X2011680Y2225040D03*
G01X1905020Y5587980D03*
G01X2667020Y5587980D03*
G01X3683020Y5587980D03*
G01X3937020Y5587980D03*
G01X381020Y5333980D03*
G01X2397760Y1595120D03*
G01X2469648Y1595120D03*
G01X1930400Y3149600D03*
G01X1397020Y5333980D03*
G01X1651020Y5333980D03*
G01X1981200Y4831080D03*
G01X3556000Y1513840D03*
G01X2910840Y1717040D03*
G01X3429020Y5333980D03*
G01X2397760Y4505960D03*
G01X2467241Y4505960D03*
G01X4445020Y5333980D03*
G01X381020Y5079980D03*
G01X1651020Y5079980D03*
G01X2667020Y5079980D03*
G01X3683020Y5079980D03*
G01X4445020Y5079980D03*
G01X127020Y4825980D03*
G01X381020Y4825980D03*
G01X1651020Y4825980D03*
G01X3423920Y5029200D03*
G01X3327400Y4282440D03*
G01X4445020Y4825980D03*
G01X4699020Y4825980D03*
G01X1407160Y3310153D03*
G01X1417320Y5440680D03*
G01X127020Y4571980D03*
G01X381020Y4571980D03*
G01X635020Y4571980D03*
G01X4191020Y4571980D03*
G01X4445020Y4571980D03*
G01X4699020Y4571980D03*
G01X127020Y4317980D03*
G01X381020Y4317980D03*
G01X635020Y4317980D03*
G01X889020Y4317980D03*
G01X1284416Y4262944D03*
G01X4445020Y4317980D03*
G01X4699020Y4317980D03*
G01X2966720Y5567680D03*
G01X990600Y2961640D03*
G01X3063245Y5567680D03*
G01X1701800Y1036320D03*
G01X1766326Y1036320D03*
G01X1701800Y960120D03*
G01X1766326Y960120D03*
G01X4699020Y4063980D03*
G01X1412637Y3225403D03*
G01X127020Y3809980D03*
G01X381020Y3809980D03*
G01X3429020Y3809980D03*
G01X2050378Y291767D03*
G01X1649188Y4211320D03*
G01X3683020Y3809980D03*
G01X4699020Y3809980D03*
G01X127020Y3555980D03*
G01X889020Y3555980D03*
G01X3235960Y4211320D03*
G01X3032760Y314960D03*
G01X3022600Y482600D03*
G01X3484880Y5542280D03*
G01X2291080Y467360D03*
G01X2387600Y467360D03*
G01X4155440Y2763520D03*
G01X3683020Y3555980D03*
G01X3937020Y3555980D03*
G01X2280920Y1310640D03*
G01X1239520Y1381760D03*
G01X4699020Y3555980D03*
G01X2382520Y1407160D03*
G01X1524000Y1407160D03*
G01X1447800Y2600960D03*
G01X1569720Y970280D03*
G01X4699020Y3301980D03*
G01X4353560Y3007360D03*
G01X4353560Y3134360D03*
G01X127020Y2793980D03*
G01X4699020Y2793980D03*
G01X127020Y2539980D03*
G01X381020Y2539980D03*
G01X4191020Y2539980D03*
G01X4699020Y2539980D03*
G01X127020Y2285980D03*
G01X381020Y2285980D03*
G01X635020Y2285980D03*
G01X3937020Y2285980D03*
G01X4191020Y2285980D03*
G01X127020Y2031980D03*
G01X381020Y2031980D03*
G01X2159020Y2031980D03*
G01X2667020Y2031980D03*
G01X127020Y1777980D03*
G01X381020Y1777980D03*
G01X889020Y1777980D03*
G01X4445020Y1777980D03*
G01X127020Y1523980D03*
G01X4445020Y1523980D03*
G01X4699020Y1523980D03*
G01X381020Y1269980D03*
G01X889020Y1269980D03*
G01X1143020Y1269980D03*
G01X1397020Y1269980D03*
G01X2159020Y1269980D03*
G01X2921020Y1269980D03*
G01X3175020Y1269980D03*
G01X4445020Y1269980D03*
G01X4699020Y1269980D03*
G01X1143020Y1015980D03*
G01X1905020Y1015980D03*
G01X2159020Y1015980D03*
G01X2667020Y1015980D03*
G01X3683020Y1015980D03*
G01X3937020Y1015980D03*
G01X4445020Y1015980D03*
G01X1143020Y761980D03*
G01X1538672Y3784600D03*
G01X1397020Y761980D03*
G01X1651020Y761980D03*
G01X2921020Y761980D03*
G01X1538672Y3962400D03*
G01X3175020Y761980D03*
G01X3429020Y761980D03*
G01X3683020Y761980D03*
G01X1651020Y507980D03*
G01X3175020Y507980D03*
G01X1651020Y253980D03*
G01X4516120Y3876040D03*
G01X3175020Y253980D03*
G01X3976757Y1715363D03*
G01X2844800Y2458720D03*
G01X4394200Y4075100D03*
G01X2660256Y3154456D03*
G01X3916680Y1788160D03*
G01X1584960Y4404360D03*
G01X1592521Y3632200D03*
G01X1731500Y2842260D03*
G01X2889628Y3392473D03*
G04 Via End*

G04 Track Start*
G54D25*
G01X1239520Y1753694D02*
G01X1239520Y1381760D01*
G01X1422820Y1936994D02*
G01X1239520Y1753694D01*
G54D26*
G01X3346590Y3136900D02*
G01X3615663Y3136900D01*
G01X3616474Y3137710D01*
G01X3616474Y2883710D02*
G01X3618636Y2881547D01*
G54D25*
G01X3022600Y482600D02*
G01X3022600Y863600D01*
G54D27*
G01X3975964Y3467100D02*
G01X3803802Y3467100D01*
G54D25*
G01X3022600Y863600D02*
G01X2423160Y1463040D01*
G01X2143760Y1463040D01*
G01X1463040Y2585720D02*
G01X1447800Y2600960D01*
G01X3103880Y873760D02*
G01X2473960Y1503680D01*
G01X3032760Y314960D02*
G01X3103880Y386080D01*
G01X2473960Y1503680D02*
G01X2174240Y1503680D01*
G01X1960880Y1717040D01*
G01X1960880Y2200434D01*
G01X1958360Y2202954D01*
G01X1958360Y2247126D01*
G01X1569720Y2921000D02*
G01X1478280Y3012440D01*
G01X1569720Y970280D02*
G01X1592560Y993120D01*
G01X1592560Y1948200D01*
G01X1569720Y1971040D01*
G01X1569720Y2921000D01*
G01X3103880Y386080D02*
G01X3103880Y873760D01*
G01X2143760Y1463040D02*
G01X1904458Y1702342D01*
G01X1904458Y2972342D01*
G01X1958360Y2247126D02*
G01X1965960Y2254726D01*
G01X1965960Y2921000D01*
G54D26*
G01X3618636Y2881547D02*
G01X3618636Y2730500D01*
G01X3611016Y2722880D01*
G54D25*
G01X2133600Y3285896D02*
G01X2133600Y4089400D01*
G01X1835940Y3171980D02*
G01X1833880Y3169920D01*
G01X553720Y2428240D02*
G01X1079520Y2954040D01*
G01X1079520Y2961640D01*
G54D28*
G01X837082Y3779520D02*
G01X619760Y3562198D01*
G01X619760Y2809240D01*
G54D25*
G01X955040Y3165246D02*
G01X955040Y3753082D01*
G01X959392Y3757434D01*
G01X959392Y3943814D01*
G01X955040Y3948166D01*
G01X955040Y4064000D01*
G01X949960Y4069080D01*
G54D28*
G01X1731500Y2693393D02*
G01X1731500Y2606044D01*
G01X1747641Y3780516D02*
G01X1731500Y3764374D01*
G54D25*
G01X1407160Y2524760D02*
G01X1422820Y2509100D01*
G01X1422820Y1936994D01*
G01X2207280Y4050526D02*
G01X2209800Y4053046D01*
G01X2209800Y2265680D02*
G01X2207280Y2268200D01*
G01X2207280Y4050526D01*
G01X2291080Y467360D02*
G01X2291080Y1300480D01*
G01X2280920Y1310640D01*
G01X1137920Y3449320D02*
G01X1137920Y4079240D01*
G01X1203960Y4028440D02*
G01X1203960Y3464560D01*
G01X1219200Y3449320D01*
G01X1325880Y2499360D02*
G01X1315720Y2509520D01*
G01X1315720Y2976880D01*
G01X2687320Y3591560D02*
G01X2687320Y4150360D01*
G01X2682240Y4155440D01*
G01X1275080Y4084320D02*
G01X1275080Y3352800D01*
G01X1254760Y3332480D01*
G01X2075200Y4316234D02*
G01X2077720Y4313714D01*
G01X2077720Y2280920D01*
G01X2092960Y4831080D02*
G01X2024400Y4762520D01*
G01X2024400Y2237760D01*
G01X2011680Y2225040D01*
G01X2021840Y1132840D02*
G01X1844040Y1310640D01*
G01X1844040Y3058160D01*
G01X1930400Y3149600D02*
G01X1930400Y4780280D01*
G01X1981200Y4831080D01*
G54D28*
G01X3200400Y3003702D02*
G01X2397760Y3003702D01*
G54D25*
G01X3423920Y5029200D02*
G01X3327400Y4932680D01*
G01X3327400Y4282440D01*
G01X990600Y2961640D02*
G01X1084600Y3055640D01*
G01X1084600Y4193928D01*
G54D27*
G01X2217433Y384797D02*
G01X2143408Y384797D01*
G01X2050378Y291767D01*
G01X2117342Y224803D01*
G01X2217433Y224803D01*
G54D25*
G01X3235960Y4211320D02*
G01X3235960Y5293360D01*
G01X2569210Y193040D02*
G01X2537447Y224803D01*
G01X3235960Y5293360D02*
G01X3484880Y5542280D01*
G01X3032760Y314960D02*
G01X2910840Y193040D01*
G01X2569210Y193040D01*
G01X2537447Y384797D02*
G01X2924797Y384797D01*
G01X3022600Y482600D01*
G54D26*
G01X2377453Y384797D02*
G01X2377453Y457213D01*
G01X2387600Y467360D01*
G01X2291080Y467360D02*
G01X2291080Y391160D01*
G01X2297443Y384797D01*
G54D25*
G01X2387600Y467360D02*
G01X2387600Y1402080D01*
G01X2382520Y1407160D01*
G54D26*
G01X4152972Y2883710D02*
G01X4152972Y2765988D01*
G01X4155440Y2763520D01*
G01X4353560Y3007360D02*
G01X4156323Y3007360D01*
G01X4152972Y3010710D01*
G01X4353560Y3134360D02*
G01X4156323Y3134360D01*
G01X4152972Y3137710D01*
G54D25*
G01X3002280Y2722880D02*
G01X3460344Y2722880D01*
G01X1869440Y4744720D02*
G01X1835940Y4711220D01*
G01X1835940Y3171980D01*
G01X2194560Y4831080D02*
G01X2075200Y4711720D01*
G01X2075200Y4316234D01*
G01X2209800Y4053046D02*
G01X2209800Y4663440D01*
G01X2377440Y4831080D01*
G01X2128520Y4338320D02*
G01X2128520Y4668520D01*
G01X2291080Y4831080D01*
G01X1084600Y4193928D02*
G01X1153616Y4262944D01*
G01X1284416Y4262944D01*
G01X1209040Y2971800D02*
G01X1337736Y3100496D01*
G01X1337736Y4309536D01*
G01X1361440Y4333240D01*
G01X1503720Y2895560D02*
G01X1417320Y2981960D01*
G01X1417320Y3114040D01*
G01X1377100Y4273494D02*
G01X1377100Y3418420D01*
G01X1394440Y3401080D01*
G01X1422820Y4319214D02*
G01X1377100Y4273494D01*
G01X1430420Y4165600D02*
G01X1430420Y3472864D01*
G01X1432032Y3471252D01*
G01X1412637Y3225403D02*
G01X1518523Y3225403D01*
G01X1524000Y1407160D02*
G01X1463040Y1468120D01*
G01X1463040Y2585720D01*
G01X1518920Y1722120D02*
G01X1503720Y1737320D01*
G01X1503720Y2895560D01*
G01X4516120Y3876040D02*
G01X4531360Y3860800D01*
G01X3556000Y1513840D02*
G01X3114040Y1513840D01*
G01X2910840Y1717040D01*
G01X3220720Y1678920D02*
G01X3002280Y1897360D01*
G01X3002280Y2722880D01*
G01X4424680Y3128486D02*
G01X4424680Y4044620D01*
G01X4437360Y3115806D02*
G01X4424680Y3128486D01*
G01X4437360Y2944634D02*
G01X4437360Y3115806D01*
G01X4424680Y2931954D02*
G01X4437360Y2944634D01*
G01X4424680Y4044620D02*
G01X4394200Y4075100D01*
G01X3916680Y1788160D02*
G01X4424680Y2296160D01*
G01X4424680Y2931954D01*
G01X4531360Y3860800D02*
G01X4531360Y2269966D01*
G01X3976757Y1715363D01*
G01X1518523Y3225403D02*
G01X1649188Y3356068D01*
G01X1649188Y4211320D01*
G01X1412240Y4937100D02*
G01X1412240Y4928440D01*
G01X1422820Y4917860D01*
G01X1422820Y4319214D01*
G01X1407160Y3310153D02*
G01X1485352Y3388345D01*
G01X1485352Y5372648D01*
G01X1417320Y5440680D01*
G01X1538672Y3784600D02*
G01X1538672Y3962400D01*
G01X1597601Y3637280D02*
G01X1592521Y3632200D01*
G01X1584960Y4404360D02*
G01X1584960Y4109720D01*
G01X1597601Y4097079D01*
G01X1597601Y3637280D01*
G54D28*
G01X1731500Y3764374D02*
G01X1731500Y2842260D01*
G01X1731500Y2693393D01*
G54D25*
G01X2261464Y2940456D02*
G01X2261464Y4027576D01*
G01X2260600Y4028440D01*
G04 Track End*

M02*

