G04 Layer: TopSolderMaskLayer*
G04 EasyEDA Pro v3.2.148, 2026-07-06 23:39:11*
G04 Gerber Generator version 0.3*
G04 Scale: 100 percent, Rotated: No, Reflected: No*
G04 Dimensions in millimeters*
G04 Leading zeros omitted, absolute positions, 4 integers and 5 decimals*
G04 Generated by one-click*
G04 Object Configs: Pad,Via,Track,Text,Image,Dimension,BoardOutline,BoardCutout,CopperFilled,SolidRegion,FPCStiffener,Line,PlaneZone,ComponentProperty,ComponentSilkscreen,TearDrop*
G04 Layer Configs: 1,2,3,4,5,6,7,8,9,10,11,13,14,56*
G04 Copper Areas: 0*
%FSLAX45Y45*%
%MOMM*%
%AMRoundRect*1,1,$1,$2,$3*1,1,$1,$4,$5*1,1,$1,0-$2,0-$3*1,1,$1,0-$4,0-$5*20,1,$1,$2,$3,$4,$5,0*20,1,$1,$4,$5,0-$2,0-$3,0*20,1,$1,0-$2,0-$3,0-$4,0-$5,0*20,1,$1,0-$4,0-$5,$2,$3,0*4,1,4,$2,$3,$4,$5,0-$2,0-$3,0-$4,0-$5,$2,$3,0*%
%ADD10C,5.1016*%
%ADD11R,0.9X0.5*%
%ADD12R,0.5X0.5*%
%ADD13RoundRect,0.1016X-0.45X-0.4X-0.45X0.4*%
%ADD14RoundRect,0.1016X-0.4X0.45X0.4X0.45*%
%ADD15C,1.8016*%
%ADD16RoundRect,0.1016X-0.85X-0.85X-0.85X0.85*%
%ADD17RoundRect,0.10003X-1.75X-0.75X-1.75X0.75*%
%ADD18RoundRect,0.10003X-0.90986X0.37702X-0.32985X0.928*%
%ADD19RoundRect,0.1094X-1.65117X0.43141X-0.34615X1.67113*%
%ADD20RoundRect,0.10003X-1.65117X0.43141X-0.34615X1.67113*%
%ADD21RoundRect,0.10003X-0.32985X-0.928X-0.90986X-0.37702*%
%ADD22RoundRect,0.10003X-0.34615X-1.67113X-1.65117X-0.43141*%
%ADD23RoundRect,0.1016X-0.4X0.432X0.4X0.432*%
%ADD24RoundRect,0.1016X-0.31824X0.27X0.31824X0.27*%
%ADD25RoundRect,0.1016X-0.35X-0.62501X-0.35X0.62501*%
%ADD26RoundRect,0.1016X-0.40324X0.432X0.40324X0.432*%
%ADD27RoundRect,0.1016X-0.432X-0.40324X-0.432X0.40324*%
%ADD28RoundRect,0.1016X-0.35X-0.52501X-0.35X0.52501*%
%ADD29RoundRect,0.1016X-0.52501X0.35X0.52501X0.35*%
%ADD30O,1.60002X0.37003*%
%ADD31O,0.37003X1.60002*%
%ADD32O,0.38003X0.90002*%
%ADD33O,0.90002X0.38003*%
%ADD34RoundRect,0.10003X-1.35X1.35X1.35X1.35*%
%ADD35RoundRect,0.1016X-0.14X0.4X0.14X0.4*%
%ADD36RoundRect,0.1016X-0.4X0.14X0.4X0.14*%
%ADD37RoundRect,0.1016X-1.25X1.25X1.25X1.25*%
%ADD38RoundRect,0.1016X-0.6X-0.7X-0.6X0.7*%
%ADD39RoundRect,0.1016X-0.55X-0.6X-0.55X0.6*%
G75*


G04 Pad Start*
G54D10*
G01X1150000Y2050000D03*
G01X1150000Y4550000D03*
G01X3650000Y4550000D03*
G01X3650000Y2050000D03*
G54D11*
G01X1615440Y6075680D03*
G54D12*
G01X1830440Y6075680D03*
G54D13*
G01X447040Y4215282D03*
G01X447040Y4075278D03*
G01X452120Y2998318D03*
G01X452120Y3138322D03*
G01X457200Y3277718D03*
G01X457200Y3417722D03*
G54D14*
G01X1903882Y3764280D03*
G01X1763878Y3764280D03*
G01X1893722Y2606040D03*
G01X1753718Y2606040D03*
G01X412598Y2788920D03*
G01X552602Y2788920D03*
G01X697078Y3789680D03*
G01X837082Y3789680D03*
G01X2112162Y3444240D03*
G01X1972158Y3444240D03*
G54D13*
G01X2656840Y3719678D03*
G01X2656840Y3859682D03*
G01X2473960Y3719678D03*
G01X2473960Y3859682D03*
G54D14*
G01X2950362Y3479800D03*
G01X2810358Y3479800D03*
G54D13*
G01X2794000Y3184042D03*
G01X2794000Y3044038D03*
G01X2580640Y4740758D03*
G01X2580640Y4880762D03*
G01X2773680Y4740758D03*
G01X2773680Y4880762D03*
G01X1874520Y5906922D03*
G01X1874520Y5766918D03*
G01X1701800Y5766918D03*
G01X1701800Y5906922D03*
G01X2367280Y5906922D03*
G01X2367280Y5766918D03*
G01X2529840Y5906922D03*
G01X2529840Y5766918D03*
G01X1879600Y5015078D03*
G01X1879600Y5155082D03*
G01X2799080Y5462118D03*
G01X2799080Y5602122D03*
G01X2966720Y5297322D03*
G01X2966720Y5157318D03*
G54D14*
G01X1799438Y690880D03*
G01X1939442Y690880D03*
G01X1794358Y487680D03*
G01X1934362Y487680D03*
G01X1794358Y294640D03*
G01X1934362Y294640D03*
G54D15*
G01X4151300Y3675101D03*
G01X3951300Y3675101D03*
G01X4151300Y3875100D03*
G01X3951300Y3875100D03*
G01X4151300Y4075100D03*
G01X3951300Y4075100D03*
G01X4151300Y4275099D03*
G54D16*
G01X3951300Y4275099D03*
G54D17*
G01X4637189Y2218576D03*
G01X3897211Y2766606D03*
G01X3897186Y2516594D03*
G01X4637215Y3064624D03*
G54D18*
G01X704624Y5043312D03*
G01X614000Y4957220D03*
G54D20*
G01X715689Y5405535D03*
G01X251686Y4964733D03*
G54D21*
G01X614000Y1430880D03*
G01X704624Y1344788D03*
G54D22*
G01X251686Y1423367D03*
G01X715689Y982565D03*
G54D21*
G01X4250100Y4964840D03*
G01X4159476Y5050932D03*
G54D22*
G01X4612414Y4972353D03*
G01X4148411Y5413155D03*
G54D18*
G01X4146776Y1344788D03*
G01X4237400Y1430880D03*
G54D20*
G01X4135711Y982565D03*
G01X4599714Y1423367D03*
G54D23*
G01X2193430Y5760720D03*
G01X2053450Y5760720D03*
G01X2198510Y5608320D03*
G01X2058530Y5608320D03*
G01X2368410Y5608320D03*
G01X2508390Y5608320D03*
G54D24*
G01X1394945Y5547360D03*
G01X1287300Y5547360D03*
G01X3579345Y5674360D03*
G01X3471700Y5674360D03*
G01X3337904Y991615D03*
G01X3230259Y991615D03*
G01X1430505Y970280D03*
G01X1322860Y970280D03*
G01X3441215Y3606800D03*
G01X3548860Y3606800D03*
G01X3551151Y3352800D03*
G01X3443506Y3352800D03*
G01X3446295Y3098800D03*
G01X3553940Y3098800D03*
G01X3551151Y2860040D03*
G01X3443506Y2860040D03*
G54D25*
G01X1187196Y5215560D03*
G01X997204Y5215560D03*
G01X1092200Y5015560D03*
G01X719836Y1857680D03*
G01X529844Y1857680D03*
G01X624840Y1657680D03*
G01X3889756Y5235880D03*
G01X3699764Y5235880D03*
G01X3794760Y5035880D03*
G01X3720084Y1266520D03*
G01X3910076Y1266520D03*
G01X3815080Y1466520D03*
G01X3351276Y2452040D03*
G01X3161284Y2452040D03*
G01X3256280Y2252040D03*
G54D26*
G01X1021944Y4180840D03*
G01X1172616Y4180840D03*
G01X2412136Y3037840D03*
G01X2261464Y3037840D03*
G54D27*
G01X2087880Y3013304D03*
G01X2087880Y3163976D03*
G54D26*
G01X2799944Y3322320D03*
G01X2950616Y3322320D03*
G54D27*
G01X1879600Y5470296D03*
G01X1879600Y5319624D03*
G01X2799080Y5302656D03*
G01X2799080Y5151984D03*
G54D26*
G01X2894736Y314960D03*
G01X2744064Y314960D03*
G01X2894736Y482600D03*
G01X2744064Y482600D03*
G54D27*
G01X2418080Y569824D03*
G01X2418080Y720496D03*
G01X2255520Y569824D03*
G01X2255520Y720496D03*
G01X1498600Y5211216D03*
G01X1498600Y5060544D03*
G01X1341120Y5211216D03*
G01X1341120Y5060544D03*
G01X550784Y2040631D03*
G01X550784Y2191304D03*
G01X726440Y2043024D03*
G01X726440Y2193696D03*
G01X3556000Y5383936D03*
G01X3556000Y5233264D03*
G54D26*
G01X3870096Y5369560D03*
G01X3719424Y5369560D03*
G54D27*
G01X3561080Y1265784D03*
G01X3561080Y1416456D03*
G01X3393440Y1270864D03*
G01X3393440Y1421536D03*
G01X1706880Y5441544D03*
G01X1706880Y5592216D03*
G01X3312160Y5558384D03*
G01X3312160Y5709056D03*
G54D26*
G01X2942184Y975360D03*
G01X3092856Y975360D03*
G01X1477416Y1107440D03*
G01X1326744Y1107440D03*
G01X3123336Y2179320D03*
G01X2972664Y2179320D03*
G01X2972664Y2021840D03*
G01X3123336Y2021840D03*
G54D27*
G01X3495040Y2513736D03*
G01X3495040Y2363064D03*
G54D26*
G01X3321456Y2595880D03*
G01X3170784Y2595880D03*
G54D27*
G01X838200Y3927704D03*
G01X838200Y4078376D03*
G54D28*
G01X305613Y4075887D03*
G01X305613Y3655873D03*
G01X90627Y4075887D03*
G01X90627Y3655873D03*
G54D29*
G01X4336593Y1999793D03*
G01X4756607Y1999793D03*
G01X4336593Y1784807D03*
G01X4756607Y1784807D03*
G54D30*
G01X824687Y3465246D03*
G01X824687Y3415233D03*
G01X824687Y3365246D03*
G01X824687Y3315233D03*
G01X824687Y3265246D03*
G01X824687Y3215234D03*
G01X824687Y3165246D03*
G01X824687Y3115234D03*
G01X824687Y3065247D03*
G01X824687Y3015234D03*
G01X824687Y2965247D03*
G01X824687Y2915234D03*
G54D31*
G01X974674Y2765247D03*
G01X1024687Y2765247D03*
G01X1074674Y2765247D03*
G01X1124687Y2765247D03*
G01X1174674Y2765247D03*
G01X1224686Y2765247D03*
G01X1274674Y2765247D03*
G01X1324686Y2765247D03*
G01X1374673Y2765247D03*
G01X1424686Y2765247D03*
G01X1474673Y2765247D03*
G01X1524686Y2765247D03*
G54D30*
G01X1674673Y2915234D03*
G01X1674673Y2965247D03*
G01X1674673Y3015234D03*
G01X1674673Y3065247D03*
G01X1674673Y3115234D03*
G01X1674673Y3165246D03*
G01X1674673Y3215234D03*
G01X1674673Y3265246D03*
G01X1674673Y3315233D03*
G01X1674673Y3365246D03*
G01X1674673Y3415233D03*
G01X1674673Y3465246D03*
G54D31*
G01X1524686Y3615233D03*
G01X1474673Y3615233D03*
G01X1424686Y3615233D03*
G01X1374673Y3615233D03*
G01X1324686Y3615233D03*
G01X1274674Y3615233D03*
G01X1224686Y3615233D03*
G01X1174674Y3615233D03*
G01X1124687Y3615233D03*
G01X1074674Y3615233D03*
G01X1024687Y3615233D03*
G01X974674Y3615233D03*
G54D32*
G01X2319010Y3169473D03*
G01X2368997Y3169473D03*
G01X2419010Y3169473D03*
G01X2468997Y3169473D03*
G01X2519009Y3169473D03*
G01X2568997Y3169473D03*
G54D33*
G01X2644003Y3244479D03*
G01X2644003Y3294466D03*
G01X2644003Y3344479D03*
G01X2644003Y3394466D03*
G01X2644003Y3444479D03*
G01X2644003Y3494466D03*
G54D32*
G01X2568997Y3569472D03*
G01X2519009Y3569472D03*
G01X2468997Y3569472D03*
G01X2419010Y3569472D03*
G01X2368997Y3569472D03*
G01X2319797Y3569472D03*
G54D33*
G01X2244004Y3494466D03*
G01X2244004Y3444479D03*
G01X2244004Y3394466D03*
G01X2244004Y3344479D03*
G01X2244004Y3294466D03*
G01X2244004Y3244479D03*
G54D34*
G01X2445248Y3369473D03*
G54D35*
G01X2139020Y5024194D03*
G01X2189033Y5024194D03*
G01X2239020Y5024194D03*
G01X2289033Y5024194D03*
G01X2339020Y5024194D03*
G54D36*
G01X2439020Y5124193D03*
G01X2439020Y5174206D03*
G01X2439020Y5224193D03*
G01X2439020Y5274206D03*
G01X2439020Y5324193D03*
G54D35*
G01X2339020Y5424193D03*
G01X2289033Y5424193D03*
G01X2239020Y5424193D03*
G01X2189033Y5424193D03*
G01X2139020Y5424193D03*
G54D36*
G01X2039021Y5324193D03*
G01X2039021Y5274206D03*
G01X2039021Y5224193D03*
G01X2039021Y5174206D03*
G01X2039021Y5124193D03*
G54D37*
G01X2239020Y5224193D03*
G54D38*
G01X118199Y3351047D03*
G01X118199Y3131033D03*
G01X288201Y3131033D03*
G01X288201Y3351047D03*
G54D39*
G01X3295714Y5378209D03*
G01X3295714Y5188191D03*
G01X3145727Y5188191D03*
G01X3145727Y5378209D03*
G04 Pad End*

M02*

