G04 Layer: BottomSilkscreenLayer*
G04 EasyEDA Pro v3.2.148, 2026-07-06 23:39:11*
G04 Gerber Generator version 0.3*
G04 Scale: 100 percent, Rotated: No, Reflected: No*
G04 Dimensions in millimeters*
G04 Leading zeros omitted, absolute positions, 4 integers and 5 decimals*
G04 Generated by one-click*
G04 Object Configs: Pad,Via,Track,Text,Image,Dimension,BoardOutline,BoardCutout,CopperFilled,SolidRegion,FPCStiffener,Line,PlaneZone,ComponentProperty,ComponentSilkscreen,TearDrop*
G04 Layer Configs: 1,2,3,4,5,6,7,8,9,10,11,13,14,56*
G04 Copper Areas: 0*
%FSLAX45Y45*%
%MOMM*%
%ADD10C,0.1524*%
%ADD11C,0.254*%
%ADD12C,0.15199*%
%ADD13C,0.1*%
%ADD14C,0.3*%
%ADD15C,0.1821*%
G75*


G04 Text Start*
G54D10*
G01X3781298Y3629660D02*
G01X3784346Y3636010D01*
G01X3790696Y3642106D01*
G01X3796792Y3645154D01*
G01X3809238Y3645154D01*
G01X3815334Y3642106D01*
G01X3821684Y3636010D01*
G01X3824732Y3629660D01*
G01X3827780Y3620516D01*
G01X3827780Y3605022D01*
G01X3824732Y3595624D01*
G01X3821684Y3589528D01*
G01X3815334Y3583178D01*
G01X3809238Y3580130D01*
G01X3796792Y3580130D01*
G01X3790696Y3583178D01*
G01X3784346Y3589528D01*
G01X3781298Y3595624D01*
G01X3748024Y3629660D02*
G01X3748024Y3632708D01*
G01X3744976Y3639058D01*
G01X3741928Y3642106D01*
G01X3735832Y3645154D01*
G01X3723386Y3645154D01*
G01X3717036Y3642106D01*
G01X3713988Y3639058D01*
G01X3710940Y3632708D01*
G01X3710940Y3626612D01*
G01X3713988Y3620516D01*
G01X3720338Y3611118D01*
G01X3751072Y3580130D01*
G01X3707892Y3580130D01*
G01X3640582Y3645154D02*
G01X3671570Y3645154D01*
G01X3674618Y3617468D01*
G01X3671570Y3620516D01*
G01X3662426Y3623564D01*
G01X3653028Y3623564D01*
G01X3643630Y3620516D01*
G01X3637534Y3614166D01*
G01X3634486Y3605022D01*
G01X3634486Y3598672D01*
G01X3637534Y3589528D01*
G01X3643630Y3583178D01*
G01X3653028Y3580130D01*
G01X3662426Y3580130D01*
G01X3671570Y3583178D01*
G01X3674618Y3586480D01*
G01X3677666Y3592576D01*
G01X3319018Y2745740D02*
G01X3322066Y2752090D01*
G01X3328416Y2758186D01*
G01X3334512Y2761234D01*
G01X3346958Y2761234D01*
G01X3353054Y2758186D01*
G01X3359404Y2752090D01*
G01X3362452Y2745740D01*
G01X3365500Y2736596D01*
G01X3365500Y2721102D01*
G01X3362452Y2711704D01*
G01X3359404Y2705608D01*
G01X3353054Y2699258D01*
G01X3346958Y2696210D01*
G01X3334512Y2696210D01*
G01X3328416Y2699258D01*
G01X3322066Y2705608D01*
G01X3319018Y2711704D01*
G01X3285744Y2745740D02*
G01X3285744Y2748788D01*
G01X3282696Y2755138D01*
G01X3279648Y2758186D01*
G01X3273552Y2761234D01*
G01X3261106Y2761234D01*
G01X3254756Y2758186D01*
G01X3251708Y2755138D01*
G01X3248660Y2748788D01*
G01X3248660Y2742692D01*
G01X3251708Y2736596D01*
G01X3258058Y2727198D01*
G01X3288792Y2696210D01*
G01X3245612Y2696210D01*
G01X3178302Y2752090D02*
G01X3181350Y2758186D01*
G01X3190748Y2761234D01*
G01X3196844Y2761234D01*
G01X3206242Y2758186D01*
G01X3212338Y2748788D01*
G01X3215386Y2733548D01*
G01X3215386Y2718054D01*
G01X3212338Y2705608D01*
G01X3206242Y2699258D01*
G01X3196844Y2696210D01*
G01X3193796Y2696210D01*
G01X3184652Y2699258D01*
G01X3178302Y2705608D01*
G01X3175254Y2714752D01*
G01X3175254Y2718054D01*
G01X3178302Y2727198D01*
G01X3184652Y2733548D01*
G01X3193796Y2736596D01*
G01X3196844Y2736596D01*
G01X3206242Y2733548D01*
G01X3212338Y2727198D01*
G01X3215386Y2718054D01*
G01X3054858Y2882900D02*
G01X3057906Y2889250D01*
G01X3064256Y2895346D01*
G01X3070352Y2898394D01*
G01X3082798Y2898394D01*
G01X3088894Y2895346D01*
G01X3095244Y2889250D01*
G01X3098292Y2882900D01*
G01X3101340Y2873756D01*
G01X3101340Y2858262D01*
G01X3098292Y2848864D01*
G01X3095244Y2842768D01*
G01X3088894Y2836418D01*
G01X3082798Y2833370D01*
G01X3070352Y2833370D01*
G01X3064256Y2836418D01*
G01X3057906Y2842768D01*
G01X3054858Y2848864D01*
G01X3021584Y2882900D02*
G01X3021584Y2885948D01*
G01X3018536Y2892298D01*
G01X3015488Y2895346D01*
G01X3009392Y2898394D01*
G01X2996946Y2898394D01*
G01X2990596Y2895346D01*
G01X2987548Y2892298D01*
G01X2984500Y2885948D01*
G01X2984500Y2879852D01*
G01X2987548Y2873756D01*
G01X2993898Y2864358D01*
G01X3024632Y2833370D01*
G01X2981452Y2833370D01*
G01X2908046Y2898394D02*
G01X2939034Y2833370D01*
G01X2951226Y2898394D02*
G01X2908046Y2898394D01*
G01X3075178Y3289300D02*
G01X3078226Y3295650D01*
G01X3084576Y3301746D01*
G01X3090672Y3304794D01*
G01X3103118Y3304794D01*
G01X3109214Y3301746D01*
G01X3115564Y3295650D01*
G01X3118612Y3289300D01*
G01X3121660Y3280156D01*
G01X3121660Y3264662D01*
G01X3118612Y3255264D01*
G01X3115564Y3249168D01*
G01X3109214Y3242818D01*
G01X3103118Y3239770D01*
G01X3090672Y3239770D01*
G01X3084576Y3242818D01*
G01X3078226Y3249168D01*
G01X3075178Y3255264D01*
G01X3041904Y3289300D02*
G01X3041904Y3292348D01*
G01X3038856Y3298698D01*
G01X3035808Y3301746D01*
G01X3029712Y3304794D01*
G01X3017266Y3304794D01*
G01X3010916Y3301746D01*
G01X3007868Y3298698D01*
G01X3004820Y3292348D01*
G01X3004820Y3286252D01*
G01X3007868Y3280156D01*
G01X3014218Y3270758D01*
G01X3044952Y3239770D01*
G01X3001772Y3239770D01*
G01X2956306Y3304794D02*
G01X2965450Y3301746D01*
G01X2968498Y3295650D01*
G01X2968498Y3289300D01*
G01X2965450Y3283204D01*
G01X2959354Y3280156D01*
G01X2946908Y3277108D01*
G01X2937510Y3273806D01*
G01X2931414Y3267710D01*
G01X2928366Y3261614D01*
G01X2928366Y3252216D01*
G01X2931414Y3246120D01*
G01X2934462Y3242818D01*
G01X2943860Y3239770D01*
G01X2956306Y3239770D01*
G01X2965450Y3242818D01*
G01X2968498Y3246120D01*
G01X2971546Y3252216D01*
G01X2971546Y3261614D01*
G01X2968498Y3267710D01*
G01X2962402Y3273806D01*
G01X2953004Y3277108D01*
G01X2940812Y3280156D01*
G01X2934462Y3283204D01*
G01X2931414Y3289300D01*
G01X2931414Y3295650D01*
G01X2934462Y3301746D01*
G01X2943860Y3304794D01*
G01X2956306Y3304794D01*
G01X3433191Y4035933D02*
G01X3436239Y4042283D01*
G01X3442589Y4048379D01*
G01X3448685Y4051427D01*
G01X3461131Y4051427D01*
G01X3467227Y4048379D01*
G01X3473577Y4042283D01*
G01X3476625Y4035933D01*
G01X3479673Y4026789D01*
G01X3479673Y4011295D01*
G01X3476625Y4001897D01*
G01X3473577Y3995801D01*
G01X3467227Y3989451D01*
G01X3461131Y3986403D01*
G01X3448685Y3986403D01*
G01X3442589Y3989451D01*
G01X3436239Y3995801D01*
G01X3433191Y4001897D01*
G01X3399917Y4035933D02*
G01X3399917Y4038981D01*
G01X3396869Y4045331D01*
G01X3393821Y4048379D01*
G01X3387725Y4051427D01*
G01X3375279Y4051427D01*
G01X3368929Y4048379D01*
G01X3365881Y4045331D01*
G01X3362833Y4038981D01*
G01X3362833Y4032885D01*
G01X3365881Y4026789D01*
G01X3372231Y4017391D01*
G01X3402965Y3986403D01*
G01X3359785Y3986403D01*
G01X3289427Y4029837D02*
G01X3292475Y4020439D01*
G01X3298825Y4014343D01*
G01X3307969Y4011295D01*
G01X3311017Y4011295D01*
G01X3320415Y4014343D01*
G01X3326511Y4020439D01*
G01X3329559Y4029837D01*
G01X3329559Y4032885D01*
G01X3326511Y4042283D01*
G01X3320415Y4048379D01*
G01X3311017Y4051427D01*
G01X3307969Y4051427D01*
G01X3298825Y4048379D01*
G01X3292475Y4042283D01*
G01X3289427Y4029837D01*
G01X3289427Y4014343D01*
G01X3292475Y3998849D01*
G01X3298825Y3989451D01*
G01X3307969Y3986403D01*
G01X3314319Y3986403D01*
G01X3323463Y3989451D01*
G01X3326511Y3995801D01*
G01X3111500Y3172714D02*
G01X3111500Y3107690D01*
G01X3111500Y3107690D02*
G01X3074416Y3107690D01*
G01X3013456Y3172714D02*
G01X3044190Y3129534D01*
G01X2997962Y3129534D01*
G01X3013456Y3172714D02*
G01X3013456Y3107690D01*
G01X3593338Y3802634D02*
G01X3599434Y3799586D01*
G01X3605784Y3793490D01*
G01X3608832Y3787140D01*
G01X3611880Y3777996D01*
G01X3611880Y3762502D01*
G01X3608832Y3753104D01*
G01X3605784Y3747008D01*
G01X3599434Y3740658D01*
G01X3593338Y3737610D01*
G01X3580892Y3737610D01*
G01X3574796Y3740658D01*
G01X3568446Y3747008D01*
G01X3565398Y3753104D01*
G01X3562350Y3762502D01*
G01X3562350Y3777996D01*
G01X3565398Y3787140D01*
G01X3568446Y3793490D01*
G01X3574796Y3799586D01*
G01X3580892Y3802634D01*
G01X3593338Y3802634D01*
G01X3583940Y3750056D02*
G01X3565398Y3731514D01*
G01X3532124Y3790188D02*
G01X3526028Y3793490D01*
G01X3516884Y3802634D01*
G01X3516884Y3737610D01*
G01X4376420Y3492754D02*
G01X4376420Y3427730D01*
G01X4376420Y3492754D02*
G01X4348480Y3492754D01*
G01X4339336Y3489706D01*
G01X4336288Y3486658D01*
G01X4332986Y3480308D01*
G01X4332986Y3474212D01*
G01X4336288Y3468116D01*
G01X4339336Y3465068D01*
G01X4348480Y3461766D01*
G01X4376420Y3461766D01*
G01X4354830Y3461766D02*
G01X4332986Y3427730D01*
G01X4302760Y3480308D02*
G01X4296664Y3483610D01*
G01X4287520Y3492754D01*
G01X4287520Y3427730D01*
G01X4251198Y3492754D02*
G01X4217162Y3492754D01*
G01X4235704Y3468116D01*
G01X4226560Y3468116D01*
G01X4220210Y3465068D01*
G01X4217162Y3461766D01*
G01X4214114Y3452622D01*
G01X4214114Y3446272D01*
G01X4217162Y3437128D01*
G01X4223258Y3430778D01*
G01X4232656Y3427730D01*
G01X4242054Y3427730D01*
G01X4251198Y3430778D01*
G01X4254246Y3434080D01*
G01X4257294Y3440176D01*
G01X3675380Y2634234D02*
G01X3675380Y2569210D01*
G01X3675380Y2634234D02*
G01X3647440Y2634234D01*
G01X3638296Y2631186D01*
G01X3635248Y2628138D01*
G01X3631946Y2621788D01*
G01X3631946Y2615692D01*
G01X3635248Y2609596D01*
G01X3638296Y2606548D01*
G01X3647440Y2603246D01*
G01X3675380Y2603246D01*
G01X3653790Y2603246D02*
G01X3631946Y2569210D01*
G01X3601720Y2621788D02*
G01X3595624Y2625090D01*
G01X3586480Y2634234D01*
G01X3586480Y2569210D01*
G01X3525520Y2634234D02*
G01X3556254Y2591054D01*
G01X3510026Y2591054D01*
G01X3525520Y2634234D02*
G01X3525520Y2569210D01*
G01X2592360Y543721D02*
G01X2592360Y497239D01*
G01X2589312Y488095D01*
G01X2582962Y481745D01*
G01X2573818Y478697D01*
G01X2567468Y478697D01*
G01X2558324Y481745D01*
G01X2552228Y488095D01*
G01X2548926Y497239D01*
G01X2548926Y543721D01*
G01X2487966Y543721D02*
G01X2518700Y500541D01*
G01X2472472Y500541D01*
G01X2487966Y543721D02*
G01X2487966Y478697D01*
G01X4030980Y2799334D02*
G01X4030980Y2752852D01*
G01X4027932Y2743708D01*
G01X4021582Y2737358D01*
G01X4012438Y2734310D01*
G01X4006088Y2734310D01*
G01X3996944Y2737358D01*
G01X3990848Y2743708D01*
G01X3987546Y2752852D01*
G01X3987546Y2799334D01*
G01X3920236Y2799334D02*
G01X3951224Y2799334D01*
G01X3954272Y2771648D01*
G01X3951224Y2774696D01*
G01X3942080Y2777744D01*
G01X3932682Y2777744D01*
G01X3923284Y2774696D01*
G01X3917188Y2768346D01*
G01X3914140Y2759202D01*
G01X3914140Y2752852D01*
G01X3917188Y2743708D01*
G01X3923284Y2737358D01*
G01X3932682Y2734310D01*
G01X3942080Y2734310D01*
G01X3951224Y2737358D01*
G01X3954272Y2740660D01*
G01X3957320Y2746756D01*
G04 Text End*

G04 PolygonModel Start*
G54D11*
G01X3693081Y3538057D02*
G01X3613084Y3538057D01*
G01X3749126Y3538103D02*
G01X3829124Y3538103D01*
G01X3693081Y3396089D02*
G01X3613084Y3396089D01*
G01X3749126Y3396137D02*
G01X3829124Y3396137D01*
G01X3582109Y3507075D02*
G01X3582109Y3427070D01*
G01X3860102Y3427123D02*
G01X3860102Y3507125D01*
G01X3829119Y3396137D02*
G03X3860102Y3427123I0J30983D01*
G01X3860102Y3507120D02*
G03X3829119Y3538103I-30983J0D01*
G01X3613089Y3538057D02*
G03X3582109Y3507075I3J-30983D01*
G01X3582109Y3427077D02*
G03X3613089Y3396089I30983J-5D01*
G01X3449157Y2961719D02*
G01X3449157Y3041716D01*
G01X3449203Y2905674D02*
G01X3449203Y2825676D01*
G01X3307189Y2961719D02*
G01X3307189Y3041716D01*
G01X3307237Y2905674D02*
G01X3307237Y2825676D01*
G01X3418175Y3072691D02*
G01X3338170Y3072691D01*
G01X3338223Y2794699D02*
G01X3418225Y2794699D01*
G01X3307237Y2825681D02*
G03X3338223Y2794699I30983J0D01*
G01X3418220Y2794699D02*
G03X3449203Y2825681I0J30983D01*
G01X3449157Y3041711D02*
G03X3418175Y3072691I-30983J-3D01*
G01X3338177Y3072691D02*
G03X3307189Y3041711I-5J-30983D01*
G01X3271357Y2961719D02*
G01X3271357Y3041716D01*
G01X3271403Y2905674D02*
G01X3271403Y2825676D01*
G01X3129389Y2961719D02*
G01X3129389Y3041716D01*
G01X3129437Y2905674D02*
G01X3129437Y2825676D01*
G01X3240375Y3072691D02*
G01X3160370Y3072691D01*
G01X3160423Y2794699D02*
G01X3240425Y2794699D01*
G01X3129437Y2825681D02*
G03X3160423Y2794699I30983J0D01*
G01X3240420Y2794699D02*
G03X3271403Y2825681I0J30983D01*
G01X3271357Y3041711D02*
G03X3240375Y3072691I-30983J-3D01*
G01X3160377Y3072691D02*
G03X3129389Y3041711I-5J-30983D01*
G01X3342719Y3205643D02*
G01X3422716Y3205643D01*
G01X3286674Y3205597D02*
G01X3206676Y3205597D01*
G01X3342719Y3347611D02*
G01X3422716Y3347611D01*
G01X3286674Y3347563D02*
G01X3206676Y3347563D01*
G01X3453691Y3236625D02*
G01X3453691Y3316630D01*
G01X3175699Y3316577D02*
G01X3175699Y3236575D01*
G01X3206681Y3347563D02*
G03X3175699Y3316577I0J-30983D01*
G01X3175699Y3236580D02*
G03X3206681Y3205597I30983J0D01*
G01X3422711Y3205643D02*
G03X3453691Y3236625I-3J30983D01*
G01X3453691Y3316623D02*
G03X3422711Y3347611I-30983J5D01*
G01X3368119Y3815243D02*
G01X3448116Y3815243D01*
G01X3312074Y3815197D02*
G01X3232076Y3815197D01*
G01X3368119Y3957211D02*
G01X3448116Y3957211D01*
G01X3312074Y3957163D02*
G01X3232076Y3957163D01*
G01X3479091Y3846225D02*
G01X3479091Y3926230D01*
G01X3201099Y3926177D02*
G01X3201099Y3846175D01*
G01X3232081Y3957163D02*
G03X3201099Y3926177I0J-30983D01*
G01X3201099Y3846180D02*
G03X3232081Y3815197I30983J0D01*
G01X3448111Y3815243D02*
G03X3479091Y3846225I-3J30983D01*
G01X3479091Y3926223D02*
G03X3448111Y3957211I-30983J5D01*
G54D10*
G01X3403600Y3071764D02*
G01X3419010Y3086999D01*
G01X3419010Y3086999D02*
G01X3419010Y3188642D01*
G01X3419010Y3188642D02*
G01X3403600Y3201899D01*
G01X3149600Y3201899D02*
G01X3134185Y3186798D01*
G01X3134185Y3186798D02*
G01X3134185Y3085155D01*
G01X3134185Y3085155D02*
G01X3149600Y3071899D01*
G54D12*
G01X3403801Y3201899D02*
G01X3327601Y3201899D01*
G01X3149394Y3071899D02*
G01X3225594Y3071899D01*
G01X3403801Y3071899D02*
G01X3327601Y3071899D01*
G01X3149394Y3201899D02*
G01X3225594Y3201899D01*
G54D10*
G01X3356212Y3348088D02*
G01X3090976Y3348088D01*
G01X3090976Y3348088D02*
G01X3090976Y3462970D01*
G01X3356212Y3813325D02*
G01X3090976Y3813325D01*
G01X3090976Y3813325D02*
G01X3090976Y3698443D01*
G01X4008679Y3401040D02*
G01X3912791Y3401040D01*
G01X3912791Y3401040D02*
G01X3912791Y3533160D01*
G01X3912791Y3533160D02*
G01X4008679Y3533160D01*
G01X4093921Y3401040D02*
G01X4189809Y3401040D01*
G01X4189809Y3401040D02*
G01X4189809Y3533160D01*
G01X4189809Y3533160D02*
G01X4093921Y3533160D01*
G01X3493059Y2656820D02*
G01X3397171Y2656820D01*
G01X3397171Y2656820D02*
G01X3397171Y2788940D01*
G01X3397171Y2788940D02*
G01X3493059Y2788940D01*
G01X3578301Y2656820D02*
G01X3674189Y2656820D01*
G01X3674189Y2656820D02*
G01X3674189Y2788940D01*
G01X3674189Y2788940D02*
G01X3578301Y2788940D01*
G54D13*
G01X2593327Y431787D02*
G01X2593327Y177787D01*
G01X2155177Y177787D01*
G01X2155177Y431787D01*
G01X2593327Y431787D01*
G54D10*
G01X4036864Y3331830D02*
G01X3732582Y3331830D01*
G01X3732582Y3331830D02*
G01X3732582Y2816591D01*
G01X3732582Y2816591D02*
G01X4036864Y2816591D01*
G01X4036864Y2816591D02*
G01X4036864Y3331830D01*

G04 Circle Start*
G54D11*
G01X2186927Y139687D02*
G03X2212327Y139687I12700J0D01*
G03X2186927Y139687I-12700J0D01*
G54D14*
G01X4137961Y3341444D02*
G03X4167984Y3341444I15011J0D01*
G03X4137961Y3341444I-15011J0D01*
G01X3971312Y3290110D02*
G03X4001334Y3290110I15011J0D01*
G03X3971312Y3290110I-15011J0D01*
G04 Circle End*

M02*

