G04 Layer: TopSilkscreenLayer*
G04 EasyEDA Pro v3.2.148, 2026-07-06 23:39:11*
G04 Gerber Generator version 0.3*
G04 Scale: 100 percent, Rotated: No, Reflected: No*
G04 Dimensions in millimeters*
G04 Leading zeros omitted, absolute positions, 4 integers and 5 decimals*
G04 Generated by one-click*
G04 Object Configs: Pad,Via,Track,Text,Image,Dimension,BoardOutline,BoardCutout,CopperFilled,SolidRegion,FPCStiffener,Line,PlaneZone,ComponentProperty,ComponentSilkscreen,TearDrop*
G04 Layer Configs: 1,2,3,4,5,6,7,8,9,10,11,13,14,56*
G04 Copper Areas: 0*
%FSLAX45Y45*%
%MOMM*%
%ADD10C,0.2032*%
%ADD11C,0.1524*%
%ADD12C,0.254*%
%ADD13C,0.15199*%
%ADD14C,0.2*%
%ADD15C,0.4*%
%ADD16C,0.3*%
%ADD17C,0.0824*%
%ADD18C,0.0762*%
G75*


G04 Text Start*
G54D10*
G01X1790700Y1649730D02*
G01X1772920Y1667510D01*
G01X1746250Y1676400D01*
G01X1710690Y1676400D01*
G01X1684020Y1667510D01*
G01X1666240Y1649730D01*
G01X1666240Y1631950D01*
G01X1675130Y1614170D01*
G01X1684020Y1605280D01*
G01X1701800Y1596390D01*
G01X1755140Y1578610D01*
G01X1772920Y1569720D01*
G01X1781810Y1560830D01*
G01X1790700Y1543050D01*
G01X1790700Y1516380D01*
G01X1772920Y1498600D01*
G01X1746250Y1489710D01*
G01X1710690Y1489710D01*
G01X1684020Y1498600D01*
G01X1666240Y1516380D01*
G01X1915922Y1676400D02*
G01X1915922Y1489710D01*
G01X1853692Y1676400D02*
G01X1978152Y1676400D01*
G01X2041144Y1676400D02*
G01X2041144Y1489710D01*
G01X2041144Y1676400D02*
G01X2112264Y1489710D01*
G01X2183384Y1676400D02*
G01X2112264Y1489710D01*
G01X2183384Y1676400D02*
G01X2183384Y1489710D01*
G01X2264156Y1676400D02*
G01X2361946Y1676400D01*
G01X2308606Y1605280D01*
G01X2335276Y1605280D01*
G01X2353056Y1596390D01*
G01X2361946Y1587500D01*
G01X2370836Y1560830D01*
G01X2370836Y1543050D01*
G01X2361946Y1516380D01*
G01X2344166Y1498600D01*
G01X2317496Y1489710D01*
G01X2290826Y1489710D01*
G01X2264156Y1498600D01*
G01X2255266Y1507490D01*
G01X2246376Y1525270D01*
G01X2442718Y1631950D02*
G01X2442718Y1640840D01*
G01X2451608Y1658620D01*
G01X2460498Y1667510D01*
G01X2478278Y1676400D01*
G01X2513838Y1676400D01*
G01X2531618Y1667510D01*
G01X2540508Y1658620D01*
G01X2549398Y1640840D01*
G01X2549398Y1623060D01*
G01X2540508Y1605280D01*
G01X2522728Y1578610D01*
G01X2433828Y1489710D01*
G01X2558288Y1489710D01*
G01X2820416Y1676400D02*
G01X2820416Y1489710D01*
G01X2820416Y1676400D02*
G01X2935986Y1676400D01*
G01X2820416Y1587500D02*
G01X2891536Y1587500D01*
G01X3132328Y1631950D02*
G01X3123438Y1649730D01*
G01X3105658Y1667510D01*
G01X3087878Y1676400D01*
G01X3052318Y1676400D01*
G01X3034538Y1667510D01*
G01X3016758Y1649730D01*
G01X3007868Y1631950D01*
G01X2998978Y1605280D01*
G01X2998978Y1560830D01*
G01X3007868Y1534160D01*
G01X3016758Y1516380D01*
G01X3034538Y1498600D01*
G01X3052318Y1489710D01*
G01X3087878Y1489710D01*
G01X3105658Y1498600D01*
G01X3123438Y1516380D01*
G01X3132328Y1534160D01*
G01X1747520Y1391920D02*
G01X1676400Y1205230D01*
G01X1747520Y1391920D02*
G01X1818640Y1205230D01*
G01X1703070Y1267460D02*
G01X1791970Y1267460D01*
G01X1881632Y1391920D02*
G01X1881632Y1205230D01*
G01X2051304Y1329690D02*
G01X2051304Y1205230D01*
G01X2051304Y1303020D02*
G01X2033524Y1320800D01*
G01X2015744Y1329690D01*
G01X1989074Y1329690D01*
G01X1971294Y1320800D01*
G01X1953514Y1303020D01*
G01X1944624Y1276350D01*
G01X1944624Y1258570D01*
G01X1953514Y1231900D01*
G01X1971294Y1214120D01*
G01X1989074Y1205230D01*
G01X2015744Y1205230D01*
G01X2033524Y1214120D01*
G01X2051304Y1231900D01*
G01X2114296Y1329690D02*
G01X2114296Y1205230D01*
G01X2114296Y1294130D02*
G01X2140966Y1320800D01*
G01X2158746Y1329690D01*
G01X2185416Y1329690D01*
G01X2203196Y1320800D01*
G01X2212086Y1294130D01*
G01X2212086Y1205230D01*
G01X2474214Y1391920D02*
G01X2545334Y1303020D01*
G01X2545334Y1205230D01*
G01X2616454Y1391920D02*
G01X2545334Y1303020D01*
G01X2786126Y1329690D02*
G01X2786126Y1205230D01*
G01X2786126Y1303020D02*
G01X2768346Y1320800D01*
G01X2750566Y1329690D01*
G01X2723896Y1329690D01*
G01X2706116Y1320800D01*
G01X2688336Y1303020D01*
G01X2679446Y1276350D01*
G01X2679446Y1258570D01*
G01X2688336Y1231900D01*
G01X2706116Y1214120D01*
G01X2723896Y1205230D01*
G01X2750566Y1205230D01*
G01X2768346Y1214120D01*
G01X2786126Y1231900D01*
G01X2849118Y1329690D02*
G01X2849118Y1205230D01*
G01X2849118Y1294130D02*
G01X2875788Y1320800D01*
G01X2893568Y1329690D01*
G01X2920238Y1329690D01*
G01X2938018Y1320800D01*
G01X2946908Y1294130D01*
G01X2946908Y1205230D01*
G01X3116580Y1329690D02*
G01X3116580Y1187450D01*
G01X3107690Y1160780D01*
G01X3098800Y1151890D01*
G01X3081020Y1143000D01*
G01X3054350Y1143000D01*
G01X3036570Y1151890D01*
G01X3116580Y1303020D02*
G01X3098800Y1320800D01*
G01X3081020Y1329690D01*
G01X3054350Y1329690D01*
G01X3036570Y1320800D01*
G01X3018790Y1303020D01*
G01X3009900Y1276350D01*
G01X3009900Y1258570D01*
G01X3018790Y1231900D01*
G01X3036570Y1214120D01*
G01X3054350Y1205230D01*
G01X3081020Y1205230D01*
G01X3098800Y1214120D01*
G01X3116580Y1231900D01*
G54D11*
G01X430022Y4356100D02*
G01X426974Y4362450D01*
G01X420624Y4368546D01*
G01X414528Y4371594D01*
G01X402082Y4371594D01*
G01X395986Y4368546D01*
G01X389636Y4362450D01*
G01X386588Y4356100D01*
G01X383540Y4346956D01*
G01X383540Y4331462D01*
G01X386588Y4322064D01*
G01X389636Y4315968D01*
G01X395986Y4309618D01*
G01X402082Y4306570D01*
G01X414528Y4306570D01*
G01X420624Y4309618D01*
G01X426974Y4315968D01*
G01X430022Y4322064D01*
G01X460248Y4359148D02*
G01X466344Y4362450D01*
G01X475488Y4371594D01*
G01X475488Y4306570D01*
G01X602742Y2994660D02*
G01X599694Y3001010D01*
G01X593344Y3007106D01*
G01X587248Y3010154D01*
G01X574802Y3010154D01*
G01X568706Y3007106D01*
G01X562356Y3001010D01*
G01X559308Y2994660D01*
G01X556260Y2985516D01*
G01X556260Y2970022D01*
G01X559308Y2960624D01*
G01X562356Y2954528D01*
G01X568706Y2948178D01*
G01X574802Y2945130D01*
G01X587248Y2945130D01*
G01X593344Y2948178D01*
G01X599694Y2954528D01*
G01X602742Y2960624D01*
G01X636016Y2994660D02*
G01X636016Y2997708D01*
G01X639064Y3004058D01*
G01X642112Y3007106D01*
G01X648208Y3010154D01*
G01X660654Y3010154D01*
G01X667004Y3007106D01*
G01X670052Y3004058D01*
G01X673100Y2997708D01*
G01X673100Y2991612D01*
G01X670052Y2985516D01*
G01X663702Y2976118D01*
G01X632968Y2945130D01*
G01X676148Y2945130D01*
G01X445262Y3558540D02*
G01X442214Y3564890D01*
G01X435864Y3570986D01*
G01X429768Y3574034D01*
G01X417322Y3574034D01*
G01X411226Y3570986D01*
G01X404876Y3564890D01*
G01X401828Y3558540D01*
G01X398780Y3549396D01*
G01X398780Y3533902D01*
G01X401828Y3524504D01*
G01X404876Y3518408D01*
G01X411226Y3512058D01*
G01X417322Y3509010D01*
G01X429768Y3509010D01*
G01X435864Y3512058D01*
G01X442214Y3518408D01*
G01X445262Y3524504D01*
G01X481584Y3574034D02*
G01X515620Y3574034D01*
G01X497078Y3549396D01*
G01X506222Y3549396D01*
G01X512572Y3546348D01*
G01X515620Y3543046D01*
G01X518668Y3533902D01*
G01X518668Y3527552D01*
G01X515620Y3518408D01*
G01X509524Y3512058D01*
G01X500126Y3509010D01*
G01X490728Y3509010D01*
G01X481584Y3512058D01*
G01X478536Y3515360D01*
G01X475488Y3521456D01*
G01X1821942Y3939540D02*
G01X1818894Y3945890D01*
G01X1812544Y3951986D01*
G01X1806448Y3955034D01*
G01X1794002Y3955034D01*
G01X1787906Y3951986D01*
G01X1781556Y3945890D01*
G01X1778508Y3939540D01*
G01X1775460Y3930396D01*
G01X1775460Y3914902D01*
G01X1778508Y3905504D01*
G01X1781556Y3899408D01*
G01X1787906Y3893058D01*
G01X1794002Y3890010D01*
G01X1806448Y3890010D01*
G01X1812544Y3893058D01*
G01X1818894Y3899408D01*
G01X1821942Y3905504D01*
G01X1882902Y3955034D02*
G01X1852168Y3911854D01*
G01X1898396Y3911854D01*
G01X1882902Y3955034D02*
G01X1882902Y3890010D01*
G01X2040382Y2623820D02*
G01X2037334Y2630170D01*
G01X2030984Y2636266D01*
G01X2024888Y2639314D01*
G01X2012442Y2639314D01*
G01X2006346Y2636266D01*
G01X1999996Y2630170D01*
G01X1996948Y2623820D01*
G01X1993900Y2614676D01*
G01X1993900Y2599182D01*
G01X1996948Y2589784D01*
G01X1999996Y2583688D01*
G01X2006346Y2577338D01*
G01X2012442Y2574290D01*
G01X2024888Y2574290D01*
G01X2030984Y2577338D01*
G01X2037334Y2583688D01*
G01X2040382Y2589784D01*
G01X2107692Y2639314D02*
G01X2076704Y2639314D01*
G01X2073656Y2611628D01*
G01X2076704Y2614676D01*
G01X2085848Y2617724D01*
G01X2095246Y2617724D01*
G01X2104644Y2614676D01*
G01X2110740Y2608326D01*
G01X2113788Y2599182D01*
G01X2113788Y2592832D01*
G01X2110740Y2583688D01*
G01X2104644Y2577338D01*
G01X2095246Y2574290D01*
G01X2085848Y2574290D01*
G01X2076704Y2577338D01*
G01X2073656Y2580640D01*
G01X2070608Y2586736D01*
G01X236982Y2821940D02*
G01X233934Y2828290D01*
G01X227584Y2834386D01*
G01X221488Y2837434D01*
G01X209042Y2837434D01*
G01X202946Y2834386D01*
G01X196596Y2828290D01*
G01X193548Y2821940D01*
G01X190500Y2812796D01*
G01X190500Y2797302D01*
G01X193548Y2787904D01*
G01X196596Y2781808D01*
G01X202946Y2775458D01*
G01X209042Y2772410D01*
G01X221488Y2772410D01*
G01X227584Y2775458D01*
G01X233934Y2781808D01*
G01X236982Y2787904D01*
G01X304292Y2828290D02*
G01X301244Y2834386D01*
G01X291846Y2837434D01*
G01X285750Y2837434D01*
G01X276352Y2834386D01*
G01X270256Y2824988D01*
G01X267208Y2809748D01*
G01X267208Y2794254D01*
G01X270256Y2781808D01*
G01X276352Y2775458D01*
G01X285750Y2772410D01*
G01X288798Y2772410D01*
G01X297942Y2775458D01*
G01X304292Y2781808D01*
G01X307340Y2790952D01*
G01X307340Y2794254D01*
G01X304292Y2803398D01*
G01X297942Y2809748D01*
G01X288798Y2812796D01*
G01X285750Y2812796D01*
G01X276352Y2809748D01*
G01X270256Y2803398D01*
G01X267208Y2794254D01*
G01X534162Y3807460D02*
G01X531114Y3813810D01*
G01X524764Y3819906D01*
G01X518668Y3822954D01*
G01X506222Y3822954D01*
G01X500126Y3819906D01*
G01X493776Y3813810D01*
G01X490728Y3807460D01*
G01X487680Y3798316D01*
G01X487680Y3782822D01*
G01X490728Y3773424D01*
G01X493776Y3767328D01*
G01X500126Y3760978D01*
G01X506222Y3757930D01*
G01X518668Y3757930D01*
G01X524764Y3760978D01*
G01X531114Y3767328D01*
G01X534162Y3773424D01*
G01X607568Y3822954D02*
G01X576580Y3757930D01*
G01X564388Y3822954D02*
G01X607568Y3822954D01*
G01X2020062Y3614420D02*
G01X2017014Y3620770D01*
G01X2010664Y3626866D01*
G01X2004568Y3629914D01*
G01X1992122Y3629914D01*
G01X1986026Y3626866D01*
G01X1979676Y3620770D01*
G01X1976628Y3614420D01*
G01X1973580Y3605276D01*
G01X1973580Y3589782D01*
G01X1976628Y3580384D01*
G01X1979676Y3574288D01*
G01X1986026Y3567938D01*
G01X1992122Y3564890D01*
G01X2004568Y3564890D01*
G01X2010664Y3567938D01*
G01X2017014Y3574288D01*
G01X2020062Y3580384D01*
G01X2065528Y3629914D02*
G01X2056384Y3626866D01*
G01X2053336Y3620770D01*
G01X2053336Y3614420D01*
G01X2056384Y3608324D01*
G01X2062480Y3605276D01*
G01X2074926Y3602228D01*
G01X2084324Y3598926D01*
G01X2090420Y3592830D01*
G01X2093468Y3586734D01*
G01X2093468Y3577336D01*
G01X2090420Y3571240D01*
G01X2087372Y3567938D01*
G01X2077974Y3564890D01*
G01X2065528Y3564890D01*
G01X2056384Y3567938D01*
G01X2053336Y3571240D01*
G01X2050288Y3577336D01*
G01X2050288Y3586734D01*
G01X2053336Y3592830D01*
G01X2059432Y3598926D01*
G01X2068830Y3602228D01*
G01X2081022Y3605276D01*
G01X2087372Y3608324D01*
G01X2090420Y3614420D01*
G01X2090420Y3620770D01*
G01X2087372Y3626866D01*
G01X2077974Y3629914D01*
G01X2065528Y3629914D01*
G01X2655062Y4010660D02*
G01X2652014Y4017010D01*
G01X2645664Y4023106D01*
G01X2639568Y4026154D01*
G01X2627122Y4026154D01*
G01X2621026Y4023106D01*
G01X2614676Y4017010D01*
G01X2611628Y4010660D01*
G01X2608580Y4001516D01*
G01X2608580Y3986022D01*
G01X2611628Y3976624D01*
G01X2614676Y3970528D01*
G01X2621026Y3964178D01*
G01X2627122Y3961130D01*
G01X2639568Y3961130D01*
G01X2645664Y3964178D01*
G01X2652014Y3970528D01*
G01X2655062Y3976624D01*
G01X2725420Y4004564D02*
G01X2722372Y3995166D01*
G01X2716022Y3989070D01*
G01X2706878Y3986022D01*
G01X2703830Y3986022D01*
G01X2694432Y3989070D01*
G01X2688336Y3995166D01*
G01X2685288Y4004564D01*
G01X2685288Y4007612D01*
G01X2688336Y4017010D01*
G01X2694432Y4023106D01*
G01X2703830Y4026154D01*
G01X2706878Y4026154D01*
G01X2716022Y4023106D01*
G01X2722372Y4017010D01*
G01X2725420Y4004564D01*
G01X2725420Y3989070D01*
G01X2722372Y3973576D01*
G01X2716022Y3964178D01*
G01X2706878Y3961130D01*
G01X2700528Y3961130D01*
G01X2691384Y3964178D01*
G01X2688336Y3970528D01*
G01X2441702Y4005580D02*
G01X2438654Y4011930D01*
G01X2432304Y4018026D01*
G01X2426208Y4021074D01*
G01X2413762Y4021074D01*
G01X2407666Y4018026D01*
G01X2401316Y4011930D01*
G01X2398268Y4005580D01*
G01X2395220Y3996436D01*
G01X2395220Y3980942D01*
G01X2398268Y3971544D01*
G01X2401316Y3965448D01*
G01X2407666Y3959098D01*
G01X2413762Y3956050D01*
G01X2426208Y3956050D01*
G01X2432304Y3959098D01*
G01X2438654Y3965448D01*
G01X2441702Y3971544D01*
G01X2471928Y4008628D02*
G01X2478024Y4011930D01*
G01X2487168Y4021074D01*
G01X2487168Y3956050D01*
G01X2535936Y4021074D02*
G01X2526538Y4018026D01*
G01X2520442Y4008628D01*
G01X2517394Y3993388D01*
G01X2517394Y3983990D01*
G01X2520442Y3968496D01*
G01X2526538Y3959098D01*
G01X2535936Y3956050D01*
G01X2542032Y3956050D01*
G01X2551430Y3959098D01*
G01X2557526Y3968496D01*
G01X2560574Y3983990D01*
G01X2560574Y3993388D01*
G01X2557526Y4008628D01*
G01X2551430Y4018026D01*
G01X2542032Y4021074D01*
G01X2535936Y4021074D01*
G01X3086862Y3497580D02*
G01X3083814Y3503930D01*
G01X3077464Y3510026D01*
G01X3071368Y3513074D01*
G01X3058922Y3513074D01*
G01X3052826Y3510026D01*
G01X3046476Y3503930D01*
G01X3043428Y3497580D01*
G01X3040380Y3488436D01*
G01X3040380Y3472942D01*
G01X3043428Y3463544D01*
G01X3046476Y3457448D01*
G01X3052826Y3451098D01*
G01X3058922Y3448050D01*
G01X3071368Y3448050D01*
G01X3077464Y3451098D01*
G01X3083814Y3457448D01*
G01X3086862Y3463544D01*
G01X3117088Y3500628D02*
G01X3123184Y3503930D01*
G01X3132328Y3513074D01*
G01X3132328Y3448050D01*
G01X3162554Y3500628D02*
G01X3168650Y3503930D01*
G01X3177794Y3513074D01*
G01X3177794Y3448050D01*
G01X2761742Y2933700D02*
G01X2758694Y2940050D01*
G01X2752344Y2946146D01*
G01X2746248Y2949194D01*
G01X2733802Y2949194D01*
G01X2727706Y2946146D01*
G01X2721356Y2940050D01*
G01X2718308Y2933700D01*
G01X2715260Y2924556D01*
G01X2715260Y2909062D01*
G01X2718308Y2899664D01*
G01X2721356Y2893568D01*
G01X2727706Y2887218D01*
G01X2733802Y2884170D01*
G01X2746248Y2884170D01*
G01X2752344Y2887218D01*
G01X2758694Y2893568D01*
G01X2761742Y2899664D01*
G01X2791968Y2936748D02*
G01X2798064Y2940050D01*
G01X2807208Y2949194D01*
G01X2807208Y2884170D01*
G01X2840482Y2933700D02*
G01X2840482Y2936748D01*
G01X2843530Y2943098D01*
G01X2846578Y2946146D01*
G01X2852674Y2949194D01*
G01X2865120Y2949194D01*
G01X2871470Y2946146D01*
G01X2874518Y2943098D01*
G01X2877566Y2936748D01*
G01X2877566Y2930652D01*
G01X2874518Y2924556D01*
G01X2868168Y2915158D01*
G01X2837434Y2884170D01*
G01X2880614Y2884170D01*
G01X2543302Y4615180D02*
G01X2540254Y4621530D01*
G01X2533904Y4627626D01*
G01X2527808Y4630674D01*
G01X2515362Y4630674D01*
G01X2509266Y4627626D01*
G01X2502916Y4621530D01*
G01X2499868Y4615180D01*
G01X2496820Y4606036D01*
G01X2496820Y4590542D01*
G01X2499868Y4581144D01*
G01X2502916Y4575048D01*
G01X2509266Y4568698D01*
G01X2515362Y4565650D01*
G01X2527808Y4565650D01*
G01X2533904Y4568698D01*
G01X2540254Y4575048D01*
G01X2543302Y4581144D01*
G01X2573528Y4618228D02*
G01X2579624Y4621530D01*
G01X2588768Y4630674D01*
G01X2588768Y4565650D01*
G01X2625090Y4630674D02*
G01X2659126Y4630674D01*
G01X2640584Y4606036D01*
G01X2649728Y4606036D01*
G01X2656078Y4602988D01*
G01X2659126Y4599686D01*
G01X2662174Y4590542D01*
G01X2662174Y4584192D01*
G01X2659126Y4575048D01*
G01X2653030Y4568698D01*
G01X2643632Y4565650D01*
G01X2634234Y4565650D01*
G01X2625090Y4568698D01*
G01X2622042Y4572000D01*
G01X2618994Y4578096D01*
G01X2766822Y4620260D02*
G01X2763774Y4626610D01*
G01X2757424Y4632706D01*
G01X2751328Y4635754D01*
G01X2738882Y4635754D01*
G01X2732786Y4632706D01*
G01X2726436Y4626610D01*
G01X2723388Y4620260D01*
G01X2720340Y4611116D01*
G01X2720340Y4595622D01*
G01X2723388Y4586224D01*
G01X2726436Y4580128D01*
G01X2732786Y4573778D01*
G01X2738882Y4570730D01*
G01X2751328Y4570730D01*
G01X2757424Y4573778D01*
G01X2763774Y4580128D01*
G01X2766822Y4586224D01*
G01X2797048Y4623308D02*
G01X2803144Y4626610D01*
G01X2812288Y4635754D01*
G01X2812288Y4570730D01*
G01X2873248Y4635754D02*
G01X2842514Y4592574D01*
G01X2888742Y4592574D01*
G01X2873248Y4635754D02*
G01X2873248Y4570730D01*
G01X1857502Y6062980D02*
G01X1854454Y6069330D01*
G01X1848104Y6075426D01*
G01X1842008Y6078474D01*
G01X1829562Y6078474D01*
G01X1823466Y6075426D01*
G01X1817116Y6069330D01*
G01X1814068Y6062980D01*
G01X1811020Y6053836D01*
G01X1811020Y6038342D01*
G01X1814068Y6028944D01*
G01X1817116Y6022848D01*
G01X1823466Y6016498D01*
G01X1829562Y6013450D01*
G01X1842008Y6013450D01*
G01X1848104Y6016498D01*
G01X1854454Y6022848D01*
G01X1857502Y6028944D01*
G01X1887728Y6066028D02*
G01X1893824Y6069330D01*
G01X1902968Y6078474D01*
G01X1902968Y6013450D01*
G01X1970278Y6078474D02*
G01X1939290Y6078474D01*
G01X1936242Y6050788D01*
G01X1939290Y6053836D01*
G01X1948434Y6056884D01*
G01X1957832Y6056884D01*
G01X1967230Y6053836D01*
G01X1973326Y6047486D01*
G01X1976374Y6038342D01*
G01X1976374Y6031992D01*
G01X1973326Y6022848D01*
G01X1967230Y6016498D01*
G01X1957832Y6013450D01*
G01X1948434Y6013450D01*
G01X1939290Y6016498D01*
G01X1936242Y6019800D01*
G01X1933194Y6025896D01*
G01X1654302Y6068060D02*
G01X1651254Y6074410D01*
G01X1644904Y6080506D01*
G01X1638808Y6083554D01*
G01X1626362Y6083554D01*
G01X1620266Y6080506D01*
G01X1613916Y6074410D01*
G01X1610868Y6068060D01*
G01X1607820Y6058916D01*
G01X1607820Y6043422D01*
G01X1610868Y6034024D01*
G01X1613916Y6027928D01*
G01X1620266Y6021578D01*
G01X1626362Y6018530D01*
G01X1638808Y6018530D01*
G01X1644904Y6021578D01*
G01X1651254Y6027928D01*
G01X1654302Y6034024D01*
G01X1684528Y6071108D02*
G01X1690624Y6074410D01*
G01X1699768Y6083554D01*
G01X1699768Y6018530D01*
G01X1767078Y6074410D02*
G01X1764030Y6080506D01*
G01X1754632Y6083554D01*
G01X1748536Y6083554D01*
G01X1739138Y6080506D01*
G01X1733042Y6071108D01*
G01X1729994Y6055868D01*
G01X1729994Y6040374D01*
G01X1733042Y6027928D01*
G01X1739138Y6021578D01*
G01X1748536Y6018530D01*
G01X1751584Y6018530D01*
G01X1760728Y6021578D01*
G01X1767078Y6027928D01*
G01X1770126Y6037072D01*
G01X1770126Y6040374D01*
G01X1767078Y6049518D01*
G01X1760728Y6055868D01*
G01X1751584Y6058916D01*
G01X1748536Y6058916D01*
G01X1739138Y6055868D01*
G01X1733042Y6049518D01*
G01X1729994Y6040374D01*
G01X2304542Y6057900D02*
G01X2301494Y6064250D01*
G01X2295144Y6070346D01*
G01X2289048Y6073394D01*
G01X2276602Y6073394D01*
G01X2270506Y6070346D01*
G01X2264156Y6064250D01*
G01X2261108Y6057900D01*
G01X2258060Y6048756D01*
G01X2258060Y6033262D01*
G01X2261108Y6023864D01*
G01X2264156Y6017768D01*
G01X2270506Y6011418D01*
G01X2276602Y6008370D01*
G01X2289048Y6008370D01*
G01X2295144Y6011418D01*
G01X2301494Y6017768D01*
G01X2304542Y6023864D01*
G01X2334768Y6060948D02*
G01X2340864Y6064250D01*
G01X2350008Y6073394D01*
G01X2350008Y6008370D01*
G01X2423414Y6073394D02*
G01X2392426Y6008370D01*
G01X2380234Y6073394D02*
G01X2423414Y6073394D01*
G01X2477262Y6057900D02*
G01X2474214Y6064250D01*
G01X2467864Y6070346D01*
G01X2461768Y6073394D01*
G01X2449322Y6073394D01*
G01X2443226Y6070346D01*
G01X2436876Y6064250D01*
G01X2433828Y6057900D01*
G01X2430780Y6048756D01*
G01X2430780Y6033262D01*
G01X2433828Y6023864D01*
G01X2436876Y6017768D01*
G01X2443226Y6011418D01*
G01X2449322Y6008370D01*
G01X2461768Y6008370D01*
G01X2467864Y6011418D01*
G01X2474214Y6017768D01*
G01X2477262Y6023864D01*
G01X2507488Y6060948D02*
G01X2513584Y6064250D01*
G01X2522728Y6073394D01*
G01X2522728Y6008370D01*
G01X2568194Y6073394D02*
G01X2559050Y6070346D01*
G01X2556002Y6064250D01*
G01X2556002Y6057900D01*
G01X2559050Y6051804D01*
G01X2565146Y6048756D01*
G01X2577592Y6045708D01*
G01X2586990Y6042406D01*
G01X2593086Y6036310D01*
G01X2596134Y6030214D01*
G01X2596134Y6020816D01*
G01X2593086Y6014720D01*
G01X2590038Y6011418D01*
G01X2580640Y6008370D01*
G01X2568194Y6008370D01*
G01X2559050Y6011418D01*
G01X2556002Y6014720D01*
G01X2552954Y6020816D01*
G01X2552954Y6030214D01*
G01X2556002Y6036310D01*
G01X2562098Y6042406D01*
G01X2571496Y6045708D01*
G01X2583688Y6048756D01*
G01X2590038Y6051804D01*
G01X2593086Y6057900D01*
G01X2593086Y6064250D01*
G01X2590038Y6070346D01*
G01X2580640Y6073394D01*
G01X2568194Y6073394D01*
G01X1852422Y4879340D02*
G01X1849374Y4885690D01*
G01X1843024Y4891786D01*
G01X1836928Y4894834D01*
G01X1824482Y4894834D01*
G01X1818386Y4891786D01*
G01X1812036Y4885690D01*
G01X1808988Y4879340D01*
G01X1805940Y4870196D01*
G01X1805940Y4854702D01*
G01X1808988Y4845304D01*
G01X1812036Y4839208D01*
G01X1818386Y4832858D01*
G01X1824482Y4829810D01*
G01X1836928Y4829810D01*
G01X1843024Y4832858D01*
G01X1849374Y4839208D01*
G01X1852422Y4845304D01*
G01X1882648Y4882388D02*
G01X1888744Y4885690D01*
G01X1897888Y4894834D01*
G01X1897888Y4829810D01*
G01X1968246Y4873244D02*
G01X1965198Y4863846D01*
G01X1958848Y4857750D01*
G01X1949704Y4854702D01*
G01X1946656Y4854702D01*
G01X1937258Y4857750D01*
G01X1931162Y4863846D01*
G01X1928114Y4873244D01*
G01X1928114Y4876292D01*
G01X1931162Y4885690D01*
G01X1937258Y4891786D01*
G01X1946656Y4894834D01*
G01X1949704Y4894834D01*
G01X1958848Y4891786D01*
G01X1965198Y4885690D01*
G01X1968246Y4873244D01*
G01X1968246Y4857750D01*
G01X1965198Y4842256D01*
G01X1958848Y4832858D01*
G01X1949704Y4829810D01*
G01X1943354Y4829810D01*
G01X1934210Y4832858D01*
G01X1931162Y4839208D01*
G01X2741422Y5748020D02*
G01X2738374Y5754370D01*
G01X2732024Y5760466D01*
G01X2725928Y5763514D01*
G01X2713482Y5763514D01*
G01X2707386Y5760466D01*
G01X2701036Y5754370D01*
G01X2697988Y5748020D01*
G01X2694940Y5738876D01*
G01X2694940Y5723382D01*
G01X2697988Y5713984D01*
G01X2701036Y5707888D01*
G01X2707386Y5701538D01*
G01X2713482Y5698490D01*
G01X2725928Y5698490D01*
G01X2732024Y5701538D01*
G01X2738374Y5707888D01*
G01X2741422Y5713984D01*
G01X2774696Y5748020D02*
G01X2774696Y5751068D01*
G01X2777744Y5757418D01*
G01X2780792Y5760466D01*
G01X2786888Y5763514D01*
G01X2799334Y5763514D01*
G01X2805684Y5760466D01*
G01X2808732Y5757418D01*
G01X2811780Y5751068D01*
G01X2811780Y5744972D01*
G01X2808732Y5738876D01*
G01X2802382Y5729478D01*
G01X2771648Y5698490D01*
G01X2814828Y5698490D01*
G01X2863596Y5763514D02*
G01X2854198Y5760466D01*
G01X2848102Y5751068D01*
G01X2845054Y5735828D01*
G01X2845054Y5726430D01*
G01X2848102Y5710936D01*
G01X2854198Y5701538D01*
G01X2863596Y5698490D01*
G01X2869692Y5698490D01*
G01X2879090Y5701538D01*
G01X2885186Y5710936D01*
G01X2888234Y5726430D01*
G01X2888234Y5735828D01*
G01X2885186Y5751068D01*
G01X2879090Y5760466D01*
G01X2869692Y5763514D01*
G01X2863596Y5763514D01*
G01X2939542Y5046980D02*
G01X2936494Y5053330D01*
G01X2930144Y5059426D01*
G01X2924048Y5062474D01*
G01X2911602Y5062474D01*
G01X2905506Y5059426D01*
G01X2899156Y5053330D01*
G01X2896108Y5046980D01*
G01X2893060Y5037836D01*
G01X2893060Y5022342D01*
G01X2896108Y5012944D01*
G01X2899156Y5006848D01*
G01X2905506Y5000498D01*
G01X2911602Y4997450D01*
G01X2924048Y4997450D01*
G01X2930144Y5000498D01*
G01X2936494Y5006848D01*
G01X2939542Y5012944D01*
G01X2972816Y5046980D02*
G01X2972816Y5050028D01*
G01X2975864Y5056378D01*
G01X2978912Y5059426D01*
G01X2985008Y5062474D01*
G01X2997454Y5062474D01*
G01X3003804Y5059426D01*
G01X3006852Y5056378D01*
G01X3009900Y5050028D01*
G01X3009900Y5043932D01*
G01X3006852Y5037836D01*
G01X3000502Y5028438D01*
G01X2969768Y4997450D01*
G01X3012948Y4997450D01*
G01X3043174Y5050028D02*
G01X3049270Y5053330D01*
G01X3058414Y5062474D01*
G01X3058414Y4997450D01*
G01X1552702Y703580D02*
G01X1549654Y709930D01*
G01X1543304Y716026D01*
G01X1537208Y719074D01*
G01X1524762Y719074D01*
G01X1518666Y716026D01*
G01X1512316Y709930D01*
G01X1509268Y703580D01*
G01X1506220Y694436D01*
G01X1506220Y678942D01*
G01X1509268Y669544D01*
G01X1512316Y663448D01*
G01X1518666Y657098D01*
G01X1524762Y654050D01*
G01X1537208Y654050D01*
G01X1543304Y657098D01*
G01X1549654Y663448D01*
G01X1552702Y669544D01*
G01X1585976Y703580D02*
G01X1585976Y706628D01*
G01X1589024Y712978D01*
G01X1592072Y716026D01*
G01X1598168Y719074D01*
G01X1610614Y719074D01*
G01X1616964Y716026D01*
G01X1620012Y712978D01*
G01X1623060Y706628D01*
G01X1623060Y700532D01*
G01X1620012Y694436D01*
G01X1613662Y685038D01*
G01X1582928Y654050D01*
G01X1626108Y654050D01*
G01X1659382Y703580D02*
G01X1659382Y706628D01*
G01X1662430Y712978D01*
G01X1665478Y716026D01*
G01X1671574Y719074D01*
G01X1684020Y719074D01*
G01X1690370Y716026D01*
G01X1693418Y712978D01*
G01X1696466Y706628D01*
G01X1696466Y700532D01*
G01X1693418Y694436D01*
G01X1687068Y685038D01*
G01X1656334Y654050D01*
G01X1699514Y654050D01*
G01X1542542Y500380D02*
G01X1539494Y506730D01*
G01X1533144Y512826D01*
G01X1527048Y515874D01*
G01X1514602Y515874D01*
G01X1508506Y512826D01*
G01X1502156Y506730D01*
G01X1499108Y500380D01*
G01X1496060Y491236D01*
G01X1496060Y475742D01*
G01X1499108Y466344D01*
G01X1502156Y460248D01*
G01X1508506Y453898D01*
G01X1514602Y450850D01*
G01X1527048Y450850D01*
G01X1533144Y453898D01*
G01X1539494Y460248D01*
G01X1542542Y466344D01*
G01X1575816Y500380D02*
G01X1575816Y503428D01*
G01X1578864Y509778D01*
G01X1581912Y512826D01*
G01X1588008Y515874D01*
G01X1600454Y515874D01*
G01X1606804Y512826D01*
G01X1609852Y509778D01*
G01X1612900Y503428D01*
G01X1612900Y497332D01*
G01X1609852Y491236D01*
G01X1603502Y481838D01*
G01X1572768Y450850D01*
G01X1615948Y450850D01*
G01X1652270Y515874D02*
G01X1686306Y515874D01*
G01X1667764Y491236D01*
G01X1676908Y491236D01*
G01X1683258Y488188D01*
G01X1686306Y484886D01*
G01X1689354Y475742D01*
G01X1689354Y469392D01*
G01X1686306Y460248D01*
G01X1680210Y453898D01*
G01X1670812Y450850D01*
G01X1661414Y450850D01*
G01X1652270Y453898D01*
G01X1649222Y457200D01*
G01X1646174Y463296D01*
G01X1547622Y312420D02*
G01X1544574Y318770D01*
G01X1538224Y324866D01*
G01X1532128Y327914D01*
G01X1519682Y327914D01*
G01X1513586Y324866D01*
G01X1507236Y318770D01*
G01X1504188Y312420D01*
G01X1501140Y303276D01*
G01X1501140Y287782D01*
G01X1504188Y278384D01*
G01X1507236Y272288D01*
G01X1513586Y265938D01*
G01X1519682Y262890D01*
G01X1532128Y262890D01*
G01X1538224Y265938D01*
G01X1544574Y272288D01*
G01X1547622Y278384D01*
G01X1580896Y312420D02*
G01X1580896Y315468D01*
G01X1583944Y321818D01*
G01X1586992Y324866D01*
G01X1593088Y327914D01*
G01X1605534Y327914D01*
G01X1611884Y324866D01*
G01X1614932Y321818D01*
G01X1617980Y315468D01*
G01X1617980Y309372D01*
G01X1614932Y303276D01*
G01X1608582Y293878D01*
G01X1577848Y262890D01*
G01X1621028Y262890D01*
G01X1681988Y327914D02*
G01X1651254Y284734D01*
G01X1697482Y284734D01*
G01X1681988Y327914D02*
G01X1681988Y262890D01*
G01X4087622Y4681220D02*
G01X4084574Y4687570D01*
G01X4078224Y4693666D01*
G01X4072128Y4696714D01*
G01X4059682Y4696714D01*
G01X4053586Y4693666D01*
G01X4047236Y4687570D01*
G01X4044188Y4681220D01*
G01X4041140Y4672076D01*
G01X4041140Y4656582D01*
G01X4044188Y4647184D01*
G01X4047236Y4641088D01*
G01X4053586Y4634738D01*
G01X4059682Y4631690D01*
G01X4072128Y4631690D01*
G01X4078224Y4634738D01*
G01X4084574Y4641088D01*
G01X4087622Y4647184D01*
G01X4117848Y4696714D02*
G01X4117848Y4631690D01*
G01X4117848Y4696714D02*
G01X4161028Y4631690D01*
G01X4161028Y4696714D02*
G01X4161028Y4631690D01*
G01X4191254Y4684268D02*
G01X4197350Y4687570D01*
G01X4206494Y4696714D01*
G01X4206494Y4631690D01*
G01X4067302Y2212340D02*
G01X4064254Y2218690D01*
G01X4057904Y2224786D01*
G01X4051808Y2227834D01*
G01X4039362Y2227834D01*
G01X4033266Y2224786D01*
G01X4026916Y2218690D01*
G01X4023868Y2212340D01*
G01X4020820Y2203196D01*
G01X4020820Y2187702D01*
G01X4023868Y2178304D01*
G01X4026916Y2172208D01*
G01X4033266Y2165858D01*
G01X4039362Y2162810D01*
G01X4051808Y2162810D01*
G01X4057904Y2165858D01*
G01X4064254Y2172208D01*
G01X4067302Y2178304D01*
G01X4097528Y2227834D02*
G01X4097528Y2162810D01*
G01X4097528Y2227834D02*
G01X4140708Y2162810D01*
G01X4140708Y2227834D02*
G01X4140708Y2162810D01*
G01X4173982Y2212340D02*
G01X4173982Y2215388D01*
G01X4177030Y2221738D01*
G01X4180078Y2224786D01*
G01X4186174Y2227834D01*
G01X4198620Y2227834D01*
G01X4204970Y2224786D01*
G01X4208018Y2221738D01*
G01X4211066Y2215388D01*
G01X4211066Y2209292D01*
G01X4208018Y2203196D01*
G01X4201668Y2193798D01*
G01X4170934Y2162810D01*
G01X4214114Y2162810D01*
G01X769528Y5637219D02*
G01X722386Y5592434D01*
G01X769528Y5637219D02*
G01X797169Y5608123D01*
G01X747062Y5615876D02*
G01X764206Y5597829D01*
G01X817987Y5586210D02*
G01X770845Y5541424D01*
G01X817987Y5586210D02*
G01X837056Y5566137D01*
G01X841319Y5557224D01*
G01X841208Y5552915D01*
G01X838704Y5546332D01*
G01X832074Y5540034D01*
G01X825555Y5538045D01*
G01X821062Y5537981D01*
G01X812380Y5542695D01*
G01X793311Y5562767D01*
G01X889152Y5488804D02*
G01X891656Y5495387D01*
G01X891877Y5504005D01*
G01X889713Y5510708D01*
G01X881316Y5519547D01*
G01X874733Y5522052D01*
G01X866114Y5522273D01*
G01X859411Y5520109D01*
G01X850683Y5516021D01*
G01X839450Y5505349D01*
G01X834735Y5496667D01*
G01X832415Y5490258D01*
G01X832010Y5481465D01*
G01X834174Y5474762D01*
G01X842571Y5465923D01*
G01X849154Y5463418D01*
G01X857957Y5463372D01*
G01X864476Y5465361D01*
G01X912180Y5468989D02*
G01X918772Y5466844D01*
G01X931699Y5466512D01*
G01X884557Y5421727D01*
G01X38529Y1505528D02*
G01X85671Y1460743D01*
G01X38529Y1505528D02*
G01X66170Y1534624D01*
G01X60995Y1484185D02*
G01X78139Y1502232D01*
G01X86988Y1556538D02*
G01X134130Y1511752D01*
G01X86988Y1556538D02*
G01X106056Y1576610D01*
G01X114739Y1581324D01*
G01X119048Y1581435D01*
G01X125751Y1579271D01*
G01X132381Y1572973D01*
G01X134701Y1566565D01*
G01X134996Y1562081D01*
G01X130733Y1553168D01*
G01X111664Y1533095D01*
G01X180619Y1632601D02*
G01X173916Y1634764D01*
G01X165297Y1634544D01*
G01X158714Y1632039D01*
G01X150317Y1623200D01*
G01X148153Y1616497D01*
G01X148374Y1607879D01*
G01X150879Y1601295D01*
G01X155409Y1592788D01*
G01X166642Y1582116D01*
G01X175555Y1577853D01*
G01X182073Y1575864D01*
G01X190876Y1575910D01*
G01X197459Y1578415D01*
G01X205856Y1587254D01*
G01X208020Y1593957D01*
G01X207615Y1602750D01*
G01X205295Y1609158D01*
G01X203536Y1656724D02*
G01X201326Y1658824D01*
G01X198822Y1665407D01*
G01X198711Y1669716D01*
G01X200700Y1676235D01*
G01X209272Y1685258D01*
G01X215856Y1687763D01*
G01X220165Y1687873D01*
G01X226868Y1685710D01*
G01X231288Y1681511D01*
G01X233608Y1675103D01*
G01X236048Y1664026D01*
G01X237346Y1620401D01*
G01X267086Y1651706D01*
G01X4595289Y4789748D02*
G01X4642431Y4744963D01*
G01X4595289Y4789748D02*
G01X4622930Y4818844D01*
G01X4617755Y4768405D02*
G01X4634899Y4786452D01*
G01X4643748Y4840758D02*
G01X4690890Y4795972D01*
G01X4643748Y4840758D02*
G01X4662816Y4860830D01*
G01X4671499Y4865544D01*
G01X4675808Y4865655D01*
G01X4682511Y4863491D01*
G01X4689141Y4857193D01*
G01X4691461Y4850785D01*
G01X4691756Y4846301D01*
G01X4687493Y4837388D01*
G01X4668424Y4817315D01*
G01X4737379Y4916821D02*
G01X4730676Y4918984D01*
G01X4722057Y4918764D01*
G01X4715474Y4916259D01*
G01X4707077Y4907420D01*
G01X4704913Y4900717D01*
G01X4705134Y4892099D01*
G01X4707639Y4885515D01*
G01X4712169Y4877008D01*
G01X4723402Y4866336D01*
G01X4732315Y4862073D01*
G01X4738833Y4860084D01*
G01X4747636Y4860130D01*
G01X4754219Y4862635D01*
G01X4762616Y4871474D01*
G01X4764780Y4878177D01*
G01X4764375Y4886970D01*
G01X4762055Y4893378D01*
G01X4751162Y4953826D02*
G01X4774605Y4978502D01*
G01X4779696Y4948089D01*
G01X4785994Y4954719D01*
G01X4792578Y4957223D01*
G01X4797071Y4957159D01*
G01X4805800Y4953071D01*
G01X4810403Y4948697D01*
G01X4814933Y4940189D01*
G01X4815339Y4931396D01*
G01X4811075Y4922483D01*
G01X4804603Y4915670D01*
G01X4796095Y4911140D01*
G01X4791602Y4911204D01*
G01X4785083Y4913193D01*
G01X3883568Y1039819D02*
G01X3836426Y995034D01*
G01X3883568Y1039819D02*
G01X3911209Y1010723D01*
G01X3861102Y1018476D02*
G01X3878246Y1000429D01*
G01X3932027Y988810D02*
G01X3884885Y944024D01*
G01X3932027Y988810D02*
G01X3951096Y968737D01*
G01X3955359Y959824D01*
G01X3955248Y955515D01*
G01X3952744Y948932D01*
G01X3946114Y942634D01*
G01X3939595Y940645D01*
G01X3935102Y940581D01*
G01X3926420Y945295D01*
G01X3907351Y965367D01*
G01X4003192Y891404D02*
G01X4005696Y897987D01*
G01X4005917Y906605D01*
G01X4003753Y913308D01*
G01X3995356Y922147D01*
G01X3988773Y924652D01*
G01X3980154Y924873D01*
G01X3973451Y922709D01*
G01X3964723Y918621D01*
G01X3953490Y907949D01*
G01X3948775Y899267D01*
G01X3946455Y892858D01*
G01X3946050Y884065D01*
G01X3948214Y877362D01*
G01X3956611Y868523D01*
G01X3963194Y866018D01*
G01X3971997Y865972D01*
G01X3978516Y867961D01*
G01X4056411Y857879D02*
G01X4003937Y850421D01*
G01X4035777Y816906D01*
G01X4056411Y857879D02*
G01X4009269Y813094D01*
G01X2004060Y5910834D02*
G01X2004060Y5845810D01*
G01X2004060Y5845810D02*
G01X2041144Y5845810D01*
G01X2071370Y5898388D02*
G01X2077466Y5901690D01*
G01X2086610Y5910834D01*
G01X2086610Y5845810D01*
G01X1847850Y5633974D02*
G01X1847850Y5568950D01*
G01X1847850Y5568950D02*
G01X1884934Y5568950D01*
G01X1918208Y5618480D02*
G01X1918208Y5621528D01*
G01X1921256Y5627878D01*
G01X1924304Y5630926D01*
G01X1930400Y5633974D01*
G01X1942846Y5633974D01*
G01X1949196Y5630926D01*
G01X1952244Y5627878D01*
G01X1955292Y5621528D01*
G01X1955292Y5615432D01*
G01X1952244Y5609336D01*
G01X1945894Y5599938D01*
G01X1915160Y5568950D01*
G01X1958340Y5568950D01*
G01X2598420Y5646674D02*
G01X2598420Y5581650D01*
G01X2598420Y5581650D02*
G01X2635504Y5581650D01*
G01X2671826Y5646674D02*
G01X2705862Y5646674D01*
G01X2687320Y5622036D01*
G01X2696464Y5622036D01*
G01X2702814Y5618988D01*
G01X2705862Y5615686D01*
G01X2708910Y5606542D01*
G01X2708910Y5600192D01*
G01X2705862Y5591048D01*
G01X2699766Y5584698D01*
G01X2690368Y5581650D01*
G01X2680970Y5581650D01*
G01X2671826Y5584698D01*
G01X2668778Y5588000D01*
G01X2665730Y5594096D01*
G01X1232611Y5711774D02*
G01X1232611Y5646750D01*
G01X1232611Y5646750D02*
G01X1269695Y5646750D01*
G01X1299921Y5711774D02*
G01X1299921Y5646750D01*
G01X1299921Y5711774D02*
G01X1340053Y5711774D01*
G01X1299921Y5680786D02*
G01X1324559Y5680786D01*
G01X1299921Y5646750D02*
G01X1340053Y5646750D01*
G01X1370279Y5711774D02*
G01X1370279Y5646750D01*
G01X1370279Y5711774D02*
G01X1391869Y5711774D01*
G01X1401013Y5708726D01*
G01X1407363Y5702630D01*
G01X1410411Y5696280D01*
G01X1413459Y5687136D01*
G01X1413459Y5671642D01*
G01X1410411Y5662244D01*
G01X1407363Y5656148D01*
G01X1401013Y5649798D01*
G01X1391869Y5646750D01*
G01X1370279Y5646750D01*
G01X1443685Y5699328D02*
G01X1449781Y5702630D01*
G01X1458925Y5711774D01*
G01X1458925Y5646750D01*
G01X3426460Y5834634D02*
G01X3426460Y5769610D01*
G01X3426460Y5769610D02*
G01X3463544Y5769610D01*
G01X3493770Y5834634D02*
G01X3493770Y5769610D01*
G01X3493770Y5834634D02*
G01X3533902Y5834634D01*
G01X3493770Y5803646D02*
G01X3518408Y5803646D01*
G01X3493770Y5769610D02*
G01X3533902Y5769610D01*
G01X3564128Y5834634D02*
G01X3564128Y5769610D01*
G01X3564128Y5834634D02*
G01X3585718Y5834634D01*
G01X3594862Y5831586D01*
G01X3601212Y5825490D01*
G01X3604260Y5819140D01*
G01X3607308Y5809996D01*
G01X3607308Y5794502D01*
G01X3604260Y5785104D01*
G01X3601212Y5779008D01*
G01X3594862Y5772658D01*
G01X3585718Y5769610D01*
G01X3564128Y5769610D01*
G01X3640582Y5819140D02*
G01X3640582Y5822188D01*
G01X3643630Y5828538D01*
G01X3646678Y5831586D01*
G01X3652774Y5834634D01*
G01X3665220Y5834634D01*
G01X3671570Y5831586D01*
G01X3674618Y5828538D01*
G01X3677666Y5822188D01*
G01X3677666Y5816092D01*
G01X3674618Y5809996D01*
G01X3668268Y5800598D01*
G01X3637534Y5769610D01*
G01X3680714Y5769610D01*
G01X3172460Y1140714D02*
G01X3172460Y1075690D01*
G01X3172460Y1075690D02*
G01X3209544Y1075690D01*
G01X3239770Y1140714D02*
G01X3239770Y1075690D01*
G01X3239770Y1140714D02*
G01X3279902Y1140714D01*
G01X3239770Y1109726D02*
G01X3264408Y1109726D01*
G01X3239770Y1075690D02*
G01X3279902Y1075690D01*
G01X3310128Y1140714D02*
G01X3310128Y1075690D01*
G01X3310128Y1140714D02*
G01X3331718Y1140714D01*
G01X3340862Y1137666D01*
G01X3347212Y1131570D01*
G01X3350260Y1125220D01*
G01X3353308Y1116076D01*
G01X3353308Y1100582D01*
G01X3350260Y1091184D01*
G01X3347212Y1085088D01*
G01X3340862Y1078738D01*
G01X3331718Y1075690D01*
G01X3310128Y1075690D01*
G01X3389630Y1140714D02*
G01X3423666Y1140714D01*
G01X3405124Y1116076D01*
G01X3414268Y1116076D01*
G01X3420618Y1113028D01*
G01X3423666Y1109726D01*
G01X3426714Y1100582D01*
G01X3426714Y1094232D01*
G01X3423666Y1085088D01*
G01X3417570Y1078738D01*
G01X3408172Y1075690D01*
G01X3398774Y1075690D01*
G01X3389630Y1078738D01*
G01X3386582Y1082040D01*
G01X3383534Y1088136D01*
G01X1267460Y886714D02*
G01X1267460Y821690D01*
G01X1267460Y821690D02*
G01X1304544Y821690D01*
G01X1334770Y886714D02*
G01X1334770Y821690D01*
G01X1334770Y886714D02*
G01X1374902Y886714D01*
G01X1334770Y855726D02*
G01X1359408Y855726D01*
G01X1334770Y821690D02*
G01X1374902Y821690D01*
G01X1405128Y886714D02*
G01X1405128Y821690D01*
G01X1405128Y886714D02*
G01X1426718Y886714D01*
G01X1435862Y883666D01*
G01X1442212Y877570D01*
G01X1445260Y871220D01*
G01X1448308Y862076D01*
G01X1448308Y846582D01*
G01X1445260Y837184D01*
G01X1442212Y831088D01*
G01X1435862Y824738D01*
G01X1426718Y821690D01*
G01X1405128Y821690D01*
G01X1509268Y886714D02*
G01X1478534Y843534D01*
G01X1524762Y843534D01*
G01X1509268Y886714D02*
G01X1509268Y821690D01*
G01X3370580Y3746754D02*
G01X3370580Y3681730D01*
G01X3370580Y3681730D02*
G01X3407664Y3681730D01*
G01X3437890Y3746754D02*
G01X3437890Y3681730D01*
G01X3437890Y3746754D02*
G01X3478022Y3746754D01*
G01X3437890Y3715766D02*
G01X3462528Y3715766D01*
G01X3437890Y3681730D02*
G01X3478022Y3681730D01*
G01X3508248Y3746754D02*
G01X3508248Y3681730D01*
G01X3508248Y3746754D02*
G01X3529838Y3746754D01*
G01X3538982Y3743706D01*
G01X3545332Y3737610D01*
G01X3548380Y3731260D01*
G01X3551428Y3722116D01*
G01X3551428Y3706622D01*
G01X3548380Y3697224D01*
G01X3545332Y3691128D01*
G01X3538982Y3684778D01*
G01X3529838Y3681730D01*
G01X3508248Y3681730D01*
G01X3618738Y3746754D02*
G01X3587750Y3746754D01*
G01X3584702Y3719068D01*
G01X3587750Y3722116D01*
G01X3596894Y3725164D01*
G01X3606292Y3725164D01*
G01X3615690Y3722116D01*
G01X3621786Y3715766D01*
G01X3624834Y3706622D01*
G01X3624834Y3700272D01*
G01X3621786Y3691128D01*
G01X3615690Y3684778D01*
G01X3606292Y3681730D01*
G01X3596894Y3681730D01*
G01X3587750Y3684778D01*
G01X3584702Y3688080D01*
G01X3581654Y3694176D01*
G01X3375660Y3507994D02*
G01X3375660Y3442970D01*
G01X3375660Y3442970D02*
G01X3412744Y3442970D01*
G01X3442970Y3507994D02*
G01X3442970Y3442970D01*
G01X3442970Y3507994D02*
G01X3483102Y3507994D01*
G01X3442970Y3477006D02*
G01X3467608Y3477006D01*
G01X3442970Y3442970D02*
G01X3483102Y3442970D01*
G01X3513328Y3507994D02*
G01X3513328Y3442970D01*
G01X3513328Y3507994D02*
G01X3534918Y3507994D01*
G01X3544062Y3504946D01*
G01X3550412Y3498850D01*
G01X3553460Y3492500D01*
G01X3556508Y3483356D01*
G01X3556508Y3467862D01*
G01X3553460Y3458464D01*
G01X3550412Y3452368D01*
G01X3544062Y3446018D01*
G01X3534918Y3442970D01*
G01X3513328Y3442970D01*
G01X3623818Y3498850D02*
G01X3620770Y3504946D01*
G01X3611372Y3507994D01*
G01X3605276Y3507994D01*
G01X3595878Y3504946D01*
G01X3589782Y3495548D01*
G01X3586734Y3480308D01*
G01X3586734Y3464814D01*
G01X3589782Y3452368D01*
G01X3595878Y3446018D01*
G01X3605276Y3442970D01*
G01X3608324Y3442970D01*
G01X3617468Y3446018D01*
G01X3623818Y3452368D01*
G01X3626866Y3461512D01*
G01X3626866Y3464814D01*
G01X3623818Y3473958D01*
G01X3617468Y3480308D01*
G01X3608324Y3483356D01*
G01X3605276Y3483356D01*
G01X3595878Y3480308D01*
G01X3589782Y3473958D01*
G01X3586734Y3464814D01*
G01X3385820Y3248914D02*
G01X3385820Y3183890D01*
G01X3385820Y3183890D02*
G01X3422904Y3183890D01*
G01X3453130Y3248914D02*
G01X3453130Y3183890D01*
G01X3453130Y3248914D02*
G01X3493262Y3248914D01*
G01X3453130Y3217926D02*
G01X3477768Y3217926D01*
G01X3453130Y3183890D02*
G01X3493262Y3183890D01*
G01X3523488Y3248914D02*
G01X3523488Y3183890D01*
G01X3523488Y3248914D02*
G01X3545078Y3248914D01*
G01X3554222Y3245866D01*
G01X3560572Y3239770D01*
G01X3563620Y3233420D01*
G01X3566668Y3224276D01*
G01X3566668Y3208782D01*
G01X3563620Y3199384D01*
G01X3560572Y3193288D01*
G01X3554222Y3186938D01*
G01X3545078Y3183890D01*
G01X3523488Y3183890D01*
G01X3640074Y3248914D02*
G01X3609086Y3183890D01*
G01X3596894Y3248914D02*
G01X3640074Y3248914D01*
G01X3385820Y3015234D02*
G01X3385820Y2950210D01*
G01X3385820Y2950210D02*
G01X3422904Y2950210D01*
G01X3453130Y3015234D02*
G01X3453130Y2950210D01*
G01X3453130Y3015234D02*
G01X3493262Y3015234D01*
G01X3453130Y2984246D02*
G01X3477768Y2984246D01*
G01X3453130Y2950210D02*
G01X3493262Y2950210D01*
G01X3523488Y3015234D02*
G01X3523488Y2950210D01*
G01X3523488Y3015234D02*
G01X3545078Y3015234D01*
G01X3554222Y3012186D01*
G01X3560572Y3006090D01*
G01X3563620Y2999740D01*
G01X3566668Y2990596D01*
G01X3566668Y2975102D01*
G01X3563620Y2965704D01*
G01X3560572Y2959608D01*
G01X3554222Y2953258D01*
G01X3545078Y2950210D01*
G01X3523488Y2950210D01*
G01X3612134Y3015234D02*
G01X3602990Y3012186D01*
G01X3599942Y3006090D01*
G01X3599942Y2999740D01*
G01X3602990Y2993644D01*
G01X3609086Y2990596D01*
G01X3621532Y2987548D01*
G01X3630930Y2984246D01*
G01X3637026Y2978150D01*
G01X3640074Y2972054D01*
G01X3640074Y2962656D01*
G01X3637026Y2956560D01*
G01X3633978Y2953258D01*
G01X3624580Y2950210D01*
G01X3612134Y2950210D01*
G01X3602990Y2953258D01*
G01X3599942Y2956560D01*
G01X3596894Y2962656D01*
G01X3596894Y2972054D01*
G01X3599942Y2978150D01*
G01X3606038Y2984246D01*
G01X3615436Y2987548D01*
G01X3627628Y2990596D01*
G01X3633978Y2993644D01*
G01X3637026Y2999740D01*
G01X3637026Y3006090D01*
G01X3633978Y3012186D01*
G01X3624580Y3015234D01*
G01X3612134Y3015234D01*
G01X971042Y5382514D02*
G01X964946Y5379466D01*
G01X958596Y5373370D01*
G01X955548Y5367020D01*
G01X952500Y5357876D01*
G01X952500Y5342382D01*
G01X955548Y5332984D01*
G01X958596Y5326888D01*
G01X964946Y5320538D01*
G01X971042Y5317490D01*
G01X983488Y5317490D01*
G01X989584Y5320538D01*
G01X995934Y5326888D01*
G01X998982Y5332984D01*
G01X1002030Y5342382D01*
G01X1002030Y5357876D01*
G01X998982Y5367020D01*
G01X995934Y5373370D01*
G01X989584Y5379466D01*
G01X983488Y5382514D01*
G01X971042Y5382514D01*
G01X980440Y5329936D02*
G01X998982Y5311394D01*
G01X1035304Y5367020D02*
G01X1035304Y5370068D01*
G01X1038352Y5376418D01*
G01X1041400Y5379466D01*
G01X1047496Y5382514D01*
G01X1059942Y5382514D01*
G01X1066292Y5379466D01*
G01X1069340Y5376418D01*
G01X1072388Y5370068D01*
G01X1072388Y5363972D01*
G01X1069340Y5357876D01*
G01X1062990Y5348478D01*
G01X1032256Y5317490D01*
G01X1075436Y5317490D01*
G01X341122Y1902714D02*
G01X335026Y1899666D01*
G01X328676Y1893570D01*
G01X325628Y1887220D01*
G01X322580Y1878076D01*
G01X322580Y1862582D01*
G01X325628Y1853184D01*
G01X328676Y1847088D01*
G01X335026Y1840738D01*
G01X341122Y1837690D01*
G01X353568Y1837690D01*
G01X359664Y1840738D01*
G01X366014Y1847088D01*
G01X369062Y1853184D01*
G01X372110Y1862582D01*
G01X372110Y1878076D01*
G01X369062Y1887220D01*
G01X366014Y1893570D01*
G01X359664Y1899666D01*
G01X353568Y1902714D01*
G01X341122Y1902714D01*
G01X350520Y1850136D02*
G01X369062Y1831594D01*
G01X408432Y1902714D02*
G01X442468Y1902714D01*
G01X423926Y1878076D01*
G01X433070Y1878076D01*
G01X439420Y1875028D01*
G01X442468Y1871726D01*
G01X445516Y1862582D01*
G01X445516Y1856232D01*
G01X442468Y1847088D01*
G01X436372Y1840738D01*
G01X426974Y1837690D01*
G01X417576Y1837690D01*
G01X408432Y1840738D01*
G01X405384Y1844040D01*
G01X402336Y1850136D01*
G01X3582162Y5031994D02*
G01X3576066Y5028946D01*
G01X3569716Y5022850D01*
G01X3566668Y5016500D01*
G01X3563620Y5007356D01*
G01X3563620Y4991862D01*
G01X3566668Y4982464D01*
G01X3569716Y4976368D01*
G01X3576066Y4970018D01*
G01X3582162Y4966970D01*
G01X3594608Y4966970D01*
G01X3600704Y4970018D01*
G01X3607054Y4976368D01*
G01X3610102Y4982464D01*
G01X3613150Y4991862D01*
G01X3613150Y5007356D01*
G01X3610102Y5016500D01*
G01X3607054Y5022850D01*
G01X3600704Y5028946D01*
G01X3594608Y5031994D01*
G01X3582162Y5031994D01*
G01X3591560Y4979416D02*
G01X3610102Y4960874D01*
G01X3674110Y5031994D02*
G01X3643376Y4988814D01*
G01X3689604Y4988814D01*
G01X3674110Y5031994D02*
G01X3674110Y4966970D01*
G01X3886962Y1608074D02*
G01X3880866Y1605026D01*
G01X3874516Y1598930D01*
G01X3871468Y1592580D01*
G01X3868420Y1583436D01*
G01X3868420Y1567942D01*
G01X3871468Y1558544D01*
G01X3874516Y1552448D01*
G01X3880866Y1546098D01*
G01X3886962Y1543050D01*
G01X3899408Y1543050D01*
G01X3905504Y1546098D01*
G01X3911854Y1552448D01*
G01X3914902Y1558544D01*
G01X3917950Y1567942D01*
G01X3917950Y1583436D01*
G01X3914902Y1592580D01*
G01X3911854Y1598930D01*
G01X3905504Y1605026D01*
G01X3899408Y1608074D01*
G01X3886962Y1608074D01*
G01X3896360Y1555496D02*
G01X3914902Y1536954D01*
G01X3985260Y1608074D02*
G01X3954272Y1608074D01*
G01X3951224Y1580388D01*
G01X3954272Y1583436D01*
G01X3963416Y1586484D01*
G01X3972814Y1586484D01*
G01X3982212Y1583436D01*
G01X3988308Y1577086D01*
G01X3991356Y1567942D01*
G01X3991356Y1561592D01*
G01X3988308Y1552448D01*
G01X3982212Y1546098D01*
G01X3972814Y1543050D01*
G01X3963416Y1543050D01*
G01X3954272Y1546098D01*
G01X3951224Y1549400D01*
G01X3948176Y1555496D01*
G01X2977642Y2441194D02*
G01X2971546Y2438146D01*
G01X2965196Y2432050D01*
G01X2962148Y2425700D01*
G01X2959100Y2416556D01*
G01X2959100Y2401062D01*
G01X2962148Y2391664D01*
G01X2965196Y2385568D01*
G01X2971546Y2379218D01*
G01X2977642Y2376170D01*
G01X2990088Y2376170D01*
G01X2996184Y2379218D01*
G01X3002534Y2385568D01*
G01X3005582Y2391664D01*
G01X3008630Y2401062D01*
G01X3008630Y2416556D01*
G01X3005582Y2425700D01*
G01X3002534Y2432050D01*
G01X2996184Y2438146D01*
G01X2990088Y2441194D01*
G01X2977642Y2441194D01*
G01X2987040Y2388616D02*
G01X3005582Y2370074D01*
G01X3075940Y2432050D02*
G01X3072892Y2438146D01*
G01X3063494Y2441194D01*
G01X3057398Y2441194D01*
G01X3048000Y2438146D01*
G01X3041904Y2428748D01*
G01X3038856Y2413508D01*
G01X3038856Y2398014D01*
G01X3041904Y2385568D01*
G01X3048000Y2379218D01*
G01X3057398Y2376170D01*
G01X3060446Y2376170D01*
G01X3069590Y2379218D01*
G01X3075940Y2385568D01*
G01X3078988Y2394712D01*
G01X3078988Y2398014D01*
G01X3075940Y2407158D01*
G01X3069590Y2413508D01*
G01X3060446Y2416556D01*
G01X3057398Y2416556D01*
G01X3048000Y2413508D01*
G01X3041904Y2407158D01*
G01X3038856Y2398014D01*
G01X1262380Y4244594D02*
G01X1262380Y4179570D01*
G01X1262380Y4244594D02*
G01X1290320Y4244594D01*
G01X1299464Y4241546D01*
G01X1302512Y4238498D01*
G01X1305814Y4232148D01*
G01X1305814Y4226052D01*
G01X1302512Y4219956D01*
G01X1299464Y4216908D01*
G01X1290320Y4213606D01*
G01X1262380Y4213606D01*
G01X1283970Y4213606D02*
G01X1305814Y4179570D01*
G01X1339088Y4229100D02*
G01X1339088Y4232148D01*
G01X1342136Y4238498D01*
G01X1345184Y4241546D01*
G01X1351280Y4244594D01*
G01X1363726Y4244594D01*
G01X1370076Y4241546D01*
G01X1373124Y4238498D01*
G01X1376172Y4232148D01*
G01X1376172Y4226052D01*
G01X1373124Y4219956D01*
G01X1366774Y4210558D01*
G01X1336040Y4179570D01*
G01X1379220Y4179570D01*
G01X2369820Y2949194D02*
G01X2369820Y2884170D01*
G01X2369820Y2949194D02*
G01X2397760Y2949194D01*
G01X2406904Y2946146D01*
G01X2409952Y2943098D01*
G01X2413254Y2936748D01*
G01X2413254Y2930652D01*
G01X2409952Y2924556D01*
G01X2406904Y2921508D01*
G01X2397760Y2918206D01*
G01X2369820Y2918206D01*
G01X2391410Y2918206D02*
G01X2413254Y2884170D01*
G01X2474214Y2949194D02*
G01X2443480Y2906014D01*
G01X2489708Y2906014D01*
G01X2474214Y2949194D02*
G01X2474214Y2884170D01*
G01X2029460Y2928874D02*
G01X2029460Y2863850D01*
G01X2029460Y2928874D02*
G01X2057400Y2928874D01*
G01X2066544Y2925826D01*
G01X2069592Y2922778D01*
G01X2072894Y2916428D01*
G01X2072894Y2910332D01*
G01X2069592Y2904236D01*
G01X2066544Y2901188D01*
G01X2057400Y2897886D01*
G01X2029460Y2897886D01*
G01X2051050Y2897886D02*
G01X2072894Y2863850D01*
G01X2140204Y2928874D02*
G01X2109216Y2928874D01*
G01X2106168Y2901188D01*
G01X2109216Y2904236D01*
G01X2118360Y2907284D01*
G01X2127758Y2907284D01*
G01X2137156Y2904236D01*
G01X2143252Y2897886D01*
G01X2146300Y2888742D01*
G01X2146300Y2882392D01*
G01X2143252Y2873248D01*
G01X2137156Y2866898D01*
G01X2127758Y2863850D01*
G01X2118360Y2863850D01*
G01X2109216Y2866898D01*
G01X2106168Y2870200D01*
G01X2103120Y2876296D01*
G01X3040380Y3350514D02*
G01X3040380Y3285490D01*
G01X3040380Y3350514D02*
G01X3068320Y3350514D01*
G01X3077464Y3347466D01*
G01X3080512Y3344418D01*
G01X3083814Y3338068D01*
G01X3083814Y3331972D01*
G01X3080512Y3325876D01*
G01X3077464Y3322828D01*
G01X3068320Y3319526D01*
G01X3040380Y3319526D01*
G01X3061970Y3319526D02*
G01X3083814Y3285490D01*
G01X3151124Y3341370D02*
G01X3148076Y3347466D01*
G01X3138678Y3350514D01*
G01X3132582Y3350514D01*
G01X3123184Y3347466D01*
G01X3117088Y3338068D01*
G01X3114040Y3322828D01*
G01X3114040Y3307334D01*
G01X3117088Y3294888D01*
G01X3123184Y3288538D01*
G01X3132582Y3285490D01*
G01X3135630Y3285490D01*
G01X3144774Y3288538D01*
G01X3151124Y3294888D01*
G01X3154172Y3304032D01*
G01X3154172Y3307334D01*
G01X3151124Y3316478D01*
G01X3144774Y3322828D01*
G01X3135630Y3325876D01*
G01X3132582Y3325876D01*
G01X3123184Y3322828D01*
G01X3117088Y3316478D01*
G01X3114040Y3307334D01*
G01X1668780Y5341874D02*
G01X1668780Y5276850D01*
G01X1668780Y5341874D02*
G01X1696720Y5341874D01*
G01X1705864Y5338826D01*
G01X1708912Y5335778D01*
G01X1712214Y5329428D01*
G01X1712214Y5323332D01*
G01X1708912Y5317236D01*
G01X1705864Y5314188D01*
G01X1696720Y5310886D01*
G01X1668780Y5310886D01*
G01X1690370Y5310886D02*
G01X1712214Y5276850D01*
G01X1785620Y5341874D02*
G01X1754632Y5276850D01*
G01X1742440Y5341874D02*
G01X1785620Y5341874D01*
G01X2735580Y5067554D02*
G01X2735580Y5002530D01*
G01X2735580Y5067554D02*
G01X2763520Y5067554D01*
G01X2772664Y5064506D01*
G01X2775712Y5061458D01*
G01X2779014Y5055108D01*
G01X2779014Y5049012D01*
G01X2775712Y5042916D01*
G01X2772664Y5039868D01*
G01X2763520Y5036566D01*
G01X2735580Y5036566D01*
G01X2757170Y5036566D02*
G01X2779014Y5002530D01*
G01X2824480Y5067554D02*
G01X2815336Y5064506D01*
G01X2812288Y5058410D01*
G01X2812288Y5052060D01*
G01X2815336Y5045964D01*
G01X2821432Y5042916D01*
G01X2833878Y5039868D01*
G01X2843276Y5036566D01*
G01X2849372Y5030470D01*
G01X2852420Y5024374D01*
G01X2852420Y5014976D01*
G01X2849372Y5008880D01*
G01X2846324Y5005578D01*
G01X2836926Y5002530D01*
G01X2824480Y5002530D01*
G01X2815336Y5005578D01*
G01X2812288Y5008880D01*
G01X2809240Y5014976D01*
G01X2809240Y5024374D01*
G01X2812288Y5030470D01*
G01X2818384Y5036566D01*
G01X2827782Y5039868D01*
G01X2839974Y5042916D01*
G01X2846324Y5045964D01*
G01X2849372Y5052060D01*
G01X2849372Y5058410D01*
G01X2846324Y5064506D01*
G01X2836926Y5067554D01*
G01X2824480Y5067554D01*
G01X2842260Y226314D02*
G01X2842260Y161290D01*
G01X2842260Y226314D02*
G01X2870200Y226314D01*
G01X2879344Y223266D01*
G01X2882392Y220218D01*
G01X2885694Y213868D01*
G01X2885694Y207772D01*
G01X2882392Y201676D01*
G01X2879344Y198628D01*
G01X2870200Y195326D01*
G01X2842260Y195326D01*
G01X2863850Y195326D02*
G01X2885694Y161290D01*
G01X2956052Y204724D02*
G01X2953004Y195326D01*
G01X2946654Y189230D01*
G01X2937510Y186182D01*
G01X2934462Y186182D01*
G01X2925064Y189230D01*
G01X2918968Y195326D01*
G01X2915920Y204724D01*
G01X2915920Y207772D01*
G01X2918968Y217170D01*
G01X2925064Y223266D01*
G01X2934462Y226314D01*
G01X2937510Y226314D01*
G01X2946654Y223266D01*
G01X2953004Y217170D01*
G01X2956052Y204724D01*
G01X2956052Y189230D01*
G01X2953004Y173736D01*
G01X2946654Y164338D01*
G01X2937510Y161290D01*
G01X2931160Y161290D01*
G01X2922016Y164338D01*
G01X2918968Y170688D01*
G01X2806700Y632714D02*
G01X2806700Y567690D01*
G01X2806700Y632714D02*
G01X2834640Y632714D01*
G01X2843784Y629666D01*
G01X2846832Y626618D01*
G01X2850134Y620268D01*
G01X2850134Y614172D01*
G01X2846832Y608076D01*
G01X2843784Y605028D01*
G01X2834640Y601726D01*
G01X2806700Y601726D01*
G01X2828290Y601726D02*
G01X2850134Y567690D01*
G01X2880360Y620268D02*
G01X2886456Y623570D01*
G01X2895600Y632714D01*
G01X2895600Y567690D01*
G01X2944368Y632714D02*
G01X2934970Y629666D01*
G01X2928874Y620268D01*
G01X2925826Y605028D01*
G01X2925826Y595630D01*
G01X2928874Y580136D01*
G01X2934970Y570738D01*
G01X2944368Y567690D01*
G01X2950464Y567690D01*
G01X2959862Y570738D01*
G01X2965958Y580136D01*
G01X2969006Y595630D01*
G01X2969006Y605028D01*
G01X2965958Y620268D01*
G01X2959862Y629666D01*
G01X2950464Y632714D01*
G01X2944368Y632714D01*
G01X2374900Y876554D02*
G01X2374900Y811530D01*
G01X2374900Y876554D02*
G01X2402840Y876554D01*
G01X2411984Y873506D01*
G01X2415032Y870458D01*
G01X2418334Y864108D01*
G01X2418334Y858012D01*
G01X2415032Y851916D01*
G01X2411984Y848868D01*
G01X2402840Y845566D01*
G01X2374900Y845566D01*
G01X2396490Y845566D02*
G01X2418334Y811530D01*
G01X2448560Y864108D02*
G01X2454656Y867410D01*
G01X2463800Y876554D01*
G01X2463800Y811530D01*
G01X2494026Y864108D02*
G01X2500122Y867410D01*
G01X2509266Y876554D01*
G01X2509266Y811530D01*
G01X2161540Y881634D02*
G01X2161540Y816610D01*
G01X2161540Y881634D02*
G01X2189480Y881634D01*
G01X2198624Y878586D01*
G01X2201672Y875538D01*
G01X2204974Y869188D01*
G01X2204974Y863092D01*
G01X2201672Y856996D01*
G01X2198624Y853948D01*
G01X2189480Y850646D01*
G01X2161540Y850646D01*
G01X2183130Y850646D02*
G01X2204974Y816610D01*
G01X2235200Y869188D02*
G01X2241296Y872490D01*
G01X2250440Y881634D01*
G01X2250440Y816610D01*
G01X2283714Y866140D02*
G01X2283714Y869188D01*
G01X2286762Y875538D01*
G01X2289810Y878586D01*
G01X2295906Y881634D01*
G01X2308352Y881634D01*
G01X2314702Y878586D01*
G01X2317750Y875538D01*
G01X2320798Y869188D01*
G01X2320798Y863092D01*
G01X2317750Y856996D01*
G01X2311400Y847598D01*
G01X2280666Y816610D01*
G01X2323846Y816610D01*
G01X1445260Y5367274D02*
G01X1445260Y5302250D01*
G01X1445260Y5367274D02*
G01X1473200Y5367274D01*
G01X1482344Y5364226D01*
G01X1485392Y5361178D01*
G01X1488694Y5354828D01*
G01X1488694Y5348732D01*
G01X1485392Y5342636D01*
G01X1482344Y5339588D01*
G01X1473200Y5336286D01*
G01X1445260Y5336286D01*
G01X1466850Y5336286D02*
G01X1488694Y5302250D01*
G01X1518920Y5354828D02*
G01X1525016Y5358130D01*
G01X1534160Y5367274D01*
G01X1534160Y5302250D01*
G01X1601470Y5367274D02*
G01X1570482Y5367274D01*
G01X1567434Y5339588D01*
G01X1570482Y5342636D01*
G01X1579626Y5345684D01*
G01X1589024Y5345684D01*
G01X1598422Y5342636D01*
G01X1604518Y5336286D01*
G01X1607566Y5327142D01*
G01X1607566Y5320792D01*
G01X1604518Y5311648D01*
G01X1598422Y5305298D01*
G01X1589024Y5302250D01*
G01X1579626Y5302250D01*
G01X1570482Y5305298D01*
G01X1567434Y5308600D01*
G01X1564386Y5314696D01*
G01X1252220Y5372354D02*
G01X1252220Y5307330D01*
G01X1252220Y5372354D02*
G01X1280160Y5372354D01*
G01X1289304Y5369306D01*
G01X1292352Y5366258D01*
G01X1295654Y5359908D01*
G01X1295654Y5353812D01*
G01X1292352Y5347716D01*
G01X1289304Y5344668D01*
G01X1280160Y5341366D01*
G01X1252220Y5341366D01*
G01X1273810Y5341366D02*
G01X1295654Y5307330D01*
G01X1325880Y5359908D02*
G01X1331976Y5363210D01*
G01X1341120Y5372354D01*
G01X1341120Y5307330D01*
G01X1408430Y5363210D02*
G01X1405382Y5369306D01*
G01X1395984Y5372354D01*
G01X1389888Y5372354D01*
G01X1380490Y5369306D01*
G01X1374394Y5359908D01*
G01X1371346Y5344668D01*
G01X1371346Y5329174D01*
G01X1374394Y5316728D01*
G01X1380490Y5310378D01*
G01X1389888Y5307330D01*
G01X1392936Y5307330D01*
G01X1402080Y5310378D01*
G01X1408430Y5316728D01*
G01X1411478Y5325872D01*
G01X1411478Y5329174D01*
G01X1408430Y5338318D01*
G01X1402080Y5344668D01*
G01X1392936Y5347716D01*
G01X1389888Y5347716D01*
G01X1380490Y5344668D01*
G01X1374394Y5338318D01*
G01X1371346Y5329174D01*
G01X469900Y2339594D02*
G01X469900Y2274570D01*
G01X469900Y2339594D02*
G01X497840Y2339594D01*
G01X506984Y2336546D01*
G01X510032Y2333498D01*
G01X513334Y2327148D01*
G01X513334Y2321052D01*
G01X510032Y2314956D01*
G01X506984Y2311908D01*
G01X497840Y2308606D01*
G01X469900Y2308606D01*
G01X491490Y2308606D02*
G01X513334Y2274570D01*
G01X543560Y2327148D02*
G01X549656Y2330450D01*
G01X558800Y2339594D01*
G01X558800Y2274570D01*
G01X632206Y2339594D02*
G01X601218Y2274570D01*
G01X589026Y2339594D02*
G01X632206Y2339594D01*
G01X657860Y2339594D02*
G01X657860Y2274570D01*
G01X657860Y2339594D02*
G01X685800Y2339594D01*
G01X694944Y2336546D01*
G01X697992Y2333498D01*
G01X701294Y2327148D01*
G01X701294Y2321052D01*
G01X697992Y2314956D01*
G01X694944Y2311908D01*
G01X685800Y2308606D01*
G01X657860Y2308606D01*
G01X679450Y2308606D02*
G01X701294Y2274570D01*
G01X731520Y2327148D02*
G01X737616Y2330450D01*
G01X746760Y2339594D01*
G01X746760Y2274570D01*
G01X792226Y2339594D02*
G01X783082Y2336546D01*
G01X780034Y2330450D01*
G01X780034Y2324100D01*
G01X783082Y2318004D01*
G01X789178Y2314956D01*
G01X801624Y2311908D01*
G01X811022Y2308606D01*
G01X817118Y2302510D01*
G01X820166Y2296414D01*
G01X820166Y2287016D01*
G01X817118Y2280920D01*
G01X814070Y2277618D01*
G01X804672Y2274570D01*
G01X792226Y2274570D01*
G01X783082Y2277618D01*
G01X780034Y2280920D01*
G01X776986Y2287016D01*
G01X776986Y2296414D01*
G01X780034Y2302510D01*
G01X786130Y2308606D01*
G01X795528Y2311908D01*
G01X807720Y2314956D01*
G01X814070Y2318004D01*
G01X817118Y2324100D01*
G01X817118Y2330450D01*
G01X814070Y2336546D01*
G01X804672Y2339594D01*
G01X792226Y2339594D01*
G01X3472180Y5545074D02*
G01X3472180Y5480050D01*
G01X3472180Y5545074D02*
G01X3500120Y5545074D01*
G01X3509264Y5542026D01*
G01X3512312Y5538978D01*
G01X3515614Y5532628D01*
G01X3515614Y5526532D01*
G01X3512312Y5520436D01*
G01X3509264Y5517388D01*
G01X3500120Y5514086D01*
G01X3472180Y5514086D01*
G01X3493770Y5514086D02*
G01X3515614Y5480050D01*
G01X3545840Y5532628D02*
G01X3551936Y5535930D01*
G01X3561080Y5545074D01*
G01X3561080Y5480050D01*
G01X3631438Y5523484D02*
G01X3628390Y5514086D01*
G01X3622040Y5507990D01*
G01X3612896Y5504942D01*
G01X3609848Y5504942D01*
G01X3600450Y5507990D01*
G01X3594354Y5514086D01*
G01X3591306Y5523484D01*
G01X3591306Y5526532D01*
G01X3594354Y5535930D01*
G01X3600450Y5542026D01*
G01X3609848Y5545074D01*
G01X3612896Y5545074D01*
G01X3622040Y5542026D01*
G01X3628390Y5535930D01*
G01X3631438Y5523484D01*
G01X3631438Y5507990D01*
G01X3628390Y5492496D01*
G01X3622040Y5483098D01*
G01X3612896Y5480050D01*
G01X3606546Y5480050D01*
G01X3597402Y5483098D01*
G01X3594354Y5489448D01*
G01X3741420Y5539994D02*
G01X3741420Y5474970D01*
G01X3741420Y5539994D02*
G01X3769360Y5539994D01*
G01X3778504Y5536946D01*
G01X3781552Y5533898D01*
G01X3784854Y5527548D01*
G01X3784854Y5521452D01*
G01X3781552Y5515356D01*
G01X3778504Y5512308D01*
G01X3769360Y5509006D01*
G01X3741420Y5509006D01*
G01X3763010Y5509006D02*
G01X3784854Y5474970D01*
G01X3818128Y5524500D02*
G01X3818128Y5527548D01*
G01X3821176Y5533898D01*
G01X3824224Y5536946D01*
G01X3830320Y5539994D01*
G01X3842766Y5539994D01*
G01X3849116Y5536946D01*
G01X3852164Y5533898D01*
G01X3855212Y5527548D01*
G01X3855212Y5521452D01*
G01X3852164Y5515356D01*
G01X3845814Y5505958D01*
G01X3815080Y5474970D01*
G01X3858260Y5474970D01*
G01X3907028Y5539994D02*
G01X3897630Y5536946D01*
G01X3891534Y5527548D01*
G01X3888486Y5512308D01*
G01X3888486Y5502910D01*
G01X3891534Y5487416D01*
G01X3897630Y5478018D01*
G01X3907028Y5474970D01*
G01X3913124Y5474970D01*
G01X3922522Y5478018D01*
G01X3928618Y5487416D01*
G01X3931666Y5502910D01*
G01X3931666Y5512308D01*
G01X3928618Y5527548D01*
G01X3922522Y5536946D01*
G01X3913124Y5539994D01*
G01X3907028Y5539994D01*
G01X3492500Y1582674D02*
G01X3492500Y1517650D01*
G01X3492500Y1582674D02*
G01X3520440Y1582674D01*
G01X3529584Y1579626D01*
G01X3532632Y1576578D01*
G01X3535934Y1570228D01*
G01X3535934Y1564132D01*
G01X3532632Y1558036D01*
G01X3529584Y1554988D01*
G01X3520440Y1551686D01*
G01X3492500Y1551686D01*
G01X3514090Y1551686D02*
G01X3535934Y1517650D01*
G01X3569208Y1567180D02*
G01X3569208Y1570228D01*
G01X3572256Y1576578D01*
G01X3575304Y1579626D01*
G01X3581400Y1582674D01*
G01X3593846Y1582674D01*
G01X3600196Y1579626D01*
G01X3603244Y1576578D01*
G01X3606292Y1570228D01*
G01X3606292Y1564132D01*
G01X3603244Y1558036D01*
G01X3596894Y1548638D01*
G01X3566160Y1517650D01*
G01X3609340Y1517650D01*
G01X3639566Y1570228D02*
G01X3645662Y1573530D01*
G01X3654806Y1582674D01*
G01X3654806Y1517650D01*
G01X3279140Y1577594D02*
G01X3279140Y1512570D01*
G01X3279140Y1577594D02*
G01X3307080Y1577594D01*
G01X3316224Y1574546D01*
G01X3319272Y1571498D01*
G01X3322574Y1565148D01*
G01X3322574Y1559052D01*
G01X3319272Y1552956D01*
G01X3316224Y1549908D01*
G01X3307080Y1546606D01*
G01X3279140Y1546606D01*
G01X3300730Y1546606D02*
G01X3322574Y1512570D01*
G01X3355848Y1562100D02*
G01X3355848Y1565148D01*
G01X3358896Y1571498D01*
G01X3361944Y1574546D01*
G01X3368040Y1577594D01*
G01X3380486Y1577594D01*
G01X3386836Y1574546D01*
G01X3389884Y1571498D01*
G01X3392932Y1565148D01*
G01X3392932Y1559052D01*
G01X3389884Y1552956D01*
G01X3383534Y1543558D01*
G01X3352800Y1512570D01*
G01X3395980Y1512570D01*
G01X3429254Y1562100D02*
G01X3429254Y1565148D01*
G01X3432302Y1571498D01*
G01X3435350Y1574546D01*
G01X3441446Y1577594D01*
G01X3453892Y1577594D01*
G01X3460242Y1574546D01*
G01X3463290Y1571498D01*
G01X3466338Y1565148D01*
G01X3466338Y1559052D01*
G01X3463290Y1552956D01*
G01X3456940Y1543558D01*
G01X3426206Y1512570D01*
G01X3469386Y1512570D01*
G01X1440180Y5479034D02*
G01X1440180Y5414010D01*
G01X1440180Y5479034D02*
G01X1468120Y5479034D01*
G01X1477264Y5475986D01*
G01X1480312Y5472938D01*
G01X1483614Y5466588D01*
G01X1483614Y5460492D01*
G01X1480312Y5454396D01*
G01X1477264Y5451348D01*
G01X1468120Y5448046D01*
G01X1440180Y5448046D01*
G01X1461770Y5448046D02*
G01X1483614Y5414010D01*
G01X1516888Y5463540D02*
G01X1516888Y5466588D01*
G01X1519936Y5472938D01*
G01X1522984Y5475986D01*
G01X1529080Y5479034D01*
G01X1541526Y5479034D01*
G01X1547876Y5475986D01*
G01X1550924Y5472938D01*
G01X1553972Y5466588D01*
G01X1553972Y5460492D01*
G01X1550924Y5454396D01*
G01X1544574Y5444998D01*
G01X1513840Y5414010D01*
G01X1557020Y5414010D01*
G01X1593342Y5479034D02*
G01X1627378Y5479034D01*
G01X1608836Y5454396D01*
G01X1617980Y5454396D01*
G01X1624330Y5451348D01*
G01X1627378Y5448046D01*
G01X1630426Y5438902D01*
G01X1630426Y5432552D01*
G01X1627378Y5423408D01*
G01X1621282Y5417058D01*
G01X1611884Y5414010D01*
G01X1602486Y5414010D01*
G01X1593342Y5417058D01*
G01X1590294Y5420360D01*
G01X1587246Y5426456D01*
G01X3208020Y5860034D02*
G01X3208020Y5795010D01*
G01X3208020Y5860034D02*
G01X3235960Y5860034D01*
G01X3245104Y5856986D01*
G01X3248152Y5853938D01*
G01X3251454Y5847588D01*
G01X3251454Y5841492D01*
G01X3248152Y5835396D01*
G01X3245104Y5832348D01*
G01X3235960Y5829046D01*
G01X3208020Y5829046D01*
G01X3229610Y5829046D02*
G01X3251454Y5795010D01*
G01X3284728Y5844540D02*
G01X3284728Y5847588D01*
G01X3287776Y5853938D01*
G01X3290824Y5856986D01*
G01X3296920Y5860034D01*
G01X3309366Y5860034D01*
G01X3315716Y5856986D01*
G01X3318764Y5853938D01*
G01X3321812Y5847588D01*
G01X3321812Y5841492D01*
G01X3318764Y5835396D01*
G01X3312414Y5825998D01*
G01X3281680Y5795010D01*
G01X3324860Y5795010D01*
G01X3385820Y5860034D02*
G01X3355086Y5816854D01*
G01X3401314Y5816854D01*
G01X3385820Y5860034D02*
G01X3385820Y5795010D01*
G01X2877820Y1140714D02*
G01X2877820Y1075690D01*
G01X2877820Y1140714D02*
G01X2905760Y1140714D01*
G01X2914904Y1137666D01*
G01X2917952Y1134618D01*
G01X2921254Y1128268D01*
G01X2921254Y1122172D01*
G01X2917952Y1116076D01*
G01X2914904Y1113028D01*
G01X2905760Y1109726D01*
G01X2877820Y1109726D01*
G01X2899410Y1109726D02*
G01X2921254Y1075690D01*
G01X2954528Y1125220D02*
G01X2954528Y1128268D01*
G01X2957576Y1134618D01*
G01X2960624Y1137666D01*
G01X2966720Y1140714D01*
G01X2979166Y1140714D01*
G01X2985516Y1137666D01*
G01X2988564Y1134618D01*
G01X2991612Y1128268D01*
G01X2991612Y1122172D01*
G01X2988564Y1116076D01*
G01X2982214Y1106678D01*
G01X2951480Y1075690D01*
G01X2994660Y1075690D01*
G01X3061970Y1140714D02*
G01X3030982Y1140714D01*
G01X3027934Y1113028D01*
G01X3030982Y1116076D01*
G01X3040126Y1119124D01*
G01X3049524Y1119124D01*
G01X3058922Y1116076D01*
G01X3065018Y1109726D01*
G01X3068066Y1100582D01*
G01X3068066Y1094232D01*
G01X3065018Y1085088D01*
G01X3058922Y1078738D01*
G01X3049524Y1075690D01*
G01X3040126Y1075690D01*
G01X3030982Y1078738D01*
G01X3027934Y1082040D01*
G01X3024886Y1088136D01*
G01X1263571Y1288054D02*
G01X1263571Y1223030D01*
G01X1263571Y1288054D02*
G01X1291511Y1288054D01*
G01X1300655Y1285006D01*
G01X1303703Y1281958D01*
G01X1307005Y1275608D01*
G01X1307005Y1269512D01*
G01X1303703Y1263416D01*
G01X1300655Y1260368D01*
G01X1291511Y1257066D01*
G01X1263571Y1257066D01*
G01X1285161Y1257066D02*
G01X1307005Y1223030D01*
G01X1340279Y1272560D02*
G01X1340279Y1275608D01*
G01X1343327Y1281958D01*
G01X1346375Y1285006D01*
G01X1352471Y1288054D01*
G01X1364917Y1288054D01*
G01X1371267Y1285006D01*
G01X1374315Y1281958D01*
G01X1377363Y1275608D01*
G01X1377363Y1269512D01*
G01X1374315Y1263416D01*
G01X1367965Y1254018D01*
G01X1337231Y1223030D01*
G01X1380411Y1223030D01*
G01X1447721Y1278910D02*
G01X1444673Y1285006D01*
G01X1435275Y1288054D01*
G01X1429179Y1288054D01*
G01X1419781Y1285006D01*
G01X1413685Y1275608D01*
G01X1410637Y1260368D01*
G01X1410637Y1244874D01*
G01X1413685Y1232428D01*
G01X1419781Y1226078D01*
G01X1429179Y1223030D01*
G01X1432227Y1223030D01*
G01X1441371Y1226078D01*
G01X1447721Y1232428D01*
G01X1450769Y1241572D01*
G01X1450769Y1244874D01*
G01X1447721Y1254018D01*
G01X1441371Y1260368D01*
G01X1432227Y1263416D01*
G01X1429179Y1263416D01*
G01X1419781Y1260368D01*
G01X1413685Y1254018D01*
G01X1410637Y1244874D01*
G01X2694940Y2227834D02*
G01X2694940Y2162810D01*
G01X2694940Y2227834D02*
G01X2722880Y2227834D01*
G01X2732024Y2224786D01*
G01X2735072Y2221738D01*
G01X2738374Y2215388D01*
G01X2738374Y2209292D01*
G01X2735072Y2203196D01*
G01X2732024Y2200148D01*
G01X2722880Y2196846D01*
G01X2694940Y2196846D01*
G01X2716530Y2196846D02*
G01X2738374Y2162810D01*
G01X2771648Y2212340D02*
G01X2771648Y2215388D01*
G01X2774696Y2221738D01*
G01X2777744Y2224786D01*
G01X2783840Y2227834D01*
G01X2796286Y2227834D01*
G01X2802636Y2224786D01*
G01X2805684Y2221738D01*
G01X2808732Y2215388D01*
G01X2808732Y2209292D01*
G01X2805684Y2203196D01*
G01X2799334Y2193798D01*
G01X2768600Y2162810D01*
G01X2811780Y2162810D01*
G01X2885186Y2227834D02*
G01X2854198Y2162810D01*
G01X2842006Y2227834D02*
G01X2885186Y2227834D01*
G01X2694940Y2070354D02*
G01X2694940Y2005330D01*
G01X2694940Y2070354D02*
G01X2722880Y2070354D01*
G01X2732024Y2067306D01*
G01X2735072Y2064258D01*
G01X2738374Y2057908D01*
G01X2738374Y2051812D01*
G01X2735072Y2045716D01*
G01X2732024Y2042668D01*
G01X2722880Y2039366D01*
G01X2694940Y2039366D01*
G01X2716530Y2039366D02*
G01X2738374Y2005330D01*
G01X2771648Y2054860D02*
G01X2771648Y2057908D01*
G01X2774696Y2064258D01*
G01X2777744Y2067306D01*
G01X2783840Y2070354D01*
G01X2796286Y2070354D01*
G01X2802636Y2067306D01*
G01X2805684Y2064258D01*
G01X2808732Y2057908D01*
G01X2808732Y2051812D01*
G01X2805684Y2045716D01*
G01X2799334Y2036318D01*
G01X2768600Y2005330D01*
G01X2811780Y2005330D01*
G01X2857246Y2070354D02*
G01X2848102Y2067306D01*
G01X2845054Y2061210D01*
G01X2845054Y2054860D01*
G01X2848102Y2048764D01*
G01X2854198Y2045716D01*
G01X2866644Y2042668D01*
G01X2876042Y2039366D01*
G01X2882138Y2033270D01*
G01X2885186Y2027174D01*
G01X2885186Y2017776D01*
G01X2882138Y2011680D01*
G01X2879090Y2008378D01*
G01X2869692Y2005330D01*
G01X2857246Y2005330D01*
G01X2848102Y2008378D01*
G01X2845054Y2011680D01*
G01X2842006Y2017776D01*
G01X2842006Y2027174D01*
G01X2845054Y2033270D01*
G01X2851150Y2039366D01*
G01X2860548Y2042668D01*
G01X2872740Y2045716D01*
G01X2879090Y2048764D01*
G01X2882138Y2054860D01*
G01X2882138Y2061210D01*
G01X2879090Y2067306D01*
G01X2869692Y2070354D01*
G01X2857246Y2070354D01*
G01X3441700Y2674874D02*
G01X3441700Y2609850D01*
G01X3441700Y2674874D02*
G01X3469640Y2674874D01*
G01X3478784Y2671826D01*
G01X3481832Y2668778D01*
G01X3485134Y2662428D01*
G01X3485134Y2656332D01*
G01X3481832Y2650236D01*
G01X3478784Y2647188D01*
G01X3469640Y2643886D01*
G01X3441700Y2643886D01*
G01X3463290Y2643886D02*
G01X3485134Y2609850D01*
G01X3518408Y2659380D02*
G01X3518408Y2662428D01*
G01X3521456Y2668778D01*
G01X3524504Y2671826D01*
G01X3530600Y2674874D01*
G01X3543046Y2674874D01*
G01X3549396Y2671826D01*
G01X3552444Y2668778D01*
G01X3555492Y2662428D01*
G01X3555492Y2656332D01*
G01X3552444Y2650236D01*
G01X3546094Y2640838D01*
G01X3515360Y2609850D01*
G01X3558540Y2609850D01*
G01X3628898Y2653284D02*
G01X3625850Y2643886D01*
G01X3619500Y2637790D01*
G01X3610356Y2634742D01*
G01X3607308Y2634742D01*
G01X3597910Y2637790D01*
G01X3591814Y2643886D01*
G01X3588766Y2653284D01*
G01X3588766Y2656332D01*
G01X3591814Y2665730D01*
G01X3597910Y2671826D01*
G01X3607308Y2674874D01*
G01X3610356Y2674874D01*
G01X3619500Y2671826D01*
G01X3625850Y2665730D01*
G01X3628898Y2653284D01*
G01X3628898Y2637790D01*
G01X3625850Y2622296D01*
G01X3619500Y2612898D01*
G01X3610356Y2609850D01*
G01X3604006Y2609850D01*
G01X3594862Y2612898D01*
G01X3591814Y2619248D01*
G01X3111500Y2771394D02*
G01X3111500Y2706370D01*
G01X3111500Y2771394D02*
G01X3139440Y2771394D01*
G01X3148584Y2768346D01*
G01X3151632Y2765298D01*
G01X3154934Y2758948D01*
G01X3154934Y2752852D01*
G01X3151632Y2746756D01*
G01X3148584Y2743708D01*
G01X3139440Y2740406D01*
G01X3111500Y2740406D01*
G01X3133090Y2740406D02*
G01X3154934Y2706370D01*
G01X3191256Y2771394D02*
G01X3225292Y2771394D01*
G01X3206750Y2746756D01*
G01X3215894Y2746756D01*
G01X3222244Y2743708D01*
G01X3225292Y2740406D01*
G01X3228340Y2731262D01*
G01X3228340Y2724912D01*
G01X3225292Y2715768D01*
G01X3219196Y2709418D01*
G01X3209798Y2706370D01*
G01X3200400Y2706370D01*
G01X3191256Y2709418D01*
G01X3188208Y2712720D01*
G01X3185160Y2718816D01*
G01X3277108Y2771394D02*
G01X3267710Y2768346D01*
G01X3261614Y2758948D01*
G01X3258566Y2743708D01*
G01X3258566Y2734310D01*
G01X3261614Y2718816D01*
G01X3267710Y2709418D01*
G01X3277108Y2706370D01*
G01X3283204Y2706370D01*
G01X3292602Y2709418D01*
G01X3298698Y2718816D01*
G01X3301746Y2734310D01*
G01X3301746Y2743708D01*
G01X3298698Y2758948D01*
G01X3292602Y2768346D01*
G01X3283204Y2771394D01*
G01X3277108Y2771394D01*
G01X754380Y4244594D02*
G01X754380Y4179570D01*
G01X754380Y4244594D02*
G01X782320Y4244594D01*
G01X791464Y4241546D01*
G01X794512Y4238498D01*
G01X797814Y4232148D01*
G01X797814Y4226052D01*
G01X794512Y4219956D01*
G01X791464Y4216908D01*
G01X782320Y4213606D01*
G01X754380Y4213606D01*
G01X775970Y4213606D02*
G01X797814Y4179570D01*
G01X834136Y4244594D02*
G01X868172Y4244594D01*
G01X849630Y4219956D01*
G01X858774Y4219956D01*
G01X865124Y4216908D01*
G01X868172Y4213606D01*
G01X871220Y4204462D01*
G01X871220Y4198112D01*
G01X868172Y4188968D01*
G01X862076Y4182618D01*
G01X852678Y4179570D01*
G01X843280Y4179570D01*
G01X834136Y4182618D01*
G01X831088Y4185920D01*
G01X828040Y4192016D01*
G01X901446Y4232148D02*
G01X907542Y4235450D01*
G01X916686Y4244594D01*
G01X916686Y4179570D01*
G01X113109Y4212590D02*
G01X106759Y4218686D01*
G01X97615Y4221734D01*
G01X85169Y4221734D01*
G01X75771Y4218686D01*
G01X69675Y4212590D01*
G01X69675Y4206240D01*
G01X72723Y4200144D01*
G01X75771Y4197096D01*
G01X82121Y4194048D01*
G01X100663Y4187698D01*
G01X106759Y4184650D01*
G01X109807Y4181602D01*
G01X113109Y4175252D01*
G01X113109Y4166108D01*
G01X106759Y4159758D01*
G01X97615Y4156710D01*
G01X85169Y4156710D01*
G01X75771Y4159758D01*
G01X69675Y4166108D01*
G01X143335Y4221734D02*
G01X158575Y4156710D01*
G01X174069Y4221734D02*
G01X158575Y4156710D01*
G01X174069Y4221734D02*
G01X189563Y4156710D01*
G01X205057Y4221734D02*
G01X189563Y4156710D01*
G01X235283Y4209288D02*
G01X241379Y4212590D01*
G01X250523Y4221734D01*
G01X250523Y4156710D01*
G01X4623054Y1675130D02*
G01X4616704Y1681226D01*
G01X4607560Y1684274D01*
G01X4595114Y1684274D01*
G01X4585716Y1681226D01*
G01X4579620Y1675130D01*
G01X4579620Y1668780D01*
G01X4582668Y1662684D01*
G01X4585716Y1659636D01*
G01X4592066Y1656588D01*
G01X4610608Y1650238D01*
G01X4616704Y1647190D01*
G01X4619752Y1644142D01*
G01X4623054Y1637792D01*
G01X4623054Y1628648D01*
G01X4616704Y1622298D01*
G01X4607560Y1619250D01*
G01X4595114Y1619250D01*
G01X4585716Y1622298D01*
G01X4579620Y1628648D01*
G01X4653280Y1684274D02*
G01X4668520Y1619250D01*
G01X4684014Y1684274D02*
G01X4668520Y1619250D01*
G01X4684014Y1684274D02*
G01X4699508Y1619250D01*
G01X4715002Y1684274D02*
G01X4699508Y1619250D01*
G01X4748276Y1668780D02*
G01X4748276Y1671828D01*
G01X4751324Y1678178D01*
G01X4754372Y1681226D01*
G01X4760468Y1684274D01*
G01X4772914Y1684274D01*
G01X4779264Y1681226D01*
G01X4782312Y1678178D01*
G01X4785360Y1671828D01*
G01X4785360Y1665732D01*
G01X4782312Y1659636D01*
G01X4775962Y1650238D01*
G01X4745228Y1619250D01*
G01X4788408Y1619250D01*
G01X767080Y3685794D02*
G01X767080Y3639312D01*
G01X770128Y3630168D01*
G01X776478Y3623818D01*
G01X785622Y3620770D01*
G01X791972Y3620770D01*
G01X801116Y3623818D01*
G01X807212Y3630168D01*
G01X810514Y3639312D01*
G01X810514Y3685794D01*
G01X840740Y3673348D02*
G01X846836Y3676650D01*
G01X855980Y3685794D01*
G01X855980Y3620770D01*
G01X2227580Y3685794D02*
G01X2227580Y3639312D01*
G01X2230628Y3630168D01*
G01X2236978Y3623818D01*
G01X2246122Y3620770D01*
G01X2252472Y3620770D01*
G01X2261616Y3623818D01*
G01X2267712Y3630168D01*
G01X2271014Y3639312D01*
G01X2271014Y3685794D01*
G01X2304288Y3670300D02*
G01X2304288Y3673348D01*
G01X2307336Y3679698D01*
G01X2310384Y3682746D01*
G01X2316480Y3685794D01*
G01X2328926Y3685794D01*
G01X2335276Y3682746D01*
G01X2338324Y3679698D01*
G01X2341372Y3673348D01*
G01X2341372Y3667252D01*
G01X2338324Y3661156D01*
G01X2331974Y3651758D01*
G01X2301240Y3620770D01*
G01X2344420Y3620770D01*
G01X2344420Y4960874D02*
G01X2344420Y4914392D01*
G01X2347468Y4905248D01*
G01X2353818Y4898898D01*
G01X2362962Y4895850D01*
G01X2369312Y4895850D01*
G01X2378456Y4898898D01*
G01X2384552Y4905248D01*
G01X2387854Y4914392D01*
G01X2387854Y4960874D01*
G01X2424176Y4960874D02*
G01X2458212Y4960874D01*
G01X2439670Y4936236D01*
G01X2448814Y4936236D01*
G01X2455164Y4933188D01*
G01X2458212Y4929886D01*
G01X2461260Y4920742D01*
G01X2461260Y4914392D01*
G01X2458212Y4905248D01*
G01X2452116Y4898898D01*
G01X2442718Y4895850D01*
G01X2433320Y4895850D01*
G01X2424176Y4898898D01*
G01X2421128Y4902200D01*
G01X2418080Y4908296D01*
G01X45720Y3017774D02*
G01X89154Y2952750D01*
G01X89154Y3017774D02*
G01X45720Y2952750D01*
G01X119380Y3005328D02*
G01X125476Y3008630D01*
G01X134620Y3017774D01*
G01X134620Y2952750D01*
G01X3081020Y5585714D02*
G01X3124454Y5520690D01*
G01X3124454Y5585714D02*
G01X3081020Y5520690D01*
G01X3157728Y5570220D02*
G01X3157728Y5573268D01*
G01X3160776Y5579618D01*
G01X3163824Y5582666D01*
G01X3169920Y5585714D01*
G01X3182366Y5585714D01*
G01X3188716Y5582666D01*
G01X3191764Y5579618D01*
G01X3194812Y5573268D01*
G01X3194812Y5567172D01*
G01X3191764Y5561076D01*
G01X3185414Y5551678D01*
G01X3154680Y5520690D01*
G01X3197860Y5520690D01*
G04 Text End*

G04 PolygonModel Start*
G54D12*
G01X517997Y4117261D02*
G01X517997Y4037264D01*
G01X518043Y4173306D02*
G01X518043Y4253304D01*
G01X376029Y4117261D02*
G01X376029Y4037264D01*
G01X376077Y4173306D02*
G01X376077Y4253304D01*
G01X487015Y4006289D02*
G01X407010Y4006289D01*
G01X407063Y4284282D02*
G01X487065Y4284282D01*
G01X376077Y4253299D02*
G02X407063Y4284282I30983J0D01*
G01X487060Y4284282D02*
G02X518043Y4253299I0J-30983D01*
G01X517997Y4037269D02*
G02X487015Y4006289I-30983J3D01*
G01X407017Y4006289D02*
G02X376029Y4037269I-5J30983D01*
G01X381163Y3096339D02*
G01X381163Y3176336D01*
G01X381117Y3040294D02*
G01X381117Y2960296D01*
G01X523131Y3096339D02*
G01X523131Y3176336D01*
G01X523083Y3040294D02*
G01X523083Y2960296D01*
G01X412145Y3207311D02*
G01X492150Y3207311D01*
G01X492097Y2929319D02*
G01X412095Y2929319D01*
G01X523083Y2960301D02*
G02X492097Y2929319I-30983J0D01*
G01X412100Y2929319D02*
G02X381117Y2960301I0J30983D01*
G01X381163Y3176331D02*
G02X412145Y3207311I30983J-3D01*
G01X492143Y3207311D02*
G02X523131Y3176331I5J-30983D01*
G01X386243Y3375739D02*
G01X386243Y3455736D01*
G01X386197Y3319694D02*
G01X386197Y3239696D01*
G01X528211Y3375739D02*
G01X528211Y3455736D01*
G01X528163Y3319694D02*
G01X528163Y3239696D01*
G01X417225Y3486711D02*
G01X497230Y3486711D01*
G01X497177Y3208719D02*
G01X417175Y3208719D01*
G01X528163Y3239701D02*
G02X497177Y3208719I-30983J0D01*
G01X417180Y3208719D02*
G02X386197Y3239701I0J30983D01*
G01X386243Y3455731D02*
G02X417225Y3486711I30983J-3D01*
G01X497223Y3486711D02*
G02X528211Y3455731I5J-30983D01*
G01X1805861Y3693323D02*
G01X1725864Y3693323D01*
G01X1861906Y3693277D02*
G01X1941904Y3693277D01*
G01X1805861Y3835291D02*
G01X1725864Y3835291D01*
G01X1861906Y3835243D02*
G01X1941904Y3835243D01*
G01X1694889Y3724305D02*
G01X1694889Y3804310D01*
G01X1972882Y3804257D02*
G01X1972882Y3724255D01*
G01X1941899Y3835243D02*
G02X1972882Y3804257I0J-30983D01*
G01X1972882Y3724260D02*
G02X1941899Y3693277I-30983J0D01*
G01X1725869Y3693323D02*
G02X1694889Y3724305I3J30983D01*
G01X1694889Y3804303D02*
G02X1725869Y3835291I30983J5D01*
G01X1795701Y2535083D02*
G01X1715704Y2535083D01*
G01X1851746Y2535037D02*
G01X1931744Y2535037D01*
G01X1795701Y2677051D02*
G01X1715704Y2677051D01*
G01X1851746Y2677003D02*
G01X1931744Y2677003D01*
G01X1684729Y2566065D02*
G01X1684729Y2646070D01*
G01X1962722Y2646017D02*
G01X1962722Y2566015D01*
G01X1931739Y2677003D02*
G02X1962722Y2646017I0J-30983D01*
G01X1962722Y2566020D02*
G02X1931739Y2535037I-30983J0D01*
G01X1715709Y2535083D02*
G02X1684729Y2566065I3J30983D01*
G01X1684729Y2646063D02*
G02X1715709Y2677051I30983J5D01*
G01X510619Y2859877D02*
G01X590616Y2859877D01*
G01X454574Y2859923D02*
G01X374576Y2859923D01*
G01X510619Y2717909D02*
G01X590616Y2717909D01*
G01X454574Y2717957D02*
G01X374576Y2717957D01*
G01X621591Y2828895D02*
G01X621591Y2748890D01*
G01X343599Y2748943D02*
G01X343599Y2828945D01*
G01X374581Y2717957D02*
G02X343599Y2748943I0J30983D01*
G01X343599Y2828940D02*
G02X374581Y2859923I30983J0D01*
G01X590611Y2859877D02*
G02X621591Y2828895I-3J-30983D01*
G01X621591Y2748897D02*
G02X590611Y2717909I-30983J-5D01*
G01X795099Y3860637D02*
G01X875096Y3860637D01*
G01X739054Y3860683D02*
G01X659056Y3860683D01*
G01X795099Y3718669D02*
G01X875096Y3718669D01*
G01X739054Y3718717D02*
G01X659056Y3718717D01*
G01X906071Y3829655D02*
G01X906071Y3749650D01*
G01X628079Y3749703D02*
G01X628079Y3829705D01*
G01X659061Y3718717D02*
G02X628079Y3749703I0J30983D01*
G01X628079Y3829700D02*
G02X659061Y3860683I30983J0D01*
G01X875091Y3860637D02*
G02X906071Y3829655I-3J-30983D01*
G01X906071Y3749657D02*
G02X875091Y3718669I-30983J-5D01*
G01X2014141Y3373283D02*
G01X1934144Y3373283D01*
G01X2070186Y3373237D02*
G01X2150184Y3373237D01*
G01X2014141Y3515251D02*
G01X1934144Y3515251D01*
G01X2070186Y3515203D02*
G01X2150184Y3515203D01*
G01X1903169Y3404265D02*
G01X1903169Y3484270D01*
G01X2181162Y3484217D02*
G01X2181162Y3404215D01*
G01X2150179Y3515203D02*
G02X2181162Y3484217I0J-30983D01*
G01X2181162Y3404220D02*
G02X2150179Y3373237I-30983J0D01*
G01X1934149Y3373283D02*
G02X1903169Y3404265I3J30983D01*
G01X1903169Y3484263D02*
G02X1934149Y3515251I30983J5D01*
G01X2585883Y3817699D02*
G01X2585883Y3897696D01*
G01X2585837Y3761654D02*
G01X2585837Y3681656D01*
G01X2727851Y3817699D02*
G01X2727851Y3897696D01*
G01X2727803Y3761654D02*
G01X2727803Y3681656D01*
G01X2616865Y3928671D02*
G01X2696870Y3928671D01*
G01X2696817Y3650679D02*
G01X2616815Y3650679D01*
G01X2727803Y3681661D02*
G02X2696817Y3650679I-30983J0D01*
G01X2616820Y3650679D02*
G02X2585837Y3681661I0J30983D01*
G01X2585883Y3897691D02*
G02X2616865Y3928671I30983J-3D01*
G01X2696863Y3928671D02*
G02X2727851Y3897691I5J-30983D01*
G01X2403003Y3817699D02*
G01X2403003Y3897696D01*
G01X2402957Y3761654D02*
G01X2402957Y3681656D01*
G01X2544971Y3817699D02*
G01X2544971Y3897696D01*
G01X2544923Y3761654D02*
G01X2544923Y3681656D01*
G01X2433985Y3928671D02*
G01X2513990Y3928671D01*
G01X2513937Y3650679D02*
G01X2433935Y3650679D01*
G01X2544923Y3681661D02*
G02X2513937Y3650679I-30983J0D01*
G01X2433940Y3650679D02*
G02X2402957Y3681661I0J30983D01*
G01X2403003Y3897691D02*
G02X2433985Y3928671I30983J-3D01*
G01X2513983Y3928671D02*
G02X2544971Y3897691I5J-30983D01*
G01X2852341Y3408843D02*
G01X2772344Y3408843D01*
G01X2908386Y3408797D02*
G01X2988384Y3408797D01*
G01X2852341Y3550811D02*
G01X2772344Y3550811D01*
G01X2908386Y3550763D02*
G01X2988384Y3550763D01*
G01X2741369Y3439825D02*
G01X2741369Y3519830D01*
G01X3019362Y3519777D02*
G01X3019362Y3439775D01*
G01X2988379Y3550763D02*
G02X3019362Y3519777I0J-30983D01*
G01X3019362Y3439780D02*
G02X2988379Y3408797I-30983J0D01*
G01X2772349Y3408843D02*
G02X2741369Y3439825I3J30983D01*
G01X2741369Y3519823D02*
G02X2772349Y3550811I30983J5D01*
G01X2864957Y3086021D02*
G01X2864957Y3006024D01*
G01X2865003Y3142066D02*
G01X2865003Y3222064D01*
G01X2722989Y3086021D02*
G01X2722989Y3006024D01*
G01X2723037Y3142066D02*
G01X2723037Y3222064D01*
G01X2833975Y2975049D02*
G01X2753970Y2975049D01*
G01X2754023Y3253042D02*
G01X2834025Y3253042D01*
G01X2723037Y3222059D02*
G02X2754023Y3253042I30983J0D01*
G01X2834020Y3253042D02*
G02X2865003Y3222059I0J-30983D01*
G01X2864957Y3006029D02*
G02X2833975Y2975049I-30983J3D01*
G01X2753977Y2975049D02*
G02X2722989Y3006029I-5J30983D01*
G01X2509683Y4838779D02*
G01X2509683Y4918776D01*
G01X2509637Y4782734D02*
G01X2509637Y4702736D01*
G01X2651651Y4838779D02*
G01X2651651Y4918776D01*
G01X2651603Y4782734D02*
G01X2651603Y4702736D01*
G01X2540665Y4949751D02*
G01X2620670Y4949751D01*
G01X2620617Y4671759D02*
G01X2540615Y4671759D01*
G01X2651603Y4702741D02*
G02X2620617Y4671759I-30983J0D01*
G01X2540620Y4671759D02*
G02X2509637Y4702741I0J30983D01*
G01X2509683Y4918771D02*
G02X2540665Y4949751I30983J-3D01*
G01X2620663Y4949751D02*
G02X2651651Y4918771I5J-30983D01*
G01X2702723Y4838779D02*
G01X2702723Y4918776D01*
G01X2702677Y4782734D02*
G01X2702677Y4702736D01*
G01X2844691Y4838779D02*
G01X2844691Y4918776D01*
G01X2844643Y4782734D02*
G01X2844643Y4702736D01*
G01X2733705Y4949751D02*
G01X2813710Y4949751D01*
G01X2813657Y4671759D02*
G01X2733655Y4671759D01*
G01X2844643Y4702741D02*
G02X2813657Y4671759I-30983J0D01*
G01X2733660Y4671759D02*
G02X2702677Y4702741I0J30983D01*
G01X2702723Y4918771D02*
G02X2733705Y4949751I30983J-3D01*
G01X2813703Y4949751D02*
G02X2844691Y4918771I5J-30983D01*
G01X1945477Y5808901D02*
G01X1945477Y5728904D01*
G01X1945523Y5864946D02*
G01X1945523Y5944944D01*
G01X1803509Y5808901D02*
G01X1803509Y5728904D01*
G01X1803557Y5864946D02*
G01X1803557Y5944944D01*
G01X1914495Y5697929D02*
G01X1834490Y5697929D01*
G01X1834543Y5975922D02*
G01X1914545Y5975922D01*
G01X1803557Y5944939D02*
G02X1834543Y5975922I30983J0D01*
G01X1914540Y5975922D02*
G02X1945523Y5944939I0J-30983D01*
G01X1945477Y5728909D02*
G02X1914495Y5697929I-30983J3D01*
G01X1834497Y5697929D02*
G02X1803509Y5728909I-5J30983D01*
G01X1630843Y5864939D02*
G01X1630843Y5944936D01*
G01X1630797Y5808894D02*
G01X1630797Y5728896D01*
G01X1772811Y5864939D02*
G01X1772811Y5944936D01*
G01X1772763Y5808894D02*
G01X1772763Y5728896D01*
G01X1661825Y5975911D02*
G01X1741830Y5975911D01*
G01X1741777Y5697919D02*
G01X1661775Y5697919D01*
G01X1772763Y5728901D02*
G02X1741777Y5697919I-30983J0D01*
G01X1661780Y5697919D02*
G02X1630797Y5728901I0J30983D01*
G01X1630843Y5944931D02*
G02X1661825Y5975911I30983J-3D01*
G01X1741823Y5975911D02*
G02X1772811Y5944931I5J-30983D01*
G01X2438237Y5808901D02*
G01X2438237Y5728904D01*
G01X2438283Y5864946D02*
G01X2438283Y5944944D01*
G01X2296269Y5808901D02*
G01X2296269Y5728904D01*
G01X2296317Y5864946D02*
G01X2296317Y5944944D01*
G01X2407255Y5697929D02*
G01X2327250Y5697929D01*
G01X2327303Y5975922D02*
G01X2407305Y5975922D01*
G01X2296317Y5944939D02*
G02X2327303Y5975922I30983J0D01*
G01X2407300Y5975922D02*
G02X2438283Y5944939I0J-30983D01*
G01X2438237Y5728909D02*
G02X2407255Y5697929I-30983J3D01*
G01X2327257Y5697929D02*
G02X2296269Y5728909I-5J30983D01*
G01X2600797Y5808901D02*
G01X2600797Y5728904D01*
G01X2600843Y5864946D02*
G01X2600843Y5944944D01*
G01X2458829Y5808901D02*
G01X2458829Y5728904D01*
G01X2458877Y5864946D02*
G01X2458877Y5944944D01*
G01X2569815Y5697929D02*
G01X2489810Y5697929D01*
G01X2489863Y5975922D02*
G01X2569865Y5975922D01*
G01X2458877Y5944939D02*
G02X2489863Y5975922I30983J0D01*
G01X2569860Y5975922D02*
G02X2600843Y5944939I0J-30983D01*
G01X2600797Y5728909D02*
G02X2569815Y5697929I-30983J3D01*
G01X2489817Y5697929D02*
G02X2458829Y5728909I-5J30983D01*
G01X1808643Y5113099D02*
G01X1808643Y5193096D01*
G01X1808597Y5057054D02*
G01X1808597Y4977056D01*
G01X1950611Y5113099D02*
G01X1950611Y5193096D01*
G01X1950563Y5057054D02*
G01X1950563Y4977056D01*
G01X1839625Y5224071D02*
G01X1919630Y5224071D01*
G01X1919577Y4946079D02*
G01X1839575Y4946079D01*
G01X1950563Y4977061D02*
G02X1919577Y4946079I-30983J0D01*
G01X1839580Y4946079D02*
G02X1808597Y4977061I0J30983D01*
G01X1808643Y5193091D02*
G02X1839625Y5224071I30983J-3D01*
G01X1919623Y5224071D02*
G02X1950611Y5193091I5J-30983D01*
G01X2728123Y5560139D02*
G01X2728123Y5640136D01*
G01X2728077Y5504094D02*
G01X2728077Y5424096D01*
G01X2870091Y5560139D02*
G01X2870091Y5640136D01*
G01X2870043Y5504094D02*
G01X2870043Y5424096D01*
G01X2759105Y5671111D02*
G01X2839110Y5671111D01*
G01X2839057Y5393119D02*
G01X2759055Y5393119D01*
G01X2870043Y5424101D02*
G02X2839057Y5393119I-30983J0D01*
G01X2759060Y5393119D02*
G02X2728077Y5424101I0J30983D01*
G01X2728123Y5640131D02*
G02X2759105Y5671111I30983J-3D01*
G01X2839103Y5671111D02*
G02X2870091Y5640131I5J-30983D01*
G01X3037677Y5199301D02*
G01X3037677Y5119304D01*
G01X3037723Y5255346D02*
G01X3037723Y5335344D01*
G01X2895709Y5199301D02*
G01X2895709Y5119304D01*
G01X2895757Y5255346D02*
G01X2895757Y5335344D01*
G01X3006695Y5088329D02*
G01X2926690Y5088329D01*
G01X2926743Y5366322D02*
G01X3006745Y5366322D01*
G01X2895757Y5335339D02*
G02X2926743Y5366322I30983J0D01*
G01X3006740Y5366322D02*
G02X3037723Y5335339I0J-30983D01*
G01X3037677Y5119309D02*
G02X3006695Y5088329I-30983J3D01*
G01X2926697Y5088329D02*
G02X2895709Y5119309I-5J30983D01*
G01X1897459Y761837D02*
G01X1977456Y761837D01*
G01X1841414Y761883D02*
G01X1761416Y761883D01*
G01X1897459Y619869D02*
G01X1977456Y619869D01*
G01X1841414Y619917D02*
G01X1761416Y619917D01*
G01X2008431Y730855D02*
G01X2008431Y650850D01*
G01X1730439Y650903D02*
G01X1730439Y730905D01*
G01X1761421Y619917D02*
G02X1730439Y650903I0J30983D01*
G01X1730439Y730900D02*
G02X1761421Y761883I30983J0D01*
G01X1977451Y761837D02*
G02X2008431Y730855I-3J-30983D01*
G01X2008431Y650857D02*
G02X1977451Y619869I-30983J-5D01*
G01X1892379Y558637D02*
G01X1972376Y558637D01*
G01X1836334Y558683D02*
G01X1756336Y558683D01*
G01X1892379Y416669D02*
G01X1972376Y416669D01*
G01X1836334Y416717D02*
G01X1756336Y416717D01*
G01X2003351Y527655D02*
G01X2003351Y447650D01*
G01X1725359Y447703D02*
G01X1725359Y527705D01*
G01X1756341Y416717D02*
G02X1725359Y447703I0J30983D01*
G01X1725359Y527700D02*
G02X1756341Y558683I30983J0D01*
G01X1972371Y558637D02*
G02X2003351Y527655I-3J-30983D01*
G01X2003351Y447657D02*
G02X1972371Y416669I-30983J-5D01*
G01X1892379Y365597D02*
G01X1972376Y365597D01*
G01X1836334Y365643D02*
G01X1756336Y365643D01*
G01X1892379Y223629D02*
G01X1972376Y223629D01*
G01X1836334Y223677D02*
G01X1756336Y223677D01*
G01X2003351Y334615D02*
G01X2003351Y254610D01*
G01X1725359Y254663D02*
G01X1725359Y334665D01*
G01X1756341Y223677D02*
G02X1725359Y254663I0J30983D01*
G01X1725359Y334660D02*
G02X1756341Y365643I30983J0D01*
G01X1972371Y365597D02*
G02X2003351Y334615I-3J-30983D01*
G01X2003351Y254617D02*
G02X1972371Y223629I-30983J-5D01*
G01X4826295Y3225099D02*
G01X4251297Y3225099D01*
G01X4826295Y4725099D02*
G01X4826295Y3225099D01*
G01X4251297Y3225099D02*
G01X4251297Y4725099D01*
G01X4251297Y4725099D02*
G01X4826295Y4725099D01*
G01X4826000Y4076700D02*
G01X4826000Y3873500D01*
G01X4572000Y3873500D01*
G01X4572000Y4076700D01*
G01X4826000Y4076700D01*
G01X4012217Y2864711D02*
G01X4012217Y3021599D01*
G01X4012217Y3021599D02*
G01X4307200Y3021599D01*
G01X4307200Y3021599D02*
G01X4317200Y3021599D01*
G01X4317200Y3021599D02*
G01X4317200Y3141599D01*
G01X4317200Y3141599D02*
G01X4447200Y3141599D01*
G01X4012217Y2666591D02*
G01X4012217Y2668481D01*
G01X4012217Y2418479D02*
G01X4012217Y2271601D01*
G01X4012217Y2271601D02*
G01X4317200Y2271601D01*
G01X4317200Y2271601D02*
G01X4317200Y2141601D01*
G01X4317200Y2141601D02*
G01X4447200Y2141601D01*
G01X4012217Y2630775D02*
G01X4012217Y2614709D01*
G01X4787897Y2316701D02*
G01X4787897Y2966499D01*
G01X4012217Y2616591D02*
G01X4012217Y2666591D01*
G01X544484Y4938759D02*
G01X473879Y4871685D01*
G01X473879Y4871685D02*
G01X431177Y4916634D01*
G01X758622Y5218051D02*
G01X796502Y5178177D01*
G01X796502Y5178177D02*
G01X726623Y5111791D01*
G01X598780Y5604821D02*
G01X62281Y5095148D01*
G01X62281Y5095148D02*
G01X101458Y5053909D01*
G01X598780Y5604821D02*
G01X637956Y5563583D01*
G01X726623Y1276309D02*
G01X797228Y1209234D01*
G01X797228Y1209234D02*
G01X754526Y1164285D01*
G01X436724Y1475852D02*
G01X474605Y1515726D01*
G01X474605Y1515726D02*
G01X544484Y1449341D01*
G01X58654Y1296399D02*
G01X595152Y786725D01*
G01X595152Y786725D02*
G01X634329Y827964D01*
G01X58654Y1296399D02*
G01X97830Y1337637D01*
G01X4137477Y5119411D02*
G01X4066872Y5186486D01*
G01X4066872Y5186486D02*
G01X4109574Y5231435D01*
G01X4427376Y4919868D02*
G01X4389495Y4879994D01*
G01X4389495Y4879994D02*
G01X4319616Y4946379D01*
G01X4805446Y5099321D02*
G01X4268948Y5608995D01*
G01X4268948Y5608995D02*
G01X4229771Y5567756D01*
G01X4805446Y5099321D02*
G01X4766270Y5058083D01*
G01X4306916Y1449341D02*
G01X4377521Y1516415D01*
G01X4377521Y1516415D02*
G01X4420223Y1471466D01*
G01X4092778Y1170049D02*
G01X4054898Y1209923D01*
G01X4054898Y1209923D02*
G01X4124777Y1276309D01*
G01X4252620Y783279D02*
G01X4789119Y1292952D01*
G01X4789119Y1292952D02*
G01X4749942Y1334191D01*
G01X4252620Y783279D02*
G01X4213444Y824517D01*
G54D11*
G01X2250440Y5825856D02*
G01X2265850Y5810621D01*
G01X2265850Y5810621D02*
G01X2265850Y5708978D01*
G01X2265850Y5708978D02*
G01X2250440Y5695721D01*
G01X1996440Y5695721D02*
G01X1981025Y5710822D01*
G01X1981025Y5710822D02*
G01X1981025Y5812465D01*
G01X1981025Y5812465D02*
G01X1996440Y5825721D01*
G54D13*
G01X2250641Y5695721D02*
G01X2174441Y5695721D01*
G01X1996234Y5825721D02*
G01X2072434Y5825721D01*
G01X2250641Y5825721D02*
G01X2174441Y5825721D01*
G01X1996234Y5695721D02*
G01X2072434Y5695721D01*
G54D11*
G01X2255520Y5673456D02*
G01X2270930Y5658221D01*
G01X2270930Y5658221D02*
G01X2270930Y5556578D01*
G01X2270930Y5556578D02*
G01X2255520Y5543321D01*
G01X2001520Y5543321D02*
G01X1986105Y5558422D01*
G01X1986105Y5558422D02*
G01X1986105Y5660065D01*
G01X1986105Y5660065D02*
G01X2001520Y5673321D01*
G54D13*
G01X2255721Y5543321D02*
G01X2179521Y5543321D01*
G01X2001314Y5673321D02*
G01X2077514Y5673321D01*
G01X2255721Y5673321D02*
G01X2179521Y5673321D01*
G01X2001314Y5543321D02*
G01X2077514Y5543321D01*
G54D11*
G01X2311400Y5543184D02*
G01X2295990Y5558419D01*
G01X2295990Y5558419D02*
G01X2295990Y5660062D01*
G01X2295990Y5660062D02*
G01X2311400Y5673319D01*
G01X2565400Y5673319D02*
G01X2580815Y5658218D01*
G01X2580815Y5658218D02*
G01X2580815Y5556575D01*
G01X2580815Y5556575D02*
G01X2565400Y5543319D01*
G54D13*
G01X2311199Y5673319D02*
G01X2387399Y5673319D01*
G01X2565606Y5543319D02*
G01X2489406Y5543319D01*
G01X2311199Y5543319D02*
G01X2387399Y5543319D01*
G01X2565606Y5673319D02*
G01X2489406Y5673319D01*
G54D11*
G01X1311504Y5497502D02*
G01X1232611Y5497502D01*
G01X1232611Y5497502D02*
G01X1232611Y5597218D01*
G01X1232611Y5597218D02*
G01X1311504Y5597218D01*
G01X1370736Y5497502D02*
G01X1434391Y5497502D01*
G01X1434391Y5497502D02*
G01X1449629Y5512740D01*
G01X1449629Y5512740D02*
G01X1449629Y5581980D01*
G01X1449629Y5581980D02*
G01X1434391Y5597218D01*
G01X1434391Y5597218D02*
G01X1370736Y5597218D01*
G36*
G01X1464869Y5512740D02*
G01X1464869Y5581980D01*
G01X1480109Y5581980D01*
G01X1480109Y5512740D01*
G01X1464869Y5512740D01*
G37*
G01X3495904Y5624502D02*
G01X3417011Y5624502D01*
G01X3417011Y5624502D02*
G01X3417011Y5724218D01*
G01X3417011Y5724218D02*
G01X3495904Y5724218D01*
G01X3555136Y5624502D02*
G01X3618791Y5624502D01*
G01X3618791Y5624502D02*
G01X3634029Y5639740D01*
G01X3634029Y5639740D02*
G01X3634029Y5708980D01*
G01X3634029Y5708980D02*
G01X3618791Y5724218D01*
G01X3618791Y5724218D02*
G01X3555136Y5724218D01*
G36*
G01X3649269Y5639740D02*
G01X3649269Y5708980D01*
G01X3664509Y5708980D01*
G01X3664509Y5639740D01*
G01X3649269Y5639740D01*
G37*
G01X3254463Y941757D02*
G01X3175570Y941757D01*
G01X3175570Y941757D02*
G01X3175570Y1041472D01*
G01X3175570Y1041472D02*
G01X3254463Y1041472D01*
G01X3313695Y941757D02*
G01X3377350Y941757D01*
G01X3377350Y941757D02*
G01X3392588Y956995D01*
G01X3392588Y956995D02*
G01X3392588Y1026235D01*
G01X3392588Y1026235D02*
G01X3377350Y1041472D01*
G01X3377350Y1041472D02*
G01X3313695Y1041472D01*
G36*
G01X3407828Y956995D02*
G01X3407828Y1026235D01*
G01X3423068Y1026235D01*
G01X3423068Y956995D01*
G01X3407828Y956995D01*
G37*
G01X1347064Y920422D02*
G01X1268171Y920422D01*
G01X1268171Y920422D02*
G01X1268171Y1020138D01*
G01X1268171Y1020138D02*
G01X1347064Y1020138D01*
G01X1406296Y920422D02*
G01X1469951Y920422D01*
G01X1469951Y920422D02*
G01X1485189Y935660D01*
G01X1485189Y935660D02*
G01X1485189Y1004900D01*
G01X1485189Y1004900D02*
G01X1469951Y1020138D01*
G01X1469951Y1020138D02*
G01X1406296Y1020138D01*
G36*
G01X1500429Y935660D02*
G01X1500429Y1004900D01*
G01X1515669Y1004900D01*
G01X1515669Y935660D01*
G01X1500429Y935660D01*
G37*
G01X3524656Y3656658D02*
G01X3603549Y3656658D01*
G01X3603549Y3656658D02*
G01X3603549Y3556942D01*
G01X3603549Y3556942D02*
G01X3524656Y3556942D01*
G01X3465424Y3656658D02*
G01X3401769Y3656658D01*
G01X3401769Y3656658D02*
G01X3386531Y3641420D01*
G01X3386531Y3641420D02*
G01X3386531Y3572180D01*
G01X3386531Y3572180D02*
G01X3401769Y3556942D01*
G01X3401769Y3556942D02*
G01X3465424Y3556942D01*
G36*
G01X3371291Y3641420D02*
G01X3371291Y3572180D01*
G01X3356051Y3572180D01*
G01X3356051Y3641420D01*
G01X3371291Y3641420D01*
G37*
G01X3467710Y3302942D02*
G01X3388817Y3302942D01*
G01X3388817Y3302942D02*
G01X3388817Y3402658D01*
G01X3388817Y3402658D02*
G01X3467710Y3402658D01*
G01X3526942Y3302942D02*
G01X3590597Y3302942D01*
G01X3590597Y3302942D02*
G01X3605835Y3318180D01*
G01X3605835Y3318180D02*
G01X3605835Y3387420D01*
G01X3605835Y3387420D02*
G01X3590597Y3402658D01*
G01X3590597Y3402658D02*
G01X3526942Y3402658D01*
G36*
G01X3621075Y3318180D02*
G01X3621075Y3387420D01*
G01X3636315Y3387420D01*
G01X3636315Y3318180D01*
G01X3621075Y3318180D01*
G37*
G01X3529736Y3148658D02*
G01X3608629Y3148658D01*
G01X3608629Y3148658D02*
G01X3608629Y3048942D01*
G01X3608629Y3048942D02*
G01X3529736Y3048942D01*
G01X3470504Y3148658D02*
G01X3406849Y3148658D01*
G01X3406849Y3148658D02*
G01X3391611Y3133420D01*
G01X3391611Y3133420D02*
G01X3391611Y3064180D01*
G01X3391611Y3064180D02*
G01X3406849Y3048942D01*
G01X3406849Y3048942D02*
G01X3470504Y3048942D01*
G36*
G01X3376371Y3133420D02*
G01X3376371Y3064180D01*
G01X3361131Y3064180D01*
G01X3361131Y3133420D01*
G01X3376371Y3133420D01*
G37*
G01X3467710Y2810182D02*
G01X3388817Y2810182D01*
G01X3388817Y2810182D02*
G01X3388817Y2909898D01*
G01X3388817Y2909898D02*
G01X3467710Y2909898D01*
G01X3526942Y2810182D02*
G01X3590597Y2810182D01*
G01X3590597Y2810182D02*
G01X3605835Y2825420D01*
G01X3605835Y2825420D02*
G01X3605835Y2894660D01*
G01X3605835Y2894660D02*
G01X3590597Y2909898D01*
G01X3590597Y2909898D02*
G01X3526942Y2909898D01*
G36*
G01X3621075Y2825420D02*
G01X3621075Y2894660D01*
G01X3636315Y2894660D01*
G01X3636315Y2825420D01*
G01X3621075Y2825420D01*
G37*
G01X939579Y5188181D02*
G01X939579Y5042939D01*
G01X939579Y5042939D02*
G01X1042741Y5042939D01*
G01X1244821Y5188181D02*
G01X1244821Y5042939D01*
G01X1244821Y5042939D02*
G01X1141659Y5042939D01*
G01X1046660Y5188181D02*
G01X1137740Y5188181D01*
G01X472219Y1830301D02*
G01X472219Y1685059D01*
G01X472219Y1685059D02*
G01X575381Y1685059D01*
G01X777461Y1830301D02*
G01X777461Y1685059D01*
G01X777461Y1685059D02*
G01X674299Y1685059D01*
G01X579300Y1830301D02*
G01X670380Y1830301D01*
G01X3642139Y5208501D02*
G01X3642139Y5063259D01*
G01X3642139Y5063259D02*
G01X3745301Y5063259D01*
G01X3947381Y5208501D02*
G01X3947381Y5063259D01*
G01X3947381Y5063259D02*
G01X3844219Y5063259D01*
G01X3749220Y5208501D02*
G01X3840300Y5208501D01*
G01X3967701Y1293899D02*
G01X3967701Y1439141D01*
G01X3967701Y1439141D02*
G01X3864539Y1439141D01*
G01X3662459Y1293899D02*
G01X3662459Y1439141D01*
G01X3662459Y1439141D02*
G01X3765621Y1439141D01*
G01X3860620Y1293899D02*
G01X3769540Y1293899D01*
G01X3103659Y2424661D02*
G01X3103659Y2279419D01*
G01X3103659Y2279419D02*
G01X3206821Y2279419D01*
G01X3408901Y2424661D02*
G01X3408901Y2279419D01*
G01X3408901Y2279419D02*
G01X3305739Y2279419D01*
G01X3210740Y2424661D02*
G01X3301820Y2424661D01*
G01X1054659Y4246900D02*
G01X958771Y4246900D01*
G01X958771Y4246900D02*
G01X958771Y4114780D01*
G01X958771Y4114780D02*
G01X1054659Y4114780D01*
G01X1139901Y4246900D02*
G01X1235789Y4246900D01*
G01X1235789Y4246900D02*
G01X1235789Y4114780D01*
G01X1235789Y4114780D02*
G01X1139901Y4114780D01*
G01X2379421Y2971780D02*
G01X2475309Y2971780D01*
G01X2475309Y2971780D02*
G01X2475309Y3103900D01*
G01X2475309Y3103900D02*
G01X2379421Y3103900D01*
G01X2294179Y2971780D02*
G01X2198291Y2971780D01*
G01X2198291Y2971780D02*
G01X2198291Y3103900D01*
G01X2198291Y3103900D02*
G01X2294179Y3103900D01*
G01X2021820Y3046019D02*
G01X2021820Y2950131D01*
G01X2021820Y2950131D02*
G01X2153940Y2950131D01*
G01X2153940Y2950131D02*
G01X2153940Y3046019D01*
G01X2021820Y3131261D02*
G01X2021820Y3227149D01*
G01X2021820Y3227149D02*
G01X2153940Y3227149D01*
G01X2153940Y3227149D02*
G01X2153940Y3131261D01*
G01X2832659Y3388380D02*
G01X2736771Y3388380D01*
G01X2736771Y3388380D02*
G01X2736771Y3256260D01*
G01X2736771Y3256260D02*
G01X2832659Y3256260D01*
G01X2917901Y3388380D02*
G01X3013789Y3388380D01*
G01X3013789Y3388380D02*
G01X3013789Y3256260D01*
G01X3013789Y3256260D02*
G01X2917901Y3256260D01*
G01X1945660Y5437581D02*
G01X1945660Y5533469D01*
G01X1945660Y5533469D02*
G01X1813540Y5533469D01*
G01X1813540Y5533469D02*
G01X1813540Y5437581D01*
G01X1945660Y5352339D02*
G01X1945660Y5256451D01*
G01X1945660Y5256451D02*
G01X1813540Y5256451D01*
G01X1813540Y5256451D02*
G01X1813540Y5352339D01*
G01X2865140Y5269941D02*
G01X2865140Y5365829D01*
G01X2865140Y5365829D02*
G01X2733020Y5365829D01*
G01X2733020Y5365829D02*
G01X2733020Y5269941D01*
G01X2865140Y5184699D02*
G01X2865140Y5088811D01*
G01X2865140Y5088811D02*
G01X2733020Y5088811D01*
G01X2733020Y5088811D02*
G01X2733020Y5184699D01*
G01X2862021Y248900D02*
G01X2957909Y248900D01*
G01X2957909Y248900D02*
G01X2957909Y381020D01*
G01X2957909Y381020D02*
G01X2862021Y381020D01*
G01X2776779Y248900D02*
G01X2680891Y248900D01*
G01X2680891Y248900D02*
G01X2680891Y381020D01*
G01X2680891Y381020D02*
G01X2776779Y381020D01*
G01X2862021Y416540D02*
G01X2957909Y416540D01*
G01X2957909Y416540D02*
G01X2957909Y548660D01*
G01X2957909Y548660D02*
G01X2862021Y548660D01*
G01X2776779Y416540D02*
G01X2680891Y416540D01*
G01X2680891Y416540D02*
G01X2680891Y548660D01*
G01X2680891Y548660D02*
G01X2776779Y548660D01*
G01X2352020Y602539D02*
G01X2352020Y506651D01*
G01X2352020Y506651D02*
G01X2484140Y506651D01*
G01X2484140Y506651D02*
G01X2484140Y602539D01*
G01X2352020Y687781D02*
G01X2352020Y783669D01*
G01X2352020Y783669D02*
G01X2484140Y783669D01*
G01X2484140Y783669D02*
G01X2484140Y687781D01*
G01X2189460Y602539D02*
G01X2189460Y506651D01*
G01X2189460Y506651D02*
G01X2321580Y506651D01*
G01X2321580Y506651D02*
G01X2321580Y602539D01*
G01X2189460Y687781D02*
G01X2189460Y783669D01*
G01X2189460Y783669D02*
G01X2321580Y783669D01*
G01X2321580Y783669D02*
G01X2321580Y687781D01*
G01X1564660Y5178501D02*
G01X1564660Y5274389D01*
G01X1564660Y5274389D02*
G01X1432540Y5274389D01*
G01X1432540Y5274389D02*
G01X1432540Y5178501D01*
G01X1564660Y5093259D02*
G01X1564660Y4997371D01*
G01X1564660Y4997371D02*
G01X1432540Y4997371D01*
G01X1432540Y4997371D02*
G01X1432540Y5093259D01*
G01X1407180Y5178501D02*
G01X1407180Y5274389D01*
G01X1407180Y5274389D02*
G01X1275060Y5274389D01*
G01X1275060Y5274389D02*
G01X1275060Y5178501D01*
G01X1407180Y5093259D02*
G01X1407180Y4997371D01*
G01X1407180Y4997371D02*
G01X1275060Y4997371D01*
G01X1275060Y4997371D02*
G01X1275060Y5093259D01*
G01X484723Y2073346D02*
G01X484723Y1977459D01*
G01X484723Y1977459D02*
G01X616844Y1977459D01*
G01X616844Y1977459D02*
G01X616844Y2073346D01*
G01X484723Y2158589D02*
G01X484723Y2254476D01*
G01X484723Y2254476D02*
G01X616844Y2254476D01*
G01X616844Y2254476D02*
G01X616844Y2158589D01*
G01X660380Y2075739D02*
G01X660380Y1979851D01*
G01X660380Y1979851D02*
G01X792500Y1979851D01*
G01X792500Y1979851D02*
G01X792500Y2075739D01*
G01X660380Y2160981D02*
G01X660380Y2256869D01*
G01X660380Y2256869D02*
G01X792500Y2256869D01*
G01X792500Y2256869D02*
G01X792500Y2160981D01*
G01X3622060Y5351221D02*
G01X3622060Y5447109D01*
G01X3622060Y5447109D02*
G01X3489940Y5447109D01*
G01X3489940Y5447109D02*
G01X3489940Y5351221D01*
G01X3622060Y5265979D02*
G01X3622060Y5170091D01*
G01X3622060Y5170091D02*
G01X3489940Y5170091D01*
G01X3489940Y5170091D02*
G01X3489940Y5265979D01*
G01X3837381Y5303500D02*
G01X3933269Y5303500D01*
G01X3933269Y5303500D02*
G01X3933269Y5435620D01*
G01X3933269Y5435620D02*
G01X3837381Y5435620D01*
G01X3752139Y5303500D02*
G01X3656251Y5303500D01*
G01X3656251Y5303500D02*
G01X3656251Y5435620D01*
G01X3656251Y5435620D02*
G01X3752139Y5435620D01*
G01X3495020Y1298499D02*
G01X3495020Y1202611D01*
G01X3495020Y1202611D02*
G01X3627140Y1202611D01*
G01X3627140Y1202611D02*
G01X3627140Y1298499D01*
G01X3495020Y1383741D02*
G01X3495020Y1479629D01*
G01X3495020Y1479629D02*
G01X3627140Y1479629D01*
G01X3627140Y1479629D02*
G01X3627140Y1383741D01*
G01X3327380Y1303579D02*
G01X3327380Y1207691D01*
G01X3327380Y1207691D02*
G01X3459500Y1207691D01*
G01X3459500Y1207691D02*
G01X3459500Y1303579D01*
G01X3327380Y1388821D02*
G01X3327380Y1484709D01*
G01X3327380Y1484709D02*
G01X3459500Y1484709D01*
G01X3459500Y1484709D02*
G01X3459500Y1388821D01*
G01X1640820Y5474259D02*
G01X1640820Y5378371D01*
G01X1640820Y5378371D02*
G01X1772940Y5378371D01*
G01X1772940Y5378371D02*
G01X1772940Y5474259D01*
G01X1640820Y5559501D02*
G01X1640820Y5655389D01*
G01X1640820Y5655389D02*
G01X1772940Y5655389D01*
G01X1772940Y5655389D02*
G01X1772940Y5559501D01*
G01X3246100Y5591099D02*
G01X3246100Y5495211D01*
G01X3246100Y5495211D02*
G01X3378220Y5495211D01*
G01X3378220Y5495211D02*
G01X3378220Y5591099D01*
G01X3246100Y5676341D02*
G01X3246100Y5772229D01*
G01X3246100Y5772229D02*
G01X3378220Y5772229D01*
G01X3378220Y5772229D02*
G01X3378220Y5676341D01*
G01X2974899Y1041420D02*
G01X2879011Y1041420D01*
G01X2879011Y1041420D02*
G01X2879011Y909300D01*
G01X2879011Y909300D02*
G01X2974899Y909300D01*
G01X3060141Y1041420D02*
G01X3156029Y1041420D01*
G01X3156029Y1041420D02*
G01X3156029Y909300D01*
G01X3156029Y909300D02*
G01X3060141Y909300D01*
G01X1444701Y1041380D02*
G01X1540589Y1041380D01*
G01X1540589Y1041380D02*
G01X1540589Y1173500D01*
G01X1540589Y1173500D02*
G01X1444701Y1173500D01*
G01X1359459Y1041380D02*
G01X1263571Y1041380D01*
G01X1263571Y1041380D02*
G01X1263571Y1173500D01*
G01X1263571Y1173500D02*
G01X1359459Y1173500D01*
G01X3090621Y2113260D02*
G01X3186509Y2113260D01*
G01X3186509Y2113260D02*
G01X3186509Y2245380D01*
G01X3186509Y2245380D02*
G01X3090621Y2245380D01*
G01X3005379Y2113260D02*
G01X2909491Y2113260D01*
G01X2909491Y2113260D02*
G01X2909491Y2245380D01*
G01X2909491Y2245380D02*
G01X3005379Y2245380D01*
G01X3005379Y2087900D02*
G01X2909491Y2087900D01*
G01X2909491Y2087900D02*
G01X2909491Y1955780D01*
G01X2909491Y1955780D02*
G01X3005379Y1955780D01*
G01X3090621Y2087900D02*
G01X3186509Y2087900D01*
G01X3186509Y2087900D02*
G01X3186509Y1955780D01*
G01X3186509Y1955780D02*
G01X3090621Y1955780D01*
G01X3561100Y2481021D02*
G01X3561100Y2576909D01*
G01X3561100Y2576909D02*
G01X3428980Y2576909D01*
G01X3428980Y2576909D02*
G01X3428980Y2481021D01*
G01X3561100Y2395779D02*
G01X3561100Y2299891D01*
G01X3561100Y2299891D02*
G01X3428980Y2299891D01*
G01X3428980Y2299891D02*
G01X3428980Y2395779D01*
G01X3288741Y2529820D02*
G01X3384629Y2529820D01*
G01X3384629Y2529820D02*
G01X3384629Y2661940D01*
G01X3384629Y2661940D02*
G01X3288741Y2661940D01*
G01X3203499Y2529820D02*
G01X3107611Y2529820D01*
G01X3107611Y2529820D02*
G01X3107611Y2661940D01*
G01X3107611Y2661940D02*
G01X3203499Y2661940D01*
G01X772140Y3960419D02*
G01X772140Y3864531D01*
G01X772140Y3864531D02*
G01X904260Y3864531D01*
G01X904260Y3864531D02*
G01X904260Y3960419D01*
G01X772140Y4045661D02*
G01X772140Y4141549D01*
G01X772140Y4141549D02*
G01X904260Y4141549D01*
G01X904260Y4141549D02*
G01X904260Y4045661D01*
G54D12*
G01X299720Y3916680D02*
G01X299720Y3815080D01*
G01X96520Y3916680D02*
G01X96520Y3815080D01*
G01X252501Y3645891D02*
G01X143739Y3645891D01*
G01X350507Y3729238D02*
G01X350507Y4002522D01*
G01X252501Y4085869D02*
G01X143739Y4085869D01*
G01X43129Y4003990D02*
G01X43129Y3727770D01*
G01X299720Y3815080D02*
G02X96520Y3815080I-101600J0D01*
G01X96520Y3916680D02*
G02X299720Y3916680I101600J0D01*
G01X4495800Y1993900D02*
G01X4597400Y1993900D01*
G01X4495800Y1790700D02*
G01X4597400Y1790700D01*
G01X4766589Y1946681D02*
G01X4766589Y1837919D01*
G01X4683242Y2044687D02*
G01X4409958Y2044687D01*
G01X4326611Y1946681D02*
G01X4326611Y1837919D01*
G01X4408490Y1737309D02*
G01X4684710Y1737309D01*
G01X4597400Y1993900D02*
G02X4597400Y1790700I0J-101600D01*
G01X4495800Y1790700D02*
G02X4495800Y1993900I0J101600D01*
G54D14*
G01X1583690Y3479800D02*
G01X1583690Y2860040D01*
G01X1583690Y2860040D02*
G01X918210Y2860040D01*
G01X918210Y2860040D02*
G01X918210Y3522980D01*
G01X918210Y3522980D02*
G01X1583690Y3522980D01*
G01X1583690Y3522980D02*
G01X1583690Y3446780D01*
G54D15*
G01X843681Y3529239D02*
G03X803682Y3529112I-20000J-127D01*
G03X843681Y3528985I20000J0D01*
G54D14*
G01X2660256Y3194467D02*
G01X2660256Y3154456D01*
G01X2660256Y3154456D02*
G01X2620254Y3154456D01*
G01X2270239Y3154456D02*
G01X2230242Y3154456D01*
G01X2230242Y3154456D02*
G01X2230242Y3194467D01*
G01X2230242Y3544473D02*
G01X2230242Y3584484D01*
G01X2230242Y3584484D02*
G01X2270239Y3584484D01*
G01X2660256Y3544473D02*
G01X2660256Y3584484D01*
G01X2660256Y3584484D02*
G01X2620254Y3584484D01*
G36*
G01X2304298Y3115594D02*
G01X2304298Y3115340D01*
G02X2253498Y3115467I-25400J127D01*
G02X2304298Y3115594I25400J0D01*
G37*
G01X2454021Y5376692D02*
G01X2454021Y5439194D01*
G01X2454021Y5439194D02*
G01X2391519Y5439194D01*
G01X2086521Y5439194D02*
G01X2024019Y5439194D01*
G01X2024019Y5439194D02*
G01X2024019Y5376692D01*
G01X2086521Y5009192D02*
G01X2024019Y5009192D01*
G01X2024019Y5009192D02*
G01X2024019Y5071694D01*
G01X2391519Y5009192D02*
G01X2454021Y5009192D01*
G01X2454021Y5009192D02*
G01X2454021Y5071694D01*
G54D16*
G01X2043948Y4971717D02*
G03X2044075Y4941715I127J-15001D01*
G03X2044202Y4971717I0J15001D01*
G54D11*
G01X35352Y3443900D02*
G01X371074Y3443900D01*
G01X371074Y3443900D02*
G01X371074Y3038180D01*
G01X371074Y3038180D02*
G01X35352Y3038180D01*
G01X35352Y3038180D02*
G01X35352Y3443900D01*
G01X178211Y3466760D02*
G01X12492Y3466760D01*
G01X12492Y3466760D02*
G01X12492Y3281040D01*
G01X3200657Y5483857D02*
G01X3044957Y5483857D01*
G01X3044957Y5483857D02*
G01X3044957Y5318249D01*
G01X3067863Y5461061D02*
G01X3373582Y5461061D01*
G01X3373582Y5461061D02*
G01X3373582Y5105339D01*
G01X3373582Y5105339D02*
G01X3067863Y5105339D01*
G01X3067863Y5105339D02*
G01X3067863Y5461061D01*

G04 Circle Start*
G54D15*
G01X3882225Y2325611D02*
G03X3922205Y2325611I19990J0D01*
G03X3882225Y2325611I-19990J0D01*
G54D12*
G01X777423Y5094876D02*
G03X802823Y5094876I12700J0D01*
G03X777423Y5094876I-12700J0D01*
G01X545423Y1513624D02*
G03X570823Y1513624I12700J0D01*
G03X545423Y1513624I-12700J0D01*
G01X4293277Y4882096D02*
G03X4318677Y4882096I12700J0D01*
G03X4293277Y4882096I-12700J0D01*
G01X4048577Y1293224D02*
G03X4073977Y1293224I12700J0D01*
G03X4048577Y1293224I-12700J0D01*
G54D18*
G01X1337313Y5497500D02*
G03X1344933Y5497500I3810J0D01*
G03X1337313Y5497500I-3810J0D01*
G01X1337313Y5597220D02*
G03X1344933Y5597220I3810J0D01*
G03X1337313Y5597220I-3810J0D01*
G01X3521713Y5624500D02*
G03X3529333Y5624500I3810J0D01*
G03X3521713Y5624500I-3810J0D01*
G01X3521713Y5724220D02*
G03X3529333Y5724220I3810J0D01*
G03X3521713Y5724220I-3810J0D01*
G01X3280272Y941755D02*
G03X3287892Y941755I3810J0D01*
G03X3280272Y941755I-3810J0D01*
G01X3280272Y1041475D02*
G03X3287892Y1041475I3810J0D01*
G03X3280272Y1041475I-3810J0D01*
G01X1372873Y920420D02*
G03X1380493Y920420I3810J0D01*
G03X1372873Y920420I-3810J0D01*
G01X1372873Y1020140D02*
G03X1380493Y1020140I3810J0D01*
G03X1372873Y1020140I-3810J0D01*
G01X3491227Y3656660D02*
G03X3498847Y3656660I3810J0D01*
G03X3491227Y3656660I-3810J0D01*
G01X3491227Y3556940D02*
G03X3498847Y3556940I3810J0D01*
G03X3491227Y3556940I-3810J0D01*
G01X3493519Y3302940D02*
G03X3501139Y3302940I3810J0D01*
G03X3493519Y3302940I-3810J0D01*
G01X3493519Y3402660D02*
G03X3501139Y3402660I3810J0D01*
G03X3493519Y3402660I-3810J0D01*
G01X3496307Y3148660D02*
G03X3503927Y3148660I3810J0D01*
G03X3496307Y3148660I-3810J0D01*
G01X3496307Y3048940D02*
G03X3503927Y3048940I3810J0D01*
G03X3496307Y3048940I-3810J0D01*
G01X3493519Y2810180D02*
G03X3501139Y2810180I3810J0D01*
G03X3493519Y2810180I-3810J0D01*
G01X3493519Y2909900D02*
G03X3501139Y2909900I3810J0D01*
G03X3493519Y2909900I-3810J0D01*
G54D12*
G01X949630Y3452241D02*
G03X983717Y3452241I17043J0D01*
G03X949630Y3452241I-17043J0D01*
G04 Circle End*

M02*

