G04 Layer: TopPasteMaskLayer*
G04 EasyEDA Pro v3.2.148, 2026-07-06 23:39:11*
G04 Gerber Generator version 0.3*
G04 Scale: 100 percent, Rotated: No, Reflected: No*
G04 Dimensions in millimeters*
G04 Leading zeros omitted, absolute positions, 4 integers and 5 decimals*
G04 Generated by one-click*
G04 Object Configs: Pad,Via,Track,Text,Image,Dimension,BoardOutline,BoardCutout,CopperFilled,SolidRegion,FPCStiffener,Line,PlaneZone,ComponentProperty,ComponentSilkscreen,TearDrop*
G04 Layer Configs: 1,2,3,4,5,6,7,8,9,10,11,13,14,56*
G04 Copper Areas: 0*
%FSLAX45Y45*%
%MOMM*%
%AMRect*21,1,$1,$2,0,0,$3*%
%ADD10R,0.9X0.5*%
%ADD11R,0.5X0.5*%
%ADD12R,0.9X0.8*%
%ADD13R,0.8X0.9*%
%ADD14R,3.49999X1.5*%
%ADD15Rect,0.8X1.8X43.53*%
%ADD16Rect,1.8X2.89999X43.53*%
%ADD17Rect,0.8X1.8X136.47*%
%ADD18Rect,1.8X2.89999X136.47*%
%ADD19R,0.7087X1.25001*%
%ADD20R,0.7X1.25001*%
%ADD21R,0.7X1.05001*%
%ADD22R,1.05001X0.7*%
%ADD23O,1.5X0.27*%
%ADD24O,0.27X1.5*%
%ADD25R,0.28001X0.8*%
%ADD26R,0.8X0.28001*%
%ADD27R,2.49999X2.49999*%
%ADD28R,1.2X1.4*%
%ADD29R,1.1X1.2*%
G75*


G04 PolygonModel Start*
G36*
G01X2148601Y5746422D02*
G01X2148601Y5774073D01*
G01X2176021Y5803448D01*
G01X2226348Y5803448D01*
G01X2232749Y5797047D01*
G01X2232749Y5723448D01*
G01X2226348Y5717047D01*
G01X2176021Y5717047D01*
G01X2148601Y5746422D01*
G37*
G36*
G01X2097037Y5745297D02*
G01X2069617Y5715922D01*
G01X2019290Y5715922D01*
G01X2012889Y5722323D01*
G01X2012889Y5795922D01*
G01X2019290Y5802323D01*
G01X2069617Y5802323D01*
G01X2097037Y5772948D01*
G01X2097037Y5745297D01*
G37*
G36*
G01X2153681Y5594022D02*
G01X2153681Y5621673D01*
G01X2181101Y5651048D01*
G01X2231428Y5651048D01*
G01X2237829Y5644647D01*
G01X2237829Y5571048D01*
G01X2231428Y5564647D01*
G01X2181101Y5564647D01*
G01X2153681Y5594022D01*
G37*
G36*
G01X2102117Y5592897D02*
G01X2074697Y5563522D01*
G01X2024370Y5563522D01*
G01X2017969Y5569923D01*
G01X2017969Y5643522D01*
G01X2024370Y5649923D01*
G01X2074697Y5649923D01*
G01X2102117Y5620548D01*
G01X2102117Y5592897D01*
G37*
G36*
G01X2413239Y5622618D02*
G01X2413239Y5594967D01*
G01X2385819Y5565592D01*
G01X2335492Y5565592D01*
G01X2329091Y5571993D01*
G01X2329091Y5645592D01*
G01X2335492Y5651993D01*
G01X2385819Y5651993D01*
G01X2413239Y5622618D01*
G37*
G36*
G01X2464803Y5623743D02*
G01X2492223Y5653118D01*
G01X2542550Y5653118D01*
G01X2548951Y5646717D01*
G01X2548951Y5573118D01*
G01X2542550Y5566717D01*
G01X2492223Y5566717D01*
G01X2464803Y5596092D01*
G01X2464803Y5623743D01*
G37*
G36*
G01X1321321Y5524360D02*
G01X1317320Y5520360D01*
G01X1259472Y5520360D01*
G01X1255471Y5524360D01*
G01X1255471Y5570360D01*
G01X1259472Y5574360D01*
G01X1317320Y5574360D01*
G01X1321321Y5570360D01*
G01X1321321Y5524360D01*
G37*
G36*
G01X1360919Y5524360D02*
G01X1360919Y5570360D01*
G01X1364920Y5574360D01*
G01X1422768Y5574360D01*
G01X1426769Y5570360D01*
G01X1426769Y5524360D01*
G01X1422768Y5520360D01*
G01X1364920Y5520360D01*
G01X1360919Y5524360D01*
G37*
G36*
G01X3505721Y5651360D02*
G01X3501720Y5647360D01*
G01X3443872Y5647360D01*
G01X3439871Y5651360D01*
G01X3439871Y5697360D01*
G01X3443872Y5701360D01*
G01X3501720Y5701360D01*
G01X3505721Y5697360D01*
G01X3505721Y5651360D01*
G37*
G36*
G01X3545319Y5651360D02*
G01X3545319Y5697360D01*
G01X3549320Y5701360D01*
G01X3607168Y5701360D01*
G01X3611169Y5697360D01*
G01X3611169Y5651360D01*
G01X3607168Y5647360D01*
G01X3549320Y5647360D01*
G01X3545319Y5651360D01*
G37*
G36*
G01X3264280Y968615D02*
G01X3260279Y964615D01*
G01X3202431Y964615D01*
G01X3198430Y968615D01*
G01X3198430Y1014614D01*
G01X3202431Y1018615D01*
G01X3260279Y1018615D01*
G01X3264280Y1014614D01*
G01X3264280Y968615D01*
G37*
G36*
G01X3303878Y968615D02*
G01X3303878Y1014614D01*
G01X3307879Y1018615D01*
G01X3365727Y1018615D01*
G01X3369728Y1014614D01*
G01X3369728Y968615D01*
G01X3365727Y964615D01*
G01X3307879Y964615D01*
G01X3303878Y968615D01*
G37*
G36*
G01X1356881Y947280D02*
G01X1352880Y943280D01*
G01X1295032Y943280D01*
G01X1291031Y947280D01*
G01X1291031Y993280D01*
G01X1295032Y997280D01*
G01X1352880Y997280D01*
G01X1356881Y993280D01*
G01X1356881Y947280D01*
G37*
G36*
G01X1396479Y947280D02*
G01X1396479Y993280D01*
G01X1400480Y997280D01*
G01X1458328Y997280D01*
G01X1462329Y993280D01*
G01X1462329Y947280D01*
G01X1458328Y943280D01*
G01X1400480Y943280D01*
G01X1396479Y947280D01*
G37*
G36*
G01X3514839Y3629800D02*
G01X3518840Y3633800D01*
G01X3576688Y3633800D01*
G01X3580689Y3629800D01*
G01X3580689Y3583800D01*
G01X3576688Y3579800D01*
G01X3518840Y3579800D01*
G01X3514839Y3583800D01*
G01X3514839Y3629800D01*
G37*
G36*
G01X3475241Y3629800D02*
G01X3475241Y3583800D01*
G01X3471240Y3579800D01*
G01X3413392Y3579800D01*
G01X3409391Y3583800D01*
G01X3409391Y3629800D01*
G01X3413392Y3633800D01*
G01X3471240Y3633800D01*
G01X3475241Y3629800D01*
G37*
G36*
G01X3477527Y3329800D02*
G01X3473526Y3325800D01*
G01X3415678Y3325800D01*
G01X3411677Y3329800D01*
G01X3411677Y3375800D01*
G01X3415678Y3379800D01*
G01X3473526Y3379800D01*
G01X3477527Y3375800D01*
G01X3477527Y3329800D01*
G37*
G36*
G01X3517125Y3329800D02*
G01X3517125Y3375800D01*
G01X3521126Y3379800D01*
G01X3578974Y3379800D01*
G01X3582975Y3375800D01*
G01X3582975Y3329800D01*
G01X3578974Y3325800D01*
G01X3521126Y3325800D01*
G01X3517125Y3329800D01*
G37*
G36*
G01X3519919Y3121800D02*
G01X3523920Y3125800D01*
G01X3581768Y3125800D01*
G01X3585769Y3121800D01*
G01X3585769Y3075800D01*
G01X3581768Y3071800D01*
G01X3523920Y3071800D01*
G01X3519919Y3075800D01*
G01X3519919Y3121800D01*
G37*
G36*
G01X3480321Y3121800D02*
G01X3480321Y3075800D01*
G01X3476320Y3071800D01*
G01X3418472Y3071800D01*
G01X3414471Y3075800D01*
G01X3414471Y3121800D01*
G01X3418472Y3125800D01*
G01X3476320Y3125800D01*
G01X3480321Y3121800D01*
G37*
G36*
G01X3477527Y2837040D02*
G01X3473526Y2833040D01*
G01X3415678Y2833040D01*
G01X3411677Y2837040D01*
G01X3411677Y2883040D01*
G01X3415678Y2887040D01*
G01X3473526Y2887040D01*
G01X3477527Y2883040D01*
G01X3477527Y2837040D01*
G37*
G36*
G01X3517125Y2837040D02*
G01X3517125Y2883040D01*
G01X3521126Y2887040D01*
G01X3578974Y2887040D01*
G01X3582975Y2883040D01*
G01X3582975Y2837040D01*
G01X3578974Y2833040D01*
G01X3521126Y2833040D01*
G01X3517125Y2837040D01*
G37*
G36*
G01X977778Y4135841D02*
G01X972779Y4140843D01*
G01X972779Y4220842D01*
G01X977778Y4225841D01*
G01X1057778Y4225841D01*
G01X1062779Y4220842D01*
G01X1062779Y4196639D01*
G01X1025779Y4196639D01*
G01X1025779Y4163639D01*
G01X1062779Y4163639D01*
G01X1062779Y4140843D01*
G01X1057778Y4135841D01*
G01X977778Y4135841D01*
G37*
G36*
G01X1216782Y4225839D02*
G01X1221781Y4220837D01*
G01X1221781Y4140838D01*
G01X1216782Y4135839D01*
G01X1136782Y4135839D01*
G01X1131781Y4140838D01*
G01X1131781Y4165041D01*
G01X1168781Y4165041D01*
G01X1168781Y4198041D01*
G01X1131781Y4198041D01*
G01X1131781Y4220837D01*
G01X1136782Y4225839D01*
G01X1216782Y4225839D01*
G37*
G36*
G01X2456302Y3082839D02*
G01X2461301Y3077837D01*
G01X2461301Y2997838D01*
G01X2456302Y2992839D01*
G01X2376302Y2992839D01*
G01X2371301Y2997838D01*
G01X2371301Y3022041D01*
G01X2408301Y3022041D01*
G01X2408301Y3055041D01*
G01X2371301Y3055041D01*
G01X2371301Y3077837D01*
G01X2376302Y3082839D01*
G01X2456302Y3082839D01*
G37*
G36*
G01X2217298Y2992841D02*
G01X2212299Y2997843D01*
G01X2212299Y3077842D01*
G01X2217298Y3082841D01*
G01X2297298Y3082841D01*
G01X2302299Y3077842D01*
G01X2302299Y3053639D01*
G01X2265299Y3053639D01*
G01X2265299Y3020639D01*
G01X2302299Y3020639D01*
G01X2302299Y2997843D01*
G01X2297298Y2992841D01*
G01X2217298Y2992841D01*
G37*
G36*
G01X2132879Y2969138D02*
G01X2127877Y2964139D01*
G01X2047878Y2964139D01*
G01X2042879Y2969138D01*
G01X2042879Y3049138D01*
G01X2047878Y3054139D01*
G01X2072081Y3054139D01*
G01X2072081Y3017139D01*
G01X2105081Y3017139D01*
G01X2105081Y3054139D01*
G01X2127877Y3054139D01*
G01X2132879Y3049138D01*
G01X2132879Y2969138D01*
G37*
G36*
G01X2042881Y3208142D02*
G01X2047883Y3213141D01*
G01X2127882Y3213141D01*
G01X2132881Y3208142D01*
G01X2132881Y3128142D01*
G01X2127882Y3123141D01*
G01X2103679Y3123141D01*
G01X2103679Y3160141D01*
G01X2070679Y3160141D01*
G01X2070679Y3123141D01*
G01X2047883Y3123141D01*
G01X2042881Y3128142D01*
G01X2042881Y3208142D01*
G37*
G36*
G01X2755778Y3277321D02*
G01X2750779Y3282323D01*
G01X2750779Y3362322D01*
G01X2755778Y3367321D01*
G01X2835778Y3367321D01*
G01X2840779Y3362322D01*
G01X2840779Y3338119D01*
G01X2803779Y3338119D01*
G01X2803779Y3305119D01*
G01X2840779Y3305119D01*
G01X2840779Y3282323D01*
G01X2835778Y3277321D01*
G01X2755778Y3277321D01*
G37*
G36*
G01X2994782Y3367319D02*
G01X2999781Y3362317D01*
G01X2999781Y3282318D01*
G01X2994782Y3277319D01*
G01X2914782Y3277319D01*
G01X2909781Y3282318D01*
G01X2909781Y3306521D01*
G01X2946781Y3306521D01*
G01X2946781Y3339521D01*
G01X2909781Y3339521D01*
G01X2909781Y3362317D01*
G01X2914782Y3367319D01*
G01X2994782Y3367319D01*
G37*
G36*
G01X1834601Y5514462D02*
G01X1839603Y5519461D01*
G01X1919602Y5519461D01*
G01X1924601Y5514462D01*
G01X1924601Y5434462D01*
G01X1919602Y5429461D01*
G01X1895399Y5429461D01*
G01X1895399Y5466461D01*
G01X1862399Y5466461D01*
G01X1862399Y5429461D01*
G01X1839603Y5429461D01*
G01X1834601Y5434462D01*
G01X1834601Y5514462D01*
G37*
G36*
G01X1924599Y5275458D02*
G01X1919597Y5270459D01*
G01X1839598Y5270459D01*
G01X1834599Y5275458D01*
G01X1834599Y5355458D01*
G01X1839598Y5360459D01*
G01X1863801Y5360459D01*
G01X1863801Y5323459D01*
G01X1896801Y5323459D01*
G01X1896801Y5360459D01*
G01X1919597Y5360459D01*
G01X1924599Y5355458D01*
G01X1924599Y5275458D01*
G37*
G36*
G01X2754081Y5346822D02*
G01X2759083Y5351821D01*
G01X2839082Y5351821D01*
G01X2844081Y5346822D01*
G01X2844081Y5266822D01*
G01X2839082Y5261821D01*
G01X2814879Y5261821D01*
G01X2814879Y5298821D01*
G01X2781879Y5298821D01*
G01X2781879Y5261821D01*
G01X2759083Y5261821D01*
G01X2754081Y5266822D01*
G01X2754081Y5346822D01*
G37*
G36*
G01X2844079Y5107818D02*
G01X2839077Y5102819D01*
G01X2759078Y5102819D01*
G01X2754079Y5107818D01*
G01X2754079Y5187818D01*
G01X2759078Y5192819D01*
G01X2783281Y5192819D01*
G01X2783281Y5155819D01*
G01X2816281Y5155819D01*
G01X2816281Y5192819D01*
G01X2839077Y5192819D01*
G01X2844079Y5187818D01*
G01X2844079Y5107818D01*
G37*
G36*
G01X2938902Y359959D02*
G01X2943901Y354957D01*
G01X2943901Y274958D01*
G01X2938902Y269959D01*
G01X2858902Y269959D01*
G01X2853901Y274958D01*
G01X2853901Y299161D01*
G01X2890901Y299161D01*
G01X2890901Y332161D01*
G01X2853901Y332161D01*
G01X2853901Y354957D01*
G01X2858902Y359959D01*
G01X2938902Y359959D01*
G37*
G36*
G01X2699898Y269961D02*
G01X2694899Y274963D01*
G01X2694899Y354962D01*
G01X2699898Y359961D01*
G01X2779898Y359961D01*
G01X2784899Y354962D01*
G01X2784899Y330759D01*
G01X2747899Y330759D01*
G01X2747899Y297759D01*
G01X2784899Y297759D01*
G01X2784899Y274963D01*
G01X2779898Y269961D01*
G01X2699898Y269961D01*
G37*
G36*
G01X2938902Y527599D02*
G01X2943901Y522597D01*
G01X2943901Y442598D01*
G01X2938902Y437599D01*
G01X2858902Y437599D01*
G01X2853901Y442598D01*
G01X2853901Y466801D01*
G01X2890901Y466801D01*
G01X2890901Y499801D01*
G01X2853901Y499801D01*
G01X2853901Y522597D01*
G01X2858902Y527599D01*
G01X2938902Y527599D01*
G37*
G36*
G01X2699898Y437601D02*
G01X2694899Y442603D01*
G01X2694899Y522602D01*
G01X2699898Y527601D01*
G01X2779898Y527601D01*
G01X2784899Y522602D01*
G01X2784899Y498399D01*
G01X2747899Y498399D01*
G01X2747899Y465399D01*
G01X2784899Y465399D01*
G01X2784899Y442603D01*
G01X2779898Y437601D01*
G01X2699898Y437601D01*
G37*
G36*
G01X2463079Y525658D02*
G01X2458077Y520659D01*
G01X2378078Y520659D01*
G01X2373079Y525658D01*
G01X2373079Y605658D01*
G01X2378078Y610659D01*
G01X2402281Y610659D01*
G01X2402281Y573659D01*
G01X2435281Y573659D01*
G01X2435281Y610659D01*
G01X2458077Y610659D01*
G01X2463079Y605658D01*
G01X2463079Y525658D01*
G37*
G36*
G01X2373081Y764662D02*
G01X2378083Y769661D01*
G01X2458082Y769661D01*
G01X2463081Y764662D01*
G01X2463081Y684662D01*
G01X2458082Y679661D01*
G01X2433879Y679661D01*
G01X2433879Y716661D01*
G01X2400879Y716661D01*
G01X2400879Y679661D01*
G01X2378083Y679661D01*
G01X2373081Y684662D01*
G01X2373081Y764662D01*
G37*
G36*
G01X2300519Y525658D02*
G01X2295517Y520659D01*
G01X2215518Y520659D01*
G01X2210519Y525658D01*
G01X2210519Y605658D01*
G01X2215518Y610659D01*
G01X2239721Y610659D01*
G01X2239721Y573659D01*
G01X2272721Y573659D01*
G01X2272721Y610659D01*
G01X2295517Y610659D01*
G01X2300519Y605658D01*
G01X2300519Y525658D01*
G37*
G36*
G01X2210521Y764662D02*
G01X2215523Y769661D01*
G01X2295522Y769661D01*
G01X2300521Y764662D01*
G01X2300521Y684662D01*
G01X2295522Y679661D01*
G01X2271319Y679661D01*
G01X2271319Y716661D01*
G01X2238319Y716661D01*
G01X2238319Y679661D01*
G01X2215523Y679661D01*
G01X2210521Y684662D01*
G01X2210521Y764662D01*
G37*
G36*
G01X1453601Y5255382D02*
G01X1458603Y5260381D01*
G01X1538602Y5260381D01*
G01X1543601Y5255382D01*
G01X1543601Y5175382D01*
G01X1538602Y5170381D01*
G01X1514399Y5170381D01*
G01X1514399Y5207381D01*
G01X1481399Y5207381D01*
G01X1481399Y5170381D01*
G01X1458603Y5170381D01*
G01X1453601Y5175382D01*
G01X1453601Y5255382D01*
G37*
G36*
G01X1543599Y5016378D02*
G01X1538597Y5011379D01*
G01X1458598Y5011379D01*
G01X1453599Y5016378D01*
G01X1453599Y5096378D01*
G01X1458598Y5101379D01*
G01X1482801Y5101379D01*
G01X1482801Y5064379D01*
G01X1515801Y5064379D01*
G01X1515801Y5101379D01*
G01X1538597Y5101379D01*
G01X1543599Y5096378D01*
G01X1543599Y5016378D01*
G37*
G36*
G01X1296121Y5255382D02*
G01X1301123Y5260381D01*
G01X1381122Y5260381D01*
G01X1386121Y5255382D01*
G01X1386121Y5175382D01*
G01X1381122Y5170381D01*
G01X1356919Y5170381D01*
G01X1356919Y5207381D01*
G01X1323919Y5207381D01*
G01X1323919Y5170381D01*
G01X1301123Y5170381D01*
G01X1296121Y5175382D01*
G01X1296121Y5255382D01*
G37*
G36*
G01X1386119Y5016378D02*
G01X1381117Y5011379D01*
G01X1301118Y5011379D01*
G01X1296119Y5016378D01*
G01X1296119Y5096378D01*
G01X1301118Y5101379D01*
G01X1325321Y5101379D01*
G01X1325321Y5064379D01*
G01X1358321Y5064379D01*
G01X1358321Y5101379D01*
G01X1381117Y5101379D01*
G01X1386119Y5096378D01*
G01X1386119Y5016378D01*
G37*
G36*
G01X595782Y1996465D02*
G01X590781Y1991467D01*
G01X510781Y1991467D01*
G01X505783Y1996465D01*
G01X505783Y2076465D01*
G01X510781Y2081467D01*
G01X534985Y2081467D01*
G01X534985Y2044466D01*
G01X567985Y2044466D01*
G01X567985Y2081467D01*
G01X590781Y2081467D01*
G01X595782Y2076465D01*
G01X595782Y1996465D01*
G37*
G36*
G01X505785Y2235469D02*
G01X510786Y2240468D01*
G01X590786Y2240468D01*
G01X595785Y2235469D01*
G01X595785Y2155469D01*
G01X590786Y2150468D01*
G01X566583Y2150468D01*
G01X566583Y2187468D01*
G01X533583Y2187468D01*
G01X533583Y2150468D01*
G01X510786Y2150468D01*
G01X505785Y2155469D01*
G01X505785Y2235469D01*
G37*
G36*
G01X771439Y1998858D02*
G01X766437Y1993859D01*
G01X686438Y1993859D01*
G01X681439Y1998858D01*
G01X681439Y2078858D01*
G01X686438Y2083859D01*
G01X710641Y2083859D01*
G01X710641Y2046859D01*
G01X743641Y2046859D01*
G01X743641Y2083859D01*
G01X766437Y2083859D01*
G01X771439Y2078858D01*
G01X771439Y1998858D01*
G37*
G36*
G01X681441Y2237862D02*
G01X686443Y2242861D01*
G01X766442Y2242861D01*
G01X771441Y2237862D01*
G01X771441Y2157862D01*
G01X766442Y2152861D01*
G01X742239Y2152861D01*
G01X742239Y2189861D01*
G01X709239Y2189861D01*
G01X709239Y2152861D01*
G01X686443Y2152861D01*
G01X681441Y2157862D01*
G01X681441Y2237862D01*
G37*
G36*
G01X3511001Y5428102D02*
G01X3516003Y5433101D01*
G01X3596002Y5433101D01*
G01X3601001Y5428102D01*
G01X3601001Y5348102D01*
G01X3596002Y5343101D01*
G01X3571799Y5343101D01*
G01X3571799Y5380101D01*
G01X3538799Y5380101D01*
G01X3538799Y5343101D01*
G01X3516003Y5343101D01*
G01X3511001Y5348102D01*
G01X3511001Y5428102D01*
G37*
G36*
G01X3600999Y5189098D02*
G01X3595997Y5184099D01*
G01X3515998Y5184099D01*
G01X3510999Y5189098D01*
G01X3510999Y5269098D01*
G01X3515998Y5274099D01*
G01X3540201Y5274099D01*
G01X3540201Y5237099D01*
G01X3573201Y5237099D01*
G01X3573201Y5274099D01*
G01X3595997Y5274099D01*
G01X3600999Y5269098D01*
G01X3600999Y5189098D01*
G37*
G36*
G01X3914262Y5414559D02*
G01X3919261Y5409557D01*
G01X3919261Y5329558D01*
G01X3914262Y5324559D01*
G01X3834262Y5324559D01*
G01X3829261Y5329558D01*
G01X3829261Y5353761D01*
G01X3866261Y5353761D01*
G01X3866261Y5386761D01*
G01X3829261Y5386761D01*
G01X3829261Y5409557D01*
G01X3834262Y5414559D01*
G01X3914262Y5414559D01*
G37*
G36*
G01X3675258Y5324561D02*
G01X3670259Y5329563D01*
G01X3670259Y5409562D01*
G01X3675258Y5414561D01*
G01X3755258Y5414561D01*
G01X3760259Y5409562D01*
G01X3760259Y5385359D01*
G01X3723259Y5385359D01*
G01X3723259Y5352359D01*
G01X3760259Y5352359D01*
G01X3760259Y5329563D01*
G01X3755258Y5324561D01*
G01X3675258Y5324561D01*
G37*
G36*
G01X3606079Y1221618D02*
G01X3601077Y1216619D01*
G01X3521078Y1216619D01*
G01X3516079Y1221618D01*
G01X3516079Y1301618D01*
G01X3521078Y1306619D01*
G01X3545281Y1306619D01*
G01X3545281Y1269619D01*
G01X3578281Y1269619D01*
G01X3578281Y1306619D01*
G01X3601077Y1306619D01*
G01X3606079Y1301618D01*
G01X3606079Y1221618D01*
G37*
G36*
G01X3516081Y1460622D02*
G01X3521083Y1465621D01*
G01X3601082Y1465621D01*
G01X3606081Y1460622D01*
G01X3606081Y1380622D01*
G01X3601082Y1375621D01*
G01X3576879Y1375621D01*
G01X3576879Y1412621D01*
G01X3543879Y1412621D01*
G01X3543879Y1375621D01*
G01X3521083Y1375621D01*
G01X3516081Y1380622D01*
G01X3516081Y1460622D01*
G37*
G36*
G01X3438439Y1226698D02*
G01X3433437Y1221699D01*
G01X3353438Y1221699D01*
G01X3348439Y1226698D01*
G01X3348439Y1306698D01*
G01X3353438Y1311699D01*
G01X3377641Y1311699D01*
G01X3377641Y1274699D01*
G01X3410641Y1274699D01*
G01X3410641Y1311699D01*
G01X3433437Y1311699D01*
G01X3438439Y1306698D01*
G01X3438439Y1226698D01*
G37*
G36*
G01X3348441Y1465702D02*
G01X3353443Y1470701D01*
G01X3433442Y1470701D01*
G01X3438441Y1465702D01*
G01X3438441Y1385702D01*
G01X3433442Y1380701D01*
G01X3409239Y1380701D01*
G01X3409239Y1417701D01*
G01X3376239Y1417701D01*
G01X3376239Y1380701D01*
G01X3353443Y1380701D01*
G01X3348441Y1385702D01*
G01X3348441Y1465702D01*
G37*
G36*
G01X1751879Y5397378D02*
G01X1746877Y5392379D01*
G01X1666878Y5392379D01*
G01X1661879Y5397378D01*
G01X1661879Y5477378D01*
G01X1666878Y5482379D01*
G01X1691081Y5482379D01*
G01X1691081Y5445379D01*
G01X1724081Y5445379D01*
G01X1724081Y5482379D01*
G01X1746877Y5482379D01*
G01X1751879Y5477378D01*
G01X1751879Y5397378D01*
G37*
G36*
G01X1661881Y5636382D02*
G01X1666883Y5641381D01*
G01X1746882Y5641381D01*
G01X1751881Y5636382D01*
G01X1751881Y5556382D01*
G01X1746882Y5551381D01*
G01X1722679Y5551381D01*
G01X1722679Y5588381D01*
G01X1689679Y5588381D01*
G01X1689679Y5551381D01*
G01X1666883Y5551381D01*
G01X1661881Y5556382D01*
G01X1661881Y5636382D01*
G37*
G36*
G01X3357159Y5514218D02*
G01X3352157Y5509219D01*
G01X3272158Y5509219D01*
G01X3267159Y5514218D01*
G01X3267159Y5594218D01*
G01X3272158Y5599219D01*
G01X3296361Y5599219D01*
G01X3296361Y5562219D01*
G01X3329361Y5562219D01*
G01X3329361Y5599219D01*
G01X3352157Y5599219D01*
G01X3357159Y5594218D01*
G01X3357159Y5514218D01*
G37*
G36*
G01X3267161Y5753222D02*
G01X3272163Y5758221D01*
G01X3352162Y5758221D01*
G01X3357161Y5753222D01*
G01X3357161Y5673222D01*
G01X3352162Y5668221D01*
G01X3327959Y5668221D01*
G01X3327959Y5705221D01*
G01X3294959Y5705221D01*
G01X3294959Y5668221D01*
G01X3272163Y5668221D01*
G01X3267161Y5673222D01*
G01X3267161Y5753222D01*
G37*
G36*
G01X2898018Y930361D02*
G01X2893019Y935363D01*
G01X2893019Y1015362D01*
G01X2898018Y1020361D01*
G01X2978018Y1020361D01*
G01X2983019Y1015362D01*
G01X2983019Y991159D01*
G01X2946019Y991159D01*
G01X2946019Y958159D01*
G01X2983019Y958159D01*
G01X2983019Y935363D01*
G01X2978018Y930361D01*
G01X2898018Y930361D01*
G37*
G36*
G01X3137022Y1020359D02*
G01X3142021Y1015357D01*
G01X3142021Y935358D01*
G01X3137022Y930359D01*
G01X3057022Y930359D01*
G01X3052021Y935358D01*
G01X3052021Y959561D01*
G01X3089021Y959561D01*
G01X3089021Y992561D01*
G01X3052021Y992561D01*
G01X3052021Y1015357D01*
G01X3057022Y1020359D01*
G01X3137022Y1020359D01*
G37*
G36*
G01X1521582Y1152439D02*
G01X1526581Y1147437D01*
G01X1526581Y1067438D01*
G01X1521582Y1062439D01*
G01X1441582Y1062439D01*
G01X1436581Y1067438D01*
G01X1436581Y1091641D01*
G01X1473581Y1091641D01*
G01X1473581Y1124641D01*
G01X1436581Y1124641D01*
G01X1436581Y1147437D01*
G01X1441582Y1152439D01*
G01X1521582Y1152439D01*
G37*
G36*
G01X1282578Y1062441D02*
G01X1277579Y1067443D01*
G01X1277579Y1147442D01*
G01X1282578Y1152441D01*
G01X1362578Y1152441D01*
G01X1367579Y1147442D01*
G01X1367579Y1123239D01*
G01X1330579Y1123239D01*
G01X1330579Y1090239D01*
G01X1367579Y1090239D01*
G01X1367579Y1067443D01*
G01X1362578Y1062441D01*
G01X1282578Y1062441D01*
G37*
G36*
G01X3167502Y2224319D02*
G01X3172501Y2219317D01*
G01X3172501Y2139318D01*
G01X3167502Y2134319D01*
G01X3087502Y2134319D01*
G01X3082501Y2139318D01*
G01X3082501Y2163521D01*
G01X3119501Y2163521D01*
G01X3119501Y2196521D01*
G01X3082501Y2196521D01*
G01X3082501Y2219317D01*
G01X3087502Y2224319D01*
G01X3167502Y2224319D01*
G37*
G36*
G01X2928498Y2134321D02*
G01X2923499Y2139323D01*
G01X2923499Y2219322D01*
G01X2928498Y2224321D01*
G01X3008498Y2224321D01*
G01X3013499Y2219322D01*
G01X3013499Y2195119D01*
G01X2976499Y2195119D01*
G01X2976499Y2162119D01*
G01X3013499Y2162119D01*
G01X3013499Y2139323D01*
G01X3008498Y2134321D01*
G01X2928498Y2134321D01*
G37*
G36*
G01X2928498Y1976841D02*
G01X2923499Y1981843D01*
G01X2923499Y2061842D01*
G01X2928498Y2066841D01*
G01X3008498Y2066841D01*
G01X3013499Y2061842D01*
G01X3013499Y2037639D01*
G01X2976499Y2037639D01*
G01X2976499Y2004639D01*
G01X3013499Y2004639D01*
G01X3013499Y1981843D01*
G01X3008498Y1976841D01*
G01X2928498Y1976841D01*
G37*
G36*
G01X3167502Y2066839D02*
G01X3172501Y2061837D01*
G01X3172501Y1981838D01*
G01X3167502Y1976839D01*
G01X3087502Y1976839D01*
G01X3082501Y1981838D01*
G01X3082501Y2006041D01*
G01X3119501Y2006041D01*
G01X3119501Y2039041D01*
G01X3082501Y2039041D01*
G01X3082501Y2061837D01*
G01X3087502Y2066839D01*
G01X3167502Y2066839D01*
G37*
G36*
G01X3450041Y2557902D02*
G01X3455043Y2562901D01*
G01X3535042Y2562901D01*
G01X3540041Y2557902D01*
G01X3540041Y2477902D01*
G01X3535042Y2472901D01*
G01X3510839Y2472901D01*
G01X3510839Y2509901D01*
G01X3477839Y2509901D01*
G01X3477839Y2472901D01*
G01X3455043Y2472901D01*
G01X3450041Y2477902D01*
G01X3450041Y2557902D01*
G37*
G36*
G01X3540039Y2318898D02*
G01X3535037Y2313899D01*
G01X3455038Y2313899D01*
G01X3450039Y2318898D01*
G01X3450039Y2398898D01*
G01X3455038Y2403899D01*
G01X3479241Y2403899D01*
G01X3479241Y2366899D01*
G01X3512241Y2366899D01*
G01X3512241Y2403899D01*
G01X3535037Y2403899D01*
G01X3540039Y2398898D01*
G01X3540039Y2318898D01*
G37*
G36*
G01X3365622Y2640879D02*
G01X3370621Y2635877D01*
G01X3370621Y2555878D01*
G01X3365622Y2550879D01*
G01X3285622Y2550879D01*
G01X3280621Y2555878D01*
G01X3280621Y2580081D01*
G01X3317621Y2580081D01*
G01X3317621Y2613081D01*
G01X3280621Y2613081D01*
G01X3280621Y2635877D01*
G01X3285622Y2640879D01*
G01X3365622Y2640879D01*
G37*
G36*
G01X3126618Y2550881D02*
G01X3121619Y2555883D01*
G01X3121619Y2635882D01*
G01X3126618Y2640881D01*
G01X3206618Y2640881D01*
G01X3211619Y2635882D01*
G01X3211619Y2611679D01*
G01X3174619Y2611679D01*
G01X3174619Y2578679D01*
G01X3211619Y2578679D01*
G01X3211619Y2555883D01*
G01X3206618Y2550881D01*
G01X3126618Y2550881D01*
G37*
G36*
G01X883199Y3883538D02*
G01X878197Y3878539D01*
G01X798198Y3878539D01*
G01X793199Y3883538D01*
G01X793199Y3963538D01*
G01X798198Y3968539D01*
G01X822401Y3968539D01*
G01X822401Y3931539D01*
G01X855401Y3931539D01*
G01X855401Y3968539D01*
G01X878197Y3968539D01*
G01X883199Y3963538D01*
G01X883199Y3883538D01*
G37*
G36*
G01X793201Y4122542D02*
G01X798203Y4127541D01*
G01X878202Y4127541D01*
G01X883201Y4122542D01*
G01X883201Y4042542D01*
G01X878202Y4037541D01*
G01X853999Y4037541D01*
G01X853999Y4074541D01*
G01X820999Y4074541D01*
G01X820999Y4037541D01*
G01X798203Y4037541D01*
G01X793201Y4042542D01*
G01X793201Y4122542D01*
G37*
G36*
G01X2218004Y3230479D02*
G02X2218004Y3258480I0J14000D01*
G01X2270003Y3258480D01*
G02X2270003Y3230479I0J-14000D01*
G01X2218004Y3230479D01*
G37*
G36*
G01X2218004Y3280466D02*
G02X2218004Y3308467I0J14000D01*
G01X2270003Y3308467D01*
G02X2270003Y3280466I0J-14000D01*
G01X2218004Y3280466D01*
G37*
G36*
G01X2218004Y3330478D02*
G02X2218004Y3358479I0J14000D01*
G01X2270003Y3358479D01*
G02X2270003Y3330478I0J-14000D01*
G01X2218004Y3330478D01*
G37*
G36*
G01X2218004Y3380466D02*
G02X2218004Y3408467I0J14000D01*
G01X2270003Y3408467D01*
G02X2270003Y3380466I0J-14000D01*
G01X2218004Y3380466D01*
G37*
G36*
G01X2218004Y3430478D02*
G02X2218004Y3458479I0J14000D01*
G01X2270003Y3458479D01*
G02X2270003Y3430478I0J-14000D01*
G01X2218004Y3430478D01*
G37*
G36*
G01X2218004Y3480465D02*
G02X2218004Y3508466I0J14000D01*
G01X2270003Y3508466D01*
G02X2270003Y3480465I0J-14000D01*
G01X2218004Y3480465D01*
G37*
G36*
G01X2305797Y3595472D02*
G02X2333798Y3595472I14000J0D01*
G01X2333798Y3543473D01*
G02X2305797Y3543473I-14000J0D01*
G01X2305797Y3595472D01*
G37*
G36*
G01X2354997Y3595472D02*
G02X2382998Y3595472I14000J0D01*
G01X2382998Y3543473D01*
G02X2354997Y3543473I-14000J0D01*
G01X2354997Y3595472D01*
G37*
G36*
G01X2405009Y3595472D02*
G02X2433010Y3595472I14000J0D01*
G01X2433010Y3543473D01*
G02X2405009Y3543473I-14000J0D01*
G01X2405009Y3595472D01*
G37*
G36*
G01X2454996Y3595472D02*
G02X2482997Y3595472I14000J0D01*
G01X2482997Y3543473D01*
G02X2454996Y3543473I-14000J0D01*
G01X2454996Y3595472D01*
G37*
G36*
G01X2505009Y3595472D02*
G02X2533010Y3595472I14000J0D01*
G01X2533010Y3543473D01*
G02X2505009Y3543473I-14000J0D01*
G01X2505009Y3595472D01*
G37*
G36*
G01X2554996Y3595472D02*
G02X2582997Y3595472I14000J0D01*
G01X2582997Y3543473D01*
G02X2554996Y3543473I-14000J0D01*
G01X2554996Y3595472D01*
G37*
G36*
G01X2618003Y3480465D02*
G02X2618003Y3508466I0J14000D01*
G01X2670002Y3508466D01*
G02X2670002Y3480465I0J-14000D01*
G01X2618003Y3480465D01*
G37*
G36*
G01X2618003Y3430478D02*
G02X2618003Y3458479I0J14000D01*
G01X2670002Y3458479D01*
G02X2670002Y3430478I0J-14000D01*
G01X2618003Y3430478D01*
G37*
G36*
G01X2618003Y3380466D02*
G02X2618003Y3408467I0J14000D01*
G01X2670002Y3408467D01*
G02X2670002Y3380466I0J-14000D01*
G01X2618003Y3380466D01*
G37*
G36*
G01X2618003Y3330478D02*
G02X2618003Y3358479I0J14000D01*
G01X2670002Y3358479D01*
G02X2670002Y3330478I0J-14000D01*
G01X2618003Y3330478D01*
G37*
G36*
G01X2618003Y3280466D02*
G02X2618003Y3308467I0J14000D01*
G01X2670002Y3308467D01*
G02X2670002Y3280466I0J-14000D01*
G01X2618003Y3280466D01*
G37*
G36*
G01X2618003Y3230479D02*
G02X2618003Y3258480I0J14000D01*
G01X2670002Y3258480D01*
G02X2670002Y3230479I0J-14000D01*
G01X2618003Y3230479D01*
G37*
G36*
G01X2554996Y3195472D02*
G02X2582997Y3195472I14000J0D01*
G01X2582997Y3143474D01*
G02X2554996Y3143474I-14000J0D01*
G01X2554996Y3195472D01*
G37*
G36*
G01X2505009Y3195472D02*
G02X2533010Y3195472I14000J0D01*
G01X2533010Y3143474D01*
G02X2505009Y3143474I-14000J0D01*
G01X2505009Y3195472D01*
G37*
G36*
G01X2454996Y3195472D02*
G02X2482997Y3195472I14000J0D01*
G01X2482997Y3143474D01*
G02X2454996Y3143474I-14000J0D01*
G01X2454996Y3195472D01*
G37*
G36*
G01X2405009Y3195472D02*
G02X2433010Y3195472I14000J0D01*
G01X2433010Y3143474D01*
G02X2405009Y3143474I-14000J0D01*
G01X2405009Y3195472D01*
G37*
G36*
G01X2354997Y3195472D02*
G02X2382998Y3195472I14000J0D01*
G01X2382998Y3143474D01*
G02X2354997Y3143474I-14000J0D01*
G01X2354997Y3195472D01*
G37*
G36*
G01X2305009Y3195472D02*
G02X2333010Y3195472I14000J0D01*
G01X2333010Y3143474D01*
G02X2305009Y3143474I-14000J0D01*
G01X2305009Y3195472D01*
G37*
G36*
G01X2337247Y3477473D02*
G01X2553249Y3477473D01*
G01X2553249Y3261472D01*
G01X2337247Y3261472D01*
G01X2337247Y3477473D01*
G37*

G04 Pad Start*
G54D10*
G01X1615440Y6075680D03*
G54D11*
G01X1830440Y6075680D03*
G54D12*
G01X447040Y4215282D03*
G01X447040Y4075278D03*
G01X452120Y2998318D03*
G01X452120Y3138322D03*
G01X457200Y3277718D03*
G01X457200Y3417722D03*
G54D13*
G01X1903882Y3764280D03*
G01X1763878Y3764280D03*
G01X1893722Y2606040D03*
G01X1753718Y2606040D03*
G01X412598Y2788920D03*
G01X552602Y2788920D03*
G01X697078Y3789680D03*
G01X837082Y3789680D03*
G01X2112162Y3444240D03*
G01X1972158Y3444240D03*
G54D12*
G01X2656840Y3719678D03*
G01X2656840Y3859682D03*
G01X2473960Y3719678D03*
G01X2473960Y3859682D03*
G54D13*
G01X2950362Y3479800D03*
G01X2810358Y3479800D03*
G54D12*
G01X2794000Y3184042D03*
G01X2794000Y3044038D03*
G01X2580640Y4740758D03*
G01X2580640Y4880762D03*
G01X2773680Y4740758D03*
G01X2773680Y4880762D03*
G01X1874520Y5906922D03*
G01X1874520Y5766918D03*
G01X1701800Y5766918D03*
G01X1701800Y5906922D03*
G01X2367280Y5906922D03*
G01X2367280Y5766918D03*
G01X2529840Y5906922D03*
G01X2529840Y5766918D03*
G01X1879600Y5015078D03*
G01X1879600Y5155082D03*
G01X2799080Y5462118D03*
G01X2799080Y5602122D03*
G01X2966720Y5297322D03*
G01X2966720Y5157318D03*
G54D13*
G01X1799438Y690880D03*
G01X1939442Y690880D03*
G01X1794358Y487680D03*
G01X1934362Y487680D03*
G01X1794358Y294640D03*
G01X1934362Y294640D03*
G54D14*
G01X4637189Y2218576D03*
G01X3897211Y2766606D03*
G01X3897186Y2516594D03*
G01X4637215Y3064624D03*
G54D15*
G01X704624Y5043312D03*
G01X614000Y4957220D03*
G54D16*
G01X715689Y5405535D03*
G01X251686Y4964733D03*
G54D17*
G01X614000Y1430880D03*
G01X704624Y1344788D03*
G54D18*
G01X251686Y1423367D03*
G01X715689Y982565D03*
G54D17*
G01X4250100Y4964840D03*
G01X4159476Y5050932D03*
G54D18*
G01X4612414Y4972353D03*
G01X4148411Y5413155D03*
G54D15*
G01X4146776Y1344788D03*
G01X4237400Y1430880D03*
G54D16*
G01X4135711Y982565D03*
G01X4599714Y1423367D03*
G54D20*
G01X1187196Y5215560D03*
G01X997204Y5215560D03*
G01X1092200Y5015560D03*
G01X719836Y1857680D03*
G01X529844Y1857680D03*
G01X624840Y1657680D03*
G01X3889756Y5235880D03*
G01X3699764Y5235880D03*
G01X3794760Y5035880D03*
G01X3720084Y1266520D03*
G01X3910076Y1266520D03*
G01X3815080Y1466520D03*
G01X3351276Y2452040D03*
G01X3161284Y2452040D03*
G01X3256280Y2252040D03*
G54D21*
G01X305613Y4075887D03*
G01X305613Y3655873D03*
G01X90627Y4075887D03*
G01X90627Y3655873D03*
G54D22*
G01X4336593Y1999793D03*
G01X4756607Y1999793D03*
G01X4336593Y1784807D03*
G01X4756607Y1784807D03*
G54D23*
G01X824687Y3465246D03*
G01X824687Y3415233D03*
G01X824687Y3365246D03*
G01X824687Y3315233D03*
G01X824687Y3265246D03*
G01X824687Y3215234D03*
G01X824687Y3165246D03*
G01X824687Y3115234D03*
G01X824687Y3065247D03*
G01X824687Y3015234D03*
G01X824687Y2965247D03*
G01X824687Y2915234D03*
G54D24*
G01X974674Y2765247D03*
G01X1024687Y2765247D03*
G01X1074674Y2765247D03*
G01X1124687Y2765247D03*
G01X1174674Y2765247D03*
G01X1224686Y2765247D03*
G01X1274674Y2765247D03*
G01X1324686Y2765247D03*
G01X1374673Y2765247D03*
G01X1424686Y2765247D03*
G01X1474673Y2765247D03*
G01X1524686Y2765247D03*
G54D23*
G01X1674673Y2915234D03*
G01X1674673Y2965247D03*
G01X1674673Y3015234D03*
G01X1674673Y3065247D03*
G01X1674673Y3115234D03*
G01X1674673Y3165246D03*
G01X1674673Y3215234D03*
G01X1674673Y3265246D03*
G01X1674673Y3315233D03*
G01X1674673Y3365246D03*
G01X1674673Y3415233D03*
G01X1674673Y3465246D03*
G54D24*
G01X1524686Y3615233D03*
G01X1474673Y3615233D03*
G01X1424686Y3615233D03*
G01X1374673Y3615233D03*
G01X1324686Y3615233D03*
G01X1274674Y3615233D03*
G01X1224686Y3615233D03*
G01X1174674Y3615233D03*
G01X1124687Y3615233D03*
G01X1074674Y3615233D03*
G01X1024687Y3615233D03*
G01X974674Y3615233D03*
G54D25*
G01X2139020Y5024194D03*
G01X2189033Y5024194D03*
G01X2239020Y5024194D03*
G01X2289033Y5024194D03*
G01X2339020Y5024194D03*
G54D26*
G01X2439020Y5124193D03*
G01X2439020Y5174206D03*
G01X2439020Y5224193D03*
G01X2439020Y5274206D03*
G01X2439020Y5324193D03*
G54D25*
G01X2339020Y5424193D03*
G01X2289033Y5424193D03*
G01X2239020Y5424193D03*
G01X2189033Y5424193D03*
G01X2139020Y5424193D03*
G54D26*
G01X2039021Y5324193D03*
G01X2039021Y5274206D03*
G01X2039021Y5224193D03*
G01X2039021Y5174206D03*
G01X2039021Y5124193D03*
G54D27*
G01X2239020Y5224193D03*
G54D28*
G01X118199Y3351047D03*
G01X118199Y3131033D03*
G01X288201Y3131033D03*
G01X288201Y3351047D03*
G54D29*
G01X3295714Y5378209D03*
G01X3295714Y5188191D03*
G01X3145727Y5188191D03*
G01X3145727Y5378209D03*
G04 Pad End*

M02*

