G04 Layer: BottomSolderMaskLayer*
G04 EasyEDA Pro v3.2.148, 2026-07-06 23:39:11*
G04 Gerber Generator version 0.3*
G04 Scale: 100 percent, Rotated: No, Reflected: No*
G04 Dimensions in millimeters*
G04 Leading zeros omitted, absolute positions, 4 integers and 5 decimals*
G04 Generated by one-click*
G04 Object Configs: Pad,Via,Track,Text,Image,Dimension,BoardOutline,BoardCutout,CopperFilled,SolidRegion,FPCStiffener,Line,PlaneZone,ComponentProperty,ComponentSilkscreen,TearDrop*
G04 Layer Configs: 1,2,3,4,5,6,7,8,9,10,11,13,14,56*
G04 Copper Areas: 0*
%FSLAX45Y45*%
%MOMM*%
%AMRoundRect*1,1,$1,$2,$3*1,1,$1,$4,$5*1,1,$1,0-$2,0-$3*1,1,$1,0-$4,0-$5*20,1,$1,$2,$3,$4,$5,0*20,1,$1,$4,$5,0-$2,0-$3,0*20,1,$1,0-$2,0-$3,0-$4,0-$5,0*20,1,$1,0-$4,0-$5,$2,$3,0*4,1,4,$2,$3,$4,$5,0-$2,0-$3,0-$4,0-$5,$2,$3,0*%
%ADD10C,5.1016*%
%ADD11RoundRect,0.1016X-0.4X0.45X0.4X0.45*%
%ADD12RoundRect,0.1016X-0.45X-0.4X-0.45X0.4*%
%ADD13C,1.8016*%
%ADD14RoundRect,0.1016X-0.85X-0.85X-0.85X0.85*%
%ADD15RoundRect,0.1016X-0.4X0.432X0.4X0.432*%
%ADD16RoundRect,0.1016X-0.7875X0.336X0.7875X0.336*%
%ADD17RoundRect,0.1016X-0.40324X0.432X0.40324X0.432*%
%ADD18RoundRect,0.1027X-0.254X0.254X0.254X0.254*%
%ADD19RoundRect,0.10003X-0.254X0.254X0.254X0.254*%
%ADD20O,1.9666X0.7316*%
%ADD21RoundRect,0.10003X-1.2X-1.65X-1.2X1.65*%
G75*


G04 Pad Start*
G54D10*
G01X1150000Y2050000D03*
G01X1150000Y4550000D03*
G01X3650000Y4550000D03*
G01X3650000Y2050000D03*
G54D11*
G01X3791102Y3467100D03*
G01X3651098Y3467100D03*
G54D12*
G01X3378200Y2863698D03*
G01X3378200Y3003702D03*
G01X3200400Y2863698D03*
G01X3200400Y3003702D03*
G54D11*
G01X3244698Y3276600D03*
G01X3384702Y3276600D03*
G01X3270098Y3886200D03*
G01X3410102Y3886200D03*
G54D13*
G01X4151300Y3675101D03*
G01X3951300Y3675101D03*
G01X4151300Y3875100D03*
G01X3951300Y3875100D03*
G01X4151300Y4075100D03*
G01X3951300Y4075100D03*
G01X4151300Y4275099D03*
G54D14*
G01X3951300Y4275099D03*
G54D15*
G01X3346590Y3136900D03*
G01X3206610Y3136900D03*
G54D16*
G01X3421587Y3730719D03*
G01X3421587Y3430720D03*
G36*
G01X3243063Y3480735D02*
G01X3057643Y3480735D01*
G01X3057523Y3480736D01*
G01X3053071Y3480843D01*
G01X3052840Y3480854D01*
G01X3048397Y3481166D01*
G01X3048164Y3481188D01*
G01X3043739Y3481709D01*
G01X3043508Y3481741D01*
G01X3039113Y3482468D01*
G01X3038880Y3482512D01*
G01X3034524Y3483447D01*
G01X3034298Y3483501D01*
G01X3029992Y3484636D01*
G01X3029768Y3484701D01*
G01X3025518Y3486037D01*
G01X3025295Y3486113D01*
G01X3021115Y3487647D01*
G01X3020895Y3487734D01*
G01X3016791Y3489464D01*
G01X3016580Y3489558D01*
G01X3012559Y3491476D01*
G01X3012347Y3491583D01*
G01X3008423Y3493689D01*
G01X3008219Y3493805D01*
G01X3004396Y3496093D01*
G01X3004199Y3496218D01*
G01X3000488Y3498681D01*
G01X3000296Y3498815D01*
G01X2996705Y3501449D01*
G01X2996518Y3501593D01*
G01X2993056Y3504392D01*
G01X2992877Y3504544D01*
G01X2989547Y3507506D01*
G01X2989376Y3507665D01*
G01X2986191Y3510777D01*
G01X2986027Y3510944D01*
G01X2982989Y3514203D01*
G01X2982833Y3514378D01*
G01X2979953Y3517774D01*
G01X2979805Y3517957D01*
G01X2977087Y3521485D01*
G01X2976949Y3521674D01*
G01X2974399Y3525326D01*
G01X2974269Y3525522D01*
G01X2971894Y3529289D01*
G01X2971773Y3529490D01*
G01X2969576Y3533366D01*
G01X2969467Y3533571D01*
G01X2967452Y3537543D01*
G01X2967350Y3537757D01*
G01X2965526Y3541821D01*
G01X2965437Y3542035D01*
G01X2963803Y3546177D01*
G01X2963722Y3546400D01*
G01X2962286Y3550617D01*
G01X2962216Y3550839D01*
G01X2960979Y3555119D01*
G01X2960919Y3555347D01*
G01X2959885Y3559681D01*
G01X2959837Y3559908D01*
G01X2959006Y3564282D01*
G01X2958968Y3564514D01*
G01X2958343Y3568926D01*
G01X2958315Y3569159D01*
G01X2957899Y3573594D01*
G01X2957882Y3573828D01*
G01X2957674Y3578276D01*
G01X2957669Y3578509D01*
G01X2957669Y3582965D01*
G01X2957674Y3583199D01*
G01X2957882Y3587646D01*
G01X2957899Y3587880D01*
G01X2958315Y3592315D01*
G01X2958343Y3592548D01*
G01X2958968Y3596960D01*
G01X2959006Y3597192D01*
G01X2959837Y3601566D01*
G01X2959885Y3601793D01*
G01X2960919Y3606127D01*
G01X2960979Y3606355D01*
G01X2962216Y3610635D01*
G01X2962286Y3610857D01*
G01X2963722Y3615074D01*
G01X2963803Y3615297D01*
G01X2965437Y3619439D01*
G01X2965526Y3619653D01*
G01X2967350Y3623717D01*
G01X2967452Y3623931D01*
G01X2969467Y3627903D01*
G01X2969576Y3628108D01*
G01X2971773Y3631984D01*
G01X2971894Y3632185D01*
G01X2974269Y3635952D01*
G01X2974399Y3636148D01*
G01X2976949Y3639800D01*
G01X2977087Y3639989D01*
G01X2979805Y3643517D01*
G01X2979953Y3643700D01*
G01X2982833Y3647096D01*
G01X2982989Y3647271D01*
G01X2986027Y3650530D01*
G01X2986191Y3650698D01*
G01X2989376Y3653809D01*
G01X2989547Y3653969D01*
G01X2992877Y3656930D01*
G01X2993056Y3657082D01*
G01X2996518Y3659881D01*
G01X2996705Y3660025D01*
G01X3000296Y3662659D01*
G01X3000488Y3662793D01*
G01X3004199Y3665257D01*
G01X3004396Y3665381D01*
G01X3008219Y3667670D01*
G01X3008423Y3667785D01*
G01X3012347Y3669891D01*
G01X3012559Y3669998D01*
G01X3016580Y3671916D01*
G01X3016791Y3672011D01*
G01X3020895Y3673740D01*
G01X3021115Y3673827D01*
G01X3025295Y3675361D01*
G01X3025518Y3675437D01*
G01X3029768Y3676773D01*
G01X3029992Y3676838D01*
G01X3034298Y3677973D01*
G01X3034524Y3678027D01*
G01X3038880Y3678962D01*
G01X3039113Y3679006D01*
G01X3043508Y3679733D01*
G01X3043739Y3679765D01*
G01X3048164Y3680286D01*
G01X3048397Y3680308D01*
G01X3052840Y3680620D01*
G01X3053071Y3680631D01*
G01X3057523Y3680738D01*
G01X3057643Y3680739D01*
G01X3243063Y3680739D01*
G01X3243183Y3680738D01*
G01X3247636Y3680631D01*
G01X3247867Y3680620D01*
G01X3252309Y3680308D01*
G01X3252543Y3680286D01*
G01X3256967Y3679765D01*
G01X3257199Y3679733D01*
G01X3261593Y3679006D01*
G01X3261826Y3678962D01*
G01X3266182Y3678027D01*
G01X3266408Y3677973D01*
G01X3270714Y3676838D01*
G01X3270938Y3676773D01*
G01X3275188Y3675437D01*
G01X3275411Y3675361D01*
G01X3279592Y3673827D01*
G01X3279811Y3673740D01*
G01X3283916Y3672011D01*
G01X3284126Y3671916D01*
G01X3288147Y3669998D01*
G01X3288359Y3669891D01*
G01X3292283Y3667785D01*
G01X3292487Y3667670D01*
G01X3296310Y3665381D01*
G01X3296507Y3665257D01*
G01X3300218Y3662793D01*
G01X3300410Y3662659D01*
G01X3304001Y3660025D01*
G01X3304188Y3659881D01*
G01X3307650Y3657082D01*
G01X3307829Y3656930D01*
G01X3311159Y3653969D01*
G01X3311330Y3653809D01*
G01X3314516Y3650698D01*
G01X3314679Y3650530D01*
G01X3317717Y3647271D01*
G01X3317873Y3647096D01*
G01X3320753Y3643700D01*
G01X3320901Y3643517D01*
G01X3323619Y3639989D01*
G01X3323757Y3639800D01*
G01X3326308Y3636148D01*
G01X3326438Y3635952D01*
G01X3328812Y3632185D01*
G01X3328933Y3631984D01*
G01X3331130Y3628108D01*
G01X3331240Y3627903D01*
G01X3333254Y3623931D01*
G01X3333667Y3622789D01*
G01X3334599Y3618735D01*
G01X3500350Y3618735D01*
G02X3505351Y3613734I0J-5001D01*
G01X3505351Y3547735D01*
G02X3500350Y3542734I-5001J0D01*
G01X3334599Y3542734D01*
G01X3333667Y3538684D01*
G01X3333254Y3537543D01*
G01X3331240Y3533571D01*
G01X3331130Y3533366D01*
G01X3328933Y3529490D01*
G01X3328812Y3529289D01*
G01X3326438Y3525522D01*
G01X3326308Y3525326D01*
G01X3323757Y3521674D01*
G01X3323619Y3521485D01*
G01X3320901Y3517957D01*
G01X3320753Y3517774D01*
G01X3317873Y3514378D01*
G01X3317717Y3514203D01*
G01X3314679Y3510944D01*
G01X3314516Y3510777D01*
G01X3311330Y3507665D01*
G01X3311159Y3507506D01*
G01X3307829Y3504544D01*
G01X3307650Y3504392D01*
G01X3304188Y3501593D01*
G01X3304001Y3501449D01*
G01X3300410Y3498815D01*
G01X3300218Y3498681D01*
G01X3296507Y3496218D01*
G01X3296310Y3496093D01*
G01X3292487Y3493805D01*
G01X3292283Y3493689D01*
G01X3288359Y3491583D01*
G01X3288147Y3491476D01*
G01X3284126Y3489558D01*
G01X3283916Y3489464D01*
G01X3279811Y3487734D01*
G01X3279592Y3487647D01*
G01X3275411Y3486113D01*
G01X3275188Y3486037D01*
G01X3270938Y3484701D01*
G01X3270714Y3484636D01*
G01X3266408Y3483501D01*
G01X3266182Y3483447D01*
G01X3261826Y3482512D01*
G01X3261593Y3482468D01*
G01X3257199Y3481741D01*
G01X3256967Y3481709D01*
G01X3252543Y3481188D01*
G01X3252309Y3481166D01*
G01X3247867Y3480854D01*
G01X3247636Y3480843D01*
G01X3243183Y3480736D01*
G01X3243063Y3480735D01*
G37*
G54D17*
G01X3975964Y3467100D03*
G01X4126636Y3467100D03*
G01X3460344Y2722880D03*
G01X3611016Y2722880D03*
G54D19*
G01X2297443Y384797D03*
G01X2217433Y384797D03*
G01X2217433Y304787D03*
G01X2377453Y384797D03*
G01X2457437Y384797D03*
G01X2537447Y304787D03*
G01X2537447Y384797D03*
G01X2537447Y224803D03*
G01X2457437Y224803D03*
G36*
G01X2185693Y255199D02*
G01X2249193Y255199D01*
G02X2254194Y250198I0J-5001D01*
G01X2254194Y199398D01*
G02X2249193Y194396I-5001J0D01*
G01X2198393Y194396D01*
G02X2193392Y199398I0J5001D01*
G01X2193392Y219796D01*
G01X2185693Y219796D01*
G02X2180692Y224798I0J5001D01*
G01X2180692Y250198D01*
G02X2185693Y255199I5001J0D01*
G37*
G01X2297443Y224803D03*
G01X2377453Y224803D03*
G54D20*
G01X3616474Y2883710D03*
G01X3616474Y3010710D03*
G01X3616474Y3137710D03*
G01X3616474Y3264710D03*
G01X4152972Y2883710D03*
G01X4152972Y3010710D03*
G01X4152972Y3137710D03*
G01X4152972Y3264710D03*
G54D21*
G01X3884723Y3074210D03*
G04 Pad End*

M02*

