;TYPE=PLATED
;Layer: PTH_Through
;EasyEDA Pro v3.2.148, 2026-07-06 23:38:55
;Gerber Generator version 0.3
M48
METRIC,LZ,0000.00000
;Hole size 1 = 0.30500 METRIC
T01C0.30500
;Hole size 2 = 1.00000 METRIC
T02C1.00000
;Hole size 3 = 1.10002 METRIC
T03C1.10002
;Hole size 4 = 1.40000 METRIC
T04C1.40000
;Hole size 5 = 1.50000 METRIC
T05C1.50000
%
G05
G90
T01
X30.226Y40.513
X28.321Y57.404
X28.321Y35.179
X81.16705Y29.68071
X81.92852Y29.68071
X81.915Y18.923
X81.915Y17.95611
X31.623Y40.4878
X17.272Y45.974
X29.21Y64.00495
X30.099Y33.147
X18.36141Y45.974
X75.311Y23.6456
X75.311Y9.144
X81.026Y10.287
X79.883Y25.781
X80.01Y11.43
X78.486Y25.781
X32.512Y40.4878
X51.562Y48.78697
X52.23396Y49.54156
X36.195Y32.004
X27.051Y51.93995
X27.051Y36.703
X36.83Y32.639
X26.162Y38.481
X26.162Y34.417
X34.544Y28.956
X35.052Y36.195
X34.417Y30.099
X34.5188Y33.274
X30.861Y63.119
X31.623Y36.449
X19.685Y18.161
X35.07314Y38.354
X35.052Y37.211
X70.866Y45.974
X72.14954Y45.974
X22.987Y30.734
X70.866Y60.833
X72.11642Y60.833
X70.866Y59.944
X72.15235Y59.944
X73.914Y20.447
X65.532Y37.973
X33.274Y86.741
X40.00111Y51.15612
X40.91778Y51.51249
X41.73411Y52.02049
X42.5451Y52.40149
X40.20706Y47.81034
X41.03408Y47.8343
X41.83842Y47.8343
X42.60042Y47.8343
X86.233Y41.148
X65.532Y41.402
X41.275Y41.402
X35.56Y41.402
X87.249Y40.132
X33.274Y40.49173
X65.532Y40.64
X34.14293Y40.513
X34.036Y70.358
X30.099Y49.149
X31.623Y49.657
X32.512Y50.292
X65.532Y39.87394
X92.71Y39.497
X65.532Y38.735
X95.123Y38.735
X56.54127Y36.2585
X57.67383Y36.2585
X57.70078Y35.179
X56.515Y35.179
X56.41427Y43.4975
X57.54683Y43.4975
X56.388Y42.418
X57.57378Y42.418
X40.03877Y36.30744
X40.98101Y36.30744
X56.388Y78.74
X57.62724Y78.74
X56.388Y77.851
X57.65419Y77.851
X41.402Y81.788
X42.11657Y81.788
X41.402Y83.566
X42.13178Y83.566
X34.67614Y48.4693
X35.179Y47.879
X35.687Y47.244
X36.449Y46.6342
X38.05177Y45.29871
X38.1Y75.057
X37.084Y45.974
X37.338Y74.041
X36.703Y72.39
X35.941Y73.152
X35.306Y71.374
X34.67614Y75.819
X26.46297Y85.217
X27.25349Y85.217
X17.272Y21.463
X18.42498Y21.463
X17.399Y36.322
X18.31752Y36.322
X56.515Y56.261
X57.61947Y56.261
X24.44902Y36.7665
X25.273Y36.7665
X28.702Y33.655
X37.973Y33.274
X19.431Y30.734
X19.685Y28.575
X2.889Y53.16518
X2.889Y55.70518
X2.889Y58.24518
X2.889Y60.78518
X2.889Y27.76518
X2.889Y30.30518
X2.889Y32.84518
X2.889Y35.38518
X2.889Y37.92518
X2.889Y40.46518
X2.889Y43.00518
X2.889Y45.54518
X2.889Y7.44518
X2.889Y9.98518
X2.889Y12.52518
X5.429Y53.16518
X5.429Y55.70518
X5.429Y58.24518
X5.429Y60.78518
X5.429Y63.32518
X5.429Y65.86518
X5.429Y30.30518
X5.429Y32.84518
X5.429Y35.38518
X5.429Y37.92518
X5.429Y40.46518
X5.429Y43.00518
X5.429Y45.54518
X5.429Y4.90518
X5.429Y7.44518
X5.429Y9.98518
X5.429Y12.52518
X5.429Y15.06518
X5.429Y17.60518
X5.429Y20.14518
X7.969Y53.16518
X7.969Y55.70518
X7.969Y63.32518
X7.969Y65.86518
X7.969Y68.40518
X7.969Y70.94518
X7.969Y32.84518
X7.969Y35.38518
X7.969Y37.92518
X7.969Y40.46518
X7.969Y2.36518
X7.969Y4.90518
X7.969Y7.44518
X7.969Y9.98518
X7.969Y12.52518
X7.969Y15.06518
X7.969Y20.14518
X10.509Y55.70518
X10.509Y58.24518
X10.509Y60.78518
X10.509Y63.32518
X10.509Y65.86518
X10.509Y68.40518
X10.509Y70.94518
X10.509Y73.48518
X10.509Y76.02518
X10.509Y50.62518
X10.509Y37.92518
X10.509Y40.46518
X10.509Y43.00518
X10.509Y45.54518
X10.509Y2.36518
X10.509Y4.90518
X10.509Y7.44518
X10.509Y9.98518
X10.509Y12.52518
X10.509Y20.14518
X13.049Y63.32518
X13.049Y65.86518
X13.049Y68.40518
X13.049Y70.94518
X13.049Y73.48518
X13.049Y76.02518
X13.049Y78.56518
X13.049Y50.62518
X13.049Y53.16518
X13.049Y55.70518
X13.049Y37.92518
X13.049Y40.46518
X13.049Y43.00518
X13.049Y45.54518
X13.049Y20.14518
X13.049Y2.36518
X13.049Y4.90518
X15.589Y65.86518
X15.589Y68.40518
X15.589Y70.94518
X15.589Y73.48518
X15.589Y76.02518
X15.589Y78.56518
X15.589Y81.10518
X15.589Y60.78518
X15.589Y63.32518
X15.589Y50.62518
X15.589Y53.16518
X15.589Y55.70518
X15.589Y37.92518
X15.589Y40.46518
X15.589Y43.00518
X15.589Y45.54518
X15.589Y32.84518
X15.589Y35.38518
X15.589Y2.36518
X15.589Y4.90518
X15.589Y7.44518
X15.589Y9.98518
X15.589Y12.52518
X15.589Y15.06518
X18.129Y76.02518
X18.129Y81.10518
X18.129Y83.64518
X18.129Y2.36518
X18.129Y4.90518
X18.129Y9.98518
X18.129Y12.52518
X20.669Y86.18518
X20.669Y65.86518
X20.669Y68.40518
X20.669Y76.02518
X20.669Y78.56518
X20.669Y81.10518
X20.669Y63.32518
X20.669Y50.62518
X20.669Y53.16518
X20.669Y55.70518
X20.669Y48.08518
X20.669Y32.84518
X20.669Y2.36518
X20.669Y4.90518
X20.669Y7.44518
X20.669Y9.98518
X20.669Y12.52518
X20.669Y15.06518
X20.669Y17.60518
X23.209Y65.86518
X23.209Y68.40518
X23.209Y76.02518
X23.209Y78.56518
X23.209Y63.32518
X23.209Y55.70518
X23.209Y43.00518
X23.209Y48.08518
X23.209Y50.62518
X23.209Y32.84518
X23.209Y4.90518
X23.209Y7.44518
X23.209Y9.98518
X23.209Y12.52518
X25.749Y88.72518
X25.749Y65.86518
X25.749Y68.40518
X25.749Y63.32518
X25.749Y53.16518
X25.749Y55.70518
X25.749Y58.24518
X25.749Y43.00518
X25.749Y48.08518
X25.749Y50.62518
X25.749Y32.84518
X25.749Y7.44518
X25.749Y9.98518
X25.749Y12.52518
X25.749Y15.06518
X25.749Y17.60518
X25.749Y20.14518
X25.749Y22.68518
X25.749Y25.22518
X28.289Y88.72518
X28.289Y65.86518
X28.289Y68.40518
X28.289Y70.94518
X28.289Y73.48518
X28.289Y76.02518
X28.289Y78.56518
X28.289Y81.10518
X28.289Y83.64518
X28.289Y9.98518
X28.289Y12.52518
X28.289Y15.06518
X28.289Y20.14518
X28.289Y22.68518
X28.289Y27.76518
X30.829Y88.72518
X30.829Y91.26518
X30.829Y65.86518
X30.829Y68.40518
X30.829Y70.94518
X30.829Y73.48518
X30.829Y76.02518
X30.829Y78.56518
X30.829Y81.10518
X30.829Y83.64518
X30.829Y25.22518
X30.829Y27.76518
X33.369Y88.72518
X33.369Y91.26518
X33.369Y27.76518
X35.909Y86.18518
X35.909Y88.72518
X35.909Y91.26518
X35.909Y93.80518
X35.909Y78.56518
X35.909Y81.10518
X38.449Y86.18518
X38.449Y88.72518
X38.449Y91.26518
X38.449Y93.80518
X40.989Y65.86518
X40.989Y68.40518
X40.989Y58.24518
X40.989Y55.70518
X43.529Y65.86518
X43.529Y68.40518
X43.529Y58.24518
X43.529Y53.16518
X43.529Y55.70518
X46.069Y65.86518
X46.069Y68.40518
X46.069Y58.24518
X46.069Y53.16518
X46.069Y55.70518
X46.069Y48.08518
X48.609Y83.64518
X48.609Y65.86518
X48.609Y68.40518
X48.609Y58.24518
X48.609Y50.62518
X48.609Y53.16518
X48.609Y55.70518
X51.149Y65.86518
X51.149Y68.40518
X51.149Y58.24518
X51.149Y53.16518
X51.149Y55.70518
X53.689Y86.18518
X53.689Y65.86518
X53.689Y68.40518
X53.689Y58.24518
X53.689Y48.08518
X53.689Y55.70518
X56.229Y86.18518
X58.769Y81.10518
X58.769Y83.64518
X58.769Y86.18518
X58.769Y88.72518
X58.769Y91.26518
X58.769Y93.80518
X61.309Y81.10518
X61.309Y83.64518
X61.309Y86.18518
X61.309Y88.72518
X61.309Y91.26518
X61.309Y93.80518
X61.309Y65.86518
X61.309Y68.40518
X61.309Y58.24518
X61.309Y43.00518
X61.309Y45.54518
X61.309Y48.08518
X61.309Y55.70518
X61.309Y32.84518
X63.849Y81.10518
X63.849Y83.64518
X63.849Y86.18518
X63.849Y88.72518
X63.849Y91.26518
X63.849Y93.80518
X63.849Y65.86518
X63.849Y68.40518
X63.849Y70.94518
X63.849Y58.24518
X63.849Y43.00518
X63.849Y45.54518
X63.849Y48.08518
X63.849Y50.62518
X63.849Y55.70518
X63.849Y32.84518
X66.389Y81.10518
X66.389Y83.64518
X66.389Y86.18518
X66.389Y88.72518
X66.389Y91.26518
X66.389Y65.86518
X66.389Y68.40518
X66.389Y70.94518
X66.389Y73.48518
X66.389Y58.24518
X66.389Y43.00518
X66.389Y45.54518
X66.389Y48.08518
X66.389Y50.62518
X66.389Y53.16518
X66.389Y55.70518
X66.389Y27.76518
X66.389Y30.30518
X66.389Y32.84518
X68.929Y83.64518
X68.929Y86.18518
X68.929Y88.72518
X68.929Y91.26518
X68.929Y65.86518
X68.929Y68.40518
X68.929Y70.94518
X68.929Y73.48518
X68.929Y76.02518
X68.929Y58.24518
X68.929Y45.54518
X68.929Y48.08518
X68.929Y50.62518
X68.929Y53.16518
X68.929Y55.70518
X68.929Y25.22518
X68.929Y27.76518
X68.929Y32.84518
X71.469Y86.18518
X71.469Y88.72518
X71.469Y65.86518
X71.469Y68.40518
X71.469Y70.94518
X71.469Y73.48518
X71.469Y76.02518
X71.469Y78.56518
X71.469Y9.98518
X71.469Y12.52518
X71.469Y15.06518
X71.469Y17.60518
X71.469Y20.14518
X71.469Y22.68518
X71.469Y25.22518
X74.009Y88.72518
X74.009Y65.86518
X74.009Y68.40518
X74.009Y70.94518
X74.009Y73.48518
X74.009Y76.02518
X74.009Y78.56518
X74.009Y81.10518
X74.009Y55.70518
X74.009Y58.24518
X74.009Y60.78518
X74.009Y48.08518
X74.009Y50.62518
X74.009Y37.92518
X74.009Y43.00518
X76.549Y65.86518
X76.549Y68.40518
X76.549Y70.94518
X76.549Y73.48518
X76.549Y76.02518
X76.549Y78.56518
X76.549Y81.10518
X76.549Y55.70518
X76.549Y58.24518
X76.549Y60.78518
X76.549Y32.84518
X76.549Y35.38518
X76.549Y37.92518
X76.549Y43.00518
X76.549Y45.54518
X76.549Y7.44518
X76.549Y12.52518
X76.549Y15.06518
X76.549Y20.14518
X76.549Y25.22518
X76.549Y27.76518
X79.089Y86.18518
X79.089Y65.86518
X79.089Y68.40518
X79.089Y70.94518
X79.089Y73.48518
X79.089Y76.02518
X79.089Y78.56518
X79.089Y81.10518
X79.089Y55.70518
X79.089Y32.84518
X79.089Y35.38518
X79.089Y37.92518
X79.089Y48.08518
X79.089Y2.36518
X79.089Y7.44518
X79.089Y27.76518
X81.629Y65.86518
X81.629Y68.40518
X81.629Y70.94518
X81.629Y73.48518
X81.629Y76.02518
X81.629Y83.64518
X81.629Y60.78518
X81.629Y32.84518
X81.629Y35.38518
X81.629Y37.92518
X81.629Y43.00518
X81.629Y45.54518
X81.629Y48.08518
X81.629Y50.62518
X81.629Y2.36518
X81.629Y7.44518
X81.629Y12.52518
X84.169Y65.86518
X84.169Y68.40518
X84.169Y70.94518
X84.169Y73.48518
X84.169Y76.02518
X84.169Y78.56518
X84.169Y81.10518
X84.169Y2.36518
X84.169Y7.44518
X84.169Y12.52518
X84.169Y17.60518
X84.169Y20.14518
X84.169Y27.76518
X84.169Y30.30518
X84.169Y32.84518
X84.169Y35.38518
X84.169Y37.92518
X84.169Y43.00518
X84.169Y45.54518
X84.169Y48.08518
X84.169Y50.62518
X84.169Y53.16518
X84.169Y55.70518
X84.169Y58.24518
X86.709Y68.40518
X86.709Y70.94518
X86.709Y73.48518
X86.709Y76.02518
X86.709Y78.56518
X86.709Y7.44518
X86.709Y12.52518
X86.709Y17.60518
X86.709Y20.14518
X86.709Y22.68518
X86.709Y25.22518
X86.709Y30.30518
X86.709Y43.00518
X86.709Y45.54518
X86.709Y48.08518
X86.709Y50.62518
X86.709Y53.16518
X86.709Y55.70518
X86.709Y58.24518
X89.249Y2.36518
X89.249Y4.90518
X89.249Y7.44518
X89.249Y9.98518
X89.249Y12.52518
X89.249Y22.68518
X89.249Y25.22518
X89.249Y30.30518
X89.249Y37.92518
X89.249Y40.46518
X89.249Y43.00518
X89.249Y45.54518
X89.249Y48.08518
X89.249Y50.62518
X89.249Y53.16518
X89.249Y55.70518
X89.249Y58.24518
X89.249Y60.78518
X89.249Y63.32518
X89.249Y65.86518
X89.249Y68.40518
X89.249Y70.94518
X89.249Y73.48518
X89.249Y76.02518
X91.789Y2.36518
X91.789Y4.90518
X91.789Y7.44518
X91.789Y9.98518
X91.789Y12.52518
X91.789Y22.68518
X91.789Y25.22518
X91.789Y37.92518
X91.789Y40.46518
X91.789Y43.00518
X91.789Y45.54518
X91.789Y48.08518
X91.789Y50.62518
X91.789Y53.16518
X91.789Y55.70518
X91.789Y58.24518
X91.789Y60.78518
X91.789Y63.32518
X91.789Y65.86518
X91.789Y68.40518
X91.789Y70.94518
X94.329Y4.90518
X94.329Y7.44518
X94.329Y9.98518
X94.329Y12.52518
X94.329Y15.06518
X94.329Y17.60518
X94.329Y20.14518
X94.329Y22.68518
X94.329Y25.22518
X94.329Y27.76518
X94.329Y30.30518
X94.329Y32.84518
X94.329Y40.46518
X94.329Y48.08518
X94.329Y50.62518
X94.329Y53.16518
X94.329Y55.70518
X94.329Y63.32518
X94.329Y65.86518
X94.329Y68.40518
X96.869Y7.44518
X96.869Y9.98518
X96.869Y12.52518
X96.869Y17.60518
X96.869Y20.14518
X96.869Y22.68518
X96.869Y27.76518
X96.869Y30.30518
X96.869Y32.84518
X96.869Y35.38518
X96.869Y37.92518
X96.869Y40.46518
X96.869Y43.00518
X96.869Y45.54518
X96.869Y48.08518
X96.869Y50.62518
X96.869Y53.16518
X96.869Y55.70518
X96.869Y58.24518
X96.869Y60.78518
X9.27208Y25.58034
X9.27208Y28.12034
X11.81208Y28.12034
X11.81208Y30.66034
X14.35208Y28.12034
X14.35208Y30.66034
X21.97208Y28.12034
X24.51208Y28.12034
X27.68534Y34.08934
X46.876Y37.37175
X49.416Y37.37175
X54.496Y37.37175
T02
X3.843Y51.943
X3.843Y53.943
X3.843Y49.943
X13.843Y61.943
X15.843Y61.943
X11.843Y61.943
X76.614Y51.943
X76.614Y53.943
X76.614Y49.943
X86.614Y61.943
X88.614Y61.943
X84.614Y61.943
T03
X92.694Y30.40101
X90.694Y30.40101
X92.694Y32.401
X90.694Y32.401
X92.694Y34.401
X90.694Y34.401
X92.694Y36.40099
X90.694Y36.40099
X20.19216Y83.82291
X16.78378Y80.88469
X81.90641Y81.09741
X78.43349Y83.95904
T04
X22.77125Y82.74553
X17.46936Y78.175
X81.28131Y78.37313
X75.87902Y82.82454
T05
X7.093Y44.193
X7.093Y59.693
X20.593Y59.693
X20.593Y44.193
X79.864Y44.193
X79.864Y59.693
X93.364Y59.693
X93.364Y44.193
M30