G04 Layer: TopSolderMaskLayer*
G04 EasyEDA Pro v3.2.148, 2026-07-06 23:38:55*
G04 Gerber Generator version 0.3*
G04 Scale: 100 percent, Rotated: No, Reflected: No*
G04 Dimensions in millimeters*
G04 Leading zeros omitted, absolute positions, 4 integers and 5 decimals*
G04 Generated by one-click*
G04 Object Configs: Pad,Via,Track,Text,Image,Dimension,BoardOutline,BoardCutout,CopperFilled,SolidRegion,FPCStiffener,Line,PlaneZone,ComponentProperty,ComponentSilkscreen,TearDrop*
G04 Layer Configs: 1,2,3,4,5,6,7,8,9,10,11,13,14,56*
G04 Copper Areas: 0*
%FSLAX45Y45*%
%MOMM*%
%AMRoundRect*1,1,$1,$2,$3*1,1,$1,$4,$5*1,1,$1,0-$2,0-$3*1,1,$1,0-$4,0-$5*20,1,$1,$2,$3,$4,$5,0*20,1,$1,$4,$5,0-$2,0-$3,0*20,1,$1,0-$2,0-$3,0-$4,0-$5,0*20,1,$1,0-$4,0-$5,$2,$3,0*4,1,4,$2,$3,$4,$5,0-$2,0-$3,0-$4,0-$5,$2,$3,0*%
%ADD10R,0.89992X0.49987*%
%ADD11R,0.49987X0.49987*%
%ADD12RoundRect,0.1016X-0.45X-0.4X-0.45X0.4*%
%ADD13RoundRect,0.1016X-0.4X0.45X0.4X0.45*%
%ADD14C,1.8016*%
%ADD15RoundRect,0.1016X-0.85X-0.85X-0.85X0.85*%
%ADD16RoundRect,0.10003X-1.75X-0.75X-1.75X0.75*%
%ADD17RoundRect,0.1016X-0.432X-0.4X-0.432X0.4*%
%ADD18RoundRect,0.1055X-0.27X-0.31824X-0.27X0.31824*%
%ADD19RoundRect,0.1016X-0.27X-0.31824X-0.27X0.31824*%
%ADD20RoundRect,0.1016X-0.7875X0.336X0.7875X0.336*%
%ADD21RoundRect,0.1016X-0.40324X0.432X0.40324X0.432*%
%ADD22RoundRect,0.1016X-0.432X-0.40324X-0.432X0.40324*%
%ADD23RoundRect,0.1016X-0.52501X0.35X0.52501X0.35*%
%ADD24RoundRect,0.1016X-0.75X-1.1X-0.75X1.1*%
%ADD25C,2.3016*%
%ADD26O,1.60002X0.37003*%
%ADD27O,0.37003X1.60002*%
%ADD28RoundRect,0.1016X-0.14X0.4X0.14X0.4*%
%ADD29RoundRect,0.1016X-0.4X0.14X0.4X0.14*%
%ADD30RoundRect,0.1016X-1.25X1.25X1.25X1.25*%
%ADD31O,0.7316X1.9666*%
%ADD32RoundRect,0.10003X-1.65X1.2X1.65X1.2*%
%ADD33RoundRect,0.1016X-0.25X1.0X0.25X1.0*%
%ADD34C,2.6016*%
%ADD35C,1.6016*%
%ADD36RoundRect,0.1016X-0.7X0.6X0.7X0.6*%
%ADD37RoundRect,0.1016X-0.6X0.55X0.6X0.55*%
G75*


G04 Pad Start*
G54D10*
G01X4152900Y8966200D03*
G54D11*
G01X4363212Y8966962D03*
G54D12*
G01X2298700Y3587902D03*
G01X2298700Y3447898D03*
G01X2590800Y4095902D03*
G01X2590800Y3955898D03*
G01X2413000Y4095902D03*
G01X2413000Y3955898D03*
G54D13*
G01X2711298Y4330700D03*
G01X2851302Y4330700D03*
G54D12*
G01X3708400Y4438802D03*
G01X3708400Y4298798D03*
G54D13*
G01X3905402Y3479800D03*
G01X3765398Y3479800D03*
G01X2304898Y3759200D03*
G01X2444902Y3759200D03*
G54D12*
G01X3949700Y8019898D03*
G01X3949700Y8159902D03*
G01X3771900Y8019898D03*
G01X3771900Y8159902D03*
G01X4292600Y8655202D03*
G01X4292600Y8515198D03*
G01X4114800Y8515198D03*
G01X4114800Y8655202D03*
G01X5069045Y8540608D03*
G01X5069045Y8680613D03*
G01X4903945Y8540608D03*
G01X4903945Y8680613D03*
G54D13*
G01X3790808Y7861308D03*
G01X3930813Y7861308D03*
G54D12*
G01X5143500Y8286902D03*
G01X5143500Y8146898D03*
G01X5308600Y8286902D03*
G01X5308600Y8146898D03*
G01X8509000Y2203298D03*
G01X8509000Y2343302D03*
G01X8343900Y1314298D03*
G01X8343900Y1454302D03*
G01X8534400Y1314298D03*
G01X8534400Y1454302D03*
G01X7734300Y2812898D03*
G01X7734300Y2952902D03*
G54D13*
G01X7055002Y2997200D03*
G01X6914998Y2997200D03*
G01X3857737Y5372590D03*
G01X3717732Y5372590D03*
G01X4032098Y5372100D03*
G01X4172102Y5372100D03*
G54D12*
G01X6248408Y5480192D03*
G01X6248408Y5340187D03*
G01X6426208Y5480192D03*
G01X6426208Y5340187D03*
G54D13*
G01X6909774Y3805616D03*
G01X7049779Y3805616D03*
G01X6912591Y3970716D03*
G01X7052596Y3970716D03*
G01X6914998Y4127500D03*
G01X7055002Y4127500D03*
G01X6917353Y4288216D03*
G01X7057358Y4288216D03*
G01X6920170Y4453316D03*
G01X7060175Y4453316D03*
G54D12*
G01X2305202Y5334000D03*
G01X2305202Y5193995D03*
G01X1390498Y6578905D03*
G01X1390498Y6438900D03*
G01X7442200Y5327802D03*
G01X7442200Y5187798D03*
G01X8661400Y6534302D03*
G01X8661400Y6394298D03*
G54D14*
G01X9269400Y3040101D03*
G01X9069400Y3040101D03*
G01X9269400Y3240100D03*
G01X9069400Y3240100D03*
G01X9269400Y3440100D03*
G01X9069400Y3440100D03*
G01X9269400Y3640099D03*
G54D15*
G01X9069400Y3640099D03*
G54D16*
G01X9780689Y1583576D03*
G01X9040711Y2131606D03*
G01X9040686Y1881594D03*
G01X9780715Y2429624D03*
G54D17*
G01X4457700Y8515210D03*
G01X4457700Y8655190D03*
G01X4597400Y8655190D03*
G01X4597400Y8515210D03*
G01X4738708Y8515215D03*
G01X4738708Y8655195D03*
G01X7988300Y1606690D03*
G01X7988300Y1466710D03*
G01X7226300Y4121290D03*
G01X7226300Y3981310D03*
G54D19*
G01X7658100Y898675D03*
G01X7658100Y1006320D03*
G01X7988300Y980925D03*
G01X7988300Y873280D03*
G01X8280400Y898675D03*
G01X8280400Y1006320D03*
G01X8585200Y980925D03*
G01X8585200Y873280D03*
G54D20*
G01X7476223Y2669400D03*
G01X7476223Y2969400D03*
G36*
G01X7107707Y2919276D02*
G01X7112160Y2919383D01*
G01X7112279Y2919385D01*
G01X7297699Y2919385D01*
G01X7297819Y2919383D01*
G01X7302272Y2919276D01*
G01X7302503Y2919266D01*
G01X7306945Y2918953D01*
G01X7307179Y2918931D01*
G01X7311604Y2918410D01*
G01X7311835Y2918378D01*
G01X7316229Y2917651D01*
G01X7316463Y2917607D01*
G01X7320819Y2916672D01*
G01X7321045Y2916618D01*
G01X7325350Y2915483D01*
G01X7325575Y2915418D01*
G01X7329824Y2914082D01*
G01X7330047Y2914006D01*
G01X7334228Y2912472D01*
G01X7334447Y2912386D01*
G01X7338552Y2910656D01*
G01X7338763Y2910561D01*
G01X7342783Y2908643D01*
G01X7342995Y2908536D01*
G01X7346919Y2906431D01*
G01X7347124Y2906315D01*
G01X7350946Y2904026D01*
G01X7351144Y2903902D01*
G01X7354855Y2901438D01*
G01X7355046Y2901304D01*
G01X7358638Y2898670D01*
G01X7358824Y2898526D01*
G01X7362286Y2895727D01*
G01X7362466Y2895575D01*
G01X7365796Y2892614D01*
G01X7365967Y2892454D01*
G01X7369152Y2889343D01*
G01X7369315Y2889175D01*
G01X7372353Y2885917D01*
G01X7372509Y2885741D01*
G01X7375389Y2882345D01*
G01X7375537Y2882162D01*
G01X7378255Y2878634D01*
G01X7378394Y2878445D01*
G01X7380944Y2874793D01*
G01X7381074Y2874597D01*
G01X7383449Y2870830D01*
G01X7383569Y2870629D01*
G01X7385766Y2866753D01*
G01X7385876Y2866549D01*
G01X7387890Y2862576D01*
G01X7388304Y2861435D01*
G01X7389235Y2857386D01*
G01X7554986Y2857386D01*
G02X7559987Y2852384I0J-5001D01*
G01X7559987Y2786385D01*
G02X7554986Y2781384I-5001J0D01*
G01X7389235Y2781384D01*
G01X7388304Y2777330D01*
G01X7387890Y2776188D01*
G01X7385876Y2772216D01*
G01X7385766Y2772011D01*
G01X7383569Y2768135D01*
G01X7383449Y2767934D01*
G01X7381074Y2764167D01*
G01X7380944Y2763972D01*
G01X7378394Y2760319D01*
G01X7378255Y2760130D01*
G01X7375537Y2756602D01*
G01X7375389Y2756419D01*
G01X7372509Y2753023D01*
G01X7372353Y2752848D01*
G01X7369315Y2749589D01*
G01X7369152Y2749422D01*
G01X7365967Y2746310D01*
G01X7365796Y2746151D01*
G01X7362466Y2743189D01*
G01X7362286Y2743037D01*
G01X7358824Y2740238D01*
G01X7358638Y2740094D01*
G01X7355046Y2737460D01*
G01X7354855Y2737327D01*
G01X7351144Y2734863D01*
G01X7350946Y2734738D01*
G01X7347124Y2732450D01*
G01X7346919Y2732334D01*
G01X7342995Y2730228D01*
G01X7342783Y2730121D01*
G01X7338763Y2728203D01*
G01X7338552Y2728109D01*
G01X7334447Y2726379D01*
G01X7334228Y2726293D01*
G01X7330047Y2724758D01*
G01X7329824Y2724683D01*
G01X7325575Y2723346D01*
G01X7325350Y2723282D01*
G01X7321045Y2722146D01*
G01X7320819Y2722092D01*
G01X7316463Y2721157D01*
G01X7316229Y2721113D01*
G01X7311835Y2720387D01*
G01X7311604Y2720354D01*
G01X7307179Y2719833D01*
G01X7306945Y2719811D01*
G01X7302503Y2719499D01*
G01X7302272Y2719488D01*
G01X7297819Y2719381D01*
G01X7297699Y2719380D01*
G01X7112279Y2719380D01*
G01X7112160Y2719381D01*
G01X7107707Y2719488D01*
G01X7107476Y2719499D01*
G01X7103033Y2719811D01*
G01X7102800Y2719833D01*
G01X7098375Y2720354D01*
G01X7098144Y2720387D01*
G01X7093750Y2721113D01*
G01X7093516Y2721157D01*
G01X7089160Y2722092D01*
G01X7088934Y2722146D01*
G01X7084629Y2723282D01*
G01X7084404Y2723346D01*
G01X7080155Y2724683D01*
G01X7079932Y2724758D01*
G01X7075751Y2726293D01*
G01X7075532Y2726379D01*
G01X7071427Y2728109D01*
G01X7071216Y2728203D01*
G01X7067195Y2730121D01*
G01X7066984Y2730228D01*
G01X7063059Y2732334D01*
G01X7062855Y2732450D01*
G01X7059032Y2734738D01*
G01X7058835Y2734863D01*
G01X7055124Y2737327D01*
G01X7054933Y2737460D01*
G01X7051341Y2740094D01*
G01X7051154Y2740238D01*
G01X7047692Y2743037D01*
G01X7047513Y2743189D01*
G01X7044183Y2746151D01*
G01X7044012Y2746310D01*
G01X7040827Y2749422D01*
G01X7040663Y2749589D01*
G01X7037626Y2752848D01*
G01X7037470Y2753023D01*
G01X7034589Y2756419D01*
G01X7034442Y2756602D01*
G01X7031724Y2760130D01*
G01X7031585Y2760319D01*
G01X7029035Y2763972D01*
G01X7028905Y2764167D01*
G01X7026530Y2767934D01*
G01X7026410Y2768135D01*
G01X7024213Y2772011D01*
G01X7024103Y2772216D01*
G01X7022089Y2776188D01*
G01X7021986Y2776403D01*
G01X7020163Y2780467D01*
G01X7020073Y2780680D01*
G01X7018440Y2784823D01*
G01X7018358Y2785045D01*
G01X7016923Y2789262D01*
G01X7016853Y2789485D01*
G01X7015616Y2793765D01*
G01X7015556Y2793993D01*
G01X7014522Y2798326D01*
G01X7014473Y2798553D01*
G01X7013642Y2802927D01*
G01X7013604Y2803159D01*
G01X7012979Y2807571D01*
G01X7012952Y2807805D01*
G01X7012535Y2812239D01*
G01X7012519Y2812473D01*
G01X7012310Y2816921D01*
G01X7012305Y2817155D01*
G01X7012305Y2821610D01*
G01X7012310Y2821844D01*
G01X7012519Y2826291D01*
G01X7012535Y2826525D01*
G01X7012952Y2830960D01*
G01X7012979Y2831193D01*
G01X7013604Y2835605D01*
G01X7013642Y2835837D01*
G01X7014473Y2840211D01*
G01X7014522Y2840439D01*
G01X7015556Y2844772D01*
G01X7015616Y2845000D01*
G01X7016853Y2849280D01*
G01X7016923Y2849503D01*
G01X7018358Y2853719D01*
G01X7018440Y2853942D01*
G01X7020073Y2858085D01*
G01X7020163Y2858298D01*
G01X7021986Y2862362D01*
G01X7022089Y2862576D01*
G01X7024103Y2866549D01*
G01X7024213Y2866753D01*
G01X7026410Y2870629D01*
G01X7026530Y2870830D01*
G01X7028905Y2874597D01*
G01X7029035Y2874793D01*
G01X7031585Y2878445D01*
G01X7031724Y2878634D01*
G01X7034442Y2882162D01*
G01X7034589Y2882345D01*
G01X7037470Y2885741D01*
G01X7037626Y2885917D01*
G01X7040663Y2889175D01*
G01X7040827Y2889343D01*
G01X7044012Y2892454D01*
G01X7044183Y2892614D01*
G01X7047513Y2895575D01*
G01X7047692Y2895727D01*
G01X7051154Y2898526D01*
G01X7051341Y2898670D01*
G01X7054933Y2901304D01*
G01X7055124Y2901438D01*
G01X7058835Y2903902D01*
G01X7059032Y2904026D01*
G01X7062855Y2906315D01*
G01X7063059Y2906431D01*
G01X7066984Y2908536D01*
G01X7067195Y2908643D01*
G01X7071216Y2910561D01*
G01X7071427Y2910656D01*
G01X7075532Y2912386D01*
G01X7075751Y2912472D01*
G01X7079932Y2914006D01*
G01X7080155Y2914082D01*
G01X7084404Y2915418D01*
G01X7084629Y2915483D01*
G01X7088934Y2916618D01*
G01X7089160Y2916672D01*
G01X7093516Y2917607D01*
G01X7093750Y2917651D01*
G01X7098144Y2918378D01*
G01X7098375Y2918410D01*
G01X7102800Y2918931D01*
G01X7103033Y2918953D01*
G01X7107476Y2919266D01*
G01X7107707Y2919276D01*
G37*
G54D21*
G01X2730500Y4634636D03*
G01X2881173Y4634636D03*
G01X3772764Y8343900D03*
G01X3923436Y8343900D03*
G54D22*
G01X4991100Y8292236D03*
G01X4991100Y8141564D03*
G01X8318500Y2197964D03*
G01X8318500Y2348636D03*
G54D21*
G01X7392264Y1828800D03*
G01X7542936Y1828800D03*
G54D22*
G01X2463800Y3593236D03*
G01X2463800Y3442564D03*
G01X6083300Y5334864D03*
G01X6083300Y5485536D03*
G01X5778500Y5333136D03*
G01X5778500Y5483809D03*
G01X5930900Y5336591D03*
G01X5930900Y5487264D03*
G01X1129676Y3370270D03*
G01X1129676Y3219597D03*
G01X1142136Y1549400D03*
G01X1142136Y1700073D03*
G01X127864Y2527300D03*
G01X127864Y2677973D03*
G01X2120036Y2527300D03*
G01X2120036Y2677973D03*
G54D21*
G01X2288591Y8534400D03*
G01X2439264Y8534400D03*
G01X7568336Y8534400D03*
G01X7417664Y8534400D03*
G54D23*
G01X4793793Y3815893D03*
G01X5213807Y3815893D03*
G01X4793793Y3600907D03*
G01X5213807Y3600907D03*
G01X8273593Y475793D03*
G01X8693607Y475793D03*
G01X8273593Y260807D03*
G01X8693607Y260807D03*
G54D24*
G01X1311694Y2516403D03*
G01X1311694Y3376397D03*
G01X1761706Y2516403D03*
G01X1761706Y3376397D03*
G01X1311694Y700303D03*
G01X1311694Y1560297D03*
G01X1761706Y700303D03*
G01X1761706Y1560297D03*
G01X308394Y1652803D03*
G01X308394Y2512797D03*
G01X758406Y1652803D03*
G01X758406Y2512797D03*
G01X2289594Y1652803D03*
G01X2289594Y2512797D03*
G01X2739606Y1652803D03*
G01X2739606Y2512797D03*
G54D14*
G01X2019210Y8382286D03*
G01X1678384Y8088474D03*
G54D25*
G01X2277107Y8274555D03*
G01X1746918Y7817502D03*
G54D14*
G01X8190635Y8109745D03*
G01X7843355Y8395899D03*
G54D25*
G01X8128129Y7837331D03*
G01X7587900Y8282471D03*
G54D26*
G01X2864307Y4173906D03*
G01X2864307Y4123893D03*
G01X2864307Y4073906D03*
G01X2864307Y4023893D03*
G01X2864307Y3973906D03*
G01X2864307Y3923894D03*
G01X2864307Y3873906D03*
G01X2864307Y3823894D03*
G01X2864307Y3773907D03*
G01X2864307Y3723894D03*
G01X2864307Y3673907D03*
G01X2864307Y3623894D03*
G54D27*
G01X3014294Y3473907D03*
G01X3064307Y3473907D03*
G01X3114294Y3473907D03*
G01X3164307Y3473907D03*
G01X3214294Y3473907D03*
G01X3264306Y3473907D03*
G01X3314294Y3473907D03*
G01X3364306Y3473907D03*
G01X3414293Y3473907D03*
G01X3464306Y3473907D03*
G01X3514293Y3473907D03*
G01X3564306Y3473907D03*
G54D26*
G01X3714293Y3623894D03*
G01X3714293Y3673907D03*
G01X3714293Y3723894D03*
G01X3714293Y3773907D03*
G01X3714293Y3823894D03*
G01X3714293Y3873906D03*
G01X3714293Y3923894D03*
G01X3714293Y3973906D03*
G01X3714293Y4023893D03*
G01X3714293Y4073906D03*
G01X3714293Y4123893D03*
G01X3714293Y4173906D03*
G54D27*
G01X3564306Y4323893D03*
G01X3514293Y4323893D03*
G01X3464306Y4323893D03*
G01X3414293Y4323893D03*
G01X3364306Y4323893D03*
G01X3314294Y4323893D03*
G01X3264306Y4323893D03*
G01X3214294Y4323893D03*
G01X3164307Y4323893D03*
G01X3114294Y4323893D03*
G01X3064307Y4323893D03*
G01X3014294Y4323893D03*
G54D28*
G01X4506592Y7952814D03*
G01X4556605Y7952814D03*
G01X4606592Y7952814D03*
G01X4656605Y7952814D03*
G01X4706592Y7952814D03*
G54D29*
G01X4806592Y8052813D03*
G01X4806592Y8102826D03*
G01X4806592Y8152813D03*
G01X4806592Y8202826D03*
G01X4806592Y8252813D03*
G54D28*
G01X4706592Y8352813D03*
G01X4656605Y8352813D03*
G01X4606592Y8352813D03*
G01X4556605Y8352813D03*
G01X4506592Y8352813D03*
G54D29*
G01X4406593Y8252813D03*
G01X4406593Y8202826D03*
G01X4406593Y8152813D03*
G01X4406593Y8102826D03*
G01X4406593Y8052813D03*
G54D30*
G01X4606592Y8152813D03*
G54D31*
G01X7728640Y1828061D03*
G01X7855640Y1828061D03*
G01X7982640Y1828061D03*
G01X8109640Y1828061D03*
G01X7728640Y2364560D03*
G01X7855640Y2364560D03*
G01X7982640Y2364560D03*
G01X8109640Y2364560D03*
G54D32*
G01X7919140Y2096310D03*
G54D33*
G01X3963403Y4597387D03*
G01X4033406Y4597387D03*
G01X4103408Y4597387D03*
G01X4173411Y4597387D03*
G01X4243388Y4597387D03*
G01X4313390Y4597387D03*
G01X4383392Y4597387D03*
G01X4453395Y4597387D03*
G01X4523397Y4597387D03*
G01X4593400Y4597387D03*
G01X4663402Y4597387D03*
G01X4733404Y4597387D03*
G01X4803407Y4597387D03*
G01X4873409Y4597387D03*
G01X4943386Y4597387D03*
G01X5013389Y4597387D03*
G01X5083391Y4597387D03*
G01X5153393Y4597387D03*
G01X5223396Y4597387D03*
G01X5293398Y4597387D03*
G01X5363401Y4597387D03*
G01X5433403Y4597387D03*
G01X5503405Y4597387D03*
G01X5573408Y4597387D03*
G01X5643385Y4597413D03*
G01X5713387Y4597387D03*
G01X5783390Y4597387D03*
G01X5853392Y4597387D03*
G01X5923394Y4597413D03*
G01X5993397Y4597387D03*
G54D34*
G01X709300Y4419300D03*
G01X709300Y5969300D03*
G01X2059300Y5969300D03*
G01X2059300Y4419300D03*
G54D35*
G01X384300Y5194300D03*
G01X384300Y5394300D03*
G01X384300Y4994300D03*
G01X1384300Y6194300D03*
G01X1584300Y6194300D03*
G01X1184300Y6194300D03*
G54D34*
G01X7986400Y4419300D03*
G01X7986400Y5969300D03*
G01X9336400Y5969300D03*
G01X9336400Y4419300D03*
G54D35*
G01X7661400Y5194300D03*
G01X7661400Y5394300D03*
G01X7661400Y4994300D03*
G01X8661400Y6194300D03*
G01X8861400Y6194300D03*
G01X8461400Y6194300D03*
G54D36*
G01X2205507Y4110901D03*
G01X1985493Y4110901D03*
G01X1985493Y3940899D03*
G01X2205507Y3940899D03*
G54D37*
G01X5670309Y8141907D03*
G01X5480291Y8141907D03*
G01X5480291Y8291894D03*
G01X5670309Y8291894D03*
G04 Pad End*

M02*

