G04 Layer: DrillDrawingLayer*
G04 EasyEDA Pro v3.2.148, 2026-07-06 23:38:55*
G04 Gerber Generator version 0.3*
G04 Scale: 100 percent, Rotated: No, Reflected: No*
G04 Dimensions in millimeters*
G04 Leading zeros omitted, absolute positions, 4 integers and 5 decimals*
G04 Generated by one-click*
G04 Object Configs: Pad,Via,Track,Text,Image,Dimension,BoardOutline,BoardCutout,CopperFilled,SolidRegion,FPCStiffener,Line,PlaneZone,ComponentProperty,ComponentSilkscreen,TearDrop*
G04 Layer Configs: 1,2,3,4,5,6,7,8,9,10,11,13,14,56*
G04 Copper Areas: 0*
%FSLAX45Y45*%
%MOMM*%
%AMIconRect*4,1,4,0.28,-0.28,-0.28,-0.28,-0.28,0.28,0.28,0.28,0.28,-0.28,0*4,0,4,0.233333,-0.233333,0.233333,0.233333,-0.233333,0.233333,-0.233333,-0.233333,0.233333,-0.233333,0*%
%AMIconTriangle*4,1,3,-0.339593,0.240473,0.339593,0.240473,0,-0.37884,-0.339593,0.240473,0*4,0,3,-0.265673,0.19404,0,-0.27342,0.266233,0.19404,-0.265673,0.19404,0*%
%AMIconStar6*4,1,12,0.12068,0.20888,0.298527,0.172713,0.241313,0,0.298527,-0.17206,0.12068,-0.208227,0,-0.344073,-0.120073,-0.208227,-0.298573,-0.17206,-0.240707,0,-0.298573,0.17206,-0.120073,0.20888,0,0.344073,0.12068,0.20888,0*4,0,12,-0.000467,0.273467,-0.090067,0.171733,-0.237533,0.136733,-0.193667,-0.007467,-0.237533,-0.1372,-0.090067,-0.171733,-0.000467,-0.273933,0.090067,-0.171733,0.237533,-0.1372,0.194133,0.007,0.237533,0.1372,0.090067,0.171267,-0.000467,0.273467,0*%
%AMIconStar4*4,1,8,-0.311733,0.311733,0,0.202533,0.311733,0.311733,0.202533,0,0.311733,-0.311733,0,-0.202533,-0.304407,-0.311733,-0.202533,0,-0.311733,0.311733,0*4,0,8,0.233333,-0.233333,0.1512,0,0.233333,0.233333,0,0.1512,-0.233333,0.233333,-0.1512,0,-0.233333,-0.233333,0,-0.1512,0.233333,-0.233333,0*%
%ADD10IconRect*%
%ADD11C,0.616X0.522667*%
%ADD12IconTriangle*%
%ADD13IconStar6*%
%ADD14IconStar4*%
%ADD15C,0.2032*%
%ADD16C,0.254*%
G75*


G04 Drill Drawing Start*
G54D10*
G01X1746936Y7817500D03*
G01X2277125Y8274553D03*
G01X7587902Y8282454D03*
G01X8128131Y7837313D03*
G54D11*
G01X709300Y4419300D03*
G01X709300Y5969300D03*
G01X2059300Y4419300D03*
G01X2059300Y5969300D03*
G01X7986400Y4419300D03*
G01X7986400Y5969300D03*
G01X9336400Y4419300D03*
G01X9336400Y5969300D03*
G54D12*
G01X1678378Y8088469D03*
G01X2019216Y8382291D03*
G01X7843349Y8395904D03*
G01X8190641Y8109741D03*
G01X9069400Y3040101D03*
G01X9069400Y3240100D03*
G01X9069400Y3440100D03*
G01X9069400Y3640099D03*
G01X9269400Y3040101D03*
G01X9269400Y3240100D03*
G01X9269400Y3440100D03*
G01X9269400Y3640099D03*
G54D13*
G01X384300Y4994300D03*
G01X384300Y5194300D03*
G01X384300Y5394300D03*
G01X1184300Y6194300D03*
G01X1384300Y6194300D03*
G01X1584300Y6194300D03*
G01X7661400Y4994300D03*
G01X7661400Y5194300D03*
G01X7661400Y5394300D03*
G01X8461400Y6194300D03*
G01X8661400Y6194300D03*
G01X8861400Y6194300D03*
G54D14*
G01X288900Y744518D03*
G01X288900Y998518D03*
G01X288900Y1252518D03*
G01X288900Y2776518D03*
G01X288900Y3030518D03*
G01X288900Y3284518D03*
G01X288900Y3538518D03*
G01X288900Y3792518D03*
G01X288900Y4046518D03*
G01X288900Y4300518D03*
G01X288900Y4554518D03*
G01X288900Y5316518D03*
G01X288900Y5570518D03*
G01X288900Y5824518D03*
G01X288900Y6078518D03*
G01X542900Y490518D03*
G01X542900Y744518D03*
G01X542900Y998518D03*
G01X542900Y1252518D03*
G01X542900Y1506518D03*
G01X542900Y1760518D03*
G01X542900Y2014518D03*
G01X542900Y3030518D03*
G01X542900Y3284518D03*
G01X542900Y3538518D03*
G01X542900Y3792518D03*
G01X542900Y4046518D03*
G01X542900Y4300518D03*
G01X542900Y4554518D03*
G01X542900Y5316518D03*
G01X542900Y5570518D03*
G01X542900Y5824518D03*
G01X542900Y6078518D03*
G01X542900Y6332518D03*
G01X542900Y6586518D03*
G01X796900Y236518D03*
G01X796900Y490518D03*
G01X796900Y744518D03*
G01X796900Y998518D03*
G01X796900Y1252518D03*
G01X796900Y1506518D03*
G01X796900Y2014518D03*
G01X796900Y3284518D03*
G01X796900Y3538518D03*
G01X796900Y3792518D03*
G01X796900Y4046518D03*
G01X796900Y5316518D03*
G01X796900Y5570518D03*
G01X796900Y6332518D03*
G01X796900Y6586518D03*
G01X796900Y6840518D03*
G01X796900Y7094518D03*
G01X927208Y2558034D03*
G01X927208Y2812034D03*
G01X1050900Y236518D03*
G01X1050900Y490518D03*
G01X1050900Y744518D03*
G01X1050900Y998518D03*
G01X1050900Y1252518D03*
G01X1050900Y2014518D03*
G01X1050900Y3792518D03*
G01X1050900Y4046518D03*
G01X1050900Y4300518D03*
G01X1050900Y4554518D03*
G01X1050900Y5062518D03*
G01X1050900Y5570518D03*
G01X1050900Y5824518D03*
G01X1050900Y6078518D03*
G01X1050900Y6332518D03*
G01X1050900Y6586518D03*
G01X1050900Y6840518D03*
G01X1050900Y7094518D03*
G01X1050900Y7348518D03*
G01X1050900Y7602518D03*
G01X1181208Y2812034D03*
G01X1181208Y3066034D03*
G01X1304900Y236518D03*
G01X1304900Y490518D03*
G01X1304900Y2014518D03*
G01X1304900Y3792518D03*
G01X1304900Y4046518D03*
G01X1304900Y4300518D03*
G01X1304900Y4554518D03*
G01X1304900Y5062518D03*
G01X1304900Y5316518D03*
G01X1304900Y5570518D03*
G01X1304900Y6332518D03*
G01X1304900Y6586518D03*
G01X1304900Y6840518D03*
G01X1304900Y7094518D03*
G01X1304900Y7348518D03*
G01X1304900Y7602518D03*
G01X1304900Y7856518D03*
G01X1435208Y2812034D03*
G01X1435208Y3066034D03*
G01X1558900Y236518D03*
G01X1558900Y490518D03*
G01X1558900Y744518D03*
G01X1558900Y998518D03*
G01X1558900Y1252518D03*
G01X1558900Y1506518D03*
G01X1558900Y3284518D03*
G01X1558900Y3538518D03*
G01X1558900Y3792518D03*
G01X1558900Y4046518D03*
G01X1558900Y4300518D03*
G01X1558900Y4554518D03*
G01X1558900Y5062518D03*
G01X1558900Y5316518D03*
G01X1558900Y5570518D03*
G01X1558900Y6078518D03*
G01X1558900Y6332518D03*
G01X1558900Y6586518D03*
G01X1558900Y6840518D03*
G01X1558900Y7094518D03*
G01X1558900Y7348518D03*
G01X1558900Y7602518D03*
G01X1558900Y7856518D03*
G01X1558900Y8110518D03*
G01X1727200Y2146300D03*
G01X1727200Y4597400D03*
G01X1739900Y3632200D03*
G01X1812900Y236518D03*
G01X1812900Y490518D03*
G01X1812900Y998518D03*
G01X1812900Y1252518D03*
G01X1812900Y7602518D03*
G01X1812900Y8110518D03*
G01X1812900Y8364518D03*
G01X1831752Y3632200D03*
G01X1836141Y4597400D03*
G01X1842498Y2146300D03*
G01X1943100Y3073400D03*
G01X1968500Y1816100D03*
G01X1968500Y2857500D03*
G01X2066900Y236518D03*
G01X2066900Y490518D03*
G01X2066900Y744518D03*
G01X2066900Y998518D03*
G01X2066900Y1252518D03*
G01X2066900Y1506518D03*
G01X2066900Y1760518D03*
G01X2066900Y3284518D03*
G01X2066900Y4808518D03*
G01X2066900Y5062518D03*
G01X2066900Y5316518D03*
G01X2066900Y5570518D03*
G01X2066900Y6332518D03*
G01X2066900Y6586518D03*
G01X2066900Y6840518D03*
G01X2066900Y7602518D03*
G01X2066900Y7856518D03*
G01X2066900Y8110518D03*
G01X2066900Y8618518D03*
G01X2197208Y2812034D03*
G01X2298700Y3073400D03*
G01X2320900Y490518D03*
G01X2320900Y744518D03*
G01X2320900Y998518D03*
G01X2320900Y1252518D03*
G01X2320900Y3284518D03*
G01X2320900Y4300518D03*
G01X2320900Y4808518D03*
G01X2320900Y5062518D03*
G01X2320900Y5570518D03*
G01X2320900Y6332518D03*
G01X2320900Y6586518D03*
G01X2320900Y6840518D03*
G01X2320900Y7602518D03*
G01X2320900Y7856518D03*
G01X2444902Y3676650D03*
G01X2451208Y2812034D03*
G01X2527300Y3676650D03*
G01X2574900Y744518D03*
G01X2574900Y998518D03*
G01X2574900Y1252518D03*
G01X2574900Y1506518D03*
G01X2574900Y1760518D03*
G01X2574900Y2014518D03*
G01X2574900Y2268518D03*
G01X2574900Y2522518D03*
G01X2574900Y3284518D03*
G01X2574900Y4300518D03*
G01X2574900Y4808518D03*
G01X2574900Y5062518D03*
G01X2574900Y5316518D03*
G01X2574900Y5570518D03*
G01X2574900Y5824518D03*
G01X2574900Y6332518D03*
G01X2574900Y6586518D03*
G01X2574900Y6840518D03*
G01X2574900Y8872518D03*
G01X2616200Y3441700D03*
G01X2616200Y3848100D03*
G01X2646297Y8521700D03*
G01X2705100Y3670300D03*
G01X2705100Y5193995D03*
G01X2725349Y8521700D03*
G01X2768534Y3408934D03*
G01X2828900Y998518D03*
G01X2828900Y1252518D03*
G01X2828900Y1506518D03*
G01X2828900Y2014518D03*
G01X2828900Y2268518D03*
G01X2828900Y2776518D03*
G01X2828900Y6586518D03*
G01X2828900Y6840518D03*
G01X2828900Y7094518D03*
G01X2828900Y7348518D03*
G01X2828900Y7602518D03*
G01X2828900Y7856518D03*
G01X2828900Y8110518D03*
G01X2828900Y8364518D03*
G01X2828900Y8872518D03*
G01X2832100Y3517900D03*
G01X2832100Y5740400D03*
G01X2870200Y3365500D03*
G01X2921000Y6400495D03*
G01X3009900Y3314700D03*
G01X3009900Y4914900D03*
G01X3022600Y4051300D03*
G01X3082900Y2522518D03*
G01X3082900Y2776518D03*
G01X3082900Y6586518D03*
G01X3082900Y6840518D03*
G01X3082900Y7094518D03*
G01X3082900Y7348518D03*
G01X3082900Y7602518D03*
G01X3082900Y7856518D03*
G01X3082900Y8110518D03*
G01X3082900Y8364518D03*
G01X3082900Y8872518D03*
G01X3082900Y9126518D03*
G01X3086100Y6311900D03*
G01X3162300Y3644900D03*
G01X3162300Y4048780D03*
G01X3162300Y4965700D03*
G01X3251200Y4048780D03*
G01X3251200Y5029200D03*
G01X3327400Y8674100D03*
G01X3327400Y4049173D03*
G01X3336900Y2776518D03*
G01X3336900Y8872518D03*
G01X3336900Y9126518D03*
G01X3403600Y7035800D03*
G01X3414293Y4051300D03*
G01X3441700Y3009900D03*
G01X3451880Y3327400D03*
G01X3454400Y2895600D03*
G01X3467614Y4846930D03*
G01X3467614Y7581900D03*
G01X3505200Y3619500D03*
G01X3505200Y3721100D03*
G01X3507314Y3835400D03*
G01X3517900Y4787900D03*
G01X3530600Y7137400D03*
G01X3556000Y4140200D03*
G01X3568700Y4724400D03*
G01X3590900Y7856518D03*
G01X3590900Y8110518D03*
G01X3590900Y8618518D03*
G01X3590900Y8872518D03*
G01X3590900Y9126518D03*
G01X3590900Y9380518D03*
G01X3594100Y7315200D03*
G01X3619500Y3200400D03*
G01X3644900Y4663420D03*
G01X3670300Y7239000D03*
G01X3683000Y3263900D03*
G01X3708400Y4597400D03*
G01X3733800Y7404100D03*
G01X3797300Y3327400D03*
G01X3805177Y4529871D03*
G01X3810000Y7505700D03*
G01X3844900Y8618518D03*
G01X3844900Y8872518D03*
G01X3844900Y9126518D03*
G01X3844900Y9380518D03*
G01X4000111Y5115612D03*
G01X4003877Y3630744D03*
G01X4020706Y4781034D03*
G01X4091778Y5151249D03*
G01X4098101Y3630744D03*
G01X4098900Y5570518D03*
G01X4098900Y5824518D03*
G01X4098900Y6586518D03*
G01X4098900Y6840518D03*
G01X4103408Y4783430D03*
G01X4127500Y4140200D03*
G01X4140200Y8178800D03*
G01X4140200Y8356600D03*
G01X4173411Y5202049D03*
G01X4183842Y4783430D03*
G01X4211657Y8178800D03*
G01X4213178Y8356600D03*
G01X4254510Y5240149D03*
G01X4260042Y4783430D03*
G01X4352900Y5316518D03*
G01X4352900Y5570518D03*
G01X4352900Y5824518D03*
G01X4352900Y6586518D03*
G01X4352900Y6840518D03*
G01X4606900Y4808518D03*
G01X4606900Y5316518D03*
G01X4606900Y5570518D03*
G01X4606900Y5824518D03*
G01X4606900Y6586518D03*
G01X4606900Y6840518D03*
G01X4687600Y3737175D03*
G01X4860900Y5062518D03*
G01X4860900Y5316518D03*
G01X4860900Y5570518D03*
G01X4860900Y5824518D03*
G01X4860900Y6586518D03*
G01X4860900Y6840518D03*
G01X4860900Y8364518D03*
G01X4941600Y3737175D03*
G01X5114900Y5316518D03*
G01X5114900Y5570518D03*
G01X5114900Y5824518D03*
G01X5114900Y6586518D03*
G01X5114900Y6840518D03*
G01X5156200Y4878697D03*
G01X5223396Y4954156D03*
G01X5368900Y4808518D03*
G01X5368900Y5570518D03*
G01X5368900Y5824518D03*
G01X5368900Y6586518D03*
G01X5368900Y6840518D03*
G01X5368900Y8618518D03*
G01X5449600Y3737175D03*
G01X5622900Y8618518D03*
G01X5638800Y4241800D03*
G01X5638800Y7785100D03*
G01X5638800Y7874000D03*
G01X5641427Y4349750D03*
G01X5651500Y3517900D03*
G01X5651500Y5626100D03*
G01X5654127Y3625850D03*
G01X5754683Y4349750D03*
G01X5757378Y4241800D03*
G01X5761947Y5626100D03*
G01X5762724Y7874000D03*
G01X5765419Y7785100D03*
G01X5767383Y3625850D03*
G01X5770078Y3517900D03*
G01X5876900Y8110518D03*
G01X5876900Y8364518D03*
G01X5876900Y8618518D03*
G01X5876900Y8872518D03*
G01X5876900Y9126518D03*
G01X5876900Y9380518D03*
G01X6130900Y3284518D03*
G01X6130900Y4300518D03*
G01X6130900Y4554518D03*
G01X6130900Y4808518D03*
G01X6130900Y5570518D03*
G01X6130900Y5824518D03*
G01X6130900Y6586518D03*
G01X6130900Y6840518D03*
G01X6130900Y8110518D03*
G01X6130900Y8364518D03*
G01X6130900Y8618518D03*
G01X6130900Y8872518D03*
G01X6130900Y9126518D03*
G01X6130900Y9380518D03*
G01X6384900Y3284518D03*
G01X6384900Y4300518D03*
G01X6384900Y4554518D03*
G01X6384900Y4808518D03*
G01X6384900Y5062518D03*
G01X6384900Y5570518D03*
G01X6384900Y5824518D03*
G01X6384900Y6586518D03*
G01X6384900Y6840518D03*
G01X6384900Y7094518D03*
G01X6384900Y8110518D03*
G01X6384900Y8364518D03*
G01X6384900Y8618518D03*
G01X6384900Y8872518D03*
G01X6384900Y9126518D03*
G01X6384900Y9380518D03*
G01X6553200Y3797300D03*
G01X6553200Y3873500D03*
G01X6553200Y3987394D03*
G01X6553200Y4064000D03*
G01X6553200Y4140200D03*
G01X6638900Y2776518D03*
G01X6638900Y3030518D03*
G01X6638900Y3284518D03*
G01X6638900Y4300518D03*
G01X6638900Y4554518D03*
G01X6638900Y4808518D03*
G01X6638900Y5062518D03*
G01X6638900Y5316518D03*
G01X6638900Y5570518D03*
G01X6638900Y5824518D03*
G01X6638900Y6586518D03*
G01X6638900Y6840518D03*
G01X6638900Y7094518D03*
G01X6638900Y7348518D03*
G01X6638900Y8110518D03*
G01X6638900Y8364518D03*
G01X6638900Y8618518D03*
G01X6638900Y8872518D03*
G01X6638900Y9126518D03*
G01X6892900Y2522518D03*
G01X6892900Y2776518D03*
G01X6892900Y3284518D03*
G01X6892900Y4554518D03*
G01X6892900Y4808518D03*
G01X6892900Y5062518D03*
G01X6892900Y5316518D03*
G01X6892900Y5570518D03*
G01X6892900Y5824518D03*
G01X6892900Y6586518D03*
G01X6892900Y6840518D03*
G01X6892900Y7094518D03*
G01X6892900Y7348518D03*
G01X6892900Y7602518D03*
G01X6892900Y8364518D03*
G01X6892900Y8618518D03*
G01X6892900Y8872518D03*
G01X6892900Y9126518D03*
G01X7086600Y4597400D03*
G01X7086600Y5994400D03*
G01X7086600Y6083300D03*
G01X7146900Y998518D03*
G01X7146900Y1252518D03*
G01X7146900Y1506518D03*
G01X7146900Y1760518D03*
G01X7146900Y2014518D03*
G01X7146900Y2268518D03*
G01X7146900Y2522518D03*
G01X7146900Y6586518D03*
G01X7146900Y6840518D03*
G01X7146900Y7094518D03*
G01X7146900Y7348518D03*
G01X7146900Y7602518D03*
G01X7146900Y7856518D03*
G01X7146900Y8618518D03*
G01X7146900Y8872518D03*
G01X7211642Y6083300D03*
G01X7214954Y4597400D03*
G01X7215235Y5994400D03*
G01X7391400Y2044700D03*
G01X7400900Y3792518D03*
G01X7400900Y4300518D03*
G01X7400900Y4808518D03*
G01X7400900Y5062518D03*
G01X7400900Y5570518D03*
G01X7400900Y5824518D03*
G01X7400900Y6078518D03*
G01X7400900Y6586518D03*
G01X7400900Y6840518D03*
G01X7400900Y7094518D03*
G01X7400900Y7348518D03*
G01X7400900Y7602518D03*
G01X7400900Y7856518D03*
G01X7400900Y8110518D03*
G01X7400900Y8872518D03*
G01X7531100Y914400D03*
G01X7531100Y2364560D03*
G01X7654900Y744518D03*
G01X7654900Y1252518D03*
G01X7654900Y1506518D03*
G01X7654900Y2014518D03*
G01X7654900Y2522518D03*
G01X7654900Y2776518D03*
G01X7654900Y3284518D03*
G01X7654900Y3538518D03*
G01X7654900Y3792518D03*
G01X7654900Y4300518D03*
G01X7654900Y4554518D03*
G01X7654900Y5570518D03*
G01X7654900Y5824518D03*
G01X7654900Y6078518D03*
G01X7654900Y6586518D03*
G01X7654900Y6840518D03*
G01X7654900Y7094518D03*
G01X7654900Y7348518D03*
G01X7654900Y7602518D03*
G01X7654900Y7856518D03*
G01X7654900Y8110518D03*
G01X7848600Y2578100D03*
G01X7908900Y236518D03*
G01X7908900Y744518D03*
G01X7908900Y2776518D03*
G01X7908900Y3284518D03*
G01X7908900Y3538518D03*
G01X7908900Y3792518D03*
G01X7908900Y4808518D03*
G01X7908900Y5570518D03*
G01X7908900Y6586518D03*
G01X7908900Y6840518D03*
G01X7908900Y7094518D03*
G01X7908900Y7348518D03*
G01X7908900Y7602518D03*
G01X7908900Y7856518D03*
G01X7908900Y8110518D03*
G01X7908900Y8618518D03*
G01X7988300Y2578100D03*
G01X8001000Y1143000D03*
G01X8102600Y1028700D03*
G01X8116705Y2968071D03*
G01X8162900Y236518D03*
G01X8162900Y744518D03*
G01X8162900Y1252518D03*
G01X8162900Y3284518D03*
G01X8162900Y3538518D03*
G01X8162900Y3792518D03*
G01X8162900Y4300518D03*
G01X8162900Y4554518D03*
G01X8162900Y4808518D03*
G01X8162900Y5062518D03*
G01X8162900Y6078518D03*
G01X8162900Y6586518D03*
G01X8162900Y6840518D03*
G01X8162900Y7094518D03*
G01X8162900Y7348518D03*
G01X8162900Y7602518D03*
G01X8162900Y8364518D03*
G01X8191500Y1795611D03*
G01X8191500Y1892300D03*
G01X8192852Y2968071D03*
G01X8416900Y236518D03*
G01X8416900Y744518D03*
G01X8416900Y1252518D03*
G01X8416900Y1760518D03*
G01X8416900Y2014518D03*
G01X8416900Y2776518D03*
G01X8416900Y3030518D03*
G01X8416900Y3284518D03*
G01X8416900Y3538518D03*
G01X8416900Y3792518D03*
G01X8416900Y4300518D03*
G01X8416900Y4554518D03*
G01X8416900Y4808518D03*
G01X8416900Y5062518D03*
G01X8416900Y5316518D03*
G01X8416900Y5570518D03*
G01X8416900Y5824518D03*
G01X8416900Y6586518D03*
G01X8416900Y6840518D03*
G01X8416900Y7094518D03*
G01X8416900Y7348518D03*
G01X8416900Y7602518D03*
G01X8416900Y7856518D03*
G01X8416900Y8110518D03*
G01X8623300Y4114800D03*
G01X8670900Y744518D03*
G01X8670900Y1252518D03*
G01X8670900Y1760518D03*
G01X8670900Y2014518D03*
G01X8670900Y2268518D03*
G01X8670900Y2522518D03*
G01X8670900Y3030518D03*
G01X8670900Y4300518D03*
G01X8670900Y4554518D03*
G01X8670900Y4808518D03*
G01X8670900Y5062518D03*
G01X8670900Y5316518D03*
G01X8670900Y5570518D03*
G01X8670900Y5824518D03*
G01X8670900Y6840518D03*
G01X8670900Y7094518D03*
G01X8670900Y7348518D03*
G01X8670900Y7602518D03*
G01X8670900Y7856518D03*
G01X8724900Y4013200D03*
G01X8924900Y236518D03*
G01X8924900Y490518D03*
G01X8924900Y744518D03*
G01X8924900Y998518D03*
G01X8924900Y1252518D03*
G01X8924900Y2268518D03*
G01X8924900Y2522518D03*
G01X8924900Y3030518D03*
G01X8924900Y3792518D03*
G01X8924900Y4046518D03*
G01X8924900Y4300518D03*
G01X8924900Y4554518D03*
G01X8924900Y4808518D03*
G01X8924900Y5062518D03*
G01X8924900Y5316518D03*
G01X8924900Y5570518D03*
G01X8924900Y5824518D03*
G01X8924900Y6078518D03*
G01X8924900Y6332518D03*
G01X8924900Y6586518D03*
G01X8924900Y6840518D03*
G01X8924900Y7094518D03*
G01X8924900Y7348518D03*
G01X8924900Y7602518D03*
G01X9178900Y236518D03*
G01X9178900Y490518D03*
G01X9178900Y744518D03*
G01X9178900Y998518D03*
G01X9178900Y1252518D03*
G01X9178900Y2268518D03*
G01X9178900Y2522518D03*
G01X9178900Y3792518D03*
G01X9178900Y4046518D03*
G01X9178900Y4300518D03*
G01X9178900Y4554518D03*
G01X9178900Y4808518D03*
G01X9178900Y5062518D03*
G01X9178900Y5316518D03*
G01X9178900Y5570518D03*
G01X9178900Y5824518D03*
G01X9178900Y6078518D03*
G01X9178900Y6332518D03*
G01X9178900Y6586518D03*
G01X9178900Y6840518D03*
G01X9178900Y7094518D03*
G01X9271000Y3949700D03*
G01X9432900Y490518D03*
G01X9432900Y744518D03*
G01X9432900Y998518D03*
G01X9432900Y1252518D03*
G01X9432900Y1506518D03*
G01X9432900Y1760518D03*
G01X9432900Y2014518D03*
G01X9432900Y2268518D03*
G01X9432900Y2522518D03*
G01X9432900Y2776518D03*
G01X9432900Y3030518D03*
G01X9432900Y3284518D03*
G01X9432900Y4046518D03*
G01X9432900Y4808518D03*
G01X9432900Y5062518D03*
G01X9432900Y5316518D03*
G01X9432900Y5570518D03*
G01X9432900Y6332518D03*
G01X9432900Y6586518D03*
G01X9432900Y6840518D03*
G01X9512300Y3873500D03*
G01X9686900Y744518D03*
G01X9686900Y998518D03*
G01X9686900Y1252518D03*
G01X9686900Y1760518D03*
G01X9686900Y2014518D03*
G01X9686900Y2268518D03*
G01X9686900Y2776518D03*
G01X9686900Y3030518D03*
G01X9686900Y3284518D03*
G01X9686900Y3538518D03*
G01X9686900Y3792518D03*
G01X9686900Y4046518D03*
G01X9686900Y4300518D03*
G01X9686900Y4554518D03*
G01X9686900Y4808518D03*
G01X9686900Y5062518D03*
G01X9686900Y5316518D03*
G01X9686900Y5570518D03*
G01X9686900Y5824518D03*
G01X9686900Y6078518D03*
G04 Drill Drawing End*

G04 Text Start*
G54D15*
G01X12301360Y9440870D02*
G01X12301360Y9320728D01*
G01X12301360Y9440870D02*
G01X12347080Y9320728D01*
G01X12392800Y9440870D02*
G01X12347080Y9320728D01*
G01X12392800Y9440870D02*
G01X12392800Y9320728D01*
G01X12509132Y9400738D02*
G01X12509132Y9320728D01*
G01X12509132Y9383720D02*
G01X12497702Y9395150D01*
G01X12486272Y9400738D01*
G01X12469254Y9400738D01*
G01X12457824Y9395150D01*
G01X12446394Y9383720D01*
G01X12440552Y9366448D01*
G01X12440552Y9355018D01*
G01X12446394Y9338000D01*
G01X12457824Y9326570D01*
G01X12469254Y9320728D01*
G01X12486272Y9320728D01*
G01X12497702Y9326570D01*
G01X12509132Y9338000D01*
G01X12556884Y9400738D02*
G01X12556884Y9320728D01*
G01X12556884Y9366448D02*
G01X12562726Y9383720D01*
G01X12574156Y9395150D01*
G01X12585586Y9400738D01*
G01X12602604Y9400738D01*
G01X12650356Y9440870D02*
G01X12650356Y9320728D01*
G01X12707506Y9400738D02*
G01X12650356Y9343588D01*
G01X12673216Y9366448D02*
G01X12713348Y9320728D01*
G01X13838641Y9412168D02*
G01X13832799Y9423598D01*
G01X13821369Y9435028D01*
G01X13809939Y9440870D01*
G01X13787079Y9440870D01*
G01X13775649Y9435028D01*
G01X13764219Y9423598D01*
G01X13758631Y9412168D01*
G01X13752789Y9395150D01*
G01X13752789Y9366448D01*
G01X13758631Y9349430D01*
G01X13764219Y9338000D01*
G01X13775649Y9326570D01*
G01X13787079Y9320728D01*
G01X13809939Y9320728D01*
G01X13821369Y9326570D01*
G01X13832799Y9338000D01*
G01X13838641Y9349430D01*
G01X13915095Y9400738D02*
G01X13903665Y9395150D01*
G01X13892235Y9383720D01*
G01X13886393Y9366448D01*
G01X13886393Y9355018D01*
G01X13892235Y9338000D01*
G01X13903665Y9326570D01*
G01X13915095Y9320728D01*
G01X13932113Y9320728D01*
G01X13943543Y9326570D01*
G01X13954973Y9338000D01*
G01X13960815Y9355018D01*
G01X13960815Y9366448D01*
G01X13954973Y9383720D01*
G01X13943543Y9395150D01*
G01X13932113Y9400738D01*
G01X13915095Y9400738D01*
G01X14008567Y9400738D02*
G01X14008567Y9343588D01*
G01X14014409Y9326570D01*
G01X14025839Y9320728D01*
G01X14042857Y9320728D01*
G01X14054287Y9326570D01*
G01X14071559Y9343588D01*
G01X14071559Y9400738D02*
G01X14071559Y9320728D01*
G01X14119311Y9400738D02*
G01X14119311Y9320728D01*
G01X14119311Y9377878D02*
G01X14136583Y9395150D01*
G01X14148013Y9400738D01*
G01X14165031Y9400738D01*
G01X14176461Y9395150D01*
G01X14182303Y9377878D01*
G01X14182303Y9320728D01*
G01X14247327Y9440870D02*
G01X14247327Y9343588D01*
G01X14252915Y9326570D01*
G01X14264345Y9320728D01*
G01X14275775Y9320728D01*
G01X14230055Y9400738D02*
G01X14270187Y9400738D01*
G01X15246962Y9423598D02*
G01X15235532Y9435028D01*
G01X15218514Y9440870D01*
G01X15195654Y9440870D01*
G01X15178382Y9435028D01*
G01X15166952Y9423598D01*
G01X15166952Y9412168D01*
G01X15172794Y9400738D01*
G01X15178382Y9395150D01*
G01X15189812Y9389308D01*
G01X15224102Y9377878D01*
G01X15235532Y9372290D01*
G01X15241374Y9366448D01*
G01X15246962Y9355018D01*
G01X15246962Y9338000D01*
G01X15235532Y9326570D01*
G01X15218514Y9320728D01*
G01X15195654Y9320728D01*
G01X15178382Y9326570D01*
G01X15166952Y9338000D01*
G01X15294714Y9440870D02*
G01X15300556Y9435028D01*
G01X15306144Y9440870D01*
G01X15300556Y9446458D01*
G01X15294714Y9440870D01*
G01X15300556Y9400738D02*
G01X15300556Y9320728D01*
G01X15416888Y9400738D02*
G01X15353896Y9320728D01*
G01X15353896Y9400738D02*
G01X15416888Y9400738D01*
G01X15353896Y9320728D02*
G01X15416888Y9320728D01*
G01X15464640Y9366448D02*
G01X15533220Y9366448D01*
G01X15533220Y9377878D01*
G01X15527632Y9389308D01*
G01X15521790Y9395150D01*
G01X15510360Y9400738D01*
G01X15493342Y9400738D01*
G01X15481912Y9395150D01*
G01X15470482Y9383720D01*
G01X15464640Y9366448D01*
G01X15464640Y9355018D01*
G01X15470482Y9338000D01*
G01X15481912Y9326570D01*
G01X15493342Y9320728D01*
G01X15510360Y9320728D01*
G01X15521790Y9326570D01*
G01X15533220Y9338000D01*
G01X18958301Y9440870D02*
G01X18958301Y9320728D01*
G01X18958301Y9440870D02*
G01X19009863Y9440870D01*
G01X19026881Y9435028D01*
G01X19032723Y9429440D01*
G01X19038311Y9418010D01*
G01X19038311Y9400738D01*
G01X19032723Y9389308D01*
G01X19026881Y9383720D01*
G01X19009863Y9377878D01*
G01X18958301Y9377878D01*
G01X19086063Y9440870D02*
G01X19086063Y9320728D01*
G01X19202395Y9400738D02*
G01X19202395Y9320728D01*
G01X19202395Y9383720D02*
G01X19190965Y9395150D01*
G01X19179535Y9400738D01*
G01X19162517Y9400738D01*
G01X19151087Y9395150D01*
G01X19139657Y9383720D01*
G01X19133815Y9366448D01*
G01X19133815Y9355018D01*
G01X19139657Y9338000D01*
G01X19151087Y9326570D01*
G01X19162517Y9320728D01*
G01X19179535Y9320728D01*
G01X19190965Y9326570D01*
G01X19202395Y9338000D01*
G01X19267419Y9440870D02*
G01X19267419Y9343588D01*
G01X19273007Y9326570D01*
G01X19284437Y9320728D01*
G01X19295867Y9320728D01*
G01X19250147Y9400738D02*
G01X19290279Y9400738D01*
G01X19343619Y9366448D02*
G01X19412199Y9366448D01*
G01X19412199Y9377878D01*
G01X19406611Y9389308D01*
G01X19400769Y9395150D01*
G01X19389339Y9400738D01*
G01X19372321Y9400738D01*
G01X19360891Y9395150D01*
G01X19349461Y9383720D01*
G01X19343619Y9366448D01*
G01X19343619Y9355018D01*
G01X19349461Y9338000D01*
G01X19360891Y9326570D01*
G01X19372321Y9320728D01*
G01X19389339Y9320728D01*
G01X19400769Y9326570D01*
G01X19412199Y9338000D01*
G01X19528531Y9440870D02*
G01X19528531Y9320728D01*
G01X19528531Y9383720D02*
G01X19517101Y9395150D01*
G01X19505671Y9400738D01*
G01X19488653Y9400738D01*
G01X19477223Y9395150D01*
G01X19465793Y9383720D01*
G01X19459951Y9366448D01*
G01X19459951Y9355018D01*
G01X19465793Y9338000D01*
G01X19477223Y9326570D01*
G01X19488653Y9320728D01*
G01X19505671Y9320728D01*
G01X19517101Y9326570D01*
G01X19528531Y9338000D01*
G01X20499718Y9423598D02*
G01X20488288Y9435028D01*
G01X20471270Y9440870D01*
G01X20448410Y9440870D01*
G01X20431138Y9435028D01*
G01X20419708Y9423598D01*
G01X20419708Y9412168D01*
G01X20425550Y9400738D01*
G01X20431138Y9395150D01*
G01X20442568Y9389308D01*
G01X20476858Y9377878D01*
G01X20488288Y9372290D01*
G01X20494130Y9366448D01*
G01X20499718Y9355018D01*
G01X20499718Y9338000D01*
G01X20488288Y9326570D01*
G01X20471270Y9320728D01*
G01X20448410Y9320728D01*
G01X20431138Y9326570D01*
G01X20419708Y9338000D01*
G01X20547470Y9440870D02*
G01X20547470Y9320728D01*
G01X20547470Y9377878D02*
G01X20564742Y9395150D01*
G01X20576172Y9400738D01*
G01X20593190Y9400738D01*
G01X20604620Y9395150D01*
G01X20610462Y9377878D01*
G01X20610462Y9320728D01*
G01X20726794Y9400738D02*
G01X20726794Y9320728D01*
G01X20726794Y9383720D02*
G01X20715364Y9395150D01*
G01X20703934Y9400738D01*
G01X20686916Y9400738D01*
G01X20675486Y9395150D01*
G01X20664056Y9383720D01*
G01X20658214Y9366448D01*
G01X20658214Y9355018D01*
G01X20664056Y9338000D01*
G01X20675486Y9326570D01*
G01X20686916Y9320728D01*
G01X20703934Y9320728D01*
G01X20715364Y9326570D01*
G01X20726794Y9338000D01*
G01X20774546Y9400738D02*
G01X20774546Y9280850D01*
G01X20774546Y9383720D02*
G01X20785976Y9395150D01*
G01X20797406Y9400738D01*
G01X20814678Y9400738D01*
G01X20826108Y9395150D01*
G01X20837538Y9383720D01*
G01X20843126Y9366448D01*
G01X20843126Y9355018D01*
G01X20837538Y9338000D01*
G01X20826108Y9326570D01*
G01X20814678Y9320728D01*
G01X20797406Y9320728D01*
G01X20785976Y9326570D01*
G01X20774546Y9338000D01*
G01X20890878Y9366448D02*
G01X20959458Y9366448D01*
G01X20959458Y9377878D01*
G01X20953870Y9389308D01*
G01X20948028Y9395150D01*
G01X20936598Y9400738D01*
G01X20919580Y9400738D01*
G01X20908150Y9395150D01*
G01X20896720Y9383720D01*
G01X20890878Y9366448D01*
G01X20890878Y9355018D01*
G01X20896720Y9338000D01*
G01X20908150Y9326570D01*
G01X20919580Y9320728D01*
G01X20936598Y9320728D01*
G01X20948028Y9326570D01*
G01X20959458Y9338000D01*
G01X21850889Y9440870D02*
G01X21896609Y9320728D01*
G01X21942329Y9440870D02*
G01X21896609Y9320728D01*
G01X21990081Y9440870D02*
G01X21995923Y9435028D01*
G01X22001511Y9440870D01*
G01X21995923Y9446458D01*
G01X21990081Y9440870D01*
G01X21995923Y9400738D02*
G01X21995923Y9320728D01*
G01X22117843Y9400738D02*
G01X22117843Y9320728D01*
G01X22117843Y9383720D02*
G01X22106413Y9395150D01*
G01X22094983Y9400738D01*
G01X22077965Y9400738D01*
G01X22066535Y9395150D01*
G01X22055105Y9383720D01*
G01X22049263Y9366448D01*
G01X22049263Y9355018D01*
G01X22055105Y9338000D01*
G01X22066535Y9326570D01*
G01X22077965Y9320728D01*
G01X22094983Y9320728D01*
G01X22106413Y9326570D01*
G01X22117843Y9338000D01*
G01X22268465Y9463730D02*
G01X22165595Y9280850D01*
G01X22316217Y9440870D02*
G01X22316217Y9320728D01*
G01X22316217Y9440870D02*
G01X22367779Y9440870D01*
G01X22384797Y9435028D01*
G01X22390639Y9429440D01*
G01X22396227Y9418010D01*
G01X22396227Y9400738D01*
G01X22390639Y9389308D01*
G01X22384797Y9383720D01*
G01X22367779Y9377878D01*
G01X22316217Y9377878D01*
G01X22512559Y9400738D02*
G01X22512559Y9320728D01*
G01X22512559Y9383720D02*
G01X22501129Y9395150D01*
G01X22489699Y9400738D01*
G01X22472681Y9400738D01*
G01X22461251Y9395150D01*
G01X22449821Y9383720D01*
G01X22443979Y9366448D01*
G01X22443979Y9355018D01*
G01X22449821Y9338000D01*
G01X22461251Y9326570D01*
G01X22472681Y9320728D01*
G01X22489699Y9320728D01*
G01X22501129Y9326570D01*
G01X22512559Y9338000D01*
G01X22628891Y9440870D02*
G01X22628891Y9320728D01*
G01X22628891Y9383720D02*
G01X22617461Y9395150D01*
G01X22606031Y9400738D01*
G01X22589013Y9400738D01*
G01X22577583Y9395150D01*
G01X22566153Y9383720D01*
G01X22560311Y9366448D01*
G01X22560311Y9355018D01*
G01X22566153Y9338000D01*
G01X22577583Y9326570D01*
G01X22589013Y9320728D01*
G01X22606031Y9320728D01*
G01X22617461Y9326570D01*
G01X22628891Y9338000D01*
G01X23520068Y9440870D02*
G01X23520068Y9320728D01*
G01X23520068Y9440870D02*
G01X23571630Y9440870D01*
G01X23588648Y9435028D01*
G01X23594490Y9429440D01*
G01X23600078Y9418010D01*
G01X23600078Y9400738D01*
G01X23594490Y9389308D01*
G01X23588648Y9383720D01*
G01X23571630Y9377878D01*
G01X23520068Y9377878D01*
G01X23716410Y9400738D02*
G01X23716410Y9320728D01*
G01X23716410Y9383720D02*
G01X23704980Y9395150D01*
G01X23693550Y9400738D01*
G01X23676532Y9400738D01*
G01X23665102Y9395150D01*
G01X23653672Y9383720D01*
G01X23647830Y9366448D01*
G01X23647830Y9355018D01*
G01X23653672Y9338000D01*
G01X23665102Y9326570D01*
G01X23676532Y9320728D01*
G01X23693550Y9320728D01*
G01X23704980Y9326570D01*
G01X23716410Y9338000D01*
G01X23832742Y9440870D02*
G01X23832742Y9320728D01*
G01X23832742Y9383720D02*
G01X23821312Y9395150D01*
G01X23809882Y9400738D01*
G01X23792864Y9400738D01*
G01X23781434Y9395150D01*
G01X23770004Y9383720D01*
G01X23764162Y9366448D01*
G01X23764162Y9355018D01*
G01X23770004Y9338000D01*
G01X23781434Y9326570D01*
G01X23792864Y9320728D01*
G01X23809882Y9320728D01*
G01X23821312Y9326570D01*
G01X23832742Y9338000D01*
G01X24088520Y9423598D02*
G01X24077090Y9435028D01*
G01X24060072Y9440870D01*
G01X24037212Y9440870D01*
G01X24019940Y9435028D01*
G01X24008510Y9423598D01*
G01X24008510Y9412168D01*
G01X24014352Y9400738D01*
G01X24019940Y9395150D01*
G01X24031370Y9389308D01*
G01X24065660Y9377878D01*
G01X24077090Y9372290D01*
G01X24082932Y9366448D01*
G01X24088520Y9355018D01*
G01X24088520Y9338000D01*
G01X24077090Y9326570D01*
G01X24060072Y9320728D01*
G01X24037212Y9320728D01*
G01X24019940Y9326570D01*
G01X24008510Y9338000D01*
G01X24136272Y9440870D02*
G01X24136272Y9320728D01*
G01X24136272Y9377878D02*
G01X24153544Y9395150D01*
G01X24164974Y9400738D01*
G01X24181992Y9400738D01*
G01X24193422Y9395150D01*
G01X24199264Y9377878D01*
G01X24199264Y9320728D01*
G01X24315596Y9400738D02*
G01X24315596Y9320728D01*
G01X24315596Y9383720D02*
G01X24304166Y9395150D01*
G01X24292736Y9400738D01*
G01X24275718Y9400738D01*
G01X24264288Y9395150D01*
G01X24252858Y9383720D01*
G01X24247016Y9366448D01*
G01X24247016Y9355018D01*
G01X24252858Y9338000D01*
G01X24264288Y9326570D01*
G01X24275718Y9320728D01*
G01X24292736Y9320728D01*
G01X24304166Y9326570D01*
G01X24315596Y9338000D01*
G01X24363348Y9400738D02*
G01X24363348Y9280850D01*
G01X24363348Y9383720D02*
G01X24374778Y9395150D01*
G01X24386208Y9400738D01*
G01X24403480Y9400738D01*
G01X24414910Y9395150D01*
G01X24426340Y9383720D01*
G01X24431928Y9366448D01*
G01X24431928Y9355018D01*
G01X24426340Y9338000D01*
G01X24414910Y9326570D01*
G01X24403480Y9320728D01*
G01X24386208Y9320728D01*
G01X24374778Y9326570D01*
G01X24363348Y9338000D01*
G01X24479680Y9366448D02*
G01X24548260Y9366448D01*
G01X24548260Y9377878D01*
G01X24542672Y9389308D01*
G01X24536830Y9395150D01*
G01X24525400Y9400738D01*
G01X24508382Y9400738D01*
G01X24496952Y9395150D01*
G01X24485522Y9383720D01*
G01X24479680Y9366448D01*
G01X24479680Y9355018D01*
G01X24485522Y9338000D01*
G01X24496952Y9326570D01*
G01X24508382Y9320728D01*
G01X24525400Y9320728D01*
G01X24536830Y9326570D01*
G01X24548260Y9338000D01*
G01X25439438Y9440870D02*
G01X25439438Y9320728D01*
G01X25439438Y9320728D02*
G01X25508018Y9320728D01*
G01X25624350Y9400738D02*
G01X25624350Y9320728D01*
G01X25624350Y9383720D02*
G01X25612920Y9395150D01*
G01X25601490Y9400738D01*
G01X25584472Y9400738D01*
G01X25573042Y9395150D01*
G01X25561612Y9383720D01*
G01X25555770Y9366448D01*
G01X25555770Y9355018D01*
G01X25561612Y9338000D01*
G01X25573042Y9326570D01*
G01X25584472Y9320728D01*
G01X25601490Y9320728D01*
G01X25612920Y9326570D01*
G01X25624350Y9338000D01*
G01X25677944Y9400738D02*
G01X25712234Y9320728D01*
G01X25746524Y9400738D02*
G01X25712234Y9320728D01*
G01X25700804Y9297868D01*
G01X25689374Y9286438D01*
G01X25677944Y9280850D01*
G01X25672102Y9280850D01*
G01X25794276Y9366448D02*
G01X25862856Y9366448D01*
G01X25862856Y9377878D01*
G01X25857268Y9389308D01*
G01X25851426Y9395150D01*
G01X25839996Y9400738D01*
G01X25822978Y9400738D01*
G01X25811548Y9395150D01*
G01X25800118Y9383720D01*
G01X25794276Y9366448D01*
G01X25794276Y9355018D01*
G01X25800118Y9338000D01*
G01X25811548Y9326570D01*
G01X25822978Y9320728D01*
G01X25839996Y9320728D01*
G01X25851426Y9326570D01*
G01X25862856Y9338000D01*
G01X25910608Y9400738D02*
G01X25910608Y9320728D01*
G01X25910608Y9366448D02*
G01X25916450Y9383720D01*
G01X25927880Y9395150D01*
G01X25939310Y9400738D01*
G01X25956328Y9400738D01*
G01X26132096Y9440870D02*
G01X26132096Y9320728D01*
G01X26132096Y9440870D02*
G01X26183658Y9440870D01*
G01X26200676Y9435028D01*
G01X26206518Y9429440D01*
G01X26212106Y9418010D01*
G01X26212106Y9400738D01*
G01X26206518Y9389308D01*
G01X26200676Y9383720D01*
G01X26183658Y9377878D01*
G01X26132096Y9377878D01*
G01X26328438Y9400738D02*
G01X26328438Y9320728D01*
G01X26328438Y9383720D02*
G01X26317008Y9395150D01*
G01X26305578Y9400738D01*
G01X26288560Y9400738D01*
G01X26277130Y9395150D01*
G01X26265700Y9383720D01*
G01X26259858Y9366448D01*
G01X26259858Y9355018D01*
G01X26265700Y9338000D01*
G01X26277130Y9326570D01*
G01X26288560Y9320728D01*
G01X26305578Y9320728D01*
G01X26317008Y9326570D01*
G01X26328438Y9338000D01*
G01X26376190Y9440870D02*
G01X26382032Y9435028D01*
G01X26387620Y9440870D01*
G01X26382032Y9446458D01*
G01X26376190Y9440870D01*
G01X26382032Y9400738D02*
G01X26382032Y9320728D01*
G01X26435372Y9400738D02*
G01X26435372Y9320728D01*
G01X26435372Y9366448D02*
G01X26441214Y9383720D01*
G01X26452644Y9395150D01*
G01X26464074Y9400738D01*
G01X26481092Y9400738D01*
G01X13809939Y8860298D02*
G01X13752789Y8780288D01*
G01X13838641Y8780288D01*
G01X13809939Y8860298D02*
G01X13809939Y8740156D01*
G01X15235532Y8860298D02*
G01X15178382Y8860298D01*
G01X15172794Y8808736D01*
G01X15178382Y8814578D01*
G01X15195654Y8820166D01*
G01X15212672Y8820166D01*
G01X15229944Y8814578D01*
G01X15241374Y8803148D01*
G01X15246962Y8785876D01*
G01X15246962Y8774446D01*
G01X15241374Y8757428D01*
G01X15229944Y8745998D01*
G01X15212672Y8740156D01*
G01X15195654Y8740156D01*
G01X15178382Y8745998D01*
G01X15172794Y8751586D01*
G01X15166952Y8763016D01*
G01X15363294Y8860298D02*
G01X15306144Y8860298D01*
G01X15300556Y8808736D01*
G01X15306144Y8814578D01*
G01X15323416Y8820166D01*
G01X15340434Y8820166D01*
G01X15357706Y8814578D01*
G01X15369136Y8803148D01*
G01X15374724Y8785876D01*
G01X15374724Y8774446D01*
G01X15369136Y8757428D01*
G01X15357706Y8745998D01*
G01X15340434Y8740156D01*
G01X15323416Y8740156D01*
G01X15306144Y8745998D01*
G01X15300556Y8751586D01*
G01X15294714Y8763016D01*
G01X15428318Y8768858D02*
G01X15422476Y8763016D01*
G01X15428318Y8757428D01*
G01X15433906Y8763016D01*
G01X15428318Y8768858D01*
G01X15481658Y8837438D02*
G01X15493088Y8843026D01*
G01X15510360Y8860298D01*
G01X15510360Y8740156D01*
G01X15558112Y8820166D02*
G01X15621104Y8740156D01*
G01X15621104Y8820166D02*
G01X15558112Y8740156D01*
G01X15737436Y8860298D02*
G01X15680286Y8860298D01*
G01X15674698Y8808736D01*
G01X15680286Y8814578D01*
G01X15697558Y8820166D01*
G01X15714576Y8820166D01*
G01X15731848Y8814578D01*
G01X15743278Y8803148D01*
G01X15748866Y8785876D01*
G01X15748866Y8774446D01*
G01X15743278Y8757428D01*
G01X15731848Y8745998D01*
G01X15714576Y8740156D01*
G01X15697558Y8740156D01*
G01X15680286Y8745998D01*
G01X15674698Y8751586D01*
G01X15668856Y8763016D01*
G01X15865198Y8860298D02*
G01X15808048Y8860298D01*
G01X15802460Y8808736D01*
G01X15808048Y8814578D01*
G01X15825320Y8820166D01*
G01X15842338Y8820166D01*
G01X15859610Y8814578D01*
G01X15871040Y8803148D01*
G01X15876628Y8785876D01*
G01X15876628Y8774446D01*
G01X15871040Y8757428D01*
G01X15859610Y8745998D01*
G01X15842338Y8740156D01*
G01X15825320Y8740156D01*
G01X15808048Y8745998D01*
G01X15802460Y8751586D01*
G01X15796618Y8763016D01*
G01X15930222Y8768858D02*
G01X15924380Y8763016D01*
G01X15930222Y8757428D01*
G01X15935810Y8763016D01*
G01X15930222Y8768858D01*
G01X15983562Y8837438D02*
G01X15994992Y8843026D01*
G01X16012264Y8860298D01*
G01X16012264Y8740156D01*
G01X16060016Y8820166D02*
G01X16060016Y8740156D01*
G01X16060016Y8797306D02*
G01X16077288Y8814578D01*
G01X16088718Y8820166D01*
G01X16105736Y8820166D01*
G01X16117166Y8814578D01*
G01X16123008Y8797306D01*
G01X16123008Y8740156D01*
G01X16123008Y8797306D02*
G01X16140026Y8814578D01*
G01X16151456Y8820166D01*
G01X16168728Y8820166D01*
G01X16180158Y8814578D01*
G01X16185746Y8797306D01*
G01X16185746Y8740156D01*
G01X16233498Y8860298D02*
G01X16239340Y8854456D01*
G01X16244928Y8860298D01*
G01X16239340Y8865886D01*
G01X16233498Y8860298D01*
G01X16239340Y8820166D02*
G01X16239340Y8740156D01*
G01X16292680Y8860298D02*
G01X16292680Y8740156D01*
G01X16380564Y8883158D02*
G01X16369134Y8871728D01*
G01X16357704Y8854456D01*
G01X16346274Y8831596D01*
G01X16340432Y8803148D01*
G01X16340432Y8780288D01*
G01X16346274Y8751586D01*
G01X16357704Y8728726D01*
G01X16369134Y8711708D01*
G01X16380564Y8700278D01*
G01X16428316Y8837438D02*
G01X16439746Y8843026D01*
G01X16457018Y8860298D01*
G01X16457018Y8740156D01*
G01X16510612Y8768858D02*
G01X16504770Y8763016D01*
G01X16510612Y8757428D01*
G01X16516200Y8763016D01*
G01X16510612Y8768858D01*
G01X16621102Y8860298D02*
G01X16563952Y8780288D01*
G01X16649804Y8780288D01*
G01X16621102Y8860298D02*
G01X16621102Y8740156D01*
G01X16731846Y8860298D02*
G01X16714828Y8854456D01*
G01X16703398Y8837438D01*
G01X16697556Y8808736D01*
G01X16697556Y8791718D01*
G01X16703398Y8763016D01*
G01X16714828Y8745998D01*
G01X16731846Y8740156D01*
G01X16743276Y8740156D01*
G01X16760548Y8745998D01*
G01X16771978Y8763016D01*
G01X16777566Y8791718D01*
G01X16777566Y8808736D01*
G01X16771978Y8837438D01*
G01X16760548Y8854456D01*
G01X16743276Y8860298D01*
G01X16731846Y8860298D01*
G01X16859608Y8860298D02*
G01X16842590Y8854456D01*
G01X16831160Y8837438D01*
G01X16825318Y8808736D01*
G01X16825318Y8791718D01*
G01X16831160Y8763016D01*
G01X16842590Y8745998D01*
G01X16859608Y8740156D01*
G01X16871038Y8740156D01*
G01X16888310Y8745998D01*
G01X16899740Y8763016D01*
G01X16905328Y8791718D01*
G01X16905328Y8808736D01*
G01X16899740Y8837438D01*
G01X16888310Y8854456D01*
G01X16871038Y8860298D01*
G01X16859608Y8860298D01*
G01X16953080Y8820166D02*
G01X17016072Y8740156D01*
G01X17016072Y8820166D02*
G01X16953080Y8740156D01*
G01X17063824Y8837438D02*
G01X17075254Y8843026D01*
G01X17092526Y8860298D01*
G01X17092526Y8740156D01*
G01X17146120Y8768858D02*
G01X17140278Y8763016D01*
G01X17146120Y8757428D01*
G01X17151708Y8763016D01*
G01X17146120Y8768858D01*
G01X17256610Y8860298D02*
G01X17199460Y8780288D01*
G01X17285312Y8780288D01*
G01X17256610Y8860298D02*
G01X17256610Y8740156D01*
G01X17367354Y8860298D02*
G01X17350336Y8854456D01*
G01X17338906Y8837438D01*
G01X17333064Y8808736D01*
G01X17333064Y8791718D01*
G01X17338906Y8763016D01*
G01X17350336Y8745998D01*
G01X17367354Y8740156D01*
G01X17378784Y8740156D01*
G01X17396056Y8745998D01*
G01X17407486Y8763016D01*
G01X17413074Y8791718D01*
G01X17413074Y8808736D01*
G01X17407486Y8837438D01*
G01X17396056Y8854456D01*
G01X17378784Y8860298D01*
G01X17367354Y8860298D01*
G01X17495116Y8860298D02*
G01X17478098Y8854456D01*
G01X17466668Y8837438D01*
G01X17460826Y8808736D01*
G01X17460826Y8791718D01*
G01X17466668Y8763016D01*
G01X17478098Y8745998D01*
G01X17495116Y8740156D01*
G01X17506546Y8740156D01*
G01X17523818Y8745998D01*
G01X17535248Y8763016D01*
G01X17540836Y8791718D01*
G01X17540836Y8808736D01*
G01X17535248Y8837438D01*
G01X17523818Y8854456D01*
G01X17506546Y8860298D01*
G01X17495116Y8860298D01*
G01X17588588Y8820166D02*
G01X17588588Y8740156D01*
G01X17588588Y8797306D02*
G01X17605860Y8814578D01*
G01X17617290Y8820166D01*
G01X17634308Y8820166D01*
G01X17645738Y8814578D01*
G01X17651580Y8797306D01*
G01X17651580Y8740156D01*
G01X17651580Y8797306D02*
G01X17668598Y8814578D01*
G01X17680028Y8820166D01*
G01X17697300Y8820166D01*
G01X17708730Y8814578D01*
G01X17714318Y8797306D01*
G01X17714318Y8740156D01*
G01X17762070Y8820166D02*
G01X17762070Y8740156D01*
G01X17762070Y8797306D02*
G01X17779342Y8814578D01*
G01X17790772Y8820166D01*
G01X17807790Y8820166D01*
G01X17819220Y8814578D01*
G01X17825062Y8797306D01*
G01X17825062Y8740156D01*
G01X17825062Y8797306D02*
G01X17842080Y8814578D01*
G01X17853510Y8820166D01*
G01X17870782Y8820166D01*
G01X17882212Y8814578D01*
G01X17887800Y8797306D01*
G01X17887800Y8740156D01*
G01X17935552Y8883158D02*
G01X17946982Y8871728D01*
G01X17958412Y8854456D01*
G01X17969842Y8831596D01*
G01X17975684Y8803148D01*
G01X17975684Y8780288D01*
G01X17969842Y8751586D01*
G01X17958412Y8728726D01*
G01X17946982Y8711708D01*
G01X17935552Y8700278D01*
G01X18958301Y8860298D02*
G01X18958301Y8740156D01*
G01X18958301Y8860298D02*
G01X19009863Y8860298D01*
G01X19026881Y8854456D01*
G01X19032723Y8848868D01*
G01X19038311Y8837438D01*
G01X19038311Y8820166D01*
G01X19032723Y8808736D01*
G01X19026881Y8803148D01*
G01X19009863Y8797306D01*
G01X18958301Y8797306D01*
G01X19126195Y8860298D02*
G01X19126195Y8740156D01*
G01X19086063Y8860298D02*
G01X19166073Y8860298D01*
G01X19213825Y8860298D02*
G01X19213825Y8740156D01*
G01X19293835Y8860298D02*
G01X19293835Y8740156D01*
G01X19213825Y8803148D02*
G01X19293835Y8803148D01*
G01X20419708Y8860298D02*
G01X20419708Y8740156D01*
G01X20419708Y8860298D02*
G01X20471270Y8860298D01*
G01X20488288Y8854456D01*
G01X20494130Y8848868D01*
G01X20499718Y8837438D01*
G01X20499718Y8826008D01*
G01X20494130Y8814578D01*
G01X20488288Y8808736D01*
G01X20471270Y8803148D01*
G01X20419708Y8803148D01*
G01X20459840Y8803148D02*
G01X20499718Y8740156D01*
G01X20576172Y8820166D02*
G01X20564742Y8814578D01*
G01X20553312Y8803148D01*
G01X20547470Y8785876D01*
G01X20547470Y8774446D01*
G01X20553312Y8757428D01*
G01X20564742Y8745998D01*
G01X20576172Y8740156D01*
G01X20593190Y8740156D01*
G01X20604620Y8745998D01*
G01X20616050Y8757428D01*
G01X20621892Y8774446D01*
G01X20621892Y8785876D01*
G01X20616050Y8803148D01*
G01X20604620Y8814578D01*
G01X20593190Y8820166D01*
G01X20576172Y8820166D01*
G01X20669644Y8820166D02*
G01X20669644Y8763016D01*
G01X20675486Y8745998D01*
G01X20686916Y8740156D01*
G01X20703934Y8740156D01*
G01X20715364Y8745998D01*
G01X20732636Y8763016D01*
G01X20732636Y8820166D02*
G01X20732636Y8740156D01*
G01X20780388Y8820166D02*
G01X20780388Y8740156D01*
G01X20780388Y8797306D02*
G01X20797660Y8814578D01*
G01X20809090Y8820166D01*
G01X20826108Y8820166D01*
G01X20837538Y8814578D01*
G01X20843380Y8797306D01*
G01X20843380Y8740156D01*
G01X20959712Y8860298D02*
G01X20959712Y8740156D01*
G01X20959712Y8803148D02*
G01X20948282Y8814578D01*
G01X20936852Y8820166D01*
G01X20919834Y8820166D01*
G01X20908404Y8814578D01*
G01X20896974Y8803148D01*
G01X20891132Y8785876D01*
G01X20891132Y8774446D01*
G01X20896974Y8757428D01*
G01X20908404Y8745998D01*
G01X20919834Y8740156D01*
G01X20936852Y8740156D01*
G01X20948282Y8745998D01*
G01X20959712Y8757428D01*
G01X21850889Y8860298D02*
G01X21850889Y8740156D01*
G01X21850889Y8860298D02*
G01X21902451Y8860298D01*
G01X21919469Y8854456D01*
G01X21925311Y8848868D01*
G01X21930899Y8837438D01*
G01X21930899Y8820166D01*
G01X21925311Y8808736D01*
G01X21919469Y8803148D01*
G01X21902451Y8797306D01*
G01X21850889Y8797306D01*
G01X22047231Y8820166D02*
G01X22047231Y8740156D01*
G01X22047231Y8803148D02*
G01X22035801Y8814578D01*
G01X22024371Y8820166D01*
G01X22007353Y8820166D01*
G01X21995923Y8814578D01*
G01X21984493Y8803148D01*
G01X21978651Y8785876D01*
G01X21978651Y8774446D01*
G01X21984493Y8757428D01*
G01X21995923Y8745998D01*
G01X22007353Y8740156D01*
G01X22024371Y8740156D01*
G01X22035801Y8745998D01*
G01X22047231Y8757428D01*
G01X22163563Y8860298D02*
G01X22163563Y8740156D01*
G01X22163563Y8803148D02*
G01X22152133Y8814578D01*
G01X22140703Y8820166D01*
G01X22123685Y8820166D01*
G01X22112255Y8814578D01*
G01X22100825Y8803148D01*
G01X22094983Y8785876D01*
G01X22094983Y8774446D01*
G01X22100825Y8757428D01*
G01X22112255Y8745998D01*
G01X22123685Y8740156D01*
G01X22140703Y8740156D01*
G01X22152133Y8745998D01*
G01X22163563Y8757428D01*
G01X23520068Y8860298D02*
G01X23520068Y8740156D01*
G01X23520068Y8860298D02*
G01X23571630Y8860298D01*
G01X23588648Y8854456D01*
G01X23594490Y8848868D01*
G01X23600078Y8837438D01*
G01X23600078Y8826008D01*
G01X23594490Y8814578D01*
G01X23588648Y8808736D01*
G01X23571630Y8803148D01*
G01X23520068Y8803148D01*
G01X23560200Y8803148D02*
G01X23600078Y8740156D01*
G01X23676532Y8820166D02*
G01X23665102Y8814578D01*
G01X23653672Y8803148D01*
G01X23647830Y8785876D01*
G01X23647830Y8774446D01*
G01X23653672Y8757428D01*
G01X23665102Y8745998D01*
G01X23676532Y8740156D01*
G01X23693550Y8740156D01*
G01X23704980Y8745998D01*
G01X23716410Y8757428D01*
G01X23722252Y8774446D01*
G01X23722252Y8785876D01*
G01X23716410Y8803148D01*
G01X23704980Y8814578D01*
G01X23693550Y8820166D01*
G01X23676532Y8820166D01*
G01X23770004Y8820166D02*
G01X23770004Y8763016D01*
G01X23775846Y8745998D01*
G01X23787276Y8740156D01*
G01X23804294Y8740156D01*
G01X23815724Y8745998D01*
G01X23832996Y8763016D01*
G01X23832996Y8820166D02*
G01X23832996Y8740156D01*
G01X23880748Y8820166D02*
G01X23880748Y8740156D01*
G01X23880748Y8797306D02*
G01X23898020Y8814578D01*
G01X23909450Y8820166D01*
G01X23926468Y8820166D01*
G01X23937898Y8814578D01*
G01X23943740Y8797306D01*
G01X23943740Y8740156D01*
G01X24060072Y8860298D02*
G01X24060072Y8740156D01*
G01X24060072Y8803148D02*
G01X24048642Y8814578D01*
G01X24037212Y8820166D01*
G01X24020194Y8820166D01*
G01X24008764Y8814578D01*
G01X23997334Y8803148D01*
G01X23991492Y8785876D01*
G01X23991492Y8774446D01*
G01X23997334Y8757428D01*
G01X24008764Y8745998D01*
G01X24020194Y8740156D01*
G01X24037212Y8740156D01*
G01X24048642Y8745998D01*
G01X24060072Y8757428D01*
G01X25479570Y8860298D02*
G01X25479570Y8740156D01*
G01X25439438Y8860298D02*
G01X25519448Y8860298D01*
G01X25595902Y8820166D02*
G01X25584472Y8814578D01*
G01X25573042Y8803148D01*
G01X25567200Y8785876D01*
G01X25567200Y8774446D01*
G01X25573042Y8757428D01*
G01X25584472Y8745998D01*
G01X25595902Y8740156D01*
G01X25612920Y8740156D01*
G01X25624350Y8745998D01*
G01X25635780Y8757428D01*
G01X25641622Y8774446D01*
G01X25641622Y8785876D01*
G01X25635780Y8803148D01*
G01X25624350Y8814578D01*
G01X25612920Y8820166D01*
G01X25595902Y8820166D01*
G01X25689374Y8820166D02*
G01X25689374Y8700278D01*
G01X25689374Y8803148D02*
G01X25700804Y8814578D01*
G01X25712234Y8820166D01*
G01X25729506Y8820166D01*
G01X25740936Y8814578D01*
G01X25752366Y8803148D01*
G01X25757954Y8785876D01*
G01X25757954Y8774446D01*
G01X25752366Y8757428D01*
G01X25740936Y8745998D01*
G01X25729506Y8740156D01*
G01X25712234Y8740156D01*
G01X25700804Y8745998D01*
G01X25689374Y8757428D01*
G01X25933722Y8860298D02*
G01X25933722Y8740156D01*
G01X25933722Y8740156D02*
G01X26002302Y8740156D01*
G01X26118634Y8820166D02*
G01X26118634Y8740156D01*
G01X26118634Y8803148D02*
G01X26107204Y8814578D01*
G01X26095774Y8820166D01*
G01X26078756Y8820166D01*
G01X26067326Y8814578D01*
G01X26055896Y8803148D01*
G01X26050054Y8785876D01*
G01X26050054Y8774446D01*
G01X26055896Y8757428D01*
G01X26067326Y8745998D01*
G01X26078756Y8740156D01*
G01X26095774Y8740156D01*
G01X26107204Y8745998D01*
G01X26118634Y8757428D01*
G01X26172228Y8820166D02*
G01X26206518Y8740156D01*
G01X26240808Y8820166D02*
G01X26206518Y8740156D01*
G01X26195088Y8717296D01*
G01X26183658Y8705866D01*
G01X26172228Y8700278D01*
G01X26166386Y8700278D01*
G01X26288560Y8785876D02*
G01X26357140Y8785876D01*
G01X26357140Y8797306D01*
G01X26351552Y8808736D01*
G01X26345710Y8814578D01*
G01X26334280Y8820166D01*
G01X26317262Y8820166D01*
G01X26305832Y8814578D01*
G01X26294402Y8803148D01*
G01X26288560Y8785876D01*
G01X26288560Y8774446D01*
G01X26294402Y8757428D01*
G01X26305832Y8745998D01*
G01X26317262Y8740156D01*
G01X26334280Y8740156D01*
G01X26345710Y8745998D01*
G01X26357140Y8757428D01*
G01X26404892Y8820166D02*
G01X26404892Y8740156D01*
G01X26404892Y8785876D02*
G01X26410734Y8803148D01*
G01X26422164Y8814578D01*
G01X26433594Y8820166D01*
G01X26450612Y8820166D01*
G01X26498364Y8791718D02*
G01X26601234Y8791718D01*
G01X26648986Y8860298D02*
G01X26648986Y8740156D01*
G01X26648986Y8860298D02*
G01X26700548Y8860298D01*
G01X26717566Y8854456D01*
G01X26723408Y8848868D01*
G01X26728996Y8837438D01*
G01X26728996Y8826008D01*
G01X26723408Y8814578D01*
G01X26717566Y8808736D01*
G01X26700548Y8803148D01*
G01X26648986Y8803148D02*
G01X26700548Y8803148D01*
G01X26717566Y8797306D01*
G01X26723408Y8791718D01*
G01X26728996Y8780288D01*
G01X26728996Y8763016D01*
G01X26723408Y8751586D01*
G01X26717566Y8745998D01*
G01X26700548Y8740156D01*
G01X26648986Y8740156D01*
G01X26805450Y8820166D02*
G01X26794020Y8814578D01*
G01X26782590Y8803148D01*
G01X26776748Y8785876D01*
G01X26776748Y8774446D01*
G01X26782590Y8757428D01*
G01X26794020Y8745998D01*
G01X26805450Y8740156D01*
G01X26822468Y8740156D01*
G01X26833898Y8745998D01*
G01X26845328Y8757428D01*
G01X26851170Y8774446D01*
G01X26851170Y8785876D01*
G01X26845328Y8803148D01*
G01X26833898Y8814578D01*
G01X26822468Y8820166D01*
G01X26805450Y8820166D01*
G01X26916194Y8860298D02*
G01X26916194Y8763016D01*
G01X26921782Y8745998D01*
G01X26933212Y8740156D01*
G01X26944642Y8740156D01*
G01X26898922Y8820166D02*
G01X26939054Y8820166D01*
G01X27009666Y8860298D02*
G01X27009666Y8763016D01*
G01X27015254Y8745998D01*
G01X27026684Y8740156D01*
G01X27038114Y8740156D01*
G01X26992394Y8820166D02*
G01X27032526Y8820166D01*
G01X27114568Y8820166D02*
G01X27103138Y8814578D01*
G01X27091708Y8803148D01*
G01X27085866Y8785876D01*
G01X27085866Y8774446D01*
G01X27091708Y8757428D01*
G01X27103138Y8745998D01*
G01X27114568Y8740156D01*
G01X27131586Y8740156D01*
G01X27143016Y8745998D01*
G01X27154446Y8757428D01*
G01X27160288Y8774446D01*
G01X27160288Y8785876D01*
G01X27154446Y8803148D01*
G01X27143016Y8814578D01*
G01X27131586Y8820166D01*
G01X27114568Y8820166D01*
G01X27208040Y8820166D02*
G01X27208040Y8740156D01*
G01X27208040Y8797306D02*
G01X27225312Y8814578D01*
G01X27236742Y8820166D01*
G01X27253760Y8820166D01*
G01X27265190Y8814578D01*
G01X27271032Y8797306D01*
G01X27271032Y8740156D01*
G01X27271032Y8797306D02*
G01X27288050Y8814578D01*
G01X27299480Y8820166D01*
G01X27316752Y8820166D01*
G01X27328182Y8814578D01*
G01X27333770Y8797306D01*
G01X27333770Y8740156D01*
G01X27509538Y8860298D02*
G01X27509538Y8740156D01*
G01X27509538Y8740156D02*
G01X27578118Y8740156D01*
G01X27694450Y8820166D02*
G01X27694450Y8740156D01*
G01X27694450Y8803148D02*
G01X27683020Y8814578D01*
G01X27671590Y8820166D01*
G01X27654572Y8820166D01*
G01X27643142Y8814578D01*
G01X27631712Y8803148D01*
G01X27625870Y8785876D01*
G01X27625870Y8774446D01*
G01X27631712Y8757428D01*
G01X27643142Y8745998D01*
G01X27654572Y8740156D01*
G01X27671590Y8740156D01*
G01X27683020Y8745998D01*
G01X27694450Y8757428D01*
G01X27748044Y8820166D02*
G01X27782334Y8740156D01*
G01X27816624Y8820166D02*
G01X27782334Y8740156D01*
G01X27770904Y8717296D01*
G01X27759474Y8705866D01*
G01X27748044Y8700278D01*
G01X27742202Y8700278D01*
G01X27864376Y8785876D02*
G01X27932956Y8785876D01*
G01X27932956Y8797306D01*
G01X27927368Y8808736D01*
G01X27921526Y8814578D01*
G01X27910096Y8820166D01*
G01X27893078Y8820166D01*
G01X27881648Y8814578D01*
G01X27870218Y8803148D01*
G01X27864376Y8785876D01*
G01X27864376Y8774446D01*
G01X27870218Y8757428D01*
G01X27881648Y8745998D01*
G01X27893078Y8740156D01*
G01X27910096Y8740156D01*
G01X27921526Y8745998D01*
G01X27932956Y8757428D01*
G01X27980708Y8820166D02*
G01X27980708Y8740156D01*
G01X27980708Y8785876D02*
G01X27986550Y8803148D01*
G01X27997980Y8814578D01*
G01X28009410Y8820166D01*
G01X28026428Y8820166D01*
G01X13781491Y8279727D02*
G01X13764219Y8273885D01*
G01X13758631Y8262455D01*
G01X13758631Y8251025D01*
G01X13764219Y8239595D01*
G01X13775649Y8234007D01*
G01X13798509Y8228165D01*
G01X13815781Y8222577D01*
G01X13827211Y8211147D01*
G01X13832799Y8199717D01*
G01X13832799Y8182445D01*
G01X13827211Y8171015D01*
G01X13821369Y8165427D01*
G01X13804351Y8159585D01*
G01X13781491Y8159585D01*
G01X13764219Y8165427D01*
G01X13758631Y8171015D01*
G01X13752789Y8182445D01*
G01X13752789Y8199717D01*
G01X13758631Y8211147D01*
G01X13770061Y8222577D01*
G01X13787079Y8228165D01*
G01X13809939Y8234007D01*
G01X13821369Y8239595D01*
G01X13827211Y8251025D01*
G01X13827211Y8262455D01*
G01X13821369Y8273885D01*
G01X13804351Y8279727D01*
G01X13781491Y8279727D01*
G01X15235532Y8279727D02*
G01X15178382Y8279727D01*
G01X15172794Y8228165D01*
G01X15178382Y8234007D01*
G01X15195654Y8239595D01*
G01X15212672Y8239595D01*
G01X15229944Y8234007D01*
G01X15241374Y8222577D01*
G01X15246962Y8205305D01*
G01X15246962Y8193875D01*
G01X15241374Y8176857D01*
G01X15229944Y8165427D01*
G01X15212672Y8159585D01*
G01X15195654Y8159585D01*
G01X15178382Y8165427D01*
G01X15172794Y8171015D01*
G01X15166952Y8182445D01*
G01X15369136Y8239595D02*
G01X15363294Y8222577D01*
G01X15351864Y8211147D01*
G01X15334846Y8205305D01*
G01X15329004Y8205305D01*
G01X15311986Y8211147D01*
G01X15300556Y8222577D01*
G01X15294714Y8239595D01*
G01X15294714Y8245437D01*
G01X15300556Y8262455D01*
G01X15311986Y8273885D01*
G01X15329004Y8279727D01*
G01X15334846Y8279727D01*
G01X15351864Y8273885D01*
G01X15363294Y8262455D01*
G01X15369136Y8239595D01*
G01X15369136Y8211147D01*
G01X15363294Y8182445D01*
G01X15351864Y8165427D01*
G01X15334846Y8159585D01*
G01X15323416Y8159585D01*
G01X15306144Y8165427D01*
G01X15300556Y8176857D01*
G01X15422730Y8188287D02*
G01X15416888Y8182445D01*
G01X15422730Y8176857D01*
G01X15428318Y8182445D01*
G01X15422730Y8188287D01*
G01X15476070Y8256867D02*
G01X15487500Y8262455D01*
G01X15504772Y8279727D01*
G01X15504772Y8159585D01*
G01X15552524Y8239595D02*
G01X15615516Y8159585D01*
G01X15615516Y8239595D02*
G01X15552524Y8159585D01*
G01X15731848Y8279727D02*
G01X15674698Y8279727D01*
G01X15669110Y8228165D01*
G01X15674698Y8234007D01*
G01X15691970Y8239595D01*
G01X15708988Y8239595D01*
G01X15726260Y8234007D01*
G01X15737690Y8222577D01*
G01X15743278Y8205305D01*
G01X15743278Y8193875D01*
G01X15737690Y8176857D01*
G01X15726260Y8165427D01*
G01X15708988Y8159585D01*
G01X15691970Y8159585D01*
G01X15674698Y8165427D01*
G01X15669110Y8171015D01*
G01X15663268Y8182445D01*
G01X15865452Y8239595D02*
G01X15859610Y8222577D01*
G01X15848180Y8211147D01*
G01X15831162Y8205305D01*
G01X15825320Y8205305D01*
G01X15808302Y8211147D01*
G01X15796872Y8222577D01*
G01X15791030Y8239595D01*
G01X15791030Y8245437D01*
G01X15796872Y8262455D01*
G01X15808302Y8273885D01*
G01X15825320Y8279727D01*
G01X15831162Y8279727D01*
G01X15848180Y8273885D01*
G01X15859610Y8262455D01*
G01X15865452Y8239595D01*
G01X15865452Y8211147D01*
G01X15859610Y8182445D01*
G01X15848180Y8165427D01*
G01X15831162Y8159585D01*
G01X15819732Y8159585D01*
G01X15802460Y8165427D01*
G01X15796872Y8176857D01*
G01X15919046Y8188287D02*
G01X15913204Y8182445D01*
G01X15919046Y8176857D01*
G01X15924634Y8182445D01*
G01X15919046Y8188287D01*
G01X15972386Y8256867D02*
G01X15983816Y8262455D01*
G01X16001088Y8279727D01*
G01X16001088Y8159585D01*
G01X16048840Y8239595D02*
G01X16048840Y8159585D01*
G01X16048840Y8216735D02*
G01X16066112Y8234007D01*
G01X16077542Y8239595D01*
G01X16094560Y8239595D01*
G01X16105990Y8234007D01*
G01X16111832Y8216735D01*
G01X16111832Y8159585D01*
G01X16111832Y8216735D02*
G01X16128850Y8234007D01*
G01X16140280Y8239595D01*
G01X16157552Y8239595D01*
G01X16168982Y8234007D01*
G01X16174570Y8216735D01*
G01X16174570Y8159585D01*
G01X16222322Y8279727D02*
G01X16228164Y8273885D01*
G01X16233752Y8279727D01*
G01X16228164Y8285315D01*
G01X16222322Y8279727D01*
G01X16228164Y8239595D02*
G01X16228164Y8159585D01*
G01X16281504Y8279727D02*
G01X16281504Y8159585D01*
G01X16369388Y8302587D02*
G01X16357958Y8291157D01*
G01X16346528Y8273885D01*
G01X16335098Y8251025D01*
G01X16329256Y8222577D01*
G01X16329256Y8199717D01*
G01X16335098Y8171015D01*
G01X16346528Y8148155D01*
G01X16357958Y8131137D01*
G01X16369388Y8119707D01*
G01X16417140Y8256867D02*
G01X16428570Y8262455D01*
G01X16445842Y8279727D01*
G01X16445842Y8159585D01*
G01X16499436Y8188287D02*
G01X16493594Y8182445D01*
G01X16499436Y8176857D01*
G01X16505024Y8182445D01*
G01X16499436Y8188287D01*
G01X16621356Y8279727D02*
G01X16564206Y8279727D01*
G01X16558618Y8228165D01*
G01X16564206Y8234007D01*
G01X16581478Y8239595D01*
G01X16598496Y8239595D01*
G01X16615768Y8234007D01*
G01X16627198Y8222577D01*
G01X16632786Y8205305D01*
G01X16632786Y8193875D01*
G01X16627198Y8176857D01*
G01X16615768Y8165427D01*
G01X16598496Y8159585D01*
G01X16581478Y8159585D01*
G01X16564206Y8165427D01*
G01X16558618Y8171015D01*
G01X16552776Y8182445D01*
G01X16714828Y8279727D02*
G01X16697810Y8273885D01*
G01X16686380Y8256867D01*
G01X16680538Y8228165D01*
G01X16680538Y8211147D01*
G01X16686380Y8182445D01*
G01X16697810Y8165427D01*
G01X16714828Y8159585D01*
G01X16726258Y8159585D01*
G01X16743530Y8165427D01*
G01X16754960Y8182445D01*
G01X16760548Y8211147D01*
G01X16760548Y8228165D01*
G01X16754960Y8256867D01*
G01X16743530Y8273885D01*
G01X16726258Y8279727D01*
G01X16714828Y8279727D01*
G01X16842590Y8279727D02*
G01X16825572Y8273885D01*
G01X16814142Y8256867D01*
G01X16808300Y8228165D01*
G01X16808300Y8211147D01*
G01X16814142Y8182445D01*
G01X16825572Y8165427D01*
G01X16842590Y8159585D01*
G01X16854020Y8159585D01*
G01X16871292Y8165427D01*
G01X16882722Y8182445D01*
G01X16888310Y8211147D01*
G01X16888310Y8228165D01*
G01X16882722Y8256867D01*
G01X16871292Y8273885D01*
G01X16854020Y8279727D01*
G01X16842590Y8279727D01*
G01X16936062Y8239595D02*
G01X16999054Y8159585D01*
G01X16999054Y8239595D02*
G01X16936062Y8159585D01*
G01X17046806Y8256867D02*
G01X17058236Y8262455D01*
G01X17075508Y8279727D01*
G01X17075508Y8159585D01*
G01X17129102Y8188287D02*
G01X17123260Y8182445D01*
G01X17129102Y8176857D01*
G01X17134690Y8182445D01*
G01X17129102Y8188287D01*
G01X17251022Y8279727D02*
G01X17193872Y8279727D01*
G01X17188284Y8228165D01*
G01X17193872Y8234007D01*
G01X17211144Y8239595D01*
G01X17228162Y8239595D01*
G01X17245434Y8234007D01*
G01X17256864Y8222577D01*
G01X17262452Y8205305D01*
G01X17262452Y8193875D01*
G01X17256864Y8176857D01*
G01X17245434Y8165427D01*
G01X17228162Y8159585D01*
G01X17211144Y8159585D01*
G01X17193872Y8165427D01*
G01X17188284Y8171015D01*
G01X17182442Y8182445D01*
G01X17344494Y8279727D02*
G01X17327476Y8273885D01*
G01X17316046Y8256867D01*
G01X17310204Y8228165D01*
G01X17310204Y8211147D01*
G01X17316046Y8182445D01*
G01X17327476Y8165427D01*
G01X17344494Y8159585D01*
G01X17355924Y8159585D01*
G01X17373196Y8165427D01*
G01X17384626Y8182445D01*
G01X17390214Y8211147D01*
G01X17390214Y8228165D01*
G01X17384626Y8256867D01*
G01X17373196Y8273885D01*
G01X17355924Y8279727D01*
G01X17344494Y8279727D01*
G01X17472256Y8279727D02*
G01X17455238Y8273885D01*
G01X17443808Y8256867D01*
G01X17437966Y8228165D01*
G01X17437966Y8211147D01*
G01X17443808Y8182445D01*
G01X17455238Y8165427D01*
G01X17472256Y8159585D01*
G01X17483686Y8159585D01*
G01X17500958Y8165427D01*
G01X17512388Y8182445D01*
G01X17517976Y8211147D01*
G01X17517976Y8228165D01*
G01X17512388Y8256867D01*
G01X17500958Y8273885D01*
G01X17483686Y8279727D01*
G01X17472256Y8279727D01*
G01X17565728Y8239595D02*
G01X17565728Y8159585D01*
G01X17565728Y8216735D02*
G01X17583000Y8234007D01*
G01X17594430Y8239595D01*
G01X17611448Y8239595D01*
G01X17622878Y8234007D01*
G01X17628720Y8216735D01*
G01X17628720Y8159585D01*
G01X17628720Y8216735D02*
G01X17645738Y8234007D01*
G01X17657168Y8239595D01*
G01X17674440Y8239595D01*
G01X17685870Y8234007D01*
G01X17691458Y8216735D01*
G01X17691458Y8159585D01*
G01X17739210Y8239595D02*
G01X17739210Y8159585D01*
G01X17739210Y8216735D02*
G01X17756482Y8234007D01*
G01X17767912Y8239595D01*
G01X17784930Y8239595D01*
G01X17796360Y8234007D01*
G01X17802202Y8216735D01*
G01X17802202Y8159585D01*
G01X17802202Y8216735D02*
G01X17819220Y8234007D01*
G01X17830650Y8239595D01*
G01X17847922Y8239595D01*
G01X17859352Y8234007D01*
G01X17864940Y8216735D01*
G01X17864940Y8159585D01*
G01X17912692Y8302587D02*
G01X17924122Y8291157D01*
G01X17935552Y8273885D01*
G01X17946982Y8251025D01*
G01X17952824Y8222577D01*
G01X17952824Y8199717D01*
G01X17946982Y8171015D01*
G01X17935552Y8148155D01*
G01X17924122Y8131137D01*
G01X17912692Y8119707D01*
G01X18958301Y8279727D02*
G01X18958301Y8159585D01*
G01X18958301Y8279727D02*
G01X19009863Y8279727D01*
G01X19026881Y8273885D01*
G01X19032723Y8268297D01*
G01X19038311Y8256867D01*
G01X19038311Y8239595D01*
G01X19032723Y8228165D01*
G01X19026881Y8222577D01*
G01X19009863Y8216735D01*
G01X18958301Y8216735D01*
G01X19126195Y8279727D02*
G01X19126195Y8159585D01*
G01X19086063Y8279727D02*
G01X19166073Y8279727D01*
G01X19213825Y8279727D02*
G01X19213825Y8159585D01*
G01X19293835Y8279727D02*
G01X19293835Y8159585D01*
G01X19213825Y8222577D02*
G01X19293835Y8222577D01*
G01X20419708Y8279727D02*
G01X20419708Y8159585D01*
G01X20419708Y8279727D02*
G01X20471270Y8279727D01*
G01X20488288Y8273885D01*
G01X20494130Y8268297D01*
G01X20499718Y8256867D01*
G01X20499718Y8245437D01*
G01X20494130Y8234007D01*
G01X20488288Y8228165D01*
G01X20471270Y8222577D01*
G01X20419708Y8222577D01*
G01X20459840Y8222577D02*
G01X20499718Y8159585D01*
G01X20576172Y8239595D02*
G01X20564742Y8234007D01*
G01X20553312Y8222577D01*
G01X20547470Y8205305D01*
G01X20547470Y8193875D01*
G01X20553312Y8176857D01*
G01X20564742Y8165427D01*
G01X20576172Y8159585D01*
G01X20593190Y8159585D01*
G01X20604620Y8165427D01*
G01X20616050Y8176857D01*
G01X20621892Y8193875D01*
G01X20621892Y8205305D01*
G01X20616050Y8222577D01*
G01X20604620Y8234007D01*
G01X20593190Y8239595D01*
G01X20576172Y8239595D01*
G01X20669644Y8239595D02*
G01X20669644Y8182445D01*
G01X20675486Y8165427D01*
G01X20686916Y8159585D01*
G01X20703934Y8159585D01*
G01X20715364Y8165427D01*
G01X20732636Y8182445D01*
G01X20732636Y8239595D02*
G01X20732636Y8159585D01*
G01X20780388Y8239595D02*
G01X20780388Y8159585D01*
G01X20780388Y8216735D02*
G01X20797660Y8234007D01*
G01X20809090Y8239595D01*
G01X20826108Y8239595D01*
G01X20837538Y8234007D01*
G01X20843380Y8216735D01*
G01X20843380Y8159585D01*
G01X20959712Y8279727D02*
G01X20959712Y8159585D01*
G01X20959712Y8222577D02*
G01X20948282Y8234007D01*
G01X20936852Y8239595D01*
G01X20919834Y8239595D01*
G01X20908404Y8234007D01*
G01X20896974Y8222577D01*
G01X20891132Y8205305D01*
G01X20891132Y8193875D01*
G01X20896974Y8176857D01*
G01X20908404Y8165427D01*
G01X20919834Y8159585D01*
G01X20936852Y8159585D01*
G01X20948282Y8165427D01*
G01X20959712Y8176857D01*
G01X21850889Y8279727D02*
G01X21850889Y8159585D01*
G01X21850889Y8279727D02*
G01X21902451Y8279727D01*
G01X21919469Y8273885D01*
G01X21925311Y8268297D01*
G01X21930899Y8256867D01*
G01X21930899Y8239595D01*
G01X21925311Y8228165D01*
G01X21919469Y8222577D01*
G01X21902451Y8216735D01*
G01X21850889Y8216735D01*
G01X22047231Y8239595D02*
G01X22047231Y8159585D01*
G01X22047231Y8222577D02*
G01X22035801Y8234007D01*
G01X22024371Y8239595D01*
G01X22007353Y8239595D01*
G01X21995923Y8234007D01*
G01X21984493Y8222577D01*
G01X21978651Y8205305D01*
G01X21978651Y8193875D01*
G01X21984493Y8176857D01*
G01X21995923Y8165427D01*
G01X22007353Y8159585D01*
G01X22024371Y8159585D01*
G01X22035801Y8165427D01*
G01X22047231Y8176857D01*
G01X22163563Y8279727D02*
G01X22163563Y8159585D01*
G01X22163563Y8222577D02*
G01X22152133Y8234007D01*
G01X22140703Y8239595D01*
G01X22123685Y8239595D01*
G01X22112255Y8234007D01*
G01X22100825Y8222577D01*
G01X22094983Y8205305D01*
G01X22094983Y8193875D01*
G01X22100825Y8176857D01*
G01X22112255Y8165427D01*
G01X22123685Y8159585D01*
G01X22140703Y8159585D01*
G01X22152133Y8165427D01*
G01X22163563Y8176857D01*
G01X23520068Y8279727D02*
G01X23520068Y8159585D01*
G01X23520068Y8279727D02*
G01X23571630Y8279727D01*
G01X23588648Y8273885D01*
G01X23594490Y8268297D01*
G01X23600078Y8256867D01*
G01X23600078Y8245437D01*
G01X23594490Y8234007D01*
G01X23588648Y8228165D01*
G01X23571630Y8222577D01*
G01X23520068Y8222577D01*
G01X23560200Y8222577D02*
G01X23600078Y8159585D01*
G01X23676532Y8239595D02*
G01X23665102Y8234007D01*
G01X23653672Y8222577D01*
G01X23647830Y8205305D01*
G01X23647830Y8193875D01*
G01X23653672Y8176857D01*
G01X23665102Y8165427D01*
G01X23676532Y8159585D01*
G01X23693550Y8159585D01*
G01X23704980Y8165427D01*
G01X23716410Y8176857D01*
G01X23722252Y8193875D01*
G01X23722252Y8205305D01*
G01X23716410Y8222577D01*
G01X23704980Y8234007D01*
G01X23693550Y8239595D01*
G01X23676532Y8239595D01*
G01X23770004Y8239595D02*
G01X23770004Y8182445D01*
G01X23775846Y8165427D01*
G01X23787276Y8159585D01*
G01X23804294Y8159585D01*
G01X23815724Y8165427D01*
G01X23832996Y8182445D01*
G01X23832996Y8239595D02*
G01X23832996Y8159585D01*
G01X23880748Y8239595D02*
G01X23880748Y8159585D01*
G01X23880748Y8216735D02*
G01X23898020Y8234007D01*
G01X23909450Y8239595D01*
G01X23926468Y8239595D01*
G01X23937898Y8234007D01*
G01X23943740Y8216735D01*
G01X23943740Y8159585D01*
G01X24060072Y8279727D02*
G01X24060072Y8159585D01*
G01X24060072Y8222577D02*
G01X24048642Y8234007D01*
G01X24037212Y8239595D01*
G01X24020194Y8239595D01*
G01X24008764Y8234007D01*
G01X23997334Y8222577D01*
G01X23991492Y8205305D01*
G01X23991492Y8193875D01*
G01X23997334Y8176857D01*
G01X24008764Y8165427D01*
G01X24020194Y8159585D01*
G01X24037212Y8159585D01*
G01X24048642Y8165427D01*
G01X24060072Y8176857D01*
G01X25479570Y8279727D02*
G01X25479570Y8159585D01*
G01X25439438Y8279727D02*
G01X25519448Y8279727D01*
G01X25595902Y8239595D02*
G01X25584472Y8234007D01*
G01X25573042Y8222577D01*
G01X25567200Y8205305D01*
G01X25567200Y8193875D01*
G01X25573042Y8176857D01*
G01X25584472Y8165427D01*
G01X25595902Y8159585D01*
G01X25612920Y8159585D01*
G01X25624350Y8165427D01*
G01X25635780Y8176857D01*
G01X25641622Y8193875D01*
G01X25641622Y8205305D01*
G01X25635780Y8222577D01*
G01X25624350Y8234007D01*
G01X25612920Y8239595D01*
G01X25595902Y8239595D01*
G01X25689374Y8239595D02*
G01X25689374Y8119707D01*
G01X25689374Y8222577D02*
G01X25700804Y8234007D01*
G01X25712234Y8239595D01*
G01X25729506Y8239595D01*
G01X25740936Y8234007D01*
G01X25752366Y8222577D01*
G01X25757954Y8205305D01*
G01X25757954Y8193875D01*
G01X25752366Y8176857D01*
G01X25740936Y8165427D01*
G01X25729506Y8159585D01*
G01X25712234Y8159585D01*
G01X25700804Y8165427D01*
G01X25689374Y8176857D01*
G01X25933722Y8279727D02*
G01X25933722Y8159585D01*
G01X25933722Y8159585D02*
G01X26002302Y8159585D01*
G01X26118634Y8239595D02*
G01X26118634Y8159585D01*
G01X26118634Y8222577D02*
G01X26107204Y8234007D01*
G01X26095774Y8239595D01*
G01X26078756Y8239595D01*
G01X26067326Y8234007D01*
G01X26055896Y8222577D01*
G01X26050054Y8205305D01*
G01X26050054Y8193875D01*
G01X26055896Y8176857D01*
G01X26067326Y8165427D01*
G01X26078756Y8159585D01*
G01X26095774Y8159585D01*
G01X26107204Y8165427D01*
G01X26118634Y8176857D01*
G01X26172228Y8239595D02*
G01X26206518Y8159585D01*
G01X26240808Y8239595D02*
G01X26206518Y8159585D01*
G01X26195088Y8136725D01*
G01X26183658Y8125295D01*
G01X26172228Y8119707D01*
G01X26166386Y8119707D01*
G01X26288560Y8205305D02*
G01X26357140Y8205305D01*
G01X26357140Y8216735D01*
G01X26351552Y8228165D01*
G01X26345710Y8234007D01*
G01X26334280Y8239595D01*
G01X26317262Y8239595D01*
G01X26305832Y8234007D01*
G01X26294402Y8222577D01*
G01X26288560Y8205305D01*
G01X26288560Y8193875D01*
G01X26294402Y8176857D01*
G01X26305832Y8165427D01*
G01X26317262Y8159585D01*
G01X26334280Y8159585D01*
G01X26345710Y8165427D01*
G01X26357140Y8176857D01*
G01X26404892Y8239595D02*
G01X26404892Y8159585D01*
G01X26404892Y8205305D02*
G01X26410734Y8222577D01*
G01X26422164Y8234007D01*
G01X26433594Y8239595D01*
G01X26450612Y8239595D01*
G01X26498364Y8211147D02*
G01X26601234Y8211147D01*
G01X26648986Y8279727D02*
G01X26648986Y8159585D01*
G01X26648986Y8279727D02*
G01X26700548Y8279727D01*
G01X26717566Y8273885D01*
G01X26723408Y8268297D01*
G01X26728996Y8256867D01*
G01X26728996Y8245437D01*
G01X26723408Y8234007D01*
G01X26717566Y8228165D01*
G01X26700548Y8222577D01*
G01X26648986Y8222577D02*
G01X26700548Y8222577D01*
G01X26717566Y8216735D01*
G01X26723408Y8211147D01*
G01X26728996Y8199717D01*
G01X26728996Y8182445D01*
G01X26723408Y8171015D01*
G01X26717566Y8165427D01*
G01X26700548Y8159585D01*
G01X26648986Y8159585D01*
G01X26805450Y8239595D02*
G01X26794020Y8234007D01*
G01X26782590Y8222577D01*
G01X26776748Y8205305D01*
G01X26776748Y8193875D01*
G01X26782590Y8176857D01*
G01X26794020Y8165427D01*
G01X26805450Y8159585D01*
G01X26822468Y8159585D01*
G01X26833898Y8165427D01*
G01X26845328Y8176857D01*
G01X26851170Y8193875D01*
G01X26851170Y8205305D01*
G01X26845328Y8222577D01*
G01X26833898Y8234007D01*
G01X26822468Y8239595D01*
G01X26805450Y8239595D01*
G01X26916194Y8279727D02*
G01X26916194Y8182445D01*
G01X26921782Y8165427D01*
G01X26933212Y8159585D01*
G01X26944642Y8159585D01*
G01X26898922Y8239595D02*
G01X26939054Y8239595D01*
G01X27009666Y8279727D02*
G01X27009666Y8182445D01*
G01X27015254Y8165427D01*
G01X27026684Y8159585D01*
G01X27038114Y8159585D01*
G01X26992394Y8239595D02*
G01X27032526Y8239595D01*
G01X27114568Y8239595D02*
G01X27103138Y8234007D01*
G01X27091708Y8222577D01*
G01X27085866Y8205305D01*
G01X27085866Y8193875D01*
G01X27091708Y8176857D01*
G01X27103138Y8165427D01*
G01X27114568Y8159585D01*
G01X27131586Y8159585D01*
G01X27143016Y8165427D01*
G01X27154446Y8176857D01*
G01X27160288Y8193875D01*
G01X27160288Y8205305D01*
G01X27154446Y8222577D01*
G01X27143016Y8234007D01*
G01X27131586Y8239595D01*
G01X27114568Y8239595D01*
G01X27208040Y8239595D02*
G01X27208040Y8159585D01*
G01X27208040Y8216735D02*
G01X27225312Y8234007D01*
G01X27236742Y8239595D01*
G01X27253760Y8239595D01*
G01X27265190Y8234007D01*
G01X27271032Y8216735D01*
G01X27271032Y8159585D01*
G01X27271032Y8216735D02*
G01X27288050Y8234007D01*
G01X27299480Y8239595D01*
G01X27316752Y8239595D01*
G01X27328182Y8234007D01*
G01X27333770Y8216735D01*
G01X27333770Y8159585D01*
G01X27509538Y8279727D02*
G01X27509538Y8159585D01*
G01X27509538Y8159585D02*
G01X27578118Y8159585D01*
G01X27694450Y8239595D02*
G01X27694450Y8159585D01*
G01X27694450Y8222577D02*
G01X27683020Y8234007D01*
G01X27671590Y8239595D01*
G01X27654572Y8239595D01*
G01X27643142Y8234007D01*
G01X27631712Y8222577D01*
G01X27625870Y8205305D01*
G01X27625870Y8193875D01*
G01X27631712Y8176857D01*
G01X27643142Y8165427D01*
G01X27654572Y8159585D01*
G01X27671590Y8159585D01*
G01X27683020Y8165427D01*
G01X27694450Y8176857D01*
G01X27748044Y8239595D02*
G01X27782334Y8159585D01*
G01X27816624Y8239595D02*
G01X27782334Y8159585D01*
G01X27770904Y8136725D01*
G01X27759474Y8125295D01*
G01X27748044Y8119707D01*
G01X27742202Y8119707D01*
G01X27864376Y8205305D02*
G01X27932956Y8205305D01*
G01X27932956Y8216735D01*
G01X27927368Y8228165D01*
G01X27921526Y8234007D01*
G01X27910096Y8239595D01*
G01X27893078Y8239595D01*
G01X27881648Y8234007D01*
G01X27870218Y8222577D01*
G01X27864376Y8205305D01*
G01X27864376Y8193875D01*
G01X27870218Y8176857D01*
G01X27881648Y8165427D01*
G01X27893078Y8159585D01*
G01X27910096Y8159585D01*
G01X27921526Y8165427D01*
G01X27932956Y8176857D01*
G01X27980708Y8239595D02*
G01X27980708Y8159585D01*
G01X27980708Y8205305D02*
G01X27986550Y8222577D01*
G01X27997980Y8234007D01*
G01X28009410Y8239595D01*
G01X28026428Y8239595D01*
G01X13752789Y7676295D02*
G01X13764219Y7681883D01*
G01X13781491Y7699155D01*
G01X13781491Y7579013D01*
G01X13835085Y7670453D02*
G01X13835085Y7676295D01*
G01X13840673Y7687725D01*
G01X13846515Y7693313D01*
G01X13857945Y7699155D01*
G01X13880805Y7699155D01*
G01X13892235Y7693313D01*
G01X13897823Y7687725D01*
G01X13903665Y7676295D01*
G01X13903665Y7664865D01*
G01X13897823Y7653435D01*
G01X13886393Y7636163D01*
G01X13829243Y7579013D01*
G01X13909253Y7579013D01*
G01X15224102Y7699155D02*
G01X15166952Y7619145D01*
G01X15252804Y7619145D01*
G01X15224102Y7699155D02*
G01X15224102Y7579013D01*
G01X15311986Y7699155D02*
G01X15374978Y7699155D01*
G01X15340688Y7653435D01*
G01X15357706Y7653435D01*
G01X15369136Y7647593D01*
G01X15374978Y7642005D01*
G01X15380566Y7624733D01*
G01X15380566Y7613303D01*
G01X15374978Y7596285D01*
G01X15363548Y7584855D01*
G01X15346276Y7579013D01*
G01X15329258Y7579013D01*
G01X15311986Y7584855D01*
G01X15306398Y7590443D01*
G01X15300556Y7601873D01*
G01X15434160Y7607715D02*
G01X15428318Y7601873D01*
G01X15434160Y7596285D01*
G01X15439748Y7601873D01*
G01X15434160Y7607715D01*
G01X15498930Y7699155D02*
G01X15561922Y7699155D01*
G01X15527632Y7653435D01*
G01X15544650Y7653435D01*
G01X15556080Y7647593D01*
G01X15561922Y7642005D01*
G01X15567510Y7624733D01*
G01X15567510Y7613303D01*
G01X15561922Y7596285D01*
G01X15550492Y7584855D01*
G01X15533220Y7579013D01*
G01X15516202Y7579013D01*
G01X15498930Y7584855D01*
G01X15493342Y7590443D01*
G01X15487500Y7601873D01*
G01X15615262Y7659023D02*
G01X15678254Y7579013D01*
G01X15678254Y7659023D02*
G01X15615262Y7579013D01*
G01X15783156Y7699155D02*
G01X15726006Y7619145D01*
G01X15811858Y7619145D01*
G01X15783156Y7699155D02*
G01X15783156Y7579013D01*
G01X15871040Y7699155D02*
G01X15934032Y7699155D01*
G01X15899742Y7653435D01*
G01X15916760Y7653435D01*
G01X15928190Y7647593D01*
G01X15934032Y7642005D01*
G01X15939620Y7624733D01*
G01X15939620Y7613303D01*
G01X15934032Y7596285D01*
G01X15922602Y7584855D01*
G01X15905330Y7579013D01*
G01X15888312Y7579013D01*
G01X15871040Y7584855D01*
G01X15865452Y7590443D01*
G01X15859610Y7601873D01*
G01X15993214Y7607715D02*
G01X15987372Y7601873D01*
G01X15993214Y7596285D01*
G01X15998802Y7601873D01*
G01X15993214Y7607715D01*
G01X16057984Y7699155D02*
G01X16120976Y7699155D01*
G01X16086686Y7653435D01*
G01X16103704Y7653435D01*
G01X16115134Y7647593D01*
G01X16120976Y7642005D01*
G01X16126564Y7624733D01*
G01X16126564Y7613303D01*
G01X16120976Y7596285D01*
G01X16109546Y7584855D01*
G01X16092274Y7579013D01*
G01X16075256Y7579013D01*
G01X16057984Y7584855D01*
G01X16052396Y7590443D01*
G01X16046554Y7601873D01*
G01X16174316Y7659023D02*
G01X16174316Y7579013D01*
G01X16174316Y7636163D02*
G01X16191588Y7653435D01*
G01X16203018Y7659023D01*
G01X16220036Y7659023D01*
G01X16231466Y7653435D01*
G01X16237308Y7636163D01*
G01X16237308Y7579013D01*
G01X16237308Y7636163D02*
G01X16254326Y7653435D01*
G01X16265756Y7659023D01*
G01X16283028Y7659023D01*
G01X16294458Y7653435D01*
G01X16300046Y7636163D01*
G01X16300046Y7579013D01*
G01X16347798Y7699155D02*
G01X16353640Y7693313D01*
G01X16359228Y7699155D01*
G01X16353640Y7704743D01*
G01X16347798Y7699155D01*
G01X16353640Y7659023D02*
G01X16353640Y7579013D01*
G01X16406980Y7699155D02*
G01X16406980Y7579013D01*
G01X16494864Y7722015D02*
G01X16483434Y7710585D01*
G01X16472004Y7693313D01*
G01X16460574Y7670453D01*
G01X16454732Y7642005D01*
G01X16454732Y7619145D01*
G01X16460574Y7590443D01*
G01X16472004Y7567583D01*
G01X16483434Y7550565D01*
G01X16494864Y7539135D01*
G01X16542616Y7676295D02*
G01X16554046Y7681883D01*
G01X16571318Y7699155D01*
G01X16571318Y7579013D01*
G01X16624912Y7607715D02*
G01X16619070Y7601873D01*
G01X16624912Y7596285D01*
G01X16630500Y7601873D01*
G01X16624912Y7607715D01*
G01X16678252Y7676295D02*
G01X16689682Y7681883D01*
G01X16706954Y7699155D01*
G01X16706954Y7579013D01*
G01X16788996Y7699155D02*
G01X16771978Y7693313D01*
G01X16760548Y7676295D01*
G01X16754706Y7647593D01*
G01X16754706Y7630575D01*
G01X16760548Y7601873D01*
G01X16771978Y7584855D01*
G01X16788996Y7579013D01*
G01X16800426Y7579013D01*
G01X16817698Y7584855D01*
G01X16829128Y7601873D01*
G01X16834716Y7630575D01*
G01X16834716Y7647593D01*
G01X16829128Y7676295D01*
G01X16817698Y7693313D01*
G01X16800426Y7699155D01*
G01X16788996Y7699155D01*
G01X16916758Y7699155D02*
G01X16899740Y7693313D01*
G01X16888310Y7676295D01*
G01X16882468Y7647593D01*
G01X16882468Y7630575D01*
G01X16888310Y7601873D01*
G01X16899740Y7584855D01*
G01X16916758Y7579013D01*
G01X16928188Y7579013D01*
G01X16945460Y7584855D01*
G01X16956890Y7601873D01*
G01X16962478Y7630575D01*
G01X16962478Y7647593D01*
G01X16956890Y7676295D01*
G01X16945460Y7693313D01*
G01X16928188Y7699155D01*
G01X16916758Y7699155D01*
G01X17010230Y7659023D02*
G01X17073222Y7579013D01*
G01X17073222Y7659023D02*
G01X17010230Y7579013D01*
G01X17120974Y7676295D02*
G01X17132404Y7681883D01*
G01X17149676Y7699155D01*
G01X17149676Y7579013D01*
G01X17203270Y7607715D02*
G01X17197428Y7601873D01*
G01X17203270Y7596285D01*
G01X17208858Y7601873D01*
G01X17203270Y7607715D01*
G01X17256610Y7676295D02*
G01X17268040Y7681883D01*
G01X17285312Y7699155D01*
G01X17285312Y7579013D01*
G01X17367354Y7699155D02*
G01X17350336Y7693313D01*
G01X17338906Y7676295D01*
G01X17333064Y7647593D01*
G01X17333064Y7630575D01*
G01X17338906Y7601873D01*
G01X17350336Y7584855D01*
G01X17367354Y7579013D01*
G01X17378784Y7579013D01*
G01X17396056Y7584855D01*
G01X17407486Y7601873D01*
G01X17413074Y7630575D01*
G01X17413074Y7647593D01*
G01X17407486Y7676295D01*
G01X17396056Y7693313D01*
G01X17378784Y7699155D01*
G01X17367354Y7699155D01*
G01X17495116Y7699155D02*
G01X17478098Y7693313D01*
G01X17466668Y7676295D01*
G01X17460826Y7647593D01*
G01X17460826Y7630575D01*
G01X17466668Y7601873D01*
G01X17478098Y7584855D01*
G01X17495116Y7579013D01*
G01X17506546Y7579013D01*
G01X17523818Y7584855D01*
G01X17535248Y7601873D01*
G01X17540836Y7630575D01*
G01X17540836Y7647593D01*
G01X17535248Y7676295D01*
G01X17523818Y7693313D01*
G01X17506546Y7699155D01*
G01X17495116Y7699155D01*
G01X17588588Y7659023D02*
G01X17588588Y7579013D01*
G01X17588588Y7636163D02*
G01X17605860Y7653435D01*
G01X17617290Y7659023D01*
G01X17634308Y7659023D01*
G01X17645738Y7653435D01*
G01X17651580Y7636163D01*
G01X17651580Y7579013D01*
G01X17651580Y7636163D02*
G01X17668598Y7653435D01*
G01X17680028Y7659023D01*
G01X17697300Y7659023D01*
G01X17708730Y7653435D01*
G01X17714318Y7636163D01*
G01X17714318Y7579013D01*
G01X17762070Y7659023D02*
G01X17762070Y7579013D01*
G01X17762070Y7636163D02*
G01X17779342Y7653435D01*
G01X17790772Y7659023D01*
G01X17807790Y7659023D01*
G01X17819220Y7653435D01*
G01X17825062Y7636163D01*
G01X17825062Y7579013D01*
G01X17825062Y7636163D02*
G01X17842080Y7653435D01*
G01X17853510Y7659023D01*
G01X17870782Y7659023D01*
G01X17882212Y7653435D01*
G01X17887800Y7636163D01*
G01X17887800Y7579013D01*
G01X17935552Y7722015D02*
G01X17946982Y7710585D01*
G01X17958412Y7693313D01*
G01X17969842Y7670453D01*
G01X17975684Y7642005D01*
G01X17975684Y7619145D01*
G01X17969842Y7590443D01*
G01X17958412Y7567583D01*
G01X17946982Y7550565D01*
G01X17935552Y7539135D01*
G01X18958301Y7699155D02*
G01X18958301Y7579013D01*
G01X18958301Y7699155D02*
G01X19009863Y7699155D01*
G01X19026881Y7693313D01*
G01X19032723Y7687725D01*
G01X19038311Y7676295D01*
G01X19038311Y7659023D01*
G01X19032723Y7647593D01*
G01X19026881Y7642005D01*
G01X19009863Y7636163D01*
G01X18958301Y7636163D01*
G01X19126195Y7699155D02*
G01X19126195Y7579013D01*
G01X19086063Y7699155D02*
G01X19166073Y7699155D01*
G01X19213825Y7699155D02*
G01X19213825Y7579013D01*
G01X19293835Y7699155D02*
G01X19293835Y7579013D01*
G01X19213825Y7642005D02*
G01X19293835Y7642005D01*
G01X20419708Y7699155D02*
G01X20419708Y7579013D01*
G01X20419708Y7699155D02*
G01X20471270Y7699155D01*
G01X20488288Y7693313D01*
G01X20494130Y7687725D01*
G01X20499718Y7676295D01*
G01X20499718Y7664865D01*
G01X20494130Y7653435D01*
G01X20488288Y7647593D01*
G01X20471270Y7642005D01*
G01X20419708Y7642005D01*
G01X20459840Y7642005D02*
G01X20499718Y7579013D01*
G01X20576172Y7659023D02*
G01X20564742Y7653435D01*
G01X20553312Y7642005D01*
G01X20547470Y7624733D01*
G01X20547470Y7613303D01*
G01X20553312Y7596285D01*
G01X20564742Y7584855D01*
G01X20576172Y7579013D01*
G01X20593190Y7579013D01*
G01X20604620Y7584855D01*
G01X20616050Y7596285D01*
G01X20621892Y7613303D01*
G01X20621892Y7624733D01*
G01X20616050Y7642005D01*
G01X20604620Y7653435D01*
G01X20593190Y7659023D01*
G01X20576172Y7659023D01*
G01X20669644Y7659023D02*
G01X20669644Y7601873D01*
G01X20675486Y7584855D01*
G01X20686916Y7579013D01*
G01X20703934Y7579013D01*
G01X20715364Y7584855D01*
G01X20732636Y7601873D01*
G01X20732636Y7659023D02*
G01X20732636Y7579013D01*
G01X20780388Y7659023D02*
G01X20780388Y7579013D01*
G01X20780388Y7636163D02*
G01X20797660Y7653435D01*
G01X20809090Y7659023D01*
G01X20826108Y7659023D01*
G01X20837538Y7653435D01*
G01X20843380Y7636163D01*
G01X20843380Y7579013D01*
G01X20959712Y7699155D02*
G01X20959712Y7579013D01*
G01X20959712Y7642005D02*
G01X20948282Y7653435D01*
G01X20936852Y7659023D01*
G01X20919834Y7659023D01*
G01X20908404Y7653435D01*
G01X20896974Y7642005D01*
G01X20891132Y7624733D01*
G01X20891132Y7613303D01*
G01X20896974Y7596285D01*
G01X20908404Y7584855D01*
G01X20919834Y7579013D01*
G01X20936852Y7579013D01*
G01X20948282Y7584855D01*
G01X20959712Y7596285D01*
G01X21850889Y7699155D02*
G01X21850889Y7579013D01*
G01X21850889Y7699155D02*
G01X21902451Y7699155D01*
G01X21919469Y7693313D01*
G01X21925311Y7687725D01*
G01X21930899Y7676295D01*
G01X21930899Y7659023D01*
G01X21925311Y7647593D01*
G01X21919469Y7642005D01*
G01X21902451Y7636163D01*
G01X21850889Y7636163D01*
G01X22047231Y7659023D02*
G01X22047231Y7579013D01*
G01X22047231Y7642005D02*
G01X22035801Y7653435D01*
G01X22024371Y7659023D01*
G01X22007353Y7659023D01*
G01X21995923Y7653435D01*
G01X21984493Y7642005D01*
G01X21978651Y7624733D01*
G01X21978651Y7613303D01*
G01X21984493Y7596285D01*
G01X21995923Y7584855D01*
G01X22007353Y7579013D01*
G01X22024371Y7579013D01*
G01X22035801Y7584855D01*
G01X22047231Y7596285D01*
G01X22163563Y7699155D02*
G01X22163563Y7579013D01*
G01X22163563Y7642005D02*
G01X22152133Y7653435D01*
G01X22140703Y7659023D01*
G01X22123685Y7659023D01*
G01X22112255Y7653435D01*
G01X22100825Y7642005D01*
G01X22094983Y7624733D01*
G01X22094983Y7613303D01*
G01X22100825Y7596285D01*
G01X22112255Y7584855D01*
G01X22123685Y7579013D01*
G01X22140703Y7579013D01*
G01X22152133Y7584855D01*
G01X22163563Y7596285D01*
G01X23560200Y7722015D02*
G01X23548770Y7710585D01*
G01X23537340Y7693313D01*
G01X23525910Y7670453D01*
G01X23520068Y7642005D01*
G01X23520068Y7619145D01*
G01X23525910Y7590443D01*
G01X23537340Y7567583D01*
G01X23548770Y7550565D01*
G01X23560200Y7539135D01*
G01X23607952Y7699155D02*
G01X23607952Y7579013D01*
G01X23607952Y7699155D02*
G01X23653672Y7579013D01*
G01X23699392Y7699155D02*
G01X23653672Y7579013D01*
G01X23699392Y7699155D02*
G01X23699392Y7579013D01*
G01X23747144Y7699155D02*
G01X23752986Y7693313D01*
G01X23758574Y7699155D01*
G01X23752986Y7704743D01*
G01X23747144Y7699155D01*
G01X23752986Y7659023D02*
G01X23752986Y7579013D01*
G01X23806326Y7659023D02*
G01X23869318Y7579013D01*
G01X23869318Y7659023D02*
G01X23806326Y7579013D01*
G01X23917070Y7624733D02*
G01X23985650Y7624733D01*
G01X23985650Y7636163D01*
G01X23980062Y7647593D01*
G01X23974220Y7653435D01*
G01X23962790Y7659023D01*
G01X23945772Y7659023D01*
G01X23934342Y7653435D01*
G01X23922912Y7642005D01*
G01X23917070Y7624733D01*
G01X23917070Y7613303D01*
G01X23922912Y7596285D01*
G01X23934342Y7584855D01*
G01X23945772Y7579013D01*
G01X23962790Y7579013D01*
G01X23974220Y7584855D01*
G01X23985650Y7596285D01*
G01X24101982Y7699155D02*
G01X24101982Y7579013D01*
G01X24101982Y7642005D02*
G01X24090552Y7653435D01*
G01X24079122Y7659023D01*
G01X24062104Y7659023D01*
G01X24050674Y7653435D01*
G01X24039244Y7642005D01*
G01X24033402Y7624733D01*
G01X24033402Y7613303D01*
G01X24039244Y7596285D01*
G01X24050674Y7584855D01*
G01X24062104Y7579013D01*
G01X24079122Y7579013D01*
G01X24090552Y7584855D01*
G01X24101982Y7596285D01*
G01X24149734Y7722015D02*
G01X24161164Y7710585D01*
G01X24172594Y7693313D01*
G01X24184024Y7670453D01*
G01X24189866Y7642005D01*
G01X24189866Y7619145D01*
G01X24184024Y7590443D01*
G01X24172594Y7567583D01*
G01X24161164Y7550565D01*
G01X24149734Y7539135D01*
G01X25479570Y7699155D02*
G01X25479570Y7579013D01*
G01X25439438Y7699155D02*
G01X25519448Y7699155D01*
G01X25595902Y7659023D02*
G01X25584472Y7653435D01*
G01X25573042Y7642005D01*
G01X25567200Y7624733D01*
G01X25567200Y7613303D01*
G01X25573042Y7596285D01*
G01X25584472Y7584855D01*
G01X25595902Y7579013D01*
G01X25612920Y7579013D01*
G01X25624350Y7584855D01*
G01X25635780Y7596285D01*
G01X25641622Y7613303D01*
G01X25641622Y7624733D01*
G01X25635780Y7642005D01*
G01X25624350Y7653435D01*
G01X25612920Y7659023D01*
G01X25595902Y7659023D01*
G01X25689374Y7659023D02*
G01X25689374Y7539135D01*
G01X25689374Y7642005D02*
G01X25700804Y7653435D01*
G01X25712234Y7659023D01*
G01X25729506Y7659023D01*
G01X25740936Y7653435D01*
G01X25752366Y7642005D01*
G01X25757954Y7624733D01*
G01X25757954Y7613303D01*
G01X25752366Y7596285D01*
G01X25740936Y7584855D01*
G01X25729506Y7579013D01*
G01X25712234Y7579013D01*
G01X25700804Y7584855D01*
G01X25689374Y7596285D01*
G01X25933722Y7699155D02*
G01X25933722Y7579013D01*
G01X25933722Y7579013D02*
G01X26002302Y7579013D01*
G01X26118634Y7659023D02*
G01X26118634Y7579013D01*
G01X26118634Y7642005D02*
G01X26107204Y7653435D01*
G01X26095774Y7659023D01*
G01X26078756Y7659023D01*
G01X26067326Y7653435D01*
G01X26055896Y7642005D01*
G01X26050054Y7624733D01*
G01X26050054Y7613303D01*
G01X26055896Y7596285D01*
G01X26067326Y7584855D01*
G01X26078756Y7579013D01*
G01X26095774Y7579013D01*
G01X26107204Y7584855D01*
G01X26118634Y7596285D01*
G01X26172228Y7659023D02*
G01X26206518Y7579013D01*
G01X26240808Y7659023D02*
G01X26206518Y7579013D01*
G01X26195088Y7556153D01*
G01X26183658Y7544723D01*
G01X26172228Y7539135D01*
G01X26166386Y7539135D01*
G01X26288560Y7624733D02*
G01X26357140Y7624733D01*
G01X26357140Y7636163D01*
G01X26351552Y7647593D01*
G01X26345710Y7653435D01*
G01X26334280Y7659023D01*
G01X26317262Y7659023D01*
G01X26305832Y7653435D01*
G01X26294402Y7642005D01*
G01X26288560Y7624733D01*
G01X26288560Y7613303D01*
G01X26294402Y7596285D01*
G01X26305832Y7584855D01*
G01X26317262Y7579013D01*
G01X26334280Y7579013D01*
G01X26345710Y7584855D01*
G01X26357140Y7596285D01*
G01X26404892Y7659023D02*
G01X26404892Y7579013D01*
G01X26404892Y7624733D02*
G01X26410734Y7642005D01*
G01X26422164Y7653435D01*
G01X26433594Y7659023D01*
G01X26450612Y7659023D01*
G01X26498364Y7630575D02*
G01X26601234Y7630575D01*
G01X26648986Y7699155D02*
G01X26648986Y7579013D01*
G01X26648986Y7699155D02*
G01X26700548Y7699155D01*
G01X26717566Y7693313D01*
G01X26723408Y7687725D01*
G01X26728996Y7676295D01*
G01X26728996Y7664865D01*
G01X26723408Y7653435D01*
G01X26717566Y7647593D01*
G01X26700548Y7642005D01*
G01X26648986Y7642005D02*
G01X26700548Y7642005D01*
G01X26717566Y7636163D01*
G01X26723408Y7630575D01*
G01X26728996Y7619145D01*
G01X26728996Y7601873D01*
G01X26723408Y7590443D01*
G01X26717566Y7584855D01*
G01X26700548Y7579013D01*
G01X26648986Y7579013D01*
G01X26805450Y7659023D02*
G01X26794020Y7653435D01*
G01X26782590Y7642005D01*
G01X26776748Y7624733D01*
G01X26776748Y7613303D01*
G01X26782590Y7596285D01*
G01X26794020Y7584855D01*
G01X26805450Y7579013D01*
G01X26822468Y7579013D01*
G01X26833898Y7584855D01*
G01X26845328Y7596285D01*
G01X26851170Y7613303D01*
G01X26851170Y7624733D01*
G01X26845328Y7642005D01*
G01X26833898Y7653435D01*
G01X26822468Y7659023D01*
G01X26805450Y7659023D01*
G01X26916194Y7699155D02*
G01X26916194Y7601873D01*
G01X26921782Y7584855D01*
G01X26933212Y7579013D01*
G01X26944642Y7579013D01*
G01X26898922Y7659023D02*
G01X26939054Y7659023D01*
G01X27009666Y7699155D02*
G01X27009666Y7601873D01*
G01X27015254Y7584855D01*
G01X27026684Y7579013D01*
G01X27038114Y7579013D01*
G01X26992394Y7659023D02*
G01X27032526Y7659023D01*
G01X27114568Y7659023D02*
G01X27103138Y7653435D01*
G01X27091708Y7642005D01*
G01X27085866Y7624733D01*
G01X27085866Y7613303D01*
G01X27091708Y7596285D01*
G01X27103138Y7584855D01*
G01X27114568Y7579013D01*
G01X27131586Y7579013D01*
G01X27143016Y7584855D01*
G01X27154446Y7596285D01*
G01X27160288Y7613303D01*
G01X27160288Y7624733D01*
G01X27154446Y7642005D01*
G01X27143016Y7653435D01*
G01X27131586Y7659023D01*
G01X27114568Y7659023D01*
G01X27208040Y7659023D02*
G01X27208040Y7579013D01*
G01X27208040Y7636163D02*
G01X27225312Y7653435D01*
G01X27236742Y7659023D01*
G01X27253760Y7659023D01*
G01X27265190Y7653435D01*
G01X27271032Y7636163D01*
G01X27271032Y7579013D01*
G01X27271032Y7636163D02*
G01X27288050Y7653435D01*
G01X27299480Y7659023D01*
G01X27316752Y7659023D01*
G01X27328182Y7653435D01*
G01X27333770Y7636163D01*
G01X27333770Y7579013D01*
G01X27509538Y7699155D02*
G01X27509538Y7579013D01*
G01X27509538Y7579013D02*
G01X27578118Y7579013D01*
G01X27694450Y7659023D02*
G01X27694450Y7579013D01*
G01X27694450Y7642005D02*
G01X27683020Y7653435D01*
G01X27671590Y7659023D01*
G01X27654572Y7659023D01*
G01X27643142Y7653435D01*
G01X27631712Y7642005D01*
G01X27625870Y7624733D01*
G01X27625870Y7613303D01*
G01X27631712Y7596285D01*
G01X27643142Y7584855D01*
G01X27654572Y7579013D01*
G01X27671590Y7579013D01*
G01X27683020Y7584855D01*
G01X27694450Y7596285D01*
G01X27748044Y7659023D02*
G01X27782334Y7579013D01*
G01X27816624Y7659023D02*
G01X27782334Y7579013D01*
G01X27770904Y7556153D01*
G01X27759474Y7544723D01*
G01X27748044Y7539135D01*
G01X27742202Y7539135D01*
G01X27864376Y7624733D02*
G01X27932956Y7624733D01*
G01X27932956Y7636163D01*
G01X27927368Y7647593D01*
G01X27921526Y7653435D01*
G01X27910096Y7659023D01*
G01X27893078Y7659023D01*
G01X27881648Y7653435D01*
G01X27870218Y7642005D01*
G01X27864376Y7624733D01*
G01X27864376Y7613303D01*
G01X27870218Y7596285D01*
G01X27881648Y7584855D01*
G01X27893078Y7579013D01*
G01X27910096Y7579013D01*
G01X27921526Y7584855D01*
G01X27932956Y7596285D01*
G01X27980708Y7659023D02*
G01X27980708Y7579013D01*
G01X27980708Y7624733D02*
G01X27986550Y7642005D01*
G01X27997980Y7653435D01*
G01X28009410Y7659023D01*
G01X28026428Y7659023D01*
G01X13752789Y7095724D02*
G01X13764219Y7101312D01*
G01X13781491Y7118584D01*
G01X13781491Y6998442D01*
G01X13835085Y7089882D02*
G01X13835085Y7095724D01*
G01X13840673Y7107154D01*
G01X13846515Y7112742D01*
G01X13857945Y7118584D01*
G01X13880805Y7118584D01*
G01X13892235Y7112742D01*
G01X13897823Y7107154D01*
G01X13903665Y7095724D01*
G01X13903665Y7084294D01*
G01X13897823Y7072864D01*
G01X13886393Y7055592D01*
G01X13829243Y6998442D01*
G01X13909253Y6998442D01*
G01X15178382Y7118584D02*
G01X15241374Y7118584D01*
G01X15207084Y7072864D01*
G01X15224102Y7072864D01*
G01X15235532Y7067022D01*
G01X15241374Y7061434D01*
G01X15246962Y7044162D01*
G01X15246962Y7032732D01*
G01X15241374Y7015714D01*
G01X15229944Y7004284D01*
G01X15212672Y6998442D01*
G01X15195654Y6998442D01*
G01X15178382Y7004284D01*
G01X15172794Y7009872D01*
G01X15166952Y7021302D01*
G01X15369136Y7078452D02*
G01X15363294Y7061434D01*
G01X15351864Y7050004D01*
G01X15334846Y7044162D01*
G01X15329004Y7044162D01*
G01X15311986Y7050004D01*
G01X15300556Y7061434D01*
G01X15294714Y7078452D01*
G01X15294714Y7084294D01*
G01X15300556Y7101312D01*
G01X15311986Y7112742D01*
G01X15329004Y7118584D01*
G01X15334846Y7118584D01*
G01X15351864Y7112742D01*
G01X15363294Y7101312D01*
G01X15369136Y7078452D01*
G01X15369136Y7050004D01*
G01X15363294Y7021302D01*
G01X15351864Y7004284D01*
G01X15334846Y6998442D01*
G01X15323416Y6998442D01*
G01X15306144Y7004284D01*
G01X15300556Y7015714D01*
G01X15422730Y7027144D02*
G01X15416888Y7021302D01*
G01X15422730Y7015714D01*
G01X15428318Y7021302D01*
G01X15422730Y7027144D01*
G01X15533220Y7118584D02*
G01X15476070Y7038574D01*
G01X15561922Y7038574D01*
G01X15533220Y7118584D02*
G01X15533220Y6998442D01*
G01X15609674Y7078452D02*
G01X15672666Y6998442D01*
G01X15672666Y7078452D02*
G01X15609674Y6998442D01*
G01X15731848Y7118584D02*
G01X15794840Y7118584D01*
G01X15760550Y7072864D01*
G01X15777568Y7072864D01*
G01X15788998Y7067022D01*
G01X15794840Y7061434D01*
G01X15800428Y7044162D01*
G01X15800428Y7032732D01*
G01X15794840Y7015714D01*
G01X15783410Y7004284D01*
G01X15766138Y6998442D01*
G01X15749120Y6998442D01*
G01X15731848Y7004284D01*
G01X15726260Y7009872D01*
G01X15720418Y7021302D01*
G01X15922602Y7078452D02*
G01X15916760Y7061434D01*
G01X15905330Y7050004D01*
G01X15888312Y7044162D01*
G01X15882470Y7044162D01*
G01X15865452Y7050004D01*
G01X15854022Y7061434D01*
G01X15848180Y7078452D01*
G01X15848180Y7084294D01*
G01X15854022Y7101312D01*
G01X15865452Y7112742D01*
G01X15882470Y7118584D01*
G01X15888312Y7118584D01*
G01X15905330Y7112742D01*
G01X15916760Y7101312D01*
G01X15922602Y7078452D01*
G01X15922602Y7050004D01*
G01X15916760Y7021302D01*
G01X15905330Y7004284D01*
G01X15888312Y6998442D01*
G01X15876882Y6998442D01*
G01X15859610Y7004284D01*
G01X15854022Y7015714D01*
G01X15976196Y7027144D02*
G01X15970354Y7021302D01*
G01X15976196Y7015714D01*
G01X15981784Y7021302D01*
G01X15976196Y7027144D01*
G01X16086686Y7118584D02*
G01X16029536Y7038574D01*
G01X16115388Y7038574D01*
G01X16086686Y7118584D02*
G01X16086686Y6998442D01*
G01X16163140Y7078452D02*
G01X16163140Y6998442D01*
G01X16163140Y7055592D02*
G01X16180412Y7072864D01*
G01X16191842Y7078452D01*
G01X16208860Y7078452D01*
G01X16220290Y7072864D01*
G01X16226132Y7055592D01*
G01X16226132Y6998442D01*
G01X16226132Y7055592D02*
G01X16243150Y7072864D01*
G01X16254580Y7078452D01*
G01X16271852Y7078452D01*
G01X16283282Y7072864D01*
G01X16288870Y7055592D01*
G01X16288870Y6998442D01*
G01X16336622Y7118584D02*
G01X16342464Y7112742D01*
G01X16348052Y7118584D01*
G01X16342464Y7124172D01*
G01X16336622Y7118584D01*
G01X16342464Y7078452D02*
G01X16342464Y6998442D01*
G01X16395804Y7118584D02*
G01X16395804Y6998442D01*
G01X16483688Y7141444D02*
G01X16472258Y7130014D01*
G01X16460828Y7112742D01*
G01X16449398Y7089882D01*
G01X16443556Y7061434D01*
G01X16443556Y7038574D01*
G01X16449398Y7009872D01*
G01X16460828Y6987012D01*
G01X16472258Y6969994D01*
G01X16483688Y6958564D01*
G01X16531440Y7095724D02*
G01X16542870Y7101312D01*
G01X16560142Y7118584D01*
G01X16560142Y6998442D01*
G01X16613736Y7027144D02*
G01X16607894Y7021302D01*
G01X16613736Y7015714D01*
G01X16619324Y7021302D01*
G01X16613736Y7027144D01*
G01X16701366Y7118584D02*
G01X16684348Y7112742D01*
G01X16672918Y7095724D01*
G01X16667076Y7067022D01*
G01X16667076Y7050004D01*
G01X16672918Y7021302D01*
G01X16684348Y7004284D01*
G01X16701366Y6998442D01*
G01X16712796Y6998442D01*
G01X16730068Y7004284D01*
G01X16741498Y7021302D01*
G01X16747086Y7050004D01*
G01X16747086Y7067022D01*
G01X16741498Y7095724D01*
G01X16730068Y7112742D01*
G01X16712796Y7118584D01*
G01X16701366Y7118584D01*
G01X16829128Y7118584D02*
G01X16812110Y7112742D01*
G01X16800680Y7095724D01*
G01X16794838Y7067022D01*
G01X16794838Y7050004D01*
G01X16800680Y7021302D01*
G01X16812110Y7004284D01*
G01X16829128Y6998442D01*
G01X16840558Y6998442D01*
G01X16857830Y7004284D01*
G01X16869260Y7021302D01*
G01X16874848Y7050004D01*
G01X16874848Y7067022D01*
G01X16869260Y7095724D01*
G01X16857830Y7112742D01*
G01X16840558Y7118584D01*
G01X16829128Y7118584D01*
G01X16956890Y7118584D02*
G01X16939872Y7112742D01*
G01X16928442Y7095724D01*
G01X16922600Y7067022D01*
G01X16922600Y7050004D01*
G01X16928442Y7021302D01*
G01X16939872Y7004284D01*
G01X16956890Y6998442D01*
G01X16968320Y6998442D01*
G01X16985592Y7004284D01*
G01X16997022Y7021302D01*
G01X17002610Y7050004D01*
G01X17002610Y7067022D01*
G01X16997022Y7095724D01*
G01X16985592Y7112742D01*
G01X16968320Y7118584D01*
G01X16956890Y7118584D01*
G01X17050362Y7078452D02*
G01X17113354Y6998442D01*
G01X17113354Y7078452D02*
G01X17050362Y6998442D01*
G01X17161106Y7095724D02*
G01X17172536Y7101312D01*
G01X17189808Y7118584D01*
G01X17189808Y6998442D01*
G01X17243402Y7027144D02*
G01X17237560Y7021302D01*
G01X17243402Y7015714D01*
G01X17248990Y7021302D01*
G01X17243402Y7027144D01*
G01X17331032Y7118584D02*
G01X17314014Y7112742D01*
G01X17302584Y7095724D01*
G01X17296742Y7067022D01*
G01X17296742Y7050004D01*
G01X17302584Y7021302D01*
G01X17314014Y7004284D01*
G01X17331032Y6998442D01*
G01X17342462Y6998442D01*
G01X17359734Y7004284D01*
G01X17371164Y7021302D01*
G01X17376752Y7050004D01*
G01X17376752Y7067022D01*
G01X17371164Y7095724D01*
G01X17359734Y7112742D01*
G01X17342462Y7118584D01*
G01X17331032Y7118584D01*
G01X17458794Y7118584D02*
G01X17441776Y7112742D01*
G01X17430346Y7095724D01*
G01X17424504Y7067022D01*
G01X17424504Y7050004D01*
G01X17430346Y7021302D01*
G01X17441776Y7004284D01*
G01X17458794Y6998442D01*
G01X17470224Y6998442D01*
G01X17487496Y7004284D01*
G01X17498926Y7021302D01*
G01X17504514Y7050004D01*
G01X17504514Y7067022D01*
G01X17498926Y7095724D01*
G01X17487496Y7112742D01*
G01X17470224Y7118584D01*
G01X17458794Y7118584D01*
G01X17586556Y7118584D02*
G01X17569538Y7112742D01*
G01X17558108Y7095724D01*
G01X17552266Y7067022D01*
G01X17552266Y7050004D01*
G01X17558108Y7021302D01*
G01X17569538Y7004284D01*
G01X17586556Y6998442D01*
G01X17597986Y6998442D01*
G01X17615258Y7004284D01*
G01X17626688Y7021302D01*
G01X17632276Y7050004D01*
G01X17632276Y7067022D01*
G01X17626688Y7095724D01*
G01X17615258Y7112742D01*
G01X17597986Y7118584D01*
G01X17586556Y7118584D01*
G01X17680028Y7078452D02*
G01X17680028Y6998442D01*
G01X17680028Y7055592D02*
G01X17697300Y7072864D01*
G01X17708730Y7078452D01*
G01X17725748Y7078452D01*
G01X17737178Y7072864D01*
G01X17743020Y7055592D01*
G01X17743020Y6998442D01*
G01X17743020Y7055592D02*
G01X17760038Y7072864D01*
G01X17771468Y7078452D01*
G01X17788740Y7078452D01*
G01X17800170Y7072864D01*
G01X17805758Y7055592D01*
G01X17805758Y6998442D01*
G01X17853510Y7078452D02*
G01X17853510Y6998442D01*
G01X17853510Y7055592D02*
G01X17870782Y7072864D01*
G01X17882212Y7078452D01*
G01X17899230Y7078452D01*
G01X17910660Y7072864D01*
G01X17916502Y7055592D01*
G01X17916502Y6998442D01*
G01X17916502Y7055592D02*
G01X17933520Y7072864D01*
G01X17944950Y7078452D01*
G01X17962222Y7078452D01*
G01X17973652Y7072864D01*
G01X17979240Y7055592D01*
G01X17979240Y6998442D01*
G01X18026992Y7141444D02*
G01X18038422Y7130014D01*
G01X18049852Y7112742D01*
G01X18061282Y7089882D01*
G01X18067124Y7061434D01*
G01X18067124Y7038574D01*
G01X18061282Y7009872D01*
G01X18049852Y6987012D01*
G01X18038422Y6969994D01*
G01X18026992Y6958564D01*
G01X18958301Y7118584D02*
G01X18958301Y6998442D01*
G01X18958301Y7118584D02*
G01X19009863Y7118584D01*
G01X19026881Y7112742D01*
G01X19032723Y7107154D01*
G01X19038311Y7095724D01*
G01X19038311Y7078452D01*
G01X19032723Y7067022D01*
G01X19026881Y7061434D01*
G01X19009863Y7055592D01*
G01X18958301Y7055592D01*
G01X19126195Y7118584D02*
G01X19126195Y6998442D01*
G01X19086063Y7118584D02*
G01X19166073Y7118584D01*
G01X19213825Y7118584D02*
G01X19213825Y6998442D01*
G01X19293835Y7118584D02*
G01X19293835Y6998442D01*
G01X19213825Y7061434D02*
G01X19293835Y7061434D01*
G01X20419708Y7118584D02*
G01X20419708Y6998442D01*
G01X20419708Y7118584D02*
G01X20471270Y7118584D01*
G01X20488288Y7112742D01*
G01X20494130Y7107154D01*
G01X20499718Y7095724D01*
G01X20499718Y7084294D01*
G01X20494130Y7072864D01*
G01X20488288Y7067022D01*
G01X20471270Y7061434D01*
G01X20419708Y7061434D01*
G01X20459840Y7061434D02*
G01X20499718Y6998442D01*
G01X20576172Y7078452D02*
G01X20564742Y7072864D01*
G01X20553312Y7061434D01*
G01X20547470Y7044162D01*
G01X20547470Y7032732D01*
G01X20553312Y7015714D01*
G01X20564742Y7004284D01*
G01X20576172Y6998442D01*
G01X20593190Y6998442D01*
G01X20604620Y7004284D01*
G01X20616050Y7015714D01*
G01X20621892Y7032732D01*
G01X20621892Y7044162D01*
G01X20616050Y7061434D01*
G01X20604620Y7072864D01*
G01X20593190Y7078452D01*
G01X20576172Y7078452D01*
G01X20669644Y7078452D02*
G01X20669644Y7021302D01*
G01X20675486Y7004284D01*
G01X20686916Y6998442D01*
G01X20703934Y6998442D01*
G01X20715364Y7004284D01*
G01X20732636Y7021302D01*
G01X20732636Y7078452D02*
G01X20732636Y6998442D01*
G01X20780388Y7078452D02*
G01X20780388Y6998442D01*
G01X20780388Y7055592D02*
G01X20797660Y7072864D01*
G01X20809090Y7078452D01*
G01X20826108Y7078452D01*
G01X20837538Y7072864D01*
G01X20843380Y7055592D01*
G01X20843380Y6998442D01*
G01X20959712Y7118584D02*
G01X20959712Y6998442D01*
G01X20959712Y7061434D02*
G01X20948282Y7072864D01*
G01X20936852Y7078452D01*
G01X20919834Y7078452D01*
G01X20908404Y7072864D01*
G01X20896974Y7061434D01*
G01X20891132Y7044162D01*
G01X20891132Y7032732D01*
G01X20896974Y7015714D01*
G01X20908404Y7004284D01*
G01X20919834Y6998442D01*
G01X20936852Y6998442D01*
G01X20948282Y7004284D01*
G01X20959712Y7015714D01*
G01X21850889Y7118584D02*
G01X21850889Y6998442D01*
G01X21850889Y7118584D02*
G01X21902451Y7118584D01*
G01X21919469Y7112742D01*
G01X21925311Y7107154D01*
G01X21930899Y7095724D01*
G01X21930899Y7078452D01*
G01X21925311Y7067022D01*
G01X21919469Y7061434D01*
G01X21902451Y7055592D01*
G01X21850889Y7055592D01*
G01X22047231Y7078452D02*
G01X22047231Y6998442D01*
G01X22047231Y7061434D02*
G01X22035801Y7072864D01*
G01X22024371Y7078452D01*
G01X22007353Y7078452D01*
G01X21995923Y7072864D01*
G01X21984493Y7061434D01*
G01X21978651Y7044162D01*
G01X21978651Y7032732D01*
G01X21984493Y7015714D01*
G01X21995923Y7004284D01*
G01X22007353Y6998442D01*
G01X22024371Y6998442D01*
G01X22035801Y7004284D01*
G01X22047231Y7015714D01*
G01X22163563Y7118584D02*
G01X22163563Y6998442D01*
G01X22163563Y7061434D02*
G01X22152133Y7072864D01*
G01X22140703Y7078452D01*
G01X22123685Y7078452D01*
G01X22112255Y7072864D01*
G01X22100825Y7061434D01*
G01X22094983Y7044162D01*
G01X22094983Y7032732D01*
G01X22100825Y7015714D01*
G01X22112255Y7004284D01*
G01X22123685Y6998442D01*
G01X22140703Y6998442D01*
G01X22152133Y7004284D01*
G01X22163563Y7015714D01*
G01X23520068Y7118584D02*
G01X23520068Y6998442D01*
G01X23520068Y7118584D02*
G01X23571630Y7118584D01*
G01X23588648Y7112742D01*
G01X23594490Y7107154D01*
G01X23600078Y7095724D01*
G01X23600078Y7084294D01*
G01X23594490Y7072864D01*
G01X23588648Y7067022D01*
G01X23571630Y7061434D01*
G01X23520068Y7061434D01*
G01X23560200Y7061434D02*
G01X23600078Y6998442D01*
G01X23676532Y7078452D02*
G01X23665102Y7072864D01*
G01X23653672Y7061434D01*
G01X23647830Y7044162D01*
G01X23647830Y7032732D01*
G01X23653672Y7015714D01*
G01X23665102Y7004284D01*
G01X23676532Y6998442D01*
G01X23693550Y6998442D01*
G01X23704980Y7004284D01*
G01X23716410Y7015714D01*
G01X23722252Y7032732D01*
G01X23722252Y7044162D01*
G01X23716410Y7061434D01*
G01X23704980Y7072864D01*
G01X23693550Y7078452D01*
G01X23676532Y7078452D01*
G01X23770004Y7078452D02*
G01X23770004Y7021302D01*
G01X23775846Y7004284D01*
G01X23787276Y6998442D01*
G01X23804294Y6998442D01*
G01X23815724Y7004284D01*
G01X23832996Y7021302D01*
G01X23832996Y7078452D02*
G01X23832996Y6998442D01*
G01X23880748Y7078452D02*
G01X23880748Y6998442D01*
G01X23880748Y7055592D02*
G01X23898020Y7072864D01*
G01X23909450Y7078452D01*
G01X23926468Y7078452D01*
G01X23937898Y7072864D01*
G01X23943740Y7055592D01*
G01X23943740Y6998442D01*
G01X24060072Y7118584D02*
G01X24060072Y6998442D01*
G01X24060072Y7061434D02*
G01X24048642Y7072864D01*
G01X24037212Y7078452D01*
G01X24020194Y7078452D01*
G01X24008764Y7072864D01*
G01X23997334Y7061434D01*
G01X23991492Y7044162D01*
G01X23991492Y7032732D01*
G01X23997334Y7015714D01*
G01X24008764Y7004284D01*
G01X24020194Y6998442D01*
G01X24037212Y6998442D01*
G01X24048642Y7004284D01*
G01X24060072Y7015714D01*
G01X25479570Y7118584D02*
G01X25479570Y6998442D01*
G01X25439438Y7118584D02*
G01X25519448Y7118584D01*
G01X25595902Y7078452D02*
G01X25584472Y7072864D01*
G01X25573042Y7061434D01*
G01X25567200Y7044162D01*
G01X25567200Y7032732D01*
G01X25573042Y7015714D01*
G01X25584472Y7004284D01*
G01X25595902Y6998442D01*
G01X25612920Y6998442D01*
G01X25624350Y7004284D01*
G01X25635780Y7015714D01*
G01X25641622Y7032732D01*
G01X25641622Y7044162D01*
G01X25635780Y7061434D01*
G01X25624350Y7072864D01*
G01X25612920Y7078452D01*
G01X25595902Y7078452D01*
G01X25689374Y7078452D02*
G01X25689374Y6958564D01*
G01X25689374Y7061434D02*
G01X25700804Y7072864D01*
G01X25712234Y7078452D01*
G01X25729506Y7078452D01*
G01X25740936Y7072864D01*
G01X25752366Y7061434D01*
G01X25757954Y7044162D01*
G01X25757954Y7032732D01*
G01X25752366Y7015714D01*
G01X25740936Y7004284D01*
G01X25729506Y6998442D01*
G01X25712234Y6998442D01*
G01X25700804Y7004284D01*
G01X25689374Y7015714D01*
G01X25933722Y7118584D02*
G01X25933722Y6998442D01*
G01X25933722Y6998442D02*
G01X26002302Y6998442D01*
G01X26118634Y7078452D02*
G01X26118634Y6998442D01*
G01X26118634Y7061434D02*
G01X26107204Y7072864D01*
G01X26095774Y7078452D01*
G01X26078756Y7078452D01*
G01X26067326Y7072864D01*
G01X26055896Y7061434D01*
G01X26050054Y7044162D01*
G01X26050054Y7032732D01*
G01X26055896Y7015714D01*
G01X26067326Y7004284D01*
G01X26078756Y6998442D01*
G01X26095774Y6998442D01*
G01X26107204Y7004284D01*
G01X26118634Y7015714D01*
G01X26172228Y7078452D02*
G01X26206518Y6998442D01*
G01X26240808Y7078452D02*
G01X26206518Y6998442D01*
G01X26195088Y6975582D01*
G01X26183658Y6964152D01*
G01X26172228Y6958564D01*
G01X26166386Y6958564D01*
G01X26288560Y7044162D02*
G01X26357140Y7044162D01*
G01X26357140Y7055592D01*
G01X26351552Y7067022D01*
G01X26345710Y7072864D01*
G01X26334280Y7078452D01*
G01X26317262Y7078452D01*
G01X26305832Y7072864D01*
G01X26294402Y7061434D01*
G01X26288560Y7044162D01*
G01X26288560Y7032732D01*
G01X26294402Y7015714D01*
G01X26305832Y7004284D01*
G01X26317262Y6998442D01*
G01X26334280Y6998442D01*
G01X26345710Y7004284D01*
G01X26357140Y7015714D01*
G01X26404892Y7078452D02*
G01X26404892Y6998442D01*
G01X26404892Y7044162D02*
G01X26410734Y7061434D01*
G01X26422164Y7072864D01*
G01X26433594Y7078452D01*
G01X26450612Y7078452D01*
G01X26498364Y7050004D02*
G01X26601234Y7050004D01*
G01X26648986Y7118584D02*
G01X26648986Y6998442D01*
G01X26648986Y7118584D02*
G01X26700548Y7118584D01*
G01X26717566Y7112742D01*
G01X26723408Y7107154D01*
G01X26728996Y7095724D01*
G01X26728996Y7084294D01*
G01X26723408Y7072864D01*
G01X26717566Y7067022D01*
G01X26700548Y7061434D01*
G01X26648986Y7061434D02*
G01X26700548Y7061434D01*
G01X26717566Y7055592D01*
G01X26723408Y7050004D01*
G01X26728996Y7038574D01*
G01X26728996Y7021302D01*
G01X26723408Y7009872D01*
G01X26717566Y7004284D01*
G01X26700548Y6998442D01*
G01X26648986Y6998442D01*
G01X26805450Y7078452D02*
G01X26794020Y7072864D01*
G01X26782590Y7061434D01*
G01X26776748Y7044162D01*
G01X26776748Y7032732D01*
G01X26782590Y7015714D01*
G01X26794020Y7004284D01*
G01X26805450Y6998442D01*
G01X26822468Y6998442D01*
G01X26833898Y7004284D01*
G01X26845328Y7015714D01*
G01X26851170Y7032732D01*
G01X26851170Y7044162D01*
G01X26845328Y7061434D01*
G01X26833898Y7072864D01*
G01X26822468Y7078452D01*
G01X26805450Y7078452D01*
G01X26916194Y7118584D02*
G01X26916194Y7021302D01*
G01X26921782Y7004284D01*
G01X26933212Y6998442D01*
G01X26944642Y6998442D01*
G01X26898922Y7078452D02*
G01X26939054Y7078452D01*
G01X27009666Y7118584D02*
G01X27009666Y7021302D01*
G01X27015254Y7004284D01*
G01X27026684Y6998442D01*
G01X27038114Y6998442D01*
G01X26992394Y7078452D02*
G01X27032526Y7078452D01*
G01X27114568Y7078452D02*
G01X27103138Y7072864D01*
G01X27091708Y7061434D01*
G01X27085866Y7044162D01*
G01X27085866Y7032732D01*
G01X27091708Y7015714D01*
G01X27103138Y7004284D01*
G01X27114568Y6998442D01*
G01X27131586Y6998442D01*
G01X27143016Y7004284D01*
G01X27154446Y7015714D01*
G01X27160288Y7032732D01*
G01X27160288Y7044162D01*
G01X27154446Y7061434D01*
G01X27143016Y7072864D01*
G01X27131586Y7078452D01*
G01X27114568Y7078452D01*
G01X27208040Y7078452D02*
G01X27208040Y6998442D01*
G01X27208040Y7055592D02*
G01X27225312Y7072864D01*
G01X27236742Y7078452D01*
G01X27253760Y7078452D01*
G01X27265190Y7072864D01*
G01X27271032Y7055592D01*
G01X27271032Y6998442D01*
G01X27271032Y7055592D02*
G01X27288050Y7072864D01*
G01X27299480Y7078452D01*
G01X27316752Y7078452D01*
G01X27328182Y7072864D01*
G01X27333770Y7055592D01*
G01X27333770Y6998442D01*
G01X27509538Y7118584D02*
G01X27509538Y6998442D01*
G01X27509538Y6998442D02*
G01X27578118Y6998442D01*
G01X27694450Y7078452D02*
G01X27694450Y6998442D01*
G01X27694450Y7061434D02*
G01X27683020Y7072864D01*
G01X27671590Y7078452D01*
G01X27654572Y7078452D01*
G01X27643142Y7072864D01*
G01X27631712Y7061434D01*
G01X27625870Y7044162D01*
G01X27625870Y7032732D01*
G01X27631712Y7015714D01*
G01X27643142Y7004284D01*
G01X27654572Y6998442D01*
G01X27671590Y6998442D01*
G01X27683020Y7004284D01*
G01X27694450Y7015714D01*
G01X27748044Y7078452D02*
G01X27782334Y6998442D01*
G01X27816624Y7078452D02*
G01X27782334Y6998442D01*
G01X27770904Y6975582D01*
G01X27759474Y6964152D01*
G01X27748044Y6958564D01*
G01X27742202Y6958564D01*
G01X27864376Y7044162D02*
G01X27932956Y7044162D01*
G01X27932956Y7055592D01*
G01X27927368Y7067022D01*
G01X27921526Y7072864D01*
G01X27910096Y7078452D01*
G01X27893078Y7078452D01*
G01X27881648Y7072864D01*
G01X27870218Y7061434D01*
G01X27864376Y7044162D01*
G01X27864376Y7032732D01*
G01X27870218Y7015714D01*
G01X27881648Y7004284D01*
G01X27893078Y6998442D01*
G01X27910096Y6998442D01*
G01X27921526Y7004284D01*
G01X27932956Y7015714D01*
G01X27980708Y7078452D02*
G01X27980708Y6998442D01*
G01X27980708Y7044162D02*
G01X27986550Y7061434D01*
G01X27997980Y7072864D01*
G01X28009410Y7078452D01*
G01X28026428Y7078452D01*
G01X13821369Y6520741D02*
G01X13815781Y6532171D01*
G01X13798509Y6538013D01*
G01X13787079Y6538013D01*
G01X13770061Y6532171D01*
G01X13758631Y6515153D01*
G01X13752789Y6486451D01*
G01X13752789Y6458003D01*
G01X13758631Y6435143D01*
G01X13770061Y6423713D01*
G01X13787079Y6417871D01*
G01X13792921Y6417871D01*
G01X13809939Y6423713D01*
G01X13821369Y6435143D01*
G01X13827211Y6452161D01*
G01X13827211Y6458003D01*
G01X13821369Y6475021D01*
G01X13809939Y6486451D01*
G01X13792921Y6492293D01*
G01X13787079Y6492293D01*
G01X13770061Y6486451D01*
G01X13758631Y6475021D01*
G01X13752789Y6458003D01*
G01X13943543Y6538013D02*
G01X13886393Y6538013D01*
G01X13880805Y6486451D01*
G01X13886393Y6492293D01*
G01X13903665Y6497881D01*
G01X13920683Y6497881D01*
G01X13937955Y6492293D01*
G01X13949385Y6480863D01*
G01X13954973Y6463591D01*
G01X13954973Y6452161D01*
G01X13949385Y6435143D01*
G01X13937955Y6423713D01*
G01X13920683Y6417871D01*
G01X13903665Y6417871D01*
G01X13886393Y6423713D01*
G01X13880805Y6429301D01*
G01X13874963Y6440731D01*
G01X14082735Y6538013D02*
G01X14025585Y6417871D01*
G01X14002725Y6538013D02*
G01X14082735Y6538013D01*
G01X15166952Y6515153D02*
G01X15178382Y6520741D01*
G01X15195654Y6538013D01*
G01X15195654Y6417871D01*
G01X15249248Y6509311D02*
G01X15249248Y6515153D01*
G01X15254836Y6526583D01*
G01X15260678Y6532171D01*
G01X15272108Y6538013D01*
G01X15294968Y6538013D01*
G01X15306398Y6532171D01*
G01X15311986Y6526583D01*
G01X15317828Y6515153D01*
G01X15317828Y6503723D01*
G01X15311986Y6492293D01*
G01X15300556Y6475021D01*
G01X15243406Y6417871D01*
G01X15323416Y6417871D01*
G01X15377010Y6446573D02*
G01X15371168Y6440731D01*
G01X15377010Y6435143D01*
G01X15382598Y6440731D01*
G01X15377010Y6446573D01*
G01X15464640Y6538013D02*
G01X15447622Y6532171D01*
G01X15436192Y6515153D01*
G01X15430350Y6486451D01*
G01X15430350Y6469433D01*
G01X15436192Y6440731D01*
G01X15447622Y6423713D01*
G01X15464640Y6417871D01*
G01X15476070Y6417871D01*
G01X15493342Y6423713D01*
G01X15504772Y6440731D01*
G01X15510360Y6469433D01*
G01X15510360Y6486451D01*
G01X15504772Y6515153D01*
G01X15493342Y6532171D01*
G01X15476070Y6538013D01*
G01X15464640Y6538013D01*
G01X15558112Y6497881D02*
G01X15558112Y6417871D01*
G01X15558112Y6475021D02*
G01X15575384Y6492293D01*
G01X15586814Y6497881D01*
G01X15603832Y6497881D01*
G01X15615262Y6492293D01*
G01X15621104Y6475021D01*
G01X15621104Y6417871D01*
G01X15621104Y6475021D02*
G01X15638122Y6492293D01*
G01X15649552Y6497881D01*
G01X15666824Y6497881D01*
G01X15678254Y6492293D01*
G01X15683842Y6475021D01*
G01X15683842Y6417871D01*
G01X15731594Y6538013D02*
G01X15737436Y6532171D01*
G01X15743024Y6538013D01*
G01X15737436Y6543601D01*
G01X15731594Y6538013D01*
G01X15737436Y6497881D02*
G01X15737436Y6417871D01*
G01X15790776Y6538013D02*
G01X15790776Y6417871D01*
G01X15878660Y6560873D02*
G01X15867230Y6549443D01*
G01X15855800Y6532171D01*
G01X15844370Y6509311D01*
G01X15838528Y6480863D01*
G01X15838528Y6458003D01*
G01X15844370Y6429301D01*
G01X15855800Y6406441D01*
G01X15867230Y6389423D01*
G01X15878660Y6377993D01*
G01X15960702Y6538013D02*
G01X15943684Y6532171D01*
G01X15932254Y6515153D01*
G01X15926412Y6486451D01*
G01X15926412Y6469433D01*
G01X15932254Y6440731D01*
G01X15943684Y6423713D01*
G01X15960702Y6417871D01*
G01X15972132Y6417871D01*
G01X15989404Y6423713D01*
G01X16000834Y6440731D01*
G01X16006422Y6469433D01*
G01X16006422Y6486451D01*
G01X16000834Y6515153D01*
G01X15989404Y6532171D01*
G01X15972132Y6538013D01*
G01X15960702Y6538013D01*
G01X16060016Y6446573D02*
G01X16054174Y6440731D01*
G01X16060016Y6435143D01*
G01X16065604Y6440731D01*
G01X16060016Y6446573D01*
G01X16124786Y6538013D02*
G01X16187778Y6538013D01*
G01X16153488Y6492293D01*
G01X16170506Y6492293D01*
G01X16181936Y6486451D01*
G01X16187778Y6480863D01*
G01X16193366Y6463591D01*
G01X16193366Y6452161D01*
G01X16187778Y6435143D01*
G01X16176348Y6423713D01*
G01X16159076Y6417871D01*
G01X16142058Y6417871D01*
G01X16124786Y6423713D01*
G01X16119198Y6429301D01*
G01X16113356Y6440731D01*
G01X16275408Y6538013D02*
G01X16258390Y6532171D01*
G01X16246960Y6515153D01*
G01X16241118Y6486451D01*
G01X16241118Y6469433D01*
G01X16246960Y6440731D01*
G01X16258390Y6423713D01*
G01X16275408Y6417871D01*
G01X16286838Y6417871D01*
G01X16304110Y6423713D01*
G01X16315540Y6440731D01*
G01X16321128Y6469433D01*
G01X16321128Y6486451D01*
G01X16315540Y6515153D01*
G01X16304110Y6532171D01*
G01X16286838Y6538013D01*
G01X16275408Y6538013D01*
G01X16437460Y6538013D02*
G01X16380310Y6538013D01*
G01X16374722Y6486451D01*
G01X16380310Y6492293D01*
G01X16397582Y6497881D01*
G01X16414600Y6497881D01*
G01X16431872Y6492293D01*
G01X16443302Y6480863D01*
G01X16448890Y6463591D01*
G01X16448890Y6452161D01*
G01X16443302Y6435143D01*
G01X16431872Y6423713D01*
G01X16414600Y6417871D01*
G01X16397582Y6417871D01*
G01X16380310Y6423713D01*
G01X16374722Y6429301D01*
G01X16368880Y6440731D01*
G01X16496642Y6497881D02*
G01X16496642Y6417871D01*
G01X16496642Y6475021D02*
G01X16513914Y6492293D01*
G01X16525344Y6497881D01*
G01X16542362Y6497881D01*
G01X16553792Y6492293D01*
G01X16559634Y6475021D01*
G01X16559634Y6417871D01*
G01X16559634Y6475021D02*
G01X16576652Y6492293D01*
G01X16588082Y6497881D01*
G01X16605354Y6497881D01*
G01X16616784Y6492293D01*
G01X16622372Y6475021D01*
G01X16622372Y6417871D01*
G01X16670124Y6497881D02*
G01X16670124Y6417871D01*
G01X16670124Y6475021D02*
G01X16687396Y6492293D01*
G01X16698826Y6497881D01*
G01X16715844Y6497881D01*
G01X16727274Y6492293D01*
G01X16733116Y6475021D01*
G01X16733116Y6417871D01*
G01X16733116Y6475021D02*
G01X16750134Y6492293D01*
G01X16761564Y6497881D01*
G01X16778836Y6497881D01*
G01X16790266Y6492293D01*
G01X16795854Y6475021D01*
G01X16795854Y6417871D01*
G01X16843606Y6560873D02*
G01X16855036Y6549443D01*
G01X16866466Y6532171D01*
G01X16877896Y6509311D01*
G01X16883738Y6480863D01*
G01X16883738Y6458003D01*
G01X16877896Y6429301D01*
G01X16866466Y6406441D01*
G01X16855036Y6389423D01*
G01X16843606Y6377993D01*
G01X18958301Y6538013D02*
G01X18958301Y6417871D01*
G01X18958301Y6538013D02*
G01X19009863Y6538013D01*
G01X19026881Y6532171D01*
G01X19032723Y6526583D01*
G01X19038311Y6515153D01*
G01X19038311Y6497881D01*
G01X19032723Y6486451D01*
G01X19026881Y6480863D01*
G01X19009863Y6475021D01*
G01X18958301Y6475021D01*
G01X19126195Y6538013D02*
G01X19126195Y6417871D01*
G01X19086063Y6538013D02*
G01X19166073Y6538013D01*
G01X19213825Y6538013D02*
G01X19213825Y6417871D01*
G01X19293835Y6538013D02*
G01X19293835Y6417871D01*
G01X19213825Y6480863D02*
G01X19293835Y6480863D01*
G01X20419708Y6538013D02*
G01X20419708Y6417871D01*
G01X20419708Y6538013D02*
G01X20471270Y6538013D01*
G01X20488288Y6532171D01*
G01X20494130Y6526583D01*
G01X20499718Y6515153D01*
G01X20499718Y6503723D01*
G01X20494130Y6492293D01*
G01X20488288Y6486451D01*
G01X20471270Y6480863D01*
G01X20419708Y6480863D01*
G01X20459840Y6480863D02*
G01X20499718Y6417871D01*
G01X20576172Y6497881D02*
G01X20564742Y6492293D01*
G01X20553312Y6480863D01*
G01X20547470Y6463591D01*
G01X20547470Y6452161D01*
G01X20553312Y6435143D01*
G01X20564742Y6423713D01*
G01X20576172Y6417871D01*
G01X20593190Y6417871D01*
G01X20604620Y6423713D01*
G01X20616050Y6435143D01*
G01X20621892Y6452161D01*
G01X20621892Y6463591D01*
G01X20616050Y6480863D01*
G01X20604620Y6492293D01*
G01X20593190Y6497881D01*
G01X20576172Y6497881D01*
G01X20669644Y6497881D02*
G01X20669644Y6440731D01*
G01X20675486Y6423713D01*
G01X20686916Y6417871D01*
G01X20703934Y6417871D01*
G01X20715364Y6423713D01*
G01X20732636Y6440731D01*
G01X20732636Y6497881D02*
G01X20732636Y6417871D01*
G01X20780388Y6497881D02*
G01X20780388Y6417871D01*
G01X20780388Y6475021D02*
G01X20797660Y6492293D01*
G01X20809090Y6497881D01*
G01X20826108Y6497881D01*
G01X20837538Y6492293D01*
G01X20843380Y6475021D01*
G01X20843380Y6417871D01*
G01X20959712Y6538013D02*
G01X20959712Y6417871D01*
G01X20959712Y6480863D02*
G01X20948282Y6492293D01*
G01X20936852Y6497881D01*
G01X20919834Y6497881D01*
G01X20908404Y6492293D01*
G01X20896974Y6480863D01*
G01X20891132Y6463591D01*
G01X20891132Y6452161D01*
G01X20896974Y6435143D01*
G01X20908404Y6423713D01*
G01X20919834Y6417871D01*
G01X20936852Y6417871D01*
G01X20948282Y6423713D01*
G01X20959712Y6435143D01*
G01X21850889Y6538013D02*
G01X21896609Y6417871D01*
G01X21942329Y6538013D02*
G01X21896609Y6417871D01*
G01X21990081Y6538013D02*
G01X21995923Y6532171D01*
G01X22001511Y6538013D01*
G01X21995923Y6543601D01*
G01X21990081Y6538013D01*
G01X21995923Y6497881D02*
G01X21995923Y6417871D01*
G01X22117843Y6497881D02*
G01X22117843Y6417871D01*
G01X22117843Y6480863D02*
G01X22106413Y6492293D01*
G01X22094983Y6497881D01*
G01X22077965Y6497881D01*
G01X22066535Y6492293D01*
G01X22055105Y6480863D01*
G01X22049263Y6463591D01*
G01X22049263Y6452161D01*
G01X22055105Y6435143D01*
G01X22066535Y6423713D01*
G01X22077965Y6417871D01*
G01X22094983Y6417871D01*
G01X22106413Y6423713D01*
G01X22117843Y6435143D01*
G01X25479570Y6538013D02*
G01X25479570Y6417871D01*
G01X25439438Y6538013D02*
G01X25519448Y6538013D01*
G01X25595902Y6497881D02*
G01X25584472Y6492293D01*
G01X25573042Y6480863D01*
G01X25567200Y6463591D01*
G01X25567200Y6452161D01*
G01X25573042Y6435143D01*
G01X25584472Y6423713D01*
G01X25595902Y6417871D01*
G01X25612920Y6417871D01*
G01X25624350Y6423713D01*
G01X25635780Y6435143D01*
G01X25641622Y6452161D01*
G01X25641622Y6463591D01*
G01X25635780Y6480863D01*
G01X25624350Y6492293D01*
G01X25612920Y6497881D01*
G01X25595902Y6497881D01*
G01X25689374Y6497881D02*
G01X25689374Y6377993D01*
G01X25689374Y6480863D02*
G01X25700804Y6492293D01*
G01X25712234Y6497881D01*
G01X25729506Y6497881D01*
G01X25740936Y6492293D01*
G01X25752366Y6480863D01*
G01X25757954Y6463591D01*
G01X25757954Y6452161D01*
G01X25752366Y6435143D01*
G01X25740936Y6423713D01*
G01X25729506Y6417871D01*
G01X25712234Y6417871D01*
G01X25700804Y6423713D01*
G01X25689374Y6435143D01*
G01X25933722Y6538013D02*
G01X25933722Y6417871D01*
G01X25933722Y6417871D02*
G01X26002302Y6417871D01*
G01X26118634Y6497881D02*
G01X26118634Y6417871D01*
G01X26118634Y6480863D02*
G01X26107204Y6492293D01*
G01X26095774Y6497881D01*
G01X26078756Y6497881D01*
G01X26067326Y6492293D01*
G01X26055896Y6480863D01*
G01X26050054Y6463591D01*
G01X26050054Y6452161D01*
G01X26055896Y6435143D01*
G01X26067326Y6423713D01*
G01X26078756Y6417871D01*
G01X26095774Y6417871D01*
G01X26107204Y6423713D01*
G01X26118634Y6435143D01*
G01X26172228Y6497881D02*
G01X26206518Y6417871D01*
G01X26240808Y6497881D02*
G01X26206518Y6417871D01*
G01X26195088Y6395011D01*
G01X26183658Y6383581D01*
G01X26172228Y6377993D01*
G01X26166386Y6377993D01*
G01X26288560Y6463591D02*
G01X26357140Y6463591D01*
G01X26357140Y6475021D01*
G01X26351552Y6486451D01*
G01X26345710Y6492293D01*
G01X26334280Y6497881D01*
G01X26317262Y6497881D01*
G01X26305832Y6492293D01*
G01X26294402Y6480863D01*
G01X26288560Y6463591D01*
G01X26288560Y6452161D01*
G01X26294402Y6435143D01*
G01X26305832Y6423713D01*
G01X26317262Y6417871D01*
G01X26334280Y6417871D01*
G01X26345710Y6423713D01*
G01X26357140Y6435143D01*
G01X26404892Y6497881D02*
G01X26404892Y6417871D01*
G01X26404892Y6463591D02*
G01X26410734Y6480863D01*
G01X26422164Y6492293D01*
G01X26433594Y6497881D01*
G01X26450612Y6497881D01*
G01X26498364Y6469433D02*
G01X26601234Y6469433D01*
G01X26648986Y6538013D02*
G01X26648986Y6417871D01*
G01X26648986Y6538013D02*
G01X26700548Y6538013D01*
G01X26717566Y6532171D01*
G01X26723408Y6526583D01*
G01X26728996Y6515153D01*
G01X26728996Y6503723D01*
G01X26723408Y6492293D01*
G01X26717566Y6486451D01*
G01X26700548Y6480863D01*
G01X26648986Y6480863D02*
G01X26700548Y6480863D01*
G01X26717566Y6475021D01*
G01X26723408Y6469433D01*
G01X26728996Y6458003D01*
G01X26728996Y6440731D01*
G01X26723408Y6429301D01*
G01X26717566Y6423713D01*
G01X26700548Y6417871D01*
G01X26648986Y6417871D01*
G01X26805450Y6497881D02*
G01X26794020Y6492293D01*
G01X26782590Y6480863D01*
G01X26776748Y6463591D01*
G01X26776748Y6452161D01*
G01X26782590Y6435143D01*
G01X26794020Y6423713D01*
G01X26805450Y6417871D01*
G01X26822468Y6417871D01*
G01X26833898Y6423713D01*
G01X26845328Y6435143D01*
G01X26851170Y6452161D01*
G01X26851170Y6463591D01*
G01X26845328Y6480863D01*
G01X26833898Y6492293D01*
G01X26822468Y6497881D01*
G01X26805450Y6497881D01*
G01X26916194Y6538013D02*
G01X26916194Y6440731D01*
G01X26921782Y6423713D01*
G01X26933212Y6417871D01*
G01X26944642Y6417871D01*
G01X26898922Y6497881D02*
G01X26939054Y6497881D01*
G01X27009666Y6538013D02*
G01X27009666Y6440731D01*
G01X27015254Y6423713D01*
G01X27026684Y6417871D01*
G01X27038114Y6417871D01*
G01X26992394Y6497881D02*
G01X27032526Y6497881D01*
G01X27114568Y6497881D02*
G01X27103138Y6492293D01*
G01X27091708Y6480863D01*
G01X27085866Y6463591D01*
G01X27085866Y6452161D01*
G01X27091708Y6435143D01*
G01X27103138Y6423713D01*
G01X27114568Y6417871D01*
G01X27131586Y6417871D01*
G01X27143016Y6423713D01*
G01X27154446Y6435143D01*
G01X27160288Y6452161D01*
G01X27160288Y6463591D01*
G01X27154446Y6480863D01*
G01X27143016Y6492293D01*
G01X27131586Y6497881D01*
G01X27114568Y6497881D01*
G01X27208040Y6497881D02*
G01X27208040Y6417871D01*
G01X27208040Y6475021D02*
G01X27225312Y6492293D01*
G01X27236742Y6497881D01*
G01X27253760Y6497881D01*
G01X27265190Y6492293D01*
G01X27271032Y6475021D01*
G01X27271032Y6417871D01*
G01X27271032Y6475021D02*
G01X27288050Y6492293D01*
G01X27299480Y6497881D01*
G01X27316752Y6497881D01*
G01X27328182Y6492293D01*
G01X27333770Y6475021D01*
G01X27333770Y6417871D01*
G01X27509538Y6538013D02*
G01X27509538Y6417871D01*
G01X27509538Y6417871D02*
G01X27578118Y6417871D01*
G01X27694450Y6497881D02*
G01X27694450Y6417871D01*
G01X27694450Y6480863D02*
G01X27683020Y6492293D01*
G01X27671590Y6497881D01*
G01X27654572Y6497881D01*
G01X27643142Y6492293D01*
G01X27631712Y6480863D01*
G01X27625870Y6463591D01*
G01X27625870Y6452161D01*
G01X27631712Y6435143D01*
G01X27643142Y6423713D01*
G01X27654572Y6417871D01*
G01X27671590Y6417871D01*
G01X27683020Y6423713D01*
G01X27694450Y6435143D01*
G01X27748044Y6497881D02*
G01X27782334Y6417871D01*
G01X27816624Y6497881D02*
G01X27782334Y6417871D01*
G01X27770904Y6395011D01*
G01X27759474Y6383581D01*
G01X27748044Y6377993D01*
G01X27742202Y6377993D01*
G01X27864376Y6463591D02*
G01X27932956Y6463591D01*
G01X27932956Y6475021D01*
G01X27927368Y6486451D01*
G01X27921526Y6492293D01*
G01X27910096Y6497881D01*
G01X27893078Y6497881D01*
G01X27881648Y6492293D01*
G01X27870218Y6480863D01*
G01X27864376Y6463591D01*
G01X27864376Y6452161D01*
G01X27870218Y6435143D01*
G01X27881648Y6423713D01*
G01X27893078Y6417871D01*
G01X27910096Y6417871D01*
G01X27921526Y6423713D01*
G01X27932956Y6435143D01*
G01X27980708Y6497881D02*
G01X27980708Y6417871D01*
G01X27980708Y6463591D02*
G01X27986550Y6480863D01*
G01X27997980Y6492293D01*
G01X28009410Y6497881D01*
G01X28026428Y6497881D01*

G04 Image Start*
G36*
G01X12588177Y6937972D02*
G01X12482564Y6949453D01*
G01X12439688Y6852247D01*
G01X12396813Y6949453D01*
G01X12291200Y6937972D01*
G01X12353963Y7023697D01*
G01X12314241Y7077951D01*
G01X12345734Y7077951D01*
G01X12385434Y7023697D01*
G01X12345734Y6969442D01*
G01X12412561Y6976707D01*
G01X12412561Y6976707D01*
G01X12439688Y6915213D01*
G01X12466816Y6976707D01*
G01X12533643Y6969442D01*
G01X12493943Y7023697D01*
G01X12533618Y7077926D01*
G01X12466790Y7070661D01*
G01X12439688Y7132180D01*
G01X12412561Y7070687D01*
G01X12345734Y7077951D01*
G01X12314241Y7077951D01*
G01X12291200Y7109422D01*
G01X12396839Y7097941D01*
G01X12439688Y7195147D01*
G01X12482564Y7097941D01*
G01X12588177Y7109422D01*
G01X12525413Y7023697D01*
G01X12588177Y6937972D01*
G37*
G36*
G01X12459183Y8052276D02*
G01X12451443Y8051688D01*
G01X12443600Y8051490D01*
G01X12435757Y8051688D01*
G01X12428017Y8052276D01*
G01X12420389Y8053245D01*
G01X12412884Y8054586D01*
G01X12398278Y8058341D01*
G01X12384276Y8063465D01*
G01X12370954Y8069882D01*
G01X12358389Y8077515D01*
G01X12346656Y8086288D01*
G01X12335834Y8096124D01*
G01X12325998Y8106946D01*
G01X12317226Y8118678D01*
G01X12309592Y8131243D01*
G01X12303175Y8144566D01*
G01X12298051Y8158568D01*
G01X12294296Y8173174D01*
G01X12292956Y8180679D01*
G01X12291987Y8188306D01*
G01X12291398Y8196047D01*
G01X12291200Y8203890D01*
G01X12316600Y8203890D01*
G01X12317257Y8190923D01*
G01X12319185Y8178327D01*
G01X12322319Y8166165D01*
G01X12326596Y8154503D01*
G01X12331951Y8143404D01*
G01X12338319Y8132932D01*
G01X12345637Y8123153D01*
G01X12353840Y8114129D01*
G01X12362863Y8105927D01*
G01X12372643Y8098609D01*
G01X12383114Y8092240D01*
G01X12394213Y8086886D01*
G01X12405876Y8082609D01*
G01X12418037Y8079474D01*
G01X12418037Y8079474D01*
G01X12430634Y8077547D01*
G01X12443600Y8076890D01*
G01X12456567Y8077547D01*
G01X12469163Y8079474D01*
G01X12481324Y8082609D01*
G01X12492987Y8086886D01*
G01X12504086Y8092240D01*
G01X12514558Y8098609D01*
G01X12524337Y8105927D01*
G01X12533361Y8114129D01*
G01X12541563Y8123153D01*
G01X12548881Y8132932D01*
G01X12555249Y8143404D01*
G01X12560604Y8154503D01*
G01X12564881Y8166165D01*
G01X12568015Y8178327D01*
G01X12569943Y8190923D01*
G01X12570600Y8203890D01*
G01X12569943Y8216856D01*
G01X12568015Y8229452D01*
G01X12564881Y8241614D01*
G01X12560604Y8253276D01*
G01X12555249Y8264376D01*
G01X12548881Y8274847D01*
G01X12541563Y8284627D01*
G01X12533361Y8293650D01*
G01X12524337Y8301853D01*
G01X12514558Y8309170D01*
G01X12504086Y8315539D01*
G01X12492987Y8320894D01*
G01X12481324Y8325170D01*
G01X12469163Y8328305D01*
G01X12456567Y8330233D01*
G01X12443600Y8330890D01*
G01X12430634Y8330233D01*
G01X12418037Y8328305D01*
G01X12405876Y8325170D01*
G01X12394213Y8320894D01*
G01X12383114Y8315539D01*
G01X12372643Y8309170D01*
G01X12362863Y8301853D01*
G01X12353840Y8293650D01*
G01X12345637Y8284627D01*
G01X12338319Y8274847D01*
G01X12331951Y8264376D01*
G01X12326596Y8253276D01*
G01X12322319Y8241614D01*
G01X12319185Y8229452D01*
G01X12317257Y8216856D01*
G01X12316600Y8203890D01*
G01X12291200Y8203890D01*
G01X12291398Y8211733D01*
G01X12291987Y8219473D01*
G01X12292956Y8227100D01*
G01X12294296Y8234606D01*
G01X12298051Y8249212D01*
G01X12303175Y8263214D01*
G01X12309592Y8276536D01*
G01X12317226Y8289101D01*
G01X12325998Y8300833D01*
G01X12335834Y8311656D01*
G01X12346656Y8321491D01*
G01X12358389Y8330264D01*
G01X12370954Y8337897D01*
G01X12384276Y8344314D01*
G01X12398278Y8349439D01*
G01X12412884Y8353194D01*
G01X12420389Y8354534D01*
G01X12428017Y8355503D01*
G01X12435757Y8356091D01*
G01X12443600Y8356290D01*
G01X12451443Y8356091D01*
G01X12459183Y8355503D01*
G01X12466811Y8354534D01*
G01X12474316Y8353194D01*
G01X12488922Y8349439D01*
G01X12502924Y8344314D01*
G01X12516246Y8337897D01*
G01X12528812Y8330264D01*
G01X12540544Y8321491D01*
G01X12551366Y8311656D01*
G01X12561202Y8300833D01*
G01X12569975Y8289101D01*
G01X12577608Y8276536D01*
G01X12584025Y8263214D01*
G01X12589149Y8249212D01*
G01X12592904Y8234606D01*
G01X12594244Y8227100D01*
G01X12595213Y8219473D01*
G01X12595802Y8211733D01*
G01X12596000Y8203890D01*
G01X12595802Y8196047D01*
G01X12595213Y8188306D01*
G01X12594244Y8180679D01*
G01X12592904Y8173174D01*
G01X12589149Y8158568D01*
G01X12584025Y8144566D01*
G01X12577608Y8131243D01*
G01X12569975Y8118678D01*
G01X12561202Y8106946D01*
G01X12551366Y8096124D01*
G01X12540544Y8086288D01*
G01X12528812Y8077515D01*
G01X12516246Y8069882D01*
G01X12502924Y8063465D01*
G01X12488922Y8058341D01*
G01X12474316Y8054586D01*
G01X12466811Y8053245D01*
G01X12459183Y8052276D01*
G37*
G36*
G01X12596000Y6614575D02*
G01X12525972Y6462175D01*
G01X12596000Y6309775D01*
G01X12443600Y6379803D01*
G01X12291200Y6309775D01*
G01X12314963Y6361490D01*
G01X12342914Y6361490D01*
G01X12432983Y6402892D01*
G01X12443600Y6407769D01*
G01X12454217Y6402892D01*
G01X12544286Y6361490D01*
G01X12502884Y6451558D01*
G01X12498007Y6462175D01*
G01X12502884Y6472793D01*
G01X12544286Y6562861D01*
G01X12454217Y6521459D01*
G01X12443600Y6516582D01*
G01X12432983Y6521459D01*
G01X12342914Y6562861D01*
G01X12384316Y6472793D01*
G01X12389193Y6462175D01*
G01X12389193Y6462175D01*
G01X12384316Y6451558D01*
G01X12342914Y6361490D01*
G01X12314963Y6361490D01*
G01X12361228Y6462175D01*
G01X12291200Y6614575D01*
G01X12443600Y6544548D01*
G01X12596000Y6614575D01*
G37*
G36*
G01X12291200Y7775718D02*
G01X12596000Y7775718D01*
G01X12443600Y7511761D01*
G01X12305865Y7750318D01*
G01X12335193Y7750318D01*
G01X12443600Y7562561D01*
G01X12552007Y7750318D01*
G01X12552007Y7750318D01*
G01X12335193Y7750318D01*
G01X12305865Y7750318D01*
G01X12291200Y7775718D01*
G37*
G36*
G01X12291200Y8936861D02*
G01X12570600Y8936861D01*
G01X12570600Y8657461D01*
G01X12291200Y8657461D01*
G01X12291200Y8911461D01*
G01X12316600Y8911461D01*
G01X12316600Y8682861D01*
G01X12545200Y8682861D01*
G01X12545200Y8911461D01*
G01X12545200Y8911461D01*
G01X12316600Y8911461D01*
G01X12291200Y8911461D01*
G01X12291200Y8936861D01*
G37*

G04 PolygonModel Start*
G54D16*
G01X12000914Y6179147D02*
G01X28617159Y6179147D01*
G01X12000914Y6759718D02*
G01X28617159Y6759718D01*
G01X12000914Y7340290D02*
G01X28617159Y7340290D01*
G01X12000914Y7920861D02*
G01X28617159Y7920861D01*
G01X12000914Y8501433D02*
G01X28617159Y8501433D01*
G01X12000914Y9082004D02*
G01X28617159Y9082004D01*
G01X12000914Y9662575D02*
G01X28617159Y9662575D01*
G01X12000914Y9662575D02*
G01X12000914Y6204547D01*
G01X13452343Y9662575D02*
G01X13452343Y6204547D01*
G01X14866506Y9662575D02*
G01X14866506Y6204547D01*
G01X18657855Y9662575D02*
G01X18657855Y6204547D01*
G01X20119262Y9662575D02*
G01X20119262Y6204547D01*
G01X21550444Y9662575D02*
G01X21550444Y6204547D01*
G01X23219623Y9662575D02*
G01X23219623Y6204547D01*
G01X25138992Y9662575D02*
G01X25138992Y6204547D01*
G01X28617159Y9662575D02*
G01X28617159Y6204547D01*

M02*

