G04 Layer: BottomLayer*
G04 EasyEDA Pro v3.2.148, 2026-07-06 23:38:55*
G04 Gerber Generator version 0.3*
G04 Scale: 100 percent, Rotated: No, Reflected: No*
G04 Dimensions in millimeters*
G04 Leading zeros omitted, absolute positions, 4 integers and 5 decimals*
G04 Generated by one-click*
G04 Object Configs: Pad,Via,Track,Text,Image,Dimension,BoardOutline,BoardCutout,CopperFilled,SolidRegion,FPCStiffener,Line,PlaneZone,ComponentProperty,ComponentSilkscreen,TearDrop*
G04 Layer Configs: 1,2,3,4,5,6,7,8,9,10,11,13,14,56*
G04 Copper Areas: 1*
%FSLAX45Y45*%
%MOMM*%
%ADD10C,0.2032*%
%ADD11C,1.7*%
%ADD12R,1.7X1.7*%
%ADD13C,2.2*%
%ADD14C,2.5*%
%ADD15C,1.5*%
%ADD16C,0.61*%
%ADD17C,0.254*%
%ADD18C,0.1568*%
%ADD19C,0.1524*%
G75*


G04 Copper Start*
G36*
G01X35814Y4998747D02*
G01X35877Y4999493D01*
G01X273608Y4999493D01*
G01X274463Y4979621D01*
G01X278856Y4960221D01*
G01X286648Y4941919D01*
G01X297585Y4925305D01*
G01X311317Y4910914D01*
G01X327400Y4899210D01*
G01X345317Y4890569D01*
G01X364489Y4885271D01*
G01X384300Y4883486D01*
G01X384300Y4883486D01*
G01X404111Y4885271D01*
G01X423283Y4890569D01*
G01X441200Y4899210D01*
G01X457283Y4910914D01*
G01X471015Y4925305D01*
G01X481952Y4941919D01*
G01X489744Y4960221D01*
G01X494137Y4979621D01*
G01X494992Y4999493D01*
G01X492280Y5019199D01*
G01X486089Y5038102D01*
G01X476619Y5055594D01*
G01X464174Y5071111D01*
G01X449155Y5084153D01*
G01X432046Y5094300D01*
G01X449155Y5104447D01*
G01X464174Y5117489D01*
G01X476619Y5133006D01*
G01X486089Y5150498D01*
G01X492280Y5169401D01*
G01X494992Y5189106D01*
G01X494137Y5208979D01*
G01X489744Y5228379D01*
G01X481952Y5246681D01*
G01X471015Y5263295D01*
G01X457283Y5277686D01*
G01X441200Y5289390D01*
G01X423283Y5298031D01*
G01X404111Y5303329D01*
G01X384300Y5305114D01*
G01X364489Y5303329D01*
G01X345317Y5298031D01*
G01X327400Y5289390D01*
G01X311317Y5277686D01*
G01X297585Y5263295D01*
G01X286648Y5246681D01*
G01X278856Y5228379D01*
G01X274463Y5208979D01*
G01X273608Y5189106D01*
G01X276320Y5169401D01*
G01X282510Y5150498D01*
G01X291981Y5133006D01*
G01X304426Y5117489D01*
G01X319445Y5104447D01*
G01X336553Y5094300D01*
G01X319445Y5084153D01*
G01X304426Y5071111D01*
G01X291981Y5055594D01*
G01X282510Y5038102D01*
G01X276320Y5019199D01*
G01X273608Y4999493D01*
G01X35877Y4999493D01*
G01X47630Y5138771D01*
G01X63394Y5278406D01*
G01X83095Y5417540D01*
G01X106716Y5556063D01*
G01X134239Y5693863D01*
G01X165642Y5830831D01*
G01X200900Y5966858D01*
G01X201607Y5969300D01*
G01X548486Y5969300D01*
G01X550466Y5944143D01*
G01X556357Y5919606D01*
G01X566014Y5896292D01*
G01X579199Y5874776D01*
G01X595587Y5855587D01*
G01X614776Y5839199D01*
G01X636292Y5826014D01*
G01X659606Y5816357D01*
G01X684143Y5810466D01*
G01X709300Y5808486D01*
G01X734457Y5810466D01*
G01X758994Y5816357D01*
G01X782308Y5826014D01*
G01X803824Y5839199D01*
G01X823013Y5855587D01*
G01X839401Y5874776D01*
G01X852586Y5896292D01*
G01X862243Y5919606D01*
G01X868134Y5944143D01*
G01X870114Y5969300D01*
G01X868134Y5994457D01*
G01X862243Y6018994D01*
G01X852586Y6042308D01*
G01X839401Y6063824D01*
G01X823013Y6083013D01*
G01X803824Y6099401D01*
G01X782308Y6112586D01*
G01X758994Y6122243D01*
G01X734457Y6128134D01*
G01X709300Y6130114D01*
G01X684143Y6128134D01*
G01X659606Y6122243D01*
G01X636292Y6112586D01*
G01X614776Y6099401D01*
G01X595587Y6083013D01*
G01X579199Y6063824D01*
G01X566014Y6042308D01*
G01X556357Y6018994D01*
G01X550466Y5994457D01*
G01X548486Y5969300D01*
G01X548486Y5969300D01*
G01X201607Y5969300D01*
G01X239984Y6101835D01*
G01X269613Y6194300D01*
G01X1073486Y6194300D01*
G01X1075271Y6174489D01*
G01X1080569Y6155317D01*
G01X1089210Y6137400D01*
G01X1100914Y6121317D01*
G01X1115305Y6107585D01*
G01X1131919Y6096648D01*
G01X1150221Y6088856D01*
G01X1169621Y6084463D01*
G01X1189493Y6083608D01*
G01X1209199Y6086320D01*
G01X1228102Y6092511D01*
G01X1245594Y6101981D01*
G01X1261111Y6114426D01*
G01X1274153Y6129445D01*
G01X1284300Y6146554D01*
G01X1294447Y6129445D01*
G01X1307489Y6114426D01*
G01X1323006Y6101981D01*
G01X1340498Y6092511D01*
G01X1359401Y6086320D01*
G01X1379106Y6083608D01*
G01X1398979Y6084463D01*
G01X1418379Y6088856D01*
G01X1436681Y6096648D01*
G01X1453295Y6107585D01*
G01X1467686Y6121317D01*
G01X1479390Y6137400D01*
G01X1488031Y6155317D01*
G01X1493329Y6174489D01*
G01X1495114Y6194300D01*
G01X1495114Y6194300D01*
G01X1493329Y6214111D01*
G01X1488031Y6233283D01*
G01X1479390Y6251200D01*
G01X1467686Y6267283D01*
G01X1453295Y6281015D01*
G01X1436681Y6291952D01*
G01X1418379Y6299744D01*
G01X1398979Y6304137D01*
G01X1379106Y6304992D01*
G01X1359401Y6302280D01*
G01X1340498Y6296090D01*
G01X1323006Y6286619D01*
G01X1307489Y6274174D01*
G01X1294447Y6259155D01*
G01X1284300Y6242047D01*
G01X1274153Y6259155D01*
G01X1261111Y6274174D01*
G01X1245594Y6286619D01*
G01X1228102Y6296090D01*
G01X1209199Y6302280D01*
G01X1189493Y6304992D01*
G01X1169621Y6304137D01*
G01X1150221Y6299744D01*
G01X1131919Y6291952D01*
G01X1115305Y6281015D01*
G01X1100914Y6267283D01*
G01X1089210Y6251200D01*
G01X1080569Y6233283D01*
G01X1075271Y6214111D01*
G01X1073486Y6194300D01*
G01X269613Y6194300D01*
G01X282864Y6235655D01*
G01X329505Y6368211D01*
G01X379871Y6499397D01*
G01X433920Y6629109D01*
G01X491610Y6757242D01*
G01X552895Y6883696D01*
G01X617725Y7008370D01*
G01X686051Y7131162D01*
G01X757815Y7251977D01*
G01X832963Y7370718D01*
G01X911433Y7487289D01*
G01X993163Y7601598D01*
G01X1078089Y7713554D01*
G01X1155799Y7810205D01*
G01X1601287Y7810205D01*
G01X1604474Y7786334D01*
G01X1611547Y7763314D01*
G01X1622312Y7741771D01*
G01X1636476Y7722295D01*
G01X1653653Y7705415D01*
G01X1673374Y7691593D01*
G01X1695101Y7681205D01*
G01X1718241Y7674536D01*
G01X1742164Y7671765D01*
G01X1766216Y7672971D01*
G01X1789742Y7678118D01*
G01X1812100Y7687068D01*
G01X1832679Y7699575D01*
G01X1850920Y7715299D01*
G01X1866323Y7733812D01*
G01X1878470Y7754606D01*
G01X1887028Y7777117D01*
G01X1891764Y7800729D01*
G01X1892549Y7824799D01*
G01X1889362Y7848669D01*
G01X1882289Y7871690D01*
G01X1871524Y7893232D01*
G01X1857359Y7912708D01*
G01X1857359Y7912708D01*
G01X1840183Y7929588D01*
G01X1820462Y7943410D01*
G01X1798735Y7953798D01*
G01X1775595Y7960468D01*
G01X1751672Y7963238D01*
G01X1727620Y7962033D01*
G01X1704094Y7956885D01*
G01X1681736Y7947936D01*
G01X1661156Y7935428D01*
G01X1642916Y7919704D01*
G01X1627513Y7901192D01*
G01X1615366Y7880397D01*
G01X1606808Y7857886D01*
G01X1602072Y7834274D01*
G01X1601287Y7810205D01*
G01X1155799Y7810205D01*
G01X1166141Y7823068D01*
G01X1257250Y7930051D01*
G01X1351344Y8034420D01*
G01X1448347Y8136090D01*
G01X1548182Y8234981D01*
G01X1650769Y8331014D01*
G01X1706920Y8380677D01*
G01X1898407Y8380677D01*
G01X1900522Y8359724D01*
G01X1906243Y8339457D01*
G01X1915396Y8320491D01*
G01X1927704Y8303402D01*
G01X1942792Y8288711D01*
G01X1960202Y8276863D01*
G01X1979405Y8268218D01*
G01X1999818Y8263039D01*
G01X2020820Y8261483D01*
G01X2041772Y8263597D01*
G01X2054739Y8267258D01*
G01X2131476Y8267258D01*
G01X2134663Y8243387D01*
G01X2141736Y8220367D01*
G01X2152501Y8198824D01*
G01X2166666Y8179348D01*
G01X2183842Y8162468D01*
G01X2203563Y8148646D01*
G01X2225290Y8138258D01*
G01X2248430Y8131589D01*
G01X2272353Y8128818D01*
G01X2296405Y8130024D01*
G01X2319931Y8135171D01*
G01X2342289Y8144121D01*
G01X2362868Y8156628D01*
G01X2381109Y8172353D01*
G01X2396512Y8190865D01*
G01X2408659Y8211659D01*
G01X2417217Y8234170D01*
G01X2421953Y8257782D01*
G01X2422738Y8281852D01*
G01X2419551Y8305722D01*
G01X2412478Y8328743D01*
G01X2401713Y8350285D01*
G01X2387549Y8369762D01*
G01X2387549Y8369762D01*
G01X2370372Y8386641D01*
G01X2350651Y8400463D01*
G01X2328924Y8410851D01*
G01X2305784Y8417521D01*
G01X2281861Y8420291D01*
G01X2257809Y8419086D01*
G01X2234283Y8413938D01*
G01X2211925Y8404989D01*
G01X2191346Y8392481D01*
G01X2173105Y8376757D01*
G01X2157702Y8358245D01*
G01X2145555Y8337450D01*
G01X2136997Y8314939D01*
G01X2132261Y8291327D01*
G01X2131476Y8267258D01*
G01X2054739Y8267258D01*
G01X2062040Y8269318D01*
G01X2081005Y8278472D01*
G01X2098094Y8290780D01*
G01X2112785Y8305868D01*
G01X2124633Y8323278D01*
G01X2133278Y8342481D01*
G01X2138458Y8362893D01*
G01X2140013Y8383895D01*
G01X2137899Y8404848D01*
G01X2132178Y8425115D01*
G01X2123024Y8444081D01*
G01X2110716Y8461169D01*
G01X2110716Y8461169D01*
G01X2095628Y8475861D01*
G01X2078218Y8487709D01*
G01X2059015Y8496354D01*
G01X2038603Y8501533D01*
G01X2017601Y8503089D01*
G01X1996648Y8500974D01*
G01X1976381Y8495253D01*
G01X1957415Y8486100D01*
G01X1940327Y8473792D01*
G01X1925635Y8458704D01*
G01X1913787Y8441294D01*
G01X1905142Y8422091D01*
G01X1899963Y8401678D01*
G01X1898407Y8380677D01*
G01X1706920Y8380677D01*
G01X1756027Y8424111D01*
G01X1863872Y8514200D01*
G01X1974217Y8601208D01*
G01X2086975Y8685065D01*
G01X2202056Y8765706D01*
G01X2319368Y8843064D01*
G01X2438817Y8917080D01*
G01X2560308Y8987694D01*
G01X2683745Y9054849D01*
G01X2809028Y9118492D01*
G01X2936059Y9178573D01*
G01X3064735Y9235043D01*
G01X3194954Y9287857D01*
G01X3326613Y9336973D01*
G01X3459606Y9382353D01*
G01X3593827Y9423959D01*
G01X3729170Y9461759D01*
G01X3865526Y9495722D01*
G01X4002786Y9525822D01*
G01X4002786Y9525822D01*
G01X4002786Y8877300D01*
G01X4004181Y8872093D01*
G01X4007993Y8868281D01*
G01X4013200Y8866886D01*
G01X5613400Y8866886D01*
G01X5618607Y8868281D01*
G01X5622419Y8872093D01*
G01X5623814Y8877300D01*
G01X5623814Y9587508D01*
G01X5762097Y9568060D01*
G01X5899780Y9544741D01*
G01X6036755Y9517567D01*
G01X6172913Y9486561D01*
G01X6308148Y9451747D01*
G01X6442352Y9413152D01*
G01X6575421Y9370807D01*
G01X6707249Y9324744D01*
G01X6837733Y9275001D01*
G01X6966770Y9221616D01*
G01X7094258Y9164632D01*
G01X7220097Y9104093D01*
G01X7344188Y9040047D01*
G01X7466433Y8972544D01*
G01X7586735Y8901638D01*
G01X7705001Y8827384D01*
G01X7821137Y8749841D01*
G01X7935052Y8669070D01*
G01X8046655Y8585135D01*
G01X8155859Y8498101D01*
G01X8262578Y8408037D01*
G01X8366728Y8315015D01*
G01X8468227Y8219107D01*
G01X8566995Y8120388D01*
G01X8662955Y8018938D01*
G01X8756030Y7914834D01*
G01X8846147Y7808161D01*
G01X8933235Y7699000D01*
G01X9017227Y7587439D01*
G01X9098055Y7473565D01*
G01X9175657Y7357469D01*
G01X9249970Y7239240D01*
G01X9320936Y7118973D01*
G01X9388501Y6996762D01*
G01X9452609Y6872704D01*
G01X9513212Y6746895D01*
G01X9570260Y6619436D01*
G01X9623710Y6490426D01*
G01X9673519Y6359967D01*
G01X9719648Y6228162D01*
G01X9762060Y6095114D01*
G01X9800722Y5960929D01*
G01X9835605Y5825712D01*
G01X9866679Y5689570D01*
G01X9893922Y5552609D01*
G01X9917311Y5414937D01*
G01X9936827Y5276664D01*
G01X9952457Y5137897D01*
G01X9964186Y4998747D01*
G01X9964187Y1499956D01*
G01X9964208Y1498750D01*
G01X9964870Y1421630D01*
G01X9961473Y1344582D01*
G01X9954026Y1267820D01*
G01X9942550Y1191556D01*
G01X9927077Y1116001D01*
G01X9907650Y1041365D01*
G01X9884322Y967855D01*
G01X9857158Y895675D01*
G01X9826233Y825024D01*
G01X9791634Y756097D01*
G01X9753455Y689088D01*
G01X9711803Y624180D01*
G01X9666794Y561553D01*
G01X9618551Y501382D01*
G01X9567208Y443833D01*
G01X9512909Y389066D01*
G01X9455803Y337231D01*
G01X9396048Y288474D01*
G01X9333810Y242928D01*
G01X9269262Y200721D01*
G01X9202583Y161969D01*
G01X9133956Y126779D01*
G01X9063573Y95249D01*
G01X8991628Y67466D01*
G01X8918321Y43508D01*
G01X8843855Y23441D01*
G01X8768436Y7320D01*
G01X8692273Y-4810D01*
G01X8615577Y-12916D01*
G01X8538561Y-16974D01*
G01X8461439Y-16974D01*
G01X8384423Y-12916D01*
G01X8307727Y-4810D01*
G01X8231564Y7320D01*
G01X8156145Y23441D01*
G01X8081679Y43508D01*
G01X8008372Y67466D01*
G01X7936427Y95249D01*
G01X7866044Y126779D01*
G01X7797417Y161969D01*
G01X7730738Y200721D01*
G01X7666190Y242928D01*
G01X7603952Y288474D01*
G01X7544197Y337231D01*
G01X7487091Y389066D01*
G01X7432792Y443833D01*
G01X7381449Y501382D01*
G01X7333207Y561553D01*
G01X7288197Y624180D01*
G01X7246545Y689088D01*
G01X7208366Y756097D01*
G01X7173767Y825024D01*
G01X7142842Y895675D01*
G01X7134452Y917971D01*
G01X7464882Y917971D01*
G01X7465836Y902644D01*
G01X7470290Y887947D01*
G01X7478006Y874669D01*
G01X7488568Y863522D01*
G01X7501411Y855103D01*
G01X7515847Y849864D01*
G01X7531100Y848086D01*
G01X7546353Y849864D01*
G01X7560789Y855103D01*
G01X7573632Y863522D01*
G01X7584194Y874669D01*
G01X7591910Y887947D01*
G01X7596364Y902644D01*
G01X7597318Y917971D01*
G01X7594721Y933106D01*
G01X7588712Y947239D01*
G01X7579614Y959610D01*
G01X7579614Y2319350D01*
G01X7588712Y2331721D01*
G01X7594721Y2345853D01*
G01X7597318Y2360989D01*
G01X7596364Y2376316D01*
G01X7591910Y2391012D01*
G01X7584194Y2404290D01*
G01X7573632Y2415438D01*
G01X7560789Y2423857D01*
G01X7546353Y2429096D01*
G01X7531100Y2430874D01*
G01X7515847Y2429096D01*
G01X7501411Y2423857D01*
G01X7488568Y2415438D01*
G01X7478006Y2404290D01*
G01X7470290Y2391012D01*
G01X7465836Y2376316D01*
G01X7464882Y2360989D01*
G01X7467479Y2345853D01*
G01X7473488Y2331721D01*
G01X7482586Y2319350D01*
G01X7482586Y959610D01*
G01X7482586Y959610D01*
G01X7473488Y947239D01*
G01X7467479Y933106D01*
G01X7464882Y917971D01*
G01X7134452Y917971D01*
G01X7115679Y967855D01*
G01X7092351Y1041365D01*
G01X7072923Y1116001D01*
G01X7057450Y1191556D01*
G01X7045974Y1267820D01*
G01X7038527Y1344582D01*
G01X7035130Y1421630D01*
G01X7035792Y1498750D01*
G01X7035792Y1498750D01*
G01X7035813Y1499956D01*
G01X7033817Y1590091D01*
G01X7027832Y1680049D01*
G01X7017870Y1769654D01*
G01X7003950Y1858730D01*
G01X6986100Y1947103D01*
G01X6964355Y2034599D01*
G01X6938758Y2121046D01*
G01X6909358Y2206275D01*
G01X6876214Y2290118D01*
G01X6839390Y2372412D01*
G01X6798958Y2452995D01*
G01X6754999Y2531709D01*
G01X6707597Y2608399D01*
G01X6656847Y2682916D01*
G01X6602847Y2755112D01*
G01X6545703Y2824847D01*
G01X6485528Y2891984D01*
G01X6422440Y2956390D01*
G01X6356562Y3017940D01*
G01X6288023Y3076513D01*
G01X6216958Y3131994D01*
G01X6143507Y3184274D01*
G01X6067813Y3233251D01*
G01X5990025Y3278828D01*
G01X5910295Y3320917D01*
G01X5828780Y3359434D01*
G01X5745639Y3394305D01*
G01X5661036Y3425460D01*
G01X5842000Y3425460D01*
G01X5853067Y3427213D01*
G01X5863051Y3432300D01*
G01X5870974Y3440223D01*
G01X5876061Y3450207D01*
G01X5877814Y3461274D01*
G01X5877814Y3568969D01*
G01X5879102Y3578487D01*
G01X5879102Y3683000D01*
G01X5877814Y3692517D01*
G01X5877814Y3794696D01*
G01X6486937Y3794696D01*
G01X6489054Y3780484D01*
G01X6494182Y3767061D01*
G01X6502081Y3755058D01*
G01X6512380Y3745038D01*
G01X6524595Y3737472D01*
G01X6538154Y3732715D01*
G01X6552419Y3730991D01*
G01X6566721Y3732379D01*
G01X6580388Y3736815D01*
G01X6592778Y3744092D01*
G01X6603310Y3753866D01*
G01X7221009Y3753866D01*
G01X7347966Y3626909D01*
G01X7347966Y2094810D01*
G01X7337195Y2082901D01*
G01X7329601Y2068752D01*
G01X7325632Y2053192D01*
G01X7325519Y2037135D01*
G01X7329269Y2021521D01*
G01X7336662Y2007266D01*
G01X7347265Y1995206D01*
G01X7360455Y1986049D01*
G01X7375460Y1980330D01*
G01X7391400Y1978386D01*
G01X7407340Y1980330D01*
G01X7422345Y1986049D01*
G01X7435535Y1995206D01*
G01X7446138Y2007266D01*
G01X7453531Y2021521D01*
G01X7457281Y2037135D01*
G01X7457168Y2053192D01*
G01X7453199Y2068752D01*
G01X7445605Y2082901D01*
G01X7434834Y2094810D01*
G01X7434834Y2574529D01*
G01X7782382Y2574529D01*
G01X7784979Y2559394D01*
G01X7790988Y2545261D01*
G01X7800086Y2532890D01*
G01X7800086Y1295400D01*
G01X7800086Y1295400D01*
G01X7801739Y1282844D01*
G01X7806586Y1271143D01*
G01X7814295Y1261095D01*
G01X7934727Y1140664D01*
G01X7937298Y1124571D01*
G01X7943716Y1109591D01*
G01X7953594Y1096630D01*
G01X7966335Y1086468D01*
G01X7981169Y1079721D01*
G01X7997201Y1076795D01*
G01X8013462Y1077867D01*
G01X8028971Y1082874D01*
G01X8042790Y1091511D01*
G01X8054086Y1103258D01*
G01X8054086Y1073910D01*
G01X8044988Y1061539D01*
G01X8038979Y1047406D01*
G01X8036382Y1032271D01*
G01X8037336Y1016944D01*
G01X8041790Y1002247D01*
G01X8049506Y988969D01*
G01X8060068Y977822D01*
G01X8072911Y969403D01*
G01X8087347Y964164D01*
G01X8102600Y962386D01*
G01X8117853Y964164D01*
G01X8132289Y969403D01*
G01X8145132Y977822D01*
G01X8155694Y988969D01*
G01X8163410Y1002247D01*
G01X8167864Y1016944D01*
G01X8168818Y1032271D01*
G01X8166221Y1047406D01*
G01X8160212Y1061539D01*
G01X8151114Y1073910D01*
G01X8151114Y1409700D01*
G01X8149461Y1422256D01*
G01X8144614Y1433957D01*
G01X8136905Y1444005D01*
G01X8036814Y1544095D01*
G01X8036814Y1719391D01*
G01X8040167Y1710344D01*
G01X8045812Y1702521D01*
G01X8053341Y1696489D01*
G01X8062207Y1692685D01*
G01X8071766Y1691386D01*
G01X8229600Y1691386D01*
G01X8240667Y1693139D01*
G01X8250651Y1698226D01*
G01X8258574Y1706149D01*
G01X8263661Y1716133D01*
G01X8265414Y1727200D01*
G01X8265414Y3035300D01*
G01X8263661Y3046367D01*
G01X8258574Y3056351D01*
G01X8250651Y3064274D01*
G01X8240667Y3069361D01*
G01X8229600Y3071114D01*
G01X8071766Y3071114D01*
G01X8060699Y3069361D01*
G01X8050715Y3064274D01*
G01X8042792Y3056351D01*
G01X8037705Y3046367D01*
G01X8035952Y3035300D01*
G01X8035952Y2624218D01*
G01X8024570Y2633616D01*
G01X8011391Y2640264D01*
G01X7997068Y2643832D01*
G01X7982311Y2644143D01*
G01X7967850Y2641182D01*
G01X7954402Y2635096D01*
G01X7942634Y2626185D01*
G01X7933129Y2614892D01*
G01X7926357Y2601777D01*
G01X7922654Y2587488D01*
G01X7922203Y2572734D01*
G01X7925028Y2558246D01*
G01X7930987Y2544742D01*
G01X7939786Y2532890D01*
G01X7939786Y1524000D01*
G01X7941439Y1511444D01*
G01X7946286Y1499743D01*
G01X7953995Y1489695D01*
G01X8054086Y1389605D01*
G01X8054086Y1182742D01*
G01X8043971Y1193508D01*
G01X8031723Y1201768D01*
G01X8017950Y1207111D01*
G01X8003336Y1209273D01*
G01X7897114Y1315495D01*
G01X7897114Y2532890D01*
G01X7906212Y2545261D01*
G01X7912221Y2559394D01*
G01X7914818Y2574529D01*
G01X7913864Y2589856D01*
G01X7909410Y2604553D01*
G01X7901694Y2617831D01*
G01X7891132Y2628978D01*
G01X7878289Y2637397D01*
G01X7863853Y2642636D01*
G01X7848600Y2644414D01*
G01X7833347Y2642636D01*
G01X7818911Y2637397D01*
G01X7806068Y2628978D01*
G01X7795506Y2617831D01*
G01X7787790Y2604553D01*
G01X7783336Y2589856D01*
G01X7782382Y2574529D01*
G01X7434834Y2574529D01*
G01X7434834Y3555100D01*
G01X8948586Y3555100D01*
G01X8949996Y3545152D01*
G01X8954113Y3535987D01*
G01X8960613Y3528326D01*
G01X8968986Y3522772D01*
G01X8978572Y3519763D01*
G01X8966435Y3503299D01*
G01X8957249Y3485024D01*
G01X8951278Y3465461D01*
G01X8948693Y3445171D01*
G01X8949567Y3424736D01*
G01X8953876Y3404741D01*
G01X8961497Y3385760D01*
G01X8972210Y3368336D01*
G01X8985709Y3352969D01*
G01X9001606Y3340100D01*
G01X8985141Y3326681D01*
G01X8971279Y3310586D01*
G01X8960451Y3292313D01*
G01X8952991Y3272425D01*
G01X8949129Y3251538D01*
G01X8948985Y3230298D01*
G01X8952563Y3209360D01*
G01X8959752Y3189373D01*
G01X8970331Y3170954D01*
G01X8983972Y3154672D01*
G01X9000254Y3141031D01*
G01X9018673Y3130452D01*
G01X9038660Y3123263D01*
G01X9059598Y3119685D01*
G01X9080838Y3119829D01*
G01X9101725Y3123691D01*
G01X9121613Y3131151D01*
G01X9139886Y3141979D01*
G01X9155981Y3155841D01*
G01X9169400Y3172306D01*
G01X9178746Y3160239D01*
G01X9189538Y3149446D01*
G01X9201606Y3140100D01*
G01X9184639Y3126191D01*
G01X9170468Y3109444D01*
G01X9159559Y3090409D01*
G01X9152272Y3069715D01*
G01X9148847Y3048045D01*
G01X9149398Y3026113D01*
G01X9153907Y3004642D01*
G01X9162223Y2984340D01*
G01X9174074Y2965878D01*
G01X9189069Y2949862D01*
G01X9206713Y2936823D01*
G01X9226423Y2927189D01*
G01X9247551Y2921279D01*
G01X9269400Y2919287D01*
G01X9269400Y2919287D01*
G01X9291248Y2921279D01*
G01X9312376Y2927189D01*
G01X9332087Y2936823D01*
G01X9349731Y2949862D01*
G01X9364725Y2965878D01*
G01X9376576Y2984340D01*
G01X9384893Y3004642D01*
G01X9389401Y3026113D01*
G01X9389952Y3048045D01*
G01X9386528Y3069715D01*
G01X9379241Y3090409D01*
G01X9368332Y3109444D01*
G01X9354160Y3126191D01*
G01X9337194Y3140100D01*
G01X9352480Y3152386D01*
G01X9365576Y3166983D01*
G01X9376139Y3183507D01*
G01X9383889Y3201522D01*
G01X9388622Y3220554D01*
G01X9390214Y3240100D01*
G01X9388622Y3259647D01*
G01X9383889Y3278678D01*
G01X9376139Y3296693D01*
G01X9365576Y3313217D01*
G01X9352480Y3327814D01*
G01X9337194Y3340100D01*
G01X9353659Y3353519D01*
G01X9367521Y3369614D01*
G01X9378349Y3387887D01*
G01X9385809Y3407775D01*
G01X9389671Y3428662D01*
G01X9389815Y3449902D01*
G01X9386237Y3470840D01*
G01X9379048Y3490827D01*
G01X9368469Y3509246D01*
G01X9354828Y3525528D01*
G01X9338546Y3539169D01*
G01X9320127Y3549748D01*
G01X9300140Y3556937D01*
G01X9279202Y3560515D01*
G01X9257962Y3560371D01*
G01X9237075Y3556509D01*
G01X9217187Y3549049D01*
G01X9198914Y3538221D01*
G01X9182819Y3524359D01*
G01X9169400Y3507894D01*
G01X9160228Y3519763D01*
G01X9169814Y3522772D01*
G01X9178187Y3528326D01*
G01X9184688Y3535987D01*
G01X9188805Y3545152D01*
G01X9190214Y3555100D01*
G01X9190214Y3725099D01*
G01X9188461Y3736166D01*
G01X9183374Y3746150D01*
G01X9175451Y3754073D01*
G01X9165467Y3759160D01*
G01X9154400Y3760913D01*
G01X8984400Y3760913D01*
G01X8973333Y3759160D01*
G01X8963349Y3754073D01*
G01X8955426Y3746150D01*
G01X8950339Y3736166D01*
G01X8948586Y3725099D01*
G01X8948586Y3555100D01*
G01X7434834Y3555100D01*
G01X7434834Y3644900D01*
G01X7433354Y3656142D01*
G01X7429015Y3666617D01*
G01X7422112Y3675612D01*
G01X7269712Y3828012D01*
G01X7267511Y3830066D01*
G01X9462190Y3830066D01*
G01X9474099Y3819295D01*
G01X9488248Y3811701D01*
G01X9503808Y3807732D01*
G01X9519865Y3807619D01*
G01X9535479Y3811369D01*
G01X9549734Y3818762D01*
G01X9561794Y3829365D01*
G01X9570951Y3842555D01*
G01X9576670Y3857560D01*
G01X9578614Y3873500D01*
G01X9576670Y3889440D01*
G01X9570951Y3904445D01*
G01X9561794Y3917635D01*
G01X9549734Y3928238D01*
G01X9535479Y3935631D01*
G01X9519865Y3939381D01*
G01X9503808Y3939268D01*
G01X9488248Y3935299D01*
G01X9474099Y3927705D01*
G01X9462190Y3916934D01*
G01X9328654Y3916934D01*
G01X9334537Y3930712D01*
G01X9337178Y3945459D01*
G01X9336441Y3960422D01*
G01X9332365Y3974839D01*
G01X9325156Y3987972D01*
G01X9315183Y3999151D01*
G01X9302955Y4007807D01*
G01X9289096Y4013497D01*
G01X9274313Y4015931D01*
G01X9259361Y4014985D01*
G01X9245004Y4010706D01*
G01X9231973Y4003314D01*
G01X8790473Y4003314D01*
G01X8791031Y4018124D01*
G01X8788286Y4032688D01*
G01X8782375Y4046279D01*
G01X8773593Y4058218D01*
G01X8762378Y4067908D01*
G01X8749292Y4074865D01*
G01X8734988Y4078742D01*
G01X8720179Y4079346D01*
G01X8704812Y4094712D01*
G01X8697396Y4100658D01*
G01X8688863Y4104848D01*
G01X8689392Y4120221D01*
G01X8686365Y4135303D01*
G01X8679945Y4149281D01*
G01X8670477Y4161404D01*
G01X8658470Y4171019D01*
G01X8644571Y4177610D01*
G01X8629528Y4180821D01*
G01X8614150Y4180480D01*
G01X8606177Y4182838D01*
G01X8597900Y4183634D01*
G01X6603310Y4183634D01*
G01X6592778Y4193408D01*
G01X6580388Y4200685D01*
G01X6566721Y4205121D01*
G01X6552419Y4206509D01*
G01X6538154Y4204785D01*
G01X6524595Y4200028D01*
G01X6512380Y4192462D01*
G01X6512380Y4192462D01*
G01X6502081Y4182442D01*
G01X6494182Y4170439D01*
G01X6489054Y4157016D01*
G01X6486937Y4142804D01*
G01X6487932Y4128470D01*
G01X6491991Y4114686D01*
G01X6498923Y4102100D01*
G01X6491289Y4087762D01*
G01X6487370Y4071998D01*
G01X6487401Y4055755D01*
G01X6491379Y4040006D01*
G01X6499067Y4025697D01*
G01X6491623Y4012008D01*
G01X6487580Y3996960D01*
G01X6487159Y3981384D01*
G01X6490384Y3966139D01*
G01X6497078Y3952068D01*
G01X6506870Y3939948D01*
G01X6519220Y3930447D01*
G01X6506896Y3920971D01*
G01X6497116Y3908885D01*
G01X6490419Y3894855D01*
G01X6487172Y3879652D01*
G01X6487554Y3864110D01*
G01X6491544Y3849084D01*
G01X6498923Y3835400D01*
G01X6491991Y3822814D01*
G01X6487932Y3809030D01*
G01X6486937Y3794696D01*
G01X5877814Y3794696D01*
G01X5877814Y4419300D01*
G01X7825586Y4419300D01*
G01X7827566Y4394143D01*
G01X7833457Y4369606D01*
G01X7843114Y4346292D01*
G01X7856299Y4324776D01*
G01X7872687Y4305587D01*
G01X7891876Y4289199D01*
G01X7913392Y4276014D01*
G01X7936706Y4266357D01*
G01X7961243Y4260466D01*
G01X7986400Y4258486D01*
G01X8011557Y4260466D01*
G01X8036094Y4266357D01*
G01X8059408Y4276014D01*
G01X8080924Y4289199D01*
G01X8100113Y4305587D01*
G01X8116501Y4324776D01*
G01X8129686Y4346292D01*
G01X8139343Y4369606D01*
G01X8145234Y4394143D01*
G01X8147214Y4419300D01*
G01X9175586Y4419300D01*
G01X9177566Y4394143D01*
G01X9183457Y4369606D01*
G01X9193114Y4346292D01*
G01X9206299Y4324776D01*
G01X9222687Y4305587D01*
G01X9241876Y4289199D01*
G01X9263392Y4276014D01*
G01X9286706Y4266357D01*
G01X9311243Y4260466D01*
G01X9336400Y4258486D01*
G01X9361557Y4260466D01*
G01X9386094Y4266357D01*
G01X9409408Y4276014D01*
G01X9430924Y4289199D01*
G01X9450113Y4305587D01*
G01X9466501Y4324776D01*
G01X9479686Y4346292D01*
G01X9489343Y4369606D01*
G01X9495234Y4394143D01*
G01X9497214Y4419300D01*
G01X9495234Y4444457D01*
G01X9489343Y4468994D01*
G01X9479686Y4492308D01*
G01X9466501Y4513824D01*
G01X9450113Y4533013D01*
G01X9430924Y4549401D01*
G01X9409408Y4562586D01*
G01X9386094Y4572243D01*
G01X9361557Y4578134D01*
G01X9336400Y4580114D01*
G01X9311243Y4578134D01*
G01X9286706Y4572243D01*
G01X9263392Y4562586D01*
G01X9241876Y4549401D01*
G01X9222687Y4533013D01*
G01X9206299Y4513824D01*
G01X9193114Y4492308D01*
G01X9183457Y4468994D01*
G01X9177566Y4444457D01*
G01X9175586Y4419300D01*
G01X9175586Y4419300D01*
G01X8147214Y4419300D01*
G01X8145234Y4444457D01*
G01X8139343Y4468994D01*
G01X8129686Y4492308D01*
G01X8116501Y4513824D01*
G01X8100113Y4533013D01*
G01X8080924Y4549401D01*
G01X8059408Y4562586D01*
G01X8036094Y4572243D01*
G01X8011557Y4578134D01*
G01X7986400Y4580114D01*
G01X7961243Y4578134D01*
G01X7936706Y4572243D01*
G01X7913392Y4562586D01*
G01X7891876Y4549401D01*
G01X7872687Y4533013D01*
G01X7856299Y4513824D01*
G01X7843114Y4492308D01*
G01X7833457Y4468994D01*
G01X7827566Y4444457D01*
G01X7825586Y4419300D01*
G01X7825586Y4419300D01*
G01X5877814Y4419300D01*
G01X5877814Y6134100D01*
G01X6974586Y6134100D01*
G01X6974586Y4543482D01*
G01X6976339Y4532415D01*
G01X6981426Y4522431D01*
G01X6989349Y4514508D01*
G01X6999333Y4509421D01*
G01X7010400Y4507668D01*
G01X7302500Y4507668D01*
G01X7313567Y4509421D01*
G01X7323551Y4514508D01*
G01X7331474Y4522431D01*
G01X7336561Y4532415D01*
G01X7338314Y4543482D01*
G01X7338314Y5189106D01*
G01X7550708Y5189106D01*
G01X7553420Y5169401D01*
G01X7559610Y5150498D01*
G01X7569081Y5133006D01*
G01X7581526Y5117489D01*
G01X7596545Y5104447D01*
G01X7613653Y5094300D01*
G01X7596545Y5084153D01*
G01X7581526Y5071111D01*
G01X7569081Y5055594D01*
G01X7559610Y5038102D01*
G01X7553420Y5019199D01*
G01X7550708Y4999493D01*
G01X7551563Y4979621D01*
G01X7555956Y4960221D01*
G01X7563748Y4941919D01*
G01X7574685Y4925305D01*
G01X7588417Y4910914D01*
G01X7604500Y4899210D01*
G01X7622417Y4890569D01*
G01X7641589Y4885271D01*
G01X7661400Y4883486D01*
G01X7661400Y4883486D01*
G01X7681211Y4885271D01*
G01X7700383Y4890569D01*
G01X7718300Y4899210D01*
G01X7734383Y4910914D01*
G01X7748115Y4925305D01*
G01X7759052Y4941919D01*
G01X7766844Y4960221D01*
G01X7771237Y4979621D01*
G01X7772092Y4999493D01*
G01X7769380Y5019199D01*
G01X7763189Y5038102D01*
G01X7753719Y5055594D01*
G01X7741274Y5071111D01*
G01X7726255Y5084153D01*
G01X7709146Y5094300D01*
G01X7726255Y5104447D01*
G01X7741274Y5117489D01*
G01X7753719Y5133006D01*
G01X7763189Y5150498D01*
G01X7769380Y5169401D01*
G01X7772092Y5189106D01*
G01X7771237Y5208979D01*
G01X7766844Y5228379D01*
G01X7759052Y5246681D01*
G01X7748115Y5263295D01*
G01X7734383Y5277686D01*
G01X7718300Y5289390D01*
G01X7700383Y5298031D01*
G01X7681211Y5303329D01*
G01X7661400Y5305114D01*
G01X7641589Y5303329D01*
G01X7622417Y5298031D01*
G01X7604500Y5289390D01*
G01X7588417Y5277686D01*
G01X7574685Y5263295D01*
G01X7563748Y5246681D01*
G01X7555956Y5228379D01*
G01X7551563Y5208979D01*
G01X7550708Y5189106D01*
G01X7338314Y5189106D01*
G01X7338314Y5969300D01*
G01X7825586Y5969300D01*
G01X7827566Y5944143D01*
G01X7833457Y5919606D01*
G01X7843114Y5896292D01*
G01X7856299Y5874776D01*
G01X7872687Y5855587D01*
G01X7891876Y5839199D01*
G01X7913392Y5826014D01*
G01X7936706Y5816357D01*
G01X7961243Y5810466D01*
G01X7986400Y5808486D01*
G01X8011557Y5810466D01*
G01X8036094Y5816357D01*
G01X8059408Y5826014D01*
G01X8080924Y5839199D01*
G01X8100113Y5855587D01*
G01X8116501Y5874776D01*
G01X8129686Y5896292D01*
G01X8139343Y5919606D01*
G01X8145234Y5944143D01*
G01X8147214Y5969300D01*
G01X9175586Y5969300D01*
G01X9177566Y5944143D01*
G01X9183457Y5919606D01*
G01X9193114Y5896292D01*
G01X9206299Y5874776D01*
G01X9222687Y5855587D01*
G01X9241876Y5839199D01*
G01X9263392Y5826014D01*
G01X9286706Y5816357D01*
G01X9311243Y5810466D01*
G01X9336400Y5808486D01*
G01X9361557Y5810466D01*
G01X9386094Y5816357D01*
G01X9409408Y5826014D01*
G01X9430924Y5839199D01*
G01X9450113Y5855587D01*
G01X9466501Y5874776D01*
G01X9479686Y5896292D01*
G01X9489343Y5919606D01*
G01X9495234Y5944143D01*
G01X9497214Y5969300D01*
G01X9495234Y5994457D01*
G01X9489343Y6018994D01*
G01X9479686Y6042308D01*
G01X9466501Y6063824D01*
G01X9450113Y6083013D01*
G01X9430924Y6099401D01*
G01X9409408Y6112586D01*
G01X9386094Y6122243D01*
G01X9361557Y6128134D01*
G01X9336400Y6130114D01*
G01X9311243Y6128134D01*
G01X9286706Y6122243D01*
G01X9263392Y6112586D01*
G01X9241876Y6099401D01*
G01X9222687Y6083013D01*
G01X9206299Y6063824D01*
G01X9193114Y6042308D01*
G01X9183457Y6018994D01*
G01X9177566Y5994457D01*
G01X9175586Y5969300D01*
G01X9175586Y5969300D01*
G01X8147214Y5969300D01*
G01X8145234Y5994457D01*
G01X8139343Y6018994D01*
G01X8129686Y6042308D01*
G01X8116501Y6063824D01*
G01X8100113Y6083013D01*
G01X8080924Y6099401D01*
G01X8059408Y6112586D01*
G01X8036094Y6122243D01*
G01X8011557Y6128134D01*
G01X7986400Y6130114D01*
G01X7961243Y6128134D01*
G01X7936706Y6122243D01*
G01X7913392Y6112586D01*
G01X7891876Y6099401D01*
G01X7872687Y6083013D01*
G01X7856299Y6063824D01*
G01X7843114Y6042308D01*
G01X7833457Y6018994D01*
G01X7827566Y5994457D01*
G01X7825586Y5969300D01*
G01X7825586Y5969300D01*
G01X7338314Y5969300D01*
G01X7338314Y6134100D01*
G01X7336561Y6145167D01*
G01X7331474Y6155151D01*
G01X7323551Y6163074D01*
G01X7313567Y6168161D01*
G01X7302500Y6169914D01*
G01X7010400Y6169914D01*
G01X7010400Y6169914D01*
G01X6999333Y6168161D01*
G01X6989349Y6163074D01*
G01X6981426Y6155151D01*
G01X6976339Y6145167D01*
G01X6974586Y6134100D01*
G01X5877814Y6134100D01*
G01X5877814Y6194300D01*
G01X8350586Y6194300D01*
G01X8352371Y6174489D01*
G01X8357669Y6155317D01*
G01X8366310Y6137400D01*
G01X8378014Y6121317D01*
G01X8392405Y6107585D01*
G01X8409019Y6096648D01*
G01X8427321Y6088856D01*
G01X8446721Y6084463D01*
G01X8466593Y6083608D01*
G01X8486299Y6086320D01*
G01X8505202Y6092511D01*
G01X8522694Y6101981D01*
G01X8538211Y6114426D01*
G01X8551253Y6129445D01*
G01X8561400Y6146554D01*
G01X8571547Y6129445D01*
G01X8584589Y6114426D01*
G01X8600106Y6101981D01*
G01X8617598Y6092511D01*
G01X8636501Y6086320D01*
G01X8656206Y6083608D01*
G01X8676079Y6084463D01*
G01X8695479Y6088856D01*
G01X8713781Y6096648D01*
G01X8730395Y6107585D01*
G01X8744786Y6121317D01*
G01X8756490Y6137400D01*
G01X8765131Y6155317D01*
G01X8770429Y6174489D01*
G01X8772214Y6194300D01*
G01X8772214Y6194300D01*
G01X8770429Y6214111D01*
G01X8765131Y6233283D01*
G01X8756490Y6251200D01*
G01X8744786Y6267283D01*
G01X8730395Y6281015D01*
G01X8713781Y6291952D01*
G01X8695479Y6299744D01*
G01X8676079Y6304137D01*
G01X8656206Y6304992D01*
G01X8636501Y6302280D01*
G01X8617598Y6296090D01*
G01X8600106Y6286619D01*
G01X8584589Y6274174D01*
G01X8571547Y6259155D01*
G01X8561400Y6242047D01*
G01X8551253Y6259155D01*
G01X8538211Y6274174D01*
G01X8522694Y6286619D01*
G01X8505202Y6296090D01*
G01X8486299Y6302280D01*
G01X8466593Y6304992D01*
G01X8446721Y6304137D01*
G01X8427321Y6299744D01*
G01X8409019Y6291952D01*
G01X8392405Y6281015D01*
G01X8378014Y6267283D01*
G01X8366310Y6251200D01*
G01X8357669Y6233283D01*
G01X8352371Y6214111D01*
G01X8350586Y6194300D01*
G01X5877814Y6194300D01*
G01X5877814Y7841385D01*
G01X7982372Y7841385D01*
G01X7983693Y7817339D01*
G01X7988953Y7793838D01*
G01X7998010Y7771523D01*
G01X8010616Y7751004D01*
G01X8026428Y7732839D01*
G01X8045014Y7717525D01*
G01X8065866Y7705479D01*
G01X8088418Y7697029D01*
G01X8112052Y7692406D01*
G01X8136125Y7691736D01*
G01X8159980Y7695038D01*
G01X8182967Y7702221D01*
G01X8204457Y7713090D01*
G01X8223865Y7727348D01*
G01X8240662Y7744605D01*
G01X8240662Y7744605D01*
G01X8254390Y7764392D01*
G01X8264673Y7786169D01*
G01X8271231Y7809341D01*
G01X8273887Y7833276D01*
G01X8272566Y7857323D01*
G01X8267306Y7880824D01*
G01X8258249Y7903138D01*
G01X8245643Y7923657D01*
G01X8229831Y7941822D01*
G01X8211245Y7957136D01*
G01X8190392Y7969183D01*
G01X8167841Y7977633D01*
G01X8144206Y7982255D01*
G01X8120133Y7982925D01*
G01X8096278Y7979623D01*
G01X8073292Y7972440D01*
G01X8051802Y7961571D01*
G01X8032393Y7947314D01*
G01X8015596Y7930056D01*
G01X8001869Y7910269D01*
G01X7991586Y7888493D01*
G01X7985027Y7865321D01*
G01X7982372Y7841385D01*
G01X5877814Y7841385D01*
G01X5877814Y7937500D01*
G01X5876061Y7948567D01*
G01X5870974Y7958551D01*
G01X5863051Y7966474D01*
G01X5853067Y7971561D01*
G01X5842000Y7973314D01*
G01X4303014Y7973314D01*
G01X4303014Y8382000D01*
G01X4891786Y8382000D01*
G01X4891786Y8051800D01*
G01X4893181Y8046593D01*
G01X4896993Y8042781D01*
G01X4902200Y8041386D01*
G01X5765800Y8041386D01*
G01X5771007Y8042781D01*
G01X5774819Y8046593D01*
G01X5776214Y8051800D01*
G01X5776214Y8286526D01*
G01X7442143Y8286526D01*
G01X7443463Y8262479D01*
G01X7448724Y8238979D01*
G01X7457781Y8216664D01*
G01X7470387Y8196145D01*
G01X7486198Y8177980D01*
G01X7504784Y8162666D01*
G01X7525637Y8150619D01*
G01X7548188Y8142169D01*
G01X7571823Y8137547D01*
G01X7595896Y8136877D01*
G01X7619751Y8140179D01*
G01X7642737Y8147362D01*
G01X7664228Y8158231D01*
G01X7683636Y8172488D01*
G01X7700433Y8189746D01*
G01X7700433Y8189746D01*
G01X7714160Y8209533D01*
G01X7724443Y8231310D01*
G01X7731002Y8254482D01*
G01X7733657Y8278417D01*
G01X7732337Y8302463D01*
G01X7727076Y8325964D01*
G01X7718019Y8348279D01*
G01X7705413Y8368798D01*
G01X7689602Y8386963D01*
G01X7680066Y8394820D01*
G01X7722546Y8394820D01*
G01X7724569Y8373858D01*
G01X7730201Y8353566D01*
G01X7739271Y8334560D01*
G01X7751504Y8317418D01*
G01X7766527Y8302660D01*
G01X7783885Y8290736D01*
G01X7803050Y8282007D01*
G01X7823440Y8276738D01*
G01X7844435Y8275090D01*
G01X7865396Y8277113D01*
G01X7885689Y8282745D01*
G01X7904694Y8291815D01*
G01X7921836Y8304048D01*
G01X7936594Y8319072D01*
G01X7936594Y8319072D01*
G01X7948518Y8336430D01*
G01X7957247Y8355595D01*
G01X7962516Y8375984D01*
G01X7964164Y8396979D01*
G01X7962141Y8417941D01*
G01X7956509Y8438233D01*
G01X7947439Y8457239D01*
G01X7935206Y8474381D01*
G01X7920182Y8489138D01*
G01X7902824Y8501063D01*
G01X7883660Y8509792D01*
G01X7863270Y8515060D01*
G01X7842275Y8516708D01*
G01X7821313Y8514685D01*
G01X7801021Y8509053D01*
G01X7782015Y8499983D01*
G01X7764873Y8487750D01*
G01X7750116Y8472727D01*
G01X7738191Y8455369D01*
G01X7729462Y8436204D01*
G01X7724194Y8415814D01*
G01X7722546Y8394820D01*
G01X7680066Y8394820D01*
G01X7671016Y8402277D01*
G01X7650163Y8414324D01*
G01X7627611Y8422773D01*
G01X7603977Y8427396D01*
G01X7579904Y8428066D01*
G01X7556049Y8424764D01*
G01X7533063Y8417581D01*
G01X7511572Y8406712D01*
G01X7492164Y8392454D01*
G01X7475367Y8375197D01*
G01X7461640Y8355410D01*
G01X7451356Y8333633D01*
G01X7444798Y8310461D01*
G01X7442143Y8286526D01*
G01X5776214Y8286526D01*
G01X5776214Y8382000D01*
G01X5774819Y8387207D01*
G01X5771007Y8391019D01*
G01X5765800Y8392414D01*
G01X4902200Y8392414D01*
G01X4902200Y8392414D01*
G01X4896993Y8391019D01*
G01X4893181Y8387207D01*
G01X4891786Y8382000D01*
G01X4303014Y8382000D01*
G01X4303014Y8394700D01*
G01X4301261Y8405767D01*
G01X4296174Y8415751D01*
G01X4288251Y8423674D01*
G01X4278267Y8428761D01*
G01X4267200Y8430514D01*
G01X4089400Y8430514D01*
G01X4078333Y8428761D01*
G01X4068349Y8423674D01*
G01X4060426Y8415751D01*
G01X4055339Y8405767D01*
G01X4053586Y8394700D01*
G01X4053586Y7721600D01*
G01X4055339Y7710533D01*
G01X4060426Y7700549D01*
G01X4068349Y7692626D01*
G01X4078333Y7687539D01*
G01X4089400Y7685786D01*
G01X5526786Y7685786D01*
G01X5526786Y3718814D01*
G01X3949700Y3718814D01*
G01X3938633Y3717061D01*
G01X3928649Y3711974D01*
G01X3920726Y3704051D01*
G01X3915639Y3694067D01*
G01X3913886Y3683000D01*
G01X3913886Y3578487D01*
G01X3915639Y3567420D01*
G01X3920726Y3557436D01*
G01X3928649Y3549513D01*
G01X3938633Y3544426D01*
G01X3949700Y3542673D01*
G01X5526786Y3542673D01*
G01X5526786Y3466433D01*
G01X5441751Y3487263D01*
G01X5355900Y3504418D01*
G01X5269390Y3517867D01*
G01X5182382Y3527583D01*
G01X5095037Y3533549D01*
G01X5007516Y3535755D01*
G01X4919981Y3534196D01*
G01X4832594Y3528874D01*
G01X4745517Y3519801D01*
G01X4658911Y3506992D01*
G01X4572935Y3490471D01*
G01X4487749Y3470269D01*
G01X4403510Y3446423D01*
G01X4320374Y3418977D01*
G01X4238496Y3387983D01*
G01X4158025Y3353497D01*
G01X4079112Y3315582D01*
G01X4001902Y3274311D01*
G01X3926537Y3229757D01*
G01X3853158Y3182005D01*
G01X3781900Y3131142D01*
G01X3712895Y3077262D01*
G01X3646270Y3020465D01*
G01X3582148Y2960856D01*
G01X3520649Y2898546D01*
G01X3520649Y2898546D01*
G01X3520546Y2900321D01*
G01X3535912Y2915688D01*
G01X3542815Y2924683D01*
G01X3547154Y2935158D01*
G01X3548634Y2946400D01*
G01X3548634Y3207994D01*
G01X3553622Y3207994D01*
G01X3553767Y3191638D01*
G01X3557912Y3175815D01*
G01X3565803Y3161487D01*
G01X3576962Y3149527D01*
G01X3590708Y3140662D01*
G01X3606207Y3135432D01*
G01X3622514Y3134154D01*
G01X3638638Y3136907D01*
G01X3653597Y3143524D01*
G01X3666482Y3153600D01*
G01X3676508Y3166524D01*
G01X3683066Y3181509D01*
G01X3685757Y3197643D01*
G01X3701337Y3200172D01*
G01X3715878Y3206310D01*
G01X3728557Y3215712D01*
G01X3738655Y3227843D01*
G01X3745600Y3242018D01*
G01X3748998Y3257432D01*
G01X3748657Y3273212D01*
G01X3744596Y3288465D01*
G01X3737046Y3302326D01*
G01X3726434Y3314010D01*
G01X3726434Y3576109D01*
G01X3980391Y3830066D01*
G01X4953000Y3830066D01*
G01X4964242Y3831546D01*
G01X4974717Y3835885D01*
G01X4983712Y3842788D01*
G01X5123412Y3982488D01*
G01X5130315Y3991483D01*
G01X5134654Y4001958D01*
G01X5136134Y4013200D01*
G01X5136134Y4668309D01*
G01X5254108Y4786283D01*
G01X5261011Y4795279D01*
G01X5265350Y4805754D01*
G01X5266830Y4816996D01*
G01X5266830Y4904046D01*
G01X5277103Y4915258D01*
G01X5284552Y4928516D01*
G01X5288785Y4943122D01*
G01X5289580Y4958308D01*
G01X5286894Y4973276D01*
G01X5280868Y4987239D01*
G01X5271821Y4999461D01*
G01X5260227Y5009302D01*
G01X5246696Y5016242D01*
G01X5231939Y5019918D01*
G01X5216734Y5020135D01*
G01X5201879Y5016882D01*
G01X5188155Y5010331D01*
G01X5176284Y5000826D01*
G01X5166891Y4988867D01*
G01X5160470Y4975082D01*
G01X5157357Y4960197D01*
G01X5157718Y4944994D01*
G01X5143987Y4943877D01*
G01X5130783Y4939947D01*
G01X5118676Y4933374D01*
G01X5108189Y4924441D01*
G01X5099773Y4913534D01*
G01X5093793Y4901124D01*
G01X5090506Y4887745D01*
G01X5090054Y4873977D01*
G01X4973088Y4757010D01*
G01X4966185Y4748014D01*
G01X4961846Y4737539D01*
G01X4960366Y4726297D01*
G01X4960366Y4056591D01*
G01X4884209Y3980434D01*
G01X3924300Y3980434D01*
G01X3924300Y3980434D01*
G01X3913058Y3978954D01*
G01X3902583Y3974615D01*
G01X3893588Y3967712D01*
G01X3588788Y3662912D01*
G01X3581885Y3653917D01*
G01X3577546Y3643442D01*
G01X3576066Y3632200D01*
G01X3576066Y3250510D01*
G01X3565121Y3238354D01*
G01X3557485Y3223889D01*
G01X3553622Y3207994D01*
G01X3548634Y3207994D01*
G01X3548634Y3569390D01*
G01X3559569Y3581532D01*
G01X3567203Y3595981D01*
G01X3571072Y3611857D01*
G01X3570941Y3628198D01*
G01X3566818Y3644010D01*
G01X3558954Y3658334D01*
G01X3547825Y3670300D01*
G01X3558548Y3681710D01*
G01X3566296Y3695316D01*
G01X3570638Y3710359D01*
G01X3571333Y3726001D01*
G01X3568340Y3741370D01*
G01X3561828Y3755609D01*
G01X3552158Y3767924D01*
G01X3539871Y3777628D01*
G01X3552537Y3786899D01*
G01X3562670Y3798886D01*
G01X3569701Y3812919D01*
G01X3573237Y3828211D01*
G01X3573080Y3843906D01*
G01X3569239Y3859125D01*
G01X3561928Y3873015D01*
G01X3551558Y3884797D01*
G01X3538709Y3893812D01*
G01X3524101Y3899554D01*
G01X3508553Y3901702D01*
G01X3492935Y3900136D01*
G01X3478123Y3894944D01*
G01X3464946Y3886415D01*
G01X3454143Y3875029D01*
G01X3446319Y3861422D01*
G01X3441911Y3846357D01*
G01X3441168Y3830679D01*
G01X3283988Y3673499D01*
G01X3277085Y3664503D01*
G01X3272746Y3654028D01*
G01X3271266Y3642786D01*
G01X3271266Y3231091D01*
G01X3220509Y3180334D01*
G01X2095500Y3180334D01*
G01X2084258Y3178854D01*
G01X2073783Y3174515D01*
G01X2064788Y3167612D01*
G01X2026688Y3129512D01*
G01X2019785Y3120517D01*
G01X2015446Y3110042D01*
G01X2013966Y3098800D01*
G01X2013966Y2905774D01*
G01X2001187Y2915198D01*
G01X1986534Y2921315D01*
G01X1986534Y3023290D01*
G01X1996473Y3034045D01*
G01X2003810Y3046719D01*
G01X2008185Y3060694D01*
G01X2009387Y3075289D01*
G01X2007356Y3089791D01*
G01X2002192Y3103495D01*
G01X1994146Y3115731D01*
G01X1983610Y3125902D01*
G01X1971099Y3133513D01*
G01X1957223Y3138193D01*
G01X1942658Y3139713D01*
G01X1928114Y3137999D01*
G01X1928114Y3510112D01*
G01X2567960Y3510112D01*
G01X2572766Y3510436D01*
G01X2572766Y3491810D01*
G01X2561995Y3479901D01*
G01X2554401Y3465752D01*
G01X2550432Y3450192D01*
G01X2550319Y3434135D01*
G01X2554069Y3418521D01*
G01X2561462Y3404266D01*
G01X2572065Y3392206D01*
G01X2585255Y3383049D01*
G01X2600260Y3377330D01*
G01X2616200Y3375386D01*
G01X2632140Y3377330D01*
G01X2647145Y3383049D01*
G01X2660335Y3392206D01*
G01X2670938Y3404266D01*
G01X2678331Y3418521D01*
G01X2682081Y3434135D01*
G01X2681968Y3450192D01*
G01X2677999Y3465752D01*
G01X2670405Y3479901D01*
G01X2659634Y3491810D01*
G01X2659634Y3622026D01*
G01X2671685Y3613020D01*
G01X2685455Y3606962D01*
G01X2700237Y3604164D01*
G01X2715269Y3604770D01*
G01X2729777Y3608748D01*
G01X2743016Y3615894D01*
G01X2754303Y3625841D01*
G01X2763058Y3638075D01*
G01X2768830Y3651967D01*
G01X2771322Y3666804D01*
G01X2770406Y3681820D01*
G01X2766129Y3696243D01*
G01X2758711Y3709331D01*
G01X2748534Y3720410D01*
G01X2748534Y5143885D01*
G01X2759305Y5155794D01*
G01X2766899Y5169943D01*
G01X2770868Y5185503D01*
G01X2770981Y5201560D01*
G01X2767231Y5217174D01*
G01X2759838Y5231429D01*
G01X2749235Y5243489D01*
G01X2736045Y5252646D01*
G01X2721040Y5258365D01*
G01X2705100Y5260309D01*
G01X2689160Y5258365D01*
G01X2674155Y5252646D01*
G01X2660965Y5243489D01*
G01X2650362Y5231429D01*
G01X2642969Y5217174D01*
G01X2639219Y5201560D01*
G01X2639332Y5185503D01*
G01X2643301Y5169943D01*
G01X2650895Y5155794D01*
G01X2661666Y5143885D01*
G01X2661666Y3896374D01*
G01X2652420Y3903649D01*
G01X2652420Y4193748D01*
G01X2651025Y4198955D01*
G01X2647213Y4202767D01*
G01X2642006Y4204162D01*
G01X1928114Y4204162D01*
G01X1928114Y4326287D01*
G01X1944361Y4306827D01*
G01X1963464Y4290162D01*
G01X1984948Y4276706D01*
G01X2008281Y4266794D01*
G01X2032881Y4260671D01*
G01X2058137Y4258490D01*
G01X2083423Y4260306D01*
G01X2108109Y4266072D01*
G01X2131582Y4275646D01*
G01X2153259Y4288790D01*
G01X2172601Y4305177D01*
G01X2189127Y4324400D01*
G01X2202428Y4345981D01*
G01X2212171Y4369385D01*
G01X2218116Y4394028D01*
G01X2220114Y4419300D01*
G01X2218116Y4444572D01*
G01X2212171Y4469215D01*
G01X2202428Y4492619D01*
G01X2189127Y4514200D01*
G01X2172601Y4533423D01*
G01X2153259Y4549810D01*
G01X2131582Y4562954D01*
G01X2108109Y4572528D01*
G01X2083423Y4578294D01*
G01X2058137Y4580110D01*
G01X2032881Y4577929D01*
G01X2008281Y4571806D01*
G01X1984948Y4561894D01*
G01X1963464Y4548438D01*
G01X1944361Y4531773D01*
G01X1928114Y4512313D01*
G01X1928114Y5743896D01*
G01X2765878Y5743896D01*
G01X2766794Y5728880D01*
G01X2771071Y5714457D01*
G01X2778489Y5701369D01*
G01X2788666Y5690290D01*
G01X2788666Y3568010D01*
G01X2778489Y3556931D01*
G01X2771071Y3543843D01*
G01X2766794Y3529420D01*
G01X2765878Y3514404D01*
G01X2768370Y3499567D01*
G01X2774142Y3485675D01*
G01X2782897Y3473441D01*
G01X2794184Y3463494D01*
G01X2807423Y3456348D01*
G01X2821931Y3452370D01*
G01X2836963Y3451764D01*
G01X2851745Y3454562D01*
G01X2865515Y3460620D01*
G01X2877566Y3469626D01*
G01X2877566Y3403600D01*
G01X2879046Y3392358D01*
G01X2883385Y3381883D01*
G01X2890288Y3372888D01*
G01X2943754Y3319421D01*
G01X2944559Y3303383D01*
G01X2949195Y3288009D01*
G01X2957390Y3274200D01*
G01X2968664Y3262766D01*
G01X2982357Y3254377D01*
G01X2997664Y3249525D01*
G01X3013689Y3248494D01*
G01X3029491Y3251346D01*
G01X3044145Y3257913D01*
G01X3056791Y3267809D01*
G01X3066687Y3280455D01*
G01X3073254Y3295109D01*
G01X3076106Y3310911D01*
G01X3075075Y3326936D01*
G01X3070223Y3342243D01*
G01X3061834Y3355936D01*
G01X3050400Y3367210D01*
G01X3036591Y3375405D01*
G01X3021217Y3380041D01*
G01X3005179Y3380846D01*
G01X2964434Y3421591D01*
G01X2964434Y4019452D01*
G01X2973206Y4007053D01*
G01X2984569Y3996975D01*
G01X2997928Y3989747D01*
G01X3012580Y3985747D01*
G01X3027758Y3985187D01*
G01X3042666Y3988095D01*
G01X3042666Y3721100D01*
G01X3044146Y3709858D01*
G01X3048485Y3699383D01*
G01X3055388Y3690388D01*
G01X3096154Y3649621D01*
G01X3096959Y3633583D01*
G01X3101595Y3618209D01*
G01X3109790Y3604400D01*
G01X3121064Y3592966D01*
G01X3134757Y3584577D01*
G01X3150064Y3579725D01*
G01X3166089Y3578694D01*
G01X3181891Y3581546D01*
G01X3196545Y3588113D01*
G01X3209191Y3598009D01*
G01X3219087Y3610655D01*
G01X3225654Y3625309D01*
G01X3228506Y3641111D01*
G01X3227475Y3657136D01*
G01X3222623Y3672443D01*
G01X3214234Y3686136D01*
G01X3202800Y3697410D01*
G01X3188991Y3705605D01*
G01X3173617Y3710241D01*
G01X3157579Y3711046D01*
G01X3129534Y3739091D01*
G01X3129534Y3991126D01*
G01X3142182Y3985591D01*
G01X3155702Y3982795D01*
G01X3169507Y3982859D01*
G01X3183001Y3985780D01*
G01X3195597Y3991431D01*
G01X3206750Y3999569D01*
G01X3218867Y3990882D01*
G01X3232619Y3985122D01*
G01X3247310Y3982580D01*
G01X3262197Y3983384D01*
G01X3276529Y3987494D01*
G01X3289580Y3994701D01*
G01X3302646Y3987653D01*
G01X3316952Y3983687D01*
G01X3331782Y3983004D01*
G01X3346392Y3985637D01*
G01X3360050Y3991454D01*
G01X3372072Y4000164D01*
G01X3385248Y3991685D01*
G01X3400045Y3986535D01*
G01X3415637Y3985000D01*
G01X3431154Y3987165D01*
G01X3445730Y3992911D01*
G01X3458551Y4001916D01*
G01X3468902Y4013677D01*
G01X3476204Y4027539D01*
G01X3480051Y4042727D01*
G01X3480227Y4058393D01*
G01X3476723Y4073664D01*
G01X3469733Y4087686D01*
G01X3459650Y4099677D01*
G01X3447034Y4108968D01*
G01X3447034Y4140200D01*
G01X3489686Y4140200D01*
G01X3491630Y4124260D01*
G01X3497349Y4109255D01*
G01X3506506Y4096065D01*
G01X3518566Y4085462D01*
G01X3532821Y4078069D01*
G01X3548435Y4074319D01*
G01X3564492Y4074432D01*
G01X3580052Y4078401D01*
G01X3594201Y4085995D01*
G01X3606110Y4096766D01*
G01X4077390Y4096766D01*
G01X4089299Y4085995D01*
G01X4103448Y4078401D01*
G01X4119008Y4074432D01*
G01X4135065Y4074319D01*
G01X4150679Y4078069D01*
G01X4164934Y4085462D01*
G01X4176994Y4096065D01*
G01X4186151Y4109255D01*
G01X4191870Y4124260D01*
G01X4193814Y4140200D01*
G01X4191870Y4156140D01*
G01X4186151Y4171145D01*
G01X4176994Y4184335D01*
G01X4164934Y4194938D01*
G01X4150679Y4202331D01*
G01X4135065Y4206081D01*
G01X4119008Y4205968D01*
G01X4103448Y4201999D01*
G01X4089299Y4194405D01*
G01X4077390Y4183634D01*
G01X3606110Y4183634D01*
G01X3594201Y4194405D01*
G01X3580052Y4201999D01*
G01X3564492Y4205968D01*
G01X3548435Y4206081D01*
G01X3532821Y4202331D01*
G01X3518566Y4194938D01*
G01X3506506Y4184335D01*
G01X3497349Y4171145D01*
G01X3491630Y4156140D01*
G01X3489686Y4140200D01*
G01X3489686Y4140200D01*
G01X3447034Y4140200D01*
G01X3447034Y4783890D01*
G01X3451804Y4782528D01*
G01X3454356Y4768935D01*
G01X3459672Y4756166D01*
G01X3467521Y4744778D01*
G01X3477561Y4735266D01*
G01X3489356Y4728043D01*
G01X3502393Y4723424D01*
G01X3504593Y4707433D01*
G01X3510591Y4692448D01*
G01X3520033Y4679355D01*
G01X3532358Y4668931D01*
G01X3546836Y4661794D01*
G01X3562609Y4658366D01*
G01X3578744Y4658851D01*
G01X3581791Y4643052D01*
G01X3588554Y4628453D01*
G01X3598635Y4615912D01*
G01X3611439Y4606167D01*
G01X3626212Y4599794D01*
G01X3642086Y4597166D01*
G01X3643529Y4583640D01*
G01X3647702Y4570693D01*
G01X3654428Y4558870D01*
G01X3663426Y4548668D01*
G01X3674315Y4540516D01*
G01X3686639Y4534758D01*
G01X3699879Y4531636D01*
G01X3713477Y4531281D01*
G01X3726861Y4533708D01*
G01X3739469Y4538814D01*
G01X3739158Y4523623D01*
G01X3742314Y4508759D01*
G01X3748770Y4495004D01*
G01X3758187Y4483079D01*
G01X3770072Y4473611D01*
G01X3783800Y4467097D01*
G01X3798650Y4463879D01*
G01X3813843Y4464126D01*
G01X3828581Y4467824D01*
G01X3842090Y4474780D01*
G01X3853661Y4484629D01*
G01X3862687Y4496853D01*
G01X3868693Y4510810D01*
G01X3871364Y4525768D01*
G01X3870561Y4540942D01*
G01X3866324Y4555534D01*
G01X3858878Y4568779D01*
G01X3848611Y4579982D01*
G01X3848611Y5111844D01*
G01X3933904Y5111844D01*
G01X3936553Y5096693D01*
G01X3942621Y5082559D01*
G01X3951782Y5070203D01*
G01X3963543Y5060291D01*
G01X3977272Y5053355D01*
G01X3977272Y4831144D01*
G01X3967242Y4820267D01*
G01X3959874Y4807437D01*
G01X3955535Y4793293D01*
G01X3954439Y4778538D01*
G01X3956641Y4763908D01*
G01X3962033Y4750130D01*
G01X3970345Y4737890D01*
G01X3981164Y4727799D01*
G01X3993952Y4720357D01*
G01X4008071Y4715935D01*
G01X4022819Y4714754D01*
G01X4037462Y4716872D01*
G01X4051270Y4722184D01*
G01X4063558Y4730425D01*
G01X4075847Y4723115D01*
G01X4089417Y4718609D01*
G01X4103638Y4717116D01*
G01X4117848Y4718707D01*
G01X4131387Y4723307D01*
G01X4143625Y4730703D01*
G01X4155536Y4723460D01*
G01X4168699Y4718868D01*
G01X4182530Y4717129D01*
G01X4196420Y4718320D01*
G01X4209753Y4722388D01*
G01X4221942Y4729153D01*
G01X4234528Y4722221D01*
G01X4248311Y4718162D01*
G01X4262646Y4717167D01*
G01X4276858Y4719283D01*
G01X4290281Y4724411D01*
G01X4302284Y4732310D01*
G01X4312304Y4742610D01*
G01X4319870Y4754825D01*
G01X4324627Y4768384D01*
G01X4326351Y4782649D01*
G01X4324963Y4796951D01*
G01X4320527Y4810617D01*
G01X4313250Y4823008D01*
G01X4303476Y4833540D01*
G01X4303476Y5195430D01*
G01X4311997Y5207092D01*
G01X4317791Y5220323D01*
G01X4320582Y5234495D01*
G01X4320239Y5248934D01*
G01X4316778Y5262957D01*
G01X4310363Y5275898D01*
G01X4301298Y5287143D01*
G01X4290013Y5296159D01*
G01X4277044Y5302517D01*
G01X4263006Y5305917D01*
G01X4248565Y5306196D01*
G01X4234406Y5303343D01*
G01X4221201Y5297491D01*
G01X4209576Y5288919D01*
G01X4200082Y5278034D01*
G01X4193171Y5265351D01*
G01X4177650Y5268228D01*
G01X4161890Y5267355D01*
G01X4146781Y5262782D01*
G01X4133182Y5254768D01*
G01X4121862Y5243767D01*
G01X4113463Y5230402D01*
G01X4108461Y5215431D01*
G01X4092500Y5217559D01*
G01X4076497Y5215779D01*
G01X4061395Y5210194D01*
G01X4048084Y5201133D01*
G01X4037349Y5189132D01*
G01X4029823Y5174897D01*
G01X4015366Y5180147D01*
G01X4000088Y5181926D01*
G01X3984811Y5180136D01*
G01X3970357Y5174876D01*
G01X3957504Y5166427D01*
G01X3946943Y5155244D01*
G01X3939242Y5141929D01*
G01X3939242Y5141929D01*
G01X3934817Y5127198D01*
G01X3933904Y5111844D01*
G01X3848611Y5111844D01*
G01X3848611Y7451786D01*
G01X3860160Y7462323D01*
G01X3868920Y7475271D01*
G01X3874407Y7489909D01*
G01X3876313Y7505426D01*
G01X3874535Y7520957D01*
G01X3869170Y7535641D01*
G01X3860517Y7548660D01*
G01X3849056Y7559293D01*
G01X3835425Y7566946D01*
G01X3820381Y7571197D01*
G01X3804760Y7571807D01*
G01X3789430Y7568743D01*
G01X3775243Y7562176D01*
G01X3762988Y7552470D01*
G01X3753346Y7540165D01*
G01X3746852Y7525945D01*
G01X3743867Y7510599D01*
G01X3744558Y7494981D01*
G01X3748886Y7479959D01*
G01X3756610Y7466368D01*
G01X3741711Y7469940D01*
G01X3726391Y7469999D01*
G01X3711466Y7466540D01*
G01X3697733Y7459748D01*
G01X3685925Y7449986D01*
G01X3676673Y7437775D01*
G01X3670469Y7423766D01*
G01X3667646Y7408708D01*
G01X3668354Y7393404D01*
G01X3672555Y7378670D01*
G01X3680026Y7365294D01*
G01X3690366Y7353990D01*
G01X3690366Y7302205D01*
G01X3675082Y7305141D01*
G01X3659534Y7304434D01*
G01X3660260Y7319714D01*
G01X3657466Y7334753D01*
G01X3651300Y7348752D01*
G01X3642090Y7360965D01*
G01X3630328Y7370744D01*
G01X3616637Y7377567D01*
G01X3601747Y7381072D01*
G01X3586451Y7381071D01*
G01X3571561Y7377566D01*
G01X3557871Y7370743D01*
G01X3546108Y7360964D01*
G01X3536899Y7348750D01*
G01X3530733Y7334751D01*
G01X3527940Y7319712D01*
G01X3528666Y7304432D01*
G01X3532874Y7289726D01*
G01X3540340Y7276375D01*
G01X3550666Y7265090D01*
G01X3550666Y7200605D01*
G01X3537562Y7203348D01*
G01X3524174Y7203402D01*
G01X3511048Y7200766D01*
G01X3511048Y7531790D01*
G01X3521819Y7543699D01*
G01X3529412Y7557848D01*
G01X3533382Y7573408D01*
G01X3533495Y7589465D01*
G01X3529745Y7605079D01*
G01X3522352Y7619334D01*
G01X3511749Y7631394D01*
G01X3498558Y7640551D01*
G01X3483553Y7646270D01*
G01X3467614Y7648214D01*
G01X3451674Y7646270D01*
G01X3436669Y7640551D01*
G01X3423478Y7631394D01*
G01X3412875Y7619334D01*
G01X3405482Y7605079D01*
G01X3401732Y7589465D01*
G01X3401846Y7573408D01*
G01X3405815Y7557848D01*
G01X3413408Y7543699D01*
G01X3424180Y7531790D01*
G01X3424180Y7098840D01*
G01X3410712Y7101732D01*
G01X3396938Y7101779D01*
G01X3383452Y7098979D01*
G01X3370834Y7093454D01*
G01X3370834Y8623990D01*
G01X3381606Y8635899D01*
G01X3389199Y8650048D01*
G01X3393168Y8665608D01*
G01X3393281Y8681666D01*
G01X3389531Y8697279D01*
G01X3382138Y8711534D01*
G01X3371535Y8723594D01*
G01X3358345Y8732751D01*
G01X3343339Y8738470D01*
G01X3327400Y8740414D01*
G01X3311460Y8738470D01*
G01X3296455Y8732751D01*
G01X3283264Y8723593D01*
G01X3272662Y8711534D01*
G01X3265269Y8697279D01*
G01X3261519Y8681665D01*
G01X3261632Y8665607D01*
G01X3265602Y8650048D01*
G01X3273195Y8635899D01*
G01X3283966Y8623989D01*
G01X3283966Y5086854D01*
G01X3271196Y5092427D01*
G01X3257544Y5095210D01*
G01X3243611Y5095078D01*
G01X3230013Y5092038D01*
G01X3217351Y5086224D01*
G01X3206182Y5077893D01*
G01X3197002Y5067411D01*
G01X3190214Y5055243D01*
G01X3186118Y5041925D01*
G01X3184896Y5028046D01*
G01X3171000Y5031441D01*
G01X3156700Y5031777D01*
G01X3142660Y5029039D01*
G01X3129534Y5023354D01*
G01X3129534Y6261790D01*
G01X3140305Y6273699D01*
G01X3147899Y6287848D01*
G01X3151868Y6303408D01*
G01X3151981Y6319465D01*
G01X3148231Y6335079D01*
G01X3140838Y6349334D01*
G01X3130235Y6361394D01*
G01X3117045Y6370551D01*
G01X3102040Y6376270D01*
G01X3086100Y6378214D01*
G01X3070160Y6376270D01*
G01X3055155Y6370551D01*
G01X3041965Y6361394D01*
G01X3031362Y6349334D01*
G01X3023969Y6335079D01*
G01X3020219Y6319465D01*
G01X3020332Y6303408D01*
G01X3024301Y6287848D01*
G01X3031895Y6273699D01*
G01X3042666Y6261790D01*
G01X3042666Y4972554D01*
G01X3029799Y4978158D01*
G01X3016040Y4980929D01*
G01X3002006Y4980743D01*
G01X2988326Y4977607D01*
G01X2975612Y4971662D01*
G01X2964434Y4963174D01*
G01X2964434Y6350385D01*
G01X2975205Y6362294D01*
G01X2982799Y6376443D01*
G01X2986768Y6392003D01*
G01X2986881Y6408060D01*
G01X2983131Y6423674D01*
G01X2975738Y6437929D01*
G01X2965135Y6449989D01*
G01X2951945Y6459146D01*
G01X2936940Y6464865D01*
G01X2921000Y6466809D01*
G01X2905060Y6464865D01*
G01X2890055Y6459146D01*
G01X2876865Y6449989D01*
G01X2866262Y6437929D01*
G01X2858869Y6423674D01*
G01X2855119Y6408060D01*
G01X2855232Y6392003D01*
G01X2859201Y6376443D01*
G01X2866795Y6362294D01*
G01X2877566Y6350385D01*
G01X2877566Y5788674D01*
G01X2865515Y5797680D01*
G01X2851745Y5803738D01*
G01X2836963Y5806536D01*
G01X2821931Y5805930D01*
G01X2807423Y5801952D01*
G01X2794184Y5794806D01*
G01X2782897Y5784859D01*
G01X2782897Y5784859D01*
G01X2774142Y5772625D01*
G01X2768370Y5758733D01*
G01X2765878Y5743896D01*
G01X1928114Y5743896D01*
G01X1928114Y5876287D01*
G01X1944361Y5856827D01*
G01X1963464Y5840162D01*
G01X1984948Y5826706D01*
G01X2008281Y5816794D01*
G01X2032881Y5810671D01*
G01X2058137Y5808490D01*
G01X2083423Y5810306D01*
G01X2108109Y5816072D01*
G01X2131582Y5825646D01*
G01X2153259Y5838790D01*
G01X2172601Y5855177D01*
G01X2189127Y5874400D01*
G01X2202428Y5895981D01*
G01X2212171Y5919385D01*
G01X2218116Y5944028D01*
G01X2220114Y5969300D01*
G01X2218116Y5994572D01*
G01X2212171Y6019215D01*
G01X2202428Y6042619D01*
G01X2189127Y6064200D01*
G01X2172601Y6083423D01*
G01X2153259Y6099810D01*
G01X2131582Y6112954D01*
G01X2108109Y6122528D01*
G01X2083423Y6128294D01*
G01X2058137Y6130110D01*
G01X2032881Y6127929D01*
G01X2008281Y6121806D01*
G01X1984948Y6111894D01*
G01X1963464Y6098438D01*
G01X1944361Y6081773D01*
G01X1928114Y6062313D01*
G01X1928114Y7063486D01*
G01X2768600Y7063486D01*
G01X2779667Y7065239D01*
G01X2789651Y7070326D01*
G01X2797574Y7078249D01*
G01X2802661Y7088233D01*
G01X2804414Y7099300D01*
G01X2804414Y8559800D01*
G01X2802661Y8570867D01*
G01X2797574Y8580851D01*
G01X2789651Y8588774D01*
G01X2779667Y8593861D01*
G01X2768600Y8595614D01*
G01X2603500Y8595614D01*
G01X2592433Y8593861D01*
G01X2582449Y8588774D01*
G01X2574526Y8580851D01*
G01X2569439Y8570867D01*
G01X2567686Y8559800D01*
G01X2567686Y7389114D01*
G01X1676400Y7389114D01*
G01X1665333Y7387361D01*
G01X1655349Y7382274D01*
G01X1647426Y7374351D01*
G01X1642339Y7364367D01*
G01X1640586Y7353300D01*
G01X1640586Y2019300D01*
G01X1642339Y2008233D01*
G01X1647426Y1998249D01*
G01X1655349Y1990326D01*
G01X1665333Y1985239D01*
G01X1676400Y1983486D01*
G01X1892300Y1983486D01*
G01X1903367Y1985239D01*
G01X1913351Y1990326D01*
G01X1921274Y1998249D01*
G01X1926361Y2008233D01*
G01X1928114Y2019300D01*
G01X1928114Y2804902D01*
G01X1941474Y2796943D01*
G01X1956320Y2792314D01*
G01X1971835Y2791270D01*
G01X1987168Y2793868D01*
G01X2001474Y2799965D01*
G01X2013966Y2809226D01*
G01X2013966Y1922991D01*
G01X1973221Y1882246D01*
G01X1957183Y1881441D01*
G01X1941809Y1876805D01*
G01X1928000Y1868610D01*
G01X1916566Y1857336D01*
G01X1908177Y1843643D01*
G01X1903325Y1828336D01*
G01X1902294Y1812311D01*
G01X1905146Y1796509D01*
G01X1911713Y1781855D01*
G01X1921609Y1769209D01*
G01X1934255Y1759313D01*
G01X1948909Y1752746D01*
G01X1964711Y1749894D01*
G01X1980736Y1750925D01*
G01X1996043Y1755777D01*
G01X2009736Y1764166D01*
G01X2021010Y1775600D01*
G01X2029205Y1789409D01*
G01X2033841Y1804783D01*
G01X2034646Y1820821D01*
G01X2088112Y1874288D01*
G01X2095015Y1883283D01*
G01X2099354Y1893758D01*
G01X2100834Y1905000D01*
G01X2100834Y3080809D01*
G01X2113491Y3093466D01*
G01X2235495Y3093466D01*
G01X2232595Y3078667D01*
G01X2233115Y3063595D01*
G01X2237026Y3049031D01*
G01X2244127Y3035726D01*
G01X2254050Y3024370D01*
G01X2266282Y3015550D01*
G01X2280191Y3009721D01*
G01X2295057Y3007186D01*
G01X2310111Y3008075D01*
G01X2324575Y3012342D01*
G01X2337701Y3019767D01*
G01X2348810Y3029966D01*
G01X3238500Y3029966D01*
G01X3249742Y3031446D01*
G01X3260217Y3035785D01*
G01X3269212Y3042688D01*
G01X3408446Y3181921D01*
G01X3408446Y3067273D01*
G01X3395520Y3057491D01*
G01X3385353Y3044865D01*
G01X3378553Y3030150D01*
G01X3375527Y3014225D01*
G01X3376455Y2998041D01*
G01X3381281Y2982566D01*
G01X3389718Y2968724D01*
G01X3401261Y2957343D01*
G01X3415220Y2949102D01*
G01X3404755Y2939565D01*
G01X3396554Y2928025D01*
G01X3390989Y2915006D01*
G01X3388315Y2901102D01*
G01X3388653Y2886948D01*
G01X3391988Y2873188D01*
G01X3398168Y2860449D01*
G01X3406912Y2849313D01*
G01X3417820Y2840287D01*
G01X3430396Y2833783D01*
G01X3444066Y2830096D01*
G01X3458207Y2829395D01*
G01X3400626Y2759535D01*
G01X3346209Y2687183D01*
G01X3295061Y2612484D01*
G01X3247285Y2535584D01*
G01X3202976Y2456637D01*
G01X3162220Y2375798D01*
G01X3125098Y2293226D01*
G01X3091684Y2209086D01*
G01X3062044Y2123544D01*
G01X3036236Y2036768D01*
G01X3014312Y1948931D01*
G01X2996315Y1860206D01*
G01X2982280Y1770769D01*
G01X2972235Y1680796D01*
G01X2966200Y1590465D01*
G01X2964187Y1499956D01*
G01X2964208Y1498750D01*
G01X2964870Y1421630D01*
G01X2961473Y1344582D01*
G01X2954026Y1267820D01*
G01X2942550Y1191556D01*
G01X2927077Y1116001D01*
G01X2907650Y1041365D01*
G01X2884322Y967855D01*
G01X2857158Y895675D01*
G01X2826233Y825024D01*
G01X2791634Y756097D01*
G01X2753455Y689088D01*
G01X2711803Y624180D01*
G01X2666794Y561553D01*
G01X2618551Y501382D01*
G01X2567208Y443833D01*
G01X2512909Y389066D01*
G01X2455803Y337231D01*
G01X2396048Y288474D01*
G01X2333810Y242928D01*
G01X2269262Y200721D01*
G01X2202583Y161969D01*
G01X2133956Y126779D01*
G01X2063573Y95249D01*
G01X1991628Y67466D01*
G01X1918321Y43508D01*
G01X1843855Y23441D01*
G01X1768436Y7320D01*
G01X1692273Y-4810D01*
G01X1615577Y-12916D01*
G01X1538561Y-16974D01*
G01X1461439Y-16974D01*
G01X1384423Y-12916D01*
G01X1307727Y-4810D01*
G01X1231564Y7320D01*
G01X1156145Y23441D01*
G01X1081679Y43508D01*
G01X1008372Y67466D01*
G01X936427Y95249D01*
G01X866044Y126779D01*
G01X797417Y161969D01*
G01X730738Y200721D01*
G01X666190Y242928D01*
G01X603952Y288474D01*
G01X544197Y337231D01*
G01X487091Y389066D01*
G01X432792Y443833D01*
G01X381449Y501382D01*
G01X333207Y561553D01*
G01X288197Y624180D01*
G01X246545Y689088D01*
G01X208366Y756097D01*
G01X173767Y825024D01*
G01X142842Y895675D01*
G01X115679Y967855D01*
G01X92351Y1041365D01*
G01X72923Y1116001D01*
G01X57450Y1191556D01*
G01X45974Y1267820D01*
G01X38527Y1344582D01*
G01X35130Y1421630D01*
G01X35792Y1498750D01*
G01X35792Y1498750D01*
G01X35813Y1499956D01*
G01X35814Y4419300D01*
G01X548486Y4419300D01*
G01X550466Y4394143D01*
G01X556357Y4369606D01*
G01X566014Y4346292D01*
G01X579199Y4324776D01*
G01X595587Y4305587D01*
G01X614776Y4289199D01*
G01X636292Y4276014D01*
G01X659606Y4266357D01*
G01X684143Y4260466D01*
G01X709300Y4258486D01*
G01X734457Y4260466D01*
G01X758994Y4266357D01*
G01X782308Y4276014D01*
G01X803824Y4289199D01*
G01X823013Y4305587D01*
G01X839401Y4324776D01*
G01X852586Y4346292D01*
G01X862243Y4369606D01*
G01X868134Y4394143D01*
G01X870114Y4419300D01*
G01X868134Y4444457D01*
G01X862243Y4468994D01*
G01X852586Y4492308D01*
G01X839401Y4513824D01*
G01X823013Y4533013D01*
G01X803824Y4549401D01*
G01X782308Y4562586D01*
G01X758994Y4572243D01*
G01X734457Y4578134D01*
G01X709300Y4580114D01*
G01X684143Y4578134D01*
G01X659606Y4572243D01*
G01X636292Y4562586D01*
G01X614776Y4549401D01*
G01X595587Y4533013D01*
G01X579199Y4513824D01*
G01X566014Y4492308D01*
G01X556357Y4468994D01*
G01X550466Y4444457D01*
G01X548486Y4419300D01*
G01X548486Y4419300D01*
G01X35814Y4419300D01*
G01X35814Y4998747D01*
G37*
G54D10*
G01X35814Y4998747D02*
G02X4002786Y9525822I4964186J-348381D01*
G01X4002786Y8877300D01*
G03X4013200Y8866886I10414J0D01*
G01X5613400Y8866886D01*
G03X5623814Y8877300I0J10414D01*
G01X5623814Y9587508D01*
G02X9964186Y4998747I-623814J-4937142D01*
G01X9964187Y1499956D01*
G01X9964208Y1498750D01*
G02X7035792Y1498750I-1464208J-51131D01*
G01X7035813Y1499956D01*
G03X5661036Y3425460I-2035813J0D01*
G01X5842000Y3425460D01*
G03X5877814Y3461274I0J35814D01*
G01X5877814Y3568969D01*
G03X5879102Y3578487I-34526J9517D01*
G01X5879102Y3683000D01*
G03X5877814Y3692517I-35814J0D01*
G01X5877814Y7937500D01*
G03X5842000Y7973314I-35814J0D01*
G01X4303014Y7973314D01*
G01X4303014Y8394700D01*
G03X4267200Y8430514I-35814J0D01*
G01X4089400Y8430514D01*
G03X4053586Y8394700I0J-35814D01*
G01X4053586Y7721600D01*
G03X4089400Y7685786I35814J0D01*
G01X5526786Y7685786D01*
G01X5526786Y3718814D01*
G01X3949700Y3718814D01*
G03X3913886Y3683000I0J-35814D01*
G01X3913886Y3578487D01*
G03X3949700Y3542673I35814J0D01*
G01X5526786Y3542673D01*
G01X5526786Y3466433D01*
G03X3520649Y2898546I-526786J-1966477D01*
G01X3520546Y2900321D01*
G01X3535912Y2915688D01*
G03X3548634Y2946400I-30712J30712D01*
G01X3548634Y3569390D01*
G03X3547825Y3670300I-43434J50110D01*
G03X3539871Y3777628I-42625J50800D01*
G03X3538709Y3893812I-32558J57772D01*
G03X3441168Y3830679I-31395J-58412D01*
G01X3283988Y3673499D01*
G03X3271266Y3642786I30712J-30712D01*
G01X3271266Y3231091D01*
G01X3220509Y3180334D01*
G01X2095500Y3180334D01*
G03X2064788Y3167612I0J-43434D01*
G01X2026688Y3129512D01*
G03X2013966Y3098800I30712J-30712D01*
G01X2013966Y2905774D01*
G03X1986534Y2921315I-45466J-48274D01*
G01X1986534Y3023290D01*
G03X2002192Y3103495I-43434J50110D01*
G03X1928114Y3137999I-59092J-30095D01*
G01X1928114Y3510112D01*
G01X2567960Y3510112D01*
G03X2572766Y3510436I0J35814D01*
G01X2572766Y3491810D01*
G03X2616200Y3375386I43434J-50110D01*
G03X2659634Y3491810I0J66314D01*
G01X2659634Y3622026D01*
G03X2754303Y3625841I45466J48274D01*
G03X2748534Y3720410I-49203J44459D01*
G01X2748534Y5143885D01*
G03X2705100Y5260309I-43434J50110D01*
G03X2661666Y5143885I0J-66314D01*
G01X2661666Y3896374D01*
G03X2652420Y3903649I-45466J-48274D01*
G01X2652420Y4193748D01*
G03X2642006Y4204162I-10414J0D01*
G01X1928114Y4204162D01*
G01X1928114Y4326287D01*
G03X2220114Y4419300I131186J93013D01*
G03X1928114Y4512313I-160814J0D01*
G01X1928114Y5876287D01*
G03X2220114Y5969300I131186J93013D01*
G03X1928114Y6062313I-160814J0D01*
G01X1928114Y7063486D01*
G01X2768600Y7063486D01*
G03X2804414Y7099300I0J35814D01*
G01X2804414Y8559800D01*
G03X2768600Y8595614I-35814J0D01*
G01X2603500Y8595614D01*
G03X2567686Y8559800I0J-35814D01*
G01X2567686Y7389114D01*
G01X1676400Y7389114D01*
G03X1640586Y7353300I0J-35814D01*
G01X1640586Y2019300D01*
G03X1676400Y1983486I35814J0D01*
G01X1892300Y1983486D01*
G03X1928114Y2019300I0J35814D01*
G01X1928114Y2804902D01*
G03X1971835Y2791270I40386J52598D01*
G03X2013966Y2809226I-3335J66230D01*
G01X2013966Y1922991D01*
G01X1973221Y1882246D01*
G03X1921609Y1769209I-4721J-66146D01*
G03X2034646Y1820821I46891J46891D01*
G01X2088112Y1874288D01*
G03X2100834Y1905000I-30712J30712D01*
G01X2100834Y3080809D01*
G01X2113491Y3093466D01*
G01X2235495Y3093466D01*
G03X2266282Y3015550I63205J-20066D01*
G03X2348810Y3029966I32418J57850D01*
G01X3238500Y3029966D01*
G03X3269212Y3042688I0J43434D01*
G01X3408446Y3181921D01*
G01X3408446Y3067273D01*
G03X3415220Y2949102I33254J-57373D01*
G03X3391988Y2873188I39180J-53502D01*
G03X3458207Y2829395I62412J22412D01*
G03X2964187Y1499956I1541793J-1329440D01*
G01X2964208Y1498750D01*
G02X35792Y1498750I-1464208J-51131D01*
G01X35813Y1499956D01*
G01X35814Y4998747D01*
G01X384300Y4883486D02*
G03X432046Y5094300I0J110814D01*
G03X384300Y5305114I-47746J100000D01*
G03X336553Y5094300I0J-110814D01*
G03X384300Y4883486I47746J-100000D01*
G01X548486Y5969300D02*
G03X870114Y5969300I160814J0D01*
G03X548486Y5969300I-160814J0D01*
G01X548486Y4419300D02*
G03X870114Y4419300I160814J0D01*
G03X548486Y4419300I-160814J0D01*
G01X1495114Y6194300D02*
G03X1284300Y6242047I-110814J0D01*
G03X1073486Y6194300I-100000J-47746D01*
G03X1284300Y6146554I110814J0D01*
G03X1495114Y6194300I100000J47746D01*
G01X1857359Y7912708D02*
G03X1636476Y7722295I-110441J-95207D01*
G03X1857359Y7912708I110441J95207D01*
G01X2110716Y8461169D02*
G03X1927704Y8303402I-91506J-78883D01*
G03X2110716Y8461169I91506J78883D01*
G01X2387549Y8369762D02*
G03X2166666Y8179348I-110441J-95207D01*
G03X2387549Y8369762I110441J95207D01*
G01X2782897Y5784859D02*
G03X2788666Y5690290I49203J-44459D01*
G01X2788666Y3568010D01*
G03X2782897Y3473441I43434J-50110D01*
G03X2877566Y3469626I49203J44459D01*
G01X2877566Y3403600D01*
G03X2890288Y3372888I43434J0D01*
G01X2943754Y3319421D01*
G03X3056791Y3267809I66146J-4721D01*
G03X3005179Y3380846I-46891J46891D01*
G01X2964434Y3421591D01*
G01X2964434Y4019452D01*
G03X3042666Y3988095I58166J31848D01*
G01X3042666Y3721100D01*
G03X3055388Y3690388I43434J0D01*
G01X3096154Y3649621D01*
G03X3209191Y3598009I66146J-4721D01*
G03X3157579Y3711046I-46891J46891D01*
G01X3129534Y3739091D01*
G01X3129534Y3991126D01*
G03X3206750Y3999569I32766J57654D01*
G03X3289580Y3994701I44450J49211D01*
G03X3372072Y4000164I37820J54472D01*
G03X3468902Y4013677I42221J51136D01*
G03X3447034Y4108968I-54608J37623D01*
G01X3447034Y4783890D01*
G03X3451804Y4782528I20580J63040D01*
G03X3502393Y4723424I66096J5372D01*
G03X3578744Y4658851I66307J976D01*
G03X3642086Y4597166I66156J4569D01*
G03X3674315Y4540516I66314J234D01*
G03X3739469Y4538814I34085J56884D01*
G03X3828581Y4467824I65708J-8943D01*
G03X3848611Y4579982I-23403J62047D01*
G01X3848611Y7451786D01*
G03X3820381Y7571197I-38611J53914D01*
G03X3756610Y7466368I-10381J-65497D01*
G03X3676673Y7437775I-22810J-62268D01*
G03X3690366Y7353990I57127J-33675D01*
G01X3690366Y7302205D01*
G03X3659534Y7304434I-20066J-63205D01*
G03X3571561Y7377566I-65434J10766D01*
G03X3550666Y7265090I22539J-62366D01*
G01X3550666Y7200605D01*
G03X3511048Y7200766I-20066J-63205D01*
G01X3511048Y7531790D01*
G03X3467614Y7648214I-43434J50110D01*
G03X3424180Y7531790I0J-66314D01*
G01X3424180Y7098840D01*
G03X3370834Y7093454I-20580J-63040D01*
G01X3370834Y8623990D01*
G03X3327400Y8740414I-43434J50110D01*
G03X3283966Y8623989I0J-66314D01*
G01X3283966Y5086854D01*
G03X3217351Y5086224I-32766J-57654D01*
G03X3184896Y5028046I33849J-57024D01*
G03X3129534Y5023354I-22596J-62346D01*
G01X3129534Y6261790D01*
G03X3086100Y6378214I-43434J50110D01*
G03X3042666Y6261790I0J-66314D01*
G01X3042666Y4972554D01*
G03X2964434Y4963174I-32766J-57654D01*
G01X2964434Y6350385D01*
G03X2921000Y6466809I-43434J50110D01*
G03X2877566Y6350385I0J-66314D01*
G01X2877566Y5788674D01*
G03X2782897Y5784859I-45466J-48274D01*
G01X3489686Y4140200D02*
G03X3606110Y4096766I66314J0D01*
G01X4077390Y4096766D01*
G03X4193814Y4140200I50110J43434D01*
G03X4077390Y4183634I-66314J0D01*
G01X3606110Y4183634D01*
G03X3489686Y4140200I-50110J-43434D01*
G01X3924300Y3980434D02*
G03X3893588Y3967712I0J-43434D01*
G01X3588788Y3662912D01*
G03X3576066Y3632200I30712J-30712D01*
G01X3576066Y3250510D01*
G03X3590708Y3140662I43434J-50110D01*
G03X3685757Y3197643I28792J59738D01*
G03X3745600Y3242018I-2757J66257D01*
G03X3726434Y3314010I-62600J21882D01*
G01X3726434Y3576109D01*
G01X3980391Y3830066D01*
G01X4953000Y3830066D01*
G03X4983712Y3842788I0J43434D01*
G01X5123412Y3982488D01*
G03X5136134Y4013200I-30712J30712D01*
G01X5136134Y4668309D01*
G01X5254108Y4786283D01*
G03X5266830Y4816996I-30712J30712D01*
G01X5266830Y4904046D01*
G03X5246696Y5016242I-43434J50110D01*
G03X5157718Y4944994I-23300J-62086D01*
G03X5108189Y4924441I-1518J-66297D01*
G03X5090054Y4873977I48011J-45744D01*
G01X4973088Y4757010D01*
G03X4960366Y4726297I30712J-30712D01*
G01X4960366Y4056591D01*
G01X4884209Y3980434D01*
G01X3924300Y3980434D01*
G01X3939242Y5141929D02*
G03X3977272Y5053355I60868J-26318D01*
G01X3977272Y4831144D01*
G03X3970345Y4737890I43434J-50110D01*
G03X4063558Y4730425I50360J43144D01*
G03X4143625Y4730703I39850J53005D01*
G03X4221942Y4729153I40217J52727D01*
G03X4312304Y4742610I38100J54276D01*
G03X4303476Y4833540I-52261J40820D01*
G01X4303476Y5195430D01*
G03X4290013Y5296159I-48966J44720D01*
G03X4193171Y5265351I-35504J-56009D01*
G03X4108461Y5215431I-19760J-63302D01*
G03X4029823Y5174897I-16683J-64181D01*
G03X3939242Y5141929I-29713J-59285D01*
G01X4902200Y8392414D02*
G03X4891786Y8382000I0J-10414D01*
G01X4891786Y8051800D01*
G03X4902200Y8041386I10414J0D01*
G01X5765800Y8041386D01*
G03X5776214Y8051800I0J10414D01*
G01X5776214Y8382000D01*
G03X5765800Y8392414I-10414J0D01*
G01X4902200Y8392414D01*
G01X6512380Y4192462D02*
G03X6498923Y4102100I40820J-52262D01*
G03X6499067Y4025697I54277J-38100D01*
G03X6519220Y3930447I54133J-38303D01*
G03X6498923Y3835400I33980J-56947D01*
G03X6512380Y3745038I54277J-38100D01*
G03X6603310Y3753866I40820J52262D01*
G01X7221009Y3753866D01*
G01X7347966Y3626909D01*
G01X7347966Y2094810D01*
G03X7391400Y1978386I43434J-50110D01*
G03X7434834Y2094810I0J66314D01*
G01X7434834Y3644900D01*
G03X7422112Y3675612I-43434J0D01*
G01X7269712Y3828012D01*
G03X7267511Y3830066I-30712J-30712D01*
G01X9462190Y3830066D01*
G03X9578614Y3873500I50110J43434D01*
G03X9462190Y3916934I-66314J0D01*
G01X9328654Y3916934D01*
G03X9315183Y3999151I-57654J32766D01*
G03X9231973Y4003314I-44183J-49451D01*
G01X8790473Y4003314D01*
G03X8720179Y4079346I-65573J9886D01*
G01X8704812Y4094712D01*
G03X8688863Y4104848I-30712J-30712D01*
G03X8670477Y4161404I-65563J9952D01*
G03X8614150Y4180480I-47177J-46604D01*
G03X8597900Y4183634I-16250J-40280D01*
G01X6603310Y4183634D01*
G03X6512380Y4192462I-50110J-43434D01*
G01X7010400Y6169914D02*
G03X6974586Y6134100I0J-35814D01*
G01X6974586Y4543482D01*
G03X7010400Y4507668I35814J0D01*
G01X7302500Y4507668D01*
G03X7338314Y4543482I0J35814D01*
G01X7338314Y6134100D01*
G03X7302500Y6169914I-35814J0D01*
G01X7010400Y6169914D01*
G01X7700433Y8189746D02*
G03X7475367Y8375197I-112533J92725D01*
G03X7700433Y8189746I112533J-92725D01*
G01X7482586Y959610D02*
G03X7531100Y848086I48514J-45210D01*
G03X7579614Y959610I0J66314D01*
G01X7579614Y2319350D01*
G03X7531100Y2430874I-48514J45210D01*
G03X7482586Y2319350I0J-66314D01*
G01X7482586Y959610D01*
G01X7661400Y4883486D02*
G03X7709146Y5094300I0J110814D01*
G03X7661400Y5305114I-47746J100000D01*
G03X7613653Y5094300I0J-110814D01*
G03X7661400Y4883486I47746J-100000D01*
G01X7936594Y8319072D02*
G03X7750116Y8472727I-93239J76828D01*
G03X7936594Y8319072I93239J-76828D01*
G01X7800086Y1295400D02*
G03X7814295Y1261095I48514J0D01*
G01X7934727Y1140664D01*
G03X8054086Y1103258I66273J2336D01*
G01X8054086Y1073910D01*
G03X8102600Y962386I48514J-45210D01*
G03X8151114Y1073910I0J66314D01*
G01X8151114Y1409700D01*
G03X8136905Y1444005I-48514J0D01*
G01X8036814Y1544095D01*
G01X8036814Y1719391D01*
G03X8071766Y1691386I34952J7809D01*
G01X8229600Y1691386D01*
G03X8265414Y1727200I0J35814D01*
G01X8265414Y3035300D01*
G03X8229600Y3071114I-35814J0D01*
G01X8071766Y3071114D01*
G03X8035952Y3035300I0J-35814D01*
G01X8035952Y2624218D01*
G03X7942634Y2626185I-47652J-46118D01*
G03X7939786Y2532890I45666J-48085D01*
G01X7939786Y1524000D01*
G03X7953995Y1489695I48514J0D01*
G01X8054086Y1389605D01*
G01X8054086Y1182742D01*
G03X8003336Y1209273I-53086J-39742D01*
G01X7897114Y1315495D01*
G01X7897114Y2532890D01*
G03X7848600Y2644414I-48514J45210D01*
G03X7800086Y2532890I0J-66314D01*
G01X7800086Y1295400D01*
G01X7825586Y5969300D02*
G03X8147214Y5969300I160814J0D01*
G03X7825586Y5969300I-160814J0D01*
G01X7825586Y4419300D02*
G03X8147214Y4419300I160814J0D01*
G03X7825586Y4419300I-160814J0D01*
G01X8240662Y7744605D02*
G03X8015596Y7930056I-112533J92725D01*
G03X8240662Y7744605I112533J-92725D01*
G01X8772214Y6194300D02*
G03X8561400Y6242047I-110814J0D01*
G03X8350586Y6194300I-100000J-47746D01*
G03X8561400Y6146554I110814J0D01*
G03X8772214Y6194300I100000J47746D01*
G01X9269400Y2919287D02*
G03X9337194Y3140100I0J120814D01*
G03X9390214Y3240100I-67794J100000D01*
G03X9337194Y3340100I-120814J0D01*
G03X9354828Y3525528I-67794J100000D01*
G03X9169400Y3507894I-85428J-85428D01*
G03X9160228Y3519763I-100000J-67794D01*
G03X9190214Y3555100I-5828J35337D01*
G01X9190214Y3725099D01*
G03X9154400Y3760913I-35814J0D01*
G01X8984400Y3760913D01*
G03X8948586Y3725099I0J-35814D01*
G01X8948586Y3555100D01*
G03X8978572Y3519763I35814J0D01*
G03X9001606Y3340100I90828J-79663D01*
G03X8983972Y3154672I67794J-100000D01*
G03X9169400Y3172306I85428J85428D01*
G03X9201606Y3140100I100000J67794D01*
G03X9269400Y2919287I67794J-100000D01*
G01X9175586Y5969300D02*
G03X9497214Y5969300I160814J0D01*
G03X9175586Y5969300I-160814J0D01*
G01X9175586Y4419300D02*
G03X9497214Y4419300I160814J0D01*
G03X9175586Y4419300I-160814J0D01*
G04 Copper End*

G04 Rect Start*
G36*
G01X8071766Y1727200D02*
G01X8071766Y3035300D01*
G01X8229600Y3035300D01*
G01X8229600Y1727200D01*
G01X8071766Y1727200D01*
G37*
G36*
G01X7010400Y4543482D02*
G01X7010400Y6134100D01*
G01X7302500Y6134100D01*
G01X7302500Y4543482D01*
G01X7010400Y4543482D01*
G37*
G36*
G01X5562600Y3461274D02*
G01X5562600Y7937500D01*
G01X5842000Y7937500D01*
G01X5842000Y3461274D01*
G01X5562600Y3461274D01*
G37*
G36*
G01X3949700Y3578487D02*
G01X3949700Y3683000D01*
G01X5843288Y3683000D01*
G01X5843288Y3578487D01*
G01X3949700Y3578487D01*
G37*
G36*
G01X4089400Y7721600D02*
G01X4089400Y7937500D01*
G01X5842000Y7937500D01*
G01X5842000Y7721600D01*
G01X4089400Y7721600D01*
G37*
G36*
G01X4089400Y7721600D02*
G01X4089400Y8394700D01*
G01X4267200Y8394700D01*
G01X4267200Y7721600D01*
G01X4089400Y7721600D01*
G37*
G36*
G01X2603500Y7099300D02*
G01X2603500Y8559800D01*
G01X2768600Y8559800D01*
G01X2768600Y7099300D01*
G01X2603500Y7099300D01*
G37*
G36*
G01X1676400Y7099300D02*
G01X1676400Y7353300D01*
G01X2768600Y7353300D01*
G01X2768600Y7099300D01*
G01X1676400Y7099300D01*
G37*
G36*
G01X1676400Y2019300D02*
G01X1676400Y7325631D01*
G01X1892300Y7325631D01*
G01X1892300Y2019300D01*
G01X1676400Y2019300D01*
G37*
G36*
G01X1676400Y3545926D02*
G01X1676400Y3733800D01*
G01X2567960Y3733800D01*
G01X2567960Y3545926D01*
G01X1676400Y3545926D01*
G37*
G04 Rect End*

G04 Pad Start*
G54D11*
G01X9269400Y3040101D03*
G01X9069400Y3040101D03*
G01X9269400Y3240100D03*
G01X9069400Y3240100D03*
G01X9269400Y3440100D03*
G01X9069400Y3440100D03*
G01X9269400Y3640099D03*
G54D12*
G01X9069400Y3640099D03*
G54D11*
G01X2019210Y8382286D03*
G01X1678384Y8088474D03*
G54D13*
G01X2277107Y8274555D03*
G01X1746918Y7817502D03*
G54D11*
G01X8190635Y8109745D03*
G01X7843355Y8395899D03*
G54D13*
G01X8128129Y7837331D03*
G01X7587900Y8282471D03*
G54D14*
G01X709300Y4419300D03*
G01X709300Y5969300D03*
G01X2059300Y5969300D03*
G01X2059300Y4419300D03*
G54D15*
G01X384300Y5194300D03*
G01X384300Y5394300D03*
G01X384300Y4994300D03*
G01X1384300Y6194300D03*
G01X1584300Y6194300D03*
G01X1184300Y6194300D03*
G54D14*
G01X7986400Y4419300D03*
G01X7986400Y5969300D03*
G01X9336400Y5969300D03*
G01X9336400Y4419300D03*
G54D15*
G01X7661400Y5194300D03*
G01X7661400Y5394300D03*
G01X7661400Y4994300D03*
G01X8661400Y6194300D03*
G01X8861400Y6194300D03*
G01X8461400Y6194300D03*
G04 Pad End*

G04 Via Start*
G54D16*
G01X3022600Y4051300D03*
G01X2832100Y5740400D03*
G01X2832100Y3517900D03*
G01X8116705Y2968071D03*
G01X8192852Y2968071D03*
G01X8191500Y1892300D03*
G01X8191500Y1795611D03*
G01X3162300Y4048780D03*
G01X1727200Y4597400D03*
G01X2921000Y6400495D03*
G01X3009900Y3314700D03*
G01X1836141Y4597400D03*
G01X7531100Y2364560D03*
G01X7531100Y914400D03*
G01X8102600Y1028700D03*
G01X7988300Y2578100D03*
G01X8001000Y1143000D03*
G01X7848600Y2578100D03*
G01X3251200Y4048780D03*
G01X5156200Y4878697D03*
G01X5223396Y4954156D03*
G01X3619500Y3200400D03*
G01X2705100Y5193995D03*
G01X2705100Y3670300D03*
G01X3683000Y3263900D03*
G01X2616200Y3848100D03*
G01X2616200Y3441700D03*
G01X3454400Y2895600D03*
G01X3505200Y3619500D03*
G01X3441700Y3009900D03*
G01X3451880Y3327400D03*
G01X3086100Y6311900D03*
G01X3162300Y3644900D03*
G01X1968500Y1816100D03*
G01X3507314Y3835400D03*
G01X3505200Y3721100D03*
G01X7086600Y4597400D03*
G01X7214954Y4597400D03*
G01X2298700Y3073400D03*
G01X7086600Y6083300D03*
G01X7211642Y6083300D03*
G01X7086600Y5994400D03*
G01X7215235Y5994400D03*
G01X7391400Y2044700D03*
G01X6553200Y3797300D03*
G01X3327400Y8674100D03*
G01X4000111Y5115612D03*
G01X4091778Y5151249D03*
G01X4173411Y5202049D03*
G01X4254510Y5240149D03*
G01X4020706Y4781034D03*
G01X4103408Y4783430D03*
G01X4183842Y4783430D03*
G01X4260042Y4783430D03*
G01X8623300Y4114800D03*
G01X6553200Y4140200D03*
G01X4127500Y4140200D03*
G01X3556000Y4140200D03*
G01X8724900Y4013200D03*
G01X3327400Y4049173D03*
G01X6553200Y4064000D03*
G01X3414293Y4051300D03*
G01X3403600Y7035800D03*
G01X3009900Y4914900D03*
G01X3162300Y4965700D03*
G01X3251200Y5029200D03*
G01X6553200Y3987394D03*
G01X9271000Y3949700D03*
G01X6553200Y3873500D03*
G01X9512300Y3873500D03*
G01X5654127Y3625850D03*
G01X5767383Y3625850D03*
G01X5770078Y3517900D03*
G01X5651500Y3517900D03*
G01X5641427Y4349750D03*
G01X5754683Y4349750D03*
G01X5638800Y4241800D03*
G01X5757378Y4241800D03*
G01X4003877Y3630744D03*
G01X4098101Y3630744D03*
G01X5638800Y7874000D03*
G01X5762724Y7874000D03*
G01X5638800Y7785100D03*
G01X5765419Y7785100D03*
G01X4140200Y8178800D03*
G01X4211657Y8178800D03*
G01X4140200Y8356600D03*
G01X4213178Y8356600D03*
G01X3467614Y4846930D03*
G01X3517900Y4787900D03*
G01X3568700Y4724400D03*
G01X3644900Y4663420D03*
G01X3805177Y4529871D03*
G01X3810000Y7505700D03*
G01X3708400Y4597400D03*
G01X3733800Y7404100D03*
G01X3670300Y7239000D03*
G01X3594100Y7315200D03*
G01X3530600Y7137400D03*
G01X3467614Y7581900D03*
G01X2646297Y8521700D03*
G01X2725349Y8521700D03*
G01X1727200Y2146300D03*
G01X1842498Y2146300D03*
G01X1739900Y3632200D03*
G01X1831752Y3632200D03*
G01X5651500Y5626100D03*
G01X5761947Y5626100D03*
G01X2444902Y3676650D03*
G01X2527300Y3676650D03*
G01X2870200Y3365500D03*
G01X3797300Y3327400D03*
G01X1943100Y3073400D03*
G01X1968500Y2857500D03*
G01X288900Y5316518D03*
G01X288900Y5570518D03*
G01X288900Y5824518D03*
G01X288900Y6078518D03*
G01X288900Y2776518D03*
G01X288900Y3030518D03*
G01X288900Y3284518D03*
G01X288900Y3538518D03*
G01X288900Y3792518D03*
G01X288900Y4046518D03*
G01X288900Y4300518D03*
G01X288900Y4554518D03*
G01X288900Y744518D03*
G01X288900Y998518D03*
G01X288900Y1252518D03*
G01X542900Y5316518D03*
G01X542900Y5570518D03*
G01X542900Y5824518D03*
G01X542900Y6078518D03*
G01X542900Y6332518D03*
G01X542900Y6586518D03*
G01X542900Y3030518D03*
G01X542900Y3284518D03*
G01X542900Y3538518D03*
G01X542900Y3792518D03*
G01X542900Y4046518D03*
G01X542900Y4300518D03*
G01X542900Y4554518D03*
G01X542900Y490518D03*
G01X542900Y744518D03*
G01X542900Y998518D03*
G01X542900Y1252518D03*
G01X542900Y1506518D03*
G01X542900Y1760518D03*
G01X542900Y2014518D03*
G01X796900Y5316518D03*
G01X796900Y5570518D03*
G01X796900Y6332518D03*
G01X796900Y6586518D03*
G01X796900Y6840518D03*
G01X796900Y7094518D03*
G01X796900Y3284518D03*
G01X796900Y3538518D03*
G01X796900Y3792518D03*
G01X796900Y4046518D03*
G01X796900Y236518D03*
G01X796900Y490518D03*
G01X796900Y744518D03*
G01X796900Y998518D03*
G01X796900Y1252518D03*
G01X796900Y1506518D03*
G01X796900Y2014518D03*
G01X1050900Y5570518D03*
G01X1050900Y5824518D03*
G01X1050900Y6078518D03*
G01X1050900Y6332518D03*
G01X1050900Y6586518D03*
G01X1050900Y6840518D03*
G01X1050900Y7094518D03*
G01X1050900Y7348518D03*
G01X1050900Y7602518D03*
G01X1050900Y5062518D03*
G01X1050900Y3792518D03*
G01X1050900Y4046518D03*
G01X1050900Y4300518D03*
G01X1050900Y4554518D03*
G01X1050900Y236518D03*
G01X1050900Y490518D03*
G01X1050900Y744518D03*
G01X1050900Y998518D03*
G01X1050900Y1252518D03*
G01X1050900Y2014518D03*
G01X1304900Y6332518D03*
G01X1304900Y6586518D03*
G01X1304900Y6840518D03*
G01X1304900Y7094518D03*
G01X1304900Y7348518D03*
G01X1304900Y7602518D03*
G01X1304900Y7856518D03*
G01X1304900Y5062518D03*
G01X1304900Y5316518D03*
G01X1304900Y5570518D03*
G01X1304900Y3792518D03*
G01X1304900Y4046518D03*
G01X1304900Y4300518D03*
G01X1304900Y4554518D03*
G01X1304900Y2014518D03*
G01X1304900Y236518D03*
G01X1304900Y490518D03*
G01X1558900Y6586518D03*
G01X1558900Y6840518D03*
G01X1558900Y7094518D03*
G01X1558900Y7348518D03*
G01X1558900Y7602518D03*
G01X1558900Y7856518D03*
G01X1558900Y8110518D03*
G01X1558900Y6078518D03*
G01X1558900Y6332518D03*
G01X1558900Y5062518D03*
G01X1558900Y5316518D03*
G01X1558900Y5570518D03*
G01X1558900Y3792518D03*
G01X1558900Y4046518D03*
G01X1558900Y4300518D03*
G01X1558900Y4554518D03*
G01X1558900Y3284518D03*
G01X1558900Y3538518D03*
G01X1558900Y236518D03*
G01X1558900Y490518D03*
G01X1558900Y744518D03*
G01X1558900Y998518D03*
G01X1558900Y1252518D03*
G01X1558900Y1506518D03*
G01X1812900Y7602518D03*
G01X1812900Y8110518D03*
G01X1812900Y8364518D03*
G01X1812900Y236518D03*
G01X1812900Y490518D03*
G01X1812900Y998518D03*
G01X1812900Y1252518D03*
G01X2066900Y8618518D03*
G01X2066900Y6586518D03*
G01X2066900Y6840518D03*
G01X2066900Y7602518D03*
G01X2066900Y7856518D03*
G01X2066900Y8110518D03*
G01X2066900Y6332518D03*
G01X2066900Y5062518D03*
G01X2066900Y5316518D03*
G01X2066900Y5570518D03*
G01X2066900Y4808518D03*
G01X2066900Y3284518D03*
G01X2066900Y236518D03*
G01X2066900Y490518D03*
G01X2066900Y744518D03*
G01X2066900Y998518D03*
G01X2066900Y1252518D03*
G01X2066900Y1506518D03*
G01X2066900Y1760518D03*
G01X2320900Y6586518D03*
G01X2320900Y6840518D03*
G01X2320900Y7602518D03*
G01X2320900Y7856518D03*
G01X2320900Y6332518D03*
G01X2320900Y5570518D03*
G01X2320900Y4300518D03*
G01X2320900Y4808518D03*
G01X2320900Y5062518D03*
G01X2320900Y3284518D03*
G01X2320900Y490518D03*
G01X2320900Y744518D03*
G01X2320900Y998518D03*
G01X2320900Y1252518D03*
G01X2574900Y8872518D03*
G01X2574900Y6586518D03*
G01X2574900Y6840518D03*
G01X2574900Y6332518D03*
G01X2574900Y5316518D03*
G01X2574900Y5570518D03*
G01X2574900Y5824518D03*
G01X2574900Y4300518D03*
G01X2574900Y4808518D03*
G01X2574900Y5062518D03*
G01X2574900Y3284518D03*
G01X2574900Y744518D03*
G01X2574900Y998518D03*
G01X2574900Y1252518D03*
G01X2574900Y1506518D03*
G01X2574900Y1760518D03*
G01X2574900Y2014518D03*
G01X2574900Y2268518D03*
G01X2574900Y2522518D03*
G01X2828900Y8872518D03*
G01X2828900Y6586518D03*
G01X2828900Y6840518D03*
G01X2828900Y7094518D03*
G01X2828900Y7348518D03*
G01X2828900Y7602518D03*
G01X2828900Y7856518D03*
G01X2828900Y8110518D03*
G01X2828900Y8364518D03*
G01X2828900Y998518D03*
G01X2828900Y1252518D03*
G01X2828900Y1506518D03*
G01X2828900Y2014518D03*
G01X2828900Y2268518D03*
G01X2828900Y2776518D03*
G01X3082900Y8872518D03*
G01X3082900Y9126518D03*
G01X3082900Y6586518D03*
G01X3082900Y6840518D03*
G01X3082900Y7094518D03*
G01X3082900Y7348518D03*
G01X3082900Y7602518D03*
G01X3082900Y7856518D03*
G01X3082900Y8110518D03*
G01X3082900Y8364518D03*
G01X3082900Y2522518D03*
G01X3082900Y2776518D03*
G01X3336900Y8872518D03*
G01X3336900Y9126518D03*
G01X3336900Y2776518D03*
G01X3590900Y8618518D03*
G01X3590900Y8872518D03*
G01X3590900Y9126518D03*
G01X3590900Y9380518D03*
G01X3590900Y7856518D03*
G01X3590900Y8110518D03*
G01X3844900Y8618518D03*
G01X3844900Y8872518D03*
G01X3844900Y9126518D03*
G01X3844900Y9380518D03*
G01X4098900Y6586518D03*
G01X4098900Y6840518D03*
G01X4098900Y5824518D03*
G01X4098900Y5570518D03*
G01X4352900Y6586518D03*
G01X4352900Y6840518D03*
G01X4352900Y5824518D03*
G01X4352900Y5316518D03*
G01X4352900Y5570518D03*
G01X4606900Y6586518D03*
G01X4606900Y6840518D03*
G01X4606900Y5824518D03*
G01X4606900Y5316518D03*
G01X4606900Y5570518D03*
G01X4606900Y4808518D03*
G01X4860900Y8364518D03*
G01X4860900Y6586518D03*
G01X4860900Y6840518D03*
G01X4860900Y5824518D03*
G01X4860900Y5062518D03*
G01X4860900Y5316518D03*
G01X4860900Y5570518D03*
G01X5114900Y6586518D03*
G01X5114900Y6840518D03*
G01X5114900Y5824518D03*
G01X5114900Y5316518D03*
G01X5114900Y5570518D03*
G01X5368900Y8618518D03*
G01X5368900Y6586518D03*
G01X5368900Y6840518D03*
G01X5368900Y5824518D03*
G01X5368900Y4808518D03*
G01X5368900Y5570518D03*
G01X5622900Y8618518D03*
G01X5876900Y8110518D03*
G01X5876900Y8364518D03*
G01X5876900Y8618518D03*
G01X5876900Y8872518D03*
G01X5876900Y9126518D03*
G01X5876900Y9380518D03*
G01X6130900Y8110518D03*
G01X6130900Y8364518D03*
G01X6130900Y8618518D03*
G01X6130900Y8872518D03*
G01X6130900Y9126518D03*
G01X6130900Y9380518D03*
G01X6130900Y6586518D03*
G01X6130900Y6840518D03*
G01X6130900Y5824518D03*
G01X6130900Y4300518D03*
G01X6130900Y4554518D03*
G01X6130900Y4808518D03*
G01X6130900Y5570518D03*
G01X6130900Y3284518D03*
G01X6384900Y8110518D03*
G01X6384900Y8364518D03*
G01X6384900Y8618518D03*
G01X6384900Y8872518D03*
G01X6384900Y9126518D03*
G01X6384900Y9380518D03*
G01X6384900Y6586518D03*
G01X6384900Y6840518D03*
G01X6384900Y7094518D03*
G01X6384900Y5824518D03*
G01X6384900Y4300518D03*
G01X6384900Y4554518D03*
G01X6384900Y4808518D03*
G01X6384900Y5062518D03*
G01X6384900Y5570518D03*
G01X6384900Y3284518D03*
G01X6638900Y8110518D03*
G01X6638900Y8364518D03*
G01X6638900Y8618518D03*
G01X6638900Y8872518D03*
G01X6638900Y9126518D03*
G01X6638900Y6586518D03*
G01X6638900Y6840518D03*
G01X6638900Y7094518D03*
G01X6638900Y7348518D03*
G01X6638900Y5824518D03*
G01X6638900Y4300518D03*
G01X6638900Y4554518D03*
G01X6638900Y4808518D03*
G01X6638900Y5062518D03*
G01X6638900Y5316518D03*
G01X6638900Y5570518D03*
G01X6638900Y2776518D03*
G01X6638900Y3030518D03*
G01X6638900Y3284518D03*
G01X6892900Y8364518D03*
G01X6892900Y8618518D03*
G01X6892900Y8872518D03*
G01X6892900Y9126518D03*
G01X6892900Y6586518D03*
G01X6892900Y6840518D03*
G01X6892900Y7094518D03*
G01X6892900Y7348518D03*
G01X6892900Y7602518D03*
G01X6892900Y5824518D03*
G01X6892900Y4554518D03*
G01X6892900Y4808518D03*
G01X6892900Y5062518D03*
G01X6892900Y5316518D03*
G01X6892900Y5570518D03*
G01X6892900Y2522518D03*
G01X6892900Y2776518D03*
G01X6892900Y3284518D03*
G01X7146900Y8618518D03*
G01X7146900Y8872518D03*
G01X7146900Y6586518D03*
G01X7146900Y6840518D03*
G01X7146900Y7094518D03*
G01X7146900Y7348518D03*
G01X7146900Y7602518D03*
G01X7146900Y7856518D03*
G01X7146900Y998518D03*
G01X7146900Y1252518D03*
G01X7146900Y1506518D03*
G01X7146900Y1760518D03*
G01X7146900Y2014518D03*
G01X7146900Y2268518D03*
G01X7146900Y2522518D03*
G01X7400900Y8872518D03*
G01X7400900Y6586518D03*
G01X7400900Y6840518D03*
G01X7400900Y7094518D03*
G01X7400900Y7348518D03*
G01X7400900Y7602518D03*
G01X7400900Y7856518D03*
G01X7400900Y8110518D03*
G01X7400900Y5570518D03*
G01X7400900Y5824518D03*
G01X7400900Y6078518D03*
G01X7400900Y4808518D03*
G01X7400900Y5062518D03*
G01X7400900Y3792518D03*
G01X7400900Y4300518D03*
G01X7654900Y6586518D03*
G01X7654900Y6840518D03*
G01X7654900Y7094518D03*
G01X7654900Y7348518D03*
G01X7654900Y7602518D03*
G01X7654900Y7856518D03*
G01X7654900Y8110518D03*
G01X7654900Y5570518D03*
G01X7654900Y5824518D03*
G01X7654900Y6078518D03*
G01X7654900Y3284518D03*
G01X7654900Y3538518D03*
G01X7654900Y3792518D03*
G01X7654900Y4300518D03*
G01X7654900Y4554518D03*
G01X7654900Y744518D03*
G01X7654900Y1252518D03*
G01X7654900Y1506518D03*
G01X7654900Y2014518D03*
G01X7654900Y2522518D03*
G01X7654900Y2776518D03*
G01X7908900Y8618518D03*
G01X7908900Y6586518D03*
G01X7908900Y6840518D03*
G01X7908900Y7094518D03*
G01X7908900Y7348518D03*
G01X7908900Y7602518D03*
G01X7908900Y7856518D03*
G01X7908900Y8110518D03*
G01X7908900Y5570518D03*
G01X7908900Y3284518D03*
G01X7908900Y3538518D03*
G01X7908900Y3792518D03*
G01X7908900Y4808518D03*
G01X7908900Y236518D03*
G01X7908900Y744518D03*
G01X7908900Y2776518D03*
G01X8162900Y6586518D03*
G01X8162900Y6840518D03*
G01X8162900Y7094518D03*
G01X8162900Y7348518D03*
G01X8162900Y7602518D03*
G01X8162900Y8364518D03*
G01X8162900Y6078518D03*
G01X8162900Y3284518D03*
G01X8162900Y3538518D03*
G01X8162900Y3792518D03*
G01X8162900Y4300518D03*
G01X8162900Y4554518D03*
G01X8162900Y4808518D03*
G01X8162900Y5062518D03*
G01X8162900Y236518D03*
G01X8162900Y744518D03*
G01X8162900Y1252518D03*
G01X8416900Y6586518D03*
G01X8416900Y6840518D03*
G01X8416900Y7094518D03*
G01X8416900Y7348518D03*
G01X8416900Y7602518D03*
G01X8416900Y7856518D03*
G01X8416900Y8110518D03*
G01X8416900Y236518D03*
G01X8416900Y744518D03*
G01X8416900Y1252518D03*
G01X8416900Y1760518D03*
G01X8416900Y2014518D03*
G01X8416900Y2776518D03*
G01X8416900Y3030518D03*
G01X8416900Y3284518D03*
G01X8416900Y3538518D03*
G01X8416900Y3792518D03*
G01X8416900Y4300518D03*
G01X8416900Y4554518D03*
G01X8416900Y4808518D03*
G01X8416900Y5062518D03*
G01X8416900Y5316518D03*
G01X8416900Y5570518D03*
G01X8416900Y5824518D03*
G01X8670900Y6840518D03*
G01X8670900Y7094518D03*
G01X8670900Y7348518D03*
G01X8670900Y7602518D03*
G01X8670900Y7856518D03*
G01X8670900Y744518D03*
G01X8670900Y1252518D03*
G01X8670900Y1760518D03*
G01X8670900Y2014518D03*
G01X8670900Y2268518D03*
G01X8670900Y2522518D03*
G01X8670900Y3030518D03*
G01X8670900Y4300518D03*
G01X8670900Y4554518D03*
G01X8670900Y4808518D03*
G01X8670900Y5062518D03*
G01X8670900Y5316518D03*
G01X8670900Y5570518D03*
G01X8670900Y5824518D03*
G01X8924900Y236518D03*
G01X8924900Y490518D03*
G01X8924900Y744518D03*
G01X8924900Y998518D03*
G01X8924900Y1252518D03*
G01X8924900Y2268518D03*
G01X8924900Y2522518D03*
G01X8924900Y3030518D03*
G01X8924900Y3792518D03*
G01X8924900Y4046518D03*
G01X8924900Y4300518D03*
G01X8924900Y4554518D03*
G01X8924900Y4808518D03*
G01X8924900Y5062518D03*
G01X8924900Y5316518D03*
G01X8924900Y5570518D03*
G01X8924900Y5824518D03*
G01X8924900Y6078518D03*
G01X8924900Y6332518D03*
G01X8924900Y6586518D03*
G01X8924900Y6840518D03*
G01X8924900Y7094518D03*
G01X8924900Y7348518D03*
G01X8924900Y7602518D03*
G01X9178900Y236518D03*
G01X9178900Y490518D03*
G01X9178900Y744518D03*
G01X9178900Y998518D03*
G01X9178900Y1252518D03*
G01X9178900Y2268518D03*
G01X9178900Y2522518D03*
G01X9178900Y3792518D03*
G01X9178900Y4046518D03*
G01X9178900Y4300518D03*
G01X9178900Y4554518D03*
G01X9178900Y4808518D03*
G01X9178900Y5062518D03*
G01X9178900Y5316518D03*
G01X9178900Y5570518D03*
G01X9178900Y5824518D03*
G01X9178900Y6078518D03*
G01X9178900Y6332518D03*
G01X9178900Y6586518D03*
G01X9178900Y6840518D03*
G01X9178900Y7094518D03*
G01X9432900Y490518D03*
G01X9432900Y744518D03*
G01X9432900Y998518D03*
G01X9432900Y1252518D03*
G01X9432900Y1506518D03*
G01X9432900Y1760518D03*
G01X9432900Y2014518D03*
G01X9432900Y2268518D03*
G01X9432900Y2522518D03*
G01X9432900Y2776518D03*
G01X9432900Y3030518D03*
G01X9432900Y3284518D03*
G01X9432900Y4046518D03*
G01X9432900Y4808518D03*
G01X9432900Y5062518D03*
G01X9432900Y5316518D03*
G01X9432900Y5570518D03*
G01X9432900Y6332518D03*
G01X9432900Y6586518D03*
G01X9432900Y6840518D03*
G01X9686900Y744518D03*
G01X9686900Y998518D03*
G01X9686900Y1252518D03*
G01X9686900Y1760518D03*
G01X9686900Y2014518D03*
G01X9686900Y2268518D03*
G01X9686900Y2776518D03*
G01X9686900Y3030518D03*
G01X9686900Y3284518D03*
G01X9686900Y3538518D03*
G01X9686900Y3792518D03*
G01X9686900Y4046518D03*
G01X9686900Y4300518D03*
G01X9686900Y4554518D03*
G01X9686900Y4808518D03*
G01X9686900Y5062518D03*
G01X9686900Y5316518D03*
G01X9686900Y5570518D03*
G01X9686900Y5824518D03*
G01X9686900Y6078518D03*
G01X927208Y2558034D03*
G01X927208Y2812034D03*
G01X1181208Y2812034D03*
G01X1181208Y3066034D03*
G01X1435208Y2812034D03*
G01X1435208Y3066034D03*
G01X2197208Y2812034D03*
G01X2451208Y2812034D03*
G01X2768534Y3408934D03*
G01X4687600Y3737175D03*
G01X4941600Y3737175D03*
G01X5449600Y3737175D03*
G04 Via End*

G04 Track Start*
G54D17*
G01X7531100Y2364560D02*
G01X7531100Y914400D01*
G01X8102600Y1028700D02*
G01X8102600Y1409700D01*
G01X7988300Y1524000D01*
G01X7988300Y2578100D01*
G01X8001000Y1143000D02*
G01X7848600Y1295400D01*
G01X7848600Y2578100D01*
G54D19*
G01X5156200Y4878697D02*
G01X5003800Y4726297D01*
G01X5223396Y4954156D02*
G01X5223396Y4816996D01*
G01X5092700Y4686300D01*
G01X2705100Y5193995D02*
G01X2705100Y3670300D01*
G01X2921000Y3403600D02*
G01X3009900Y3314700D01*
G01X2921000Y6400495D02*
G01X2921000Y3403600D01*
G01X3454400Y2895600D02*
G01X3505200Y2946400D01*
G01X3505200Y3619500D01*
G01X3441700Y3009900D02*
G01X3451880Y3020080D01*
G01X3451880Y3327400D01*
G01X3327400Y8674100D02*
G01X3327400Y4049173D01*
G01X3086100Y6311900D02*
G01X3086100Y3721100D01*
G01X3162300Y3644900D01*
G01X2832100Y5740400D02*
G01X2832100Y3517900D01*
G01X3505200Y3721100D02*
G01X3398560Y3614460D01*
G01X3314700Y3642786D02*
G01X3507314Y3835400D01*
G01X8623300Y4114800D02*
G01X8597900Y4140200D01*
G01X6553200Y4140200D01*
G01X4127500Y4140200D02*
G01X3556000Y4140200D01*
G01X8724900Y4013200D02*
G01X8674100Y4064000D01*
G01X8647906Y4064000D01*
G01X8645386Y4061480D01*
G01X8601214Y4061480D01*
G01X8598694Y4064000D01*
G01X6553200Y4064000D01*
G01X8702814Y3959880D02*
G01X9260820Y3959880D01*
G01X9271000Y3949700D01*
G01X6553200Y3873500D02*
G01X9512300Y3873500D01*
G01X6553200Y3987394D02*
G01X8675300Y3987394D01*
G01X8702814Y3959880D01*
G01X7391400Y2044700D02*
G01X7391400Y3644900D01*
G01X7239000Y3797300D01*
G01X6553200Y3797300D01*
G01X4254510Y5240149D02*
G01X4260042Y5234617D01*
G01X4260042Y4783430D01*
G01X5003800Y4726297D02*
G01X5003800Y4038600D01*
G01X5092700Y4686300D02*
G01X5092700Y4013200D01*
G01X5003800Y4038600D02*
G01X4902200Y3937000D01*
G01X5092700Y4013200D02*
G01X4953000Y3873500D01*
G01X4902200Y3937000D02*
G01X3924300Y3937000D01*
G01X3619500Y3632200D01*
G01X3619500Y3200400D01*
G01X4953000Y3873500D02*
G01X3962400Y3873500D01*
G01X3683000Y3594100D01*
G01X3683000Y3263900D01*
G01X2095500Y3136900D02*
G01X3238500Y3136900D01*
G01X3314700Y3213100D01*
G01X3314700Y3642786D01*
G01X3398560Y3614460D02*
G01X3398560Y3233460D01*
G01X3238500Y3073400D01*
G01X2298700Y3073400D01*
G01X3251200Y5029200D02*
G01X3251200Y4048780D01*
G01X3162300Y4965700D02*
G01X3162300Y4048780D01*
G01X3022600Y4051300D02*
G01X3009900Y4064000D01*
G01X3009900Y4914900D01*
G01X4000111Y5115612D02*
G01X4020706Y5095016D01*
G01X4020706Y4781034D01*
G01X4173411Y5202049D02*
G01X4183842Y5191618D01*
G01X4183842Y4783430D01*
G01X4091778Y5151249D02*
G01X4103408Y5139619D01*
G01X4103408Y4783430D01*
G01X3568700Y4724400D02*
G01X3568700Y4763294D01*
G01X3517900Y4787900D02*
G01X3517900Y4821810D01*
G01X3708400Y4597400D02*
G01X3733800Y4622800D01*
G01X3733800Y7404100D01*
G01X3810000Y7505700D02*
G01X3805177Y7500877D01*
G01X3805177Y4529871D01*
G01X3644900Y4663420D02*
G01X3670300Y4688820D01*
G01X3670300Y7239000D01*
G01X3568700Y4763294D02*
G01X3594100Y4788694D01*
G01X3594100Y7315200D01*
G01X3517900Y4821810D02*
G01X3530600Y4834510D01*
G01X3530600Y7137400D01*
G01X3414293Y4051300D02*
G01X3403600Y4061993D01*
G01X3403600Y7035800D01*
G01X3467614Y4846930D02*
G01X3467614Y7581900D01*
G01X2616200Y3848100D02*
G01X2616200Y3441700D01*
G01X1968500Y1816100D02*
G01X2057400Y1905000D01*
G01X2057400Y3098800D01*
G01X2095500Y3136900D01*
G01X1943100Y3073400D02*
G01X1943100Y2882900D01*
G01X1968500Y2857500D01*
G04 Track End*

M02*

