G04 Layer: TopSilkscreenLayer*
G04 EasyEDA Pro v3.2.148, 2026-07-06 23:38:55*
G04 Gerber Generator version 0.3*
G04 Scale: 100 percent, Rotated: No, Reflected: No*
G04 Dimensions in millimeters*
G04 Leading zeros omitted, absolute positions, 4 integers and 5 decimals*
G04 Generated by one-click*
G04 Object Configs: Pad,Via,Track,Text,Image,Dimension,BoardOutline,BoardCutout,CopperFilled,SolidRegion,FPCStiffener,Line,PlaneZone,ComponentProperty,ComponentSilkscreen,TearDrop*
G04 Layer Configs: 1,2,3,4,5,6,7,8,9,10,11,13,14,56*
G04 Copper Areas: 0*
%FSLAX45Y45*%
%MOMM*%
%ADD10C,0.2032*%
%ADD11C,0.1524*%
%ADD12C,0.254*%
%ADD13C,0.15199*%
%ADD14C,0.2*%
%ADD15C,0.4*%
%ADD16C,0.3*%
%ADD17C,0.0895*%
%ADD18C,0.0762*%
G75*


G04 Text Start*
G54D10*
G01X6954520Y7230110D02*
G01X6936740Y7247890D01*
G01X6910070Y7256780D01*
G01X6874510Y7256780D01*
G01X6847840Y7247890D01*
G01X6830060Y7230110D01*
G01X6830060Y7212330D01*
G01X6838950Y7194550D01*
G01X6847840Y7185660D01*
G01X6865620Y7176770D01*
G01X6918960Y7158990D01*
G01X6936740Y7150100D01*
G01X6945630Y7141210D01*
G01X6954520Y7123430D01*
G01X6954520Y7096760D01*
G01X6936740Y7078980D01*
G01X6910070Y7070090D01*
G01X6874510Y7070090D01*
G01X6847840Y7078980D01*
G01X6830060Y7096760D01*
G01X7079742Y7256780D02*
G01X7079742Y7070090D01*
G01X7017512Y7256780D02*
G01X7141972Y7256780D01*
G01X7204964Y7256780D02*
G01X7204964Y7070090D01*
G01X7204964Y7256780D02*
G01X7276084Y7070090D01*
G01X7347204Y7256780D02*
G01X7276084Y7070090D01*
G01X7347204Y7256780D02*
G01X7347204Y7070090D01*
G01X7427976Y7256780D02*
G01X7525766Y7256780D01*
G01X7472426Y7185660D01*
G01X7499096Y7185660D01*
G01X7516876Y7176770D01*
G01X7525766Y7167880D01*
G01X7534656Y7141210D01*
G01X7534656Y7123430D01*
G01X7525766Y7096760D01*
G01X7507986Y7078980D01*
G01X7481316Y7070090D01*
G01X7454646Y7070090D01*
G01X7427976Y7078980D01*
G01X7419086Y7087870D01*
G01X7410196Y7105650D01*
G01X7606538Y7212330D02*
G01X7606538Y7221220D01*
G01X7615428Y7239000D01*
G01X7624318Y7247890D01*
G01X7642098Y7256780D01*
G01X7677658Y7256780D01*
G01X7695438Y7247890D01*
G01X7704328Y7239000D01*
G01X7713218Y7221220D01*
G01X7713218Y7203440D01*
G01X7704328Y7185660D01*
G01X7686548Y7158990D01*
G01X7597648Y7070090D01*
G01X7722108Y7070090D01*
G01X7984236Y7256780D02*
G01X7984236Y7070090D01*
G01X7984236Y7256780D02*
G01X8064246Y7256780D01*
G01X8090916Y7247890D01*
G01X8099806Y7239000D01*
G01X8108696Y7221220D01*
G01X8108696Y7203440D01*
G01X8099806Y7185660D01*
G01X8090916Y7176770D01*
G01X8064246Y7167880D01*
G01X7984236Y7167880D01*
G01X8046466Y7167880D02*
G01X8108696Y7070090D01*
G01X8305038Y7212330D02*
G01X8296148Y7230110D01*
G01X8278368Y7247890D01*
G01X8260588Y7256780D01*
G01X8225028Y7256780D01*
G01X8207248Y7247890D01*
G01X8189468Y7230110D01*
G01X8180578Y7212330D01*
G01X8171688Y7185660D01*
G01X8171688Y7141210D01*
G01X8180578Y7114540D01*
G01X8189468Y7096760D01*
G01X8207248Y7078980D01*
G01X8225028Y7070090D01*
G01X8260588Y7070090D01*
G01X8278368Y7078980D01*
G01X8296148Y7096760D01*
G01X8305038Y7114540D01*
G01X6915531Y6913880D02*
G01X6844411Y6727190D01*
G01X6915531Y6913880D02*
G01X6986651Y6727190D01*
G01X6871081Y6789420D02*
G01X6959981Y6789420D01*
G01X7049643Y6913880D02*
G01X7049643Y6727190D01*
G01X7219315Y6851650D02*
G01X7219315Y6727190D01*
G01X7219315Y6824980D02*
G01X7201535Y6842760D01*
G01X7183755Y6851650D01*
G01X7157085Y6851650D01*
G01X7139305Y6842760D01*
G01X7121525Y6824980D01*
G01X7112635Y6798310D01*
G01X7112635Y6780530D01*
G01X7121525Y6753860D01*
G01X7139305Y6736080D01*
G01X7157085Y6727190D01*
G01X7183755Y6727190D01*
G01X7201535Y6736080D01*
G01X7219315Y6753860D01*
G01X7282307Y6851650D02*
G01X7282307Y6727190D01*
G01X7282307Y6816090D02*
G01X7308977Y6842760D01*
G01X7326757Y6851650D01*
G01X7353427Y6851650D01*
G01X7371207Y6842760D01*
G01X7380097Y6816090D01*
G01X7380097Y6727190D01*
G01X7642225Y6913880D02*
G01X7713345Y6824980D01*
G01X7713345Y6727190D01*
G01X7784465Y6913880D02*
G01X7713345Y6824980D01*
G01X7954137Y6851650D02*
G01X7954137Y6727190D01*
G01X7954137Y6824980D02*
G01X7936357Y6842760D01*
G01X7918577Y6851650D01*
G01X7891907Y6851650D01*
G01X7874127Y6842760D01*
G01X7856347Y6824980D01*
G01X7847457Y6798310D01*
G01X7847457Y6780530D01*
G01X7856347Y6753860D01*
G01X7874127Y6736080D01*
G01X7891907Y6727190D01*
G01X7918577Y6727190D01*
G01X7936357Y6736080D01*
G01X7954137Y6753860D01*
G01X8017129Y6851650D02*
G01X8017129Y6727190D01*
G01X8017129Y6816090D02*
G01X8043799Y6842760D01*
G01X8061579Y6851650D01*
G01X8088249Y6851650D01*
G01X8106029Y6842760D01*
G01X8114919Y6816090D01*
G01X8114919Y6727190D01*
G01X8284591Y6851650D02*
G01X8284591Y6709410D01*
G01X8275701Y6682740D01*
G01X8266811Y6673850D01*
G01X8249031Y6664960D01*
G01X8222361Y6664960D01*
G01X8204581Y6673850D01*
G01X8284591Y6824980D02*
G01X8266811Y6842760D01*
G01X8249031Y6851650D01*
G01X8222361Y6851650D01*
G01X8204581Y6842760D01*
G01X8186801Y6824980D01*
G01X8177911Y6798310D01*
G01X8177911Y6780530D01*
G01X8186801Y6753860D01*
G01X8204581Y6736080D01*
G01X8222361Y6727190D01*
G01X8249031Y6727190D01*
G01X8266811Y6736080D01*
G01X8284591Y6753860D01*
G54D11*
G01X2289302Y3342640D02*
G01X2286254Y3348990D01*
G01X2279904Y3355086D01*
G01X2273808Y3358134D01*
G01X2261362Y3358134D01*
G01X2255266Y3355086D01*
G01X2248916Y3348990D01*
G01X2245868Y3342640D01*
G01X2242820Y3333496D01*
G01X2242820Y3318002D01*
G01X2245868Y3308604D01*
G01X2248916Y3302508D01*
G01X2255266Y3296158D01*
G01X2261362Y3293110D01*
G01X2273808Y3293110D01*
G01X2279904Y3296158D01*
G01X2286254Y3302508D01*
G01X2289302Y3308604D01*
G01X2319528Y3345688D02*
G01X2325624Y3348990D01*
G01X2334768Y3358134D01*
G01X2334768Y3293110D01*
G01X2581402Y4244340D02*
G01X2578354Y4250690D01*
G01X2572004Y4256786D01*
G01X2565908Y4259834D01*
G01X2553462Y4259834D01*
G01X2547366Y4256786D01*
G01X2541016Y4250690D01*
G01X2537968Y4244340D01*
G01X2534920Y4235196D01*
G01X2534920Y4219702D01*
G01X2537968Y4210304D01*
G01X2541016Y4204208D01*
G01X2547366Y4197858D01*
G01X2553462Y4194810D01*
G01X2565908Y4194810D01*
G01X2572004Y4197858D01*
G01X2578354Y4204208D01*
G01X2581402Y4210304D01*
G01X2614676Y4244340D02*
G01X2614676Y4247388D01*
G01X2617724Y4253738D01*
G01X2620772Y4256786D01*
G01X2626868Y4259834D01*
G01X2639314Y4259834D01*
G01X2645664Y4256786D01*
G01X2648712Y4253738D01*
G01X2651760Y4247388D01*
G01X2651760Y4241292D01*
G01X2648712Y4235196D01*
G01X2642362Y4225798D01*
G01X2611628Y4194810D01*
G01X2654808Y4194810D01*
G01X2403602Y4244340D02*
G01X2400554Y4250690D01*
G01X2394204Y4256786D01*
G01X2388108Y4259834D01*
G01X2375662Y4259834D01*
G01X2369566Y4256786D01*
G01X2363216Y4250690D01*
G01X2360168Y4244340D01*
G01X2357120Y4235196D01*
G01X2357120Y4219702D01*
G01X2360168Y4210304D01*
G01X2363216Y4204208D01*
G01X2369566Y4197858D01*
G01X2375662Y4194810D01*
G01X2388108Y4194810D01*
G01X2394204Y4197858D01*
G01X2400554Y4204208D01*
G01X2403602Y4210304D01*
G01X2439924Y4259834D02*
G01X2473960Y4259834D01*
G01X2455418Y4235196D01*
G01X2464562Y4235196D01*
G01X2470912Y4232148D01*
G01X2473960Y4228846D01*
G01X2477008Y4219702D01*
G01X2477008Y4213352D01*
G01X2473960Y4204208D01*
G01X2467864Y4197858D01*
G01X2458466Y4194810D01*
G01X2449068Y4194810D01*
G01X2439924Y4197858D01*
G01X2436876Y4201160D01*
G01X2433828Y4207256D01*
G01X2530593Y4345941D02*
G01X2527545Y4352291D01*
G01X2521195Y4358387D01*
G01X2515099Y4361435D01*
G01X2502653Y4361435D01*
G01X2496557Y4358387D01*
G01X2490207Y4352291D01*
G01X2487159Y4345941D01*
G01X2484111Y4336797D01*
G01X2484111Y4321303D01*
G01X2487159Y4311905D01*
G01X2490207Y4305809D01*
G01X2496557Y4299459D01*
G01X2502653Y4296411D01*
G01X2515099Y4296411D01*
G01X2521195Y4299459D01*
G01X2527545Y4305809D01*
G01X2530593Y4311905D01*
G01X2591553Y4361435D02*
G01X2560819Y4318255D01*
G01X2607047Y4318255D01*
G01X2591553Y4361435D02*
G01X2591553Y4296411D01*
G01X3688588Y4602226D02*
G01X3685540Y4608576D01*
G01X3679190Y4614672D01*
G01X3673094Y4617720D01*
G01X3660648Y4617720D01*
G01X3654552Y4614672D01*
G01X3648202Y4608576D01*
G01X3645154Y4602226D01*
G01X3642106Y4593082D01*
G01X3642106Y4577588D01*
G01X3645154Y4568190D01*
G01X3648202Y4562094D01*
G01X3654552Y4555744D01*
G01X3660648Y4552696D01*
G01X3673094Y4552696D01*
G01X3679190Y4555744D01*
G01X3685540Y4562094D01*
G01X3688588Y4568190D01*
G01X3755898Y4617720D02*
G01X3724910Y4617720D01*
G01X3721862Y4590034D01*
G01X3724910Y4593082D01*
G01X3734054Y4596130D01*
G01X3743452Y4596130D01*
G01X3752850Y4593082D01*
G01X3758946Y4586732D01*
G01X3761994Y4577588D01*
G01X3761994Y4571238D01*
G01X3758946Y4562094D01*
G01X3752850Y4555744D01*
G01X3743452Y4552696D01*
G01X3734054Y4552696D01*
G01X3724910Y4555744D01*
G01X3721862Y4559046D01*
G01X3718814Y4565142D01*
G01X4054602Y3495040D02*
G01X4051554Y3501390D01*
G01X4045204Y3507486D01*
G01X4039108Y3510534D01*
G01X4026662Y3510534D01*
G01X4020566Y3507486D01*
G01X4014216Y3501390D01*
G01X4011168Y3495040D01*
G01X4008120Y3485896D01*
G01X4008120Y3470402D01*
G01X4011168Y3461004D01*
G01X4014216Y3454908D01*
G01X4020566Y3448558D01*
G01X4026662Y3445510D01*
G01X4039108Y3445510D01*
G01X4045204Y3448558D01*
G01X4051554Y3454908D01*
G01X4054602Y3461004D01*
G01X4121912Y3501390D02*
G01X4118864Y3507486D01*
G01X4109466Y3510534D01*
G01X4103370Y3510534D01*
G01X4093972Y3507486D01*
G01X4087876Y3498088D01*
G01X4084828Y3482848D01*
G01X4084828Y3467354D01*
G01X4087876Y3454908D01*
G01X4093972Y3448558D01*
G01X4103370Y3445510D01*
G01X4106418Y3445510D01*
G01X4115562Y3448558D01*
G01X4121912Y3454908D01*
G01X4124960Y3464052D01*
G01X4124960Y3467354D01*
G01X4121912Y3476498D01*
G01X4115562Y3482848D01*
G01X4106418Y3485896D01*
G01X4103370Y3485896D01*
G01X4093972Y3482848D01*
G01X4087876Y3476498D01*
G01X4084828Y3467354D01*
G01X2136902Y3774440D02*
G01X2133854Y3780790D01*
G01X2127504Y3786886D01*
G01X2121408Y3789934D01*
G01X2108962Y3789934D01*
G01X2102866Y3786886D01*
G01X2096516Y3780790D01*
G01X2093468Y3774440D01*
G01X2090420Y3765296D01*
G01X2090420Y3749802D01*
G01X2093468Y3740404D01*
G01X2096516Y3734308D01*
G01X2102866Y3727958D01*
G01X2108962Y3724910D01*
G01X2121408Y3724910D01*
G01X2127504Y3727958D01*
G01X2133854Y3734308D01*
G01X2136902Y3740404D01*
G01X2210308Y3789934D02*
G01X2179320Y3724910D01*
G01X2167128Y3789934D02*
G01X2210308Y3789934D01*
G01X4092702Y8054340D02*
G01X4089654Y8060690D01*
G01X4083304Y8066786D01*
G01X4077208Y8069834D01*
G01X4064762Y8069834D01*
G01X4058666Y8066786D01*
G01X4052316Y8060690D01*
G01X4049268Y8054340D01*
G01X4046220Y8045196D01*
G01X4046220Y8029702D01*
G01X4049268Y8020304D01*
G01X4052316Y8014208D01*
G01X4058666Y8007858D01*
G01X4064762Y8004810D01*
G01X4077208Y8004810D01*
G01X4083304Y8007858D01*
G01X4089654Y8014208D01*
G01X4092702Y8020304D01*
G01X4122928Y8057388D02*
G01X4129024Y8060690D01*
G01X4138168Y8069834D01*
G01X4138168Y8004810D01*
G01X4174490Y8069834D02*
G01X4208526Y8069834D01*
G01X4189984Y8045196D01*
G01X4199128Y8045196D01*
G01X4205478Y8042148D01*
G01X4208526Y8038846D01*
G01X4211574Y8029702D01*
G01X4211574Y8023352D01*
G01X4208526Y8014208D01*
G01X4202430Y8007858D01*
G01X4193032Y8004810D01*
G01X4183634Y8004810D01*
G01X4174490Y8007858D01*
G01X4171442Y8011160D01*
G01X4168394Y8017256D01*
G01X3559302Y8054340D02*
G01X3556254Y8060690D01*
G01X3549904Y8066786D01*
G01X3543808Y8069834D01*
G01X3531362Y8069834D01*
G01X3525266Y8066786D01*
G01X3518916Y8060690D01*
G01X3515868Y8054340D01*
G01X3512820Y8045196D01*
G01X3512820Y8029702D01*
G01X3515868Y8020304D01*
G01X3518916Y8014208D01*
G01X3525266Y8007858D01*
G01X3531362Y8004810D01*
G01X3543808Y8004810D01*
G01X3549904Y8007858D01*
G01X3556254Y8014208D01*
G01X3559302Y8020304D01*
G01X3589528Y8057388D02*
G01X3595624Y8060690D01*
G01X3604768Y8069834D01*
G01X3604768Y8004810D01*
G01X3665728Y8069834D02*
G01X3634994Y8026654D01*
G01X3681222Y8026654D01*
G01X3665728Y8069834D02*
G01X3665728Y8004810D01*
G01X4257802Y8803640D02*
G01X4254754Y8809990D01*
G01X4248404Y8816086D01*
G01X4242308Y8819134D01*
G01X4229862Y8819134D01*
G01X4223766Y8816086D01*
G01X4217416Y8809990D01*
G01X4214368Y8803640D01*
G01X4211320Y8794496D01*
G01X4211320Y8779002D01*
G01X4214368Y8769604D01*
G01X4217416Y8763508D01*
G01X4223766Y8757158D01*
G01X4229862Y8754110D01*
G01X4242308Y8754110D01*
G01X4248404Y8757158D01*
G01X4254754Y8763508D01*
G01X4257802Y8769604D01*
G01X4288028Y8806688D02*
G01X4294124Y8809990D01*
G01X4303268Y8819134D01*
G01X4303268Y8754110D01*
G01X4370578Y8819134D02*
G01X4339590Y8819134D01*
G01X4336542Y8791448D01*
G01X4339590Y8794496D01*
G01X4348734Y8797544D01*
G01X4358132Y8797544D01*
G01X4367530Y8794496D01*
G01X4373626Y8788146D01*
G01X4376674Y8779002D01*
G01X4376674Y8772652D01*
G01X4373626Y8763508D01*
G01X4367530Y8757158D01*
G01X4358132Y8754110D01*
G01X4348734Y8754110D01*
G01X4339590Y8757158D01*
G01X4336542Y8760460D01*
G01X4333494Y8766556D01*
G01X4067302Y8803640D02*
G01X4064254Y8809990D01*
G01X4057904Y8816086D01*
G01X4051808Y8819134D01*
G01X4039362Y8819134D01*
G01X4033266Y8816086D01*
G01X4026916Y8809990D01*
G01X4023868Y8803640D01*
G01X4020820Y8794496D01*
G01X4020820Y8779002D01*
G01X4023868Y8769604D01*
G01X4026916Y8763508D01*
G01X4033266Y8757158D01*
G01X4039362Y8754110D01*
G01X4051808Y8754110D01*
G01X4057904Y8757158D01*
G01X4064254Y8763508D01*
G01X4067302Y8769604D01*
G01X4097528Y8806688D02*
G01X4103624Y8809990D01*
G01X4112768Y8819134D01*
G01X4112768Y8754110D01*
G01X4180078Y8809990D02*
G01X4177030Y8816086D01*
G01X4167632Y8819134D01*
G01X4161536Y8819134D01*
G01X4152138Y8816086D01*
G01X4146042Y8806688D01*
G01X4142994Y8791448D01*
G01X4142994Y8775954D01*
G01X4146042Y8763508D01*
G01X4152138Y8757158D01*
G01X4161536Y8754110D01*
G01X4164584Y8754110D01*
G01X4173728Y8757158D01*
G01X4180078Y8763508D01*
G01X4183126Y8772652D01*
G01X4183126Y8775954D01*
G01X4180078Y8785098D01*
G01X4173728Y8791448D01*
G01X4164584Y8794496D01*
G01X4161536Y8794496D01*
G01X4152138Y8791448D01*
G01X4146042Y8785098D01*
G01X4142994Y8775954D01*
G01X5057902Y8829040D02*
G01X5054854Y8835390D01*
G01X5048504Y8841486D01*
G01X5042408Y8844534D01*
G01X5029962Y8844534D01*
G01X5023866Y8841486D01*
G01X5017516Y8835390D01*
G01X5014468Y8829040D01*
G01X5011420Y8819896D01*
G01X5011420Y8804402D01*
G01X5014468Y8795004D01*
G01X5017516Y8788908D01*
G01X5023866Y8782558D01*
G01X5029962Y8779510D01*
G01X5042408Y8779510D01*
G01X5048504Y8782558D01*
G01X5054854Y8788908D01*
G01X5057902Y8795004D01*
G01X5088128Y8832088D02*
G01X5094224Y8835390D01*
G01X5103368Y8844534D01*
G01X5103368Y8779510D01*
G01X5176774Y8844534D02*
G01X5145786Y8779510D01*
G01X5133594Y8844534D02*
G01X5176774Y8844534D01*
G01X4867402Y8829040D02*
G01X4864354Y8835390D01*
G01X4858004Y8841486D01*
G01X4851908Y8844534D01*
G01X4839462Y8844534D01*
G01X4833366Y8841486D01*
G01X4827016Y8835390D01*
G01X4823968Y8829040D01*
G01X4820920Y8819896D01*
G01X4820920Y8804402D01*
G01X4823968Y8795004D01*
G01X4827016Y8788908D01*
G01X4833366Y8782558D01*
G01X4839462Y8779510D01*
G01X4851908Y8779510D01*
G01X4858004Y8782558D01*
G01X4864354Y8788908D01*
G01X4867402Y8795004D01*
G01X4897628Y8832088D02*
G01X4903724Y8835390D01*
G01X4912868Y8844534D01*
G01X4912868Y8779510D01*
G01X4958334Y8844534D02*
G01X4949190Y8841486D01*
G01X4946142Y8835390D01*
G01X4946142Y8829040D01*
G01X4949190Y8822944D01*
G01X4955286Y8819896D01*
G01X4967732Y8816848D01*
G01X4977130Y8813546D01*
G01X4983226Y8807450D01*
G01X4986274Y8801354D01*
G01X4986274Y8791956D01*
G01X4983226Y8785860D01*
G01X4980178Y8782558D01*
G01X4970780Y8779510D01*
G01X4958334Y8779510D01*
G01X4949190Y8782558D01*
G01X4946142Y8785860D01*
G01X4943094Y8791956D01*
G01X4943094Y8801354D01*
G01X4946142Y8807450D01*
G01X4952238Y8813546D01*
G01X4961636Y8816848D01*
G01X4973828Y8819896D01*
G01X4980178Y8822944D01*
G01X4983226Y8829040D01*
G01X4983226Y8835390D01*
G01X4980178Y8841486D01*
G01X4970780Y8844534D01*
G01X4958334Y8844534D01*
G01X3572002Y7876540D02*
G01X3568954Y7882890D01*
G01X3562604Y7888986D01*
G01X3556508Y7892034D01*
G01X3544062Y7892034D01*
G01X3537966Y7888986D01*
G01X3531616Y7882890D01*
G01X3528568Y7876540D01*
G01X3525520Y7867396D01*
G01X3525520Y7851902D01*
G01X3528568Y7842504D01*
G01X3531616Y7836408D01*
G01X3537966Y7830058D01*
G01X3544062Y7827010D01*
G01X3556508Y7827010D01*
G01X3562604Y7830058D01*
G01X3568954Y7836408D01*
G01X3572002Y7842504D01*
G01X3602228Y7879588D02*
G01X3608324Y7882890D01*
G01X3617468Y7892034D01*
G01X3617468Y7827010D01*
G01X3687826Y7870444D02*
G01X3684778Y7861046D01*
G01X3678428Y7854950D01*
G01X3669284Y7851902D01*
G01X3666236Y7851902D01*
G01X3656838Y7854950D01*
G01X3650742Y7861046D01*
G01X3647694Y7870444D01*
G01X3647694Y7873492D01*
G01X3650742Y7882890D01*
G01X3656838Y7888986D01*
G01X3666236Y7892034D01*
G01X3669284Y7892034D01*
G01X3678428Y7888986D01*
G01X3684778Y7882890D01*
G01X3687826Y7870444D01*
G01X3687826Y7854950D01*
G01X3684778Y7839456D01*
G01X3678428Y7830058D01*
G01X3669284Y7827010D01*
G01X3662934Y7827010D01*
G01X3653790Y7830058D01*
G01X3650742Y7836408D01*
G01X5108702Y8016240D02*
G01X5105654Y8022590D01*
G01X5099304Y8028686D01*
G01X5093208Y8031734D01*
G01X5080762Y8031734D01*
G01X5074666Y8028686D01*
G01X5068316Y8022590D01*
G01X5065268Y8016240D01*
G01X5062220Y8007096D01*
G01X5062220Y7991602D01*
G01X5065268Y7982204D01*
G01X5068316Y7976108D01*
G01X5074666Y7969758D01*
G01X5080762Y7966710D01*
G01X5093208Y7966710D01*
G01X5099304Y7969758D01*
G01X5105654Y7976108D01*
G01X5108702Y7982204D01*
G01X5141976Y8016240D02*
G01X5141976Y8019288D01*
G01X5145024Y8025638D01*
G01X5148072Y8028686D01*
G01X5154168Y8031734D01*
G01X5166614Y8031734D01*
G01X5172964Y8028686D01*
G01X5176012Y8025638D01*
G01X5179060Y8019288D01*
G01X5179060Y8013192D01*
G01X5176012Y8007096D01*
G01X5169662Y7997698D01*
G01X5138928Y7966710D01*
G01X5182108Y7966710D01*
G01X5230876Y8031734D02*
G01X5221478Y8028686D01*
G01X5215382Y8019288D01*
G01X5212334Y8004048D01*
G01X5212334Y7994650D01*
G01X5215382Y7979156D01*
G01X5221478Y7969758D01*
G01X5230876Y7966710D01*
G01X5236972Y7966710D01*
G01X5246370Y7969758D01*
G01X5252466Y7979156D01*
G01X5255514Y7994650D01*
G01X5255514Y8004048D01*
G01X5252466Y8019288D01*
G01X5246370Y8028686D01*
G01X5236972Y8031734D01*
G01X5230876Y8031734D01*
G01X5273802Y8435340D02*
G01X5270754Y8441690D01*
G01X5264404Y8447786D01*
G01X5258308Y8450834D01*
G01X5245862Y8450834D01*
G01X5239766Y8447786D01*
G01X5233416Y8441690D01*
G01X5230368Y8435340D01*
G01X5227320Y8426196D01*
G01X5227320Y8410702D01*
G01X5230368Y8401304D01*
G01X5233416Y8395208D01*
G01X5239766Y8388858D01*
G01X5245862Y8385810D01*
G01X5258308Y8385810D01*
G01X5264404Y8388858D01*
G01X5270754Y8395208D01*
G01X5273802Y8401304D01*
G01X5307076Y8435340D02*
G01X5307076Y8438388D01*
G01X5310124Y8444738D01*
G01X5313172Y8447786D01*
G01X5319268Y8450834D01*
G01X5331714Y8450834D01*
G01X5338064Y8447786D01*
G01X5341112Y8444738D01*
G01X5344160Y8438388D01*
G01X5344160Y8432292D01*
G01X5341112Y8426196D01*
G01X5334762Y8416798D01*
G01X5304028Y8385810D01*
G01X5347208Y8385810D01*
G01X5377434Y8438388D02*
G01X5383530Y8441690D01*
G01X5392674Y8450834D01*
G01X5392674Y8385810D01*
G01X8684151Y2370889D02*
G01X8690501Y2373937D01*
G01X8696597Y2380287D01*
G01X8699645Y2386383D01*
G01X8699645Y2398829D01*
G01X8696597Y2404925D01*
G01X8690501Y2411275D01*
G01X8684151Y2414323D01*
G01X8675007Y2417371D01*
G01X8659513Y2417371D01*
G01X8650115Y2414323D01*
G01X8644019Y2411275D01*
G01X8637669Y2404925D01*
G01X8634621Y2398829D01*
G01X8634621Y2386383D01*
G01X8637669Y2380287D01*
G01X8644019Y2373937D01*
G01X8650115Y2370889D01*
G01X8684151Y2337615D02*
G01X8687199Y2337615D01*
G01X8693549Y2334567D01*
G01X8696597Y2331519D01*
G01X8699645Y2325423D01*
G01X8699645Y2312977D01*
G01X8696597Y2306627D01*
G01X8693549Y2303579D01*
G01X8687199Y2300531D01*
G01X8681103Y2300531D01*
G01X8675007Y2303579D01*
G01X8665609Y2309929D01*
G01X8634621Y2340663D01*
G01X8634621Y2297483D01*
G01X8699645Y2230173D02*
G01X8699645Y2261161D01*
G01X8671959Y2264209D01*
G01X8675007Y2261161D01*
G01X8678055Y2252017D01*
G01X8678055Y2242619D01*
G01X8675007Y2233221D01*
G01X8668657Y2227125D01*
G01X8659513Y2224077D01*
G01X8653163Y2224077D01*
G01X8644019Y2227125D01*
G01X8637669Y2233221D01*
G01X8634621Y2242619D01*
G01X8634621Y2252017D01*
G01X8637669Y2261161D01*
G01X8640971Y2264209D01*
G01X8647067Y2267257D01*
G01X8296402Y1602740D02*
G01X8293354Y1609090D01*
G01X8287004Y1615186D01*
G01X8280908Y1618234D01*
G01X8268462Y1618234D01*
G01X8262366Y1615186D01*
G01X8256016Y1609090D01*
G01X8252968Y1602740D01*
G01X8249920Y1593596D01*
G01X8249920Y1578102D01*
G01X8252968Y1568704D01*
G01X8256016Y1562608D01*
G01X8262366Y1556258D01*
G01X8268462Y1553210D01*
G01X8280908Y1553210D01*
G01X8287004Y1556258D01*
G01X8293354Y1562608D01*
G01X8296402Y1568704D01*
G01X8329676Y1602740D02*
G01X8329676Y1605788D01*
G01X8332724Y1612138D01*
G01X8335772Y1615186D01*
G01X8341868Y1618234D01*
G01X8354314Y1618234D01*
G01X8360664Y1615186D01*
G01X8363712Y1612138D01*
G01X8366760Y1605788D01*
G01X8366760Y1599692D01*
G01X8363712Y1593596D01*
G01X8357362Y1584198D01*
G01X8326628Y1553210D01*
G01X8369808Y1553210D01*
G01X8437118Y1609090D02*
G01X8434070Y1615186D01*
G01X8424672Y1618234D01*
G01X8418576Y1618234D01*
G01X8409178Y1615186D01*
G01X8403082Y1605788D01*
G01X8400034Y1590548D01*
G01X8400034Y1575054D01*
G01X8403082Y1562608D01*
G01X8409178Y1556258D01*
G01X8418576Y1553210D01*
G01X8421624Y1553210D01*
G01X8430768Y1556258D01*
G01X8437118Y1562608D01*
G01X8440166Y1571752D01*
G01X8440166Y1575054D01*
G01X8437118Y1584198D01*
G01X8430768Y1590548D01*
G01X8421624Y1593596D01*
G01X8418576Y1593596D01*
G01X8409178Y1590548D01*
G01X8403082Y1584198D01*
G01X8400034Y1575054D01*
G01X8525002Y1602740D02*
G01X8521954Y1609090D01*
G01X8515604Y1615186D01*
G01X8509508Y1618234D01*
G01X8497062Y1618234D01*
G01X8490966Y1615186D01*
G01X8484616Y1609090D01*
G01X8481568Y1602740D01*
G01X8478520Y1593596D01*
G01X8478520Y1578102D01*
G01X8481568Y1568704D01*
G01X8484616Y1562608D01*
G01X8490966Y1556258D01*
G01X8497062Y1553210D01*
G01X8509508Y1553210D01*
G01X8515604Y1556258D01*
G01X8521954Y1562608D01*
G01X8525002Y1568704D01*
G01X8558276Y1602740D02*
G01X8558276Y1605788D01*
G01X8561324Y1612138D01*
G01X8564372Y1615186D01*
G01X8570468Y1618234D01*
G01X8582914Y1618234D01*
G01X8589264Y1615186D01*
G01X8592312Y1612138D01*
G01X8595360Y1605788D01*
G01X8595360Y1599692D01*
G01X8592312Y1593596D01*
G01X8585962Y1584198D01*
G01X8555228Y1553210D01*
G01X8598408Y1553210D01*
G01X8671814Y1618234D02*
G01X8640826Y1553210D01*
G01X8628634Y1618234D02*
G01X8671814Y1618234D01*
G01X7909451Y2980489D02*
G01X7915801Y2983537D01*
G01X7921897Y2989887D01*
G01X7924945Y2995983D01*
G01X7924945Y3008429D01*
G01X7921897Y3014525D01*
G01X7915801Y3020875D01*
G01X7909451Y3023923D01*
G01X7900307Y3026971D01*
G01X7884813Y3026971D01*
G01X7875415Y3023923D01*
G01X7869319Y3020875D01*
G01X7862969Y3014525D01*
G01X7859921Y3008429D01*
G01X7859921Y2995983D01*
G01X7862969Y2989887D01*
G01X7869319Y2983537D01*
G01X7875415Y2980489D01*
G01X7909451Y2947215D02*
G01X7912499Y2947215D01*
G01X7918849Y2944167D01*
G01X7921897Y2941119D01*
G01X7924945Y2935023D01*
G01X7924945Y2922577D01*
G01X7921897Y2916227D01*
G01X7918849Y2913179D01*
G01X7912499Y2910131D01*
G01X7906403Y2910131D01*
G01X7900307Y2913179D01*
G01X7890909Y2919529D01*
G01X7859921Y2950263D01*
G01X7859921Y2907083D01*
G01X7924945Y2861617D02*
G01X7921897Y2870761D01*
G01X7915801Y2873809D01*
G01X7909451Y2873809D01*
G01X7903355Y2870761D01*
G01X7900307Y2864665D01*
G01X7897259Y2852219D01*
G01X7893957Y2842821D01*
G01X7887861Y2836725D01*
G01X7881765Y2833677D01*
G01X7872367Y2833677D01*
G01X7866271Y2836725D01*
G01X7862969Y2839773D01*
G01X7859921Y2849171D01*
G01X7859921Y2861617D01*
G01X7862969Y2870761D01*
G01X7866271Y2873809D01*
G01X7872367Y2876857D01*
G01X7881765Y2876857D01*
G01X7887861Y2873809D01*
G01X7893957Y2867713D01*
G01X7897259Y2858315D01*
G01X7900307Y2846123D01*
G01X7903355Y2839773D01*
G01X7909451Y2836725D01*
G01X7915801Y2836725D01*
G01X7921897Y2839773D01*
G01X7924945Y2849171D01*
G01X7924945Y2861617D01*
G01X6887411Y3172351D02*
G01X6884363Y3178701D01*
G01X6878013Y3184797D01*
G01X6871917Y3187845D01*
G01X6859471Y3187845D01*
G01X6853375Y3184797D01*
G01X6847025Y3178701D01*
G01X6843977Y3172351D01*
G01X6840929Y3163207D01*
G01X6840929Y3147713D01*
G01X6843977Y3138315D01*
G01X6847025Y3132219D01*
G01X6853375Y3125869D01*
G01X6859471Y3122821D01*
G01X6871917Y3122821D01*
G01X6878013Y3125869D01*
G01X6884363Y3132219D01*
G01X6887411Y3138315D01*
G01X6920685Y3172351D02*
G01X6920685Y3175399D01*
G01X6923733Y3181749D01*
G01X6926781Y3184797D01*
G01X6932877Y3187845D01*
G01X6945323Y3187845D01*
G01X6951673Y3184797D01*
G01X6954721Y3181749D01*
G01X6957769Y3175399D01*
G01X6957769Y3169303D01*
G01X6954721Y3163207D01*
G01X6948371Y3153809D01*
G01X6917637Y3122821D01*
G01X6960817Y3122821D01*
G01X7031175Y3166255D02*
G01X7028127Y3156857D01*
G01X7021777Y3150761D01*
G01X7012633Y3147713D01*
G01X7009585Y3147713D01*
G01X7000187Y3150761D01*
G01X6994091Y3156857D01*
G01X6991043Y3166255D01*
G01X6991043Y3169303D01*
G01X6994091Y3178701D01*
G01X7000187Y3184797D01*
G01X7009585Y3187845D01*
G01X7012633Y3187845D01*
G01X7021777Y3184797D01*
G01X7028127Y3178701D01*
G01X7031175Y3166255D01*
G01X7031175Y3150761D01*
G01X7028127Y3135267D01*
G01X7021777Y3125869D01*
G01X7012633Y3122821D01*
G01X7006283Y3122821D01*
G01X6997139Y3125869D01*
G01X6994091Y3132219D01*
G01X3690145Y5547741D02*
G01X3687097Y5554091D01*
G01X3680747Y5560187D01*
G01X3674651Y5563235D01*
G01X3662205Y5563235D01*
G01X3656109Y5560187D01*
G01X3649759Y5554091D01*
G01X3646711Y5547741D01*
G01X3643663Y5538597D01*
G01X3643663Y5523103D01*
G01X3646711Y5513705D01*
G01X3649759Y5507609D01*
G01X3656109Y5501259D01*
G01X3662205Y5498211D01*
G01X3674651Y5498211D01*
G01X3680747Y5501259D01*
G01X3687097Y5507609D01*
G01X3690145Y5513705D01*
G01X3726467Y5563235D02*
G01X3760503Y5563235D01*
G01X3741961Y5538597D01*
G01X3751105Y5538597D01*
G01X3757455Y5535549D01*
G01X3760503Y5532247D01*
G01X3763551Y5523103D01*
G01X3763551Y5516753D01*
G01X3760503Y5507609D01*
G01X3754407Y5501259D01*
G01X3745009Y5498211D01*
G01X3735611Y5498211D01*
G01X3726467Y5501259D01*
G01X3723419Y5504561D01*
G01X3720371Y5510657D01*
G01X3812319Y5563235D02*
G01X3802921Y5560187D01*
G01X3796825Y5550789D01*
G01X3793777Y5535549D01*
G01X3793777Y5526151D01*
G01X3796825Y5510657D01*
G01X3802921Y5501259D01*
G01X3812319Y5498211D01*
G01X3818415Y5498211D01*
G01X3827813Y5501259D01*
G01X3833909Y5510657D01*
G01X3836957Y5526151D01*
G01X3836957Y5535549D01*
G01X3833909Y5550789D01*
G01X3827813Y5560187D01*
G01X3818415Y5563235D01*
G01X3812319Y5563235D01*
G01X4003802Y5539740D02*
G01X4000754Y5546090D01*
G01X3994404Y5552186D01*
G01X3988308Y5555234D01*
G01X3975862Y5555234D01*
G01X3969766Y5552186D01*
G01X3963416Y5546090D01*
G01X3960368Y5539740D01*
G01X3957320Y5530596D01*
G01X3957320Y5515102D01*
G01X3960368Y5505704D01*
G01X3963416Y5499608D01*
G01X3969766Y5493258D01*
G01X3975862Y5490210D01*
G01X3988308Y5490210D01*
G01X3994404Y5493258D01*
G01X4000754Y5499608D01*
G01X4003802Y5505704D01*
G01X4040124Y5555234D02*
G01X4074160Y5555234D01*
G01X4055618Y5530596D01*
G01X4064762Y5530596D01*
G01X4071112Y5527548D01*
G01X4074160Y5524246D01*
G01X4077208Y5515102D01*
G01X4077208Y5508752D01*
G01X4074160Y5499608D01*
G01X4068064Y5493258D01*
G01X4058666Y5490210D01*
G01X4049268Y5490210D01*
G01X4040124Y5493258D01*
G01X4037076Y5496560D01*
G01X4034028Y5502656D01*
G01X4107434Y5542788D02*
G01X4113530Y5546090D01*
G01X4122674Y5555234D01*
G01X4122674Y5490210D01*
G01X6213602Y5641340D02*
G01X6210554Y5647690D01*
G01X6204204Y5653786D01*
G01X6198108Y5656834D01*
G01X6185662Y5656834D01*
G01X6179566Y5653786D01*
G01X6173216Y5647690D01*
G01X6170168Y5641340D01*
G01X6167120Y5632196D01*
G01X6167120Y5616702D01*
G01X6170168Y5607304D01*
G01X6173216Y5601208D01*
G01X6179566Y5594858D01*
G01X6185662Y5591810D01*
G01X6198108Y5591810D01*
G01X6204204Y5594858D01*
G01X6210554Y5601208D01*
G01X6213602Y5607304D01*
G01X6249924Y5656834D02*
G01X6283960Y5656834D01*
G01X6265418Y5632196D01*
G01X6274562Y5632196D01*
G01X6280912Y5629148D01*
G01X6283960Y5625846D01*
G01X6287008Y5616702D01*
G01X6287008Y5610352D01*
G01X6283960Y5601208D01*
G01X6277864Y5594858D01*
G01X6268466Y5591810D01*
G01X6259068Y5591810D01*
G01X6249924Y5594858D01*
G01X6246876Y5598160D01*
G01X6243828Y5604256D01*
G01X6320282Y5641340D02*
G01X6320282Y5644388D01*
G01X6323330Y5650738D01*
G01X6326378Y5653786D01*
G01X6332474Y5656834D01*
G01X6344920Y5656834D01*
G01X6351270Y5653786D01*
G01X6354318Y5650738D01*
G01X6357366Y5644388D01*
G01X6357366Y5638292D01*
G01X6354318Y5632196D01*
G01X6347968Y5622798D01*
G01X6317234Y5591810D01*
G01X6360414Y5591810D01*
G01X6429502Y5641340D02*
G01X6426454Y5647690D01*
G01X6420104Y5653786D01*
G01X6414008Y5656834D01*
G01X6401562Y5656834D01*
G01X6395466Y5653786D01*
G01X6389116Y5647690D01*
G01X6386068Y5641340D01*
G01X6383020Y5632196D01*
G01X6383020Y5616702D01*
G01X6386068Y5607304D01*
G01X6389116Y5601208D01*
G01X6395466Y5594858D01*
G01X6401562Y5591810D01*
G01X6414008Y5591810D01*
G01X6420104Y5594858D01*
G01X6426454Y5601208D01*
G01X6429502Y5607304D01*
G01X6465824Y5656834D02*
G01X6499860Y5656834D01*
G01X6481318Y5632196D01*
G01X6490462Y5632196D01*
G01X6496812Y5629148D01*
G01X6499860Y5625846D01*
G01X6502908Y5616702D01*
G01X6502908Y5610352D01*
G01X6499860Y5601208D01*
G01X6493764Y5594858D01*
G01X6484366Y5591810D01*
G01X6474968Y5591810D01*
G01X6465824Y5594858D01*
G01X6462776Y5598160D01*
G01X6459728Y5604256D01*
G01X6539230Y5656834D02*
G01X6573266Y5656834D01*
G01X6554724Y5632196D01*
G01X6563868Y5632196D01*
G01X6570218Y5629148D01*
G01X6573266Y5625846D01*
G01X6576314Y5616702D01*
G01X6576314Y5610352D01*
G01X6573266Y5601208D01*
G01X6567170Y5594858D01*
G01X6557772Y5591810D01*
G01X6548374Y5591810D01*
G01X6539230Y5594858D01*
G01X6536182Y5598160D01*
G01X6533134Y5604256D01*
G01X6670802Y3825240D02*
G01X6667754Y3831590D01*
G01X6661404Y3837686D01*
G01X6655308Y3840734D01*
G01X6642862Y3840734D01*
G01X6636766Y3837686D01*
G01X6630416Y3831590D01*
G01X6627368Y3825240D01*
G01X6624320Y3816096D01*
G01X6624320Y3800602D01*
G01X6627368Y3791204D01*
G01X6630416Y3785108D01*
G01X6636766Y3778758D01*
G01X6642862Y3775710D01*
G01X6655308Y3775710D01*
G01X6661404Y3778758D01*
G01X6667754Y3785108D01*
G01X6670802Y3791204D01*
G01X6707124Y3840734D02*
G01X6741160Y3840734D01*
G01X6722618Y3816096D01*
G01X6731762Y3816096D01*
G01X6738112Y3813048D01*
G01X6741160Y3809746D01*
G01X6744208Y3800602D01*
G01X6744208Y3794252D01*
G01X6741160Y3785108D01*
G01X6735064Y3778758D01*
G01X6725666Y3775710D01*
G01X6716268Y3775710D01*
G01X6707124Y3778758D01*
G01X6704076Y3782060D01*
G01X6701028Y3788156D01*
G01X6805168Y3840734D02*
G01X6774434Y3797554D01*
G01X6820662Y3797554D01*
G01X6805168Y3840734D02*
G01X6805168Y3775710D01*
G01X6670802Y3990340D02*
G01X6667754Y3996690D01*
G01X6661404Y4002786D01*
G01X6655308Y4005834D01*
G01X6642862Y4005834D01*
G01X6636766Y4002786D01*
G01X6630416Y3996690D01*
G01X6627368Y3990340D01*
G01X6624320Y3981196D01*
G01X6624320Y3965702D01*
G01X6627368Y3956304D01*
G01X6630416Y3950208D01*
G01X6636766Y3943858D01*
G01X6642862Y3940810D01*
G01X6655308Y3940810D01*
G01X6661404Y3943858D01*
G01X6667754Y3950208D01*
G01X6670802Y3956304D01*
G01X6707124Y4005834D02*
G01X6741160Y4005834D01*
G01X6722618Y3981196D01*
G01X6731762Y3981196D01*
G01X6738112Y3978148D01*
G01X6741160Y3974846D01*
G01X6744208Y3965702D01*
G01X6744208Y3959352D01*
G01X6741160Y3950208D01*
G01X6735064Y3943858D01*
G01X6725666Y3940810D01*
G01X6716268Y3940810D01*
G01X6707124Y3943858D01*
G01X6704076Y3947160D01*
G01X6701028Y3953256D01*
G01X6811518Y4005834D02*
G01X6780530Y4005834D01*
G01X6777482Y3978148D01*
G01X6780530Y3981196D01*
G01X6789674Y3984244D01*
G01X6799072Y3984244D01*
G01X6808470Y3981196D01*
G01X6814566Y3974846D01*
G01X6817614Y3965702D01*
G01X6817614Y3959352D01*
G01X6814566Y3950208D01*
G01X6808470Y3943858D01*
G01X6799072Y3940810D01*
G01X6789674Y3940810D01*
G01X6780530Y3943858D01*
G01X6777482Y3947160D01*
G01X6774434Y3953256D01*
G01X6670802Y4142740D02*
G01X6667754Y4149090D01*
G01X6661404Y4155186D01*
G01X6655308Y4158234D01*
G01X6642862Y4158234D01*
G01X6636766Y4155186D01*
G01X6630416Y4149090D01*
G01X6627368Y4142740D01*
G01X6624320Y4133596D01*
G01X6624320Y4118102D01*
G01X6627368Y4108704D01*
G01X6630416Y4102608D01*
G01X6636766Y4096258D01*
G01X6642862Y4093210D01*
G01X6655308Y4093210D01*
G01X6661404Y4096258D01*
G01X6667754Y4102608D01*
G01X6670802Y4108704D01*
G01X6707124Y4158234D02*
G01X6741160Y4158234D01*
G01X6722618Y4133596D01*
G01X6731762Y4133596D01*
G01X6738112Y4130548D01*
G01X6741160Y4127246D01*
G01X6744208Y4118102D01*
G01X6744208Y4111752D01*
G01X6741160Y4102608D01*
G01X6735064Y4096258D01*
G01X6725666Y4093210D01*
G01X6716268Y4093210D01*
G01X6707124Y4096258D01*
G01X6704076Y4099560D01*
G01X6701028Y4105656D01*
G01X6811518Y4149090D02*
G01X6808470Y4155186D01*
G01X6799072Y4158234D01*
G01X6792976Y4158234D01*
G01X6783578Y4155186D01*
G01X6777482Y4145788D01*
G01X6774434Y4130548D01*
G01X6774434Y4115054D01*
G01X6777482Y4102608D01*
G01X6783578Y4096258D01*
G01X6792976Y4093210D01*
G01X6796024Y4093210D01*
G01X6805168Y4096258D01*
G01X6811518Y4102608D01*
G01X6814566Y4111752D01*
G01X6814566Y4115054D01*
G01X6811518Y4124198D01*
G01X6805168Y4130548D01*
G01X6796024Y4133596D01*
G01X6792976Y4133596D01*
G01X6783578Y4130548D01*
G01X6777482Y4124198D01*
G01X6774434Y4115054D01*
G01X6670802Y4307840D02*
G01X6667754Y4314190D01*
G01X6661404Y4320286D01*
G01X6655308Y4323334D01*
G01X6642862Y4323334D01*
G01X6636766Y4320286D01*
G01X6630416Y4314190D01*
G01X6627368Y4307840D01*
G01X6624320Y4298696D01*
G01X6624320Y4283202D01*
G01X6627368Y4273804D01*
G01X6630416Y4267708D01*
G01X6636766Y4261358D01*
G01X6642862Y4258310D01*
G01X6655308Y4258310D01*
G01X6661404Y4261358D01*
G01X6667754Y4267708D01*
G01X6670802Y4273804D01*
G01X6707124Y4323334D02*
G01X6741160Y4323334D01*
G01X6722618Y4298696D01*
G01X6731762Y4298696D01*
G01X6738112Y4295648D01*
G01X6741160Y4292346D01*
G01X6744208Y4283202D01*
G01X6744208Y4276852D01*
G01X6741160Y4267708D01*
G01X6735064Y4261358D01*
G01X6725666Y4258310D01*
G01X6716268Y4258310D01*
G01X6707124Y4261358D01*
G01X6704076Y4264660D01*
G01X6701028Y4270756D01*
G01X6817614Y4323334D02*
G01X6786626Y4258310D01*
G01X6774434Y4323334D02*
G01X6817614Y4323334D01*
G01X6670802Y4485640D02*
G01X6667754Y4491990D01*
G01X6661404Y4498086D01*
G01X6655308Y4501134D01*
G01X6642862Y4501134D01*
G01X6636766Y4498086D01*
G01X6630416Y4491990D01*
G01X6627368Y4485640D01*
G01X6624320Y4476496D01*
G01X6624320Y4461002D01*
G01X6627368Y4451604D01*
G01X6630416Y4445508D01*
G01X6636766Y4439158D01*
G01X6642862Y4436110D01*
G01X6655308Y4436110D01*
G01X6661404Y4439158D01*
G01X6667754Y4445508D01*
G01X6670802Y4451604D01*
G01X6707124Y4501134D02*
G01X6741160Y4501134D01*
G01X6722618Y4476496D01*
G01X6731762Y4476496D01*
G01X6738112Y4473448D01*
G01X6741160Y4470146D01*
G01X6744208Y4461002D01*
G01X6744208Y4454652D01*
G01X6741160Y4445508D01*
G01X6735064Y4439158D01*
G01X6725666Y4436110D01*
G01X6716268Y4436110D01*
G01X6707124Y4439158D01*
G01X6704076Y4442460D01*
G01X6701028Y4448556D01*
G01X6789674Y4501134D02*
G01X6780530Y4498086D01*
G01X6777482Y4491990D01*
G01X6777482Y4485640D01*
G01X6780530Y4479544D01*
G01X6786626Y4476496D01*
G01X6799072Y4473448D01*
G01X6808470Y4470146D01*
G01X6814566Y4464050D01*
G01X6817614Y4457954D01*
G01X6817614Y4448556D01*
G01X6814566Y4442460D01*
G01X6811518Y4439158D01*
G01X6802120Y4436110D01*
G01X6789674Y4436110D01*
G01X6780530Y4439158D01*
G01X6777482Y4442460D01*
G01X6774434Y4448556D01*
G01X6774434Y4457954D01*
G01X6777482Y4464050D01*
G01X6783578Y4470146D01*
G01X6792976Y4473448D01*
G01X6805168Y4476496D01*
G01X6811518Y4479544D01*
G01X6814566Y4485640D01*
G01X6814566Y4491990D01*
G01X6811518Y4498086D01*
G01X6802120Y4501134D01*
G01X6789674Y4501134D01*
G01X2289302Y5488940D02*
G01X2286254Y5495290D01*
G01X2279904Y5501386D01*
G01X2273808Y5504434D01*
G01X2261362Y5504434D01*
G01X2255266Y5501386D01*
G01X2248916Y5495290D01*
G01X2245868Y5488940D01*
G01X2242820Y5479796D01*
G01X2242820Y5464302D01*
G01X2245868Y5454904D01*
G01X2248916Y5448808D01*
G01X2255266Y5442458D01*
G01X2261362Y5439410D01*
G01X2273808Y5439410D01*
G01X2279904Y5442458D01*
G01X2286254Y5448808D01*
G01X2289302Y5454904D01*
G01X2325624Y5504434D02*
G01X2359660Y5504434D01*
G01X2341118Y5479796D01*
G01X2350262Y5479796D01*
G01X2356612Y5476748D01*
G01X2359660Y5473446D01*
G01X2362708Y5464302D01*
G01X2362708Y5457952D01*
G01X2359660Y5448808D01*
G01X2353564Y5442458D01*
G01X2344166Y5439410D01*
G01X2334768Y5439410D01*
G01X2325624Y5442458D01*
G01X2322576Y5445760D01*
G01X2319528Y5451856D01*
G01X2433066Y5482844D02*
G01X2430018Y5473446D01*
G01X2423668Y5467350D01*
G01X2414524Y5464302D01*
G01X2411476Y5464302D01*
G01X2402078Y5467350D01*
G01X2395982Y5473446D01*
G01X2392934Y5482844D01*
G01X2392934Y5485892D01*
G01X2395982Y5495290D01*
G01X2402078Y5501386D01*
G01X2411476Y5504434D01*
G01X2414524Y5504434D01*
G01X2423668Y5501386D01*
G01X2430018Y5495290D01*
G01X2433066Y5482844D01*
G01X2433066Y5467350D01*
G01X2430018Y5451856D01*
G01X2423668Y5442458D01*
G01X2414524Y5439410D01*
G01X2408174Y5439410D01*
G01X2399030Y5442458D01*
G01X2395982Y5448808D01*
G01X1336802Y6746240D02*
G01X1333754Y6752590D01*
G01X1327404Y6758686D01*
G01X1321308Y6761734D01*
G01X1308862Y6761734D01*
G01X1302766Y6758686D01*
G01X1296416Y6752590D01*
G01X1293368Y6746240D01*
G01X1290320Y6737096D01*
G01X1290320Y6721602D01*
G01X1293368Y6712204D01*
G01X1296416Y6706108D01*
G01X1302766Y6699758D01*
G01X1308862Y6696710D01*
G01X1321308Y6696710D01*
G01X1327404Y6699758D01*
G01X1333754Y6706108D01*
G01X1336802Y6712204D01*
G01X1397762Y6761734D02*
G01X1367028Y6718554D01*
G01X1413256Y6718554D01*
G01X1397762Y6761734D02*
G01X1397762Y6696710D01*
G01X1462024Y6761734D02*
G01X1452626Y6758686D01*
G01X1446530Y6749288D01*
G01X1443482Y6734048D01*
G01X1443482Y6724650D01*
G01X1446530Y6709156D01*
G01X1452626Y6699758D01*
G01X1462024Y6696710D01*
G01X1468120Y6696710D01*
G01X1477518Y6699758D01*
G01X1483614Y6709156D01*
G01X1486662Y6724650D01*
G01X1486662Y6734048D01*
G01X1483614Y6749288D01*
G01X1477518Y6758686D01*
G01X1468120Y6761734D01*
G01X1462024Y6761734D01*
G01X7394702Y5488940D02*
G01X7391654Y5495290D01*
G01X7385304Y5501386D01*
G01X7379208Y5504434D01*
G01X7366762Y5504434D01*
G01X7360666Y5501386D01*
G01X7354316Y5495290D01*
G01X7351268Y5488940D01*
G01X7348220Y5479796D01*
G01X7348220Y5464302D01*
G01X7351268Y5454904D01*
G01X7354316Y5448808D01*
G01X7360666Y5442458D01*
G01X7366762Y5439410D01*
G01X7379208Y5439410D01*
G01X7385304Y5442458D01*
G01X7391654Y5448808D01*
G01X7394702Y5454904D01*
G01X7455662Y5504434D02*
G01X7424928Y5461254D01*
G01X7471156Y5461254D01*
G01X7455662Y5504434D02*
G01X7455662Y5439410D01*
G01X7501382Y5491988D02*
G01X7507478Y5495290D01*
G01X7516622Y5504434D01*
G01X7516622Y5439410D01*
G01X8607400Y6689242D02*
G01X8604352Y6695592D01*
G01X8598002Y6701688D01*
G01X8591906Y6704736D01*
G01X8579460Y6704736D01*
G01X8573364Y6701688D01*
G01X8567014Y6695592D01*
G01X8563966Y6689242D01*
G01X8560918Y6680098D01*
G01X8560918Y6664604D01*
G01X8563966Y6655206D01*
G01X8567014Y6649110D01*
G01X8573364Y6642760D01*
G01X8579460Y6639712D01*
G01X8591906Y6639712D01*
G01X8598002Y6642760D01*
G01X8604352Y6649110D01*
G01X8607400Y6655206D01*
G01X8668360Y6704736D02*
G01X8637626Y6661556D01*
G01X8683854Y6661556D01*
G01X8668360Y6704736D02*
G01X8668360Y6639712D01*
G01X8717128Y6689242D02*
G01X8717128Y6692290D01*
G01X8720176Y6698640D01*
G01X8723224Y6701688D01*
G01X8729320Y6704736D01*
G01X8741766Y6704736D01*
G01X8748116Y6701688D01*
G01X8751164Y6698640D01*
G01X8754212Y6692290D01*
G01X8754212Y6686194D01*
G01X8751164Y6680098D01*
G01X8744814Y6670700D01*
G01X8714080Y6639712D01*
G01X8757260Y6639712D01*
G01X9795002Y4193540D02*
G01X9791954Y4199890D01*
G01X9785604Y4205986D01*
G01X9779508Y4209034D01*
G01X9767062Y4209034D01*
G01X9760966Y4205986D01*
G01X9754616Y4199890D01*
G01X9751568Y4193540D01*
G01X9748520Y4184396D01*
G01X9748520Y4168902D01*
G01X9751568Y4159504D01*
G01X9754616Y4153408D01*
G01X9760966Y4147058D01*
G01X9767062Y4144010D01*
G01X9779508Y4144010D01*
G01X9785604Y4147058D01*
G01X9791954Y4153408D01*
G01X9795002Y4159504D01*
G01X9825228Y4209034D02*
G01X9825228Y4144010D01*
G01X9825228Y4209034D02*
G01X9868408Y4144010D01*
G01X9868408Y4209034D02*
G01X9868408Y4144010D01*
G01X9898634Y4196588D02*
G01X9904730Y4199890D01*
G01X9913874Y4209034D01*
G01X9913874Y4144010D01*
G01X9210802Y2479040D02*
G01X9207754Y2485390D01*
G01X9201404Y2491486D01*
G01X9195308Y2494534D01*
G01X9182862Y2494534D01*
G01X9176766Y2491486D01*
G01X9170416Y2485390D01*
G01X9167368Y2479040D01*
G01X9164320Y2469896D01*
G01X9164320Y2454402D01*
G01X9167368Y2445004D01*
G01X9170416Y2438908D01*
G01X9176766Y2432558D01*
G01X9182862Y2429510D01*
G01X9195308Y2429510D01*
G01X9201404Y2432558D01*
G01X9207754Y2438908D01*
G01X9210802Y2445004D01*
G01X9241028Y2494534D02*
G01X9241028Y2429510D01*
G01X9241028Y2494534D02*
G01X9284208Y2429510D01*
G01X9284208Y2494534D02*
G01X9284208Y2429510D01*
G01X9317482Y2479040D02*
G01X9317482Y2482088D01*
G01X9320530Y2488438D01*
G01X9323578Y2491486D01*
G01X9329674Y2494534D01*
G01X9342120Y2494534D01*
G01X9348470Y2491486D01*
G01X9351518Y2488438D01*
G01X9354566Y2482088D01*
G01X9354566Y2475992D01*
G01X9351518Y2469896D01*
G01X9345168Y2460498D01*
G01X9314434Y2429510D01*
G01X9357614Y2429510D01*
G01X4408645Y8825931D02*
G01X4408645Y8760907D01*
G01X4408645Y8760907D02*
G01X4445729Y8760907D01*
G01X4475955Y8813485D02*
G01X4482051Y8816787D01*
G01X4491195Y8825931D01*
G01X4491195Y8760907D01*
G01X4528820Y8819134D02*
G01X4528820Y8754110D01*
G01X4528820Y8754110D02*
G01X4565904Y8754110D01*
G01X4599178Y8803640D02*
G01X4599178Y8806688D01*
G01X4602226Y8813038D01*
G01X4605274Y8816086D01*
G01X4611370Y8819134D01*
G01X4623816Y8819134D01*
G01X4630166Y8816086D01*
G01X4633214Y8813038D01*
G01X4636262Y8806688D01*
G01X4636262Y8800592D01*
G01X4633214Y8794496D01*
G01X4626864Y8785098D01*
G01X4596130Y8754110D01*
G01X4639310Y8754110D01*
G01X4668520Y8819134D02*
G01X4668520Y8754110D01*
G01X4668520Y8754110D02*
G01X4705604Y8754110D01*
G01X4741926Y8819134D02*
G01X4775962Y8819134D01*
G01X4757420Y8794496D01*
G01X4766564Y8794496D01*
G01X4772914Y8791448D01*
G01X4775962Y8788146D01*
G01X4779010Y8779002D01*
G01X4779010Y8772652D01*
G01X4775962Y8763508D01*
G01X4769866Y8757158D01*
G01X4760468Y8754110D01*
G01X4751070Y8754110D01*
G01X4741926Y8757158D01*
G01X4738878Y8760460D01*
G01X4735830Y8766556D01*
G01X7932420Y1376934D02*
G01X7932420Y1311910D01*
G01X7932420Y1311910D02*
G01X7969504Y1311910D01*
G01X8030464Y1376934D02*
G01X7999730Y1333754D01*
G01X8045958Y1333754D01*
G01X8030464Y1376934D02*
G01X8030464Y1311910D01*
G01X7183120Y4285234D02*
G01X7183120Y4220210D01*
G01X7183120Y4220210D02*
G01X7220204Y4220210D01*
G01X7287514Y4285234D02*
G01X7256526Y4285234D01*
G01X7253478Y4257548D01*
G01X7256526Y4260596D01*
G01X7265670Y4263644D01*
G01X7275068Y4263644D01*
G01X7284466Y4260596D01*
G01X7290562Y4254246D01*
G01X7293610Y4245102D01*
G01X7293610Y4238752D01*
G01X7290562Y4229608D01*
G01X7284466Y4223258D01*
G01X7275068Y4220210D01*
G01X7265670Y4220210D01*
G01X7256526Y4223258D01*
G01X7253478Y4226560D01*
G01X7250430Y4232656D01*
G01X7538720Y1173734D02*
G01X7538720Y1108710D01*
G01X7538720Y1108710D02*
G01X7575804Y1108710D01*
G01X7606030Y1173734D02*
G01X7606030Y1108710D01*
G01X7606030Y1173734D02*
G01X7646162Y1173734D01*
G01X7606030Y1142746D02*
G01X7630668Y1142746D01*
G01X7606030Y1108710D02*
G01X7646162Y1108710D01*
G01X7676388Y1173734D02*
G01X7676388Y1108710D01*
G01X7676388Y1173734D02*
G01X7697978Y1173734D01*
G01X7707122Y1170686D01*
G01X7713472Y1164590D01*
G01X7716520Y1158240D01*
G01X7719568Y1149096D01*
G01X7719568Y1133602D01*
G01X7716520Y1124204D01*
G01X7713472Y1118108D01*
G01X7707122Y1111758D01*
G01X7697978Y1108710D01*
G01X7676388Y1108710D01*
G01X7786878Y1173734D02*
G01X7755890Y1173734D01*
G01X7752842Y1146048D01*
G01X7755890Y1149096D01*
G01X7765034Y1152144D01*
G01X7774432Y1152144D01*
G01X7783830Y1149096D01*
G01X7789926Y1142746D01*
G01X7792974Y1133602D01*
G01X7792974Y1127252D01*
G01X7789926Y1118108D01*
G01X7783830Y1111758D01*
G01X7774432Y1108710D01*
G01X7765034Y1108710D01*
G01X7755890Y1111758D01*
G01X7752842Y1115060D01*
G01X7749794Y1121156D01*
G01X7856220Y1173734D02*
G01X7856220Y1108710D01*
G01X7856220Y1108710D02*
G01X7893304Y1108710D01*
G01X7923530Y1173734D02*
G01X7923530Y1108710D01*
G01X7923530Y1173734D02*
G01X7963662Y1173734D01*
G01X7923530Y1142746D02*
G01X7948168Y1142746D01*
G01X7923530Y1108710D02*
G01X7963662Y1108710D01*
G01X7993888Y1173734D02*
G01X7993888Y1108710D01*
G01X7993888Y1173734D02*
G01X8015478Y1173734D01*
G01X8024622Y1170686D01*
G01X8030972Y1164590D01*
G01X8034020Y1158240D01*
G01X8037068Y1149096D01*
G01X8037068Y1133602D01*
G01X8034020Y1124204D01*
G01X8030972Y1118108D01*
G01X8024622Y1111758D01*
G01X8015478Y1108710D01*
G01X7993888Y1108710D01*
G01X8104378Y1164590D02*
G01X8101330Y1170686D01*
G01X8091932Y1173734D01*
G01X8085836Y1173734D01*
G01X8076438Y1170686D01*
G01X8070342Y1161288D01*
G01X8067294Y1146048D01*
G01X8067294Y1130554D01*
G01X8070342Y1118108D01*
G01X8076438Y1111758D01*
G01X8085836Y1108710D01*
G01X8088884Y1108710D01*
G01X8098028Y1111758D01*
G01X8104378Y1118108D01*
G01X8107426Y1127252D01*
G01X8107426Y1130554D01*
G01X8104378Y1139698D01*
G01X8098028Y1146048D01*
G01X8088884Y1149096D01*
G01X8085836Y1149096D01*
G01X8076438Y1146048D01*
G01X8070342Y1139698D01*
G01X8067294Y1130554D01*
G01X8148320Y1173734D02*
G01X8148320Y1108710D01*
G01X8148320Y1108710D02*
G01X8185404Y1108710D01*
G01X8215630Y1173734D02*
G01X8215630Y1108710D01*
G01X8215630Y1173734D02*
G01X8255762Y1173734D01*
G01X8215630Y1142746D02*
G01X8240268Y1142746D01*
G01X8215630Y1108710D02*
G01X8255762Y1108710D01*
G01X8285988Y1173734D02*
G01X8285988Y1108710D01*
G01X8285988Y1173734D02*
G01X8307578Y1173734D01*
G01X8316722Y1170686D01*
G01X8323072Y1164590D01*
G01X8326120Y1158240D01*
G01X8329168Y1149096D01*
G01X8329168Y1133602D01*
G01X8326120Y1124204D01*
G01X8323072Y1118108D01*
G01X8316722Y1111758D01*
G01X8307578Y1108710D01*
G01X8285988Y1108710D01*
G01X8402574Y1173734D02*
G01X8371586Y1108710D01*
G01X8359394Y1173734D02*
G01X8402574Y1173734D01*
G01X8453120Y1173734D02*
G01X8453120Y1108710D01*
G01X8453120Y1108710D02*
G01X8490204Y1108710D01*
G01X8520430Y1173734D02*
G01X8520430Y1108710D01*
G01X8520430Y1173734D02*
G01X8560562Y1173734D01*
G01X8520430Y1142746D02*
G01X8545068Y1142746D01*
G01X8520430Y1108710D02*
G01X8560562Y1108710D01*
G01X8590788Y1173734D02*
G01X8590788Y1108710D01*
G01X8590788Y1173734D02*
G01X8612378Y1173734D01*
G01X8621522Y1170686D01*
G01X8627872Y1164590D01*
G01X8630920Y1158240D01*
G01X8633968Y1149096D01*
G01X8633968Y1133602D01*
G01X8630920Y1124204D01*
G01X8627872Y1118108D01*
G01X8621522Y1111758D01*
G01X8612378Y1108710D01*
G01X8590788Y1108710D01*
G01X8679434Y1173734D02*
G01X8670290Y1170686D01*
G01X8667242Y1164590D01*
G01X8667242Y1158240D01*
G01X8670290Y1152144D01*
G01X8676386Y1149096D01*
G01X8688832Y1146048D01*
G01X8698230Y1142746D01*
G01X8704326Y1136650D01*
G01X8707374Y1130554D01*
G01X8707374Y1121156D01*
G01X8704326Y1115060D01*
G01X8701278Y1111758D01*
G01X8691880Y1108710D01*
G01X8679434Y1108710D01*
G01X8670290Y1111758D01*
G01X8667242Y1115060D01*
G01X8664194Y1121156D01*
G01X8664194Y1130554D01*
G01X8667242Y1136650D01*
G01X8673338Y1142746D01*
G01X8682736Y1146048D01*
G01X8694928Y1149096D01*
G01X8701278Y1152144D01*
G01X8704326Y1158240D01*
G01X8704326Y1164590D01*
G01X8701278Y1170686D01*
G01X8691880Y1173734D01*
G01X8679434Y1173734D01*
G01X7328662Y3167634D02*
G01X7322566Y3164586D01*
G01X7316216Y3158490D01*
G01X7313168Y3152140D01*
G01X7310120Y3142996D01*
G01X7310120Y3127502D01*
G01X7313168Y3118104D01*
G01X7316216Y3112008D01*
G01X7322566Y3105658D01*
G01X7328662Y3102610D01*
G01X7341108Y3102610D01*
G01X7347204Y3105658D01*
G01X7353554Y3112008D01*
G01X7356602Y3118104D01*
G01X7359650Y3127502D01*
G01X7359650Y3142996D01*
G01X7356602Y3152140D01*
G01X7353554Y3158490D01*
G01X7347204Y3164586D01*
G01X7341108Y3167634D01*
G01X7328662Y3167634D01*
G01X7338060Y3115056D02*
G01X7356602Y3096514D01*
G01X7389876Y3155188D02*
G01X7395972Y3158490D01*
G01X7405116Y3167634D01*
G01X7405116Y3102610D01*
G01X2661920Y4793234D02*
G01X2661920Y4728210D01*
G01X2661920Y4793234D02*
G01X2689860Y4793234D01*
G01X2699004Y4790186D01*
G01X2702052Y4787138D01*
G01X2705354Y4780788D01*
G01X2705354Y4774692D01*
G01X2702052Y4768596D01*
G01X2699004Y4765548D01*
G01X2689860Y4762246D01*
G01X2661920Y4762246D01*
G01X2683510Y4762246D02*
G01X2705354Y4728210D01*
G01X2738628Y4777740D02*
G01X2738628Y4780788D01*
G01X2741676Y4787138D01*
G01X2744724Y4790186D01*
G01X2750820Y4793234D01*
G01X2763266Y4793234D01*
G01X2769616Y4790186D01*
G01X2772664Y4787138D01*
G01X2775712Y4780788D01*
G01X2775712Y4774692D01*
G01X2772664Y4768596D01*
G01X2766314Y4759198D01*
G01X2735580Y4728210D01*
G01X2778760Y4728210D01*
G01X3563620Y8374634D02*
G01X3563620Y8309610D01*
G01X3563620Y8374634D02*
G01X3591560Y8374634D01*
G01X3600704Y8371586D01*
G01X3603752Y8368538D01*
G01X3607054Y8362188D01*
G01X3607054Y8356092D01*
G01X3603752Y8349996D01*
G01X3600704Y8346948D01*
G01X3591560Y8343646D01*
G01X3563620Y8343646D01*
G01X3585210Y8343646D02*
G01X3607054Y8309610D01*
G01X3680460Y8374634D02*
G01X3649472Y8309610D01*
G01X3637280Y8374634D02*
G01X3680460Y8374634D01*
G01X4922520Y8450834D02*
G01X4922520Y8385810D01*
G01X4922520Y8450834D02*
G01X4950460Y8450834D01*
G01X4959604Y8447786D01*
G01X4962652Y8444738D01*
G01X4965954Y8438388D01*
G01X4965954Y8432292D01*
G01X4962652Y8426196D01*
G01X4959604Y8423148D01*
G01X4950460Y8419846D01*
G01X4922520Y8419846D01*
G01X4944110Y8419846D02*
G01X4965954Y8385810D01*
G01X5011420Y8450834D02*
G01X5002276Y8447786D01*
G01X4999228Y8441690D01*
G01X4999228Y8435340D01*
G01X5002276Y8429244D01*
G01X5008372Y8426196D01*
G01X5020818Y8423148D01*
G01X5030216Y8419846D01*
G01X5036312Y8413750D01*
G01X5039360Y8407654D01*
G01X5039360Y8398256D01*
G01X5036312Y8392160D01*
G01X5033264Y8388858D01*
G01X5023866Y8385810D01*
G01X5011420Y8385810D01*
G01X5002276Y8388858D01*
G01X4999228Y8392160D01*
G01X4996180Y8398256D01*
G01X4996180Y8407654D01*
G01X4999228Y8413750D01*
G01X5005324Y8419846D01*
G01X5014722Y8423148D01*
G01X5026914Y8426196D01*
G01X5033264Y8429244D01*
G01X5036312Y8435340D01*
G01X5036312Y8441690D01*
G01X5033264Y8447786D01*
G01X5023866Y8450834D01*
G01X5011420Y8450834D01*
G01X8499114Y2411809D02*
G01X8434090Y2411809D01*
G01X8499114Y2411809D02*
G01X8499114Y2383869D01*
G01X8496066Y2374725D01*
G01X8493018Y2371677D01*
G01X8486668Y2368375D01*
G01X8480572Y2368375D01*
G01X8474476Y2371677D01*
G01X8471428Y2374725D01*
G01X8468126Y2383869D01*
G01X8468126Y2411809D01*
G01X8468126Y2390219D02*
G01X8434090Y2368375D01*
G01X8486668Y2338149D02*
G01X8489970Y2332053D01*
G01X8499114Y2322909D01*
G01X8434090Y2322909D01*
G01X8499114Y2286587D02*
G01X8499114Y2252551D01*
G01X8474476Y2271093D01*
G01X8474476Y2261949D01*
G01X8471428Y2255599D01*
G01X8468126Y2252551D01*
G01X8458982Y2249503D01*
G01X8452632Y2249503D01*
G01X8443488Y2252551D01*
G01X8437138Y2258647D01*
G01X8434090Y2268045D01*
G01X8434090Y2277443D01*
G01X8437138Y2286587D01*
G01X8440440Y2289635D01*
G01X8446536Y2292683D01*
G01X7335520Y1999234D02*
G01X7335520Y1934210D01*
G01X7335520Y1999234D02*
G01X7363460Y1999234D01*
G01X7372604Y1996186D01*
G01X7375652Y1993138D01*
G01X7378954Y1986788D01*
G01X7378954Y1980692D01*
G01X7375652Y1974596D01*
G01X7372604Y1971548D01*
G01X7363460Y1968246D01*
G01X7335520Y1968246D01*
G01X7357110Y1968246D02*
G01X7378954Y1934210D01*
G01X7409180Y1986788D02*
G01X7415276Y1990090D01*
G01X7424420Y1999234D01*
G01X7424420Y1934210D01*
G01X7485380Y1999234D02*
G01X7454646Y1956054D01*
G01X7500874Y1956054D01*
G01X7485380Y1999234D02*
G01X7485380Y1934210D01*
G01X2420620Y3358134D02*
G01X2420620Y3293110D01*
G01X2420620Y3358134D02*
G01X2448560Y3358134D01*
G01X2457704Y3355086D01*
G01X2460752Y3352038D01*
G01X2464054Y3345688D01*
G01X2464054Y3339592D01*
G01X2460752Y3333496D01*
G01X2457704Y3330448D01*
G01X2448560Y3327146D01*
G01X2420620Y3327146D01*
G01X2442210Y3327146D02*
G01X2464054Y3293110D01*
G01X2494280Y3345688D02*
G01X2500376Y3348990D01*
G01X2509520Y3358134D01*
G01X2509520Y3293110D01*
G01X6025388Y5656834D02*
G01X6025388Y5591810D01*
G01X6025388Y5656834D02*
G01X6053328Y5656834D01*
G01X6062472Y5653786D01*
G01X6065520Y5650738D01*
G01X6068822Y5644388D01*
G01X6068822Y5638292D01*
G01X6065520Y5632196D01*
G01X6062472Y5629148D01*
G01X6053328Y5625846D01*
G01X6025388Y5625846D01*
G01X6046978Y5625846D02*
G01X6068822Y5591810D01*
G01X6136132Y5647690D02*
G01X6133084Y5653786D01*
G01X6123686Y5656834D01*
G01X6117590Y5656834D01*
G01X6108192Y5653786D01*
G01X6102096Y5644388D01*
G01X6099048Y5629148D01*
G01X6099048Y5613654D01*
G01X6102096Y5601208D01*
G01X6108192Y5594858D01*
G01X6117590Y5591810D01*
G01X6120638Y5591810D01*
G01X6129782Y5594858D01*
G01X6136132Y5601208D01*
G01X6139180Y5610352D01*
G01X6139180Y5613654D01*
G01X6136132Y5622798D01*
G01X6129782Y5629148D01*
G01X6120638Y5632196D01*
G01X6117590Y5632196D01*
G01X6108192Y5629148D01*
G01X6102096Y5622798D01*
G01X6099048Y5613654D01*
G01X5713628Y5643270D02*
G01X5713628Y5578246D01*
G01X5713628Y5643270D02*
G01X5741568Y5643270D01*
G01X5750712Y5640222D01*
G01X5753760Y5637174D01*
G01X5757062Y5630824D01*
G01X5757062Y5624728D01*
G01X5753760Y5618632D01*
G01X5750712Y5615584D01*
G01X5741568Y5612282D01*
G01X5713628Y5612282D01*
G01X5735218Y5612282D02*
G01X5757062Y5578246D01*
G01X5818022Y5643270D02*
G01X5787288Y5600090D01*
G01X5833516Y5600090D01*
G01X5818022Y5643270D02*
G01X5818022Y5578246D01*
G01X5867291Y5647619D02*
G01X5867291Y5582595D01*
G01X5867291Y5647619D02*
G01X5895231Y5647619D01*
G01X5904375Y5644571D01*
G01X5907423Y5641523D01*
G01X5910725Y5635173D01*
G01X5910725Y5629077D01*
G01X5907423Y5622981D01*
G01X5904375Y5619933D01*
G01X5895231Y5616631D01*
G01X5867291Y5616631D01*
G01X5888881Y5616631D02*
G01X5910725Y5582595D01*
G01X5978035Y5647619D02*
G01X5947047Y5647619D01*
G01X5943999Y5619933D01*
G01X5947047Y5622981D01*
G01X5956191Y5626029D01*
G01X5965589Y5626029D01*
G01X5974987Y5622981D01*
G01X5981083Y5616631D01*
G01X5984131Y5607487D01*
G01X5984131Y5601137D01*
G01X5981083Y5591993D01*
G01X5974987Y5585643D01*
G01X5965589Y5582595D01*
G01X5956191Y5582595D01*
G01X5947047Y5585643D01*
G01X5943999Y5588945D01*
G01X5940951Y5595041D01*
G01X1074420Y3535934D02*
G01X1074420Y3470910D01*
G01X1074420Y3535934D02*
G01X1102360Y3535934D01*
G01X1111504Y3532886D01*
G01X1114552Y3529838D01*
G01X1117854Y3523488D01*
G01X1117854Y3517392D01*
G01X1114552Y3511296D01*
G01X1111504Y3508248D01*
G01X1102360Y3504946D01*
G01X1074420Y3504946D01*
G01X1096010Y3504946D02*
G01X1117854Y3470910D01*
G01X1188212Y3514344D02*
G01X1185164Y3504946D01*
G01X1178814Y3498850D01*
G01X1169670Y3495802D01*
G01X1166622Y3495802D01*
G01X1157224Y3498850D01*
G01X1151128Y3504946D01*
G01X1148080Y3514344D01*
G01X1148080Y3517392D01*
G01X1151128Y3526790D01*
G01X1157224Y3532886D01*
G01X1166622Y3535934D01*
G01X1169670Y3535934D01*
G01X1178814Y3532886D01*
G01X1185164Y3526790D01*
G01X1188212Y3514344D01*
G01X1188212Y3498850D01*
G01X1185164Y3483356D01*
G01X1178814Y3473958D01*
G01X1169670Y3470910D01*
G01X1163320Y3470910D01*
G01X1154176Y3473958D01*
G01X1151128Y3480308D01*
G01X1074420Y1859534D02*
G01X1074420Y1794510D01*
G01X1074420Y1859534D02*
G01X1102360Y1859534D01*
G01X1111504Y1856486D01*
G01X1114552Y1853438D01*
G01X1117854Y1847088D01*
G01X1117854Y1840992D01*
G01X1114552Y1834896D01*
G01X1111504Y1831848D01*
G01X1102360Y1828546D01*
G01X1074420Y1828546D01*
G01X1096010Y1828546D02*
G01X1117854Y1794510D01*
G01X1148080Y1847088D02*
G01X1154176Y1850390D01*
G01X1163320Y1859534D01*
G01X1163320Y1794510D01*
G01X1212088Y1859534D02*
G01X1202690Y1856486D01*
G01X1196594Y1847088D01*
G01X1193546Y1831848D01*
G01X1193546Y1822450D01*
G01X1196594Y1806956D01*
G01X1202690Y1797558D01*
G01X1212088Y1794510D01*
G01X1218184Y1794510D01*
G01X1227582Y1797558D01*
G01X1233678Y1806956D01*
G01X1236726Y1822450D01*
G01X1236726Y1831848D01*
G01X1233678Y1847088D01*
G01X1227582Y1856486D01*
G01X1218184Y1859534D01*
G01X1212088Y1859534D01*
G01X71120Y2837434D02*
G01X71120Y2772410D01*
G01X71120Y2837434D02*
G01X99060Y2837434D01*
G01X108204Y2834386D01*
G01X111252Y2831338D01*
G01X114554Y2824988D01*
G01X114554Y2818892D01*
G01X111252Y2812796D01*
G01X108204Y2809748D01*
G01X99060Y2806446D01*
G01X71120Y2806446D01*
G01X92710Y2806446D02*
G01X114554Y2772410D01*
G01X144780Y2824988D02*
G01X150876Y2828290D01*
G01X160020Y2837434D01*
G01X160020Y2772410D01*
G01X190246Y2824988D02*
G01X196342Y2828290D01*
G01X205486Y2837434D01*
G01X205486Y2772410D01*
G01X2052320Y2837434D02*
G01X2052320Y2772410D01*
G01X2052320Y2837434D02*
G01X2080260Y2837434D01*
G01X2089404Y2834386D01*
G01X2092452Y2831338D01*
G01X2095754Y2824988D01*
G01X2095754Y2818892D01*
G01X2092452Y2812796D01*
G01X2089404Y2809748D01*
G01X2080260Y2806446D01*
G01X2052320Y2806446D01*
G01X2073910Y2806446D02*
G01X2095754Y2772410D01*
G01X2125980Y2824988D02*
G01X2132076Y2828290D01*
G01X2141220Y2837434D01*
G01X2141220Y2772410D01*
G01X2174494Y2821940D02*
G01X2174494Y2824988D01*
G01X2177542Y2831338D01*
G01X2180590Y2834386D01*
G01X2186686Y2837434D01*
G01X2199132Y2837434D01*
G01X2205482Y2834386D01*
G01X2208530Y2831338D01*
G01X2211578Y2824988D01*
G01X2211578Y2818892D01*
G01X2208530Y2812796D01*
G01X2202180Y2803398D01*
G01X2171446Y2772410D01*
G01X2214626Y2772410D01*
G01X2230120Y8692134D02*
G01X2230120Y8627110D01*
G01X2230120Y8692134D02*
G01X2258060Y8692134D01*
G01X2267204Y8689086D01*
G01X2270252Y8686038D01*
G01X2273554Y8679688D01*
G01X2273554Y8673592D01*
G01X2270252Y8667496D01*
G01X2267204Y8664448D01*
G01X2258060Y8661146D01*
G01X2230120Y8661146D01*
G01X2251710Y8661146D02*
G01X2273554Y8627110D01*
G01X2303780Y8679688D02*
G01X2309876Y8682990D01*
G01X2319020Y8692134D01*
G01X2319020Y8627110D01*
G01X2386330Y8692134D02*
G01X2355342Y8692134D01*
G01X2352294Y8664448D01*
G01X2355342Y8667496D01*
G01X2364486Y8670544D01*
G01X2373884Y8670544D01*
G01X2383282Y8667496D01*
G01X2389378Y8661146D01*
G01X2392426Y8652002D01*
G01X2392426Y8645652D01*
G01X2389378Y8636508D01*
G01X2383282Y8630158D01*
G01X2373884Y8627110D01*
G01X2364486Y8627110D01*
G01X2355342Y8630158D01*
G01X2352294Y8633460D01*
G01X2349246Y8639556D01*
G01X7347980Y8704626D02*
G01X7347980Y8639602D01*
G01X7347980Y8704626D02*
G01X7375920Y8704626D01*
G01X7385064Y8701578D01*
G01X7388112Y8698530D01*
G01X7391414Y8692180D01*
G01X7391414Y8686084D01*
G01X7388112Y8679988D01*
G01X7385064Y8676940D01*
G01X7375920Y8673638D01*
G01X7347980Y8673638D01*
G01X7369570Y8673638D02*
G01X7391414Y8639602D01*
G01X7421640Y8692180D02*
G01X7427736Y8695482D01*
G01X7436880Y8704626D01*
G01X7436880Y8639602D01*
G01X7504190Y8695482D02*
G01X7501142Y8701578D01*
G01X7491744Y8704626D01*
G01X7485648Y8704626D01*
G01X7476250Y8701578D01*
G01X7470154Y8692180D01*
G01X7467106Y8676940D01*
G01X7467106Y8661446D01*
G01X7470154Y8649000D01*
G01X7476250Y8642650D01*
G01X7485648Y8639602D01*
G01X7488696Y8639602D01*
G01X7497840Y8642650D01*
G01X7504190Y8649000D01*
G01X7507238Y8658144D01*
G01X7507238Y8661446D01*
G01X7504190Y8670590D01*
G01X7497840Y8676940D01*
G01X7488696Y8679988D01*
G01X7485648Y8679988D01*
G01X7476250Y8676940D01*
G01X7470154Y8670590D01*
G01X7467106Y8661446D01*
G01X4792346Y3972436D02*
G01X4785996Y3978532D01*
G01X4776852Y3981580D01*
G01X4764406Y3981580D01*
G01X4755008Y3978532D01*
G01X4748912Y3972436D01*
G01X4748912Y3966086D01*
G01X4751960Y3959990D01*
G01X4755008Y3956942D01*
G01X4761358Y3953894D01*
G01X4779900Y3947544D01*
G01X4785996Y3944496D01*
G01X4789044Y3941448D01*
G01X4792346Y3935098D01*
G01X4792346Y3925954D01*
G01X4785996Y3919604D01*
G01X4776852Y3916556D01*
G01X4764406Y3916556D01*
G01X4755008Y3919604D01*
G01X4748912Y3925954D01*
G01X4822572Y3981580D02*
G01X4837812Y3916556D01*
G01X4853306Y3981580D02*
G01X4837812Y3916556D01*
G01X4853306Y3981580D02*
G01X4868800Y3916556D01*
G01X4884294Y3981580D02*
G01X4868800Y3916556D01*
G01X4914520Y3969134D02*
G01X4920616Y3972436D01*
G01X4929760Y3981580D01*
G01X4929760Y3916556D01*
G01X8272146Y632336D02*
G01X8265796Y638432D01*
G01X8256652Y641480D01*
G01X8244206Y641480D01*
G01X8234808Y638432D01*
G01X8228712Y632336D01*
G01X8228712Y625986D01*
G01X8231760Y619890D01*
G01X8234808Y616842D01*
G01X8241158Y613794D01*
G01X8259700Y607444D01*
G01X8265796Y604396D01*
G01X8268844Y601348D01*
G01X8272146Y594998D01*
G01X8272146Y585854D01*
G01X8265796Y579504D01*
G01X8256652Y576456D01*
G01X8244206Y576456D01*
G01X8234808Y579504D01*
G01X8228712Y585854D01*
G01X8302372Y641480D02*
G01X8317612Y576456D01*
G01X8333106Y641480D02*
G01X8317612Y576456D01*
G01X8333106Y641480D02*
G01X8348600Y576456D01*
G01X8364094Y641480D02*
G01X8348600Y576456D01*
G01X8397368Y625986D02*
G01X8397368Y629034D01*
G01X8400416Y635384D01*
G01X8403464Y638432D01*
G01X8409560Y641480D01*
G01X8422006Y641480D01*
G01X8428356Y638432D01*
G01X8431404Y635384D01*
G01X8434452Y629034D01*
G01X8434452Y622938D01*
G01X8431404Y616842D01*
G01X8425054Y607444D01*
G01X8394320Y576456D01*
G01X8437500Y576456D01*
G01X1676654Y3564890D02*
G01X1670304Y3570986D01*
G01X1661160Y3574034D01*
G01X1648714Y3574034D01*
G01X1639316Y3570986D01*
G01X1633220Y3564890D01*
G01X1633220Y3558540D01*
G01X1636268Y3552444D01*
G01X1639316Y3549396D01*
G01X1645666Y3546348D01*
G01X1664208Y3539998D01*
G01X1670304Y3536950D01*
G01X1673352Y3533902D01*
G01X1676654Y3527552D01*
G01X1676654Y3518408D01*
G01X1670304Y3512058D01*
G01X1661160Y3509010D01*
G01X1648714Y3509010D01*
G01X1639316Y3512058D01*
G01X1633220Y3518408D01*
G01X1706880Y3574034D02*
G01X1722120Y3509010D01*
G01X1737614Y3574034D02*
G01X1722120Y3509010D01*
G01X1737614Y3574034D02*
G01X1753108Y3509010D01*
G01X1768602Y3574034D02*
G01X1753108Y3509010D01*
G01X1804924Y3574034D02*
G01X1838960Y3574034D01*
G01X1820418Y3549396D01*
G01X1829562Y3549396D01*
G01X1835912Y3546348D01*
G01X1838960Y3543046D01*
G01X1842008Y3533902D01*
G01X1842008Y3527552D01*
G01X1838960Y3518408D01*
G01X1832864Y3512058D01*
G01X1823466Y3509010D01*
G01X1814068Y3509010D01*
G01X1804924Y3512058D01*
G01X1801876Y3515360D01*
G01X1798828Y3521456D01*
G01X1663954Y1761490D02*
G01X1657604Y1767586D01*
G01X1648460Y1770634D01*
G01X1636014Y1770634D01*
G01X1626616Y1767586D01*
G01X1620520Y1761490D01*
G01X1620520Y1755140D01*
G01X1623568Y1749044D01*
G01X1626616Y1745996D01*
G01X1632966Y1742948D01*
G01X1651508Y1736598D01*
G01X1657604Y1733550D01*
G01X1660652Y1730502D01*
G01X1663954Y1724152D01*
G01X1663954Y1715008D01*
G01X1657604Y1708658D01*
G01X1648460Y1705610D01*
G01X1636014Y1705610D01*
G01X1626616Y1708658D01*
G01X1620520Y1715008D01*
G01X1694180Y1770634D02*
G01X1709420Y1705610D01*
G01X1724914Y1770634D02*
G01X1709420Y1705610D01*
G01X1724914Y1770634D02*
G01X1740408Y1705610D01*
G01X1755902Y1770634D02*
G01X1740408Y1705610D01*
G01X1816862Y1770634D02*
G01X1786128Y1727454D01*
G01X1832356Y1727454D01*
G01X1816862Y1770634D02*
G01X1816862Y1705610D01*
G01X660654Y2701290D02*
G01X654304Y2707386D01*
G01X645160Y2710434D01*
G01X632714Y2710434D01*
G01X623316Y2707386D01*
G01X617220Y2701290D01*
G01X617220Y2694940D01*
G01X620268Y2688844D01*
G01X623316Y2685796D01*
G01X629666Y2682748D01*
G01X648208Y2676398D01*
G01X654304Y2673350D01*
G01X657352Y2670302D01*
G01X660654Y2663952D01*
G01X660654Y2654808D01*
G01X654304Y2648458D01*
G01X645160Y2645410D01*
G01X632714Y2645410D01*
G01X623316Y2648458D01*
G01X617220Y2654808D01*
G01X690880Y2710434D02*
G01X706120Y2645410D01*
G01X721614Y2710434D02*
G01X706120Y2645410D01*
G01X721614Y2710434D02*
G01X737108Y2645410D01*
G01X752602Y2710434D02*
G01X737108Y2645410D01*
G01X819912Y2710434D02*
G01X788924Y2710434D01*
G01X785876Y2682748D01*
G01X788924Y2685796D01*
G01X798068Y2688844D01*
G01X807466Y2688844D01*
G01X816864Y2685796D01*
G01X822960Y2679446D01*
G01X826008Y2670302D01*
G01X826008Y2663952D01*
G01X822960Y2654808D01*
G01X816864Y2648458D01*
G01X807466Y2645410D01*
G01X798068Y2645410D01*
G01X788924Y2648458D01*
G01X785876Y2651760D01*
G01X782828Y2657856D01*
G01X2654554Y2701290D02*
G01X2648204Y2707386D01*
G01X2639060Y2710434D01*
G01X2626614Y2710434D01*
G01X2617216Y2707386D01*
G01X2611120Y2701290D01*
G01X2611120Y2694940D01*
G01X2614168Y2688844D01*
G01X2617216Y2685796D01*
G01X2623566Y2682748D01*
G01X2642108Y2676398D01*
G01X2648204Y2673350D01*
G01X2651252Y2670302D01*
G01X2654554Y2663952D01*
G01X2654554Y2654808D01*
G01X2648204Y2648458D01*
G01X2639060Y2645410D01*
G01X2626614Y2645410D01*
G01X2617216Y2648458D01*
G01X2611120Y2654808D01*
G01X2684780Y2710434D02*
G01X2700020Y2645410D01*
G01X2715514Y2710434D02*
G01X2700020Y2645410D01*
G01X2715514Y2710434D02*
G01X2731008Y2645410D01*
G01X2746502Y2710434D02*
G01X2731008Y2645410D01*
G01X2813812Y2701290D02*
G01X2810764Y2707386D01*
G01X2801366Y2710434D01*
G01X2795270Y2710434D01*
G01X2785872Y2707386D01*
G01X2779776Y2697988D01*
G01X2776728Y2682748D01*
G01X2776728Y2667254D01*
G01X2779776Y2654808D01*
G01X2785872Y2648458D01*
G01X2795270Y2645410D01*
G01X2798318Y2645410D01*
G01X2807462Y2648458D01*
G01X2813812Y2654808D01*
G01X2816860Y2663952D01*
G01X2816860Y2667254D01*
G01X2813812Y2676398D01*
G01X2807462Y2682748D01*
G01X2798318Y2685796D01*
G01X2795270Y2685796D01*
G01X2785872Y2682748D01*
G01X2779776Y2676398D01*
G01X2776728Y2667254D01*
G01X1913511Y7679683D02*
G01X1904721Y7680154D01*
G01X1895805Y7676493D01*
G01X1886378Y7668366D01*
G01X1881250Y7659921D01*
G01X1880613Y7651324D01*
G01X1884759Y7646514D01*
G01X1891048Y7643887D01*
G01X1895347Y7643569D01*
G01X1902147Y7645406D01*
G01X1920337Y7652703D01*
G01X1926944Y7654375D01*
G01X1931243Y7654057D01*
G01X1937890Y7651403D01*
G01X1943861Y7644477D01*
G01X1943197Y7635521D01*
G01X1938261Y7627242D01*
G01X1928835Y7619116D01*
G01X1919726Y7615288D01*
G01X1910963Y7616118D01*
G01X1930434Y7706345D02*
G01X1984433Y7667045D01*
G01X1953712Y7726412D02*
G01X1984433Y7667045D01*
G01X1953712Y7726412D02*
G01X2007904Y7687278D01*
G01X1977183Y7746645D02*
G01X2007904Y7687278D01*
G01X2032782Y7794574D02*
G01X2051768Y7725091D01*
G01X2000077Y7766381D02*
G01X2032782Y7794574D01*
G01X7929411Y7716703D02*
G01X7928387Y7725445D01*
G01X7923269Y7733613D01*
G01X7913663Y7741527D01*
G01X7904472Y7745151D01*
G01X7895891Y7744323D01*
G01X7891853Y7739423D01*
G01X7890329Y7732780D01*
G01X7890743Y7728489D01*
G01X7893705Y7722099D01*
G01X7903977Y7705407D01*
G01X7906743Y7699178D01*
G01X7907157Y7694887D01*
G01X7905668Y7687887D01*
G01X7899853Y7680830D01*
G01X7890914Y7679967D01*
G01X7881919Y7683430D01*
G01X7872314Y7691344D01*
G01X7866999Y7699673D01*
G01X7866332Y7708450D01*
G01X7958553Y7704539D02*
G01X7928965Y7644664D01*
G01X7982273Y7684994D02*
G01X7928965Y7644664D01*
G01X7982273Y7684994D02*
G01X7952880Y7624959D01*
G01X8006188Y7665288D02*
G01X7952880Y7624959D01*
G01X8041277Y7636376D02*
G01X8032281Y7639838D01*
G01X8026053Y7637072D01*
G01X8022014Y7632171D01*
G01X8020490Y7625528D01*
G01X8023257Y7619300D01*
G01X8030924Y7609033D01*
G01X8036077Y7600508D01*
G01X8036905Y7591927D01*
G01X8035381Y7585284D01*
G01X8029404Y7578031D01*
G01X8023175Y7575265D01*
G01X8018723Y7574654D01*
G01X8009532Y7578278D01*
G01X7999927Y7586193D01*
G01X7994808Y7594360D01*
G01X7994556Y7598847D01*
G01X7996080Y7605490D01*
G01X8002056Y7612743D01*
G01X8008285Y7615509D01*
G01X8016866Y7616337D01*
G01X8026219Y7612909D01*
G01X8037567Y7607508D01*
G01X8044405Y7605823D01*
G01X8050634Y7608589D01*
G01X8054672Y7613490D01*
G01X8056197Y7620133D01*
G01X8050882Y7628461D01*
G01X8041277Y7636376D01*
G01X2852420Y3472434D02*
G01X2852420Y3425952D01*
G01X2855468Y3416808D01*
G01X2861818Y3410458D01*
G01X2870962Y3407410D01*
G01X2877312Y3407410D01*
G01X2886456Y3410458D01*
G01X2892552Y3416808D01*
G01X2895854Y3425952D01*
G01X2895854Y3472434D01*
G01X2926080Y3459988D02*
G01X2932176Y3463290D01*
G01X2941320Y3472434D01*
G01X2941320Y3407410D01*
G01X4224020Y7955534D02*
G01X4224020Y7909052D01*
G01X4227068Y7899908D01*
G01X4233418Y7893558D01*
G01X4242562Y7890510D01*
G01X4248912Y7890510D01*
G01X4258056Y7893558D01*
G01X4264152Y7899908D01*
G01X4267454Y7909052D01*
G01X4267454Y7955534D01*
G01X4303776Y7955534D02*
G01X4337812Y7955534D01*
G01X4319270Y7930896D01*
G01X4328414Y7930896D01*
G01X4334764Y7927848D01*
G01X4337812Y7924546D01*
G01X4340860Y7915402D01*
G01X4340860Y7909052D01*
G01X4337812Y7899908D01*
G01X4331716Y7893558D01*
G01X4322318Y7890510D01*
G01X4312920Y7890510D01*
G01X4303776Y7893558D01*
G01X4300728Y7896860D01*
G01X4297680Y7902956D01*
G01X7513320Y2240534D02*
G01X7513320Y2194052D01*
G01X7516368Y2184908D01*
G01X7522718Y2178558D01*
G01X7531862Y2175510D01*
G01X7538212Y2175510D01*
G01X7547356Y2178558D01*
G01X7553452Y2184908D01*
G01X7556754Y2194052D01*
G01X7556754Y2240534D01*
G01X7624064Y2240534D02*
G01X7593076Y2240534D01*
G01X7590028Y2212848D01*
G01X7593076Y2215896D01*
G01X7602220Y2218944D01*
G01X7611618Y2218944D01*
G01X7621016Y2215896D01*
G01X7627112Y2209546D01*
G01X7630160Y2200402D01*
G01X7630160Y2194052D01*
G01X7627112Y2184908D01*
G01X7621016Y2178558D01*
G01X7611618Y2175510D01*
G01X7602220Y2175510D01*
G01X7593076Y2178558D01*
G01X7590028Y2181860D01*
G01X7586980Y2187956D01*
G01X3652520Y7752334D02*
G01X3652520Y7705852D01*
G01X3655568Y7696708D01*
G01X3661918Y7690358D01*
G01X3671062Y7687310D01*
G01X3677412Y7687310D01*
G01X3686556Y7690358D01*
G01X3692652Y7696708D01*
G01X3695954Y7705852D01*
G01X3695954Y7752334D01*
G01X3763264Y7743190D02*
G01X3760216Y7749286D01*
G01X3750818Y7752334D01*
G01X3744722Y7752334D01*
G01X3735324Y7749286D01*
G01X3729228Y7739888D01*
G01X3726180Y7724648D01*
G01X3726180Y7709154D01*
G01X3729228Y7696708D01*
G01X3735324Y7690358D01*
G01X3744722Y7687310D01*
G01X3747770Y7687310D01*
G01X3756914Y7690358D01*
G01X3763264Y7696708D01*
G01X3766312Y7705852D01*
G01X3766312Y7709154D01*
G01X3763264Y7718298D01*
G01X3756914Y7724648D01*
G01X3747770Y7727696D01*
G01X3744722Y7727696D01*
G01X3735324Y7724648D01*
G01X3729228Y7718298D01*
G01X3726180Y7709154D01*
G01X579120Y6220823D02*
G01X594614Y6155799D01*
G01X610108Y6220823D02*
G01X594614Y6155799D01*
G01X610108Y6220823D02*
G01X625602Y6155799D01*
G01X641096Y6220823D02*
G01X625602Y6155799D01*
G01X671322Y6208377D02*
G01X677418Y6211679D01*
G01X686562Y6220823D01*
G01X686562Y6155799D01*
G01X7843520Y6208123D02*
G01X7859014Y6143099D01*
G01X7874508Y6208123D02*
G01X7859014Y6143099D01*
G01X7874508Y6208123D02*
G01X7890002Y6143099D01*
G01X7905496Y6208123D02*
G01X7890002Y6143099D01*
G01X7941818Y6208123D02*
G01X7975854Y6208123D01*
G01X7957312Y6183485D01*
G01X7966456Y6183485D01*
G01X7972806Y6180437D01*
G01X7975854Y6177135D01*
G01X7978902Y6167991D01*
G01X7978902Y6161641D01*
G01X7975854Y6152497D01*
G01X7969758Y6146147D01*
G01X7960360Y6143099D01*
G01X7950962Y6143099D01*
G01X7941818Y6146147D01*
G01X7938770Y6149449D01*
G01X7935722Y6155545D01*
G01X1760220Y4183634D02*
G01X1803654Y4118610D01*
G01X1803654Y4183634D02*
G01X1760220Y4118610D01*
G01X1833880Y4171188D02*
G01X1839976Y4174490D01*
G01X1849120Y4183634D01*
G01X1849120Y4118610D01*
G01X5659120Y8488934D02*
G01X5702554Y8423910D01*
G01X5702554Y8488934D02*
G01X5659120Y8423910D01*
G01X5735828Y8473440D02*
G01X5735828Y8476488D01*
G01X5738876Y8482838D01*
G01X5741924Y8485886D01*
G01X5748020Y8488934D01*
G01X5760466Y8488934D01*
G01X5766816Y8485886D01*
G01X5769864Y8482838D01*
G01X5772912Y8476488D01*
G01X5772912Y8470392D01*
G01X5769864Y8464296D01*
G01X5763514Y8454898D01*
G01X5732780Y8423910D01*
G01X5775960Y8423910D01*
G04 Text End*

G04 PolygonModel Start*
G54D12*
G01X2369657Y3489881D02*
G01X2369657Y3409884D01*
G01X2369703Y3545926D02*
G01X2369703Y3625924D01*
G01X2227689Y3489881D02*
G01X2227689Y3409884D01*
G01X2227737Y3545926D02*
G01X2227737Y3625924D01*
G01X2338675Y3378909D02*
G01X2258670Y3378909D01*
G01X2258723Y3656902D02*
G01X2338725Y3656902D01*
G01X2227737Y3625919D02*
G02X2258723Y3656902I30983J0D01*
G01X2338720Y3656902D02*
G02X2369703Y3625919I0J-30983D01*
G01X2369657Y3409889D02*
G02X2338675Y3378909I-30983J3D01*
G01X2258677Y3378909D02*
G02X2227689Y3409889I-5J30983D01*
G01X2661757Y3997881D02*
G01X2661757Y3917884D01*
G01X2661803Y4053926D02*
G01X2661803Y4133924D01*
G01X2519789Y3997881D02*
G01X2519789Y3917884D01*
G01X2519837Y4053926D02*
G01X2519837Y4133924D01*
G01X2630775Y3886909D02*
G01X2550770Y3886909D01*
G01X2550823Y4164902D02*
G01X2630825Y4164902D01*
G01X2519837Y4133919D02*
G02X2550823Y4164902I30983J0D01*
G01X2630820Y4164902D02*
G02X2661803Y4133919I0J-30983D01*
G01X2661757Y3917889D02*
G02X2630775Y3886909I-30983J3D01*
G01X2550777Y3886909D02*
G02X2519789Y3917889I-5J30983D01*
G01X2483957Y3997881D02*
G01X2483957Y3917884D01*
G01X2484003Y4053926D02*
G01X2484003Y4133924D01*
G01X2341989Y3997881D02*
G01X2341989Y3917884D01*
G01X2342037Y4053926D02*
G01X2342037Y4133924D01*
G01X2452975Y3886909D02*
G01X2372970Y3886909D01*
G01X2373023Y4164902D02*
G01X2453025Y4164902D01*
G01X2342037Y4133919D02*
G02X2373023Y4164902I30983J0D01*
G01X2453020Y4164902D02*
G02X2484003Y4133919I0J-30983D01*
G01X2483957Y3917889D02*
G02X2452975Y3886909I-30983J3D01*
G01X2372977Y3886909D02*
G02X2341989Y3917889I-5J30983D01*
G01X2809319Y4401657D02*
G01X2889316Y4401657D01*
G01X2753274Y4401703D02*
G01X2673276Y4401703D01*
G01X2809319Y4259689D02*
G01X2889316Y4259689D01*
G01X2753274Y4259737D02*
G01X2673276Y4259737D01*
G01X2920291Y4370675D02*
G01X2920291Y4290670D01*
G01X2642299Y4290723D02*
G01X2642299Y4370725D01*
G01X2673281Y4259737D02*
G02X2642299Y4290723I0J30983D01*
G01X2642299Y4370720D02*
G02X2673281Y4401703I30983J0D01*
G01X2889311Y4401657D02*
G02X2920291Y4370675I-3J-30983D01*
G01X2920291Y4290677D02*
G02X2889311Y4259689I-30983J-5D01*
G01X3779357Y4340781D02*
G01X3779357Y4260784D01*
G01X3779403Y4396826D02*
G01X3779403Y4476824D01*
G01X3637389Y4340781D02*
G01X3637389Y4260784D01*
G01X3637437Y4396826D02*
G01X3637437Y4476824D01*
G01X3748375Y4229809D02*
G01X3668370Y4229809D01*
G01X3668423Y4507802D02*
G01X3748425Y4507802D01*
G01X3637437Y4476819D02*
G02X3668423Y4507802I30983J0D01*
G01X3748420Y4507802D02*
G02X3779403Y4476819I0J-30983D01*
G01X3779357Y4260789D02*
G02X3748375Y4229809I-30983J3D01*
G01X3668377Y4229809D02*
G02X3637389Y4260789I-5J30983D01*
G01X3807381Y3408843D02*
G01X3727384Y3408843D01*
G01X3863426Y3408797D02*
G01X3943424Y3408797D01*
G01X3807381Y3550811D02*
G01X3727384Y3550811D01*
G01X3863426Y3550763D02*
G01X3943424Y3550763D01*
G01X3696409Y3439825D02*
G01X3696409Y3519830D01*
G01X3974402Y3519777D02*
G01X3974402Y3439775D01*
G01X3943419Y3550763D02*
G02X3974402Y3519777I0J-30983D01*
G01X3974402Y3439780D02*
G02X3943419Y3408797I-30983J0D01*
G01X3727389Y3408843D02*
G02X3696409Y3439825I3J30983D01*
G01X3696409Y3519823D02*
G02X3727389Y3550811I30983J5D01*
G01X2402919Y3830157D02*
G01X2482916Y3830157D01*
G01X2346874Y3830203D02*
G01X2266876Y3830203D01*
G01X2402919Y3688189D02*
G01X2482916Y3688189D01*
G01X2346874Y3688237D02*
G01X2266876Y3688237D01*
G01X2513891Y3799175D02*
G01X2513891Y3719170D01*
G01X2235899Y3719223D02*
G01X2235899Y3799225D01*
G01X2266881Y3688237D02*
G02X2235899Y3719223I0J30983D01*
G01X2235899Y3799220D02*
G02X2266881Y3830203I30983J0D01*
G01X2482911Y3830157D02*
G02X2513891Y3799175I-3J-30983D01*
G01X2513891Y3719177D02*
G02X2482911Y3688189I-30983J-5D01*
G01X3878743Y8117919D02*
G01X3878743Y8197916D01*
G01X3878697Y8061874D02*
G01X3878697Y7981876D01*
G01X4020711Y8117919D02*
G01X4020711Y8197916D01*
G01X4020663Y8061874D02*
G01X4020663Y7981876D01*
G01X3909725Y8228891D02*
G01X3989730Y8228891D01*
G01X3989677Y7950899D02*
G01X3909675Y7950899D01*
G01X4020663Y7981881D02*
G02X3989677Y7950899I-30983J0D01*
G01X3909680Y7950899D02*
G02X3878697Y7981881I0J30983D01*
G01X3878743Y8197911D02*
G02X3909725Y8228891I30983J-3D01*
G01X3989723Y8228891D02*
G02X4020711Y8197911I5J-30983D01*
G01X3700943Y8117919D02*
G01X3700943Y8197916D01*
G01X3700897Y8061874D02*
G01X3700897Y7981876D01*
G01X3842911Y8117919D02*
G01X3842911Y8197916D01*
G01X3842863Y8061874D02*
G01X3842863Y7981876D01*
G01X3731925Y8228891D02*
G01X3811930Y8228891D01*
G01X3811877Y7950899D02*
G01X3731875Y7950899D01*
G01X3842863Y7981881D02*
G02X3811877Y7950899I-30983J0D01*
G01X3731880Y7950899D02*
G02X3700897Y7981881I0J30983D01*
G01X3700943Y8197911D02*
G02X3731925Y8228891I30983J-3D01*
G01X3811923Y8228891D02*
G02X3842911Y8197911I5J-30983D01*
G01X4363557Y8557181D02*
G01X4363557Y8477184D01*
G01X4363603Y8613226D02*
G01X4363603Y8693224D01*
G01X4221589Y8557181D02*
G01X4221589Y8477184D01*
G01X4221637Y8613226D02*
G01X4221637Y8693224D01*
G01X4332575Y8446209D02*
G01X4252570Y8446209D01*
G01X4252623Y8724202D02*
G01X4332625Y8724202D01*
G01X4221637Y8693219D02*
G02X4252623Y8724202I30983J0D01*
G01X4332620Y8724202D02*
G02X4363603Y8693219I0J-30983D01*
G01X4363557Y8477189D02*
G02X4332575Y8446209I-30983J3D01*
G01X4252577Y8446209D02*
G02X4221589Y8477189I-5J30983D01*
G01X4043843Y8613219D02*
G01X4043843Y8693216D01*
G01X4043797Y8557174D02*
G01X4043797Y8477176D01*
G01X4185811Y8613219D02*
G01X4185811Y8693216D01*
G01X4185763Y8557174D02*
G01X4185763Y8477176D01*
G01X4074825Y8724191D02*
G01X4154830Y8724191D01*
G01X4154777Y8446199D02*
G01X4074775Y8446199D01*
G01X4185763Y8477181D02*
G02X4154777Y8446199I-30983J0D01*
G01X4074780Y8446199D02*
G02X4043797Y8477181I0J30983D01*
G01X4043843Y8693211D02*
G02X4074825Y8724191I30983J-3D01*
G01X4154823Y8724191D02*
G02X4185811Y8693211I5J-30983D01*
G01X4998088Y8638629D02*
G01X4998088Y8718626D01*
G01X4998042Y8582584D02*
G01X4998042Y8502587D01*
G01X5140056Y8638629D02*
G01X5140056Y8718626D01*
G01X5140008Y8582584D02*
G01X5140008Y8502587D01*
G01X5029070Y8749602D02*
G01X5109075Y8749602D01*
G01X5109022Y8471609D02*
G01X5029020Y8471609D01*
G01X5140008Y8502592D02*
G02X5109022Y8471609I-30983J0D01*
G01X5029025Y8471609D02*
G02X4998042Y8502592I0J30983D01*
G01X4998088Y8718621D02*
G02X5029070Y8749602I30983J-3D01*
G01X5109068Y8749602D02*
G02X5140056Y8718621I5J-30983D01*
G01X4832988Y8638629D02*
G01X4832988Y8718626D01*
G01X4832942Y8582584D02*
G01X4832942Y8502587D01*
G01X4974956Y8638629D02*
G01X4974956Y8718626D01*
G01X4974908Y8582584D02*
G01X4974908Y8502587D01*
G01X4863970Y8749602D02*
G01X4943975Y8749602D01*
G01X4943922Y8471609D02*
G01X4863920Y8471609D01*
G01X4974908Y8502592D02*
G02X4943922Y8471609I-30983J0D01*
G01X4863925Y8471609D02*
G02X4832942Y8502592I0J30983D01*
G01X4832988Y8718621D02*
G02X4863970Y8749602I30983J-3D01*
G01X4943968Y8749602D02*
G02X4974956Y8718621I5J-30983D01*
G01X3888829Y7932265D02*
G01X3968826Y7932265D01*
G01X3832784Y7932311D02*
G01X3752787Y7932311D01*
G01X3888829Y7790297D02*
G01X3968826Y7790297D01*
G01X3832784Y7790345D02*
G01X3752787Y7790345D01*
G01X3999802Y7901282D02*
G01X3999802Y7821277D01*
G01X3721809Y7821331D02*
G01X3721809Y7901333D01*
G01X3752792Y7790345D02*
G02X3721809Y7821331I0J30983D01*
G01X3721809Y7901328D02*
G02X3752792Y7932311I30983J0D01*
G01X3968821Y7932265D02*
G02X3999802Y7901282I-3J-30983D01*
G01X3999802Y7821285D02*
G02X3968821Y7790297I-30983J-5D01*
G01X5214457Y8188881D02*
G01X5214457Y8108884D01*
G01X5214503Y8244926D02*
G01X5214503Y8324924D01*
G01X5072489Y8188881D02*
G01X5072489Y8108884D01*
G01X5072537Y8244926D02*
G01X5072537Y8324924D01*
G01X5183475Y8077909D02*
G01X5103470Y8077909D01*
G01X5103523Y8355902D02*
G01X5183525Y8355902D01*
G01X5072537Y8324919D02*
G02X5103523Y8355902I30983J0D01*
G01X5183520Y8355902D02*
G02X5214503Y8324919I0J-30983D01*
G01X5214457Y8108889D02*
G02X5183475Y8077909I-30983J3D01*
G01X5103477Y8077909D02*
G02X5072489Y8108889I-5J30983D01*
G01X5379557Y8188881D02*
G01X5379557Y8108884D01*
G01X5379603Y8244926D02*
G01X5379603Y8324924D01*
G01X5237589Y8188881D02*
G01X5237589Y8108884D01*
G01X5237637Y8244926D02*
G01X5237637Y8324924D01*
G01X5348575Y8077909D02*
G01X5268570Y8077909D01*
G01X5268623Y8355902D02*
G01X5348625Y8355902D01*
G01X5237637Y8324919D02*
G02X5268623Y8355902I30983J0D01*
G01X5348620Y8355902D02*
G02X5379603Y8324919I0J-30983D01*
G01X5379557Y8108889D02*
G02X5348575Y8077909I-30983J3D01*
G01X5268577Y8077909D02*
G02X5237589Y8108889I-5J30983D01*
G01X8438043Y2301319D02*
G01X8438043Y2381316D01*
G01X8437997Y2245274D02*
G01X8437997Y2165276D01*
G01X8580011Y2301319D02*
G01X8580011Y2381316D01*
G01X8579963Y2245274D02*
G01X8579963Y2165276D01*
G01X8469025Y2412291D02*
G01X8549030Y2412291D01*
G01X8548977Y2134299D02*
G01X8468975Y2134299D01*
G01X8579963Y2165281D02*
G02X8548977Y2134299I-30983J0D01*
G01X8468980Y2134299D02*
G02X8437997Y2165281I0J30983D01*
G01X8438043Y2381311D02*
G02X8469025Y2412291I30983J-3D01*
G01X8549023Y2412291D02*
G02X8580011Y2381311I5J-30983D01*
G01X8272943Y1412319D02*
G01X8272943Y1492316D01*
G01X8272897Y1356274D02*
G01X8272897Y1276276D01*
G01X8414911Y1412319D02*
G01X8414911Y1492316D01*
G01X8414863Y1356274D02*
G01X8414863Y1276276D01*
G01X8303925Y1523291D02*
G01X8383930Y1523291D01*
G01X8383877Y1245299D02*
G01X8303875Y1245299D01*
G01X8414863Y1276281D02*
G02X8383877Y1245299I-30983J0D01*
G01X8303880Y1245299D02*
G02X8272897Y1276281I0J30983D01*
G01X8272943Y1492311D02*
G02X8303925Y1523291I30983J-3D01*
G01X8383923Y1523291D02*
G02X8414911Y1492311I5J-30983D01*
G01X8463443Y1412319D02*
G01X8463443Y1492316D01*
G01X8463397Y1356274D02*
G01X8463397Y1276276D01*
G01X8605411Y1412319D02*
G01X8605411Y1492316D01*
G01X8605363Y1356274D02*
G01X8605363Y1276276D01*
G01X8494425Y1523291D02*
G01X8574430Y1523291D01*
G01X8574377Y1245299D02*
G01X8494375Y1245299D01*
G01X8605363Y1276281D02*
G02X8574377Y1245299I-30983J0D01*
G01X8494380Y1245299D02*
G02X8463397Y1276281I0J30983D01*
G01X8463443Y1492311D02*
G02X8494425Y1523291I30983J-3D01*
G01X8574423Y1523291D02*
G02X8605411Y1492311I5J-30983D01*
G01X7663343Y2910919D02*
G01X7663343Y2990916D01*
G01X7663297Y2854874D02*
G01X7663297Y2774876D01*
G01X7805311Y2910919D02*
G01X7805311Y2990916D01*
G01X7805263Y2854874D02*
G01X7805263Y2774876D01*
G01X7694325Y3021891D02*
G01X7774330Y3021891D01*
G01X7774277Y2743899D02*
G01X7694275Y2743899D01*
G01X7805263Y2774881D02*
G02X7774277Y2743899I-30983J0D01*
G01X7694280Y2743899D02*
G02X7663297Y2774881I0J30983D01*
G01X7663343Y2990911D02*
G02X7694325Y3021891I30983J-3D01*
G01X7774323Y3021891D02*
G02X7805311Y2990911I5J-30983D01*
G01X6956981Y2926243D02*
G01X6876984Y2926243D01*
G01X7013026Y2926197D02*
G01X7093024Y2926197D01*
G01X6956981Y3068211D02*
G01X6876984Y3068211D01*
G01X7013026Y3068163D02*
G01X7093024Y3068163D01*
G01X6846009Y2957225D02*
G01X6846009Y3037230D01*
G01X7124002Y3037177D02*
G01X7124002Y2957175D01*
G01X7093019Y3068163D02*
G02X7124002Y3037177I0J-30983D01*
G01X7124002Y2957180D02*
G02X7093019Y2926197I-30983J0D01*
G01X6876989Y2926243D02*
G02X6846009Y2957225I3J30983D01*
G01X6846009Y3037223D02*
G02X6876989Y3068211I30983J5D01*
G01X3759716Y5301633D02*
G01X3679718Y5301633D01*
G01X3815761Y5301587D02*
G01X3895758Y5301587D01*
G01X3759716Y5443601D02*
G01X3679718Y5443601D01*
G01X3815761Y5443553D02*
G01X3895758Y5443553D01*
G01X3648743Y5332616D02*
G01X3648743Y5412621D01*
G01X3926736Y5412567D02*
G01X3926736Y5332565D01*
G01X3895753Y5443553D02*
G02X3926736Y5412567I0J-30983D01*
G01X3926736Y5332570D02*
G02X3895753Y5301587I-30983J0D01*
G01X3679723Y5301633D02*
G02X3648743Y5332616I3J30983D01*
G01X3648743Y5412613D02*
G02X3679723Y5443601I30983J5D01*
G01X4130119Y5443057D02*
G01X4210116Y5443057D01*
G01X4074074Y5443103D02*
G01X3994076Y5443103D01*
G01X4130119Y5301089D02*
G01X4210116Y5301089D01*
G01X4074074Y5301137D02*
G01X3994076Y5301137D01*
G01X4241091Y5412075D02*
G01X4241091Y5332070D01*
G01X3963099Y5332123D02*
G01X3963099Y5412125D01*
G01X3994081Y5301137D02*
G02X3963099Y5332123I0J30983D01*
G01X3963099Y5412120D02*
G02X3994081Y5443103I30983J0D01*
G01X4210111Y5443057D02*
G02X4241091Y5412075I-3J-30983D01*
G01X4241091Y5332077D02*
G02X4210111Y5301089I-30983J-5D01*
G01X6319365Y5382171D02*
G01X6319365Y5302174D01*
G01X6319411Y5438216D02*
G01X6319411Y5518214D01*
G01X6177397Y5382171D02*
G01X6177397Y5302174D01*
G01X6177445Y5438216D02*
G01X6177445Y5518214D01*
G01X6288382Y5271199D02*
G01X6208377Y5271199D01*
G01X6208431Y5549191D02*
G01X6288433Y5549191D01*
G01X6177445Y5518208D02*
G02X6208431Y5549191I30983J0D01*
G01X6288428Y5549191D02*
G02X6319411Y5518208I0J-30983D01*
G01X6319365Y5302179D02*
G02X6288382Y5271199I-30983J3D01*
G01X6208385Y5271199D02*
G02X6177397Y5302179I-5J30983D01*
G01X6497165Y5382171D02*
G01X6497165Y5302174D01*
G01X6497211Y5438216D02*
G01X6497211Y5518214D01*
G01X6355197Y5382171D02*
G01X6355197Y5302174D01*
G01X6355245Y5438216D02*
G01X6355245Y5518214D01*
G01X6466182Y5271199D02*
G01X6386177Y5271199D01*
G01X6386231Y5549191D02*
G01X6466233Y5549191D01*
G01X6355245Y5518208D02*
G02X6386231Y5549191I30983J0D01*
G01X6466228Y5549191D02*
G02X6497211Y5518208I0J-30983D01*
G01X6497165Y5302179D02*
G02X6466182Y5271199I-30983J3D01*
G01X6386185Y5271199D02*
G02X6355197Y5302179I-5J30983D01*
G01X7007795Y3876573D02*
G01X7087793Y3876573D01*
G01X6951750Y3876619D02*
G01X6871753Y3876619D01*
G01X7007795Y3734605D02*
G01X7087793Y3734605D01*
G01X6951750Y3734653D02*
G01X6871753Y3734653D01*
G01X7118768Y3845590D02*
G01X7118768Y3765586D01*
G01X6840775Y3765639D02*
G01X6840775Y3845641D01*
G01X6871758Y3734653D02*
G02X6840775Y3765639I0J30983D01*
G01X6840775Y3845636D02*
G02X6871758Y3876619I30983J0D01*
G01X7087787Y3876573D02*
G02X7118768Y3845590I-3J-30983D01*
G01X7118768Y3765593D02*
G02X7087787Y3734605I-30983J-5D01*
G01X7010612Y4041673D02*
G01X7090609Y4041673D01*
G01X6954567Y4041719D02*
G01X6874570Y4041719D01*
G01X7010612Y3899705D02*
G01X7090609Y3899705D01*
G01X6954567Y3899753D02*
G01X6874570Y3899753D01*
G01X7121585Y4010690D02*
G01X7121585Y3930686D01*
G01X6843592Y3930739D02*
G01X6843592Y4010741D01*
G01X6874575Y3899753D02*
G02X6843592Y3930739I0J30983D01*
G01X6843592Y4010736D02*
G02X6874575Y4041719I30983J0D01*
G01X7090604Y4041673D02*
G02X7121585Y4010690I-3J-30983D01*
G01X7121585Y3930693D02*
G02X7090604Y3899705I-30983J-5D01*
G01X7013019Y4198457D02*
G01X7093016Y4198457D01*
G01X6956974Y4198503D02*
G01X6876976Y4198503D01*
G01X7013019Y4056489D02*
G01X7093016Y4056489D01*
G01X6956974Y4056537D02*
G01X6876976Y4056537D01*
G01X7123991Y4167475D02*
G01X7123991Y4087470D01*
G01X6845999Y4087523D02*
G01X6845999Y4167525D01*
G01X6876981Y4056537D02*
G02X6845999Y4087523I0J30983D01*
G01X6845999Y4167520D02*
G02X6876981Y4198503I30983J0D01*
G01X7093011Y4198457D02*
G02X7123991Y4167475I-3J-30983D01*
G01X7123991Y4087477D02*
G02X7093011Y4056489I-30983J-5D01*
G01X7015375Y4359173D02*
G01X7095372Y4359173D01*
G01X6959329Y4359219D02*
G01X6879332Y4359219D01*
G01X7015375Y4217205D02*
G01X7095372Y4217205D01*
G01X6959329Y4217253D02*
G01X6879332Y4217253D01*
G01X7126347Y4328190D02*
G01X7126347Y4248186D01*
G01X6848354Y4248239D02*
G01X6848354Y4328241D01*
G01X6879337Y4217253D02*
G02X6848354Y4248239I0J30983D01*
G01X6848354Y4328236D02*
G02X6879337Y4359219I30983J0D01*
G01X7095367Y4359173D02*
G02X7126347Y4328190I-3J-30983D01*
G01X7126347Y4248193D02*
G02X7095367Y4217205I-30983J-5D01*
G01X7018191Y4524273D02*
G01X7098189Y4524273D01*
G01X6962146Y4524319D02*
G01X6882149Y4524319D01*
G01X7018191Y4382305D02*
G01X7098189Y4382305D01*
G01X6962146Y4382353D02*
G01X6882149Y4382353D01*
G01X7129164Y4493290D02*
G01X7129164Y4413286D01*
G01X6851171Y4413339D02*
G01X6851171Y4493341D01*
G01X6882154Y4382353D02*
G02X6851171Y4413339I0J30983D01*
G01X6851171Y4493336D02*
G02X6882154Y4524319I30983J0D01*
G01X7098184Y4524273D02*
G02X7129164Y4493290I-3J-30983D01*
G01X7129164Y4413293D02*
G02X7098184Y4382305I-30983J-5D01*
G01X2376160Y5235979D02*
G01X2376160Y5155982D01*
G01X2376206Y5292024D02*
G01X2376206Y5372021D01*
G01X2234192Y5235979D02*
G01X2234192Y5155982D01*
G01X2234240Y5292024D02*
G01X2234240Y5372021D01*
G01X2345177Y5125006D02*
G01X2265172Y5125006D01*
G01X2265225Y5402999D02*
G01X2345228Y5402999D01*
G01X2234240Y5372016D02*
G02X2265225Y5402999I30983J0D01*
G01X2345223Y5402999D02*
G02X2376206Y5372016I0J-30983D01*
G01X2376160Y5155987D02*
G02X2345177Y5125006I-30983J3D01*
G01X2265180Y5125006D02*
G02X2234192Y5155987I-5J30983D01*
G01X1461455Y6480884D02*
G01X1461455Y6400886D01*
G01X1461501Y6536929D02*
G01X1461501Y6616926D01*
G01X1319487Y6480884D02*
G01X1319487Y6400886D01*
G01X1319535Y6536929D02*
G01X1319535Y6616926D01*
G01X1430472Y6369911D02*
G01X1350467Y6369911D01*
G01X1350521Y6647904D02*
G01X1430523Y6647904D01*
G01X1319535Y6616921D02*
G02X1350521Y6647904I30983J0D01*
G01X1430518Y6647904D02*
G02X1461501Y6616921I0J-30983D01*
G01X1461455Y6400891D02*
G02X1430472Y6369911I-30983J3D01*
G01X1350475Y6369911D02*
G02X1319487Y6400891I-5J30983D01*
G01X7513157Y5229781D02*
G01X7513157Y5149784D01*
G01X7513203Y5285826D02*
G01X7513203Y5365824D01*
G01X7371189Y5229781D02*
G01X7371189Y5149784D01*
G01X7371237Y5285826D02*
G01X7371237Y5365824D01*
G01X7482175Y5118809D02*
G01X7402170Y5118809D01*
G01X7402223Y5396802D02*
G01X7482225Y5396802D01*
G01X7371237Y5365819D02*
G02X7402223Y5396802I30983J0D01*
G01X7482220Y5396802D02*
G02X7513203Y5365819I0J-30983D01*
G01X7513157Y5149789D02*
G02X7482175Y5118809I-30983J3D01*
G01X7402177Y5118809D02*
G02X7371189Y5149789I-5J30983D01*
G01X8732357Y6436281D02*
G01X8732357Y6356284D01*
G01X8732403Y6492326D02*
G01X8732403Y6572324D01*
G01X8590389Y6436281D02*
G01X8590389Y6356284D01*
G01X8590437Y6492326D02*
G01X8590437Y6572324D01*
G01X8701375Y6325309D02*
G01X8621370Y6325309D01*
G01X8621423Y6603302D02*
G01X8701425Y6603302D01*
G01X8590437Y6572319D02*
G02X8621423Y6603302I30983J0D01*
G01X8701420Y6603302D02*
G02X8732403Y6572319I0J-30983D01*
G01X8732357Y6356289D02*
G02X8701375Y6325309I-30983J3D01*
G01X8621377Y6325309D02*
G02X8590389Y6356289I-5J30983D01*
G01X9944395Y2590099D02*
G01X9369397Y2590099D01*
G01X9944395Y4090099D02*
G01X9944395Y2590099D01*
G01X9369397Y2590099D02*
G01X9369397Y4090099D01*
G01X9369397Y4090099D02*
G01X9944395Y4090099D01*
G01X9944100Y3441700D02*
G01X9944100Y3238500D01*
G01X9690100Y3238500D01*
G01X9690100Y3441700D01*
G01X9944100Y3441700D01*
G01X9155717Y2229711D02*
G01X9155717Y2386599D01*
G01X9155717Y2386599D02*
G01X9450700Y2386599D01*
G01X9450700Y2386599D02*
G01X9460700Y2386599D01*
G01X9460700Y2386599D02*
G01X9460700Y2506599D01*
G01X9460700Y2506599D02*
G01X9590700Y2506599D01*
G01X9155717Y2031591D02*
G01X9155717Y2033481D01*
G01X9155717Y1783479D02*
G01X9155717Y1636601D01*
G01X9155717Y1636601D02*
G01X9460700Y1636601D01*
G01X9460700Y1636601D02*
G01X9460700Y1506601D01*
G01X9460700Y1506601D02*
G01X9590700Y1506601D01*
G01X9155717Y1995775D02*
G01X9155717Y1979709D01*
G01X9931397Y1681701D02*
G01X9931397Y2331499D01*
G01X9155717Y1981591D02*
G01X9155717Y2031591D01*
G54D11*
G01X4522836Y8458200D02*
G01X4507601Y8442790D01*
G01X4507601Y8442790D02*
G01X4405958Y8442790D01*
G01X4405958Y8442790D02*
G01X4392701Y8458200D01*
G01X4392701Y8712200D02*
G01X4407802Y8727615D01*
G01X4407802Y8727615D02*
G01X4509445Y8727615D01*
G01X4509445Y8727615D02*
G01X4522701Y8712200D01*
G54D13*
G01X4392701Y8457999D02*
G01X4392701Y8534199D01*
G01X4522701Y8712406D02*
G01X4522701Y8636206D01*
G01X4522701Y8457999D02*
G01X4522701Y8534199D01*
G01X4392701Y8712406D02*
G01X4392701Y8636206D01*
G54D11*
G01X4532264Y8712200D02*
G01X4547499Y8727610D01*
G01X4547499Y8727610D02*
G01X4649142Y8727610D01*
G01X4649142Y8727610D02*
G01X4662399Y8712200D01*
G01X4662399Y8458200D02*
G01X4647298Y8442785D01*
G01X4647298Y8442785D02*
G01X4545655Y8442785D01*
G01X4545655Y8442785D02*
G01X4532399Y8458200D01*
G54D13*
G01X4662399Y8712401D02*
G01X4662399Y8636201D01*
G01X4532399Y8457994D02*
G01X4532399Y8534194D01*
G01X4532399Y8712401D02*
G01X4532399Y8636201D01*
G01X4662399Y8457994D02*
G01X4662399Y8534194D01*
G54D11*
G01X4803844Y8458205D02*
G01X4788609Y8442795D01*
G01X4788609Y8442795D02*
G01X4686965Y8442795D01*
G01X4686965Y8442795D02*
G01X4673709Y8458205D01*
G01X4673709Y8712205D02*
G01X4688810Y8727620D01*
G01X4688810Y8727620D02*
G01X4790453Y8727620D01*
G01X4790453Y8727620D02*
G01X4803709Y8712205D01*
G54D13*
G01X4673709Y8458004D02*
G01X4673709Y8534204D01*
G01X4803709Y8712411D02*
G01X4803709Y8636211D01*
G01X4803709Y8458004D02*
G01X4803709Y8534204D01*
G01X4673709Y8712411D02*
G01X4673709Y8636211D01*
G54D11*
G01X7923164Y1663700D02*
G01X7938399Y1679110D01*
G01X7938399Y1679110D02*
G01X8040042Y1679110D01*
G01X8040042Y1679110D02*
G01X8053299Y1663700D01*
G01X8053299Y1409700D02*
G01X8038198Y1394285D01*
G01X8038198Y1394285D02*
G01X7936555Y1394285D01*
G01X7936555Y1394285D02*
G01X7923299Y1409700D01*
G54D13*
G01X8053299Y1663901D02*
G01X8053299Y1587701D01*
G01X7923299Y1409494D02*
G01X7923299Y1485694D01*
G01X7923299Y1663901D02*
G01X7923299Y1587701D01*
G01X8053299Y1409494D02*
G01X8053299Y1485694D01*
G54D11*
G01X7161164Y4178300D02*
G01X7176399Y4193710D01*
G01X7176399Y4193710D02*
G01X7278042Y4193710D01*
G01X7278042Y4193710D02*
G01X7291299Y4178300D01*
G01X7291299Y3924300D02*
G01X7276198Y3908885D01*
G01X7276198Y3908885D02*
G01X7174555Y3908885D01*
G01X7174555Y3908885D02*
G01X7161299Y3924300D01*
G54D13*
G01X7291299Y4178501D02*
G01X7291299Y4102301D01*
G01X7161299Y3924094D02*
G01X7161299Y4000294D01*
G01X7161299Y4178501D02*
G01X7161299Y4102301D01*
G01X7291299Y3924094D02*
G01X7291299Y4000294D01*
G54D11*
G01X7608242Y982116D02*
G01X7608242Y1061009D01*
G01X7608242Y1061009D02*
G01X7707958Y1061009D01*
G01X7707958Y1061009D02*
G01X7707958Y982116D01*
G01X7608242Y922884D02*
G01X7608242Y859229D01*
G01X7608242Y859229D02*
G01X7623480Y843991D01*
G01X7623480Y843991D02*
G01X7692720Y843991D01*
G01X7692720Y843991D02*
G01X7707958Y859229D01*
G01X7707958Y859229D02*
G01X7707958Y922884D01*
G36*
G01X7623480Y828751D02*
G01X7692720Y828751D01*
G01X7692720Y813511D01*
G01X7623480Y813511D01*
G01X7623480Y828751D01*
G37*
G01X8038158Y897484D02*
G01X8038158Y818591D01*
G01X8038158Y818591D02*
G01X7938442Y818591D01*
G01X7938442Y818591D02*
G01X7938442Y897484D01*
G01X8038158Y956716D02*
G01X8038158Y1020371D01*
G01X8038158Y1020371D02*
G01X8022920Y1035609D01*
G01X8022920Y1035609D02*
G01X7953680Y1035609D01*
G01X7953680Y1035609D02*
G01X7938442Y1020371D01*
G01X7938442Y1020371D02*
G01X7938442Y956716D01*
G36*
G01X8022920Y1050849D02*
G01X7953680Y1050849D01*
G01X7953680Y1066089D01*
G01X8022920Y1066089D01*
G01X8022920Y1050849D01*
G37*
G01X8230542Y982116D02*
G01X8230542Y1061009D01*
G01X8230542Y1061009D02*
G01X8330258Y1061009D01*
G01X8330258Y1061009D02*
G01X8330258Y982116D01*
G01X8230542Y922884D02*
G01X8230542Y859229D01*
G01X8230542Y859229D02*
G01X8245780Y843991D01*
G01X8245780Y843991D02*
G01X8315020Y843991D01*
G01X8315020Y843991D02*
G01X8330258Y859229D01*
G01X8330258Y859229D02*
G01X8330258Y922884D01*
G36*
G01X8245780Y828751D02*
G01X8315020Y828751D01*
G01X8315020Y813511D01*
G01X8245780Y813511D01*
G01X8245780Y828751D01*
G37*
G01X8635058Y897484D02*
G01X8635058Y818591D01*
G01X8635058Y818591D02*
G01X8535342Y818591D01*
G01X8535342Y818591D02*
G01X8535342Y897484D01*
G01X8635058Y956716D02*
G01X8635058Y1020371D01*
G01X8635058Y1020371D02*
G01X8619820Y1035609D01*
G01X8619820Y1035609D02*
G01X8550580Y1035609D01*
G01X8550580Y1035609D02*
G01X8535342Y1020371D01*
G01X8535342Y1020371D02*
G01X8535342Y956716D01*
G36*
G01X8619820Y1050849D02*
G01X8550580Y1050849D01*
G01X8550580Y1066089D01*
G01X8619820Y1066089D01*
G01X8619820Y1050849D01*
G37*
G01X7410849Y3052031D02*
G01X7145612Y3052031D01*
G01X7145612Y3052031D02*
G01X7145612Y2937149D01*
G01X7410849Y2586794D02*
G01X7145612Y2586794D01*
G01X7145612Y2586794D02*
G01X7145612Y2701676D01*
G01X2763215Y4700697D02*
G01X2667328Y4700697D01*
G01X2667328Y4700697D02*
G01X2667328Y4568576D01*
G01X2667328Y4568576D02*
G01X2763215Y4568576D01*
G01X2848458Y4700697D02*
G01X2944345Y4700697D01*
G01X2944345Y4700697D02*
G01X2944345Y4568576D01*
G01X2944345Y4568576D02*
G01X2848458Y4568576D01*
G01X3805479Y8409960D02*
G01X3709591Y8409960D01*
G01X3709591Y8409960D02*
G01X3709591Y8277840D01*
G01X3709591Y8277840D02*
G01X3805479Y8277840D01*
G01X3890721Y8409960D02*
G01X3986609Y8409960D01*
G01X3986609Y8409960D02*
G01X3986609Y8277840D01*
G01X3986609Y8277840D02*
G01X3890721Y8277840D01*
G01X5057160Y8259521D02*
G01X5057160Y8355409D01*
G01X5057160Y8355409D02*
G01X4925040Y8355409D01*
G01X4925040Y8355409D02*
G01X4925040Y8259521D01*
G01X5057160Y8174279D02*
G01X5057160Y8078391D01*
G01X5057160Y8078391D02*
G01X4925040Y8078391D01*
G01X4925040Y8078391D02*
G01X4925040Y8174279D01*
G01X8252440Y2230679D02*
G01X8252440Y2134791D01*
G01X8252440Y2134791D02*
G01X8384560Y2134791D01*
G01X8384560Y2134791D02*
G01X8384560Y2230679D01*
G01X8252440Y2315921D02*
G01X8252440Y2411809D01*
G01X8252440Y2411809D02*
G01X8384560Y2411809D01*
G01X8384560Y2411809D02*
G01X8384560Y2315921D01*
G01X7424979Y1894860D02*
G01X7329091Y1894860D01*
G01X7329091Y1894860D02*
G01X7329091Y1762740D01*
G01X7329091Y1762740D02*
G01X7424979Y1762740D01*
G01X7510221Y1894860D02*
G01X7606109Y1894860D01*
G01X7606109Y1894860D02*
G01X7606109Y1762740D01*
G01X7606109Y1762740D02*
G01X7510221Y1762740D01*
G01X2529860Y3560521D02*
G01X2529860Y3656409D01*
G01X2529860Y3656409D02*
G01X2397740Y3656409D01*
G01X2397740Y3656409D02*
G01X2397740Y3560521D01*
G01X2529860Y3475279D02*
G01X2529860Y3379391D01*
G01X2529860Y3379391D02*
G01X2397740Y3379391D01*
G01X2397740Y3379391D02*
G01X2397740Y3475279D01*
G01X6017240Y5367579D02*
G01X6017240Y5271691D01*
G01X6017240Y5271691D02*
G01X6149360Y5271691D01*
G01X6149360Y5271691D02*
G01X6149360Y5367579D01*
G01X6017240Y5452821D02*
G01X6017240Y5548709D01*
G01X6017240Y5548709D02*
G01X6149360Y5548709D01*
G01X6149360Y5548709D02*
G01X6149360Y5452821D01*
G01X5712440Y5365852D02*
G01X5712440Y5269964D01*
G01X5712440Y5269964D02*
G01X5844560Y5269964D01*
G01X5844560Y5269964D02*
G01X5844560Y5365852D01*
G01X5712440Y5451094D02*
G01X5712440Y5546982D01*
G01X5712440Y5546982D02*
G01X5844560Y5546982D01*
G01X5844560Y5546982D02*
G01X5844560Y5451094D01*
G01X5864840Y5369306D02*
G01X5864840Y5273418D01*
G01X5864840Y5273418D02*
G01X5996960Y5273418D01*
G01X5996960Y5273418D02*
G01X5996960Y5369306D01*
G01X5864840Y5454548D02*
G01X5864840Y5550436D01*
G01X5864840Y5550436D02*
G01X5996960Y5550436D01*
G01X5996960Y5550436D02*
G01X5996960Y5454548D01*
G01X1195737Y3337555D02*
G01X1195737Y3433442D01*
G01X1195737Y3433442D02*
G01X1063616Y3433442D01*
G01X1063616Y3433442D02*
G01X1063616Y3337555D01*
G01X1195737Y3252313D02*
G01X1195737Y3156425D01*
G01X1195737Y3156425D02*
G01X1063616Y3156425D01*
G01X1063616Y3156425D02*
G01X1063616Y3252313D01*
G01X1076076Y1582115D02*
G01X1076076Y1486228D01*
G01X1076076Y1486228D02*
G01X1208197Y1486228D01*
G01X1208197Y1486228D02*
G01X1208197Y1582115D01*
G01X1076076Y1667358D02*
G01X1076076Y1763245D01*
G01X1076076Y1763245D02*
G01X1208197Y1763245D01*
G01X1208197Y1763245D02*
G01X1208197Y1667358D01*
G01X61803Y2560015D02*
G01X61803Y2464128D01*
G01X61803Y2464128D02*
G01X193924Y2464128D01*
G01X193924Y2464128D02*
G01X193924Y2560015D01*
G01X61803Y2645258D02*
G01X61803Y2741145D01*
G01X61803Y2741145D02*
G01X193924Y2741145D01*
G01X193924Y2741145D02*
G01X193924Y2645258D01*
G01X2053976Y2560015D02*
G01X2053976Y2464128D01*
G01X2053976Y2464128D02*
G01X2186097Y2464128D01*
G01X2186097Y2464128D02*
G01X2186097Y2560015D01*
G01X2053976Y2645258D02*
G01X2053976Y2741145D01*
G01X2053976Y2741145D02*
G01X2186097Y2741145D01*
G01X2186097Y2741145D02*
G01X2186097Y2645258D01*
G01X2321306Y8600460D02*
G01X2225418Y8600460D01*
G01X2225418Y8600460D02*
G01X2225418Y8468340D01*
G01X2225418Y8468340D02*
G01X2321306Y8468340D01*
G01X2406548Y8600460D02*
G01X2502436Y8600460D01*
G01X2502436Y8600460D02*
G01X2502436Y8468340D01*
G01X2502436Y8468340D02*
G01X2406548Y8468340D01*
G01X7535621Y8468340D02*
G01X7631509Y8468340D01*
G01X7631509Y8468340D02*
G01X7631509Y8600460D01*
G01X7631509Y8600460D02*
G01X7535621Y8600460D01*
G01X7450379Y8468340D02*
G01X7354491Y8468340D01*
G01X7354491Y8468340D02*
G01X7354491Y8600460D01*
G01X7354491Y8600460D02*
G01X7450379Y8600460D01*
G54D12*
G01X4953000Y3810000D02*
G01X5054600Y3810000D01*
G01X4953000Y3606800D02*
G01X5054600Y3606800D01*
G01X5223789Y3762781D02*
G01X5223789Y3654019D01*
G01X5140442Y3860787D02*
G01X4867158Y3860787D01*
G01X4783811Y3762781D02*
G01X4783811Y3654019D01*
G01X4865690Y3553409D02*
G01X5141910Y3553409D01*
G01X5054600Y3810000D02*
G02X5054600Y3606800I0J-101600D01*
G01X4953000Y3606800D02*
G02X4953000Y3810000I0J101600D01*
G01X8432800Y469900D02*
G01X8534400Y469900D01*
G01X8432800Y266700D02*
G01X8534400Y266700D01*
G01X8703589Y422681D02*
G01X8703589Y313919D01*
G01X8620242Y520687D02*
G01X8346958Y520687D01*
G01X8263611Y422681D02*
G01X8263611Y313919D01*
G01X8345490Y213309D02*
G01X8621710Y213309D01*
G01X8534400Y469900D02*
G02X8534400Y266700I0J-101600D01*
G01X8432800Y266700D02*
G02X8432800Y469900I0J101600D01*
G01X1236696Y2646401D02*
G01X1236696Y3246399D01*
G01X1836694Y2646401D02*
G01X1836694Y3246399D01*
G01X1236696Y2646401D02*
G01X1836694Y2646401D01*
G01X1236696Y3246399D02*
G01X1836694Y3246399D01*
G01X1236696Y830301D02*
G01X1236696Y1430299D01*
G01X1836694Y830301D02*
G01X1836694Y1430299D01*
G01X1236696Y830301D02*
G01X1836694Y830301D01*
G01X1236696Y1430299D02*
G01X1836694Y1430299D01*
G01X233396Y1782801D02*
G01X233396Y2382799D01*
G01X833394Y1782801D02*
G01X833394Y2382799D01*
G01X233396Y1782801D02*
G01X833394Y1782801D01*
G01X233396Y2382799D02*
G01X833394Y2382799D01*
G01X2214596Y1782801D02*
G01X2214596Y2382799D01*
G01X2814594Y1782801D02*
G01X2814594Y2382799D01*
G01X2214596Y1782801D02*
G01X2814594Y1782801D01*
G01X2214596Y2382799D02*
G01X2814594Y2382799D01*
G01X2149981Y8313897D02*
G01X2137063Y8328882D01*
G01X1726737Y7949038D02*
G01X1713820Y7964022D01*
G01X1854143Y7693138D02*
G01X1907607Y7739226D01*
G01X1907607Y7739226D02*
G01X1874044Y7778159D01*
G01X2386422Y8147767D02*
G01X2332939Y8101662D01*
G01X2332939Y8101662D02*
G01X2297288Y8143019D01*
G01X2386422Y8147767D02*
G01X2364040Y8173731D01*
G01X1854143Y7693138D02*
G01X1833850Y7716678D01*
G01X1653721Y7912214D02*
G01X1645198Y7904867D01*
G01X2183910Y8369267D02*
G01X1666972Y7923637D01*
G01X2205684Y8388037D02*
G01X2197161Y8380691D01*
G01X1521143Y8048774D02*
G01X1645844Y7904119D01*
G01X2081628Y8531944D02*
G01X2205684Y8388037D01*
G01X1462855Y8935938D02*
G01X1212907Y8720468D01*
G01X1212907Y8720468D02*
G01X1572025Y8303885D01*
G01X1462855Y8935938D02*
G01X1821973Y8519355D01*
G01X1521143Y8048774D02*
G01X1416672Y8169962D01*
G01X2081628Y8531944D02*
G01X1977158Y8653132D01*
G01X1977158Y8653132D02*
G01X1416672Y8169962D01*
G01X8145378Y7969283D02*
G01X8157959Y7984552D01*
G01X7714119Y8324633D02*
G01X7726700Y8339902D01*
G01X7483488Y8155736D02*
G01X7537964Y8110849D01*
G01X7537964Y8110849D02*
G01X7570652Y8150519D01*
G01X8021683Y7708126D02*
G01X7967187Y7753029D01*
G01X7967187Y7753029D02*
G01X8001910Y7795169D01*
G01X8021683Y7708126D02*
G01X8043482Y7734581D01*
G01X7483488Y8155736D02*
G01X7503252Y8179722D01*
G01X7665464Y8390360D02*
G01X7656780Y8397516D01*
G01X8205693Y7945219D02*
G01X7678966Y8379234D01*
G01X8227879Y7926938D02*
G01X8219195Y7934094D01*
G01X7777602Y8544147D02*
G01X7656151Y8396753D01*
G01X8348702Y8073570D02*
G01X8227879Y7926938D01*
G01X8642085Y8751815D02*
G01X8387404Y8961669D01*
G01X8387404Y8961669D02*
G01X8037645Y8537197D01*
G01X8642085Y8751815D02*
G01X8292327Y8327344D01*
G01X7777602Y8544147D02*
G01X7879350Y8667630D01*
G01X8348702Y8073570D02*
G01X8450450Y8197053D01*
G01X8450450Y8197053D02*
G01X7879350Y8667630D01*
G54D14*
G01X3623310Y4188460D02*
G01X3623310Y3568700D01*
G01X3623310Y3568700D02*
G01X2957830Y3568700D01*
G01X2957830Y3568700D02*
G01X2957830Y4231640D01*
G01X2957830Y4231640D02*
G01X3623310Y4231640D01*
G01X3623310Y4231640D02*
G01X3623310Y4155440D01*
G54D15*
G01X2883301Y4237899D02*
G03X2843302Y4237772I-20000J-127D01*
G03X2883301Y4237645I20000J0D01*
G54D14*
G01X4821593Y8305312D02*
G01X4821593Y8367814D01*
G01X4821593Y8367814D02*
G01X4759091Y8367814D01*
G01X4454093Y8367814D02*
G01X4391591Y8367814D01*
G01X4391591Y8367814D02*
G01X4391591Y8305312D01*
G01X4454093Y7937812D02*
G01X4391591Y7937812D01*
G01X4391591Y7937812D02*
G01X4391591Y8000314D01*
G01X4759091Y7937812D02*
G01X4821593Y7937812D01*
G01X4821593Y7937812D02*
G01X4821593Y8000314D01*
G54D16*
G01X4411520Y7900337D02*
G03X4411647Y7870335I127J-15001D01*
G03X4411774Y7900337I0J15001D01*
G54D11*
G01X8176759Y2248451D02*
G01X8176759Y1944169D01*
G01X8176759Y1944169D02*
G01X7661520Y1944169D01*
G01X7661520Y1944169D02*
G01X7661520Y2248451D01*
G01X7661520Y2248451D02*
G01X8176759Y2248451D01*
G54D12*
G01X6041509Y4532401D02*
G01X6078395Y4532401D01*
G01X6078395Y4532401D02*
G01X6078395Y5007402D01*
G01X6078395Y5007402D02*
G01X5578396Y5007402D01*
G01X5578396Y5007402D02*
G01X5578396Y5732399D01*
G01X5578396Y5732399D02*
G01X6313396Y5732399D01*
G01X6313396Y5732399D02*
G01X6313396Y7652395D01*
G01X6313396Y7652395D02*
G01X3643401Y7652395D01*
G01X3643401Y7652395D02*
G01X3643401Y5732399D01*
G01X3643401Y5732399D02*
G01X4378399Y5732399D01*
G01X4378399Y5732399D02*
G01X4378399Y5007402D01*
G01X4378399Y5007402D02*
G01X3878400Y5007402D01*
G01X3878400Y5007402D02*
G01X3878400Y4532401D01*
G01X3878400Y4532401D02*
G01X3915286Y4532401D01*
G01X2206727Y4318000D02*
G01X2206727Y6084642D01*
G01X558800Y6084689D02*
G01X625208Y6084689D01*
G01X793392Y6084689D02*
G01X1975208Y6084689D01*
G01X2143392Y6084689D02*
G01X2206727Y6084642D01*
G01X2150250Y6084689D01*
G01X558800Y4318000D02*
G01X2184400Y4318000D01*
G01X2184400Y4318000D02*
G01X2206727Y4318000D01*
G01X558800Y5473700D02*
G01X558800Y4318000D01*
G01X558800Y6084689D02*
G01X558800Y5473700D01*
G01X558800Y5473700D02*
G01X432298Y5473700D01*
G01X432298Y4914900D02*
G01X558800Y4914900D01*
G01X336302Y5473700D02*
G01X292100Y5473700D01*
G01X292100Y4914900D01*
G01X336302Y4914900D01*
G01X1663700Y6242298D02*
G01X1663700Y6286500D01*
G01X1104900Y6286500D01*
G01X1104900Y6242298D01*
G01X1104900Y6146302D02*
G01X1104900Y6086881D01*
G01X1663700Y6088202D02*
G01X1663700Y6146302D01*
G01X9483827Y4318000D02*
G01X9483827Y6084642D01*
G01X7835900Y6084689D02*
G01X7902308Y6084689D01*
G01X8070492Y6084689D02*
G01X9252308Y6084689D01*
G01X9420492Y6084689D02*
G01X9483827Y6084642D01*
G01X9427350Y6084689D01*
G01X7835900Y4318000D02*
G01X9461500Y4318000D01*
G01X9461500Y4318000D02*
G01X9483827Y4318000D01*
G01X7835900Y5473700D02*
G01X7835900Y4318000D01*
G01X7835900Y6084689D02*
G01X7835900Y5473700D01*
G01X7835900Y5473700D02*
G01X7709398Y5473700D01*
G01X7709398Y4914900D02*
G01X7835900Y4914900D01*
G01X7613402Y5473700D02*
G01X7569200Y5473700D01*
G01X7569200Y4914900D01*
G01X7613402Y4914900D01*
G01X8940800Y6242298D02*
G01X8940800Y6286500D01*
G01X8382000Y6286500D01*
G01X8382000Y6242298D01*
G01X8382000Y6146302D02*
G01X8382000Y6086881D01*
G01X8940800Y6088202D02*
G01X8940800Y6146302D01*
G54D11*
G01X2298360Y4193748D02*
G01X2298360Y3858026D01*
G01X2298360Y3858026D02*
G01X1892640Y3858026D01*
G01X1892640Y3858026D02*
G01X1892640Y4193748D01*
G01X1892640Y4193748D02*
G01X2298360Y4193748D01*
G01X2321220Y4050889D02*
G01X2321220Y4216608D01*
G01X2321220Y4216608D02*
G01X2135500Y4216608D01*
G01X5775957Y8236963D02*
G01X5775957Y8392663D01*
G01X5775957Y8392663D02*
G01X5610349Y8392663D01*
G01X5753161Y8369757D02*
G01X5753161Y8064038D01*
G01X5753161Y8064038D02*
G01X5397439Y8064038D01*
G01X5397439Y8064038D02*
G01X5397439Y8369757D01*
G01X5397439Y8369757D02*
G01X5753161Y8369757D01*

G04 Circle Start*
G54D15*
G01X9025725Y1690611D02*
G03X9065705Y1690611I19990J0D01*
G03X9025725Y1690611I-19990J0D01*
G54D18*
G01X7604430Y952497D02*
G03X7612050Y952497I3810J0D01*
G03X7604430Y952497I-3810J0D01*
G01X7704150Y952497D02*
G03X7711770Y952497I3810J0D01*
G03X7704150Y952497I-3810J0D01*
G01X8034350Y927103D02*
G03X8041970Y927103I3810J0D01*
G03X8034350Y927103I-3810J0D01*
G01X7934630Y927103D02*
G03X7942250Y927103I3810J0D01*
G03X7934630Y927103I-3810J0D01*
G01X8226730Y952497D02*
G03X8234350Y952497I3810J0D01*
G03X8226730Y952497I-3810J0D01*
G01X8326450Y952497D02*
G03X8334070Y952497I3810J0D01*
G03X8326450Y952497I-3810J0D01*
G01X8631250Y927103D02*
G03X8638870Y927103I3810J0D01*
G03X8631250Y927103I-3810J0D01*
G01X8531530Y927103D02*
G03X8539150Y927103I3810J0D01*
G03X8531530Y927103I-3810J0D01*
G54D12*
G01X1363942Y2946400D02*
G03X1709433Y2946400I172745J0D01*
G03X1363942Y2946400I-172745J0D01*
G01X1400670Y2946400D02*
G03X1672704Y2946400I136017J0D01*
G03X1400670Y2946400I-136017J0D01*
G01X1286701Y2731414D02*
G03X1356703Y2731414I35001J0D01*
G03X1286701Y2731414I-35001J0D01*
G01X1716697Y2731414D02*
G03X1786700Y2731414I35001J0D01*
G03X1716697Y2731414I-35001J0D01*
G01X1716672Y3161411D02*
G03X1786674Y3161411I35001J0D01*
G03X1716672Y3161411I-35001J0D01*
G01X1286701Y3161386D02*
G03X1356703Y3161386I35001J0D01*
G03X1286701Y3161386I-35001J0D01*
G01X1363942Y1130300D02*
G03X1709433Y1130300I172745J0D01*
G03X1363942Y1130300I-172745J0D01*
G01X1400670Y1130300D02*
G03X1672704Y1130300I136017J0D01*
G03X1400670Y1130300I-136017J0D01*
G01X1286701Y915314D02*
G03X1356703Y915314I35001J0D01*
G03X1286701Y915314I-35001J0D01*
G01X1716697Y915314D02*
G03X1786700Y915314I35001J0D01*
G03X1716697Y915314I-35001J0D01*
G01X1716672Y1345311D02*
G03X1786674Y1345311I35001J0D01*
G03X1716672Y1345311I-35001J0D01*
G01X1286701Y1345286D02*
G03X1356703Y1345286I35001J0D01*
G03X1286701Y1345286I-35001J0D01*
G01X360642Y2082800D02*
G03X706133Y2082800I172745J0D01*
G03X360642Y2082800I-172745J0D01*
G01X397370Y2082800D02*
G03X669404Y2082800I136017J0D01*
G03X397370Y2082800I-136017J0D01*
G01X283401Y1867814D02*
G03X353403Y1867814I35001J0D01*
G03X283401Y1867814I-35001J0D01*
G01X713397Y1867814D02*
G03X783400Y1867814I35001J0D01*
G03X713397Y1867814I-35001J0D01*
G01X713372Y2297811D02*
G03X783374Y2297811I35001J0D01*
G03X713372Y2297811I-35001J0D01*
G01X283401Y2297786D02*
G03X353403Y2297786I35001J0D01*
G03X283401Y2297786I-35001J0D01*
G01X2341842Y2082800D02*
G03X2687333Y2082800I172745J0D01*
G03X2341842Y2082800I-172745J0D01*
G01X2378570Y2082800D02*
G03X2650604Y2082800I136017J0D01*
G03X2378570Y2082800I-136017J0D01*
G01X2264601Y1867814D02*
G03X2334603Y1867814I35001J0D01*
G03X2264601Y1867814I-35001J0D01*
G01X2694597Y1867814D02*
G03X2764600Y1867814I35001J0D01*
G03X2694597Y1867814I-35001J0D01*
G01X2694572Y2297811D02*
G03X2764574Y2297811I35001J0D01*
G03X2694572Y2297811I-35001J0D01*
G01X2264601Y2297786D02*
G03X2334603Y2297786I35001J0D01*
G03X2264601Y2297786I-35001J0D01*
G01X2989250Y4160901D02*
G03X3023337Y4160901I17043J0D01*
G03X2989250Y4160901I-17043J0D01*
G54D16*
G01X8171362Y2364560D02*
G03X8201384Y2364560I15011J0D01*
G03X8171362Y2364560I-15011J0D01*
G01X8120028Y2197910D02*
G03X8150051Y2197910I15011J0D01*
G03X8120028Y2197910I-15011J0D01*
G04 Circle End*

M02*

